G04 #@! TF.GenerationSoftware,KiCad,Pcbnew,(5.1.5)-3*
G04 #@! TF.CreationDate,2020-03-29T22:20:37+02:00*
G04 #@! TF.ProjectId,c3dpb,63336470-622e-46b6-9963-61645f706362,rev?*
G04 #@! TF.SameCoordinates,Original*
G04 #@! TF.FileFunction,Soldermask,Bot*
G04 #@! TF.FilePolarity,Negative*
%FSLAX46Y46*%
G04 Gerber Fmt 4.6, Leading zero omitted, Abs format (unit mm)*
G04 Created by KiCad (PCBNEW (5.1.5)-3) date 2020-03-29 22:20:37*
%MOMM*%
%LPD*%
G04 APERTURE LIST*
%ADD10C,0.100000*%
G04 APERTURE END LIST*
D10*
G36*
X85715000Y-94950001D02*
G01*
X85716441Y-94964633D01*
X85720709Y-94978702D01*
X85727640Y-94991668D01*
X85736967Y-95003033D01*
X85748332Y-95012360D01*
X85761298Y-95019291D01*
X85775367Y-95023559D01*
X85789999Y-95025000D01*
X86835000Y-95025000D01*
X86835000Y-95025001D01*
X86836441Y-95039633D01*
X86840709Y-95053702D01*
X86847640Y-95066668D01*
X86856967Y-95078033D01*
X86868332Y-95087360D01*
X86881298Y-95094291D01*
X86895367Y-95098559D01*
X86909999Y-95100000D01*
X87225000Y-95100000D01*
X87225000Y-95450000D01*
X86909999Y-95450000D01*
X86895367Y-95451441D01*
X86881298Y-95455709D01*
X86868332Y-95462640D01*
X86856967Y-95471967D01*
X86847640Y-95483332D01*
X86840709Y-95496298D01*
X86836441Y-95510367D01*
X86835000Y-95524999D01*
X86835000Y-95675001D01*
X86836441Y-95689633D01*
X86840709Y-95703702D01*
X86847640Y-95716668D01*
X86856967Y-95728033D01*
X86868332Y-95737360D01*
X86881298Y-95744291D01*
X86895367Y-95748559D01*
X86909999Y-95750000D01*
X87225000Y-95750000D01*
X87225000Y-96100000D01*
X86909999Y-96100000D01*
X86895367Y-96101441D01*
X86881298Y-96105709D01*
X86868332Y-96112640D01*
X86856967Y-96121967D01*
X86847640Y-96133332D01*
X86840709Y-96146298D01*
X86836441Y-96160367D01*
X86835000Y-96174999D01*
X86835000Y-96325001D01*
X86836441Y-96339633D01*
X86840709Y-96353702D01*
X86847640Y-96366668D01*
X86856967Y-96378033D01*
X86868332Y-96387360D01*
X86881298Y-96394291D01*
X86895367Y-96398559D01*
X86909999Y-96400000D01*
X87225000Y-96400000D01*
X87225000Y-96750000D01*
X86909999Y-96750000D01*
X86895367Y-96751441D01*
X86881298Y-96755709D01*
X86868332Y-96762640D01*
X86856967Y-96771967D01*
X86847640Y-96783332D01*
X86840709Y-96796298D01*
X86836441Y-96810367D01*
X86835000Y-96824999D01*
X86835000Y-96975001D01*
X86836441Y-96989633D01*
X86840709Y-97003702D01*
X86847640Y-97016668D01*
X86856967Y-97028033D01*
X86868332Y-97037360D01*
X86881298Y-97044291D01*
X86895367Y-97048559D01*
X86909999Y-97050000D01*
X87225000Y-97050000D01*
X87225000Y-97400000D01*
X86909999Y-97400000D01*
X86895367Y-97401441D01*
X86881298Y-97405709D01*
X86868332Y-97412640D01*
X86856967Y-97421967D01*
X86847640Y-97433332D01*
X86840709Y-97446298D01*
X86836441Y-97460367D01*
X86835000Y-97474999D01*
X86835000Y-97475000D01*
X85789999Y-97475000D01*
X85775367Y-97476441D01*
X85761298Y-97480709D01*
X85748332Y-97487640D01*
X85736967Y-97496967D01*
X85727640Y-97508332D01*
X85720709Y-97521298D01*
X85716441Y-97535367D01*
X85715000Y-97549999D01*
X85715000Y-97855000D01*
X85285000Y-97855000D01*
X85285000Y-97549999D01*
X85283559Y-97535367D01*
X85279291Y-97521298D01*
X85272360Y-97508332D01*
X85263033Y-97496967D01*
X85251668Y-97487640D01*
X85238702Y-97480709D01*
X85224633Y-97476441D01*
X85210001Y-97475000D01*
X84855000Y-97475000D01*
X84855000Y-95025000D01*
X85210001Y-95025000D01*
X85224633Y-95023559D01*
X85238702Y-95019291D01*
X85251668Y-95012360D01*
X85263033Y-95003033D01*
X85272360Y-94991668D01*
X85279291Y-94978702D01*
X85283559Y-94964633D01*
X85285000Y-94950001D01*
X85285000Y-94645000D01*
X85715000Y-94645000D01*
X85715000Y-94950001D01*
G37*
G36*
X78700000Y-97750000D02*
G01*
X77800000Y-97750000D01*
X77800000Y-97250000D01*
X78700000Y-97250000D01*
X78700000Y-97750000D01*
G37*
G36*
X75700000Y-97750000D02*
G01*
X74800000Y-97750000D01*
X74800000Y-97250000D01*
X75700000Y-97250000D01*
X75700000Y-97750000D01*
G37*
G36*
X80200000Y-97750000D02*
G01*
X79300000Y-97750000D01*
X79300000Y-97250000D01*
X80200000Y-97250000D01*
X80200000Y-97750000D01*
G37*
G36*
X91200000Y-97750000D02*
G01*
X90300000Y-97750000D01*
X90300000Y-97250000D01*
X91200000Y-97250000D01*
X91200000Y-97750000D01*
G37*
G36*
X77200000Y-97750000D02*
G01*
X76300000Y-97750000D01*
X76300000Y-97250000D01*
X77200000Y-97250000D01*
X77200000Y-97750000D01*
G37*
G36*
X81700000Y-97750000D02*
G01*
X80800000Y-97750000D01*
X80800000Y-97250000D01*
X81700000Y-97250000D01*
X81700000Y-97750000D01*
G37*
G36*
X74200000Y-97750000D02*
G01*
X73300000Y-97750000D01*
X73300000Y-97250000D01*
X74200000Y-97250000D01*
X74200000Y-97750000D01*
G37*
G36*
X89600000Y-97625000D02*
G01*
X87900000Y-97625000D01*
X87900000Y-96875000D01*
X89600000Y-96875000D01*
X89600000Y-97625000D01*
G37*
G36*
X99575000Y-97455000D02*
G01*
X98325000Y-97455000D01*
X98325000Y-96855000D01*
X99575000Y-96855000D01*
X99575000Y-97455000D01*
G37*
G36*
X94175000Y-97455000D02*
G01*
X92925000Y-97455000D01*
X92925000Y-96855000D01*
X94175000Y-96855000D01*
X94175000Y-97455000D01*
G37*
G36*
X84425000Y-97400000D02*
G01*
X83775000Y-97400000D01*
X83775000Y-97050000D01*
X84425000Y-97050000D01*
X84425000Y-97400000D01*
G37*
G36*
X84425000Y-96750000D02*
G01*
X83775000Y-96750000D01*
X83775000Y-96400000D01*
X84425000Y-96400000D01*
X84425000Y-96750000D01*
G37*
G36*
X72750000Y-96700000D02*
G01*
X72250000Y-96700000D01*
X72250000Y-95800000D01*
X72750000Y-95800000D01*
X72750000Y-96700000D01*
G37*
G36*
X71250000Y-96700000D02*
G01*
X70750000Y-96700000D01*
X70750000Y-95800000D01*
X71250000Y-95800000D01*
X71250000Y-96700000D01*
G37*
G36*
X91200000Y-96250000D02*
G01*
X90300000Y-96250000D01*
X90300000Y-95750000D01*
X91200000Y-95750000D01*
X91200000Y-96250000D01*
G37*
G36*
X81700000Y-96250000D02*
G01*
X80800000Y-96250000D01*
X80800000Y-95750000D01*
X81700000Y-95750000D01*
X81700000Y-96250000D01*
G37*
G36*
X74200000Y-96250000D02*
G01*
X73300000Y-96250000D01*
X73300000Y-95750000D01*
X74200000Y-95750000D01*
X74200000Y-96250000D01*
G37*
G36*
X78700000Y-96250000D02*
G01*
X77800000Y-96250000D01*
X77800000Y-95750000D01*
X78700000Y-95750000D01*
X78700000Y-96250000D01*
G37*
G36*
X80200000Y-96250000D02*
G01*
X79300000Y-96250000D01*
X79300000Y-95750000D01*
X80200000Y-95750000D01*
X80200000Y-96250000D01*
G37*
G36*
X77200000Y-96250000D02*
G01*
X76300000Y-96250000D01*
X76300000Y-95750000D01*
X77200000Y-95750000D01*
X77200000Y-96250000D01*
G37*
G36*
X75700000Y-96250000D02*
G01*
X74800000Y-96250000D01*
X74800000Y-95750000D01*
X75700000Y-95750000D01*
X75700000Y-96250000D01*
G37*
G36*
X99575000Y-96185000D02*
G01*
X98325000Y-96185000D01*
X98325000Y-95585000D01*
X99575000Y-95585000D01*
X99575000Y-96185000D01*
G37*
G36*
X94175000Y-96185000D02*
G01*
X92925000Y-96185000D01*
X92925000Y-95585000D01*
X94175000Y-95585000D01*
X94175000Y-96185000D01*
G37*
G36*
X84425000Y-96100000D02*
G01*
X83775000Y-96100000D01*
X83775000Y-95750000D01*
X84425000Y-95750000D01*
X84425000Y-96100000D01*
G37*
G36*
X84425000Y-95450000D02*
G01*
X83775000Y-95450000D01*
X83775000Y-95100000D01*
X84425000Y-95100000D01*
X84425000Y-95450000D01*
G37*
G36*
X73275000Y-95300000D02*
G01*
X72625000Y-95300000D01*
X72625000Y-94400000D01*
X73275000Y-94400000D01*
X73275000Y-95300000D01*
G37*
G36*
X71375000Y-95300000D02*
G01*
X70725000Y-95300000D01*
X70725000Y-94400000D01*
X71375000Y-94400000D01*
X71375000Y-95300000D01*
G37*
G36*
X75700000Y-95250000D02*
G01*
X74800000Y-95250000D01*
X74800000Y-94750000D01*
X75700000Y-94750000D01*
X75700000Y-95250000D01*
G37*
G36*
X77200000Y-95250000D02*
G01*
X76300000Y-95250000D01*
X76300000Y-94750000D01*
X77200000Y-94750000D01*
X77200000Y-95250000D01*
G37*
G36*
X78700000Y-95250000D02*
G01*
X77800000Y-95250000D01*
X77800000Y-94750000D01*
X78700000Y-94750000D01*
X78700000Y-95250000D01*
G37*
G36*
X81700000Y-95250000D02*
G01*
X80800000Y-95250000D01*
X80800000Y-94750000D01*
X81700000Y-94750000D01*
X81700000Y-95250000D01*
G37*
G36*
X91200000Y-95250000D02*
G01*
X90300000Y-95250000D01*
X90300000Y-94750000D01*
X91200000Y-94750000D01*
X91200000Y-95250000D01*
G37*
G36*
X83200000Y-95250000D02*
G01*
X82300000Y-95250000D01*
X82300000Y-94750000D01*
X83200000Y-94750000D01*
X83200000Y-95250000D01*
G37*
G36*
X99575000Y-94915000D02*
G01*
X98325000Y-94915000D01*
X98325000Y-94315000D01*
X99575000Y-94315000D01*
X99575000Y-94915000D01*
G37*
G36*
X94175000Y-94915000D02*
G01*
X92925000Y-94915000D01*
X92925000Y-94315000D01*
X94175000Y-94315000D01*
X94175000Y-94915000D01*
G37*
G36*
X89600000Y-94625000D02*
G01*
X87900000Y-94625000D01*
X87900000Y-93875000D01*
X89600000Y-93875000D01*
X89600000Y-94625000D01*
G37*
G36*
X81700000Y-93750000D02*
G01*
X80800000Y-93750000D01*
X80800000Y-93250000D01*
X81700000Y-93250000D01*
X81700000Y-93750000D01*
G37*
G36*
X91200000Y-93750000D02*
G01*
X90300000Y-93750000D01*
X90300000Y-93250000D01*
X91200000Y-93250000D01*
X91200000Y-93750000D01*
G37*
G36*
X83200000Y-93750000D02*
G01*
X82300000Y-93750000D01*
X82300000Y-93250000D01*
X83200000Y-93250000D01*
X83200000Y-93750000D01*
G37*
G36*
X77200000Y-93750000D02*
G01*
X76300000Y-93750000D01*
X76300000Y-93250000D01*
X77200000Y-93250000D01*
X77200000Y-93750000D01*
G37*
G36*
X78700000Y-93750000D02*
G01*
X77800000Y-93750000D01*
X77800000Y-93250000D01*
X78700000Y-93250000D01*
X78700000Y-93750000D01*
G37*
G36*
X75700000Y-93750000D02*
G01*
X74800000Y-93750000D01*
X74800000Y-93250000D01*
X75700000Y-93250000D01*
X75700000Y-93750000D01*
G37*
G36*
X99575000Y-93645000D02*
G01*
X98325000Y-93645000D01*
X98325000Y-93045000D01*
X99575000Y-93045000D01*
X99575000Y-93645000D01*
G37*
G36*
X94175000Y-93645000D02*
G01*
X92925000Y-93645000D01*
X92925000Y-93045000D01*
X94175000Y-93045000D01*
X94175000Y-93645000D01*
G37*
G36*
X72325000Y-93100000D02*
G01*
X71675000Y-93100000D01*
X71675000Y-92200000D01*
X72325000Y-92200000D01*
X72325000Y-93100000D01*
G37*
G36*
X77200000Y-92750000D02*
G01*
X76300000Y-92750000D01*
X76300000Y-92250000D01*
X77200000Y-92250000D01*
X77200000Y-92750000D01*
G37*
G36*
X74200000Y-92750000D02*
G01*
X73300000Y-92750000D01*
X73300000Y-92250000D01*
X74200000Y-92250000D01*
X74200000Y-92750000D01*
G37*
G36*
X75700000Y-92750000D02*
G01*
X74800000Y-92750000D01*
X74800000Y-92250000D01*
X75700000Y-92250000D01*
X75700000Y-92750000D01*
G37*
G36*
X72750000Y-91700000D02*
G01*
X72250000Y-91700000D01*
X72250000Y-90800000D01*
X72750000Y-90800000D01*
X72750000Y-91700000D01*
G37*
G36*
X71250000Y-91700000D02*
G01*
X70750000Y-91700000D01*
X70750000Y-90800000D01*
X71250000Y-90800000D01*
X71250000Y-91700000D01*
G37*
G36*
X80320858Y-89442273D02*
G01*
X80521048Y-89525194D01*
X80701209Y-89645574D01*
X80854426Y-89798791D01*
X80974806Y-89978952D01*
X80974807Y-89978955D01*
X81057727Y-90179142D01*
X81081768Y-90300000D01*
X81100000Y-90391661D01*
X81100000Y-90608339D01*
X81057727Y-90820858D01*
X80974806Y-91021048D01*
X80854426Y-91201209D01*
X80701209Y-91354426D01*
X80521048Y-91474806D01*
X80460224Y-91500000D01*
X80320858Y-91557727D01*
X80108341Y-91600000D01*
X79891659Y-91600000D01*
X79679142Y-91557727D01*
X79539776Y-91500000D01*
X79478952Y-91474806D01*
X79298791Y-91354426D01*
X79145574Y-91201209D01*
X79025194Y-91021048D01*
X78942273Y-90820858D01*
X78900000Y-90608339D01*
X78900000Y-90391661D01*
X78918233Y-90300000D01*
X78942273Y-90179142D01*
X79025193Y-89978955D01*
X79025194Y-89978952D01*
X79145574Y-89798791D01*
X79298791Y-89645574D01*
X79478952Y-89525194D01*
X79679142Y-89442273D01*
X79891659Y-89400000D01*
X80108341Y-89400000D01*
X80320858Y-89442273D01*
G37*
G36*
X86200000Y-91500000D02*
G01*
X85300000Y-91500000D01*
X85300000Y-91000000D01*
X86200000Y-91000000D01*
X86200000Y-91500000D01*
G37*
G36*
X84700000Y-91500000D02*
G01*
X83800000Y-91500000D01*
X83800000Y-91000000D01*
X84700000Y-91000000D01*
X84700000Y-91500000D01*
G37*
G36*
X75700000Y-91250000D02*
G01*
X74800000Y-91250000D01*
X74800000Y-90750000D01*
X75700000Y-90750000D01*
X75700000Y-91250000D01*
G37*
G36*
X77200000Y-91250000D02*
G01*
X76300000Y-91250000D01*
X76300000Y-90750000D01*
X77200000Y-90750000D01*
X77200000Y-91250000D01*
G37*
G36*
X74200000Y-91250000D02*
G01*
X73300000Y-91250000D01*
X73300000Y-90750000D01*
X74200000Y-90750000D01*
X74200000Y-91250000D01*
G37*
G36*
X98000000Y-91200000D02*
G01*
X97500000Y-91200000D01*
X97500000Y-90300000D01*
X98000000Y-90300000D01*
X98000000Y-91200000D01*
G37*
G36*
X99500000Y-91200000D02*
G01*
X99000000Y-91200000D01*
X99000000Y-90300000D01*
X99500000Y-90300000D01*
X99500000Y-91200000D01*
G37*
G36*
X93700000Y-90500000D02*
G01*
X92800000Y-90500000D01*
X92800000Y-90000000D01*
X93700000Y-90000000D01*
X93700000Y-90500000D01*
G37*
G36*
X95200000Y-90500000D02*
G01*
X94300000Y-90500000D01*
X94300000Y-90000000D01*
X95200000Y-90000000D01*
X95200000Y-90500000D01*
G37*
G36*
X90700000Y-90500000D02*
G01*
X89800000Y-90500000D01*
X89800000Y-90000000D01*
X90700000Y-90000000D01*
X90700000Y-90500000D01*
G37*
G36*
X92200000Y-90500000D02*
G01*
X91300000Y-90500000D01*
X91300000Y-90000000D01*
X92200000Y-90000000D01*
X92200000Y-90500000D01*
G37*
G36*
X73275000Y-90300000D02*
G01*
X72625000Y-90300000D01*
X72625000Y-89400000D01*
X73275000Y-89400000D01*
X73275000Y-90300000D01*
G37*
G36*
X71375000Y-90300000D02*
G01*
X70725000Y-90300000D01*
X70725000Y-89400000D01*
X71375000Y-89400000D01*
X71375000Y-90300000D01*
G37*
G36*
X77200000Y-90250000D02*
G01*
X76300000Y-90250000D01*
X76300000Y-89750000D01*
X77200000Y-89750000D01*
X77200000Y-90250000D01*
G37*
G36*
X75700000Y-90250000D02*
G01*
X74800000Y-90250000D01*
X74800000Y-89750000D01*
X75700000Y-89750000D01*
X75700000Y-90250000D01*
G37*
G36*
X86200000Y-90000000D02*
G01*
X85300000Y-90000000D01*
X85300000Y-89500000D01*
X86200000Y-89500000D01*
X86200000Y-90000000D01*
G37*
G36*
X84700000Y-90000000D02*
G01*
X83800000Y-90000000D01*
X83800000Y-89500000D01*
X84700000Y-89500000D01*
X84700000Y-90000000D01*
G37*
G36*
X98000000Y-89700000D02*
G01*
X97500000Y-89700000D01*
X97500000Y-88800000D01*
X98000000Y-88800000D01*
X98000000Y-89700000D01*
G37*
G36*
X99500000Y-89700000D02*
G01*
X99000000Y-89700000D01*
X99000000Y-88800000D01*
X99500000Y-88800000D01*
X99500000Y-89700000D01*
G37*
G36*
X93700000Y-89000000D02*
G01*
X92800000Y-89000000D01*
X92800000Y-88500000D01*
X93700000Y-88500000D01*
X93700000Y-89000000D01*
G37*
G36*
X90700000Y-89000000D02*
G01*
X89800000Y-89000000D01*
X89800000Y-88500000D01*
X90700000Y-88500000D01*
X90700000Y-89000000D01*
G37*
G36*
X92200000Y-89000000D02*
G01*
X91300000Y-89000000D01*
X91300000Y-88500000D01*
X92200000Y-88500000D01*
X92200000Y-89000000D01*
G37*
G36*
X95200000Y-89000000D02*
G01*
X94300000Y-89000000D01*
X94300000Y-88500000D01*
X95200000Y-88500000D01*
X95200000Y-89000000D01*
G37*
G36*
X77200000Y-88750000D02*
G01*
X76300000Y-88750000D01*
X76300000Y-88250000D01*
X77200000Y-88250000D01*
X77200000Y-88750000D01*
G37*
G36*
X75700000Y-88750000D02*
G01*
X74800000Y-88750000D01*
X74800000Y-88250000D01*
X75700000Y-88250000D01*
X75700000Y-88750000D01*
G37*
G36*
X72325000Y-88100000D02*
G01*
X71675000Y-88100000D01*
X71675000Y-87200000D01*
X72325000Y-87200000D01*
X72325000Y-88100000D01*
G37*
G36*
X95200000Y-87750000D02*
G01*
X94300000Y-87750000D01*
X94300000Y-87250000D01*
X95200000Y-87250000D01*
X95200000Y-87750000D01*
G37*
G36*
X74200000Y-87750000D02*
G01*
X73300000Y-87750000D01*
X73300000Y-87250000D01*
X74200000Y-87250000D01*
X74200000Y-87750000D01*
G37*
G36*
X75700000Y-87750000D02*
G01*
X74800000Y-87750000D01*
X74800000Y-87250000D01*
X75700000Y-87250000D01*
X75700000Y-87750000D01*
G37*
G36*
X77200000Y-87750000D02*
G01*
X76300000Y-87750000D01*
X76300000Y-87250000D01*
X77200000Y-87250000D01*
X77200000Y-87750000D01*
G37*
G36*
X90700000Y-87750000D02*
G01*
X89800000Y-87750000D01*
X89800000Y-87250000D01*
X90700000Y-87250000D01*
X90700000Y-87750000D01*
G37*
G36*
X93700000Y-87750000D02*
G01*
X92800000Y-87750000D01*
X92800000Y-87250000D01*
X93700000Y-87250000D01*
X93700000Y-87750000D01*
G37*
G36*
X80627132Y-83432623D02*
G01*
X81018409Y-83594695D01*
X81370545Y-83829985D01*
X81670015Y-84129455D01*
X81905305Y-84481591D01*
X81973229Y-84645575D01*
X82067377Y-84872868D01*
X82150000Y-85288243D01*
X82150000Y-85711757D01*
X82088479Y-86021045D01*
X82067377Y-86127132D01*
X81905305Y-86518409D01*
X81670015Y-86870545D01*
X81370545Y-87170015D01*
X81018409Y-87405305D01*
X80627132Y-87567377D01*
X80211757Y-87650000D01*
X79788243Y-87650000D01*
X79372868Y-87567377D01*
X78981591Y-87405305D01*
X78629455Y-87170015D01*
X78329985Y-86870545D01*
X78094695Y-86518409D01*
X77932623Y-86127132D01*
X77911521Y-86021045D01*
X77850000Y-85711757D01*
X77850000Y-85288243D01*
X77932623Y-84872868D01*
X78026771Y-84645575D01*
X78094695Y-84481591D01*
X78329985Y-84129455D01*
X78629455Y-83829985D01*
X78981591Y-83594695D01*
X79372868Y-83432623D01*
X79788243Y-83350000D01*
X80211757Y-83350000D01*
X80627132Y-83432623D01*
G37*
G36*
X84500000Y-87450000D02*
G01*
X84000000Y-87450000D01*
X84000000Y-86550000D01*
X84500000Y-86550000D01*
X84500000Y-87450000D01*
G37*
G36*
X86000000Y-87450000D02*
G01*
X85500000Y-87450000D01*
X85500000Y-86550000D01*
X86000000Y-86550000D01*
X86000000Y-87450000D01*
G37*
G36*
X72750000Y-86700000D02*
G01*
X72250000Y-86700000D01*
X72250000Y-85800000D01*
X72750000Y-85800000D01*
X72750000Y-86700000D01*
G37*
G36*
X71250000Y-86700000D02*
G01*
X70750000Y-86700000D01*
X70750000Y-85800000D01*
X71250000Y-85800000D01*
X71250000Y-86700000D01*
G37*
G36*
X97820858Y-84442273D02*
G01*
X98021048Y-84525194D01*
X98201209Y-84645574D01*
X98354426Y-84798791D01*
X98474806Y-84978952D01*
X98474807Y-84978955D01*
X98557727Y-85179142D01*
X98581768Y-85300000D01*
X98600000Y-85391661D01*
X98600000Y-85608339D01*
X98557727Y-85820858D01*
X98474806Y-86021048D01*
X98354426Y-86201209D01*
X98201209Y-86354426D01*
X98021048Y-86474806D01*
X97839513Y-86550000D01*
X97820858Y-86557727D01*
X97608341Y-86600000D01*
X97391659Y-86600000D01*
X97179142Y-86557727D01*
X97160487Y-86550000D01*
X96978952Y-86474806D01*
X96798791Y-86354426D01*
X96645574Y-86201209D01*
X96525194Y-86021048D01*
X96442273Y-85820858D01*
X96400000Y-85608339D01*
X96400000Y-85391661D01*
X96418233Y-85300000D01*
X96442273Y-85179142D01*
X96525193Y-84978955D01*
X96525194Y-84978952D01*
X96645574Y-84798791D01*
X96798791Y-84645574D01*
X96978952Y-84525194D01*
X97179142Y-84442273D01*
X97391659Y-84400000D01*
X97608341Y-84400000D01*
X97820858Y-84442273D01*
G37*
G36*
X74200000Y-86250000D02*
G01*
X73300000Y-86250000D01*
X73300000Y-85750000D01*
X74200000Y-85750000D01*
X74200000Y-86250000D01*
G37*
G36*
X75700000Y-86250000D02*
G01*
X74800000Y-86250000D01*
X74800000Y-85750000D01*
X75700000Y-85750000D01*
X75700000Y-86250000D01*
G37*
G36*
X77200000Y-86250000D02*
G01*
X76300000Y-86250000D01*
X76300000Y-85750000D01*
X77200000Y-85750000D01*
X77200000Y-86250000D01*
G37*
G36*
X93700000Y-86250000D02*
G01*
X92800000Y-86250000D01*
X92800000Y-85750000D01*
X93700000Y-85750000D01*
X93700000Y-86250000D01*
G37*
G36*
X95200000Y-86250000D02*
G01*
X94300000Y-86250000D01*
X94300000Y-85750000D01*
X95200000Y-85750000D01*
X95200000Y-86250000D01*
G37*
G36*
X90700000Y-86250000D02*
G01*
X89800000Y-86250000D01*
X89800000Y-85750000D01*
X90700000Y-85750000D01*
X90700000Y-86250000D01*
G37*
G36*
X84500000Y-85950000D02*
G01*
X84000000Y-85950000D01*
X84000000Y-85050000D01*
X84500000Y-85050000D01*
X84500000Y-85950000D01*
G37*
G36*
X86000000Y-85950000D02*
G01*
X85500000Y-85950000D01*
X85500000Y-85050000D01*
X86000000Y-85050000D01*
X86000000Y-85950000D01*
G37*
G36*
X71375000Y-85300000D02*
G01*
X70725000Y-85300000D01*
X70725000Y-84400000D01*
X71375000Y-84400000D01*
X71375000Y-85300000D01*
G37*
G36*
X73275000Y-85300000D02*
G01*
X72625000Y-85300000D01*
X72625000Y-84400000D01*
X73275000Y-84400000D01*
X73275000Y-85300000D01*
G37*
G36*
X77200000Y-85250000D02*
G01*
X76300000Y-85250000D01*
X76300000Y-84750000D01*
X77200000Y-84750000D01*
X77200000Y-85250000D01*
G37*
G36*
X75700000Y-85250000D02*
G01*
X74800000Y-85250000D01*
X74800000Y-84750000D01*
X75700000Y-84750000D01*
X75700000Y-85250000D01*
G37*
G36*
X86000000Y-84450000D02*
G01*
X85500000Y-84450000D01*
X85500000Y-83550000D01*
X86000000Y-83550000D01*
X86000000Y-84450000D01*
G37*
G36*
X84500000Y-84450000D02*
G01*
X84000000Y-84450000D01*
X84000000Y-83550000D01*
X84500000Y-83550000D01*
X84500000Y-84450000D01*
G37*
G36*
X75700000Y-83750000D02*
G01*
X74800000Y-83750000D01*
X74800000Y-83250000D01*
X75700000Y-83250000D01*
X75700000Y-83750000D01*
G37*
G36*
X77200000Y-83750000D02*
G01*
X76300000Y-83750000D01*
X76300000Y-83250000D01*
X77200000Y-83250000D01*
X77200000Y-83750000D01*
G37*
G36*
X93250000Y-83200000D02*
G01*
X92750000Y-83200000D01*
X92750000Y-82300000D01*
X93250000Y-82300000D01*
X93250000Y-83200000D01*
G37*
G36*
X91750000Y-83200000D02*
G01*
X91250000Y-83200000D01*
X91250000Y-82300000D01*
X91750000Y-82300000D01*
X91750000Y-83200000D01*
G37*
G36*
X72325000Y-83100000D02*
G01*
X71675000Y-83100000D01*
X71675000Y-82200000D01*
X72325000Y-82200000D01*
X72325000Y-83100000D01*
G37*
G36*
X98200000Y-83000000D02*
G01*
X97300000Y-83000000D01*
X97300000Y-82500000D01*
X98200000Y-82500000D01*
X98200000Y-83000000D01*
G37*
G36*
X96700000Y-83000000D02*
G01*
X95800000Y-83000000D01*
X95800000Y-82500000D01*
X96700000Y-82500000D01*
X96700000Y-83000000D01*
G37*
G36*
X74200000Y-82750000D02*
G01*
X73300000Y-82750000D01*
X73300000Y-82250000D01*
X74200000Y-82250000D01*
X74200000Y-82750000D01*
G37*
G36*
X75700000Y-82750000D02*
G01*
X74800000Y-82750000D01*
X74800000Y-82250000D01*
X75700000Y-82250000D01*
X75700000Y-82750000D01*
G37*
G36*
X92750000Y-81850000D02*
G01*
X91650000Y-81850000D01*
X91650000Y-78650000D01*
X92750000Y-78650000D01*
X92750000Y-81850000D01*
G37*
G36*
X94850000Y-81850000D02*
G01*
X93750000Y-81850000D01*
X93750000Y-78650000D01*
X94850000Y-78650000D01*
X94850000Y-81850000D01*
G37*
G36*
X71250000Y-81700000D02*
G01*
X70750000Y-81700000D01*
X70750000Y-80800000D01*
X71250000Y-80800000D01*
X71250000Y-81700000D01*
G37*
G36*
X72750000Y-81700000D02*
G01*
X72250000Y-81700000D01*
X72250000Y-80800000D01*
X72750000Y-80800000D01*
X72750000Y-81700000D01*
G37*
G36*
X96700000Y-81500000D02*
G01*
X95800000Y-81500000D01*
X95800000Y-81000000D01*
X96700000Y-81000000D01*
X96700000Y-81500000D01*
G37*
G36*
X98200000Y-81500000D02*
G01*
X97300000Y-81500000D01*
X97300000Y-81000000D01*
X98200000Y-81000000D01*
X98200000Y-81500000D01*
G37*
G36*
X74200000Y-81250000D02*
G01*
X73300000Y-81250000D01*
X73300000Y-80750000D01*
X74200000Y-80750000D01*
X74200000Y-81250000D01*
G37*
G36*
X75700000Y-81250000D02*
G01*
X74800000Y-81250000D01*
X74800000Y-80750000D01*
X75700000Y-80750000D01*
X75700000Y-81250000D01*
G37*
G36*
X90700000Y-81250000D02*
G01*
X89800000Y-81250000D01*
X89800000Y-80750000D01*
X90700000Y-80750000D01*
X90700000Y-81250000D01*
G37*
G36*
X98200000Y-80250000D02*
G01*
X97300000Y-80250000D01*
X97300000Y-79750000D01*
X98200000Y-79750000D01*
X98200000Y-80250000D01*
G37*
G36*
X96700000Y-80250000D02*
G01*
X95800000Y-80250000D01*
X95800000Y-79750000D01*
X96700000Y-79750000D01*
X96700000Y-80250000D01*
G37*
G36*
X90700000Y-79750000D02*
G01*
X89800000Y-79750000D01*
X89800000Y-79250000D01*
X90700000Y-79250000D01*
X90700000Y-79750000D01*
G37*
G36*
X98200000Y-78750000D02*
G01*
X97300000Y-78750000D01*
X97300000Y-78250000D01*
X98200000Y-78250000D01*
X98200000Y-78750000D01*
G37*
G36*
X96700000Y-78750000D02*
G01*
X95800000Y-78750000D01*
X95800000Y-78250000D01*
X96700000Y-78250000D01*
X96700000Y-78750000D01*
G37*
M02*
