M48
; DRILL file {KiCad (5.1.5)-3} date 29.03.2020 22:20:39
; FORMAT={-:-/ absolute / inch / decimal}
; #@! TF.CreationDate,2020-03-29T22:20:39+02:00
; #@! TF.GenerationSoftware,Kicad,Pcbnew,(5.1.5)-3
; #@! TF.FileFunction,Plated,1,2,PTH
FMAT,2
INCH
T1C0.0157
%
G90
G05
T1
X2.8445Y-3.3071
X2.8445Y-3.5039
X2.8445Y-3.7008
X2.8819Y-3.2795
X2.8819Y-3.4764
X2.8819Y-3.6732
X2.9626Y-3.1614
X2.9921Y-3.2185
X3.0217Y-3.3661
X3.0217Y-3.563
X3.0217Y-3.7598
X3.0807Y-3.6594
X3.1398Y-3.6614
X3.1398Y-3.7697
X3.1988Y-3.1693
X3.2185Y-3.6024
X3.2382Y-3.1693
X3.244Y-3.5392
X3.252Y-3.7205
X3.252Y-3.7618
X3.2776Y-3.1693
X3.2795Y-3.7205
X3.2795Y-3.7618
X3.3169Y-3.1693
X3.3406Y-3.5925
X3.3563Y-3.1693
X3.3563Y-3.7598
X3.3642Y-3.2677
X3.3957Y-3.7598
X3.4154Y-3.376
X3.4252Y-3.1693
X3.4252Y-3.6083
X3.4272Y-3.2087
X3.4449Y-3.2953
X3.4646Y-3.4213
X3.4744Y-3.7598
X3.4744Y-3.8169
X3.4822Y-3.5889
X3.4843Y-3.4931
X3.4843Y-3.5217
X3.4843Y-3.5503
X3.5039Y-3.1693
X3.5098Y-3.3898
X3.5138Y-3.7598
X3.5138Y-3.8169
X3.5258Y-3.5812
X3.5311Y-3.274
X3.5435Y-3.64
X3.5551Y-3.4154
X3.561Y-3.4882
X3.5748Y-3.2362
X3.5827Y-3.1299
X3.5827Y-3.189
X3.5925Y-3.7008
X3.6161Y-3.3543
X3.6319Y-3.2579
X3.6319Y-3.7638
X3.6332Y-3.6136
X3.6358Y-3.4528
X3.6378Y-3.5236
X3.6398Y-3.7165
X3.6417Y-3.8248
X3.6713Y-3.1004
X3.6713Y-3.3661
X3.6713Y-3.5236
X3.6713Y-3.6929
X3.6909Y-3.2579
X3.7067Y-3.5331
X3.7106Y-3.4941
X3.7106Y-3.4547
X3.7224Y-3.6161
X3.7244Y-3.7756
X3.7421Y-3.7087
X3.75Y-3.2756
X3.752Y-3.6161
X3.7539Y-3.1024
X3.7559Y-3.2205
X3.7815Y-3.6161
X3.7861Y-3.5748
X3.7874Y-3.4419
X3.7874Y-3.5217
X3.8091Y-3.2913
X3.813Y-3.6161
X3.8169Y-3.4528
X3.818Y-3.5129
X3.8241Y-3.7085
X3.831Y-3.6634
X3.8386Y-3.8209
X3.8425Y-3.4843
X3.8503Y-3.7624
X3.8504Y-3.122
X3.8504Y-3.1969
X3.872Y-3.248
X3.8898Y-3.5236
X3.8898Y-3.5748
X3.9035Y-3.4823
X3.9035Y-3.6358
X3.9094Y-3.1594
X3.9094Y-3.2303
X3.9094Y-3.2874
T0
M30
