G04 #@! TF.GenerationSoftware,KiCad,Pcbnew,(5.1.5)-3*
G04 #@! TF.CreationDate,2020-03-29T22:20:37+02:00*
G04 #@! TF.ProjectId,c3dpb,63336470-622e-46b6-9963-61645f706362,rev?*
G04 #@! TF.SameCoordinates,Original*
G04 #@! TF.FileFunction,Soldermask,Top*
G04 #@! TF.FilePolarity,Negative*
%FSLAX46Y46*%
G04 Gerber Fmt 4.6, Leading zero omitted, Abs format (unit mm)*
G04 Created by KiCad (PCBNEW (5.1.5)-3) date 2020-03-29 22:20:37*
%MOMM*%
%LPD*%
G04 APERTURE LIST*
%ADD10C,0.100000*%
G04 APERTURE END LIST*
D10*
G36*
X99683918Y-96704319D02*
G01*
X99722535Y-96716034D01*
X99758137Y-96735063D01*
X99789334Y-96760666D01*
X99814937Y-96791863D01*
X99833966Y-96827465D01*
X99845681Y-96866082D01*
X99850000Y-96909936D01*
X99850000Y-97690064D01*
X99845681Y-97733918D01*
X99833966Y-97772535D01*
X99814937Y-97808137D01*
X99789334Y-97839334D01*
X99758137Y-97864937D01*
X99722535Y-97883966D01*
X99683918Y-97895681D01*
X99640064Y-97900000D01*
X98259936Y-97900000D01*
X98216082Y-97895681D01*
X98177465Y-97883966D01*
X98141863Y-97864937D01*
X98110666Y-97839334D01*
X98085063Y-97808137D01*
X98066034Y-97772535D01*
X98054319Y-97733918D01*
X98050000Y-97690064D01*
X98050000Y-96909936D01*
X98054319Y-96866082D01*
X98066034Y-96827465D01*
X98085063Y-96791863D01*
X98110666Y-96760666D01*
X98141863Y-96735063D01*
X98177465Y-96716034D01*
X98216082Y-96704319D01*
X98259936Y-96700000D01*
X99640064Y-96700000D01*
X99683918Y-96704319D01*
G37*
G36*
X71783918Y-96704319D02*
G01*
X71822535Y-96716034D01*
X71858137Y-96735063D01*
X71889334Y-96760666D01*
X71914937Y-96791863D01*
X71933966Y-96827465D01*
X71945681Y-96866082D01*
X71950000Y-96909936D01*
X71950000Y-97690064D01*
X71945681Y-97733918D01*
X71933966Y-97772535D01*
X71914937Y-97808137D01*
X71889334Y-97839334D01*
X71858137Y-97864937D01*
X71822535Y-97883966D01*
X71783918Y-97895681D01*
X71740064Y-97900000D01*
X70359936Y-97900000D01*
X70316082Y-97895681D01*
X70277465Y-97883966D01*
X70241863Y-97864937D01*
X70210666Y-97839334D01*
X70185063Y-97808137D01*
X70166034Y-97772535D01*
X70154319Y-97733918D01*
X70150000Y-97690064D01*
X70150000Y-96909936D01*
X70154319Y-96866082D01*
X70166034Y-96827465D01*
X70185063Y-96791863D01*
X70210666Y-96760666D01*
X70241863Y-96735063D01*
X70277465Y-96716034D01*
X70316082Y-96704319D01*
X70359936Y-96700000D01*
X71740064Y-96700000D01*
X71783918Y-96704319D01*
G37*
G36*
X90983918Y-96054319D02*
G01*
X91022535Y-96066034D01*
X91058137Y-96085063D01*
X91089334Y-96110666D01*
X91114937Y-96141863D01*
X91133966Y-96177465D01*
X91145681Y-96216082D01*
X91150000Y-96259936D01*
X91150000Y-97640064D01*
X91145681Y-97683918D01*
X91133966Y-97722535D01*
X91114937Y-97758137D01*
X91089334Y-97789334D01*
X91058137Y-97814937D01*
X91022535Y-97833966D01*
X90983918Y-97845681D01*
X90940064Y-97850000D01*
X90159936Y-97850000D01*
X90116082Y-97845681D01*
X90077465Y-97833966D01*
X90041863Y-97814937D01*
X90010666Y-97789334D01*
X89985063Y-97758137D01*
X89966034Y-97722535D01*
X89954319Y-97683918D01*
X89950000Y-97640064D01*
X89950000Y-96259936D01*
X89954319Y-96216082D01*
X89966034Y-96177465D01*
X89985063Y-96141863D01*
X90010666Y-96110666D01*
X90041863Y-96085063D01*
X90077465Y-96066034D01*
X90116082Y-96054319D01*
X90159936Y-96050000D01*
X90940064Y-96050000D01*
X90983918Y-96054319D01*
G37*
G36*
X81983918Y-96054319D02*
G01*
X82022535Y-96066034D01*
X82058137Y-96085063D01*
X82089334Y-96110666D01*
X82114937Y-96141863D01*
X82133966Y-96177465D01*
X82145681Y-96216082D01*
X82150000Y-96259936D01*
X82150000Y-97640064D01*
X82145681Y-97683918D01*
X82133966Y-97722535D01*
X82114937Y-97758137D01*
X82089334Y-97789334D01*
X82058137Y-97814937D01*
X82022535Y-97833966D01*
X81983918Y-97845681D01*
X81940064Y-97850000D01*
X81159936Y-97850000D01*
X81116082Y-97845681D01*
X81077465Y-97833966D01*
X81041863Y-97814937D01*
X81010666Y-97789334D01*
X80985063Y-97758137D01*
X80966034Y-97722535D01*
X80954319Y-97683918D01*
X80950000Y-97640064D01*
X80950000Y-96259936D01*
X80954319Y-96216082D01*
X80966034Y-96177465D01*
X80985063Y-96141863D01*
X81010666Y-96110666D01*
X81041863Y-96085063D01*
X81077465Y-96066034D01*
X81116082Y-96054319D01*
X81159936Y-96050000D01*
X81940064Y-96050000D01*
X81983918Y-96054319D01*
G37*
G36*
X83383918Y-96054319D02*
G01*
X83422535Y-96066034D01*
X83458137Y-96085063D01*
X83489334Y-96110666D01*
X83514937Y-96141863D01*
X83533966Y-96177465D01*
X83545681Y-96216082D01*
X83550000Y-96259936D01*
X83550000Y-97640064D01*
X83545681Y-97683918D01*
X83533966Y-97722535D01*
X83514937Y-97758137D01*
X83489334Y-97789334D01*
X83458137Y-97814937D01*
X83422535Y-97833966D01*
X83383918Y-97845681D01*
X83340064Y-97850000D01*
X82559936Y-97850000D01*
X82516082Y-97845681D01*
X82477465Y-97833966D01*
X82441863Y-97814937D01*
X82410666Y-97789334D01*
X82385063Y-97758137D01*
X82366034Y-97722535D01*
X82354319Y-97683918D01*
X82350000Y-97640064D01*
X82350000Y-96259936D01*
X82354319Y-96216082D01*
X82366034Y-96177465D01*
X82385063Y-96141863D01*
X82410666Y-96110666D01*
X82441863Y-96085063D01*
X82477465Y-96066034D01*
X82516082Y-96054319D01*
X82559936Y-96050000D01*
X83340064Y-96050000D01*
X83383918Y-96054319D01*
G37*
G36*
X77383918Y-96054319D02*
G01*
X77422535Y-96066034D01*
X77458137Y-96085063D01*
X77489334Y-96110666D01*
X77514937Y-96141863D01*
X77533966Y-96177465D01*
X77545681Y-96216082D01*
X77550000Y-96259936D01*
X77550000Y-97640064D01*
X77545681Y-97683918D01*
X77533966Y-97722535D01*
X77514937Y-97758137D01*
X77489334Y-97789334D01*
X77458137Y-97814937D01*
X77422535Y-97833966D01*
X77383918Y-97845681D01*
X77340064Y-97850000D01*
X76559936Y-97850000D01*
X76516082Y-97845681D01*
X76477465Y-97833966D01*
X76441863Y-97814937D01*
X76410666Y-97789334D01*
X76385063Y-97758137D01*
X76366034Y-97722535D01*
X76354319Y-97683918D01*
X76350000Y-97640064D01*
X76350000Y-96259936D01*
X76354319Y-96216082D01*
X76366034Y-96177465D01*
X76385063Y-96141863D01*
X76410666Y-96110666D01*
X76441863Y-96085063D01*
X76477465Y-96066034D01*
X76516082Y-96054319D01*
X76559936Y-96050000D01*
X77340064Y-96050000D01*
X77383918Y-96054319D01*
G37*
G36*
X93700000Y-97750000D02*
G01*
X92800000Y-97750000D01*
X92800000Y-97250000D01*
X93700000Y-97250000D01*
X93700000Y-97750000D01*
G37*
G36*
X94750000Y-97700000D02*
G01*
X94250000Y-97700000D01*
X94250000Y-96800000D01*
X94750000Y-96800000D01*
X94750000Y-97700000D01*
G37*
G36*
X96250000Y-97700000D02*
G01*
X95750000Y-97700000D01*
X95750000Y-96800000D01*
X96250000Y-96800000D01*
X96250000Y-97700000D01*
G37*
G36*
X95200000Y-96500000D02*
G01*
X94300000Y-96500000D01*
X94300000Y-96000000D01*
X95200000Y-96000000D01*
X95200000Y-96500000D01*
G37*
G36*
X74259375Y-95702518D02*
G01*
X74280415Y-95708900D01*
X74299801Y-95719262D01*
X74316793Y-95733207D01*
X74330738Y-95750199D01*
X74341100Y-95769585D01*
X74347482Y-95790625D01*
X74350000Y-95816187D01*
X74350000Y-96183813D01*
X74347482Y-96209375D01*
X74341100Y-96230415D01*
X74330738Y-96249801D01*
X74316793Y-96266793D01*
X74299801Y-96280738D01*
X74280415Y-96291100D01*
X74259375Y-96297482D01*
X74233813Y-96300000D01*
X72916187Y-96300000D01*
X72890625Y-96297482D01*
X72869585Y-96291100D01*
X72850199Y-96280738D01*
X72833207Y-96266793D01*
X72819262Y-96249801D01*
X72808900Y-96230415D01*
X72802518Y-96209375D01*
X72800000Y-96183813D01*
X72800000Y-95816187D01*
X72802518Y-95790625D01*
X72808900Y-95769585D01*
X72819262Y-95750199D01*
X72833207Y-95733207D01*
X72850199Y-95719262D01*
X72869585Y-95708900D01*
X72890625Y-95702518D01*
X72916187Y-95700000D01*
X74233813Y-95700000D01*
X74259375Y-95702518D01*
G37*
G36*
X97109375Y-95702518D02*
G01*
X97130415Y-95708900D01*
X97149801Y-95719262D01*
X97166793Y-95733207D01*
X97180738Y-95750199D01*
X97191100Y-95769585D01*
X97197482Y-95790625D01*
X97200000Y-95816187D01*
X97200000Y-96183813D01*
X97197482Y-96209375D01*
X97191100Y-96230415D01*
X97180738Y-96249801D01*
X97166793Y-96266793D01*
X97149801Y-96280738D01*
X97130415Y-96291100D01*
X97109375Y-96297482D01*
X97083813Y-96300000D01*
X95766187Y-96300000D01*
X95740625Y-96297482D01*
X95719585Y-96291100D01*
X95700199Y-96280738D01*
X95683207Y-96266793D01*
X95669262Y-96249801D01*
X95658900Y-96230415D01*
X95652518Y-96209375D01*
X95650000Y-96183813D01*
X95650000Y-95816187D01*
X95652518Y-95790625D01*
X95658900Y-95769585D01*
X95669262Y-95750199D01*
X95683207Y-95733207D01*
X95700199Y-95719262D01*
X95719585Y-95708900D01*
X95740625Y-95702518D01*
X95766187Y-95700000D01*
X97083813Y-95700000D01*
X97109375Y-95702518D01*
G37*
G36*
X93700000Y-96250000D02*
G01*
X92800000Y-96250000D01*
X92800000Y-95750000D01*
X93700000Y-95750000D01*
X93700000Y-96250000D01*
G37*
G36*
X97109375Y-94702518D02*
G01*
X97130415Y-94708900D01*
X97149801Y-94719262D01*
X97166793Y-94733207D01*
X97180738Y-94750199D01*
X97191100Y-94769585D01*
X97197482Y-94790625D01*
X97200000Y-94816187D01*
X97200000Y-95183813D01*
X97197482Y-95209375D01*
X97191100Y-95230415D01*
X97180738Y-95249801D01*
X97166793Y-95266793D01*
X97149801Y-95280738D01*
X97130415Y-95291100D01*
X97109375Y-95297482D01*
X97083813Y-95300000D01*
X95766187Y-95300000D01*
X95740625Y-95297482D01*
X95719585Y-95291100D01*
X95700199Y-95280738D01*
X95683207Y-95266793D01*
X95669262Y-95249801D01*
X95658900Y-95230415D01*
X95652518Y-95209375D01*
X95650000Y-95183813D01*
X95650000Y-94816187D01*
X95652518Y-94790625D01*
X95658900Y-94769585D01*
X95669262Y-94750199D01*
X95683207Y-94733207D01*
X95700199Y-94719262D01*
X95719585Y-94708900D01*
X95740625Y-94702518D01*
X95766187Y-94700000D01*
X97083813Y-94700000D01*
X97109375Y-94702518D01*
G37*
G36*
X74259375Y-94702518D02*
G01*
X74280415Y-94708900D01*
X74299801Y-94719262D01*
X74316793Y-94733207D01*
X74330738Y-94750199D01*
X74341100Y-94769585D01*
X74347482Y-94790625D01*
X74350000Y-94816187D01*
X74350000Y-95183813D01*
X74347482Y-95209375D01*
X74341100Y-95230415D01*
X74330738Y-95249801D01*
X74316793Y-95266793D01*
X74299801Y-95280738D01*
X74280415Y-95291100D01*
X74259375Y-95297482D01*
X74233813Y-95300000D01*
X72916187Y-95300000D01*
X72890625Y-95297482D01*
X72869585Y-95291100D01*
X72850199Y-95280738D01*
X72833207Y-95266793D01*
X72819262Y-95249801D01*
X72808900Y-95230415D01*
X72802518Y-95209375D01*
X72800000Y-95183813D01*
X72800000Y-94816187D01*
X72802518Y-94790625D01*
X72808900Y-94769585D01*
X72819262Y-94750199D01*
X72833207Y-94733207D01*
X72850199Y-94719262D01*
X72869585Y-94708900D01*
X72890625Y-94702518D01*
X72916187Y-94700000D01*
X74233813Y-94700000D01*
X74259375Y-94702518D01*
G37*
G36*
X92200000Y-95250000D02*
G01*
X91300000Y-95250000D01*
X91300000Y-94750000D01*
X92200000Y-94750000D01*
X92200000Y-95250000D01*
G37*
G36*
X93700000Y-95250000D02*
G01*
X92800000Y-95250000D01*
X92800000Y-94750000D01*
X93700000Y-94750000D01*
X93700000Y-95250000D01*
G37*
G36*
X84459375Y-93652518D02*
G01*
X84480415Y-93658900D01*
X84499801Y-93669262D01*
X84516793Y-93683207D01*
X84530738Y-93700199D01*
X84541100Y-93719585D01*
X84547482Y-93740625D01*
X84550000Y-93766187D01*
X84550000Y-95083813D01*
X84547482Y-95109375D01*
X84541100Y-95130415D01*
X84530738Y-95149801D01*
X84516793Y-95166793D01*
X84499801Y-95180738D01*
X84480415Y-95191100D01*
X84459375Y-95197482D01*
X84433813Y-95200000D01*
X84066187Y-95200000D01*
X84040625Y-95197482D01*
X84019585Y-95191100D01*
X84000199Y-95180738D01*
X83983207Y-95166793D01*
X83969262Y-95149801D01*
X83958900Y-95130415D01*
X83952518Y-95109375D01*
X83950000Y-95083813D01*
X83950000Y-93766187D01*
X83952518Y-93740625D01*
X83958900Y-93719585D01*
X83969262Y-93700199D01*
X83983207Y-93683207D01*
X84000199Y-93669262D01*
X84019585Y-93658900D01*
X84040625Y-93652518D01*
X84066187Y-93650000D01*
X84433813Y-93650000D01*
X84459375Y-93652518D01*
G37*
G36*
X87459375Y-93652518D02*
G01*
X87480415Y-93658900D01*
X87499801Y-93669262D01*
X87516793Y-93683207D01*
X87530738Y-93700199D01*
X87541100Y-93719585D01*
X87547482Y-93740625D01*
X87550000Y-93766187D01*
X87550000Y-95083813D01*
X87547482Y-95109375D01*
X87541100Y-95130415D01*
X87530738Y-95149801D01*
X87516793Y-95166793D01*
X87499801Y-95180738D01*
X87480415Y-95191100D01*
X87459375Y-95197482D01*
X87433813Y-95200000D01*
X87066187Y-95200000D01*
X87040625Y-95197482D01*
X87019585Y-95191100D01*
X87000199Y-95180738D01*
X86983207Y-95166793D01*
X86969262Y-95149801D01*
X86958900Y-95130415D01*
X86952518Y-95109375D01*
X86950000Y-95083813D01*
X86950000Y-93766187D01*
X86952518Y-93740625D01*
X86958900Y-93719585D01*
X86969262Y-93700199D01*
X86983207Y-93683207D01*
X87000199Y-93669262D01*
X87019585Y-93658900D01*
X87040625Y-93652518D01*
X87066187Y-93650000D01*
X87433813Y-93650000D01*
X87459375Y-93652518D01*
G37*
G36*
X80459375Y-93652518D02*
G01*
X80480415Y-93658900D01*
X80499801Y-93669262D01*
X80516793Y-93683207D01*
X80530738Y-93700199D01*
X80541100Y-93719585D01*
X80547482Y-93740625D01*
X80550000Y-93766187D01*
X80550000Y-95083813D01*
X80547482Y-95109375D01*
X80541100Y-95130415D01*
X80530738Y-95149801D01*
X80516793Y-95166793D01*
X80499801Y-95180738D01*
X80480415Y-95191100D01*
X80459375Y-95197482D01*
X80433813Y-95200000D01*
X80066187Y-95200000D01*
X80040625Y-95197482D01*
X80019585Y-95191100D01*
X80000199Y-95180738D01*
X79983207Y-95166793D01*
X79969262Y-95149801D01*
X79958900Y-95130415D01*
X79952518Y-95109375D01*
X79950000Y-95083813D01*
X79950000Y-93766187D01*
X79952518Y-93740625D01*
X79958900Y-93719585D01*
X79969262Y-93700199D01*
X79983207Y-93683207D01*
X80000199Y-93669262D01*
X80019585Y-93658900D01*
X80040625Y-93652518D01*
X80066187Y-93650000D01*
X80433813Y-93650000D01*
X80459375Y-93652518D01*
G37*
G36*
X79459375Y-93652518D02*
G01*
X79480415Y-93658900D01*
X79499801Y-93669262D01*
X79516793Y-93683207D01*
X79530738Y-93700199D01*
X79541100Y-93719585D01*
X79547482Y-93740625D01*
X79550000Y-93766187D01*
X79550000Y-95083813D01*
X79547482Y-95109375D01*
X79541100Y-95130415D01*
X79530738Y-95149801D01*
X79516793Y-95166793D01*
X79499801Y-95180738D01*
X79480415Y-95191100D01*
X79459375Y-95197482D01*
X79433813Y-95200000D01*
X79066187Y-95200000D01*
X79040625Y-95197482D01*
X79019585Y-95191100D01*
X79000199Y-95180738D01*
X78983207Y-95166793D01*
X78969262Y-95149801D01*
X78958900Y-95130415D01*
X78952518Y-95109375D01*
X78950000Y-95083813D01*
X78950000Y-93766187D01*
X78952518Y-93740625D01*
X78958900Y-93719585D01*
X78969262Y-93700199D01*
X78983207Y-93683207D01*
X79000199Y-93669262D01*
X79019585Y-93658900D01*
X79040625Y-93652518D01*
X79066187Y-93650000D01*
X79433813Y-93650000D01*
X79459375Y-93652518D01*
G37*
G36*
X78459375Y-93652518D02*
G01*
X78480415Y-93658900D01*
X78499801Y-93669262D01*
X78516793Y-93683207D01*
X78530738Y-93700199D01*
X78541100Y-93719585D01*
X78547482Y-93740625D01*
X78550000Y-93766187D01*
X78550000Y-95083813D01*
X78547482Y-95109375D01*
X78541100Y-95130415D01*
X78530738Y-95149801D01*
X78516793Y-95166793D01*
X78499801Y-95180738D01*
X78480415Y-95191100D01*
X78459375Y-95197482D01*
X78433813Y-95200000D01*
X78066187Y-95200000D01*
X78040625Y-95197482D01*
X78019585Y-95191100D01*
X78000199Y-95180738D01*
X77983207Y-95166793D01*
X77969262Y-95149801D01*
X77958900Y-95130415D01*
X77952518Y-95109375D01*
X77950000Y-95083813D01*
X77950000Y-93766187D01*
X77952518Y-93740625D01*
X77958900Y-93719585D01*
X77969262Y-93700199D01*
X77983207Y-93683207D01*
X78000199Y-93669262D01*
X78019585Y-93658900D01*
X78040625Y-93652518D01*
X78066187Y-93650000D01*
X78433813Y-93650000D01*
X78459375Y-93652518D01*
G37*
G36*
X85459375Y-93652518D02*
G01*
X85480415Y-93658900D01*
X85499801Y-93669262D01*
X85516793Y-93683207D01*
X85530738Y-93700199D01*
X85541100Y-93719585D01*
X85547482Y-93740625D01*
X85550000Y-93766187D01*
X85550000Y-95083813D01*
X85547482Y-95109375D01*
X85541100Y-95130415D01*
X85530738Y-95149801D01*
X85516793Y-95166793D01*
X85499801Y-95180738D01*
X85480415Y-95191100D01*
X85459375Y-95197482D01*
X85433813Y-95200000D01*
X85066187Y-95200000D01*
X85040625Y-95197482D01*
X85019585Y-95191100D01*
X85000199Y-95180738D01*
X84983207Y-95166793D01*
X84969262Y-95149801D01*
X84958900Y-95130415D01*
X84952518Y-95109375D01*
X84950000Y-95083813D01*
X84950000Y-93766187D01*
X84952518Y-93740625D01*
X84958900Y-93719585D01*
X84969262Y-93700199D01*
X84983207Y-93683207D01*
X85000199Y-93669262D01*
X85019585Y-93658900D01*
X85040625Y-93652518D01*
X85066187Y-93650000D01*
X85433813Y-93650000D01*
X85459375Y-93652518D01*
G37*
G36*
X89459375Y-93652518D02*
G01*
X89480415Y-93658900D01*
X89499801Y-93669262D01*
X89516793Y-93683207D01*
X89530738Y-93700199D01*
X89541100Y-93719585D01*
X89547482Y-93740625D01*
X89550000Y-93766187D01*
X89550000Y-95083813D01*
X89547482Y-95109375D01*
X89541100Y-95130415D01*
X89530738Y-95149801D01*
X89516793Y-95166793D01*
X89499801Y-95180738D01*
X89480415Y-95191100D01*
X89459375Y-95197482D01*
X89433813Y-95200000D01*
X89066187Y-95200000D01*
X89040625Y-95197482D01*
X89019585Y-95191100D01*
X89000199Y-95180738D01*
X88983207Y-95166793D01*
X88969262Y-95149801D01*
X88958900Y-95130415D01*
X88952518Y-95109375D01*
X88950000Y-95083813D01*
X88950000Y-93766187D01*
X88952518Y-93740625D01*
X88958900Y-93719585D01*
X88969262Y-93700199D01*
X88983207Y-93683207D01*
X89000199Y-93669262D01*
X89019585Y-93658900D01*
X89040625Y-93652518D01*
X89066187Y-93650000D01*
X89433813Y-93650000D01*
X89459375Y-93652518D01*
G37*
G36*
X88459375Y-93652518D02*
G01*
X88480415Y-93658900D01*
X88499801Y-93669262D01*
X88516793Y-93683207D01*
X88530738Y-93700199D01*
X88541100Y-93719585D01*
X88547482Y-93740625D01*
X88550000Y-93766187D01*
X88550000Y-95083813D01*
X88547482Y-95109375D01*
X88541100Y-95130415D01*
X88530738Y-95149801D01*
X88516793Y-95166793D01*
X88499801Y-95180738D01*
X88480415Y-95191100D01*
X88459375Y-95197482D01*
X88433813Y-95200000D01*
X88066187Y-95200000D01*
X88040625Y-95197482D01*
X88019585Y-95191100D01*
X88000199Y-95180738D01*
X87983207Y-95166793D01*
X87969262Y-95149801D01*
X87958900Y-95130415D01*
X87952518Y-95109375D01*
X87950000Y-95083813D01*
X87950000Y-93766187D01*
X87952518Y-93740625D01*
X87958900Y-93719585D01*
X87969262Y-93700199D01*
X87983207Y-93683207D01*
X88000199Y-93669262D01*
X88019585Y-93658900D01*
X88040625Y-93652518D01*
X88066187Y-93650000D01*
X88433813Y-93650000D01*
X88459375Y-93652518D01*
G37*
G36*
X86459375Y-93652518D02*
G01*
X86480415Y-93658900D01*
X86499801Y-93669262D01*
X86516793Y-93683207D01*
X86530738Y-93700199D01*
X86541100Y-93719585D01*
X86547482Y-93740625D01*
X86550000Y-93766187D01*
X86550000Y-95083813D01*
X86547482Y-95109375D01*
X86541100Y-95130415D01*
X86530738Y-95149801D01*
X86516793Y-95166793D01*
X86499801Y-95180738D01*
X86480415Y-95191100D01*
X86459375Y-95197482D01*
X86433813Y-95200000D01*
X86066187Y-95200000D01*
X86040625Y-95197482D01*
X86019585Y-95191100D01*
X86000199Y-95180738D01*
X85983207Y-95166793D01*
X85969262Y-95149801D01*
X85958900Y-95130415D01*
X85952518Y-95109375D01*
X85950000Y-95083813D01*
X85950000Y-93766187D01*
X85952518Y-93740625D01*
X85958900Y-93719585D01*
X85969262Y-93700199D01*
X85983207Y-93683207D01*
X86000199Y-93669262D01*
X86019585Y-93658900D01*
X86040625Y-93652518D01*
X86066187Y-93650000D01*
X86433813Y-93650000D01*
X86459375Y-93652518D01*
G37*
G36*
X95200000Y-95000000D02*
G01*
X94300000Y-95000000D01*
X94300000Y-94500000D01*
X95200000Y-94500000D01*
X95200000Y-95000000D01*
G37*
G36*
X82149999Y-93900000D02*
G01*
X82150000Y-93900000D01*
X82150000Y-93900002D01*
X82150363Y-93903686D01*
X82150363Y-94096314D01*
X82150000Y-94099998D01*
X82150000Y-94100000D01*
X82149997Y-94100003D01*
X82149996Y-94100005D01*
X82147652Y-94102862D01*
X81952862Y-94297652D01*
X81950005Y-94299996D01*
X81950003Y-94299997D01*
X81950000Y-94300000D01*
X81949998Y-94300000D01*
X81946314Y-94300363D01*
X81553686Y-94300363D01*
X81550002Y-94300000D01*
X81550000Y-94300000D01*
X81549997Y-94299997D01*
X81549995Y-94299996D01*
X81547138Y-94297652D01*
X81352348Y-94102862D01*
X81350004Y-94100005D01*
X81350003Y-94100003D01*
X81350000Y-94100000D01*
X81350000Y-94099998D01*
X81349637Y-94096314D01*
X81349637Y-93903686D01*
X81350000Y-93900002D01*
X81350000Y-93900000D01*
X81350002Y-93900000D01*
X81353686Y-93899637D01*
X82146314Y-93899637D01*
X82149999Y-93900000D01*
G37*
G36*
X74400000Y-94300000D02*
G01*
X73500000Y-94300000D01*
X73500000Y-91700000D01*
X74400000Y-91700000D01*
X74400000Y-94300000D01*
G37*
G36*
X77500000Y-94300000D02*
G01*
X76600000Y-94300000D01*
X76600000Y-91700000D01*
X77500000Y-91700000D01*
X77500000Y-94300000D01*
G37*
G36*
X71783918Y-93104319D02*
G01*
X71822535Y-93116034D01*
X71858137Y-93135063D01*
X71889334Y-93160666D01*
X71914937Y-93191863D01*
X71933966Y-93227465D01*
X71945681Y-93266082D01*
X71950000Y-93309936D01*
X71950000Y-94090064D01*
X71945681Y-94133918D01*
X71933966Y-94172535D01*
X71914937Y-94208137D01*
X71889334Y-94239334D01*
X71858137Y-94264937D01*
X71822535Y-94283966D01*
X71783918Y-94295681D01*
X71740064Y-94300000D01*
X70359936Y-94300000D01*
X70316082Y-94295681D01*
X70277465Y-94283966D01*
X70241863Y-94264937D01*
X70210666Y-94239334D01*
X70185063Y-94208137D01*
X70166034Y-94172535D01*
X70154319Y-94133918D01*
X70150000Y-94090064D01*
X70150000Y-93309936D01*
X70154319Y-93266082D01*
X70166034Y-93227465D01*
X70185063Y-93191863D01*
X70210666Y-93160666D01*
X70241863Y-93135063D01*
X70277465Y-93116034D01*
X70316082Y-93104319D01*
X70359936Y-93100000D01*
X71740064Y-93100000D01*
X71783918Y-93104319D01*
G37*
G36*
X99683918Y-93104319D02*
G01*
X99722535Y-93116034D01*
X99758137Y-93135063D01*
X99789334Y-93160666D01*
X99814937Y-93191863D01*
X99833966Y-93227465D01*
X99845681Y-93266082D01*
X99850000Y-93309936D01*
X99850000Y-94090064D01*
X99845681Y-94133918D01*
X99833966Y-94172535D01*
X99814937Y-94208137D01*
X99789334Y-94239334D01*
X99758137Y-94264937D01*
X99722535Y-94283966D01*
X99683918Y-94295681D01*
X99640064Y-94300000D01*
X98259936Y-94300000D01*
X98216082Y-94295681D01*
X98177465Y-94283966D01*
X98141863Y-94264937D01*
X98110666Y-94239334D01*
X98085063Y-94208137D01*
X98066034Y-94172535D01*
X98054319Y-94133918D01*
X98050000Y-94090064D01*
X98050000Y-93309936D01*
X98054319Y-93266082D01*
X98066034Y-93227465D01*
X98085063Y-93191863D01*
X98110666Y-93160666D01*
X98141863Y-93135063D01*
X98177465Y-93116034D01*
X98216082Y-93104319D01*
X98259936Y-93100000D01*
X99640064Y-93100000D01*
X99683918Y-93104319D01*
G37*
G36*
X96250000Y-94200000D02*
G01*
X95750000Y-94200000D01*
X95750000Y-93300000D01*
X96250000Y-93300000D01*
X96250000Y-94200000D01*
G37*
G36*
X94750000Y-94200000D02*
G01*
X94250000Y-94200000D01*
X94250000Y-93300000D01*
X94750000Y-93300000D01*
X94750000Y-94200000D01*
G37*
G36*
X92200000Y-93750000D02*
G01*
X91300000Y-93750000D01*
X91300000Y-93250000D01*
X92200000Y-93250000D01*
X92200000Y-93750000D01*
G37*
G36*
X93700000Y-93750000D02*
G01*
X92800000Y-93750000D01*
X92800000Y-93250000D01*
X93700000Y-93250000D01*
X93700000Y-93750000D01*
G37*
G36*
X82150000Y-93700000D02*
G01*
X81350000Y-93700000D01*
X81350000Y-93300000D01*
X82150000Y-93300000D01*
X82150000Y-93700000D01*
G37*
G36*
X81949998Y-92700000D02*
G01*
X81950000Y-92700000D01*
X81950003Y-92700003D01*
X81950005Y-92700004D01*
X81952862Y-92702348D01*
X82147652Y-92897138D01*
X82149996Y-92899995D01*
X82149997Y-92899997D01*
X82150000Y-92900000D01*
X82150000Y-92900002D01*
X82150363Y-92903686D01*
X82150363Y-93096314D01*
X82150000Y-93099998D01*
X82150000Y-93100000D01*
X82149998Y-93100000D01*
X82146314Y-93100363D01*
X81353686Y-93100363D01*
X81350002Y-93100000D01*
X81350000Y-93100000D01*
X81350000Y-93099998D01*
X81349637Y-93096314D01*
X81349637Y-92903686D01*
X81350000Y-92900002D01*
X81350000Y-92900000D01*
X81350003Y-92899997D01*
X81350004Y-92899995D01*
X81352348Y-92897138D01*
X81547138Y-92702348D01*
X81549995Y-92700004D01*
X81549997Y-92700003D01*
X81550000Y-92700000D01*
X81550002Y-92700000D01*
X81553686Y-92699637D01*
X81946314Y-92699637D01*
X81949998Y-92700000D01*
G37*
G36*
X71783918Y-91704319D02*
G01*
X71822535Y-91716034D01*
X71858137Y-91735063D01*
X71889334Y-91760666D01*
X71914937Y-91791863D01*
X71933966Y-91827465D01*
X71945681Y-91866082D01*
X71950000Y-91909936D01*
X71950000Y-92690064D01*
X71945681Y-92733918D01*
X71933966Y-92772535D01*
X71914937Y-92808137D01*
X71889334Y-92839334D01*
X71858137Y-92864937D01*
X71822535Y-92883966D01*
X71783918Y-92895681D01*
X71740064Y-92900000D01*
X70359936Y-92900000D01*
X70316082Y-92895681D01*
X70277465Y-92883966D01*
X70241863Y-92864937D01*
X70210666Y-92839334D01*
X70185063Y-92808137D01*
X70166034Y-92772535D01*
X70154319Y-92733918D01*
X70150000Y-92690064D01*
X70150000Y-91909936D01*
X70154319Y-91866082D01*
X70166034Y-91827465D01*
X70185063Y-91791863D01*
X70210666Y-91760666D01*
X70241863Y-91735063D01*
X70277465Y-91716034D01*
X70316082Y-91704319D01*
X70359936Y-91700000D01*
X71740064Y-91700000D01*
X71783918Y-91704319D01*
G37*
G36*
X87150000Y-91890000D02*
G01*
X85850000Y-91890000D01*
X85850000Y-90890000D01*
X87150000Y-90890000D01*
X87150000Y-91890000D01*
G37*
G36*
X84150000Y-91890000D02*
G01*
X82850000Y-91890000D01*
X82850000Y-90890000D01*
X84150000Y-90890000D01*
X84150000Y-91890000D01*
G37*
G36*
X97725000Y-91650000D02*
G01*
X97225000Y-91650000D01*
X97225000Y-91300000D01*
X97725000Y-91300000D01*
X97725000Y-91650000D01*
G37*
G36*
X99775000Y-91650000D02*
G01*
X99275000Y-91650000D01*
X99275000Y-91300000D01*
X99775000Y-91300000D01*
X99775000Y-91650000D01*
G37*
G36*
X80320858Y-89442273D02*
G01*
X80521048Y-89525194D01*
X80701209Y-89645574D01*
X80854426Y-89798791D01*
X80974806Y-89978952D01*
X81048803Y-90157597D01*
X81057727Y-90179142D01*
X81100000Y-90391659D01*
X81100000Y-90608341D01*
X81081194Y-90702882D01*
X81057727Y-90820858D01*
X80974806Y-91021048D01*
X80854426Y-91201209D01*
X80701209Y-91354426D01*
X80521048Y-91474806D01*
X80320858Y-91557727D01*
X80108341Y-91600000D01*
X79891659Y-91600000D01*
X79679142Y-91557727D01*
X79478952Y-91474806D01*
X79298791Y-91354426D01*
X79145574Y-91201209D01*
X79025194Y-91021048D01*
X78942273Y-90820858D01*
X78918806Y-90702882D01*
X78900000Y-90608341D01*
X78900000Y-90391659D01*
X78942273Y-90179142D01*
X78951197Y-90157597D01*
X79025194Y-89978952D01*
X79145574Y-89798791D01*
X79298791Y-89645574D01*
X79478952Y-89525194D01*
X79679142Y-89442273D01*
X79891659Y-89400000D01*
X80108341Y-89400000D01*
X80320858Y-89442273D01*
G37*
G36*
X74259375Y-90702518D02*
G01*
X74280415Y-90708900D01*
X74299801Y-90719262D01*
X74316793Y-90733207D01*
X74330738Y-90750199D01*
X74341100Y-90769585D01*
X74347482Y-90790625D01*
X74350000Y-90816187D01*
X74350000Y-91183813D01*
X74347482Y-91209375D01*
X74341100Y-91230415D01*
X74330738Y-91249801D01*
X74316793Y-91266793D01*
X74299801Y-91280738D01*
X74280415Y-91291100D01*
X74259375Y-91297482D01*
X74233813Y-91300000D01*
X72916187Y-91300000D01*
X72890625Y-91297482D01*
X72869585Y-91291100D01*
X72850199Y-91280738D01*
X72833207Y-91266793D01*
X72819262Y-91249801D01*
X72808900Y-91230415D01*
X72802518Y-91209375D01*
X72800000Y-91183813D01*
X72800000Y-90816187D01*
X72802518Y-90790625D01*
X72808900Y-90769585D01*
X72819262Y-90750199D01*
X72833207Y-90733207D01*
X72850199Y-90719262D01*
X72869585Y-90708900D01*
X72890625Y-90702518D01*
X72916187Y-90700000D01*
X74233813Y-90700000D01*
X74259375Y-90702518D01*
G37*
G36*
X94698228Y-90369820D02*
G01*
X94701517Y-90370144D01*
X94708763Y-90371585D01*
X94710164Y-90372010D01*
X94717005Y-90374843D01*
X94718282Y-90375526D01*
X94724433Y-90379637D01*
X94726997Y-90381740D01*
X94729742Y-90384228D01*
X94860772Y-90515258D01*
X94863260Y-90518003D01*
X94865363Y-90520567D01*
X94869474Y-90526718D01*
X94870157Y-90527995D01*
X94872990Y-90534836D01*
X94873415Y-90536237D01*
X94874856Y-90543483D01*
X94875180Y-90546772D01*
X94875363Y-90550488D01*
X94875363Y-91078152D01*
X94875180Y-91081868D01*
X94874856Y-91085157D01*
X94873415Y-91092403D01*
X94872990Y-91093804D01*
X94870157Y-91100645D01*
X94869474Y-91101922D01*
X94865363Y-91108073D01*
X94864434Y-91109206D01*
X94859206Y-91114434D01*
X94858073Y-91115363D01*
X94851922Y-91119474D01*
X94850645Y-91120157D01*
X94843804Y-91122990D01*
X94842403Y-91123415D01*
X94835157Y-91124856D01*
X94831868Y-91125180D01*
X94828152Y-91125363D01*
X94671848Y-91125363D01*
X94668132Y-91125180D01*
X94664843Y-91124856D01*
X94657597Y-91123415D01*
X94656196Y-91122990D01*
X94649355Y-91120157D01*
X94648078Y-91119474D01*
X94641927Y-91115363D01*
X94640794Y-91114434D01*
X94635566Y-91109206D01*
X94634637Y-91108073D01*
X94630526Y-91101922D01*
X94629843Y-91100645D01*
X94627010Y-91093804D01*
X94626585Y-91092403D01*
X94625144Y-91085157D01*
X94624820Y-91081868D01*
X94624637Y-91078152D01*
X94624637Y-90416848D01*
X94624820Y-90413132D01*
X94625144Y-90409843D01*
X94626585Y-90402597D01*
X94627010Y-90401196D01*
X94629843Y-90394355D01*
X94630526Y-90393078D01*
X94634637Y-90386927D01*
X94635566Y-90385794D01*
X94640794Y-90380566D01*
X94641927Y-90379637D01*
X94648078Y-90375526D01*
X94649355Y-90374843D01*
X94656196Y-90372010D01*
X94657597Y-90371585D01*
X94664843Y-90370144D01*
X94668132Y-90369820D01*
X94671848Y-90369637D01*
X94694512Y-90369637D01*
X94698228Y-90369820D01*
G37*
G36*
X91831868Y-90369820D02*
G01*
X91835157Y-90370144D01*
X91842403Y-90371585D01*
X91843804Y-90372010D01*
X91850645Y-90374843D01*
X91851922Y-90375526D01*
X91858073Y-90379637D01*
X91859206Y-90380566D01*
X91864434Y-90385794D01*
X91865363Y-90386927D01*
X91869474Y-90393078D01*
X91870157Y-90394355D01*
X91872990Y-90401196D01*
X91873415Y-90402597D01*
X91874856Y-90409843D01*
X91875180Y-90413132D01*
X91875363Y-90416848D01*
X91875363Y-91078152D01*
X91875180Y-91081868D01*
X91874856Y-91085157D01*
X91873415Y-91092403D01*
X91872990Y-91093804D01*
X91870157Y-91100645D01*
X91869474Y-91101922D01*
X91865363Y-91108073D01*
X91864434Y-91109206D01*
X91859206Y-91114434D01*
X91858073Y-91115363D01*
X91851922Y-91119474D01*
X91850645Y-91120157D01*
X91843804Y-91122990D01*
X91842403Y-91123415D01*
X91835157Y-91124856D01*
X91831868Y-91125180D01*
X91828152Y-91125363D01*
X91671848Y-91125363D01*
X91668132Y-91125180D01*
X91664843Y-91124856D01*
X91657597Y-91123415D01*
X91656196Y-91122990D01*
X91649355Y-91120157D01*
X91648078Y-91119474D01*
X91641927Y-91115363D01*
X91640794Y-91114434D01*
X91635566Y-91109206D01*
X91634637Y-91108073D01*
X91630526Y-91101922D01*
X91629843Y-91100645D01*
X91627010Y-91093804D01*
X91626585Y-91092403D01*
X91625144Y-91085157D01*
X91624820Y-91081868D01*
X91624637Y-91078152D01*
X91624637Y-90550488D01*
X91624820Y-90546772D01*
X91625144Y-90543483D01*
X91626585Y-90536237D01*
X91627010Y-90534836D01*
X91629843Y-90527995D01*
X91630526Y-90526718D01*
X91634637Y-90520567D01*
X91636740Y-90518003D01*
X91639228Y-90515258D01*
X91770258Y-90384228D01*
X91773003Y-90381740D01*
X91775567Y-90379637D01*
X91781718Y-90375526D01*
X91782995Y-90374843D01*
X91789836Y-90372010D01*
X91791237Y-90371585D01*
X91798483Y-90370144D01*
X91801772Y-90369820D01*
X91805488Y-90369637D01*
X91828152Y-90369637D01*
X91831868Y-90369820D01*
G37*
G36*
X92854806Y-90250836D02*
G01*
X92859426Y-90252237D01*
X92863687Y-90254515D01*
X92867421Y-90257579D01*
X92870485Y-90261313D01*
X92872763Y-90265574D01*
X92874164Y-90270194D01*
X92875000Y-90278683D01*
X92875000Y-91096317D01*
X92874164Y-91104806D01*
X92872763Y-91109426D01*
X92870485Y-91113687D01*
X92867421Y-91117421D01*
X92863687Y-91120485D01*
X92859426Y-91122763D01*
X92854806Y-91124164D01*
X92846317Y-91125000D01*
X92653683Y-91125000D01*
X92645194Y-91124164D01*
X92640574Y-91122763D01*
X92636313Y-91120485D01*
X92632579Y-91117421D01*
X92629515Y-91113687D01*
X92627237Y-91109426D01*
X92625836Y-91104806D01*
X92625000Y-91096317D01*
X92625000Y-90278683D01*
X92625836Y-90270194D01*
X92627237Y-90265574D01*
X92629515Y-90261313D01*
X92632579Y-90257579D01*
X92636313Y-90254515D01*
X92640574Y-90252237D01*
X92645194Y-90250836D01*
X92653683Y-90250000D01*
X92846317Y-90250000D01*
X92854806Y-90250836D01*
G37*
G36*
X94354806Y-90250836D02*
G01*
X94359426Y-90252237D01*
X94363687Y-90254515D01*
X94367421Y-90257579D01*
X94370485Y-90261313D01*
X94372763Y-90265574D01*
X94374164Y-90270194D01*
X94375000Y-90278683D01*
X94375000Y-91096317D01*
X94374164Y-91104806D01*
X94372763Y-91109426D01*
X94370485Y-91113687D01*
X94367421Y-91117421D01*
X94363687Y-91120485D01*
X94359426Y-91122763D01*
X94354806Y-91124164D01*
X94346317Y-91125000D01*
X94153683Y-91125000D01*
X94145194Y-91124164D01*
X94140574Y-91122763D01*
X94136313Y-91120485D01*
X94132579Y-91117421D01*
X94129515Y-91113687D01*
X94127237Y-91109426D01*
X94125836Y-91104806D01*
X94125000Y-91096317D01*
X94125000Y-90278683D01*
X94125836Y-90270194D01*
X94127237Y-90265574D01*
X94129515Y-90261313D01*
X94132579Y-90257579D01*
X94136313Y-90254515D01*
X94140574Y-90252237D01*
X94145194Y-90250836D01*
X94153683Y-90250000D01*
X94346317Y-90250000D01*
X94354806Y-90250836D01*
G37*
G36*
X93854806Y-90250836D02*
G01*
X93859426Y-90252237D01*
X93863687Y-90254515D01*
X93867421Y-90257579D01*
X93870485Y-90261313D01*
X93872763Y-90265574D01*
X93874164Y-90270194D01*
X93875000Y-90278683D01*
X93875000Y-91096317D01*
X93874164Y-91104806D01*
X93872763Y-91109426D01*
X93870485Y-91113687D01*
X93867421Y-91117421D01*
X93863687Y-91120485D01*
X93859426Y-91122763D01*
X93854806Y-91124164D01*
X93846317Y-91125000D01*
X93653683Y-91125000D01*
X93645194Y-91124164D01*
X93640574Y-91122763D01*
X93636313Y-91120485D01*
X93632579Y-91117421D01*
X93629515Y-91113687D01*
X93627237Y-91109426D01*
X93625836Y-91104806D01*
X93625000Y-91096317D01*
X93625000Y-90278683D01*
X93625836Y-90270194D01*
X93627237Y-90265574D01*
X93629515Y-90261313D01*
X93632579Y-90257579D01*
X93636313Y-90254515D01*
X93640574Y-90252237D01*
X93645194Y-90250836D01*
X93653683Y-90250000D01*
X93846317Y-90250000D01*
X93854806Y-90250836D01*
G37*
G36*
X93354806Y-90250836D02*
G01*
X93359426Y-90252237D01*
X93363687Y-90254515D01*
X93367421Y-90257579D01*
X93370485Y-90261313D01*
X93372763Y-90265574D01*
X93374164Y-90270194D01*
X93375000Y-90278683D01*
X93375000Y-91096317D01*
X93374164Y-91104806D01*
X93372763Y-91109426D01*
X93370485Y-91113687D01*
X93367421Y-91117421D01*
X93363687Y-91120485D01*
X93359426Y-91122763D01*
X93354806Y-91124164D01*
X93346317Y-91125000D01*
X93153683Y-91125000D01*
X93145194Y-91124164D01*
X93140574Y-91122763D01*
X93136313Y-91120485D01*
X93132579Y-91117421D01*
X93129515Y-91113687D01*
X93127237Y-91109426D01*
X93125836Y-91104806D01*
X93125000Y-91096317D01*
X93125000Y-90278683D01*
X93125836Y-90270194D01*
X93127237Y-90265574D01*
X93129515Y-90261313D01*
X93132579Y-90257579D01*
X93136313Y-90254515D01*
X93140574Y-90252237D01*
X93145194Y-90250836D01*
X93153683Y-90250000D01*
X93346317Y-90250000D01*
X93354806Y-90250836D01*
G37*
G36*
X92354806Y-90250836D02*
G01*
X92359426Y-90252237D01*
X92363687Y-90254515D01*
X92367421Y-90257579D01*
X92370485Y-90261313D01*
X92372763Y-90265574D01*
X92374164Y-90270194D01*
X92375000Y-90278683D01*
X92375000Y-91096317D01*
X92374164Y-91104806D01*
X92372763Y-91109426D01*
X92370485Y-91113687D01*
X92367421Y-91117421D01*
X92363687Y-91120485D01*
X92359426Y-91122763D01*
X92354806Y-91124164D01*
X92346317Y-91125000D01*
X92153683Y-91125000D01*
X92145194Y-91124164D01*
X92140574Y-91122763D01*
X92136313Y-91120485D01*
X92132579Y-91117421D01*
X92129515Y-91113687D01*
X92127237Y-91109426D01*
X92125836Y-91104806D01*
X92125000Y-91096317D01*
X92125000Y-90278683D01*
X92125836Y-90270194D01*
X92127237Y-90265574D01*
X92129515Y-90261313D01*
X92132579Y-90257579D01*
X92136313Y-90254515D01*
X92140574Y-90252237D01*
X92145194Y-90250836D01*
X92153683Y-90250000D01*
X92346317Y-90250000D01*
X92354806Y-90250836D01*
G37*
G36*
X99775000Y-91000000D02*
G01*
X99275000Y-91000000D01*
X99275000Y-90650000D01*
X99775000Y-90650000D01*
X99775000Y-91000000D01*
G37*
G36*
X97725000Y-91000000D02*
G01*
X97225000Y-91000000D01*
X97225000Y-90650000D01*
X97725000Y-90650000D01*
X97725000Y-91000000D01*
G37*
G36*
X95581868Y-90124820D02*
G01*
X95585157Y-90125144D01*
X95592403Y-90126585D01*
X95593804Y-90127010D01*
X95600645Y-90129843D01*
X95601922Y-90130526D01*
X95608073Y-90134637D01*
X95609206Y-90135566D01*
X95614434Y-90140794D01*
X95615363Y-90141927D01*
X95619474Y-90148078D01*
X95620157Y-90149355D01*
X95622990Y-90156196D01*
X95623415Y-90157597D01*
X95624856Y-90164843D01*
X95625180Y-90168132D01*
X95625363Y-90171848D01*
X95625363Y-90328152D01*
X95625180Y-90331868D01*
X95624856Y-90335157D01*
X95623415Y-90342403D01*
X95622990Y-90343804D01*
X95620157Y-90350645D01*
X95619474Y-90351922D01*
X95615363Y-90358073D01*
X95614434Y-90359206D01*
X95609206Y-90364434D01*
X95608073Y-90365363D01*
X95601922Y-90369474D01*
X95600645Y-90370157D01*
X95593804Y-90372990D01*
X95592403Y-90373415D01*
X95585157Y-90374856D01*
X95581868Y-90375180D01*
X95578152Y-90375363D01*
X95050488Y-90375363D01*
X95046772Y-90375180D01*
X95043483Y-90374856D01*
X95036237Y-90373415D01*
X95034836Y-90372990D01*
X95027995Y-90370157D01*
X95026718Y-90369474D01*
X95020567Y-90365363D01*
X95018003Y-90363260D01*
X95015258Y-90360772D01*
X94884228Y-90229742D01*
X94881740Y-90226997D01*
X94879637Y-90224433D01*
X94875526Y-90218282D01*
X94874843Y-90217005D01*
X94872010Y-90210164D01*
X94871585Y-90208763D01*
X94870144Y-90201517D01*
X94869820Y-90198228D01*
X94869637Y-90194512D01*
X94869637Y-90171848D01*
X94869820Y-90168132D01*
X94870144Y-90164843D01*
X94871585Y-90157597D01*
X94872010Y-90156196D01*
X94874843Y-90149355D01*
X94875526Y-90148078D01*
X94879637Y-90141927D01*
X94880566Y-90140794D01*
X94885794Y-90135566D01*
X94886927Y-90134637D01*
X94893078Y-90130526D01*
X94894355Y-90129843D01*
X94901196Y-90127010D01*
X94902597Y-90126585D01*
X94909843Y-90125144D01*
X94913132Y-90124820D01*
X94916848Y-90124637D01*
X95578152Y-90124637D01*
X95581868Y-90124820D01*
G37*
G36*
X91586868Y-90124820D02*
G01*
X91590157Y-90125144D01*
X91597403Y-90126585D01*
X91598804Y-90127010D01*
X91605645Y-90129843D01*
X91606922Y-90130526D01*
X91613073Y-90134637D01*
X91614206Y-90135566D01*
X91619434Y-90140794D01*
X91620363Y-90141927D01*
X91624474Y-90148078D01*
X91625157Y-90149355D01*
X91627990Y-90156196D01*
X91628415Y-90157597D01*
X91629856Y-90164843D01*
X91630180Y-90168132D01*
X91630363Y-90171848D01*
X91630363Y-90194512D01*
X91630180Y-90198228D01*
X91629856Y-90201517D01*
X91628415Y-90208763D01*
X91627990Y-90210164D01*
X91625157Y-90217005D01*
X91624474Y-90218282D01*
X91620363Y-90224433D01*
X91618260Y-90226997D01*
X91615772Y-90229742D01*
X91484742Y-90360772D01*
X91481997Y-90363260D01*
X91479433Y-90365363D01*
X91473282Y-90369474D01*
X91472005Y-90370157D01*
X91465164Y-90372990D01*
X91463763Y-90373415D01*
X91456517Y-90374856D01*
X91453228Y-90375180D01*
X91449512Y-90375363D01*
X90921848Y-90375363D01*
X90918132Y-90375180D01*
X90914843Y-90374856D01*
X90907597Y-90373415D01*
X90906196Y-90372990D01*
X90899355Y-90370157D01*
X90898078Y-90369474D01*
X90891927Y-90365363D01*
X90890794Y-90364434D01*
X90885566Y-90359206D01*
X90884637Y-90358073D01*
X90880526Y-90351922D01*
X90879843Y-90350645D01*
X90877010Y-90343804D01*
X90876585Y-90342403D01*
X90875144Y-90335157D01*
X90874820Y-90331868D01*
X90874637Y-90328152D01*
X90874637Y-90171848D01*
X90874820Y-90168132D01*
X90875144Y-90164843D01*
X90876585Y-90157597D01*
X90877010Y-90156196D01*
X90879843Y-90149355D01*
X90880526Y-90148078D01*
X90884637Y-90141927D01*
X90885566Y-90140794D01*
X90890794Y-90135566D01*
X90891927Y-90134637D01*
X90898078Y-90130526D01*
X90899355Y-90129843D01*
X90906196Y-90127010D01*
X90907597Y-90126585D01*
X90914843Y-90125144D01*
X90918132Y-90124820D01*
X90921848Y-90124637D01*
X91583152Y-90124637D01*
X91586868Y-90124820D01*
G37*
G36*
X97725000Y-90350000D02*
G01*
X97225000Y-90350000D01*
X97225000Y-90000000D01*
X97725000Y-90000000D01*
X97725000Y-90350000D01*
G37*
G36*
X99775000Y-90350000D02*
G01*
X99275000Y-90350000D01*
X99275000Y-90000000D01*
X99775000Y-90000000D01*
X99775000Y-90350000D01*
G37*
G36*
X74259375Y-89702518D02*
G01*
X74280415Y-89708900D01*
X74299801Y-89719262D01*
X74316793Y-89733207D01*
X74330738Y-89750199D01*
X74341100Y-89769585D01*
X74347482Y-89790625D01*
X74350000Y-89816187D01*
X74350000Y-90183813D01*
X74347482Y-90209375D01*
X74341100Y-90230415D01*
X74330738Y-90249801D01*
X74316793Y-90266793D01*
X74299801Y-90280738D01*
X74280415Y-90291100D01*
X74259375Y-90297482D01*
X74233813Y-90300000D01*
X72916187Y-90300000D01*
X72890625Y-90297482D01*
X72869585Y-90291100D01*
X72850199Y-90280738D01*
X72833207Y-90266793D01*
X72819262Y-90249801D01*
X72808900Y-90230415D01*
X72802518Y-90209375D01*
X72800000Y-90183813D01*
X72800000Y-89816187D01*
X72802518Y-89790625D01*
X72808900Y-89769585D01*
X72819262Y-89750199D01*
X72833207Y-89733207D01*
X72850199Y-89719262D01*
X72869585Y-89708900D01*
X72890625Y-89702518D01*
X72916187Y-89700000D01*
X74233813Y-89700000D01*
X74259375Y-89702518D01*
G37*
G36*
X84150000Y-90110000D02*
G01*
X82850000Y-90110000D01*
X82850000Y-89110000D01*
X84150000Y-89110000D01*
X84150000Y-90110000D01*
G37*
G36*
X87150000Y-90110000D02*
G01*
X85850000Y-90110000D01*
X85850000Y-89110000D01*
X87150000Y-89110000D01*
X87150000Y-90110000D01*
G37*
G36*
X95604806Y-89625836D02*
G01*
X95609426Y-89627237D01*
X95613687Y-89629515D01*
X95617421Y-89632579D01*
X95620485Y-89636313D01*
X95622763Y-89640574D01*
X95624164Y-89645194D01*
X95625000Y-89653683D01*
X95625000Y-89846317D01*
X95624164Y-89854806D01*
X95622763Y-89859426D01*
X95620485Y-89863687D01*
X95617421Y-89867421D01*
X95613687Y-89870485D01*
X95609426Y-89872763D01*
X95604806Y-89874164D01*
X95596317Y-89875000D01*
X94778683Y-89875000D01*
X94770194Y-89874164D01*
X94765574Y-89872763D01*
X94761313Y-89870485D01*
X94757579Y-89867421D01*
X94754515Y-89863687D01*
X94752237Y-89859426D01*
X94750836Y-89854806D01*
X94750000Y-89846317D01*
X94750000Y-89653683D01*
X94750836Y-89645194D01*
X94752237Y-89640574D01*
X94754515Y-89636313D01*
X94757579Y-89632579D01*
X94761313Y-89629515D01*
X94765574Y-89627237D01*
X94770194Y-89625836D01*
X94778683Y-89625000D01*
X95596317Y-89625000D01*
X95604806Y-89625836D01*
G37*
G36*
X91729806Y-89625836D02*
G01*
X91734426Y-89627237D01*
X91738687Y-89629515D01*
X91742421Y-89632579D01*
X91745485Y-89636313D01*
X91747763Y-89640574D01*
X91749164Y-89645194D01*
X91750000Y-89653683D01*
X91750000Y-89846317D01*
X91749164Y-89854806D01*
X91747763Y-89859426D01*
X91745485Y-89863687D01*
X91742421Y-89867421D01*
X91738687Y-89870485D01*
X91734426Y-89872763D01*
X91729806Y-89874164D01*
X91721317Y-89875000D01*
X90903683Y-89875000D01*
X90895194Y-89874164D01*
X90890574Y-89872763D01*
X90886313Y-89870485D01*
X90882579Y-89867421D01*
X90879515Y-89863687D01*
X90877237Y-89859426D01*
X90875836Y-89854806D01*
X90875000Y-89846317D01*
X90875000Y-89653683D01*
X90875836Y-89645194D01*
X90877237Y-89640574D01*
X90879515Y-89636313D01*
X90882579Y-89632579D01*
X90886313Y-89629515D01*
X90890574Y-89627237D01*
X90895194Y-89625836D01*
X90903683Y-89625000D01*
X91721317Y-89625000D01*
X91729806Y-89625836D01*
G37*
G36*
X97725000Y-89700000D02*
G01*
X97225000Y-89700000D01*
X97225000Y-89350000D01*
X97725000Y-89350000D01*
X97725000Y-89700000D01*
G37*
G36*
X99775000Y-89700000D02*
G01*
X99275000Y-89700000D01*
X99275000Y-89350000D01*
X99775000Y-89350000D01*
X99775000Y-89700000D01*
G37*
G36*
X95604806Y-89125836D02*
G01*
X95609426Y-89127237D01*
X95613687Y-89129515D01*
X95617421Y-89132579D01*
X95620485Y-89136313D01*
X95622763Y-89140574D01*
X95624164Y-89145194D01*
X95625000Y-89153683D01*
X95625000Y-89346317D01*
X95624164Y-89354806D01*
X95622763Y-89359426D01*
X95620485Y-89363687D01*
X95617421Y-89367421D01*
X95613687Y-89370485D01*
X95609426Y-89372763D01*
X95604806Y-89374164D01*
X95596317Y-89375000D01*
X94778683Y-89375000D01*
X94770194Y-89374164D01*
X94765574Y-89372763D01*
X94761313Y-89370485D01*
X94757579Y-89367421D01*
X94754515Y-89363687D01*
X94752237Y-89359426D01*
X94750836Y-89354806D01*
X94750000Y-89346317D01*
X94750000Y-89153683D01*
X94750836Y-89145194D01*
X94752237Y-89140574D01*
X94754515Y-89136313D01*
X94757579Y-89132579D01*
X94761313Y-89129515D01*
X94765574Y-89127237D01*
X94770194Y-89125836D01*
X94778683Y-89125000D01*
X95596317Y-89125000D01*
X95604806Y-89125836D01*
G37*
G36*
X91729806Y-89125836D02*
G01*
X91734426Y-89127237D01*
X91738687Y-89129515D01*
X91742421Y-89132579D01*
X91745485Y-89136313D01*
X91747763Y-89140574D01*
X91749164Y-89145194D01*
X91750000Y-89153683D01*
X91750000Y-89346317D01*
X91749164Y-89354806D01*
X91747763Y-89359426D01*
X91745485Y-89363687D01*
X91742421Y-89367421D01*
X91738687Y-89370485D01*
X91734426Y-89372763D01*
X91729806Y-89374164D01*
X91721317Y-89375000D01*
X90903683Y-89375000D01*
X90895194Y-89374164D01*
X90890574Y-89372763D01*
X90886313Y-89370485D01*
X90882579Y-89367421D01*
X90879515Y-89363687D01*
X90877237Y-89359426D01*
X90875836Y-89354806D01*
X90875000Y-89346317D01*
X90875000Y-89153683D01*
X90875836Y-89145194D01*
X90877237Y-89140574D01*
X90879515Y-89136313D01*
X90882579Y-89132579D01*
X90886313Y-89129515D01*
X90890574Y-89127237D01*
X90895194Y-89125836D01*
X90903683Y-89125000D01*
X91721317Y-89125000D01*
X91729806Y-89125836D01*
G37*
G36*
X71783918Y-88104319D02*
G01*
X71822535Y-88116034D01*
X71858137Y-88135063D01*
X71889334Y-88160666D01*
X71914937Y-88191863D01*
X71933966Y-88227465D01*
X71945681Y-88266082D01*
X71950000Y-88309936D01*
X71950000Y-89090064D01*
X71945681Y-89133918D01*
X71933966Y-89172535D01*
X71914937Y-89208137D01*
X71889334Y-89239334D01*
X71858137Y-89264937D01*
X71822535Y-89283966D01*
X71783918Y-89295681D01*
X71740064Y-89300000D01*
X70359936Y-89300000D01*
X70316082Y-89295681D01*
X70277465Y-89283966D01*
X70241863Y-89264937D01*
X70210666Y-89239334D01*
X70185063Y-89208137D01*
X70166034Y-89172535D01*
X70154319Y-89133918D01*
X70150000Y-89090064D01*
X70150000Y-88309936D01*
X70154319Y-88266082D01*
X70166034Y-88227465D01*
X70185063Y-88191863D01*
X70210666Y-88160666D01*
X70241863Y-88135063D01*
X70277465Y-88116034D01*
X70316082Y-88104319D01*
X70359936Y-88100000D01*
X71740064Y-88100000D01*
X71783918Y-88104319D01*
G37*
G36*
X77500000Y-89300000D02*
G01*
X76600000Y-89300000D01*
X76600000Y-86700000D01*
X77500000Y-86700000D01*
X77500000Y-89300000D01*
G37*
G36*
X74400000Y-89300000D02*
G01*
X73500000Y-89300000D01*
X73500000Y-86700000D01*
X74400000Y-86700000D01*
X74400000Y-89300000D01*
G37*
G36*
X95604806Y-88625836D02*
G01*
X95609426Y-88627237D01*
X95613687Y-88629515D01*
X95617421Y-88632579D01*
X95620485Y-88636313D01*
X95622763Y-88640574D01*
X95624164Y-88645194D01*
X95625000Y-88653683D01*
X95625000Y-88846317D01*
X95624164Y-88854806D01*
X95622763Y-88859426D01*
X95620485Y-88863687D01*
X95617421Y-88867421D01*
X95613687Y-88870485D01*
X95609426Y-88872763D01*
X95604806Y-88874164D01*
X95596317Y-88875000D01*
X94778683Y-88875000D01*
X94770194Y-88874164D01*
X94765574Y-88872763D01*
X94761313Y-88870485D01*
X94757579Y-88867421D01*
X94754515Y-88863687D01*
X94752237Y-88859426D01*
X94750836Y-88854806D01*
X94750000Y-88846317D01*
X94750000Y-88653683D01*
X94750836Y-88645194D01*
X94752237Y-88640574D01*
X94754515Y-88636313D01*
X94757579Y-88632579D01*
X94761313Y-88629515D01*
X94765574Y-88627237D01*
X94770194Y-88625836D01*
X94778683Y-88625000D01*
X95596317Y-88625000D01*
X95604806Y-88625836D01*
G37*
G36*
X91729806Y-88625836D02*
G01*
X91734426Y-88627237D01*
X91738687Y-88629515D01*
X91742421Y-88632579D01*
X91745485Y-88636313D01*
X91747763Y-88640574D01*
X91749164Y-88645194D01*
X91750000Y-88653683D01*
X91750000Y-88846317D01*
X91749164Y-88854806D01*
X91747763Y-88859426D01*
X91745485Y-88863687D01*
X91742421Y-88867421D01*
X91738687Y-88870485D01*
X91734426Y-88872763D01*
X91729806Y-88874164D01*
X91721317Y-88875000D01*
X90903683Y-88875000D01*
X90895194Y-88874164D01*
X90890574Y-88872763D01*
X90886313Y-88870485D01*
X90882579Y-88867421D01*
X90879515Y-88863687D01*
X90877237Y-88859426D01*
X90875836Y-88854806D01*
X90875000Y-88846317D01*
X90875000Y-88653683D01*
X90875836Y-88645194D01*
X90877237Y-88640574D01*
X90879515Y-88636313D01*
X90882579Y-88632579D01*
X90886313Y-88629515D01*
X90890574Y-88627237D01*
X90895194Y-88625836D01*
X90903683Y-88625000D01*
X91721317Y-88625000D01*
X91729806Y-88625836D01*
G37*
G36*
X83900000Y-88550000D02*
G01*
X83000000Y-88550000D01*
X83000000Y-85950000D01*
X83900000Y-85950000D01*
X83900000Y-88550000D01*
G37*
G36*
X87000000Y-88550000D02*
G01*
X86100000Y-88550000D01*
X86100000Y-85950000D01*
X87000000Y-85950000D01*
X87000000Y-88550000D01*
G37*
G36*
X95604806Y-88125836D02*
G01*
X95609426Y-88127237D01*
X95613687Y-88129515D01*
X95617421Y-88132579D01*
X95620485Y-88136313D01*
X95622763Y-88140574D01*
X95624164Y-88145194D01*
X95625000Y-88153683D01*
X95625000Y-88346317D01*
X95624164Y-88354806D01*
X95622763Y-88359426D01*
X95620485Y-88363687D01*
X95617421Y-88367421D01*
X95613687Y-88370485D01*
X95609426Y-88372763D01*
X95604806Y-88374164D01*
X95596317Y-88375000D01*
X94778683Y-88375000D01*
X94770194Y-88374164D01*
X94765574Y-88372763D01*
X94761313Y-88370485D01*
X94757579Y-88367421D01*
X94754515Y-88363687D01*
X94752237Y-88359426D01*
X94750836Y-88354806D01*
X94750000Y-88346317D01*
X94750000Y-88153683D01*
X94750836Y-88145194D01*
X94752237Y-88140574D01*
X94754515Y-88136313D01*
X94757579Y-88132579D01*
X94761313Y-88129515D01*
X94765574Y-88127237D01*
X94770194Y-88125836D01*
X94778683Y-88125000D01*
X95596317Y-88125000D01*
X95604806Y-88125836D01*
G37*
G36*
X91729806Y-88125836D02*
G01*
X91734426Y-88127237D01*
X91738687Y-88129515D01*
X91742421Y-88132579D01*
X91745485Y-88136313D01*
X91747763Y-88140574D01*
X91749164Y-88145194D01*
X91750000Y-88153683D01*
X91750000Y-88346317D01*
X91749164Y-88354806D01*
X91747763Y-88359426D01*
X91745485Y-88363687D01*
X91742421Y-88367421D01*
X91738687Y-88370485D01*
X91734426Y-88372763D01*
X91729806Y-88374164D01*
X91721317Y-88375000D01*
X90903683Y-88375000D01*
X90895194Y-88374164D01*
X90890574Y-88372763D01*
X90886313Y-88370485D01*
X90882579Y-88367421D01*
X90879515Y-88363687D01*
X90877237Y-88359426D01*
X90875836Y-88354806D01*
X90875000Y-88346317D01*
X90875000Y-88153683D01*
X90875836Y-88145194D01*
X90877237Y-88140574D01*
X90879515Y-88136313D01*
X90882579Y-88132579D01*
X90886313Y-88129515D01*
X90890574Y-88127237D01*
X90895194Y-88125836D01*
X90903683Y-88125000D01*
X91721317Y-88125000D01*
X91729806Y-88125836D01*
G37*
G36*
X71783918Y-86704319D02*
G01*
X71822535Y-86716034D01*
X71858137Y-86735063D01*
X71889334Y-86760666D01*
X71914937Y-86791863D01*
X71933966Y-86827465D01*
X71945681Y-86866082D01*
X71950000Y-86909936D01*
X71950000Y-87690064D01*
X71945681Y-87733918D01*
X71933966Y-87772535D01*
X71914937Y-87808137D01*
X71889334Y-87839334D01*
X71858137Y-87864937D01*
X71822535Y-87883966D01*
X71783918Y-87895681D01*
X71740064Y-87900000D01*
X70359936Y-87900000D01*
X70316082Y-87895681D01*
X70277465Y-87883966D01*
X70241863Y-87864937D01*
X70210666Y-87839334D01*
X70185063Y-87808137D01*
X70166034Y-87772535D01*
X70154319Y-87733918D01*
X70150000Y-87690064D01*
X70150000Y-86909936D01*
X70154319Y-86866082D01*
X70166034Y-86827465D01*
X70185063Y-86791863D01*
X70210666Y-86760666D01*
X70241863Y-86735063D01*
X70277465Y-86716034D01*
X70316082Y-86704319D01*
X70359936Y-86700000D01*
X71740064Y-86700000D01*
X71783918Y-86704319D01*
G37*
G36*
X95604806Y-87625836D02*
G01*
X95609426Y-87627237D01*
X95613687Y-87629515D01*
X95617421Y-87632579D01*
X95620485Y-87636313D01*
X95622763Y-87640574D01*
X95624164Y-87645194D01*
X95625000Y-87653683D01*
X95625000Y-87846317D01*
X95624164Y-87854806D01*
X95622763Y-87859426D01*
X95620485Y-87863687D01*
X95617421Y-87867421D01*
X95613687Y-87870485D01*
X95609426Y-87872763D01*
X95604806Y-87874164D01*
X95596317Y-87875000D01*
X94778683Y-87875000D01*
X94770194Y-87874164D01*
X94765574Y-87872763D01*
X94761313Y-87870485D01*
X94757579Y-87867421D01*
X94754515Y-87863687D01*
X94752237Y-87859426D01*
X94750836Y-87854806D01*
X94750000Y-87846317D01*
X94750000Y-87653683D01*
X94750836Y-87645194D01*
X94752237Y-87640574D01*
X94754515Y-87636313D01*
X94757579Y-87632579D01*
X94761313Y-87629515D01*
X94765574Y-87627237D01*
X94770194Y-87625836D01*
X94778683Y-87625000D01*
X95596317Y-87625000D01*
X95604806Y-87625836D01*
G37*
G36*
X91729806Y-87625836D02*
G01*
X91734426Y-87627237D01*
X91738687Y-87629515D01*
X91742421Y-87632579D01*
X91745485Y-87636313D01*
X91747763Y-87640574D01*
X91749164Y-87645194D01*
X91750000Y-87653683D01*
X91750000Y-87846317D01*
X91749164Y-87854806D01*
X91747763Y-87859426D01*
X91745485Y-87863687D01*
X91742421Y-87867421D01*
X91738687Y-87870485D01*
X91734426Y-87872763D01*
X91729806Y-87874164D01*
X91721317Y-87875000D01*
X90903683Y-87875000D01*
X90895194Y-87874164D01*
X90890574Y-87872763D01*
X90886313Y-87870485D01*
X90882579Y-87867421D01*
X90879515Y-87863687D01*
X90877237Y-87859426D01*
X90875836Y-87854806D01*
X90875000Y-87846317D01*
X90875000Y-87653683D01*
X90875836Y-87645194D01*
X90877237Y-87640574D01*
X90879515Y-87636313D01*
X90882579Y-87632579D01*
X90886313Y-87629515D01*
X90890574Y-87627237D01*
X90895194Y-87625836D01*
X90903683Y-87625000D01*
X91721317Y-87625000D01*
X91729806Y-87625836D01*
G37*
G36*
X80627132Y-83432623D02*
G01*
X81018409Y-83594695D01*
X81370545Y-83829985D01*
X81670015Y-84129455D01*
X81905305Y-84481591D01*
X82013971Y-84743934D01*
X82067377Y-84872868D01*
X82150000Y-85288243D01*
X82150000Y-85711757D01*
X82088479Y-86021045D01*
X82067377Y-86127132D01*
X81905305Y-86518409D01*
X81670015Y-86870545D01*
X81370545Y-87170015D01*
X81018409Y-87405305D01*
X80627132Y-87567377D01*
X80211757Y-87650000D01*
X79788243Y-87650000D01*
X79372868Y-87567377D01*
X78981591Y-87405305D01*
X78629455Y-87170015D01*
X78329985Y-86870545D01*
X78094695Y-86518409D01*
X77932623Y-86127132D01*
X77911521Y-86021045D01*
X77850000Y-85711757D01*
X77850000Y-85288243D01*
X77932623Y-84872868D01*
X77986029Y-84743934D01*
X78094695Y-84481591D01*
X78329985Y-84129455D01*
X78629455Y-83829985D01*
X78981591Y-83594695D01*
X79372868Y-83432623D01*
X79788243Y-83350000D01*
X80211757Y-83350000D01*
X80627132Y-83432623D01*
G37*
G36*
X91453228Y-87124820D02*
G01*
X91456517Y-87125144D01*
X91463763Y-87126585D01*
X91465164Y-87127010D01*
X91472005Y-87129843D01*
X91473282Y-87130526D01*
X91479433Y-87134637D01*
X91481997Y-87136740D01*
X91484742Y-87139228D01*
X91615772Y-87270258D01*
X91618260Y-87273003D01*
X91620363Y-87275567D01*
X91624474Y-87281718D01*
X91625157Y-87282995D01*
X91627990Y-87289836D01*
X91628415Y-87291237D01*
X91629856Y-87298483D01*
X91630180Y-87301772D01*
X91630363Y-87305488D01*
X91630363Y-87328152D01*
X91630180Y-87331868D01*
X91629856Y-87335157D01*
X91628415Y-87342403D01*
X91627990Y-87343804D01*
X91625157Y-87350645D01*
X91624474Y-87351922D01*
X91620363Y-87358073D01*
X91619434Y-87359206D01*
X91614206Y-87364434D01*
X91613073Y-87365363D01*
X91606922Y-87369474D01*
X91605645Y-87370157D01*
X91598804Y-87372990D01*
X91597403Y-87373415D01*
X91590157Y-87374856D01*
X91586868Y-87375180D01*
X91583152Y-87375363D01*
X90921848Y-87375363D01*
X90918132Y-87375180D01*
X90914843Y-87374856D01*
X90907597Y-87373415D01*
X90906196Y-87372990D01*
X90899355Y-87370157D01*
X90898078Y-87369474D01*
X90891927Y-87365363D01*
X90890794Y-87364434D01*
X90885566Y-87359206D01*
X90884637Y-87358073D01*
X90880526Y-87351922D01*
X90879843Y-87350645D01*
X90877010Y-87343804D01*
X90876585Y-87342403D01*
X90875144Y-87335157D01*
X90874820Y-87331868D01*
X90874637Y-87328152D01*
X90874637Y-87171848D01*
X90874820Y-87168132D01*
X90875144Y-87164843D01*
X90876585Y-87157597D01*
X90877010Y-87156196D01*
X90879843Y-87149355D01*
X90880526Y-87148078D01*
X90884637Y-87141927D01*
X90885566Y-87140794D01*
X90890794Y-87135566D01*
X90891927Y-87134637D01*
X90898078Y-87130526D01*
X90899355Y-87129843D01*
X90906196Y-87127010D01*
X90907597Y-87126585D01*
X90914843Y-87125144D01*
X90918132Y-87124820D01*
X90921848Y-87124637D01*
X91449512Y-87124637D01*
X91453228Y-87124820D01*
G37*
G36*
X95581868Y-87124820D02*
G01*
X95585157Y-87125144D01*
X95592403Y-87126585D01*
X95593804Y-87127010D01*
X95600645Y-87129843D01*
X95601922Y-87130526D01*
X95608073Y-87134637D01*
X95609206Y-87135566D01*
X95614434Y-87140794D01*
X95615363Y-87141927D01*
X95619474Y-87148078D01*
X95620157Y-87149355D01*
X95622990Y-87156196D01*
X95623415Y-87157597D01*
X95624856Y-87164843D01*
X95625180Y-87168132D01*
X95625363Y-87171848D01*
X95625363Y-87328152D01*
X95625180Y-87331868D01*
X95624856Y-87335157D01*
X95623415Y-87342403D01*
X95622990Y-87343804D01*
X95620157Y-87350645D01*
X95619474Y-87351922D01*
X95615363Y-87358073D01*
X95614434Y-87359206D01*
X95609206Y-87364434D01*
X95608073Y-87365363D01*
X95601922Y-87369474D01*
X95600645Y-87370157D01*
X95593804Y-87372990D01*
X95592403Y-87373415D01*
X95585157Y-87374856D01*
X95581868Y-87375180D01*
X95578152Y-87375363D01*
X94916848Y-87375363D01*
X94913132Y-87375180D01*
X94909843Y-87374856D01*
X94902597Y-87373415D01*
X94901196Y-87372990D01*
X94894355Y-87370157D01*
X94893078Y-87369474D01*
X94886927Y-87365363D01*
X94885794Y-87364434D01*
X94880566Y-87359206D01*
X94879637Y-87358073D01*
X94875526Y-87351922D01*
X94874843Y-87350645D01*
X94872010Y-87343804D01*
X94871585Y-87342403D01*
X94870144Y-87335157D01*
X94869820Y-87331868D01*
X94869637Y-87328152D01*
X94869637Y-87305488D01*
X94869820Y-87301772D01*
X94870144Y-87298483D01*
X94871585Y-87291237D01*
X94872010Y-87289836D01*
X94874843Y-87282995D01*
X94875526Y-87281718D01*
X94879637Y-87275567D01*
X94881740Y-87273003D01*
X94884228Y-87270258D01*
X95015258Y-87139228D01*
X95018003Y-87136740D01*
X95020567Y-87134637D01*
X95026718Y-87130526D01*
X95027995Y-87129843D01*
X95034836Y-87127010D01*
X95036237Y-87126585D01*
X95043483Y-87125144D01*
X95046772Y-87124820D01*
X95050488Y-87124637D01*
X95578152Y-87124637D01*
X95581868Y-87124820D01*
G37*
G36*
X94354806Y-86375836D02*
G01*
X94359426Y-86377237D01*
X94363687Y-86379515D01*
X94367421Y-86382579D01*
X94370485Y-86386313D01*
X94372763Y-86390574D01*
X94374164Y-86395194D01*
X94375000Y-86403683D01*
X94375000Y-87221317D01*
X94374164Y-87229806D01*
X94372763Y-87234426D01*
X94370485Y-87238687D01*
X94367421Y-87242421D01*
X94363687Y-87245485D01*
X94359426Y-87247763D01*
X94354806Y-87249164D01*
X94346317Y-87250000D01*
X94153683Y-87250000D01*
X94145194Y-87249164D01*
X94140574Y-87247763D01*
X94136313Y-87245485D01*
X94132579Y-87242421D01*
X94129515Y-87238687D01*
X94127237Y-87234426D01*
X94125836Y-87229806D01*
X94125000Y-87221317D01*
X94125000Y-86403683D01*
X94125836Y-86395194D01*
X94127237Y-86390574D01*
X94129515Y-86386313D01*
X94132579Y-86382579D01*
X94136313Y-86379515D01*
X94140574Y-86377237D01*
X94145194Y-86375836D01*
X94153683Y-86375000D01*
X94346317Y-86375000D01*
X94354806Y-86375836D01*
G37*
G36*
X92354806Y-86375836D02*
G01*
X92359426Y-86377237D01*
X92363687Y-86379515D01*
X92367421Y-86382579D01*
X92370485Y-86386313D01*
X92372763Y-86390574D01*
X92374164Y-86395194D01*
X92375000Y-86403683D01*
X92375000Y-87221317D01*
X92374164Y-87229806D01*
X92372763Y-87234426D01*
X92370485Y-87238687D01*
X92367421Y-87242421D01*
X92363687Y-87245485D01*
X92359426Y-87247763D01*
X92354806Y-87249164D01*
X92346317Y-87250000D01*
X92153683Y-87250000D01*
X92145194Y-87249164D01*
X92140574Y-87247763D01*
X92136313Y-87245485D01*
X92132579Y-87242421D01*
X92129515Y-87238687D01*
X92127237Y-87234426D01*
X92125836Y-87229806D01*
X92125000Y-87221317D01*
X92125000Y-86403683D01*
X92125836Y-86395194D01*
X92127237Y-86390574D01*
X92129515Y-86386313D01*
X92132579Y-86382579D01*
X92136313Y-86379515D01*
X92140574Y-86377237D01*
X92145194Y-86375836D01*
X92153683Y-86375000D01*
X92346317Y-86375000D01*
X92354806Y-86375836D01*
G37*
G36*
X93354806Y-86375836D02*
G01*
X93359426Y-86377237D01*
X93363687Y-86379515D01*
X93367421Y-86382579D01*
X93370485Y-86386313D01*
X93372763Y-86390574D01*
X93374164Y-86395194D01*
X93375000Y-86403683D01*
X93375000Y-87221317D01*
X93374164Y-87229806D01*
X93372763Y-87234426D01*
X93370485Y-87238687D01*
X93367421Y-87242421D01*
X93363687Y-87245485D01*
X93359426Y-87247763D01*
X93354806Y-87249164D01*
X93346317Y-87250000D01*
X93153683Y-87250000D01*
X93145194Y-87249164D01*
X93140574Y-87247763D01*
X93136313Y-87245485D01*
X93132579Y-87242421D01*
X93129515Y-87238687D01*
X93127237Y-87234426D01*
X93125836Y-87229806D01*
X93125000Y-87221317D01*
X93125000Y-86403683D01*
X93125836Y-86395194D01*
X93127237Y-86390574D01*
X93129515Y-86386313D01*
X93132579Y-86382579D01*
X93136313Y-86379515D01*
X93140574Y-86377237D01*
X93145194Y-86375836D01*
X93153683Y-86375000D01*
X93346317Y-86375000D01*
X93354806Y-86375836D01*
G37*
G36*
X92854806Y-86375836D02*
G01*
X92859426Y-86377237D01*
X92863687Y-86379515D01*
X92867421Y-86382579D01*
X92870485Y-86386313D01*
X92872763Y-86390574D01*
X92874164Y-86395194D01*
X92875000Y-86403683D01*
X92875000Y-87221317D01*
X92874164Y-87229806D01*
X92872763Y-87234426D01*
X92870485Y-87238687D01*
X92867421Y-87242421D01*
X92863687Y-87245485D01*
X92859426Y-87247763D01*
X92854806Y-87249164D01*
X92846317Y-87250000D01*
X92653683Y-87250000D01*
X92645194Y-87249164D01*
X92640574Y-87247763D01*
X92636313Y-87245485D01*
X92632579Y-87242421D01*
X92629515Y-87238687D01*
X92627237Y-87234426D01*
X92625836Y-87229806D01*
X92625000Y-87221317D01*
X92625000Y-86403683D01*
X92625836Y-86395194D01*
X92627237Y-86390574D01*
X92629515Y-86386313D01*
X92632579Y-86382579D01*
X92636313Y-86379515D01*
X92640574Y-86377237D01*
X92645194Y-86375836D01*
X92653683Y-86375000D01*
X92846317Y-86375000D01*
X92854806Y-86375836D01*
G37*
G36*
X93854806Y-86375836D02*
G01*
X93859426Y-86377237D01*
X93863687Y-86379515D01*
X93867421Y-86382579D01*
X93870485Y-86386313D01*
X93872763Y-86390574D01*
X93874164Y-86395194D01*
X93875000Y-86403683D01*
X93875000Y-87221317D01*
X93874164Y-87229806D01*
X93872763Y-87234426D01*
X93870485Y-87238687D01*
X93867421Y-87242421D01*
X93863687Y-87245485D01*
X93859426Y-87247763D01*
X93854806Y-87249164D01*
X93846317Y-87250000D01*
X93653683Y-87250000D01*
X93645194Y-87249164D01*
X93640574Y-87247763D01*
X93636313Y-87245485D01*
X93632579Y-87242421D01*
X93629515Y-87238687D01*
X93627237Y-87234426D01*
X93625836Y-87229806D01*
X93625000Y-87221317D01*
X93625000Y-86403683D01*
X93625836Y-86395194D01*
X93627237Y-86390574D01*
X93629515Y-86386313D01*
X93632579Y-86382579D01*
X93636313Y-86379515D01*
X93640574Y-86377237D01*
X93645194Y-86375836D01*
X93653683Y-86375000D01*
X93846317Y-86375000D01*
X93854806Y-86375836D01*
G37*
G36*
X94831868Y-86374820D02*
G01*
X94835157Y-86375144D01*
X94842403Y-86376585D01*
X94843804Y-86377010D01*
X94850645Y-86379843D01*
X94851922Y-86380526D01*
X94858073Y-86384637D01*
X94859206Y-86385566D01*
X94864434Y-86390794D01*
X94865363Y-86391927D01*
X94869474Y-86398078D01*
X94870157Y-86399355D01*
X94872990Y-86406196D01*
X94873415Y-86407597D01*
X94874856Y-86414843D01*
X94875180Y-86418132D01*
X94875363Y-86421848D01*
X94875363Y-86949512D01*
X94875180Y-86953228D01*
X94874856Y-86956517D01*
X94873415Y-86963763D01*
X94872990Y-86965164D01*
X94870157Y-86972005D01*
X94869474Y-86973282D01*
X94865363Y-86979433D01*
X94863260Y-86981997D01*
X94860772Y-86984742D01*
X94729742Y-87115772D01*
X94726997Y-87118260D01*
X94724433Y-87120363D01*
X94718282Y-87124474D01*
X94717005Y-87125157D01*
X94710164Y-87127990D01*
X94708763Y-87128415D01*
X94701517Y-87129856D01*
X94698228Y-87130180D01*
X94694512Y-87130363D01*
X94671848Y-87130363D01*
X94668132Y-87130180D01*
X94664843Y-87129856D01*
X94657597Y-87128415D01*
X94656196Y-87127990D01*
X94649355Y-87125157D01*
X94648078Y-87124474D01*
X94641927Y-87120363D01*
X94640794Y-87119434D01*
X94635566Y-87114206D01*
X94634637Y-87113073D01*
X94630526Y-87106922D01*
X94629843Y-87105645D01*
X94627010Y-87098804D01*
X94626585Y-87097403D01*
X94625144Y-87090157D01*
X94624820Y-87086868D01*
X94624637Y-87083152D01*
X94624637Y-86421848D01*
X94624820Y-86418132D01*
X94625144Y-86414843D01*
X94626585Y-86407597D01*
X94627010Y-86406196D01*
X94629843Y-86399355D01*
X94630526Y-86398078D01*
X94634637Y-86391927D01*
X94635566Y-86390794D01*
X94640794Y-86385566D01*
X94641927Y-86384637D01*
X94648078Y-86380526D01*
X94649355Y-86379843D01*
X94656196Y-86377010D01*
X94657597Y-86376585D01*
X94664843Y-86375144D01*
X94668132Y-86374820D01*
X94671848Y-86374637D01*
X94828152Y-86374637D01*
X94831868Y-86374820D01*
G37*
G36*
X91831868Y-86374820D02*
G01*
X91835157Y-86375144D01*
X91842403Y-86376585D01*
X91843804Y-86377010D01*
X91850645Y-86379843D01*
X91851922Y-86380526D01*
X91858073Y-86384637D01*
X91859206Y-86385566D01*
X91864434Y-86390794D01*
X91865363Y-86391927D01*
X91869474Y-86398078D01*
X91870157Y-86399355D01*
X91872990Y-86406196D01*
X91873415Y-86407597D01*
X91874856Y-86414843D01*
X91875180Y-86418132D01*
X91875363Y-86421848D01*
X91875363Y-87083152D01*
X91875180Y-87086868D01*
X91874856Y-87090157D01*
X91873415Y-87097403D01*
X91872990Y-87098804D01*
X91870157Y-87105645D01*
X91869474Y-87106922D01*
X91865363Y-87113073D01*
X91864434Y-87114206D01*
X91859206Y-87119434D01*
X91858073Y-87120363D01*
X91851922Y-87124474D01*
X91850645Y-87125157D01*
X91843804Y-87127990D01*
X91842403Y-87128415D01*
X91835157Y-87129856D01*
X91831868Y-87130180D01*
X91828152Y-87130363D01*
X91805488Y-87130363D01*
X91801772Y-87130180D01*
X91798483Y-87129856D01*
X91791237Y-87128415D01*
X91789836Y-87127990D01*
X91782995Y-87125157D01*
X91781718Y-87124474D01*
X91775567Y-87120363D01*
X91773003Y-87118260D01*
X91770258Y-87115772D01*
X91639228Y-86984742D01*
X91636740Y-86981997D01*
X91634637Y-86979433D01*
X91630526Y-86973282D01*
X91629843Y-86972005D01*
X91627010Y-86965164D01*
X91626585Y-86963763D01*
X91625144Y-86956517D01*
X91624820Y-86953228D01*
X91624637Y-86949512D01*
X91624637Y-86421848D01*
X91624820Y-86418132D01*
X91625144Y-86414843D01*
X91626585Y-86407597D01*
X91627010Y-86406196D01*
X91629843Y-86399355D01*
X91630526Y-86398078D01*
X91634637Y-86391927D01*
X91635566Y-86390794D01*
X91640794Y-86385566D01*
X91641927Y-86384637D01*
X91648078Y-86380526D01*
X91649355Y-86379843D01*
X91656196Y-86377010D01*
X91657597Y-86376585D01*
X91664843Y-86375144D01*
X91668132Y-86374820D01*
X91671848Y-86374637D01*
X91828152Y-86374637D01*
X91831868Y-86374820D01*
G37*
G36*
X97765523Y-84431266D02*
G01*
X97820858Y-84442273D01*
X98021048Y-84525194D01*
X98201209Y-84645574D01*
X98354426Y-84798791D01*
X98474806Y-84978952D01*
X98474807Y-84978955D01*
X98557727Y-85179142D01*
X98600000Y-85391659D01*
X98600000Y-85608341D01*
X98581194Y-85702882D01*
X98557727Y-85820858D01*
X98474806Y-86021048D01*
X98354426Y-86201209D01*
X98201209Y-86354426D01*
X98021048Y-86474806D01*
X97820858Y-86557727D01*
X97608341Y-86600000D01*
X97391659Y-86600000D01*
X97179142Y-86557727D01*
X96978952Y-86474806D01*
X96798791Y-86354426D01*
X96645574Y-86201209D01*
X96525194Y-86021048D01*
X96442273Y-85820858D01*
X96418806Y-85702882D01*
X96400000Y-85608341D01*
X96400000Y-85391659D01*
X96442273Y-85179142D01*
X96525193Y-84978955D01*
X96525194Y-84978952D01*
X96645574Y-84798791D01*
X96798791Y-84645574D01*
X96978952Y-84525194D01*
X97179142Y-84442273D01*
X97234477Y-84431266D01*
X97391659Y-84400000D01*
X97608341Y-84400000D01*
X97765523Y-84431266D01*
G37*
G36*
X74259375Y-85702518D02*
G01*
X74280415Y-85708900D01*
X74299801Y-85719262D01*
X74316793Y-85733207D01*
X74330738Y-85750199D01*
X74341100Y-85769585D01*
X74347482Y-85790625D01*
X74350000Y-85816187D01*
X74350000Y-86183813D01*
X74347482Y-86209375D01*
X74341100Y-86230415D01*
X74330738Y-86249801D01*
X74316793Y-86266793D01*
X74299801Y-86280738D01*
X74280415Y-86291100D01*
X74259375Y-86297482D01*
X74233813Y-86300000D01*
X72916187Y-86300000D01*
X72890625Y-86297482D01*
X72869585Y-86291100D01*
X72850199Y-86280738D01*
X72833207Y-86266793D01*
X72819262Y-86249801D01*
X72808900Y-86230415D01*
X72802518Y-86209375D01*
X72800000Y-86183813D01*
X72800000Y-85816187D01*
X72802518Y-85790625D01*
X72808900Y-85769585D01*
X72819262Y-85750199D01*
X72833207Y-85733207D01*
X72850199Y-85719262D01*
X72869585Y-85708900D01*
X72890625Y-85702518D01*
X72916187Y-85700000D01*
X74233813Y-85700000D01*
X74259375Y-85702518D01*
G37*
G36*
X87000000Y-85550000D02*
G01*
X86100000Y-85550000D01*
X86100000Y-82950000D01*
X87000000Y-82950000D01*
X87000000Y-85550000D01*
G37*
G36*
X83900000Y-85550000D02*
G01*
X83000000Y-85550000D01*
X83000000Y-82950000D01*
X83900000Y-82950000D01*
X83900000Y-85550000D01*
G37*
G36*
X74259375Y-84702518D02*
G01*
X74280415Y-84708900D01*
X74299801Y-84719262D01*
X74316793Y-84733207D01*
X74330738Y-84750199D01*
X74341100Y-84769585D01*
X74347482Y-84790625D01*
X74350000Y-84816187D01*
X74350000Y-85183813D01*
X74347482Y-85209375D01*
X74341100Y-85230415D01*
X74330738Y-85249801D01*
X74316793Y-85266793D01*
X74299801Y-85280738D01*
X74280415Y-85291100D01*
X74259375Y-85297482D01*
X74233813Y-85300000D01*
X72916187Y-85300000D01*
X72890625Y-85297482D01*
X72869585Y-85291100D01*
X72850199Y-85280738D01*
X72833207Y-85266793D01*
X72819262Y-85249801D01*
X72808900Y-85230415D01*
X72802518Y-85209375D01*
X72800000Y-85183813D01*
X72800000Y-84816187D01*
X72802518Y-84790625D01*
X72808900Y-84769585D01*
X72819262Y-84750199D01*
X72833207Y-84733207D01*
X72850199Y-84719262D01*
X72869585Y-84708900D01*
X72890625Y-84702518D01*
X72916187Y-84700000D01*
X74233813Y-84700000D01*
X74259375Y-84702518D01*
G37*
G36*
X94874338Y-84264937D02*
G01*
X94895845Y-84269215D01*
X94970167Y-84300000D01*
X94986839Y-84306906D01*
X95067640Y-84360896D01*
X95068734Y-84361627D01*
X95138373Y-84431266D01*
X95193095Y-84513163D01*
X95230785Y-84604155D01*
X95250000Y-84700756D01*
X95250000Y-84799244D01*
X95230785Y-84895845D01*
X95193095Y-84986837D01*
X95138373Y-85068734D01*
X95068734Y-85138373D01*
X95068731Y-85138375D01*
X94986839Y-85193094D01*
X94895845Y-85230785D01*
X94799246Y-85250000D01*
X94700754Y-85250000D01*
X94604155Y-85230785D01*
X94513161Y-85193094D01*
X94431269Y-85138375D01*
X94431266Y-85138373D01*
X94361627Y-85068734D01*
X94306905Y-84986837D01*
X94269215Y-84895845D01*
X94250000Y-84799244D01*
X94250000Y-84700756D01*
X94269215Y-84604155D01*
X94306905Y-84513163D01*
X94361627Y-84431266D01*
X94431266Y-84361627D01*
X94432360Y-84360896D01*
X94513161Y-84306906D01*
X94529834Y-84300000D01*
X94604155Y-84269215D01*
X94625662Y-84264937D01*
X94700754Y-84250000D01*
X94799246Y-84250000D01*
X94874338Y-84264937D01*
G37*
G36*
X93374338Y-84264937D02*
G01*
X93395845Y-84269215D01*
X93470167Y-84300000D01*
X93486839Y-84306906D01*
X93567640Y-84360896D01*
X93568734Y-84361627D01*
X93638373Y-84431266D01*
X93693095Y-84513163D01*
X93730785Y-84604155D01*
X93750000Y-84700756D01*
X93750000Y-84799244D01*
X93730785Y-84895845D01*
X93693095Y-84986837D01*
X93638373Y-85068734D01*
X93568734Y-85138373D01*
X93568731Y-85138375D01*
X93486839Y-85193094D01*
X93395845Y-85230785D01*
X93299246Y-85250000D01*
X93200754Y-85250000D01*
X93104155Y-85230785D01*
X93013161Y-85193094D01*
X92931269Y-85138375D01*
X92931266Y-85138373D01*
X92861627Y-85068734D01*
X92806905Y-84986837D01*
X92769215Y-84895845D01*
X92750000Y-84799244D01*
X92750000Y-84700756D01*
X92769215Y-84604155D01*
X92806905Y-84513163D01*
X92861627Y-84431266D01*
X92931266Y-84361627D01*
X92932360Y-84360896D01*
X93013161Y-84306906D01*
X93029834Y-84300000D01*
X93104155Y-84269215D01*
X93125662Y-84264937D01*
X93200754Y-84250000D01*
X93299246Y-84250000D01*
X93374338Y-84264937D01*
G37*
G36*
X77500000Y-84300000D02*
G01*
X76600000Y-84300000D01*
X76600000Y-81700000D01*
X77500000Y-81700000D01*
X77500000Y-84300000D01*
G37*
G36*
X71783918Y-83104319D02*
G01*
X71822535Y-83116034D01*
X71858137Y-83135063D01*
X71889334Y-83160666D01*
X71914937Y-83191863D01*
X71933966Y-83227465D01*
X71945681Y-83266082D01*
X71950000Y-83309936D01*
X71950000Y-84090064D01*
X71945681Y-84133918D01*
X71933966Y-84172535D01*
X71914937Y-84208137D01*
X71889334Y-84239334D01*
X71858137Y-84264937D01*
X71822535Y-84283966D01*
X71783918Y-84295681D01*
X71740064Y-84300000D01*
X70359936Y-84300000D01*
X70316082Y-84295681D01*
X70277465Y-84283966D01*
X70241863Y-84264937D01*
X70210666Y-84239334D01*
X70185063Y-84208137D01*
X70166034Y-84172535D01*
X70154319Y-84133918D01*
X70150000Y-84090064D01*
X70150000Y-83309936D01*
X70154319Y-83266082D01*
X70166034Y-83227465D01*
X70185063Y-83191863D01*
X70210666Y-83160666D01*
X70241863Y-83135063D01*
X70277465Y-83116034D01*
X70316082Y-83104319D01*
X70359936Y-83100000D01*
X71740064Y-83100000D01*
X71783918Y-83104319D01*
G37*
G36*
X74400000Y-84300000D02*
G01*
X73500000Y-84300000D01*
X73500000Y-81700000D01*
X74400000Y-81700000D01*
X74400000Y-84300000D01*
G37*
G36*
X91750000Y-83200000D02*
G01*
X91250000Y-83200000D01*
X91250000Y-82300000D01*
X91750000Y-82300000D01*
X91750000Y-83200000D01*
G37*
G36*
X93250000Y-83200000D02*
G01*
X92750000Y-83200000D01*
X92750000Y-82300000D01*
X93250000Y-82300000D01*
X93250000Y-83200000D01*
G37*
G36*
X96250000Y-83200000D02*
G01*
X95750000Y-83200000D01*
X95750000Y-82300000D01*
X96250000Y-82300000D01*
X96250000Y-83200000D01*
G37*
G36*
X97750000Y-83200000D02*
G01*
X97250000Y-83200000D01*
X97250000Y-82300000D01*
X97750000Y-82300000D01*
X97750000Y-83200000D01*
G37*
G36*
X99250000Y-83200000D02*
G01*
X98750000Y-83200000D01*
X98750000Y-82300000D01*
X99250000Y-82300000D01*
X99250000Y-83200000D01*
G37*
G36*
X94750000Y-83200000D02*
G01*
X94250000Y-83200000D01*
X94250000Y-82300000D01*
X94750000Y-82300000D01*
X94750000Y-83200000D01*
G37*
G36*
X71783918Y-81704319D02*
G01*
X71822535Y-81716034D01*
X71858137Y-81735063D01*
X71889334Y-81760666D01*
X71914937Y-81791863D01*
X71933966Y-81827465D01*
X71945681Y-81866082D01*
X71950000Y-81909936D01*
X71950000Y-82690064D01*
X71945681Y-82733918D01*
X71933966Y-82772535D01*
X71914937Y-82808137D01*
X71889334Y-82839334D01*
X71858137Y-82864937D01*
X71822535Y-82883966D01*
X71783918Y-82895681D01*
X71740064Y-82900000D01*
X70359936Y-82900000D01*
X70316082Y-82895681D01*
X70277465Y-82883966D01*
X70241863Y-82864937D01*
X70210666Y-82839334D01*
X70185063Y-82808137D01*
X70166034Y-82772535D01*
X70154319Y-82733918D01*
X70150000Y-82690064D01*
X70150000Y-81909936D01*
X70154319Y-81866082D01*
X70166034Y-81827465D01*
X70185063Y-81791863D01*
X70210666Y-81760666D01*
X70241863Y-81735063D01*
X70277465Y-81716034D01*
X70316082Y-81704319D01*
X70359936Y-81700000D01*
X71740064Y-81700000D01*
X71783918Y-81704319D01*
G37*
G36*
X90300000Y-82500000D02*
G01*
X87700000Y-82500000D01*
X87700000Y-81600000D01*
X90300000Y-81600000D01*
X90300000Y-82500000D01*
G37*
G36*
X78459375Y-80802518D02*
G01*
X78480415Y-80808900D01*
X78499801Y-80819262D01*
X78516793Y-80833207D01*
X78530738Y-80850199D01*
X78541100Y-80869585D01*
X78547482Y-80890625D01*
X78550000Y-80916187D01*
X78550000Y-82233813D01*
X78547482Y-82259375D01*
X78541100Y-82280415D01*
X78530738Y-82299801D01*
X78516793Y-82316793D01*
X78499801Y-82330738D01*
X78480415Y-82341100D01*
X78459375Y-82347482D01*
X78433813Y-82350000D01*
X78066187Y-82350000D01*
X78040625Y-82347482D01*
X78019585Y-82341100D01*
X78000199Y-82330738D01*
X77983207Y-82316793D01*
X77969262Y-82299801D01*
X77958900Y-82280415D01*
X77952518Y-82259375D01*
X77950000Y-82233813D01*
X77950000Y-80916187D01*
X77952518Y-80890625D01*
X77958900Y-80869585D01*
X77969262Y-80850199D01*
X77983207Y-80833207D01*
X78000199Y-80819262D01*
X78019585Y-80808900D01*
X78040625Y-80802518D01*
X78066187Y-80800000D01*
X78433813Y-80800000D01*
X78459375Y-80802518D01*
G37*
G36*
X79459375Y-80802518D02*
G01*
X79480415Y-80808900D01*
X79499801Y-80819262D01*
X79516793Y-80833207D01*
X79530738Y-80850199D01*
X79541100Y-80869585D01*
X79547482Y-80890625D01*
X79550000Y-80916187D01*
X79550000Y-82233813D01*
X79547482Y-82259375D01*
X79541100Y-82280415D01*
X79530738Y-82299801D01*
X79516793Y-82316793D01*
X79499801Y-82330738D01*
X79480415Y-82341100D01*
X79459375Y-82347482D01*
X79433813Y-82350000D01*
X79066187Y-82350000D01*
X79040625Y-82347482D01*
X79019585Y-82341100D01*
X79000199Y-82330738D01*
X78983207Y-82316793D01*
X78969262Y-82299801D01*
X78958900Y-82280415D01*
X78952518Y-82259375D01*
X78950000Y-82233813D01*
X78950000Y-80916187D01*
X78952518Y-80890625D01*
X78958900Y-80869585D01*
X78969262Y-80850199D01*
X78983207Y-80833207D01*
X79000199Y-80819262D01*
X79019585Y-80808900D01*
X79040625Y-80802518D01*
X79066187Y-80800000D01*
X79433813Y-80800000D01*
X79459375Y-80802518D01*
G37*
G36*
X80459375Y-80802518D02*
G01*
X80480415Y-80808900D01*
X80499801Y-80819262D01*
X80516793Y-80833207D01*
X80530738Y-80850199D01*
X80541100Y-80869585D01*
X80547482Y-80890625D01*
X80550000Y-80916187D01*
X80550000Y-82233813D01*
X80547482Y-82259375D01*
X80541100Y-82280415D01*
X80530738Y-82299801D01*
X80516793Y-82316793D01*
X80499801Y-82330738D01*
X80480415Y-82341100D01*
X80459375Y-82347482D01*
X80433813Y-82350000D01*
X80066187Y-82350000D01*
X80040625Y-82347482D01*
X80019585Y-82341100D01*
X80000199Y-82330738D01*
X79983207Y-82316793D01*
X79969262Y-82299801D01*
X79958900Y-82280415D01*
X79952518Y-82259375D01*
X79950000Y-82233813D01*
X79950000Y-80916187D01*
X79952518Y-80890625D01*
X79958900Y-80869585D01*
X79969262Y-80850199D01*
X79983207Y-80833207D01*
X80000199Y-80819262D01*
X80019585Y-80808900D01*
X80040625Y-80802518D01*
X80066187Y-80800000D01*
X80433813Y-80800000D01*
X80459375Y-80802518D01*
G37*
G36*
X81459375Y-80802518D02*
G01*
X81480415Y-80808900D01*
X81499801Y-80819262D01*
X81516793Y-80833207D01*
X81530738Y-80850199D01*
X81541100Y-80869585D01*
X81547482Y-80890625D01*
X81550000Y-80916187D01*
X81550000Y-82233813D01*
X81547482Y-82259375D01*
X81541100Y-82280415D01*
X81530738Y-82299801D01*
X81516793Y-82316793D01*
X81499801Y-82330738D01*
X81480415Y-82341100D01*
X81459375Y-82347482D01*
X81433813Y-82350000D01*
X81066187Y-82350000D01*
X81040625Y-82347482D01*
X81019585Y-82341100D01*
X81000199Y-82330738D01*
X80983207Y-82316793D01*
X80969262Y-82299801D01*
X80958900Y-82280415D01*
X80952518Y-82259375D01*
X80950000Y-82233813D01*
X80950000Y-80916187D01*
X80952518Y-80890625D01*
X80958900Y-80869585D01*
X80969262Y-80850199D01*
X80983207Y-80833207D01*
X81000199Y-80819262D01*
X81019585Y-80808900D01*
X81040625Y-80802518D01*
X81066187Y-80800000D01*
X81433813Y-80800000D01*
X81459375Y-80802518D01*
G37*
G36*
X82459375Y-80802518D02*
G01*
X82480415Y-80808900D01*
X82499801Y-80819262D01*
X82516793Y-80833207D01*
X82530738Y-80850199D01*
X82541100Y-80869585D01*
X82547482Y-80890625D01*
X82550000Y-80916187D01*
X82550000Y-82233813D01*
X82547482Y-82259375D01*
X82541100Y-82280415D01*
X82530738Y-82299801D01*
X82516793Y-82316793D01*
X82499801Y-82330738D01*
X82480415Y-82341100D01*
X82459375Y-82347482D01*
X82433813Y-82350000D01*
X82066187Y-82350000D01*
X82040625Y-82347482D01*
X82019585Y-82341100D01*
X82000199Y-82330738D01*
X81983207Y-82316793D01*
X81969262Y-82299801D01*
X81958900Y-82280415D01*
X81952518Y-82259375D01*
X81950000Y-82233813D01*
X81950000Y-80916187D01*
X81952518Y-80890625D01*
X81958900Y-80869585D01*
X81969262Y-80850199D01*
X81983207Y-80833207D01*
X82000199Y-80819262D01*
X82019585Y-80808900D01*
X82040625Y-80802518D01*
X82066187Y-80800000D01*
X82433813Y-80800000D01*
X82459375Y-80802518D01*
G37*
G36*
X83459375Y-80802518D02*
G01*
X83480415Y-80808900D01*
X83499801Y-80819262D01*
X83516793Y-80833207D01*
X83530738Y-80850199D01*
X83541100Y-80869585D01*
X83547482Y-80890625D01*
X83550000Y-80916187D01*
X83550000Y-82233813D01*
X83547482Y-82259375D01*
X83541100Y-82280415D01*
X83530738Y-82299801D01*
X83516793Y-82316793D01*
X83499801Y-82330738D01*
X83480415Y-82341100D01*
X83459375Y-82347482D01*
X83433813Y-82350000D01*
X83066187Y-82350000D01*
X83040625Y-82347482D01*
X83019585Y-82341100D01*
X83000199Y-82330738D01*
X82983207Y-82316793D01*
X82969262Y-82299801D01*
X82958900Y-82280415D01*
X82952518Y-82259375D01*
X82950000Y-82233813D01*
X82950000Y-80916187D01*
X82952518Y-80890625D01*
X82958900Y-80869585D01*
X82969262Y-80850199D01*
X82983207Y-80833207D01*
X83000199Y-80819262D01*
X83019585Y-80808900D01*
X83040625Y-80802518D01*
X83066187Y-80800000D01*
X83433813Y-80800000D01*
X83459375Y-80802518D01*
G37*
G36*
X84459375Y-80802518D02*
G01*
X84480415Y-80808900D01*
X84499801Y-80819262D01*
X84516793Y-80833207D01*
X84530738Y-80850199D01*
X84541100Y-80869585D01*
X84547482Y-80890625D01*
X84550000Y-80916187D01*
X84550000Y-82233813D01*
X84547482Y-82259375D01*
X84541100Y-82280415D01*
X84530738Y-82299801D01*
X84516793Y-82316793D01*
X84499801Y-82330738D01*
X84480415Y-82341100D01*
X84459375Y-82347482D01*
X84433813Y-82350000D01*
X84066187Y-82350000D01*
X84040625Y-82347482D01*
X84019585Y-82341100D01*
X84000199Y-82330738D01*
X83983207Y-82316793D01*
X83969262Y-82299801D01*
X83958900Y-82280415D01*
X83952518Y-82259375D01*
X83950000Y-82233813D01*
X83950000Y-80916187D01*
X83952518Y-80890625D01*
X83958900Y-80869585D01*
X83969262Y-80850199D01*
X83983207Y-80833207D01*
X84000199Y-80819262D01*
X84019585Y-80808900D01*
X84040625Y-80802518D01*
X84066187Y-80800000D01*
X84433813Y-80800000D01*
X84459375Y-80802518D01*
G37*
G36*
X85459375Y-80802518D02*
G01*
X85480415Y-80808900D01*
X85499801Y-80819262D01*
X85516793Y-80833207D01*
X85530738Y-80850199D01*
X85541100Y-80869585D01*
X85547482Y-80890625D01*
X85550000Y-80916187D01*
X85550000Y-82233813D01*
X85547482Y-82259375D01*
X85541100Y-82280415D01*
X85530738Y-82299801D01*
X85516793Y-82316793D01*
X85499801Y-82330738D01*
X85480415Y-82341100D01*
X85459375Y-82347482D01*
X85433813Y-82350000D01*
X85066187Y-82350000D01*
X85040625Y-82347482D01*
X85019585Y-82341100D01*
X85000199Y-82330738D01*
X84983207Y-82316793D01*
X84969262Y-82299801D01*
X84958900Y-82280415D01*
X84952518Y-82259375D01*
X84950000Y-82233813D01*
X84950000Y-80916187D01*
X84952518Y-80890625D01*
X84958900Y-80869585D01*
X84969262Y-80850199D01*
X84983207Y-80833207D01*
X85000199Y-80819262D01*
X85019585Y-80808900D01*
X85040625Y-80802518D01*
X85066187Y-80800000D01*
X85433813Y-80800000D01*
X85459375Y-80802518D01*
G37*
G36*
X96930000Y-81525000D02*
G01*
X95870000Y-81525000D01*
X95870000Y-80875000D01*
X96930000Y-80875000D01*
X96930000Y-81525000D01*
G37*
G36*
X99130000Y-81525000D02*
G01*
X98070000Y-81525000D01*
X98070000Y-80875000D01*
X99130000Y-80875000D01*
X99130000Y-81525000D01*
G37*
G36*
X92390000Y-81395000D02*
G01*
X91490000Y-81395000D01*
X91490000Y-81045000D01*
X92390000Y-81045000D01*
X92390000Y-81395000D01*
G37*
G36*
X95010000Y-81395000D02*
G01*
X94110000Y-81395000D01*
X94110000Y-81045000D01*
X95010000Y-81045000D01*
X95010000Y-81395000D01*
G37*
G36*
X74259375Y-80702518D02*
G01*
X74280415Y-80708900D01*
X74299801Y-80719262D01*
X74316793Y-80733207D01*
X74330738Y-80750199D01*
X74341100Y-80769585D01*
X74347482Y-80790625D01*
X74350000Y-80816187D01*
X74350000Y-81183813D01*
X74347482Y-81209375D01*
X74341100Y-81230415D01*
X74330738Y-81249801D01*
X74316793Y-81266793D01*
X74299801Y-81280738D01*
X74280415Y-81291100D01*
X74259375Y-81297482D01*
X74233813Y-81300000D01*
X72916187Y-81300000D01*
X72890625Y-81297482D01*
X72869585Y-81291100D01*
X72850199Y-81280738D01*
X72833207Y-81266793D01*
X72819262Y-81249801D01*
X72808900Y-81230415D01*
X72802518Y-81209375D01*
X72800000Y-81183813D01*
X72800000Y-80816187D01*
X72802518Y-80790625D01*
X72808900Y-80769585D01*
X72819262Y-80750199D01*
X72833207Y-80733207D01*
X72850199Y-80719262D01*
X72869585Y-80708900D01*
X72890625Y-80702518D01*
X72916187Y-80700000D01*
X74233813Y-80700000D01*
X74259375Y-80702518D01*
G37*
G36*
X92390000Y-80755000D02*
G01*
X91490000Y-80755000D01*
X91490000Y-80405000D01*
X92390000Y-80405000D01*
X92390000Y-80755000D01*
G37*
G36*
X95010000Y-80755000D02*
G01*
X94110000Y-80755000D01*
X94110000Y-80405000D01*
X95010000Y-80405000D01*
X95010000Y-80755000D01*
G37*
G36*
X99130000Y-80575000D02*
G01*
X98070000Y-80575000D01*
X98070000Y-79925000D01*
X99130000Y-79925000D01*
X99130000Y-80575000D01*
G37*
G36*
X74259375Y-79702518D02*
G01*
X74280415Y-79708900D01*
X74299801Y-79719262D01*
X74316793Y-79733207D01*
X74330738Y-79750199D01*
X74341100Y-79769585D01*
X74347482Y-79790625D01*
X74350000Y-79816187D01*
X74350000Y-80183813D01*
X74347482Y-80209375D01*
X74341100Y-80230415D01*
X74330738Y-80249801D01*
X74316793Y-80266793D01*
X74299801Y-80280738D01*
X74280415Y-80291100D01*
X74259375Y-80297482D01*
X74233813Y-80300000D01*
X72916187Y-80300000D01*
X72890625Y-80297482D01*
X72869585Y-80291100D01*
X72850199Y-80280738D01*
X72833207Y-80266793D01*
X72819262Y-80249801D01*
X72808900Y-80230415D01*
X72802518Y-80209375D01*
X72800000Y-80183813D01*
X72800000Y-79816187D01*
X72802518Y-79790625D01*
X72808900Y-79769585D01*
X72819262Y-79750199D01*
X72833207Y-79733207D01*
X72850199Y-79719262D01*
X72869585Y-79708900D01*
X72890625Y-79702518D01*
X72916187Y-79700000D01*
X74233813Y-79700000D01*
X74259375Y-79702518D01*
G37*
G36*
X92390000Y-80095000D02*
G01*
X91490000Y-80095000D01*
X91490000Y-79745000D01*
X92390000Y-79745000D01*
X92390000Y-80095000D01*
G37*
G36*
X95010000Y-80095000D02*
G01*
X94110000Y-80095000D01*
X94110000Y-79745000D01*
X95010000Y-79745000D01*
X95010000Y-80095000D01*
G37*
G36*
X77383918Y-78154319D02*
G01*
X77422535Y-78166034D01*
X77458137Y-78185063D01*
X77489334Y-78210666D01*
X77514937Y-78241863D01*
X77533966Y-78277465D01*
X77545681Y-78316082D01*
X77550000Y-78359936D01*
X77550000Y-79740064D01*
X77545681Y-79783918D01*
X77533966Y-79822535D01*
X77514937Y-79858137D01*
X77489334Y-79889334D01*
X77458137Y-79914937D01*
X77422535Y-79933966D01*
X77383918Y-79945681D01*
X77340064Y-79950000D01*
X76559936Y-79950000D01*
X76516082Y-79945681D01*
X76477465Y-79933966D01*
X76441863Y-79914937D01*
X76410666Y-79889334D01*
X76385063Y-79858137D01*
X76366034Y-79822535D01*
X76354319Y-79783918D01*
X76350000Y-79740064D01*
X76350000Y-78359936D01*
X76354319Y-78316082D01*
X76366034Y-78277465D01*
X76385063Y-78241863D01*
X76410666Y-78210666D01*
X76441863Y-78185063D01*
X76477465Y-78166034D01*
X76516082Y-78154319D01*
X76559936Y-78150000D01*
X77340064Y-78150000D01*
X77383918Y-78154319D01*
G37*
G36*
X86983918Y-78154319D02*
G01*
X87022535Y-78166034D01*
X87058137Y-78185063D01*
X87089334Y-78210666D01*
X87114937Y-78241863D01*
X87133966Y-78277465D01*
X87145681Y-78316082D01*
X87150000Y-78359936D01*
X87150000Y-79740064D01*
X87145681Y-79783918D01*
X87133966Y-79822535D01*
X87114937Y-79858137D01*
X87089334Y-79889334D01*
X87058137Y-79914937D01*
X87022535Y-79933966D01*
X86983918Y-79945681D01*
X86940064Y-79950000D01*
X86159936Y-79950000D01*
X86116082Y-79945681D01*
X86077465Y-79933966D01*
X86041863Y-79914937D01*
X86010666Y-79889334D01*
X85985063Y-79858137D01*
X85966034Y-79822535D01*
X85954319Y-79783918D01*
X85950000Y-79740064D01*
X85950000Y-78359936D01*
X85954319Y-78316082D01*
X85966034Y-78277465D01*
X85985063Y-78241863D01*
X86010666Y-78210666D01*
X86041863Y-78185063D01*
X86077465Y-78166034D01*
X86116082Y-78154319D01*
X86159936Y-78150000D01*
X86940064Y-78150000D01*
X86983918Y-78154319D01*
G37*
G36*
X96930000Y-79625000D02*
G01*
X95870000Y-79625000D01*
X95870000Y-78975000D01*
X96930000Y-78975000D01*
X96930000Y-79625000D01*
G37*
G36*
X99130000Y-79625000D02*
G01*
X98070000Y-79625000D01*
X98070000Y-78975000D01*
X99130000Y-78975000D01*
X99130000Y-79625000D01*
G37*
G36*
X95010000Y-79455000D02*
G01*
X94110000Y-79455000D01*
X94110000Y-79105000D01*
X95010000Y-79105000D01*
X95010000Y-79455000D01*
G37*
G36*
X92390000Y-79455000D02*
G01*
X91490000Y-79455000D01*
X91490000Y-79105000D01*
X92390000Y-79105000D01*
X92390000Y-79455000D01*
G37*
G36*
X90300000Y-79400000D02*
G01*
X87700000Y-79400000D01*
X87700000Y-78500000D01*
X90300000Y-78500000D01*
X90300000Y-79400000D01*
G37*
G36*
X71783918Y-78104319D02*
G01*
X71822535Y-78116034D01*
X71858137Y-78135063D01*
X71889334Y-78160666D01*
X71914937Y-78191863D01*
X71933966Y-78227465D01*
X71945681Y-78266082D01*
X71950000Y-78309936D01*
X71950000Y-79090064D01*
X71945681Y-79133918D01*
X71933966Y-79172535D01*
X71914937Y-79208137D01*
X71889334Y-79239334D01*
X71858137Y-79264937D01*
X71822535Y-79283966D01*
X71783918Y-79295681D01*
X71740064Y-79300000D01*
X70359936Y-79300000D01*
X70316082Y-79295681D01*
X70277465Y-79283966D01*
X70241863Y-79264937D01*
X70210666Y-79239334D01*
X70185063Y-79208137D01*
X70166034Y-79172535D01*
X70154319Y-79133918D01*
X70150000Y-79090064D01*
X70150000Y-78309936D01*
X70154319Y-78266082D01*
X70166034Y-78227465D01*
X70185063Y-78191863D01*
X70210666Y-78160666D01*
X70241863Y-78135063D01*
X70277465Y-78116034D01*
X70316082Y-78104319D01*
X70359936Y-78100000D01*
X71740064Y-78100000D01*
X71783918Y-78104319D01*
G37*
M02*
