M48
; DRILL file {KiCad 5.1.2} date So 04 Aug 2019 16:28:36 CEST
; FORMAT={-:-/ absolute / inch / decimal}
; #@! TF.CreationDate,2019-08-04T16:28:36+02:00
; #@! TF.GenerationSoftware,Kicad,Pcbnew,5.1.2
; #@! TF.FileFunction,Plated,1,2,PTH
FMAT,2
INCH
T1C0.0157
T2C0.0236
T3C0.0433
T4C0.0472
T5C0.0984
T6C0.1260
%
G90
G05
T1
X3.9843Y-2.2106
X3.9843Y-2.2697
X3.9843Y-2.3287
X3.9843Y-2.3878
X3.9843Y-2.4469
X3.9843Y-2.5059
X3.9843Y-2.565
X3.9843Y-2.624
X3.9843Y-2.6831
X3.9843Y-2.7421
X3.9843Y-2.8012
X3.9843Y-2.8602
X3.9843Y-2.9193
X3.9843Y-2.9783
X3.9843Y-3.0374
X3.9843Y-3.0965
X3.9843Y-3.1555
X3.9843Y-3.2146
X3.9843Y-3.2736
X3.9843Y-3.3327
X3.9843Y-3.3917
X3.9843Y-3.4508
X3.9843Y-3.5098
X3.9843Y-3.5689
X3.9843Y-3.628
X3.9843Y-3.687
X3.9843Y-3.7461
X4.0433Y-2.2697
X4.0433Y-2.3287
X4.0433Y-2.3878
X4.0433Y-2.4469
X4.0433Y-2.5059
X4.0433Y-2.565
X4.0433Y-2.624
X4.0433Y-2.6831
X4.0433Y-2.7421
X4.0433Y-2.8012
X4.0433Y-2.8602
X4.0433Y-2.9193
X4.0433Y-2.9783
X4.0433Y-3.0374
X4.0433Y-3.0965
X4.0433Y-3.1555
X4.0433Y-3.2146
X4.0433Y-3.2736
X4.0433Y-3.3327
X4.0433Y-3.3917
X4.0433Y-3.4508
X4.0433Y-3.5098
X4.0433Y-3.5689
X4.0433Y-3.628
X4.0433Y-3.687
X4.0433Y-3.7461
X4.1014Y-2.2697
X4.1014Y-2.3287
X4.1014Y-2.3878
X4.1014Y-2.4469
X4.1014Y-2.5059
X4.1014Y-2.565
X4.1014Y-2.624
X4.1014Y-2.6831
X4.1014Y-2.7421
X4.1014Y-2.8012
X4.1014Y-2.8602
X4.1014Y-2.9193
X4.1014Y-2.9783
X4.1014Y-3.0374
X4.1014Y-3.0965
X4.1014Y-3.1555
X4.1014Y-3.2146
X4.1014Y-3.2736
X4.1014Y-3.3327
X4.1014Y-3.3917
X4.1014Y-3.4508
X4.1014Y-3.5098
X4.1014Y-3.5689
X4.1014Y-3.628
X4.1014Y-3.687
X4.1014Y-3.7461
X4.1614Y-2.2106
X4.1614Y-2.2697
X4.2205Y-2.0335
X4.2205Y-2.0925
X4.2205Y-2.1516
X4.2205Y-2.2106
X4.2205Y-2.2697
X4.2795Y-2.0335
X4.2795Y-2.0925
X4.2795Y-2.1516
X4.2795Y-2.2106
X4.2795Y-2.2697
X4.3386Y-2.0335
X4.3386Y-2.0925
X4.3386Y-2.1516
X4.3386Y-2.2106
X4.3386Y-2.2697
X4.4016Y-3.7402
X4.4016Y-3.7697
X4.4016Y-3.7992
X4.4213Y-2.1053
X4.4213Y-2.1348
X4.4213Y-2.1644
X4.4311Y-3.7402
X4.4311Y-3.7697
X4.4311Y-3.7992
X4.437Y-3.5974
X4.44Y-3.9557
X4.44Y-3.9852
X4.4508Y-2.1053
X4.4508Y-2.1348
X4.4508Y-2.1644
X4.4606Y-3.7402
X4.4606Y-3.7697
X4.4606Y-3.7992
X4.4665Y-3.5679
X4.4665Y-3.5974
X4.4695Y-3.9262
X4.4695Y-3.9557
X4.4695Y-3.9852
X4.4803Y-2.1053
X4.4803Y-2.1348
X4.4803Y-2.1644
X4.4902Y-3.7402
X4.4961Y-3.5679
X4.4961Y-3.5974
X4.499Y-3.8967
X4.499Y-3.9262
X4.499Y-3.9557
X4.499Y-3.9852
X4.5098Y-2.1053
X4.5098Y-2.1348
X4.5098Y-2.1644
X4.5197Y-3.7402
X4.5197Y-3.7697
X4.5197Y-3.7992
X4.5256Y-3.5679
X4.5256Y-3.5974
X4.5285Y-3.8671
X4.5285Y-3.8967
X4.5285Y-3.9262
X4.5285Y-3.9557
X4.5285Y-3.9852
X4.5394Y-2.1053
X4.5394Y-2.1348
X4.5394Y-2.1644
X4.5551Y-3.5974
X4.5581Y-3.8671
X4.5581Y-3.8967
X4.562Y-4.0738
X4.5797Y-3.2077
X4.5797Y-3.2372
X4.5797Y-3.2667
X4.5797Y-3.2963
X4.5797Y-3.3258
X4.5797Y-3.3553
X4.5797Y-3.3848
X4.5797Y-3.4144
X4.5827Y-2.2874
X4.5827Y-2.3169
X4.5827Y-2.3465
X4.5827Y-2.376
X4.5827Y-2.4055
X4.5827Y-2.435
X4.5827Y-2.4646
X4.5827Y-2.4941
X4.5827Y-2.5236
X4.5876Y-3.8376
X4.5876Y-3.8671
X4.5876Y-4.0738
X4.5935Y-3.6427
X4.6073Y-2.1732
X4.6093Y-2.6909
X4.6093Y-2.7205
X4.6093Y-2.75
X4.6093Y-3.0896
X4.6093Y-3.1191
X4.6093Y-3.1486
X4.6093Y-3.1781
X4.6093Y-3.2077
X4.6093Y-3.2372
X4.6093Y-3.2667
X4.6093Y-3.2963
X4.6093Y-3.3258
X4.6093Y-3.3553
X4.6093Y-3.3848
X4.6093Y-3.4144
X4.6132Y-4.0738
X4.623Y-3.6427
X4.6289Y-3.8081
X4.6368Y-2.1732
X4.6388Y-2.7205
X4.6388Y-2.75
X4.6388Y-3.0896
X4.6388Y-3.1191
X4.6388Y-3.1486
X4.6388Y-3.1781
X4.6388Y-3.2077
X4.6388Y-3.2372
X4.6388Y-3.2667
X4.6388Y-3.2963
X4.6388Y-3.3258
X4.6388Y-3.3553
X4.6388Y-3.3848
X4.6388Y-3.4144
X4.6388Y-3.4439
X4.6388Y-3.4734
X4.6388Y-3.503
X4.6388Y-3.5325
X4.6526Y-3.6427
X4.6683Y-2.75
X4.6683Y-3.0896
X4.6683Y-3.1191
X4.6683Y-3.1486
X4.6683Y-3.1781
X4.6683Y-3.2077
X4.6683Y-3.2372
X4.6683Y-3.2667
X4.6683Y-3.2963
X4.6683Y-3.3258
X4.6683Y-3.3553
X4.6683Y-3.3848
X4.6683Y-3.4144
X4.6683Y-3.4439
X4.6683Y-3.4734
X4.6683Y-3.503
X4.6683Y-3.5325
X4.6821Y-3.6427
X4.7037Y-2.8848
X4.7037Y-2.9154
X4.707Y-3.1855
X4.7156Y-3.8376
X4.7165Y-2.749
X4.7348Y-3.1788
X4.7421Y-2.2028
X4.7431Y-3.8376
X4.747Y-3.6015
X4.7539Y-2.0965
X4.7618Y-3.3041
X4.7618Y-3.3337
X4.765Y-2.92
X4.765Y-2.97
X4.7697Y-3.1545
X4.7707Y-3.875
X4.7805Y-3.436
X4.7854Y-3.3917
X4.7904Y-3.688
X4.7904Y-3.7146
X4.7904Y-3.7411
X4.7904Y-3.7677
X4.7904Y-3.7943
X4.8022Y-3.5148
X4.8022Y-3.5856
X4.813Y-2.0965
X4.813Y-2.126
X4.813Y-2.1555
X4.813Y-2.185
X4.813Y-2.2146
X4.813Y-2.2441
X4.815Y-2.87
X4.815Y-2.92
X4.8169Y-3.688
X4.8169Y-3.7146
X4.8169Y-3.7411
X4.8169Y-3.7677
X4.8238Y-3.875
X4.8396Y-3.4232
X4.8425Y-2.0965
X4.8425Y-2.126
X4.8425Y-2.1555
X4.8425Y-2.185
X4.8425Y-2.2146
X4.8425Y-2.2441
X4.8425Y-3.4656
X4.8425Y-3.5148
X4.8435Y-3.688
X4.8435Y-3.7146
X4.8435Y-3.7411
X4.8435Y-3.7677
X4.8435Y-3.7943
X4.8494Y-3.0856
X4.8494Y-3.1152
X4.8494Y-3.1447
X4.8494Y-3.1742
X4.8494Y-3.253
X4.8494Y-3.2825
X4.8494Y-3.312
X4.8494Y-3.3415
X4.8632Y-3.875
X4.865Y-2.87
X4.8701Y-3.688
X4.8701Y-3.7146
X4.8701Y-3.7411
X4.8701Y-3.7677
X4.8711Y-2.7757
X4.8789Y-3.0856
X4.8789Y-3.1152
X4.8789Y-3.1447
X4.8789Y-3.1742
X4.8789Y-3.253
X4.8789Y-3.2825
X4.8789Y-3.312
X4.8789Y-3.3415
X4.8917Y-3.4656
X4.8917Y-3.5148
X4.8967Y-3.688
X4.8967Y-3.7146
X4.8967Y-3.7411
X4.8967Y-3.7677
X4.8967Y-3.7943
X4.9085Y-3.0856
X4.9085Y-3.1152
X4.9085Y-3.1447
X4.9085Y-3.1742
X4.9085Y-3.253
X4.9085Y-3.2825
X4.9085Y-3.312
X4.9085Y-3.3415
X4.9163Y-3.875
X4.9193Y-2.188
X4.9193Y-2.2864
X4.9193Y-2.3159
X4.9193Y-2.3455
X4.9193Y-2.375
X4.9193Y-2.4045
X4.9193Y-2.4341
X4.9193Y-2.4636
X4.9193Y-2.4931
X4.9193Y-2.5226
X4.938Y-3.0856
X4.938Y-3.1152
X4.938Y-3.1447
X4.938Y-3.1742
X4.938Y-3.253
X4.938Y-3.2825
X4.938Y-3.312
X4.938Y-3.3415
X4.9409Y-3.5148
X4.9439Y-3.8376
X4.9488Y-2.1732
X4.9715Y-3.8376
X4.9783Y-2.1732
X4.9921Y-1.998
X4.9921Y-2.0276
X4.9921Y-2.0571
X4.998Y-2.7795
X5.0167Y-3.0856
X5.0167Y-3.1447
X5.0167Y-3.1742
X5.0167Y-3.253
X5.0167Y-3.2825
X5.0167Y-3.312
X5.0167Y-3.3415
X5.0197Y-2.998
X5.0217Y-1.998
X5.0217Y-2.0276
X5.0217Y-2.0571
X5.0404Y-3.6516
X5.0463Y-3.0856
X5.0463Y-3.1447
X5.0463Y-3.1742
X5.0463Y-3.253
X5.0463Y-3.2825
X5.0463Y-3.312
X5.0463Y-3.3415
X5.0512Y-1.998
X5.0512Y-2.0276
X5.0512Y-2.0571
X5.0581Y-3.8081
X5.0699Y-3.6516
X5.0738Y-4.0738
X5.0758Y-3.0856
X5.0758Y-3.1447
X5.0758Y-3.1742
X5.0758Y-3.253
X5.0758Y-3.2825
X5.0758Y-3.312
X5.0758Y-3.3415
X5.0846Y-2.2028
X5.0994Y-3.6516
X5.0994Y-3.8376
X5.0994Y-3.8671
X5.0994Y-4.0738
X5.1014Y-2.0994
X5.1053Y-3.0856
X5.1053Y-3.1447
X5.1053Y-3.1742
X5.1053Y-3.253
X5.1053Y-3.2825
X5.1053Y-3.312
X5.1053Y-3.3415
X5.1181Y-2.7372
X5.125Y-4.0738
X5.1289Y-3.6516
X5.1407Y-3.8081
X5.1585Y-3.6516
X5.1624Y-3.3907
X5.1821Y-2.7904
X5.187Y-3.2825
X5.188Y-3.6516
X5.1998Y-3.5856
X5.2086Y-3.2234
X5.2195Y-2.3268
X5.2195Y-3.1378
X5.2274Y-3.8376
X5.2549Y-3.8376
X5.2559Y-3.3415
X5.2589Y-3.6014
X5.2687Y-2.376
X5.2825Y-3.875
X5.3022Y-3.688
X5.3022Y-3.7146
X5.3022Y-3.7411
X5.3022Y-3.7677
X5.3022Y-3.7943
X5.3051Y-3.3415
X5.314Y-3.5512
X5.314Y-3.5856
X5.3179Y-2.4252
X5.32Y-3.115
X5.32Y-3.195
X5.32Y-3.235
X5.3287Y-3.688
X5.3287Y-3.7146
X5.3287Y-3.7411
X5.3287Y-3.7677
X5.3356Y-2.747
X5.3356Y-3.875
X5.3553Y-3.688
X5.3553Y-3.7146
X5.3553Y-3.7411
X5.3553Y-3.7677
X5.3553Y-3.7943
X5.3652Y-2.7904
X5.3671Y-2.376
X5.375Y-2.6634
X5.375Y-3.875
X5.3819Y-3.688
X5.3819Y-3.7146
X5.3819Y-3.7411
X5.3819Y-3.7677
X5.3878Y-2.6348
X5.3927Y-2.0512
X5.3927Y-2.1693
X5.3937Y-2.4754
X5.4085Y-3.688
X5.4085Y-3.7146
X5.4085Y-3.7411
X5.4085Y-3.7677
X5.4085Y-3.7943
X5.4124Y-2.2785
X5.4124Y-3.5512
X5.42Y-3.115
X5.42Y-3.305
X5.4242Y-2.5837
X5.4242Y-2.7018
X5.4242Y-2.7904
X5.4281Y-3.875
X5.4557Y-3.8376
X5.4685Y-2.3268
X5.4833Y-2.7904
X5.4833Y-3.8376
X5.5177Y-2.376
X5.52Y-3.115
X5.52Y-3.305
X5.5522Y-3.6516
X5.56Y-3.5512
X5.5669Y-2.4252
X5.5699Y-3.8081
X5.57Y-3.35
X5.5817Y-3.6516
X5.5846Y-2.747
X5.5856Y-4.0738
X5.6112Y-3.6516
X5.6112Y-3.8376
X5.6112Y-3.8671
X5.6112Y-4.0738
X5.6161Y-2.7904
X5.62Y-3.115
X5.625Y-2.624
X5.6368Y-4.0738
X5.6407Y-3.6516
X5.6437Y-2.0512
X5.6437Y-2.1693
X5.6447Y-2.4754
X5.6526Y-3.8081
X5.6585Y-3.5512
X5.6634Y-2.2785
X5.6703Y-3.6516
X5.6752Y-2.5837
X5.6752Y-2.7018
X5.6752Y-2.7904
X5.6998Y-3.6516
X5.7116Y-3.5256
X5.7116Y-3.5856
X5.7116Y-3.5552
X5.7175Y-2.3268
X5.72Y-3.115
X5.72Y-3.315
X5.7343Y-2.7904
X5.7392Y-3.8376
X5.7667Y-2.376
X5.7667Y-3.8376
X5.7707Y-3.6014
X5.7943Y-3.875
X5.814Y-3.688
X5.814Y-3.7146
X5.814Y-3.7411
X5.814Y-3.7677
X5.814Y-3.7943
X5.8159Y-2.4252
X5.82Y-3.115
X5.82Y-3.315
X5.8258Y-3.4961
X5.8258Y-3.5256
X5.8258Y-3.5551
X5.8258Y-3.5856
X5.8337Y-2.747
X5.8406Y-3.688
X5.8406Y-3.7146
X5.8406Y-3.7411
X5.8406Y-3.7677
X5.8474Y-3.875
X5.8671Y-3.688
X5.8671Y-3.7146
X5.8671Y-3.7411
X5.8671Y-3.7677
X5.8671Y-3.7943
X5.8681Y-2.7904
X5.874Y-2.624
X5.8868Y-3.875
X5.8888Y-2.0522
X5.8888Y-2.1703
X5.8898Y-2.4764
X5.8927Y-3.3327
X5.8937Y-3.688
X5.8937Y-3.7146
X5.8937Y-3.7411
X5.8937Y-3.7677
X5.9085Y-2.2795
X5.92Y-3.125
X5.9203Y-2.5846
X5.9203Y-2.7028
X5.9203Y-3.688
X5.9203Y-3.7146
X5.9203Y-3.7411
X5.9203Y-3.7677
X5.9203Y-3.7943
X5.9272Y-2.7904
X5.9311Y-3.3327
X5.94Y-3.875
X5.9665Y-2.3268
X5.9675Y-3.8376
X5.9697Y-3.3327
X5.97Y-3.08
X5.9862Y-2.7904
X5.9951Y-3.8376
X6.0083Y-3.3327
X6.0157Y-2.376
X6.02Y-3.125
X6.0463Y-3.3327
X6.0502Y-3.4852
X6.064Y-3.6516
X6.065Y-2.4252
X6.07Y-3.08
X6.0797Y-3.3652
X6.0797Y-3.4852
X6.0817Y-3.8081
X6.0827Y-2.747
X6.0935Y-3.6516
X6.0974Y-4.0738
X6.1024Y-3.5541
X6.1093Y-3.3652
X6.1093Y-3.4852
X6.1142Y-2.7904
X6.12Y-3.125
X6.12Y-3.315
X6.123Y-2.624
X6.123Y-3.6516
X6.123Y-3.8376
X6.123Y-3.8671
X6.123Y-4.0738
X6.1388Y-2.0522
X6.1388Y-2.1703
X6.1398Y-2.4764
X6.1486Y-4.0738
X6.1526Y-3.6516
X6.1585Y-2.2795
X6.1644Y-3.8081
X6.1703Y-2.5846
X6.1703Y-2.7028
X6.1732Y-2.7904
X6.1811Y-3.5541
X6.1821Y-3.6516
X6.2116Y-3.6516
X6.2156Y-2.3268
X6.2195Y-3.0187
X6.22Y-3.115
X6.22Y-3.315
X6.2234Y-3.5847
X6.2323Y-2.7904
X6.251Y-3.8376
X6.2648Y-2.376
X6.2785Y-3.8376
X6.2825Y-3.6014
X6.3061Y-3.875
X6.31Y-3.45
X6.314Y-2.4252
X6.3179Y-3.5256
X6.32Y-3.315
X6.3258Y-3.688
X6.3258Y-3.7146
X6.3258Y-3.7411
X6.3258Y-3.7677
X6.3258Y-3.7943
X6.3317Y-2.747
X6.3514Y-3.5098
X6.3524Y-3.688
X6.3524Y-3.7146
X6.3524Y-3.7411
X6.3524Y-3.7677
X6.3593Y-3.875
X6.3691Y-2.7894
X6.372Y-2.624
X6.3789Y-3.688
X6.3789Y-3.7146
X6.3789Y-3.7411
X6.3789Y-3.7677
X6.3789Y-3.7943
X6.3878Y-2.0522
X6.3878Y-2.1703
X6.3888Y-2.4764
X6.3986Y-3.875
X6.4055Y-3.688
X6.4055Y-3.7146
X6.4055Y-3.7411
X6.4055Y-3.7677
X6.4075Y-2.2795
X6.4085Y-3.1762
X6.4193Y-2.5846
X6.4193Y-2.7028
X6.4291Y-2.7894
X6.4321Y-3.688
X6.4321Y-3.7146
X6.4321Y-3.7411
X6.4321Y-3.7677
X6.4321Y-3.7943
X6.437Y-3.064
X6.4518Y-3.875
X6.4577Y-3.2254
X6.4646Y-2.3268
X6.4695Y-3.4793
X6.4793Y-3.8376
X6.4872Y-2.7894
X6.4872Y-3.3898
X6.5069Y-3.8376
X6.5108Y-2.9508
X6.5108Y-3.0522
X6.5138Y-2.376
X6.5256Y-3.1132
X6.5335Y-3.2233
X6.5335Y-3.2825
X6.5335Y-3.4498
X6.5335Y-3.5089
X6.5453Y-2.9075
X6.563Y-2.4252
X6.564Y-3.6348
X6.5807Y-2.747
X6.5866Y-3.0246
X6.5935Y-3.8081
X6.6211Y-2.624
X6.623Y-3.6348
X6.6309Y-3.8396
X6.6329Y-2.0522
X6.6329Y-2.1703
X6.6339Y-2.4764
X6.6447Y-3.0246
X6.6526Y-2.2795
X6.6634Y-2.7894
X6.6634Y-2.9075
X6.6644Y-2.5846
X6.6644Y-2.7028
X6.6673Y-3.3209
X6.6673Y-3.3661
X6.6673Y-3.4114
X6.6752Y-3.7264
X6.6752Y-3.7904
X6.6831Y-3.1526
X6.6978Y-3.6319
X6.6998Y-2.9291
X6.7028Y-3.5866
X6.7333Y-3.1526
X6.7618Y-3.5866
X6.7854Y-3.3209
X6.7854Y-3.3661
X6.7854Y-3.4114
X6.8209Y-3.5866
X6.8484Y-3.2136
T3
X6.17Y-3.265
X5.67Y-3.265
X5.37Y-3.265
X5.67Y-3.165
X6.27Y-3.165
X5.77Y-3.265
X5.47Y-3.265
X6.07Y-3.265
X5.87Y-3.165
X4.775Y-2.61
X5.57Y-3.165
X4.875Y-2.61
X5.87Y-3.265
X5.27Y-3.165
X5.47Y-3.165
X5.97Y-3.165
X6.07Y-3.165
X6.27Y-3.265
X4.675Y-2.61
X6.17Y-3.165
X4.975Y-2.61
X5.57Y-3.265
X5.27Y-3.265
X5.37Y-3.165
X5.77Y-3.165
X5.97Y-3.265
T4
X5.7874Y-2.4856
X5.7874Y-2.5856
X5.7874Y-2.6856
X5.9951Y-2.0663
X5.9951Y-2.1663
X5.9951Y-2.2663
X6.5344Y-2.4856
X6.5344Y-2.5856
X6.5344Y-2.6856
X5.7461Y-2.0663
X5.7461Y-2.1663
X5.7461Y-2.2663
X6.7933Y-3.6764
X6.7933Y-3.7764
X6.7933Y-2.9579
X6.7933Y-3.0579
X5.2053Y-4.0364
X5.3053Y-4.0364
X5.4053Y-4.0364
X5.5053Y-4.0364
X6.2289Y-4.0364
X6.3289Y-4.0364
X6.4289Y-4.0364
X6.5289Y-4.0364
X6.4931Y-2.0663
X6.4931Y-2.1663
X6.4931Y-2.2663
X6.7933Y-2.6429
X6.7933Y-2.7429
X6.0364Y-2.4856
X6.0364Y-2.5856
X6.0364Y-2.6856
X5.497Y-2.0663
X5.497Y-2.1663
X5.497Y-2.2663
X6.2854Y-2.4856
X6.2854Y-2.5856
X6.2854Y-2.6856
X6.2441Y-2.0663
X6.2441Y-2.1663
X6.2441Y-2.2663
X4.6935Y-4.0364
X4.7935Y-4.0364
X4.8935Y-4.0364
X4.9935Y-4.0364
X5.2894Y-2.4856
X5.2894Y-2.5856
X5.2894Y-2.6856
X5.248Y-2.0663
X5.248Y-2.1663
X5.248Y-2.2663
X5.7171Y-4.0364
X5.8171Y-4.0364
X5.9171Y-4.0364
X6.0171Y-4.0364
X5.5384Y-2.4856
X5.5384Y-2.5856
X5.5384Y-2.6856
X6.7933Y-2.328
X6.7933Y-2.428
T5
X4.26Y-3.425
X4.26Y-3.675
X4.26Y-2.425
X4.26Y-2.675
X4.26Y-2.925
X4.26Y-3.175
T6
X4.0748Y-3.9961
X4.0748Y-2.1063
X6.752Y-2.1063
X6.752Y-3.9961
T2
G00X6.5992Y-3.1961
M15
G01X6.6425Y-3.1961
M16
G05
G00X6.5992Y-3.5362
M15
G01X6.6425Y-3.5362
M16
G05
G00X6.7736Y-3.198
M15
G01X6.7972Y-3.198
M16
G05
G00X6.7736Y-3.5343
M15
G01X6.7972Y-3.5343
M16
G05
T0
M30
