G04 #@! TF.GenerationSoftware,KiCad,Pcbnew,(5.1.5)-3*
G04 #@! TF.CreationDate,2020-02-15T22:09:12+01:00*
G04 #@! TF.ProjectId,c3dpb,63336470-622e-46b6-9963-61645f706362,rev?*
G04 #@! TF.SameCoordinates,Original*
G04 #@! TF.FileFunction,Soldermask,Bot*
G04 #@! TF.FilePolarity,Negative*
%FSLAX46Y46*%
G04 Gerber Fmt 4.6, Leading zero omitted, Abs format (unit mm)*
G04 Created by KiCad (PCBNEW (5.1.5)-3) date 2020-02-15 22:09:12*
%MOMM*%
%LPD*%
G04 APERTURE LIST*
%ADD10C,0.100000*%
G04 APERTURE END LIST*
D10*
G36*
X171150000Y-81700000D02*
G01*
X169625000Y-81700000D01*
X169625000Y-80700000D01*
X171150000Y-80700000D01*
X171150000Y-81700000D01*
G37*
G36*
X156825000Y-104525000D02*
G01*
X154225000Y-104525000D01*
X154225000Y-103625000D01*
X156825000Y-103625000D01*
X156825000Y-104525000D01*
G37*
G36*
X143825000Y-104525000D02*
G01*
X141225000Y-104525000D01*
X141225000Y-103625000D01*
X143825000Y-103625000D01*
X143825000Y-104525000D01*
G37*
G36*
X130825000Y-104525000D02*
G01*
X128225000Y-104525000D01*
X128225000Y-103625000D01*
X130825000Y-103625000D01*
X130825000Y-104525000D01*
G37*
G36*
X117825000Y-104475000D02*
G01*
X115225000Y-104475000D01*
X115225000Y-103575000D01*
X117825000Y-103575000D01*
X117825000Y-104475000D01*
G37*
G36*
X172022218Y-98800000D02*
G01*
X172302146Y-98855681D01*
X172802616Y-99062982D01*
X173253023Y-99363935D01*
X173636065Y-99746977D01*
X173937018Y-100197384D01*
X174144319Y-100697854D01*
X174144319Y-100697855D01*
X174250000Y-101229149D01*
X174250000Y-101770851D01*
X174197160Y-102036498D01*
X174144319Y-102302146D01*
X173937018Y-102802616D01*
X173636065Y-103253023D01*
X173253023Y-103636065D01*
X172802616Y-103937018D01*
X172302146Y-104144319D01*
X172036498Y-104197159D01*
X171770851Y-104250000D01*
X171229149Y-104250000D01*
X170963502Y-104197160D01*
X170697854Y-104144319D01*
X170197384Y-103937018D01*
X169746977Y-103636065D01*
X169363935Y-103253023D01*
X169062982Y-102802616D01*
X168855681Y-102302146D01*
X168802840Y-102036498D01*
X168750000Y-101770851D01*
X168750000Y-101229149D01*
X168855681Y-100697855D01*
X168855681Y-100697854D01*
X169062982Y-100197384D01*
X169363935Y-99746977D01*
X169746977Y-99363935D01*
X170197384Y-99062982D01*
X170697854Y-98855681D01*
X170977782Y-98800000D01*
X171229149Y-98750000D01*
X171770851Y-98750000D01*
X172022218Y-98800000D01*
G37*
G36*
X104022218Y-98800000D02*
G01*
X104302146Y-98855681D01*
X104802616Y-99062982D01*
X105253023Y-99363935D01*
X105636065Y-99746977D01*
X105937018Y-100197384D01*
X106144319Y-100697854D01*
X106144319Y-100697855D01*
X106250000Y-101229149D01*
X106250000Y-101770851D01*
X106197159Y-102036498D01*
X106144319Y-102302146D01*
X105937018Y-102802616D01*
X105636065Y-103253023D01*
X105253023Y-103636065D01*
X104802616Y-103937018D01*
X104302146Y-104144319D01*
X104036498Y-104197159D01*
X103770851Y-104250000D01*
X103229149Y-104250000D01*
X102963502Y-104197160D01*
X102697854Y-104144319D01*
X102197384Y-103937018D01*
X101746977Y-103636065D01*
X101363935Y-103253023D01*
X101062982Y-102802616D01*
X100855681Y-102302146D01*
X100802841Y-102036498D01*
X100750000Y-101770851D01*
X100750000Y-101229149D01*
X100855681Y-100697855D01*
X100855681Y-100697854D01*
X101062982Y-100197384D01*
X101363935Y-99746977D01*
X101746977Y-99363935D01*
X102197384Y-99062982D01*
X102697854Y-98855681D01*
X102977782Y-98800000D01*
X103229149Y-98750000D01*
X103770851Y-98750000D01*
X104022218Y-98800000D01*
G37*
G36*
X166001629Y-101287300D02*
G01*
X166161855Y-101335903D01*
X166309519Y-101414832D01*
X166438948Y-101521052D01*
X166545168Y-101650481D01*
X166624097Y-101798145D01*
X166672700Y-101958371D01*
X166685000Y-102083251D01*
X166685000Y-102966749D01*
X166672700Y-103091629D01*
X166624097Y-103251855D01*
X166545168Y-103399519D01*
X166438948Y-103528948D01*
X166309517Y-103635169D01*
X166229774Y-103677793D01*
X166161854Y-103714097D01*
X166001628Y-103762700D01*
X165835000Y-103779112D01*
X165668371Y-103762700D01*
X165508145Y-103714097D01*
X165360481Y-103635168D01*
X165231052Y-103528948D01*
X165124832Y-103399518D01*
X165045903Y-103251854D01*
X164997300Y-103091628D01*
X164985000Y-102966748D01*
X164985000Y-102083251D01*
X164997301Y-101958371D01*
X165045904Y-101798145D01*
X165124833Y-101650481D01*
X165231053Y-101521052D01*
X165360482Y-101414832D01*
X165508146Y-101335903D01*
X165668372Y-101287300D01*
X165835000Y-101270888D01*
X166001629Y-101287300D01*
G37*
G36*
X153001629Y-101287300D02*
G01*
X153161855Y-101335903D01*
X153309519Y-101414832D01*
X153438948Y-101521052D01*
X153545168Y-101650481D01*
X153624097Y-101798145D01*
X153672700Y-101958371D01*
X153685000Y-102083251D01*
X153685000Y-102966749D01*
X153672700Y-103091629D01*
X153624097Y-103251855D01*
X153545168Y-103399519D01*
X153438948Y-103528948D01*
X153309517Y-103635169D01*
X153229774Y-103677793D01*
X153161854Y-103714097D01*
X153001628Y-103762700D01*
X152835000Y-103779112D01*
X152668371Y-103762700D01*
X152508145Y-103714097D01*
X152360481Y-103635168D01*
X152231052Y-103528948D01*
X152124832Y-103399518D01*
X152045903Y-103251854D01*
X151997300Y-103091628D01*
X151985000Y-102966748D01*
X151985000Y-102083251D01*
X151997301Y-101958371D01*
X152045904Y-101798145D01*
X152124833Y-101650481D01*
X152231053Y-101521052D01*
X152360482Y-101414832D01*
X152508146Y-101335903D01*
X152668372Y-101287300D01*
X152835000Y-101270888D01*
X153001629Y-101287300D01*
G37*
G36*
X150461629Y-101287300D02*
G01*
X150621855Y-101335903D01*
X150769519Y-101414832D01*
X150898948Y-101521052D01*
X151005168Y-101650481D01*
X151084097Y-101798145D01*
X151132700Y-101958371D01*
X151145000Y-102083251D01*
X151145000Y-102966749D01*
X151132700Y-103091629D01*
X151084097Y-103251855D01*
X151005168Y-103399519D01*
X150898948Y-103528948D01*
X150769517Y-103635169D01*
X150689774Y-103677793D01*
X150621854Y-103714097D01*
X150461628Y-103762700D01*
X150295000Y-103779112D01*
X150128371Y-103762700D01*
X149968145Y-103714097D01*
X149820481Y-103635168D01*
X149691052Y-103528948D01*
X149584832Y-103399518D01*
X149505903Y-103251854D01*
X149457300Y-103091628D01*
X149445000Y-102966748D01*
X149445000Y-102083251D01*
X149457301Y-101958371D01*
X149505904Y-101798145D01*
X149584833Y-101650481D01*
X149691053Y-101521052D01*
X149820482Y-101414832D01*
X149968146Y-101335903D01*
X150128372Y-101287300D01*
X150295000Y-101270888D01*
X150461629Y-101287300D01*
G37*
G36*
X147921629Y-101287300D02*
G01*
X148081855Y-101335903D01*
X148229519Y-101414832D01*
X148358948Y-101521052D01*
X148465168Y-101650481D01*
X148544097Y-101798145D01*
X148592700Y-101958371D01*
X148605000Y-102083251D01*
X148605000Y-102966749D01*
X148592700Y-103091629D01*
X148544097Y-103251855D01*
X148465168Y-103399519D01*
X148358948Y-103528948D01*
X148229517Y-103635169D01*
X148149774Y-103677793D01*
X148081854Y-103714097D01*
X147921628Y-103762700D01*
X147755000Y-103779112D01*
X147588371Y-103762700D01*
X147428145Y-103714097D01*
X147280481Y-103635168D01*
X147151052Y-103528948D01*
X147044832Y-103399518D01*
X146965903Y-103251854D01*
X146917300Y-103091628D01*
X146905000Y-102966748D01*
X146905000Y-102083251D01*
X146917301Y-101958371D01*
X146965904Y-101798145D01*
X147044833Y-101650481D01*
X147151053Y-101521052D01*
X147280482Y-101414832D01*
X147428146Y-101335903D01*
X147588372Y-101287300D01*
X147755000Y-101270888D01*
X147921629Y-101287300D01*
G37*
G36*
X145381629Y-101287300D02*
G01*
X145541855Y-101335903D01*
X145689519Y-101414832D01*
X145818948Y-101521052D01*
X145925168Y-101650481D01*
X146004097Y-101798145D01*
X146052700Y-101958371D01*
X146065000Y-102083251D01*
X146065000Y-102966749D01*
X146052700Y-103091629D01*
X146004097Y-103251855D01*
X145925168Y-103399519D01*
X145818948Y-103528948D01*
X145689517Y-103635169D01*
X145609774Y-103677793D01*
X145541854Y-103714097D01*
X145381628Y-103762700D01*
X145215000Y-103779112D01*
X145048371Y-103762700D01*
X144888145Y-103714097D01*
X144740481Y-103635168D01*
X144611052Y-103528948D01*
X144504832Y-103399518D01*
X144425903Y-103251854D01*
X144377300Y-103091628D01*
X144365000Y-102966748D01*
X144365000Y-102083251D01*
X144377301Y-101958371D01*
X144425904Y-101798145D01*
X144504833Y-101650481D01*
X144611053Y-101521052D01*
X144740482Y-101414832D01*
X144888146Y-101335903D01*
X145048372Y-101287300D01*
X145215000Y-101270888D01*
X145381629Y-101287300D01*
G37*
G36*
X140001629Y-101287300D02*
G01*
X140161855Y-101335903D01*
X140309519Y-101414832D01*
X140438948Y-101521052D01*
X140545168Y-101650481D01*
X140624097Y-101798145D01*
X140672700Y-101958371D01*
X140685000Y-102083251D01*
X140685000Y-102966749D01*
X140672700Y-103091629D01*
X140624097Y-103251855D01*
X140545168Y-103399519D01*
X140438948Y-103528948D01*
X140309517Y-103635169D01*
X140229774Y-103677793D01*
X140161854Y-103714097D01*
X140001628Y-103762700D01*
X139835000Y-103779112D01*
X139668371Y-103762700D01*
X139508145Y-103714097D01*
X139360481Y-103635168D01*
X139231052Y-103528948D01*
X139124832Y-103399518D01*
X139045903Y-103251854D01*
X138997300Y-103091628D01*
X138985000Y-102966748D01*
X138985000Y-102083251D01*
X138997301Y-101958371D01*
X139045904Y-101798145D01*
X139124833Y-101650481D01*
X139231053Y-101521052D01*
X139360482Y-101414832D01*
X139508146Y-101335903D01*
X139668372Y-101287300D01*
X139835000Y-101270888D01*
X140001629Y-101287300D01*
G37*
G36*
X137461629Y-101287300D02*
G01*
X137621855Y-101335903D01*
X137769519Y-101414832D01*
X137898948Y-101521052D01*
X138005168Y-101650481D01*
X138084097Y-101798145D01*
X138132700Y-101958371D01*
X138145000Y-102083251D01*
X138145000Y-102966749D01*
X138132700Y-103091629D01*
X138084097Y-103251855D01*
X138005168Y-103399519D01*
X137898948Y-103528948D01*
X137769517Y-103635169D01*
X137689774Y-103677793D01*
X137621854Y-103714097D01*
X137461628Y-103762700D01*
X137295000Y-103779112D01*
X137128371Y-103762700D01*
X136968145Y-103714097D01*
X136820481Y-103635168D01*
X136691052Y-103528948D01*
X136584832Y-103399518D01*
X136505903Y-103251854D01*
X136457300Y-103091628D01*
X136445000Y-102966748D01*
X136445000Y-102083251D01*
X136457301Y-101958371D01*
X136505904Y-101798145D01*
X136584833Y-101650481D01*
X136691053Y-101521052D01*
X136820482Y-101414832D01*
X136968146Y-101335903D01*
X137128372Y-101287300D01*
X137295000Y-101270888D01*
X137461629Y-101287300D01*
G37*
G36*
X134921629Y-101287300D02*
G01*
X135081855Y-101335903D01*
X135229519Y-101414832D01*
X135358948Y-101521052D01*
X135465168Y-101650481D01*
X135544097Y-101798145D01*
X135592700Y-101958371D01*
X135605000Y-102083251D01*
X135605000Y-102966749D01*
X135592700Y-103091629D01*
X135544097Y-103251855D01*
X135465168Y-103399519D01*
X135358948Y-103528948D01*
X135229517Y-103635169D01*
X135149774Y-103677793D01*
X135081854Y-103714097D01*
X134921628Y-103762700D01*
X134755000Y-103779112D01*
X134588371Y-103762700D01*
X134428145Y-103714097D01*
X134280481Y-103635168D01*
X134151052Y-103528948D01*
X134044832Y-103399518D01*
X133965903Y-103251854D01*
X133917300Y-103091628D01*
X133905000Y-102966748D01*
X133905000Y-102083251D01*
X133917301Y-101958371D01*
X133965904Y-101798145D01*
X134044833Y-101650481D01*
X134151053Y-101521052D01*
X134280482Y-101414832D01*
X134428146Y-101335903D01*
X134588372Y-101287300D01*
X134755000Y-101270888D01*
X134921629Y-101287300D01*
G37*
G36*
X132381629Y-101287300D02*
G01*
X132541855Y-101335903D01*
X132689519Y-101414832D01*
X132818948Y-101521052D01*
X132925168Y-101650481D01*
X133004097Y-101798145D01*
X133052700Y-101958371D01*
X133065000Y-102083251D01*
X133065000Y-102966749D01*
X133052700Y-103091629D01*
X133004097Y-103251855D01*
X132925168Y-103399519D01*
X132818948Y-103528948D01*
X132689517Y-103635169D01*
X132609774Y-103677793D01*
X132541854Y-103714097D01*
X132381628Y-103762700D01*
X132215000Y-103779112D01*
X132048371Y-103762700D01*
X131888145Y-103714097D01*
X131740481Y-103635168D01*
X131611052Y-103528948D01*
X131504832Y-103399518D01*
X131425903Y-103251854D01*
X131377300Y-103091628D01*
X131365000Y-102966748D01*
X131365000Y-102083251D01*
X131377301Y-101958371D01*
X131425904Y-101798145D01*
X131504833Y-101650481D01*
X131611053Y-101521052D01*
X131740482Y-101414832D01*
X131888146Y-101335903D01*
X132048372Y-101287300D01*
X132215000Y-101270888D01*
X132381629Y-101287300D01*
G37*
G36*
X127001629Y-101287300D02*
G01*
X127161855Y-101335903D01*
X127309519Y-101414832D01*
X127438948Y-101521052D01*
X127545168Y-101650481D01*
X127624097Y-101798145D01*
X127672700Y-101958371D01*
X127685000Y-102083251D01*
X127685000Y-102966749D01*
X127672700Y-103091629D01*
X127624097Y-103251855D01*
X127545168Y-103399519D01*
X127438948Y-103528948D01*
X127309517Y-103635169D01*
X127229774Y-103677793D01*
X127161854Y-103714097D01*
X127001628Y-103762700D01*
X126835000Y-103779112D01*
X126668371Y-103762700D01*
X126508145Y-103714097D01*
X126360481Y-103635168D01*
X126231052Y-103528948D01*
X126124832Y-103399518D01*
X126045903Y-103251854D01*
X125997300Y-103091628D01*
X125985000Y-102966748D01*
X125985000Y-102083251D01*
X125997301Y-101958371D01*
X126045904Y-101798145D01*
X126124833Y-101650481D01*
X126231053Y-101521052D01*
X126360482Y-101414832D01*
X126508146Y-101335903D01*
X126668372Y-101287300D01*
X126835000Y-101270888D01*
X127001629Y-101287300D01*
G37*
G36*
X121921629Y-101287300D02*
G01*
X122081855Y-101335903D01*
X122229519Y-101414832D01*
X122358948Y-101521052D01*
X122465168Y-101650481D01*
X122544097Y-101798145D01*
X122592700Y-101958371D01*
X122605000Y-102083251D01*
X122605000Y-102966749D01*
X122592700Y-103091629D01*
X122544097Y-103251855D01*
X122465168Y-103399519D01*
X122358948Y-103528948D01*
X122229517Y-103635169D01*
X122149774Y-103677793D01*
X122081854Y-103714097D01*
X121921628Y-103762700D01*
X121755000Y-103779112D01*
X121588371Y-103762700D01*
X121428145Y-103714097D01*
X121280481Y-103635168D01*
X121151052Y-103528948D01*
X121044832Y-103399518D01*
X120965903Y-103251854D01*
X120917300Y-103091628D01*
X120905000Y-102966748D01*
X120905000Y-102083251D01*
X120917301Y-101958371D01*
X120965904Y-101798145D01*
X121044833Y-101650481D01*
X121151053Y-101521052D01*
X121280482Y-101414832D01*
X121428146Y-101335903D01*
X121588372Y-101287300D01*
X121755000Y-101270888D01*
X121921629Y-101287300D01*
G37*
G36*
X119381629Y-101287300D02*
G01*
X119541855Y-101335903D01*
X119689519Y-101414832D01*
X119818948Y-101521052D01*
X119925168Y-101650481D01*
X120004097Y-101798145D01*
X120052700Y-101958371D01*
X120065000Y-102083251D01*
X120065000Y-102966749D01*
X120052700Y-103091629D01*
X120004097Y-103251855D01*
X119925168Y-103399519D01*
X119818948Y-103528948D01*
X119689517Y-103635169D01*
X119609774Y-103677793D01*
X119541854Y-103714097D01*
X119381628Y-103762700D01*
X119215000Y-103779112D01*
X119048371Y-103762700D01*
X118888145Y-103714097D01*
X118740481Y-103635168D01*
X118611052Y-103528948D01*
X118504832Y-103399518D01*
X118425903Y-103251854D01*
X118377300Y-103091628D01*
X118365000Y-102966748D01*
X118365000Y-102083251D01*
X118377301Y-101958371D01*
X118425904Y-101798145D01*
X118504833Y-101650481D01*
X118611053Y-101521052D01*
X118740482Y-101414832D01*
X118888146Y-101335903D01*
X119048372Y-101287300D01*
X119215000Y-101270888D01*
X119381629Y-101287300D01*
G37*
G36*
X158381629Y-101287300D02*
G01*
X158541855Y-101335903D01*
X158689519Y-101414832D01*
X158818948Y-101521052D01*
X158925168Y-101650481D01*
X159004097Y-101798145D01*
X159052700Y-101958371D01*
X159065000Y-102083251D01*
X159065000Y-102966749D01*
X159052700Y-103091629D01*
X159004097Y-103251855D01*
X158925168Y-103399519D01*
X158818948Y-103528948D01*
X158689517Y-103635169D01*
X158609774Y-103677793D01*
X158541854Y-103714097D01*
X158381628Y-103762700D01*
X158215000Y-103779112D01*
X158048371Y-103762700D01*
X157888145Y-103714097D01*
X157740481Y-103635168D01*
X157611052Y-103528948D01*
X157504832Y-103399518D01*
X157425903Y-103251854D01*
X157377300Y-103091628D01*
X157365000Y-102966748D01*
X157365000Y-102083251D01*
X157377301Y-101958371D01*
X157425904Y-101798145D01*
X157504833Y-101650481D01*
X157611053Y-101521052D01*
X157740482Y-101414832D01*
X157888146Y-101335903D01*
X158048372Y-101287300D01*
X158215000Y-101270888D01*
X158381629Y-101287300D01*
G37*
G36*
X160921629Y-101287300D02*
G01*
X161081855Y-101335903D01*
X161229519Y-101414832D01*
X161358948Y-101521052D01*
X161465168Y-101650481D01*
X161544097Y-101798145D01*
X161592700Y-101958371D01*
X161605000Y-102083251D01*
X161605000Y-102966749D01*
X161592700Y-103091629D01*
X161544097Y-103251855D01*
X161465168Y-103399519D01*
X161358948Y-103528948D01*
X161229517Y-103635169D01*
X161149774Y-103677793D01*
X161081854Y-103714097D01*
X160921628Y-103762700D01*
X160755000Y-103779112D01*
X160588371Y-103762700D01*
X160428145Y-103714097D01*
X160280481Y-103635168D01*
X160151052Y-103528948D01*
X160044832Y-103399518D01*
X159965903Y-103251854D01*
X159917300Y-103091628D01*
X159905000Y-102966748D01*
X159905000Y-102083251D01*
X159917301Y-101958371D01*
X159965904Y-101798145D01*
X160044833Y-101650481D01*
X160151053Y-101521052D01*
X160280482Y-101414832D01*
X160428146Y-101335903D01*
X160588372Y-101287300D01*
X160755000Y-101270888D01*
X160921629Y-101287300D01*
G37*
G36*
X163461629Y-101287300D02*
G01*
X163621855Y-101335903D01*
X163769519Y-101414832D01*
X163898948Y-101521052D01*
X164005168Y-101650481D01*
X164084097Y-101798145D01*
X164132700Y-101958371D01*
X164145000Y-102083251D01*
X164145000Y-102966749D01*
X164132700Y-103091629D01*
X164084097Y-103251855D01*
X164005168Y-103399519D01*
X163898948Y-103528948D01*
X163769517Y-103635169D01*
X163689774Y-103677793D01*
X163621854Y-103714097D01*
X163461628Y-103762700D01*
X163295000Y-103779112D01*
X163128371Y-103762700D01*
X162968145Y-103714097D01*
X162820481Y-103635168D01*
X162691052Y-103528948D01*
X162584832Y-103399518D01*
X162505903Y-103251854D01*
X162457300Y-103091628D01*
X162445000Y-102966748D01*
X162445000Y-102083251D01*
X162457301Y-101958371D01*
X162505904Y-101798145D01*
X162584833Y-101650481D01*
X162691053Y-101521052D01*
X162820482Y-101414832D01*
X162968146Y-101335903D01*
X163128372Y-101287300D01*
X163295000Y-101270888D01*
X163461629Y-101287300D01*
G37*
G36*
X124461629Y-101287300D02*
G01*
X124621855Y-101335903D01*
X124769519Y-101414832D01*
X124898948Y-101521052D01*
X125005168Y-101650481D01*
X125084097Y-101798145D01*
X125132700Y-101958371D01*
X125145000Y-102083251D01*
X125145000Y-102966749D01*
X125132700Y-103091629D01*
X125084097Y-103251855D01*
X125005168Y-103399519D01*
X124898948Y-103528948D01*
X124769517Y-103635169D01*
X124689774Y-103677793D01*
X124621854Y-103714097D01*
X124461628Y-103762700D01*
X124295000Y-103779112D01*
X124128371Y-103762700D01*
X123968145Y-103714097D01*
X123820481Y-103635168D01*
X123691052Y-103528948D01*
X123584832Y-103399518D01*
X123505903Y-103251854D01*
X123457300Y-103091628D01*
X123445000Y-102966748D01*
X123445000Y-102083251D01*
X123457301Y-101958371D01*
X123505904Y-101798145D01*
X123584833Y-101650481D01*
X123691053Y-101521052D01*
X123820482Y-101414832D01*
X123968146Y-101335903D01*
X124128372Y-101287300D01*
X124295000Y-101270888D01*
X124461629Y-101287300D01*
G37*
G36*
X102950000Y-59150000D02*
G01*
X102950000Y-63845001D01*
X102951441Y-63859633D01*
X102955709Y-63873702D01*
X102962640Y-63886668D01*
X102971967Y-63898033D01*
X102983332Y-63907360D01*
X102996298Y-63914291D01*
X103010367Y-63918559D01*
X103024999Y-63920000D01*
X103777000Y-63920000D01*
X103777000Y-65620000D01*
X103024999Y-65620000D01*
X103010367Y-65621441D01*
X102996298Y-65625709D01*
X102983332Y-65632640D01*
X102971967Y-65641967D01*
X102962640Y-65653332D01*
X102955709Y-65666298D01*
X102951441Y-65680367D01*
X102950000Y-65694999D01*
X102950000Y-76545001D01*
X102951441Y-76559633D01*
X102955709Y-76573702D01*
X102962640Y-76586668D01*
X102971967Y-76598033D01*
X102983332Y-76607360D01*
X102996298Y-76614291D01*
X103010367Y-76618559D01*
X103024999Y-76620000D01*
X103777000Y-76620000D01*
X103777000Y-78320000D01*
X103024999Y-78320000D01*
X103010367Y-78321441D01*
X102996298Y-78325709D01*
X102983332Y-78332640D01*
X102971967Y-78341967D01*
X102962640Y-78353332D01*
X102955709Y-78366298D01*
X102951441Y-78380367D01*
X102950000Y-78394999D01*
X102950000Y-92843935D01*
X102951441Y-92858567D01*
X102955709Y-92872636D01*
X102962640Y-92885602D01*
X102971967Y-92896967D01*
X109103033Y-99028033D01*
X109114398Y-99037360D01*
X109127364Y-99044291D01*
X109141433Y-99048559D01*
X109156065Y-99050000D01*
X116650001Y-99050000D01*
X116664633Y-99048559D01*
X116678702Y-99044291D01*
X116691668Y-99037360D01*
X116703033Y-99028033D01*
X116712360Y-99016668D01*
X116719291Y-99003702D01*
X116723559Y-98989633D01*
X116725000Y-98975001D01*
X116725000Y-98025000D01*
X119325000Y-98025000D01*
X119325000Y-98975001D01*
X119326441Y-98989633D01*
X119330709Y-99003702D01*
X119337640Y-99016668D01*
X119346967Y-99028033D01*
X119358332Y-99037360D01*
X119371298Y-99044291D01*
X119385367Y-99048559D01*
X119399999Y-99050000D01*
X126650001Y-99050000D01*
X126664633Y-99048559D01*
X126678702Y-99044291D01*
X126691668Y-99037360D01*
X126703033Y-99028033D01*
X126712360Y-99016668D01*
X126719291Y-99003702D01*
X126723559Y-98989633D01*
X126725000Y-98975001D01*
X126725000Y-98025000D01*
X129325000Y-98025000D01*
X129325000Y-98975001D01*
X129326441Y-98989633D01*
X129330709Y-99003702D01*
X129337640Y-99016668D01*
X129346967Y-99028033D01*
X129358332Y-99037360D01*
X129371298Y-99044291D01*
X129385367Y-99048559D01*
X129399999Y-99050000D01*
X129650001Y-99050000D01*
X129664633Y-99048559D01*
X129678702Y-99044291D01*
X129691668Y-99037360D01*
X129703033Y-99028033D01*
X129712360Y-99016668D01*
X129719291Y-99003702D01*
X129723559Y-98989633D01*
X129725000Y-98975001D01*
X129725000Y-98025000D01*
X132325000Y-98025000D01*
X132325000Y-98975001D01*
X132326441Y-98989633D01*
X132330709Y-99003702D01*
X132337640Y-99016668D01*
X132346967Y-99028033D01*
X132358332Y-99037360D01*
X132371298Y-99044291D01*
X132385367Y-99048559D01*
X132399999Y-99050000D01*
X139650001Y-99050000D01*
X139664633Y-99048559D01*
X139678702Y-99044291D01*
X139691668Y-99037360D01*
X139703033Y-99028033D01*
X139712360Y-99016668D01*
X139719291Y-99003702D01*
X139723559Y-98989633D01*
X139725000Y-98975001D01*
X139725000Y-98025000D01*
X142325000Y-98025000D01*
X142325000Y-98975001D01*
X142326441Y-98989633D01*
X142330709Y-99003702D01*
X142337640Y-99016668D01*
X142346967Y-99028033D01*
X142358332Y-99037360D01*
X142371298Y-99044291D01*
X142385367Y-99048559D01*
X142399999Y-99050000D01*
X142650001Y-99050000D01*
X142664633Y-99048559D01*
X142678702Y-99044291D01*
X142691668Y-99037360D01*
X142703033Y-99028033D01*
X142712360Y-99016668D01*
X142719291Y-99003702D01*
X142723559Y-98989633D01*
X142725000Y-98975001D01*
X142725000Y-98025000D01*
X145325000Y-98025000D01*
X145325000Y-98975001D01*
X145326441Y-98989633D01*
X145330709Y-99003702D01*
X145337640Y-99016668D01*
X145346967Y-99028033D01*
X145358332Y-99037360D01*
X145371298Y-99044291D01*
X145385367Y-99048559D01*
X145399999Y-99050000D01*
X152650001Y-99050000D01*
X152664633Y-99048559D01*
X152678702Y-99044291D01*
X152691668Y-99037360D01*
X152703033Y-99028033D01*
X152712360Y-99016668D01*
X152719291Y-99003702D01*
X152723559Y-98989633D01*
X152725000Y-98975001D01*
X152725000Y-98025000D01*
X155325000Y-98025000D01*
X155325000Y-98975001D01*
X155326441Y-98989633D01*
X155330709Y-99003702D01*
X155337640Y-99016668D01*
X155346967Y-99028033D01*
X155358332Y-99037360D01*
X155371298Y-99044291D01*
X155385367Y-99048559D01*
X155399999Y-99050000D01*
X155650001Y-99050000D01*
X155664633Y-99048559D01*
X155678702Y-99044291D01*
X155691668Y-99037360D01*
X155703033Y-99028033D01*
X155712360Y-99016668D01*
X155719291Y-99003702D01*
X155723559Y-98989633D01*
X155725000Y-98975001D01*
X155725000Y-98025000D01*
X158325000Y-98025000D01*
X158325000Y-98975001D01*
X158326441Y-98989633D01*
X158330709Y-99003702D01*
X158337640Y-99016668D01*
X158346967Y-99028033D01*
X158358332Y-99037360D01*
X158371298Y-99044291D01*
X158385367Y-99048559D01*
X158399999Y-99050000D01*
X165650001Y-99050000D01*
X165664633Y-99048559D01*
X165678702Y-99044291D01*
X165691668Y-99037360D01*
X165703033Y-99028033D01*
X165712360Y-99016668D01*
X165719291Y-99003702D01*
X165723559Y-98989633D01*
X165725000Y-98975001D01*
X165725000Y-98025000D01*
X168325000Y-98025000D01*
X168325000Y-98925000D01*
X167081063Y-98925000D01*
X167066431Y-98926441D01*
X167052362Y-98930709D01*
X167039396Y-98937640D01*
X167028031Y-98946967D01*
X167018704Y-98958332D01*
X167011773Y-98971298D01*
X167007505Y-98985367D01*
X167006064Y-98999999D01*
X167007505Y-99014631D01*
X167011773Y-99028700D01*
X167018704Y-99041666D01*
X167028031Y-99053031D01*
X167150000Y-99175000D01*
X167150000Y-100925000D01*
X167025000Y-101050000D01*
X156900035Y-101044707D01*
X156885406Y-101046140D01*
X156871334Y-101050401D01*
X156858364Y-101057325D01*
X156846994Y-101066646D01*
X156837661Y-101078006D01*
X156830724Y-101090969D01*
X156826449Y-101105036D01*
X156825000Y-101119706D01*
X156825000Y-101425000D01*
X154225000Y-101425000D01*
X154225000Y-101118269D01*
X154223559Y-101103637D01*
X154219291Y-101089568D01*
X154212360Y-101076602D01*
X154203033Y-101065237D01*
X154191668Y-101055910D01*
X154178702Y-101048979D01*
X154164633Y-101044711D01*
X154150040Y-101043270D01*
X143900038Y-101037912D01*
X143885406Y-101039345D01*
X143871334Y-101043606D01*
X143858364Y-101050530D01*
X143846994Y-101059851D01*
X143837661Y-101071211D01*
X143830724Y-101084174D01*
X143826449Y-101098241D01*
X143825000Y-101112911D01*
X143825000Y-101425000D01*
X141225000Y-101425000D01*
X141225000Y-101111473D01*
X141223559Y-101096841D01*
X141219291Y-101082772D01*
X141212360Y-101069806D01*
X141203033Y-101058441D01*
X141191668Y-101049114D01*
X141178702Y-101042183D01*
X141164633Y-101037915D01*
X141150041Y-101036474D01*
X130900037Y-101031116D01*
X130885406Y-101032549D01*
X130871334Y-101036810D01*
X130858364Y-101043734D01*
X130846994Y-101053055D01*
X130837661Y-101064415D01*
X130830724Y-101077378D01*
X130826449Y-101091445D01*
X130825000Y-101106115D01*
X130825000Y-101425000D01*
X128225000Y-101425000D01*
X128225000Y-101104678D01*
X128223559Y-101090046D01*
X128219291Y-101075977D01*
X128212360Y-101063011D01*
X128203033Y-101051646D01*
X128191668Y-101042319D01*
X128178702Y-101035388D01*
X128164633Y-101031120D01*
X128150040Y-101029679D01*
X119200000Y-101025000D01*
X117899999Y-101025000D01*
X117885367Y-101026441D01*
X117871298Y-101030709D01*
X117858332Y-101037640D01*
X117846967Y-101046967D01*
X117837640Y-101058332D01*
X117830709Y-101071298D01*
X117826441Y-101085367D01*
X117825000Y-101099999D01*
X117825000Y-101375000D01*
X115225000Y-101375000D01*
X115225000Y-101099999D01*
X115223559Y-101085367D01*
X115219291Y-101071298D01*
X115212360Y-101058332D01*
X115203033Y-101046967D01*
X115191668Y-101037640D01*
X115178702Y-101030709D01*
X115164633Y-101026441D01*
X115150001Y-101025000D01*
X108075000Y-101025000D01*
X100950000Y-93875000D01*
X100950000Y-59150000D01*
X101200000Y-58900000D01*
X102700000Y-58900000D01*
X102950000Y-59150000D01*
G37*
G36*
X126275000Y-98800000D02*
G01*
X124575000Y-98800000D01*
X124575000Y-98050000D01*
X126275000Y-98050000D01*
X126275000Y-98800000D01*
G37*
G36*
X121475000Y-98800000D02*
G01*
X119775000Y-98800000D01*
X119775000Y-98050000D01*
X121475000Y-98050000D01*
X121475000Y-98800000D01*
G37*
G36*
X139275000Y-98800000D02*
G01*
X137575000Y-98800000D01*
X137575000Y-98050000D01*
X139275000Y-98050000D01*
X139275000Y-98800000D01*
G37*
G36*
X147475000Y-98800000D02*
G01*
X145775000Y-98800000D01*
X145775000Y-98050000D01*
X147475000Y-98050000D01*
X147475000Y-98800000D01*
G37*
G36*
X160475000Y-98800000D02*
G01*
X158775000Y-98800000D01*
X158775000Y-98050000D01*
X160475000Y-98050000D01*
X160475000Y-98800000D01*
G37*
G36*
X165275000Y-98800000D02*
G01*
X163575000Y-98800000D01*
X163575000Y-98050000D01*
X165275000Y-98050000D01*
X165275000Y-98800000D01*
G37*
G36*
X134475000Y-98800000D02*
G01*
X132775000Y-98800000D01*
X132775000Y-98050000D01*
X134475000Y-98050000D01*
X134475000Y-98800000D01*
G37*
G36*
X152275000Y-98800000D02*
G01*
X150575000Y-98800000D01*
X150575000Y-98050000D01*
X152275000Y-98050000D01*
X152275000Y-98800000D01*
G37*
G36*
X135775000Y-97925000D02*
G01*
X134875000Y-97925000D01*
X134875000Y-97425000D01*
X135775000Y-97425000D01*
X135775000Y-97925000D01*
G37*
G36*
X122775000Y-97925000D02*
G01*
X121875000Y-97925000D01*
X121875000Y-97425000D01*
X122775000Y-97425000D01*
X122775000Y-97925000D01*
G37*
G36*
X124175000Y-97925000D02*
G01*
X123275000Y-97925000D01*
X123275000Y-97425000D01*
X124175000Y-97425000D01*
X124175000Y-97925000D01*
G37*
G36*
X137175000Y-97925000D02*
G01*
X136275000Y-97925000D01*
X136275000Y-97425000D01*
X137175000Y-97425000D01*
X137175000Y-97925000D01*
G37*
G36*
X150175000Y-97925000D02*
G01*
X149275000Y-97925000D01*
X149275000Y-97425000D01*
X150175000Y-97425000D01*
X150175000Y-97925000D01*
G37*
G36*
X161775000Y-97925000D02*
G01*
X160875000Y-97925000D01*
X160875000Y-97425000D01*
X161775000Y-97425000D01*
X161775000Y-97925000D01*
G37*
G36*
X163175000Y-97925000D02*
G01*
X162275000Y-97925000D01*
X162275000Y-97425000D01*
X163175000Y-97425000D01*
X163175000Y-97925000D01*
G37*
G36*
X148775000Y-97925000D02*
G01*
X147875000Y-97925000D01*
X147875000Y-97425000D01*
X148775000Y-97425000D01*
X148775000Y-97925000D01*
G37*
G36*
X171000000Y-96925000D02*
G01*
X170100000Y-96925000D01*
X170100000Y-96425000D01*
X171000000Y-96425000D01*
X171000000Y-96925000D01*
G37*
G36*
X169700000Y-96925000D02*
G01*
X168800000Y-96925000D01*
X168800000Y-96425000D01*
X169700000Y-96425000D01*
X169700000Y-96925000D01*
G37*
G36*
X173116629Y-95082300D02*
G01*
X173276855Y-95130903D01*
X173424519Y-95209832D01*
X173553948Y-95316052D01*
X173660168Y-95445481D01*
X173739097Y-95593145D01*
X173787700Y-95753371D01*
X173804112Y-95920000D01*
X173787700Y-96086629D01*
X173739097Y-96246855D01*
X173660168Y-96394519D01*
X173553948Y-96523948D01*
X173424519Y-96630168D01*
X173276855Y-96709097D01*
X173116629Y-96757700D01*
X172991749Y-96770000D01*
X172108251Y-96770000D01*
X171983371Y-96757700D01*
X171823145Y-96709097D01*
X171675481Y-96630168D01*
X171546052Y-96523948D01*
X171439832Y-96394519D01*
X171360903Y-96246855D01*
X171312300Y-96086629D01*
X171295888Y-95920000D01*
X171312300Y-95753371D01*
X171360903Y-95593145D01*
X171439832Y-95445481D01*
X171546052Y-95316052D01*
X171675481Y-95209832D01*
X171823145Y-95130903D01*
X171983371Y-95082300D01*
X172108251Y-95070000D01*
X172991749Y-95070000D01*
X173116629Y-95082300D01*
G37*
G36*
X122775000Y-96425000D02*
G01*
X121875000Y-96425000D01*
X121875000Y-95925000D01*
X122775000Y-95925000D01*
X122775000Y-96425000D01*
G37*
G36*
X124175000Y-96425000D02*
G01*
X123275000Y-96425000D01*
X123275000Y-95925000D01*
X124175000Y-95925000D01*
X124175000Y-96425000D01*
G37*
G36*
X163175000Y-96425000D02*
G01*
X162275000Y-96425000D01*
X162275000Y-95925000D01*
X163175000Y-95925000D01*
X163175000Y-96425000D01*
G37*
G36*
X150175000Y-96425000D02*
G01*
X149275000Y-96425000D01*
X149275000Y-95925000D01*
X150175000Y-95925000D01*
X150175000Y-96425000D01*
G37*
G36*
X137175000Y-96425000D02*
G01*
X136275000Y-96425000D01*
X136275000Y-95925000D01*
X137175000Y-95925000D01*
X137175000Y-96425000D01*
G37*
G36*
X135775000Y-96425000D02*
G01*
X134875000Y-96425000D01*
X134875000Y-95925000D01*
X135775000Y-95925000D01*
X135775000Y-96425000D01*
G37*
G36*
X161775000Y-96425000D02*
G01*
X160875000Y-96425000D01*
X160875000Y-95925000D01*
X161775000Y-95925000D01*
X161775000Y-96425000D01*
G37*
G36*
X148775000Y-96425000D02*
G01*
X147875000Y-96425000D01*
X147875000Y-95925000D01*
X148775000Y-95925000D01*
X148775000Y-96425000D01*
G37*
G36*
X115800000Y-96350000D02*
G01*
X115300000Y-96350000D01*
X115300000Y-95450000D01*
X115800000Y-95450000D01*
X115800000Y-96350000D01*
G37*
G36*
X114300000Y-96350000D02*
G01*
X113800000Y-96350000D01*
X113800000Y-95450000D01*
X114300000Y-95450000D01*
X114300000Y-96350000D01*
G37*
G36*
X108933223Y-90941074D02*
G01*
X109388196Y-91129530D01*
X109797657Y-91403123D01*
X110145877Y-91751343D01*
X110419470Y-92160804D01*
X110419471Y-92160806D01*
X110607926Y-92615777D01*
X110694924Y-93053142D01*
X110704000Y-93098773D01*
X110704000Y-93591227D01*
X110607926Y-94074223D01*
X110419470Y-94529196D01*
X110145877Y-94938657D01*
X109797657Y-95286877D01*
X109388196Y-95560470D01*
X109388195Y-95560471D01*
X109388194Y-95560471D01*
X108933223Y-95748926D01*
X108450228Y-95845000D01*
X107957772Y-95845000D01*
X107474777Y-95748926D01*
X107019806Y-95560471D01*
X107019805Y-95560471D01*
X107019804Y-95560470D01*
X106610343Y-95286877D01*
X106262123Y-94938657D01*
X105988530Y-94529196D01*
X105800074Y-94074223D01*
X105704000Y-93591227D01*
X105704000Y-93098773D01*
X105713077Y-93053142D01*
X105800074Y-92615777D01*
X105988529Y-92160806D01*
X105988530Y-92160804D01*
X106262123Y-91751343D01*
X106610343Y-91403123D01*
X107019804Y-91129530D01*
X107474777Y-90941074D01*
X107957772Y-90845000D01*
X108450228Y-90845000D01*
X108933223Y-90941074D01*
G37*
G36*
X121025000Y-92600001D02*
G01*
X121026441Y-92614633D01*
X121030709Y-92628702D01*
X121037640Y-92641668D01*
X121046967Y-92653033D01*
X121058332Y-92662360D01*
X121071298Y-92669291D01*
X121085367Y-92673559D01*
X121099999Y-92675000D01*
X133050001Y-92675000D01*
X133064633Y-92673559D01*
X133078702Y-92669291D01*
X133091668Y-92662360D01*
X133103033Y-92653033D01*
X133112360Y-92641668D01*
X133119291Y-92628702D01*
X133123559Y-92614633D01*
X133125000Y-92600001D01*
X133125000Y-92475000D01*
X134025000Y-92475000D01*
X134025000Y-92600001D01*
X134026441Y-92614633D01*
X134030709Y-92628702D01*
X134037640Y-92641668D01*
X134046967Y-92653033D01*
X134058332Y-92662360D01*
X134071298Y-92669291D01*
X134085367Y-92673559D01*
X134099999Y-92675000D01*
X146050001Y-92675000D01*
X146064633Y-92673559D01*
X146078702Y-92669291D01*
X146091668Y-92662360D01*
X146103033Y-92653033D01*
X146112360Y-92641668D01*
X146119291Y-92628702D01*
X146123559Y-92614633D01*
X146125000Y-92600001D01*
X146125000Y-92475000D01*
X147025000Y-92475000D01*
X147025000Y-92600001D01*
X147026441Y-92614633D01*
X147030709Y-92628702D01*
X147037640Y-92641668D01*
X147046967Y-92653033D01*
X147058332Y-92662360D01*
X147071298Y-92669291D01*
X147085367Y-92673559D01*
X147099999Y-92675000D01*
X159050001Y-92675000D01*
X159064633Y-92673559D01*
X159078702Y-92669291D01*
X159091668Y-92662360D01*
X159103033Y-92653033D01*
X159112360Y-92641668D01*
X159119291Y-92628702D01*
X159123559Y-92614633D01*
X159125000Y-92600001D01*
X159125000Y-92475000D01*
X160025000Y-92475000D01*
X160025000Y-92600001D01*
X160026441Y-92614633D01*
X160030709Y-92628702D01*
X160037640Y-92641668D01*
X160046967Y-92653033D01*
X160058332Y-92662360D01*
X160071298Y-92669291D01*
X160085367Y-92673559D01*
X160099999Y-92675000D01*
X167025000Y-92675000D01*
X167150000Y-92800000D01*
X167150000Y-94675000D01*
X167028031Y-94796969D01*
X167018704Y-94808334D01*
X167011773Y-94821300D01*
X167007505Y-94835369D01*
X167006064Y-94850001D01*
X167007505Y-94864633D01*
X167011773Y-94878702D01*
X167018704Y-94891668D01*
X167028031Y-94903033D01*
X167039396Y-94912360D01*
X167052362Y-94919291D01*
X167066431Y-94923559D01*
X167081063Y-94925000D01*
X168325000Y-94925000D01*
X168325000Y-95825000D01*
X165725000Y-95825000D01*
X165725000Y-94874999D01*
X165723559Y-94860367D01*
X165719291Y-94846298D01*
X165712360Y-94833332D01*
X165703033Y-94821967D01*
X165691668Y-94812640D01*
X165678702Y-94805709D01*
X165664633Y-94801441D01*
X165650001Y-94800000D01*
X158399999Y-94800000D01*
X158385367Y-94801441D01*
X158371298Y-94805709D01*
X158358332Y-94812640D01*
X158346967Y-94821967D01*
X158337640Y-94833332D01*
X158330709Y-94846298D01*
X158326441Y-94860367D01*
X158325000Y-94874999D01*
X158325000Y-95825000D01*
X155725000Y-95825000D01*
X155725000Y-94874999D01*
X155723559Y-94860367D01*
X155719291Y-94846298D01*
X155712360Y-94833332D01*
X155703033Y-94821967D01*
X155691668Y-94812640D01*
X155678702Y-94805709D01*
X155664633Y-94801441D01*
X155650001Y-94800000D01*
X155399999Y-94800000D01*
X155385367Y-94801441D01*
X155371298Y-94805709D01*
X155358332Y-94812640D01*
X155346967Y-94821967D01*
X155337640Y-94833332D01*
X155330709Y-94846298D01*
X155326441Y-94860367D01*
X155325000Y-94874999D01*
X155325000Y-95825000D01*
X152725000Y-95825000D01*
X152725000Y-94874999D01*
X152723559Y-94860367D01*
X152719291Y-94846298D01*
X152712360Y-94833332D01*
X152703033Y-94821967D01*
X152691668Y-94812640D01*
X152678702Y-94805709D01*
X152664633Y-94801441D01*
X152650001Y-94800000D01*
X145399999Y-94800000D01*
X145385367Y-94801441D01*
X145371298Y-94805709D01*
X145358332Y-94812640D01*
X145346967Y-94821967D01*
X145337640Y-94833332D01*
X145330709Y-94846298D01*
X145326441Y-94860367D01*
X145325000Y-94874999D01*
X145325000Y-95825000D01*
X142725000Y-95825000D01*
X142725000Y-94874999D01*
X142723559Y-94860367D01*
X142719291Y-94846298D01*
X142712360Y-94833332D01*
X142703033Y-94821967D01*
X142691668Y-94812640D01*
X142678702Y-94805709D01*
X142664633Y-94801441D01*
X142650001Y-94800000D01*
X142399999Y-94800000D01*
X142385367Y-94801441D01*
X142371298Y-94805709D01*
X142358332Y-94812640D01*
X142346967Y-94821967D01*
X142337640Y-94833332D01*
X142330709Y-94846298D01*
X142326441Y-94860367D01*
X142325000Y-94874999D01*
X142325000Y-95825000D01*
X139725000Y-95825000D01*
X139725000Y-94874999D01*
X139723559Y-94860367D01*
X139719291Y-94846298D01*
X139712360Y-94833332D01*
X139703033Y-94821967D01*
X139691668Y-94812640D01*
X139678702Y-94805709D01*
X139664633Y-94801441D01*
X139650001Y-94800000D01*
X132399999Y-94800000D01*
X132385367Y-94801441D01*
X132371298Y-94805709D01*
X132358332Y-94812640D01*
X132346967Y-94821967D01*
X132337640Y-94833332D01*
X132330709Y-94846298D01*
X132326441Y-94860367D01*
X132325000Y-94874999D01*
X132325000Y-95825000D01*
X129725000Y-95825000D01*
X129725000Y-94874999D01*
X129723559Y-94860367D01*
X129719291Y-94846298D01*
X129712360Y-94833332D01*
X129703033Y-94821967D01*
X129691668Y-94812640D01*
X129678702Y-94805709D01*
X129664633Y-94801441D01*
X129650001Y-94800000D01*
X129399999Y-94800000D01*
X129385367Y-94801441D01*
X129371298Y-94805709D01*
X129358332Y-94812640D01*
X129346967Y-94821967D01*
X129337640Y-94833332D01*
X129330709Y-94846298D01*
X129326441Y-94860367D01*
X129325000Y-94874999D01*
X129325000Y-95825000D01*
X126725000Y-95825000D01*
X126725000Y-94874999D01*
X126723559Y-94860367D01*
X126719291Y-94846298D01*
X126712360Y-94833332D01*
X126703033Y-94821967D01*
X126691668Y-94812640D01*
X126678702Y-94805709D01*
X126664633Y-94801441D01*
X126650001Y-94800000D01*
X119399999Y-94800000D01*
X119385367Y-94801441D01*
X119371298Y-94805709D01*
X119358332Y-94812640D01*
X119346967Y-94821967D01*
X119337640Y-94833332D01*
X119330709Y-94846298D01*
X119326441Y-94860367D01*
X119325000Y-94874999D01*
X119325000Y-95825000D01*
X116725000Y-95825000D01*
X116725000Y-94874999D01*
X116723559Y-94860367D01*
X116719291Y-94846298D01*
X116712360Y-94833332D01*
X116703033Y-94821967D01*
X116691668Y-94812640D01*
X116678702Y-94805709D01*
X116664633Y-94801441D01*
X116650001Y-94800000D01*
X112225000Y-94800000D01*
X112100000Y-94675000D01*
X112100000Y-92800000D01*
X112225000Y-92675000D01*
X120050001Y-92675000D01*
X120064633Y-92673559D01*
X120078702Y-92669291D01*
X120091668Y-92662360D01*
X120103033Y-92653033D01*
X120112360Y-92641668D01*
X120119291Y-92628702D01*
X120123559Y-92614633D01*
X120125000Y-92600001D01*
X120125000Y-92475000D01*
X121025000Y-92475000D01*
X121025000Y-92600001D01*
G37*
G36*
X152275000Y-95800000D02*
G01*
X150575000Y-95800000D01*
X150575000Y-95050000D01*
X152275000Y-95050000D01*
X152275000Y-95800000D01*
G37*
G36*
X134475000Y-95800000D02*
G01*
X132775000Y-95800000D01*
X132775000Y-95050000D01*
X134475000Y-95050000D01*
X134475000Y-95800000D01*
G37*
G36*
X147475000Y-95800000D02*
G01*
X145775000Y-95800000D01*
X145775000Y-95050000D01*
X147475000Y-95050000D01*
X147475000Y-95800000D01*
G37*
G36*
X139275000Y-95800000D02*
G01*
X137575000Y-95800000D01*
X137575000Y-95050000D01*
X139275000Y-95050000D01*
X139275000Y-95800000D01*
G37*
G36*
X121475000Y-95800000D02*
G01*
X119775000Y-95800000D01*
X119775000Y-95050000D01*
X121475000Y-95050000D01*
X121475000Y-95800000D01*
G37*
G36*
X126275000Y-95800000D02*
G01*
X124575000Y-95800000D01*
X124575000Y-95050000D01*
X126275000Y-95050000D01*
X126275000Y-95800000D01*
G37*
G36*
X165275000Y-95800000D02*
G01*
X163575000Y-95800000D01*
X163575000Y-95050000D01*
X165275000Y-95050000D01*
X165275000Y-95800000D01*
G37*
G36*
X160475000Y-95800000D02*
G01*
X158775000Y-95800000D01*
X158775000Y-95050000D01*
X160475000Y-95050000D01*
X160475000Y-95800000D01*
G37*
G36*
X169700000Y-95425000D02*
G01*
X168800000Y-95425000D01*
X168800000Y-94925000D01*
X169700000Y-94925000D01*
X169700000Y-95425000D01*
G37*
G36*
X171000000Y-95425000D02*
G01*
X170100000Y-95425000D01*
X170100000Y-94925000D01*
X171000000Y-94925000D01*
X171000000Y-95425000D01*
G37*
G36*
X169700000Y-94375000D02*
G01*
X168800000Y-94375000D01*
X168800000Y-93875000D01*
X169700000Y-93875000D01*
X169700000Y-94375000D01*
G37*
G36*
X171000000Y-94375000D02*
G01*
X170100000Y-94375000D01*
X170100000Y-93875000D01*
X171000000Y-93875000D01*
X171000000Y-94375000D01*
G37*
G36*
X173116629Y-92542300D02*
G01*
X173276855Y-92590903D01*
X173424519Y-92669832D01*
X173553948Y-92776052D01*
X173660168Y-92905481D01*
X173739097Y-93053145D01*
X173787700Y-93213371D01*
X173804112Y-93380000D01*
X173787700Y-93546629D01*
X173739097Y-93706855D01*
X173660168Y-93854519D01*
X173553948Y-93983948D01*
X173424519Y-94090168D01*
X173276855Y-94169097D01*
X173116629Y-94217700D01*
X172991749Y-94230000D01*
X172108251Y-94230000D01*
X171983371Y-94217700D01*
X171823145Y-94169097D01*
X171675481Y-94090168D01*
X171546052Y-93983948D01*
X171439832Y-93854519D01*
X171360903Y-93706855D01*
X171312300Y-93546629D01*
X171295888Y-93380000D01*
X171312300Y-93213371D01*
X171360903Y-93053145D01*
X171439832Y-92905481D01*
X171546052Y-92776052D01*
X171675481Y-92669832D01*
X171823145Y-92590903D01*
X171983371Y-92542300D01*
X172108251Y-92530000D01*
X172991749Y-92530000D01*
X173116629Y-92542300D01*
G37*
G36*
X171000000Y-92875000D02*
G01*
X170100000Y-92875000D01*
X170100000Y-92375000D01*
X171000000Y-92375000D01*
X171000000Y-92875000D01*
G37*
G36*
X169700000Y-92875000D02*
G01*
X168800000Y-92875000D01*
X168800000Y-92375000D01*
X169700000Y-92375000D01*
X169700000Y-92875000D01*
G37*
G36*
X147025000Y-91475000D02*
G01*
X146125000Y-91475000D01*
X146125000Y-90975000D01*
X147025000Y-90975000D01*
X147025000Y-91475000D01*
G37*
G36*
X134025000Y-91475000D02*
G01*
X133125000Y-91475000D01*
X133125000Y-90975000D01*
X134025000Y-90975000D01*
X134025000Y-91475000D01*
G37*
G36*
X121025000Y-91475000D02*
G01*
X120125000Y-91475000D01*
X120125000Y-90975000D01*
X121025000Y-90975000D01*
X121025000Y-91475000D01*
G37*
G36*
X160025000Y-91475000D02*
G01*
X159125000Y-91475000D01*
X159125000Y-90975000D01*
X160025000Y-90975000D01*
X160025000Y-91475000D01*
G37*
G36*
X115025000Y-91375000D02*
G01*
X113325000Y-91375000D01*
X113325000Y-90625000D01*
X115025000Y-90625000D01*
X115025000Y-91375000D01*
G37*
G36*
X168818017Y-89327235D02*
G01*
X168912267Y-89355825D01*
X168912270Y-89355827D01*
X168912271Y-89355827D01*
X168999128Y-89402253D01*
X169075264Y-89464736D01*
X169137747Y-89540872D01*
X169184173Y-89627729D01*
X169184175Y-89627733D01*
X169212765Y-89721983D01*
X169222419Y-89820000D01*
X169212765Y-89918017D01*
X169184175Y-90012267D01*
X169184173Y-90012270D01*
X169184173Y-90012271D01*
X169137747Y-90099128D01*
X169075264Y-90175264D01*
X168999128Y-90237747D01*
X168912271Y-90284173D01*
X168912267Y-90284175D01*
X168818017Y-90312765D01*
X168744560Y-90320000D01*
X167595440Y-90320000D01*
X167521983Y-90312765D01*
X167427733Y-90284175D01*
X167427729Y-90284173D01*
X167340872Y-90237747D01*
X167264736Y-90175264D01*
X167202253Y-90099128D01*
X167155827Y-90012271D01*
X167155827Y-90012270D01*
X167155825Y-90012267D01*
X167127235Y-89918017D01*
X167117581Y-89820000D01*
X167127235Y-89721983D01*
X167155825Y-89627733D01*
X167155827Y-89627729D01*
X167202253Y-89540872D01*
X167264736Y-89464736D01*
X167340872Y-89402253D01*
X167427729Y-89355827D01*
X167427730Y-89355827D01*
X167427733Y-89355825D01*
X167521983Y-89327235D01*
X167595440Y-89320000D01*
X168744560Y-89320000D01*
X168818017Y-89327235D01*
G37*
G36*
X172748017Y-89277235D02*
G01*
X172842267Y-89305825D01*
X172842270Y-89305827D01*
X172842271Y-89305827D01*
X172929128Y-89352253D01*
X173005264Y-89414736D01*
X173067747Y-89490872D01*
X173114173Y-89577729D01*
X173114175Y-89577733D01*
X173142765Y-89671983D01*
X173152419Y-89770000D01*
X173142765Y-89868017D01*
X173114175Y-89962267D01*
X173114173Y-89962270D01*
X173114173Y-89962271D01*
X173067747Y-90049128D01*
X173005264Y-90125264D01*
X172929128Y-90187747D01*
X172842271Y-90234173D01*
X172842267Y-90234175D01*
X172748017Y-90262765D01*
X172674560Y-90270000D01*
X172025440Y-90270000D01*
X171951983Y-90262765D01*
X171857733Y-90234175D01*
X171857729Y-90234173D01*
X171770872Y-90187747D01*
X171694736Y-90125264D01*
X171632253Y-90049128D01*
X171585827Y-89962271D01*
X171585827Y-89962270D01*
X171585825Y-89962267D01*
X171557235Y-89868017D01*
X171547581Y-89770000D01*
X171557235Y-89671983D01*
X171585825Y-89577733D01*
X171585827Y-89577729D01*
X171632253Y-89490872D01*
X171694736Y-89414736D01*
X171770872Y-89352253D01*
X171857729Y-89305827D01*
X171857730Y-89305827D01*
X171857733Y-89305825D01*
X171951983Y-89277235D01*
X172025440Y-89270000D01*
X172674560Y-89270000D01*
X172748017Y-89277235D01*
G37*
G36*
X117725000Y-68800000D02*
G01*
X117725000Y-86000000D01*
X115725000Y-88000000D01*
X115099999Y-88000000D01*
X115085367Y-88001441D01*
X115071298Y-88005709D01*
X115058332Y-88012640D01*
X115046967Y-88021967D01*
X115037640Y-88033332D01*
X115030709Y-88046298D01*
X115026441Y-88060367D01*
X115025000Y-88074999D01*
X115025000Y-88375000D01*
X113325000Y-88375000D01*
X113325000Y-88074999D01*
X113323559Y-88060367D01*
X113319291Y-88046298D01*
X113312360Y-88033332D01*
X113303033Y-88021967D01*
X113291668Y-88012640D01*
X113278702Y-88005709D01*
X113264633Y-88001441D01*
X113250001Y-88000000D01*
X110543808Y-88000000D01*
X110529176Y-88001441D01*
X110515107Y-88005709D01*
X110502141Y-88012640D01*
X110490776Y-88021967D01*
X110481449Y-88033332D01*
X110474519Y-88046296D01*
X110461598Y-88077490D01*
X110419470Y-88179196D01*
X110145877Y-88588657D01*
X109797657Y-88936877D01*
X109388196Y-89210470D01*
X109388195Y-89210471D01*
X109388194Y-89210471D01*
X108933223Y-89398926D01*
X108450228Y-89495000D01*
X107957772Y-89495000D01*
X107474777Y-89398926D01*
X107019806Y-89210471D01*
X107019805Y-89210471D01*
X107019804Y-89210470D01*
X106610343Y-88936877D01*
X106262123Y-88588657D01*
X105988530Y-88179196D01*
X105946402Y-88077489D01*
X105800074Y-87724223D01*
X105704000Y-87241228D01*
X105704000Y-86748772D01*
X105800074Y-86265777D01*
X105988529Y-85810806D01*
X106095976Y-85650000D01*
X106262123Y-85401343D01*
X106610343Y-85053123D01*
X107019804Y-84779530D01*
X107091096Y-84750000D01*
X107474777Y-84591074D01*
X107957772Y-84495000D01*
X108450228Y-84495000D01*
X108933223Y-84591074D01*
X109316905Y-84750000D01*
X109388196Y-84779530D01*
X109797657Y-85053123D01*
X110145877Y-85401343D01*
X110419470Y-85810804D01*
X110478660Y-85953702D01*
X110485591Y-85966668D01*
X110494918Y-85978033D01*
X110506283Y-85987360D01*
X110519249Y-85994291D01*
X110533318Y-85998559D01*
X110547950Y-86000000D01*
X114943935Y-86000000D01*
X114958567Y-85998559D01*
X114972636Y-85994291D01*
X114985602Y-85987360D01*
X114996967Y-85978033D01*
X115703033Y-85271967D01*
X115712360Y-85260602D01*
X115719291Y-85247636D01*
X115723559Y-85233567D01*
X115725000Y-85218935D01*
X115725000Y-67800000D01*
X115975000Y-67550000D01*
X116475000Y-67550000D01*
X117725000Y-68800000D01*
G37*
G36*
X166400000Y-89000000D02*
G01*
X165500000Y-89000000D01*
X165500000Y-88500000D01*
X166400000Y-88500000D01*
X166400000Y-89000000D01*
G37*
G36*
X164200000Y-88825000D02*
G01*
X163700000Y-88825000D01*
X163700000Y-87925000D01*
X164200000Y-87925000D01*
X164200000Y-88825000D01*
G37*
G36*
X162700000Y-88825000D02*
G01*
X162200000Y-88825000D01*
X162200000Y-87925000D01*
X162700000Y-87925000D01*
X162700000Y-88825000D01*
G37*
G36*
X168794799Y-88077489D02*
G01*
X168853945Y-88101988D01*
X168907176Y-88137556D01*
X168952444Y-88182824D01*
X168988012Y-88236055D01*
X169012511Y-88295201D01*
X169025000Y-88357990D01*
X169025000Y-88422010D01*
X169012511Y-88484799D01*
X168988012Y-88543945D01*
X168952444Y-88597176D01*
X168907176Y-88642444D01*
X168853945Y-88678012D01*
X168794799Y-88702511D01*
X168732010Y-88715000D01*
X168667990Y-88715000D01*
X168605201Y-88702511D01*
X168546055Y-88678012D01*
X168492824Y-88642444D01*
X168447556Y-88597176D01*
X168411988Y-88543945D01*
X168387489Y-88484799D01*
X168375000Y-88422010D01*
X168375000Y-88357990D01*
X168387489Y-88295201D01*
X168411988Y-88236055D01*
X168447556Y-88182824D01*
X168492824Y-88137556D01*
X168546055Y-88101988D01*
X168605201Y-88077489D01*
X168667990Y-88065000D01*
X168732010Y-88065000D01*
X168794799Y-88077489D01*
G37*
G36*
X173475000Y-88225000D02*
G01*
X172575000Y-88225000D01*
X172575000Y-85625000D01*
X173475000Y-85625000D01*
X173475000Y-88225000D01*
G37*
G36*
X170375000Y-88225000D02*
G01*
X169475000Y-88225000D01*
X169475000Y-85625000D01*
X170375000Y-85625000D01*
X170375000Y-88225000D01*
G37*
G36*
X166400000Y-87500000D02*
G01*
X165500000Y-87500000D01*
X165500000Y-87000000D01*
X166400000Y-87000000D01*
X166400000Y-87500000D01*
G37*
G36*
X124200000Y-87050000D02*
G01*
X123300000Y-87050000D01*
X123300000Y-86550000D01*
X124200000Y-86550000D01*
X124200000Y-87050000D01*
G37*
G36*
X122800000Y-87050000D02*
G01*
X121900000Y-87050000D01*
X121900000Y-86550000D01*
X122800000Y-86550000D01*
X122800000Y-87050000D01*
G37*
G36*
X131850000Y-86800000D02*
G01*
X131350000Y-86800000D01*
X131350000Y-85900000D01*
X131850000Y-85900000D01*
X131850000Y-86800000D01*
G37*
G36*
X130350000Y-86800000D02*
G01*
X129850000Y-86800000D01*
X129850000Y-85900000D01*
X130350000Y-85900000D01*
X130350000Y-86800000D01*
G37*
G36*
X131850000Y-85650000D02*
G01*
X131350000Y-85650000D01*
X131350000Y-84750000D01*
X131850000Y-84750000D01*
X131850000Y-85650000D01*
G37*
G36*
X130350000Y-85650000D02*
G01*
X129850000Y-85650000D01*
X129850000Y-84750000D01*
X130350000Y-84750000D01*
X130350000Y-85650000D01*
G37*
G36*
X122800000Y-85550000D02*
G01*
X121900000Y-85550000D01*
X121900000Y-85050000D01*
X122800000Y-85050000D01*
X122800000Y-85550000D01*
G37*
G36*
X124200000Y-85550000D02*
G01*
X123300000Y-85550000D01*
X123300000Y-85050000D01*
X124200000Y-85050000D01*
X124200000Y-85550000D01*
G37*
G36*
X173475000Y-85375000D02*
G01*
X172575000Y-85375000D01*
X172575000Y-82775000D01*
X173475000Y-82775000D01*
X173475000Y-85375000D01*
G37*
G36*
X170375000Y-85375000D02*
G01*
X169475000Y-85375000D01*
X169475000Y-82775000D01*
X170375000Y-82775000D01*
X170375000Y-85375000D01*
G37*
G36*
X131850000Y-84250000D02*
G01*
X131350000Y-84250000D01*
X131350000Y-83350000D01*
X131850000Y-83350000D01*
X131850000Y-84250000D01*
G37*
G36*
X130350000Y-84250000D02*
G01*
X129850000Y-84250000D01*
X129850000Y-83350000D01*
X130350000Y-83350000D01*
X130350000Y-84250000D01*
G37*
G36*
X166400000Y-84000000D02*
G01*
X165500000Y-84000000D01*
X165500000Y-83500000D01*
X166400000Y-83500000D01*
X166400000Y-84000000D01*
G37*
G36*
X134105936Y-82113665D02*
G01*
X134260628Y-82177740D01*
X134399844Y-82270761D01*
X134518239Y-82389156D01*
X134611260Y-82528372D01*
X134635493Y-82586877D01*
X134675335Y-82683064D01*
X134708000Y-82847282D01*
X134708000Y-83014718D01*
X134691036Y-83100000D01*
X134675335Y-83178936D01*
X134611260Y-83333628D01*
X134518239Y-83472844D01*
X134399844Y-83591239D01*
X134260628Y-83684260D01*
X134105936Y-83748335D01*
X133941718Y-83781000D01*
X133774282Y-83781000D01*
X133610064Y-83748335D01*
X133455372Y-83684260D01*
X133316156Y-83591239D01*
X133197761Y-83472844D01*
X133104740Y-83333628D01*
X133040665Y-83178936D01*
X133024964Y-83100000D01*
X133008000Y-83014718D01*
X133008000Y-82847282D01*
X133040665Y-82683064D01*
X133080507Y-82586877D01*
X133104740Y-82528372D01*
X133197761Y-82389156D01*
X133316156Y-82270761D01*
X133455372Y-82177740D01*
X133610064Y-82113665D01*
X133774282Y-82081000D01*
X133941718Y-82081000D01*
X134105936Y-82113665D01*
G37*
G36*
X159505936Y-82113665D02*
G01*
X159660628Y-82177740D01*
X159799844Y-82270761D01*
X159918239Y-82389156D01*
X160011260Y-82528372D01*
X160035493Y-82586877D01*
X160075335Y-82683064D01*
X160108000Y-82847282D01*
X160108000Y-83014718D01*
X160091036Y-83100000D01*
X160075335Y-83178936D01*
X160011260Y-83333628D01*
X159918239Y-83472844D01*
X159799844Y-83591239D01*
X159660628Y-83684260D01*
X159505936Y-83748335D01*
X159341718Y-83781000D01*
X159174282Y-83781000D01*
X159010064Y-83748335D01*
X158855372Y-83684260D01*
X158716156Y-83591239D01*
X158597761Y-83472844D01*
X158504740Y-83333628D01*
X158440665Y-83178936D01*
X158424964Y-83100000D01*
X158408000Y-83014718D01*
X158408000Y-82847282D01*
X158440665Y-82683064D01*
X158480507Y-82586877D01*
X158504740Y-82528372D01*
X158597761Y-82389156D01*
X158716156Y-82270761D01*
X158855372Y-82177740D01*
X159010064Y-82113665D01*
X159174282Y-82081000D01*
X159341718Y-82081000D01*
X159505936Y-82113665D01*
G37*
G36*
X139185936Y-82113665D02*
G01*
X139340628Y-82177740D01*
X139479844Y-82270761D01*
X139598239Y-82389156D01*
X139691260Y-82528372D01*
X139715493Y-82586877D01*
X139755335Y-82683064D01*
X139788000Y-82847282D01*
X139788000Y-83014718D01*
X139771036Y-83100000D01*
X139755335Y-83178936D01*
X139691260Y-83333628D01*
X139598239Y-83472844D01*
X139479844Y-83591239D01*
X139340628Y-83684260D01*
X139185936Y-83748335D01*
X139021718Y-83781000D01*
X138854282Y-83781000D01*
X138690064Y-83748335D01*
X138535372Y-83684260D01*
X138396156Y-83591239D01*
X138277761Y-83472844D01*
X138184740Y-83333628D01*
X138120665Y-83178936D01*
X138104964Y-83100000D01*
X138088000Y-83014718D01*
X138088000Y-82847282D01*
X138120665Y-82683064D01*
X138160507Y-82586877D01*
X138184740Y-82528372D01*
X138277761Y-82389156D01*
X138396156Y-82270761D01*
X138535372Y-82177740D01*
X138690064Y-82113665D01*
X138854282Y-82081000D01*
X139021718Y-82081000D01*
X139185936Y-82113665D01*
G37*
G36*
X141725936Y-82113665D02*
G01*
X141880628Y-82177740D01*
X142019844Y-82270761D01*
X142138239Y-82389156D01*
X142231260Y-82528372D01*
X142255493Y-82586877D01*
X142295335Y-82683064D01*
X142328000Y-82847282D01*
X142328000Y-83014718D01*
X142311036Y-83100000D01*
X142295335Y-83178936D01*
X142231260Y-83333628D01*
X142138239Y-83472844D01*
X142019844Y-83591239D01*
X141880628Y-83684260D01*
X141725936Y-83748335D01*
X141561718Y-83781000D01*
X141394282Y-83781000D01*
X141230064Y-83748335D01*
X141075372Y-83684260D01*
X140936156Y-83591239D01*
X140817761Y-83472844D01*
X140724740Y-83333628D01*
X140660665Y-83178936D01*
X140644964Y-83100000D01*
X140628000Y-83014718D01*
X140628000Y-82847282D01*
X140660665Y-82683064D01*
X140700507Y-82586877D01*
X140724740Y-82528372D01*
X140817761Y-82389156D01*
X140936156Y-82270761D01*
X141075372Y-82177740D01*
X141230064Y-82113665D01*
X141394282Y-82081000D01*
X141561718Y-82081000D01*
X141725936Y-82113665D01*
G37*
G36*
X136645936Y-82113665D02*
G01*
X136800628Y-82177740D01*
X136939844Y-82270761D01*
X137058239Y-82389156D01*
X137151260Y-82528372D01*
X137175493Y-82586877D01*
X137215335Y-82683064D01*
X137248000Y-82847282D01*
X137248000Y-83014718D01*
X137231036Y-83100000D01*
X137215335Y-83178936D01*
X137151260Y-83333628D01*
X137058239Y-83472844D01*
X136939844Y-83591239D01*
X136800628Y-83684260D01*
X136645936Y-83748335D01*
X136481718Y-83781000D01*
X136314282Y-83781000D01*
X136150064Y-83748335D01*
X135995372Y-83684260D01*
X135856156Y-83591239D01*
X135737761Y-83472844D01*
X135644740Y-83333628D01*
X135580665Y-83178936D01*
X135564964Y-83100000D01*
X135548000Y-83014718D01*
X135548000Y-82847282D01*
X135580665Y-82683064D01*
X135620507Y-82586877D01*
X135644740Y-82528372D01*
X135737761Y-82389156D01*
X135856156Y-82270761D01*
X135995372Y-82177740D01*
X136150064Y-82113665D01*
X136314282Y-82081000D01*
X136481718Y-82081000D01*
X136645936Y-82113665D01*
G37*
G36*
X149345936Y-82113665D02*
G01*
X149500628Y-82177740D01*
X149639844Y-82270761D01*
X149758239Y-82389156D01*
X149851260Y-82528372D01*
X149875493Y-82586877D01*
X149915335Y-82683064D01*
X149948000Y-82847282D01*
X149948000Y-83014718D01*
X149931036Y-83100000D01*
X149915335Y-83178936D01*
X149851260Y-83333628D01*
X149758239Y-83472844D01*
X149639844Y-83591239D01*
X149500628Y-83684260D01*
X149345936Y-83748335D01*
X149181718Y-83781000D01*
X149014282Y-83781000D01*
X148850064Y-83748335D01*
X148695372Y-83684260D01*
X148556156Y-83591239D01*
X148437761Y-83472844D01*
X148344740Y-83333628D01*
X148280665Y-83178936D01*
X148264964Y-83100000D01*
X148248000Y-83014718D01*
X148248000Y-82847282D01*
X148280665Y-82683064D01*
X148320507Y-82586877D01*
X148344740Y-82528372D01*
X148437761Y-82389156D01*
X148556156Y-82270761D01*
X148695372Y-82177740D01*
X148850064Y-82113665D01*
X149014282Y-82081000D01*
X149181718Y-82081000D01*
X149345936Y-82113665D01*
G37*
G36*
X151885936Y-82113665D02*
G01*
X152040628Y-82177740D01*
X152179844Y-82270761D01*
X152298239Y-82389156D01*
X152391260Y-82528372D01*
X152415493Y-82586877D01*
X152455335Y-82683064D01*
X152488000Y-82847282D01*
X152488000Y-83014718D01*
X152471036Y-83100000D01*
X152455335Y-83178936D01*
X152391260Y-83333628D01*
X152298239Y-83472844D01*
X152179844Y-83591239D01*
X152040628Y-83684260D01*
X151885936Y-83748335D01*
X151721718Y-83781000D01*
X151554282Y-83781000D01*
X151390064Y-83748335D01*
X151235372Y-83684260D01*
X151096156Y-83591239D01*
X150977761Y-83472844D01*
X150884740Y-83333628D01*
X150820665Y-83178936D01*
X150804964Y-83100000D01*
X150788000Y-83014718D01*
X150788000Y-82847282D01*
X150820665Y-82683064D01*
X150860507Y-82586877D01*
X150884740Y-82528372D01*
X150977761Y-82389156D01*
X151096156Y-82270761D01*
X151235372Y-82177740D01*
X151390064Y-82113665D01*
X151554282Y-82081000D01*
X151721718Y-82081000D01*
X151885936Y-82113665D01*
G37*
G36*
X154425936Y-82113665D02*
G01*
X154580628Y-82177740D01*
X154719844Y-82270761D01*
X154838239Y-82389156D01*
X154931260Y-82528372D01*
X154955493Y-82586877D01*
X154995335Y-82683064D01*
X155028000Y-82847282D01*
X155028000Y-83014718D01*
X155011036Y-83100000D01*
X154995335Y-83178936D01*
X154931260Y-83333628D01*
X154838239Y-83472844D01*
X154719844Y-83591239D01*
X154580628Y-83684260D01*
X154425936Y-83748335D01*
X154261718Y-83781000D01*
X154094282Y-83781000D01*
X153930064Y-83748335D01*
X153775372Y-83684260D01*
X153636156Y-83591239D01*
X153517761Y-83472844D01*
X153424740Y-83333628D01*
X153360665Y-83178936D01*
X153344964Y-83100000D01*
X153328000Y-83014718D01*
X153328000Y-82847282D01*
X153360665Y-82683064D01*
X153400507Y-82586877D01*
X153424740Y-82528372D01*
X153517761Y-82389156D01*
X153636156Y-82270761D01*
X153775372Y-82177740D01*
X153930064Y-82113665D01*
X154094282Y-82081000D01*
X154261718Y-82081000D01*
X154425936Y-82113665D01*
G37*
G36*
X156965936Y-82113665D02*
G01*
X157120628Y-82177740D01*
X157259844Y-82270761D01*
X157378239Y-82389156D01*
X157471260Y-82528372D01*
X157495493Y-82586877D01*
X157535335Y-82683064D01*
X157568000Y-82847282D01*
X157568000Y-83014718D01*
X157551036Y-83100000D01*
X157535335Y-83178936D01*
X157471260Y-83333628D01*
X157378239Y-83472844D01*
X157259844Y-83591239D01*
X157120628Y-83684260D01*
X156965936Y-83748335D01*
X156801718Y-83781000D01*
X156634282Y-83781000D01*
X156470064Y-83748335D01*
X156315372Y-83684260D01*
X156176156Y-83591239D01*
X156057761Y-83472844D01*
X155964740Y-83333628D01*
X155900665Y-83178936D01*
X155884964Y-83100000D01*
X155868000Y-83014718D01*
X155868000Y-82847282D01*
X155900665Y-82683064D01*
X155940507Y-82586877D01*
X155964740Y-82528372D01*
X156057761Y-82389156D01*
X156176156Y-82270761D01*
X156315372Y-82177740D01*
X156470064Y-82113665D01*
X156634282Y-82081000D01*
X156801718Y-82081000D01*
X156965936Y-82113665D01*
G37*
G36*
X144265936Y-82113665D02*
G01*
X144420628Y-82177740D01*
X144559844Y-82270761D01*
X144678239Y-82389156D01*
X144771260Y-82528372D01*
X144795493Y-82586877D01*
X144835335Y-82683064D01*
X144868000Y-82847282D01*
X144868000Y-83014718D01*
X144851036Y-83100000D01*
X144835335Y-83178936D01*
X144771260Y-83333628D01*
X144678239Y-83472844D01*
X144559844Y-83591239D01*
X144420628Y-83684260D01*
X144265936Y-83748335D01*
X144101718Y-83781000D01*
X143934282Y-83781000D01*
X143770064Y-83748335D01*
X143615372Y-83684260D01*
X143476156Y-83591239D01*
X143357761Y-83472844D01*
X143264740Y-83333628D01*
X143200665Y-83178936D01*
X143184964Y-83100000D01*
X143168000Y-83014718D01*
X143168000Y-82847282D01*
X143200665Y-82683064D01*
X143240507Y-82586877D01*
X143264740Y-82528372D01*
X143357761Y-82389156D01*
X143476156Y-82270761D01*
X143615372Y-82177740D01*
X143770064Y-82113665D01*
X143934282Y-82081000D01*
X144101718Y-82081000D01*
X144265936Y-82113665D01*
G37*
G36*
X146805936Y-82113665D02*
G01*
X146960628Y-82177740D01*
X147099844Y-82270761D01*
X147218239Y-82389156D01*
X147311260Y-82528372D01*
X147335493Y-82586877D01*
X147375335Y-82683064D01*
X147408000Y-82847282D01*
X147408000Y-83014718D01*
X147391036Y-83100000D01*
X147375335Y-83178936D01*
X147311260Y-83333628D01*
X147218239Y-83472844D01*
X147099844Y-83591239D01*
X146960628Y-83684260D01*
X146805936Y-83748335D01*
X146641718Y-83781000D01*
X146474282Y-83781000D01*
X146310064Y-83748335D01*
X146155372Y-83684260D01*
X146016156Y-83591239D01*
X145897761Y-83472844D01*
X145804740Y-83333628D01*
X145740665Y-83178936D01*
X145724964Y-83100000D01*
X145708000Y-83014718D01*
X145708000Y-82847282D01*
X145740665Y-82683064D01*
X145780507Y-82586877D01*
X145804740Y-82528372D01*
X145897761Y-82389156D01*
X146016156Y-82270761D01*
X146155372Y-82177740D01*
X146310064Y-82113665D01*
X146474282Y-82081000D01*
X146641718Y-82081000D01*
X146805936Y-82113665D01*
G37*
G36*
X111930000Y-83596000D02*
G01*
X111030000Y-83596000D01*
X111030000Y-80996000D01*
X111930000Y-80996000D01*
X111930000Y-83596000D01*
G37*
G36*
X115030000Y-83596000D02*
G01*
X114130000Y-83596000D01*
X114130000Y-80996000D01*
X115030000Y-80996000D01*
X115030000Y-83596000D01*
G37*
G36*
X108650000Y-78123187D02*
G01*
X108651441Y-78137819D01*
X108655709Y-78151888D01*
X108662640Y-78164854D01*
X108671967Y-78176219D01*
X108683332Y-78185546D01*
X108696298Y-78192477D01*
X108710367Y-78196745D01*
X108933223Y-78241074D01*
X109235541Y-78366298D01*
X109388196Y-78429530D01*
X109797657Y-78703123D01*
X110145877Y-79051343D01*
X110419470Y-79460804D01*
X110419471Y-79460806D01*
X110607926Y-79915777D01*
X110704000Y-80398772D01*
X110704000Y-80891228D01*
X110607926Y-81374223D01*
X110472835Y-81700363D01*
X110419470Y-81829196D01*
X110145877Y-82238657D01*
X109797657Y-82586877D01*
X109388196Y-82860470D01*
X109388195Y-82860471D01*
X109388194Y-82860471D01*
X108933223Y-83048926D01*
X108450228Y-83145000D01*
X107957772Y-83145000D01*
X107474777Y-83048926D01*
X107019806Y-82860471D01*
X107019805Y-82860471D01*
X107019804Y-82860470D01*
X106610343Y-82586877D01*
X106262123Y-82238657D01*
X105988530Y-81829196D01*
X105935166Y-81700363D01*
X105800074Y-81374223D01*
X105704000Y-80891228D01*
X105704000Y-80398772D01*
X105800074Y-79915777D01*
X105988529Y-79460806D01*
X105988530Y-79460804D01*
X106262123Y-79051343D01*
X106610343Y-78703123D01*
X107019804Y-78429530D01*
X107172460Y-78366298D01*
X107474777Y-78241074D01*
X107555586Y-78225000D01*
X107689633Y-78198336D01*
X107703702Y-78194068D01*
X107716668Y-78187137D01*
X107728033Y-78177810D01*
X107737360Y-78166445D01*
X107744291Y-78153479D01*
X107748559Y-78139409D01*
X107750000Y-78124778D01*
X107750000Y-77970000D01*
X108650000Y-77970000D01*
X108650000Y-78123187D01*
G37*
G36*
X130350000Y-83100000D02*
G01*
X129850000Y-83100000D01*
X129850000Y-82200000D01*
X130350000Y-82200000D01*
X130350000Y-83100000D01*
G37*
G36*
X131850000Y-83100000D02*
G01*
X131350000Y-83100000D01*
X131350000Y-82200000D01*
X131850000Y-82200000D01*
X131850000Y-83100000D01*
G37*
G36*
X168794799Y-82297489D02*
G01*
X168853945Y-82321988D01*
X168907176Y-82357556D01*
X168952444Y-82402824D01*
X168988012Y-82456055D01*
X169012511Y-82515201D01*
X169025000Y-82577990D01*
X169025000Y-82642010D01*
X169012511Y-82704799D01*
X168988012Y-82763945D01*
X168952444Y-82817176D01*
X168907176Y-82862444D01*
X168853945Y-82898012D01*
X168794799Y-82922511D01*
X168732010Y-82935000D01*
X168667990Y-82935000D01*
X168605201Y-82922511D01*
X168546055Y-82898012D01*
X168492824Y-82862444D01*
X168447556Y-82817176D01*
X168411988Y-82763945D01*
X168387489Y-82704799D01*
X168375000Y-82642010D01*
X168375000Y-82577990D01*
X168387489Y-82515201D01*
X168411988Y-82456055D01*
X168447556Y-82402824D01*
X168492824Y-82357556D01*
X168546055Y-82321988D01*
X168605201Y-82297489D01*
X168667990Y-82285000D01*
X168732010Y-82285000D01*
X168794799Y-82297489D01*
G37*
G36*
X166400000Y-82500000D02*
G01*
X165500000Y-82500000D01*
X165500000Y-82000000D01*
X166400000Y-82000000D01*
X166400000Y-82500000D01*
G37*
G36*
X172748017Y-80737235D02*
G01*
X172842267Y-80765825D01*
X172842270Y-80765827D01*
X172842271Y-80765827D01*
X172929128Y-80812253D01*
X173005264Y-80874736D01*
X173067747Y-80950872D01*
X173091868Y-80996000D01*
X173114175Y-81037733D01*
X173142765Y-81131983D01*
X173152419Y-81230000D01*
X173142765Y-81328017D01*
X173114175Y-81422267D01*
X173114173Y-81422270D01*
X173114173Y-81422271D01*
X173067747Y-81509128D01*
X173005264Y-81585264D01*
X172929128Y-81647747D01*
X172842271Y-81694173D01*
X172842267Y-81694175D01*
X172748017Y-81722765D01*
X172674560Y-81730000D01*
X172025440Y-81730000D01*
X171951983Y-81722765D01*
X171857733Y-81694175D01*
X171857729Y-81694173D01*
X171770872Y-81647747D01*
X171694736Y-81585264D01*
X171632253Y-81509128D01*
X171585827Y-81422271D01*
X171585827Y-81422270D01*
X171585825Y-81422267D01*
X171557235Y-81328017D01*
X171547581Y-81230000D01*
X171557235Y-81131983D01*
X171585825Y-81037733D01*
X171608132Y-80996000D01*
X171632253Y-80950872D01*
X171694736Y-80874736D01*
X171770872Y-80812253D01*
X171857729Y-80765827D01*
X171857730Y-80765827D01*
X171857733Y-80765825D01*
X171951983Y-80737235D01*
X172025440Y-80730000D01*
X172674560Y-80730000D01*
X172748017Y-80737235D01*
G37*
G36*
X170774999Y-81300000D02*
G01*
X170775000Y-81300000D01*
X170775000Y-81300002D01*
X170775363Y-81303686D01*
X170775363Y-81496314D01*
X170775000Y-81499998D01*
X170775000Y-81500000D01*
X170774997Y-81500003D01*
X170774996Y-81500005D01*
X170772652Y-81502862D01*
X170577862Y-81697652D01*
X170575005Y-81699996D01*
X170575003Y-81699997D01*
X170575000Y-81700000D01*
X170574998Y-81700000D01*
X170571314Y-81700363D01*
X170178686Y-81700363D01*
X170175002Y-81700000D01*
X170175000Y-81700000D01*
X170174997Y-81699997D01*
X170174995Y-81699996D01*
X170172138Y-81697652D01*
X169977348Y-81502862D01*
X169975004Y-81500005D01*
X169975003Y-81500003D01*
X169975000Y-81500000D01*
X169975000Y-81499998D01*
X169974637Y-81496314D01*
X169974637Y-81303686D01*
X169975000Y-81300002D01*
X169975000Y-81300000D01*
X169975002Y-81300000D01*
X169978686Y-81299637D01*
X170771314Y-81299637D01*
X170774999Y-81300000D01*
G37*
G36*
X131850000Y-81700000D02*
G01*
X131350000Y-81700000D01*
X131350000Y-80800000D01*
X131850000Y-80800000D01*
X131850000Y-81700000D01*
G37*
G36*
X130350000Y-81700000D02*
G01*
X129850000Y-81700000D01*
X129850000Y-80800000D01*
X130350000Y-80800000D01*
X130350000Y-81700000D01*
G37*
G36*
X168818017Y-80687235D02*
G01*
X168912267Y-80715825D01*
X168912270Y-80715827D01*
X168912271Y-80715827D01*
X168999128Y-80762253D01*
X169075264Y-80824736D01*
X169137747Y-80900872D01*
X169184173Y-80987729D01*
X169184175Y-80987733D01*
X169212765Y-81081983D01*
X169222419Y-81180000D01*
X169212765Y-81278017D01*
X169184175Y-81372267D01*
X169184173Y-81372270D01*
X169184173Y-81372271D01*
X169137747Y-81459128D01*
X169075264Y-81535264D01*
X168999128Y-81597747D01*
X168912271Y-81644173D01*
X168912267Y-81644175D01*
X168818017Y-81672765D01*
X168744560Y-81680000D01*
X167595440Y-81680000D01*
X167521983Y-81672765D01*
X167427733Y-81644175D01*
X167427729Y-81644173D01*
X167340872Y-81597747D01*
X167264736Y-81535264D01*
X167202253Y-81459128D01*
X167155827Y-81372271D01*
X167155827Y-81372270D01*
X167155825Y-81372267D01*
X167127235Y-81278017D01*
X167117581Y-81180000D01*
X167127235Y-81081983D01*
X167155825Y-80987733D01*
X167155827Y-80987729D01*
X167202253Y-80900872D01*
X167264736Y-80824736D01*
X167340872Y-80762253D01*
X167427729Y-80715827D01*
X167427730Y-80715827D01*
X167427733Y-80715825D01*
X167521983Y-80687235D01*
X167595440Y-80680000D01*
X168744560Y-80680000D01*
X168818017Y-80687235D01*
G37*
G36*
X151885936Y-79573665D02*
G01*
X152040628Y-79637740D01*
X152179844Y-79730761D01*
X152298239Y-79849156D01*
X152391260Y-79988372D01*
X152455335Y-80143064D01*
X152488000Y-80307283D01*
X152488000Y-80474717D01*
X152455335Y-80638936D01*
X152391260Y-80793628D01*
X152298239Y-80932844D01*
X152179844Y-81051239D01*
X152040628Y-81144260D01*
X151885936Y-81208335D01*
X151721718Y-81241000D01*
X151554282Y-81241000D01*
X151390064Y-81208335D01*
X151235372Y-81144260D01*
X151096156Y-81051239D01*
X150977761Y-80932844D01*
X150884740Y-80793628D01*
X150820665Y-80638936D01*
X150788000Y-80474717D01*
X150788000Y-80307283D01*
X150820665Y-80143064D01*
X150884740Y-79988372D01*
X150977761Y-79849156D01*
X151096156Y-79730761D01*
X151235372Y-79637740D01*
X151390064Y-79573665D01*
X151554282Y-79541000D01*
X151721718Y-79541000D01*
X151885936Y-79573665D01*
G37*
G36*
X154425936Y-79573665D02*
G01*
X154580628Y-79637740D01*
X154719844Y-79730761D01*
X154838239Y-79849156D01*
X154931260Y-79988372D01*
X154995335Y-80143064D01*
X155028000Y-80307283D01*
X155028000Y-80474717D01*
X154995335Y-80638936D01*
X154931260Y-80793628D01*
X154838239Y-80932844D01*
X154719844Y-81051239D01*
X154580628Y-81144260D01*
X154425936Y-81208335D01*
X154261718Y-81241000D01*
X154094282Y-81241000D01*
X153930064Y-81208335D01*
X153775372Y-81144260D01*
X153636156Y-81051239D01*
X153517761Y-80932844D01*
X153424740Y-80793628D01*
X153360665Y-80638936D01*
X153328000Y-80474717D01*
X153328000Y-80307283D01*
X153360665Y-80143064D01*
X153424740Y-79988372D01*
X153517761Y-79849156D01*
X153636156Y-79730761D01*
X153775372Y-79637740D01*
X153930064Y-79573665D01*
X154094282Y-79541000D01*
X154261718Y-79541000D01*
X154425936Y-79573665D01*
G37*
G36*
X159505936Y-79573665D02*
G01*
X159660628Y-79637740D01*
X159799844Y-79730761D01*
X159918239Y-79849156D01*
X160011260Y-79988372D01*
X160075335Y-80143064D01*
X160108000Y-80307283D01*
X160108000Y-80474717D01*
X160075335Y-80638936D01*
X160011260Y-80793628D01*
X159918239Y-80932844D01*
X159799844Y-81051239D01*
X159660628Y-81144260D01*
X159505936Y-81208335D01*
X159341718Y-81241000D01*
X159174282Y-81241000D01*
X159010064Y-81208335D01*
X158855372Y-81144260D01*
X158716156Y-81051239D01*
X158597761Y-80932844D01*
X158504740Y-80793628D01*
X158440665Y-80638936D01*
X158408000Y-80474717D01*
X158408000Y-80307283D01*
X158440665Y-80143064D01*
X158504740Y-79988372D01*
X158597761Y-79849156D01*
X158716156Y-79730761D01*
X158855372Y-79637740D01*
X159010064Y-79573665D01*
X159174282Y-79541000D01*
X159341718Y-79541000D01*
X159505936Y-79573665D01*
G37*
G36*
X156965936Y-79573665D02*
G01*
X157120628Y-79637740D01*
X157259844Y-79730761D01*
X157378239Y-79849156D01*
X157471260Y-79988372D01*
X157535335Y-80143064D01*
X157568000Y-80307283D01*
X157568000Y-80474717D01*
X157535335Y-80638936D01*
X157471260Y-80793628D01*
X157378239Y-80932844D01*
X157259844Y-81051239D01*
X157120628Y-81144260D01*
X156965936Y-81208335D01*
X156801718Y-81241000D01*
X156634282Y-81241000D01*
X156470064Y-81208335D01*
X156315372Y-81144260D01*
X156176156Y-81051239D01*
X156057761Y-80932844D01*
X155964740Y-80793628D01*
X155900665Y-80638936D01*
X155868000Y-80474717D01*
X155868000Y-80307283D01*
X155900665Y-80143064D01*
X155964740Y-79988372D01*
X156057761Y-79849156D01*
X156176156Y-79730761D01*
X156315372Y-79637740D01*
X156470064Y-79573665D01*
X156634282Y-79541000D01*
X156801718Y-79541000D01*
X156965936Y-79573665D01*
G37*
G36*
X149345936Y-79573665D02*
G01*
X149500628Y-79637740D01*
X149639844Y-79730761D01*
X149758239Y-79849156D01*
X149851260Y-79988372D01*
X149915335Y-80143064D01*
X149948000Y-80307283D01*
X149948000Y-80474717D01*
X149915335Y-80638936D01*
X149851260Y-80793628D01*
X149758239Y-80932844D01*
X149639844Y-81051239D01*
X149500628Y-81144260D01*
X149345936Y-81208335D01*
X149181718Y-81241000D01*
X149014282Y-81241000D01*
X148850064Y-81208335D01*
X148695372Y-81144260D01*
X148556156Y-81051239D01*
X148437761Y-80932844D01*
X148344740Y-80793628D01*
X148280665Y-80638936D01*
X148248000Y-80474717D01*
X148248000Y-80307283D01*
X148280665Y-80143064D01*
X148344740Y-79988372D01*
X148437761Y-79849156D01*
X148556156Y-79730761D01*
X148695372Y-79637740D01*
X148850064Y-79573665D01*
X149014282Y-79541000D01*
X149181718Y-79541000D01*
X149345936Y-79573665D01*
G37*
G36*
X146805936Y-79573665D02*
G01*
X146960628Y-79637740D01*
X147099844Y-79730761D01*
X147218239Y-79849156D01*
X147311260Y-79988372D01*
X147375335Y-80143064D01*
X147408000Y-80307283D01*
X147408000Y-80474717D01*
X147375335Y-80638936D01*
X147311260Y-80793628D01*
X147218239Y-80932844D01*
X147099844Y-81051239D01*
X146960628Y-81144260D01*
X146805936Y-81208335D01*
X146641718Y-81241000D01*
X146474282Y-81241000D01*
X146310064Y-81208335D01*
X146155372Y-81144260D01*
X146016156Y-81051239D01*
X145897761Y-80932844D01*
X145804740Y-80793628D01*
X145740665Y-80638936D01*
X145708000Y-80474717D01*
X145708000Y-80307283D01*
X145740665Y-80143064D01*
X145804740Y-79988372D01*
X145897761Y-79849156D01*
X146016156Y-79730761D01*
X146155372Y-79637740D01*
X146310064Y-79573665D01*
X146474282Y-79541000D01*
X146641718Y-79541000D01*
X146805936Y-79573665D01*
G37*
G36*
X144265936Y-79573665D02*
G01*
X144420628Y-79637740D01*
X144559844Y-79730761D01*
X144678239Y-79849156D01*
X144771260Y-79988372D01*
X144835335Y-80143064D01*
X144868000Y-80307283D01*
X144868000Y-80474717D01*
X144835335Y-80638936D01*
X144771260Y-80793628D01*
X144678239Y-80932844D01*
X144559844Y-81051239D01*
X144420628Y-81144260D01*
X144265936Y-81208335D01*
X144101718Y-81241000D01*
X143934282Y-81241000D01*
X143770064Y-81208335D01*
X143615372Y-81144260D01*
X143476156Y-81051239D01*
X143357761Y-80932844D01*
X143264740Y-80793628D01*
X143200665Y-80638936D01*
X143168000Y-80474717D01*
X143168000Y-80307283D01*
X143200665Y-80143064D01*
X143264740Y-79988372D01*
X143357761Y-79849156D01*
X143476156Y-79730761D01*
X143615372Y-79637740D01*
X143770064Y-79573665D01*
X143934282Y-79541000D01*
X144101718Y-79541000D01*
X144265936Y-79573665D01*
G37*
G36*
X141725936Y-79573665D02*
G01*
X141880628Y-79637740D01*
X142019844Y-79730761D01*
X142138239Y-79849156D01*
X142231260Y-79988372D01*
X142295335Y-80143064D01*
X142328000Y-80307283D01*
X142328000Y-80474717D01*
X142295335Y-80638936D01*
X142231260Y-80793628D01*
X142138239Y-80932844D01*
X142019844Y-81051239D01*
X141880628Y-81144260D01*
X141725936Y-81208335D01*
X141561718Y-81241000D01*
X141394282Y-81241000D01*
X141230064Y-81208335D01*
X141075372Y-81144260D01*
X140936156Y-81051239D01*
X140817761Y-80932844D01*
X140724740Y-80793628D01*
X140660665Y-80638936D01*
X140628000Y-80474717D01*
X140628000Y-80307283D01*
X140660665Y-80143064D01*
X140724740Y-79988372D01*
X140817761Y-79849156D01*
X140936156Y-79730761D01*
X141075372Y-79637740D01*
X141230064Y-79573665D01*
X141394282Y-79541000D01*
X141561718Y-79541000D01*
X141725936Y-79573665D01*
G37*
G36*
X136645936Y-79573665D02*
G01*
X136800628Y-79637740D01*
X136939844Y-79730761D01*
X137058239Y-79849156D01*
X137151260Y-79988372D01*
X137215335Y-80143064D01*
X137248000Y-80307283D01*
X137248000Y-80474717D01*
X137215335Y-80638936D01*
X137151260Y-80793628D01*
X137058239Y-80932844D01*
X136939844Y-81051239D01*
X136800628Y-81144260D01*
X136645936Y-81208335D01*
X136481718Y-81241000D01*
X136314282Y-81241000D01*
X136150064Y-81208335D01*
X135995372Y-81144260D01*
X135856156Y-81051239D01*
X135737761Y-80932844D01*
X135644740Y-80793628D01*
X135580665Y-80638936D01*
X135548000Y-80474717D01*
X135548000Y-80307283D01*
X135580665Y-80143064D01*
X135644740Y-79988372D01*
X135737761Y-79849156D01*
X135856156Y-79730761D01*
X135995372Y-79637740D01*
X136150064Y-79573665D01*
X136314282Y-79541000D01*
X136481718Y-79541000D01*
X136645936Y-79573665D01*
G37*
G36*
X134105936Y-79573665D02*
G01*
X134260628Y-79637740D01*
X134399844Y-79730761D01*
X134518239Y-79849156D01*
X134611260Y-79988372D01*
X134675335Y-80143064D01*
X134708000Y-80307283D01*
X134708000Y-80474717D01*
X134675335Y-80638936D01*
X134611260Y-80793628D01*
X134518239Y-80932844D01*
X134399844Y-81051239D01*
X134260628Y-81144260D01*
X134105936Y-81208335D01*
X133941718Y-81241000D01*
X133774282Y-81241000D01*
X133610064Y-81208335D01*
X133455372Y-81144260D01*
X133316156Y-81051239D01*
X133197761Y-80932844D01*
X133104740Y-80793628D01*
X133040665Y-80638936D01*
X133008000Y-80474717D01*
X133008000Y-80307283D01*
X133040665Y-80143064D01*
X133104740Y-79988372D01*
X133197761Y-79849156D01*
X133316156Y-79730761D01*
X133455372Y-79637740D01*
X133610064Y-79573665D01*
X133774282Y-79541000D01*
X133941718Y-79541000D01*
X134105936Y-79573665D01*
G37*
G36*
X139185936Y-79573665D02*
G01*
X139340628Y-79637740D01*
X139479844Y-79730761D01*
X139598239Y-79849156D01*
X139691260Y-79988372D01*
X139755335Y-80143064D01*
X139788000Y-80307283D01*
X139788000Y-80474717D01*
X139755335Y-80638936D01*
X139691260Y-80793628D01*
X139598239Y-80932844D01*
X139479844Y-81051239D01*
X139340628Y-81144260D01*
X139185936Y-81208335D01*
X139021718Y-81241000D01*
X138854282Y-81241000D01*
X138690064Y-81208335D01*
X138535372Y-81144260D01*
X138396156Y-81051239D01*
X138277761Y-80932844D01*
X138184740Y-80793628D01*
X138120665Y-80638936D01*
X138088000Y-80474717D01*
X138088000Y-80307283D01*
X138120665Y-80143064D01*
X138184740Y-79988372D01*
X138277761Y-79849156D01*
X138396156Y-79730761D01*
X138535372Y-79637740D01*
X138690064Y-79573665D01*
X138854282Y-79541000D01*
X139021718Y-79541000D01*
X139185936Y-79573665D01*
G37*
G36*
X121500000Y-81150000D02*
G01*
X121000000Y-81150000D01*
X121000000Y-80250000D01*
X121500000Y-80250000D01*
X121500000Y-81150000D01*
G37*
G36*
X123000000Y-81150000D02*
G01*
X122500000Y-81150000D01*
X122500000Y-80250000D01*
X123000000Y-80250000D01*
X123000000Y-81150000D01*
G37*
G36*
X170574998Y-80700000D02*
G01*
X170575000Y-80700000D01*
X170575003Y-80700003D01*
X170575005Y-80700004D01*
X170577862Y-80702348D01*
X170772652Y-80897138D01*
X170774996Y-80899995D01*
X170774997Y-80899997D01*
X170775000Y-80900000D01*
X170775000Y-80900002D01*
X170775363Y-80903686D01*
X170775363Y-81096314D01*
X170775000Y-81099998D01*
X170775000Y-81100000D01*
X170774998Y-81100000D01*
X170771314Y-81100363D01*
X169978686Y-81100363D01*
X169975002Y-81100000D01*
X169975000Y-81100000D01*
X169975000Y-81099998D01*
X169974637Y-81096314D01*
X169974637Y-80903686D01*
X169975000Y-80900002D01*
X169975000Y-80900000D01*
X169975003Y-80899997D01*
X169975004Y-80899995D01*
X169977348Y-80897138D01*
X170172138Y-80702348D01*
X170174995Y-80700004D01*
X170174997Y-80700003D01*
X170175000Y-80700000D01*
X170175002Y-80700000D01*
X170178686Y-80699637D01*
X170571314Y-80699637D01*
X170574998Y-80700000D01*
G37*
G36*
X115030000Y-80675000D02*
G01*
X114130000Y-80675000D01*
X114130000Y-78075000D01*
X115030000Y-78075000D01*
X115030000Y-80675000D01*
G37*
G36*
X111930000Y-80675000D02*
G01*
X111030000Y-80675000D01*
X111030000Y-78075000D01*
X111930000Y-78075000D01*
X111930000Y-80675000D01*
G37*
G36*
X130350000Y-80550000D02*
G01*
X129850000Y-80550000D01*
X129850000Y-79650000D01*
X130350000Y-79650000D01*
X130350000Y-80550000D01*
G37*
G36*
X131850000Y-80550000D02*
G01*
X131350000Y-80550000D01*
X131350000Y-79650000D01*
X131850000Y-79650000D01*
X131850000Y-80550000D01*
G37*
G36*
X168625000Y-80225000D02*
G01*
X167725000Y-80225000D01*
X167725000Y-79725000D01*
X168625000Y-79725000D01*
X168625000Y-80225000D01*
G37*
G36*
X121500000Y-79750000D02*
G01*
X121000000Y-79750000D01*
X121000000Y-78850000D01*
X121500000Y-78850000D01*
X121500000Y-79750000D01*
G37*
G36*
X123000000Y-79750000D02*
G01*
X122500000Y-79750000D01*
X122500000Y-78850000D01*
X123000000Y-78850000D01*
X123000000Y-79750000D01*
G37*
G36*
X168625000Y-78725000D02*
G01*
X167725000Y-78725000D01*
X167725000Y-78225000D01*
X168625000Y-78225000D01*
X168625000Y-78725000D01*
G37*
G36*
X170925000Y-78675000D02*
G01*
X170025000Y-78675000D01*
X170025000Y-78175000D01*
X170925000Y-78175000D01*
X170925000Y-78675000D01*
G37*
G36*
X173116629Y-76832300D02*
G01*
X173276855Y-76880903D01*
X173424519Y-76959832D01*
X173553948Y-77066052D01*
X173660168Y-77195481D01*
X173739097Y-77343145D01*
X173787700Y-77503371D01*
X173804112Y-77670000D01*
X173787700Y-77836629D01*
X173739097Y-77996855D01*
X173660168Y-78144519D01*
X173553948Y-78273948D01*
X173424519Y-78380168D01*
X173276855Y-78459097D01*
X173116629Y-78507700D01*
X172991749Y-78520000D01*
X172108251Y-78520000D01*
X171983371Y-78507700D01*
X171823145Y-78459097D01*
X171675481Y-78380168D01*
X171546052Y-78273948D01*
X171439832Y-78144519D01*
X171360903Y-77996855D01*
X171312300Y-77836629D01*
X171295888Y-77670000D01*
X171312300Y-77503371D01*
X171360903Y-77343145D01*
X171439832Y-77195481D01*
X171546052Y-77066052D01*
X171675481Y-76959832D01*
X171823145Y-76880903D01*
X171983371Y-76832300D01*
X172108251Y-76820000D01*
X172991749Y-76820000D01*
X173116629Y-76832300D01*
G37*
G36*
X106777000Y-78320000D02*
G01*
X106027000Y-78320000D01*
X106027000Y-76620000D01*
X106777000Y-76620000D01*
X106777000Y-78320000D01*
G37*
G36*
X125150000Y-78200000D02*
G01*
X124250000Y-78200000D01*
X124250000Y-77700000D01*
X125150000Y-77700000D01*
X125150000Y-78200000D01*
G37*
G36*
X126550000Y-78200000D02*
G01*
X125650000Y-78200000D01*
X125650000Y-77700000D01*
X126550000Y-77700000D01*
X126550000Y-78200000D01*
G37*
G36*
X127950000Y-78200000D02*
G01*
X127050000Y-78200000D01*
X127050000Y-77700000D01*
X127950000Y-77700000D01*
X127950000Y-78200000D01*
G37*
G36*
X129350000Y-78200000D02*
G01*
X128450000Y-78200000D01*
X128450000Y-77700000D01*
X129350000Y-77700000D01*
X129350000Y-78200000D01*
G37*
G36*
X115030000Y-77754000D02*
G01*
X114130000Y-77754000D01*
X114130000Y-75154000D01*
X115030000Y-75154000D01*
X115030000Y-77754000D01*
G37*
G36*
X111930000Y-77754000D02*
G01*
X111030000Y-77754000D01*
X111030000Y-75154000D01*
X111930000Y-75154000D01*
X111930000Y-77754000D01*
G37*
G36*
X170925000Y-77175000D02*
G01*
X170025000Y-77175000D01*
X170025000Y-76675000D01*
X170925000Y-76675000D01*
X170925000Y-77175000D01*
G37*
G36*
X108933223Y-71891074D02*
G01*
X109388196Y-72079530D01*
X109797657Y-72353123D01*
X110145877Y-72701343D01*
X110419470Y-73110804D01*
X110419471Y-73110806D01*
X110607926Y-73565777D01*
X110704000Y-74048772D01*
X110704000Y-74541228D01*
X110681273Y-74655483D01*
X110607926Y-75024223D01*
X110419470Y-75479196D01*
X110145877Y-75888657D01*
X109797657Y-76236877D01*
X109388196Y-76510470D01*
X109388195Y-76510471D01*
X109388194Y-76510471D01*
X108933223Y-76698926D01*
X108710367Y-76743255D01*
X108696298Y-76747523D01*
X108683332Y-76754454D01*
X108671967Y-76763781D01*
X108662640Y-76775146D01*
X108655709Y-76788112D01*
X108651441Y-76802182D01*
X108650000Y-76816813D01*
X108650000Y-76970000D01*
X107750000Y-76970000D01*
X107750000Y-76815222D01*
X107748559Y-76800590D01*
X107744291Y-76786521D01*
X107737360Y-76773555D01*
X107728033Y-76762190D01*
X107716668Y-76752863D01*
X107703702Y-76745932D01*
X107689633Y-76741664D01*
X107474777Y-76698926D01*
X107019806Y-76510471D01*
X107019805Y-76510471D01*
X107019804Y-76510470D01*
X106610343Y-76236877D01*
X106262123Y-75888657D01*
X105988530Y-75479196D01*
X105800074Y-75024223D01*
X105726727Y-74655483D01*
X105704000Y-74541228D01*
X105704000Y-74048772D01*
X105800074Y-73565777D01*
X105988529Y-73110806D01*
X105988530Y-73110804D01*
X106262123Y-72701343D01*
X106610343Y-72353123D01*
X107019804Y-72079530D01*
X107474777Y-71891074D01*
X107957772Y-71795000D01*
X108450228Y-71795000D01*
X108933223Y-71891074D01*
G37*
G36*
X127950000Y-76700000D02*
G01*
X127050000Y-76700000D01*
X127050000Y-76200000D01*
X127950000Y-76200000D01*
X127950000Y-76700000D01*
G37*
G36*
X126550000Y-76700000D02*
G01*
X125650000Y-76700000D01*
X125650000Y-76200000D01*
X126550000Y-76200000D01*
X126550000Y-76700000D01*
G37*
G36*
X125150000Y-76700000D02*
G01*
X124250000Y-76700000D01*
X124250000Y-76200000D01*
X125150000Y-76200000D01*
X125150000Y-76700000D01*
G37*
G36*
X129350000Y-76700000D02*
G01*
X128450000Y-76700000D01*
X128450000Y-76200000D01*
X129350000Y-76200000D01*
X129350000Y-76700000D01*
G37*
G36*
X170925000Y-76125000D02*
G01*
X170025000Y-76125000D01*
X170025000Y-75625000D01*
X170925000Y-75625000D01*
X170925000Y-76125000D01*
G37*
G36*
X173116629Y-74292300D02*
G01*
X173276855Y-74340903D01*
X173424519Y-74419832D01*
X173553948Y-74526052D01*
X173660168Y-74655481D01*
X173739097Y-74803145D01*
X173787700Y-74963371D01*
X173804112Y-75130000D01*
X173787700Y-75296629D01*
X173739097Y-75456855D01*
X173660168Y-75604519D01*
X173553948Y-75733948D01*
X173424519Y-75840168D01*
X173276855Y-75919097D01*
X173116629Y-75967700D01*
X172991749Y-75980000D01*
X172108251Y-75980000D01*
X171983371Y-75967700D01*
X171823145Y-75919097D01*
X171675481Y-75840168D01*
X171546052Y-75733948D01*
X171439832Y-75604519D01*
X171360903Y-75456855D01*
X171312300Y-75296629D01*
X171295888Y-75130000D01*
X171312300Y-74963371D01*
X171360903Y-74803145D01*
X171439832Y-74655481D01*
X171546052Y-74526052D01*
X171675481Y-74419832D01*
X171823145Y-74340903D01*
X171983371Y-74292300D01*
X172108251Y-74280000D01*
X172991749Y-74280000D01*
X173116629Y-74292300D01*
G37*
G36*
X115030000Y-74833000D02*
G01*
X114130000Y-74833000D01*
X114130000Y-72233000D01*
X115030000Y-72233000D01*
X115030000Y-74833000D01*
G37*
G36*
X111930000Y-74833000D02*
G01*
X111030000Y-74833000D01*
X111030000Y-72233000D01*
X111930000Y-72233000D01*
X111930000Y-74833000D01*
G37*
G36*
X170925000Y-74625000D02*
G01*
X170025000Y-74625000D01*
X170025000Y-74125000D01*
X170925000Y-74125000D01*
X170925000Y-74625000D01*
G37*
G36*
X115030000Y-71912000D02*
G01*
X114130000Y-71912000D01*
X114130000Y-69312000D01*
X115030000Y-69312000D01*
X115030000Y-71912000D01*
G37*
G36*
X111930000Y-71912000D02*
G01*
X111030000Y-71912000D01*
X111030000Y-69312000D01*
X111930000Y-69312000D01*
X111930000Y-71912000D01*
G37*
G36*
X125700000Y-71750000D02*
G01*
X125200000Y-71750000D01*
X125200000Y-70850000D01*
X125700000Y-70850000D01*
X125700000Y-71750000D01*
G37*
G36*
X127200000Y-71750000D02*
G01*
X126700000Y-71750000D01*
X126700000Y-70850000D01*
X127200000Y-70850000D01*
X127200000Y-71750000D01*
G37*
G36*
X170925000Y-70675000D02*
G01*
X170025000Y-70675000D01*
X170025000Y-70175000D01*
X170925000Y-70175000D01*
X170925000Y-70675000D01*
G37*
G36*
X173116629Y-68832300D02*
G01*
X173276855Y-68880903D01*
X173424519Y-68959832D01*
X173553948Y-69066052D01*
X173660168Y-69195481D01*
X173739097Y-69343145D01*
X173787700Y-69503371D01*
X173804112Y-69670000D01*
X173787700Y-69836629D01*
X173739097Y-69996855D01*
X173660168Y-70144519D01*
X173553948Y-70273948D01*
X173424519Y-70380168D01*
X173276855Y-70459097D01*
X173116629Y-70507700D01*
X172991749Y-70520000D01*
X172108251Y-70520000D01*
X171983371Y-70507700D01*
X171823145Y-70459097D01*
X171675481Y-70380168D01*
X171546052Y-70273948D01*
X171439832Y-70144519D01*
X171360903Y-69996855D01*
X171312300Y-69836629D01*
X171295888Y-69670000D01*
X171312300Y-69503371D01*
X171360903Y-69343145D01*
X171439832Y-69195481D01*
X171546052Y-69066052D01*
X171675481Y-68959832D01*
X171823145Y-68880903D01*
X171983371Y-68832300D01*
X172108251Y-68820000D01*
X172991749Y-68820000D01*
X173116629Y-68832300D01*
G37*
G36*
X108650000Y-65423187D02*
G01*
X108651441Y-65437819D01*
X108655709Y-65451888D01*
X108662640Y-65464854D01*
X108671967Y-65476219D01*
X108683332Y-65485546D01*
X108696298Y-65492477D01*
X108710367Y-65496745D01*
X108768825Y-65508373D01*
X108933223Y-65541074D01*
X109235541Y-65666298D01*
X109388196Y-65729530D01*
X109797657Y-66003123D01*
X110145877Y-66351343D01*
X110376589Y-66696628D01*
X110419471Y-66760806D01*
X110607926Y-67215777D01*
X110704000Y-67698772D01*
X110704000Y-68191228D01*
X110607926Y-68674223D01*
X110420282Y-69127237D01*
X110419470Y-69129196D01*
X110145877Y-69538657D01*
X109797657Y-69886877D01*
X109388196Y-70160470D01*
X109388195Y-70160471D01*
X109388194Y-70160471D01*
X108933223Y-70348926D01*
X108450228Y-70445000D01*
X107957772Y-70445000D01*
X107474777Y-70348926D01*
X107019806Y-70160471D01*
X107019805Y-70160471D01*
X107019804Y-70160470D01*
X106610343Y-69886877D01*
X106262123Y-69538657D01*
X105988530Y-69129196D01*
X105987719Y-69127237D01*
X105800074Y-68674223D01*
X105704000Y-68191228D01*
X105704000Y-67698772D01*
X105800074Y-67215777D01*
X105988529Y-66760806D01*
X106031411Y-66696628D01*
X106262123Y-66351343D01*
X106610343Y-66003123D01*
X107019804Y-65729530D01*
X107172460Y-65666298D01*
X107474777Y-65541074D01*
X107476456Y-65540740D01*
X107689633Y-65498336D01*
X107703702Y-65494068D01*
X107716668Y-65487137D01*
X107728033Y-65477810D01*
X107737360Y-65466445D01*
X107744291Y-65453479D01*
X107748559Y-65439409D01*
X107750000Y-65424778D01*
X107750000Y-65250000D01*
X108650000Y-65250000D01*
X108650000Y-65423187D01*
G37*
G36*
X125700000Y-70350000D02*
G01*
X125200000Y-70350000D01*
X125200000Y-69450000D01*
X125700000Y-69450000D01*
X125700000Y-70350000D01*
G37*
G36*
X127200000Y-70350000D02*
G01*
X126700000Y-70350000D01*
X126700000Y-69450000D01*
X127200000Y-69450000D01*
X127200000Y-70350000D01*
G37*
G36*
X141071336Y-69324639D02*
G01*
X141075173Y-69324827D01*
X141075361Y-69328664D01*
X141075363Y-69328684D01*
X141075363Y-69521316D01*
X141075361Y-69521336D01*
X141075000Y-69528686D01*
X141075000Y-70225000D01*
X140523757Y-70225000D01*
X140514633Y-70222232D01*
X140500001Y-70220791D01*
X140478231Y-70224020D01*
X140475000Y-70225000D01*
X140471314Y-70225363D01*
X140278686Y-70225363D01*
X140275002Y-70225000D01*
X140275000Y-70225000D01*
X140275000Y-70224998D01*
X140274637Y-70221314D01*
X140274637Y-69328686D01*
X140275000Y-69325002D01*
X140275000Y-69325000D01*
X140275002Y-69325000D01*
X140278686Y-69324637D01*
X141071316Y-69324637D01*
X141071336Y-69324639D01*
G37*
G36*
X152724999Y-69425000D02*
G01*
X152725000Y-69425000D01*
X152725000Y-69425002D01*
X152725363Y-69428686D01*
X152725363Y-70221314D01*
X152725000Y-70224996D01*
X152725000Y-70225000D01*
X152724998Y-70225000D01*
X152721314Y-70225363D01*
X152528686Y-70225363D01*
X152525002Y-70225000D01*
X152525000Y-70225000D01*
X152524997Y-70224997D01*
X152524995Y-70224996D01*
X152522138Y-70222652D01*
X152327348Y-70027862D01*
X152325004Y-70025005D01*
X152325003Y-70025003D01*
X152325000Y-70025000D01*
X152325000Y-70024998D01*
X152324637Y-70021314D01*
X152324637Y-69628686D01*
X152325000Y-69625002D01*
X152325000Y-69625000D01*
X152325003Y-69624997D01*
X152325004Y-69624995D01*
X152327348Y-69622138D01*
X152522138Y-69427348D01*
X152524995Y-69425004D01*
X152524997Y-69425003D01*
X152525000Y-69425000D01*
X152525002Y-69425000D01*
X152528686Y-69424637D01*
X152721314Y-69424637D01*
X152724999Y-69425000D01*
G37*
G36*
X153721336Y-69324639D02*
G01*
X153725173Y-69324827D01*
X153725361Y-69328664D01*
X153725363Y-69328684D01*
X153725363Y-69521316D01*
X153725361Y-69521336D01*
X153725000Y-69528686D01*
X153725000Y-70225000D01*
X153173757Y-70225000D01*
X153164633Y-70222232D01*
X153150001Y-70220791D01*
X153128231Y-70224020D01*
X153125000Y-70225000D01*
X153121314Y-70225363D01*
X152928686Y-70225363D01*
X152925002Y-70225000D01*
X152925000Y-70225000D01*
X152925000Y-70224998D01*
X152924637Y-70221314D01*
X152924637Y-69328686D01*
X152925000Y-69325002D01*
X152925000Y-69325000D01*
X152925002Y-69325000D01*
X152928686Y-69324637D01*
X153721316Y-69324637D01*
X153721336Y-69324639D01*
G37*
G36*
X159049999Y-69425000D02*
G01*
X159050000Y-69425000D01*
X159050000Y-69425002D01*
X159050363Y-69428686D01*
X159050363Y-70221314D01*
X159050000Y-70224996D01*
X159050000Y-70225000D01*
X159049998Y-70225000D01*
X159046314Y-70225363D01*
X158853686Y-70225363D01*
X158850002Y-70225000D01*
X158850000Y-70225000D01*
X158849997Y-70224997D01*
X158849995Y-70224996D01*
X158847138Y-70222652D01*
X158652348Y-70027862D01*
X158650004Y-70025005D01*
X158650003Y-70025003D01*
X158650000Y-70025000D01*
X158650000Y-70024998D01*
X158649637Y-70021314D01*
X158649637Y-69628686D01*
X158650000Y-69625002D01*
X158650000Y-69625000D01*
X158650003Y-69624997D01*
X158650004Y-69624995D01*
X158652348Y-69622138D01*
X158847138Y-69427348D01*
X158849995Y-69425004D01*
X158849997Y-69425003D01*
X158850000Y-69425000D01*
X158850002Y-69425000D01*
X158853686Y-69424637D01*
X159046314Y-69424637D01*
X159049999Y-69425000D01*
G37*
G36*
X160046336Y-69324639D02*
G01*
X160050173Y-69324827D01*
X160050361Y-69328664D01*
X160050363Y-69328684D01*
X160050363Y-69521316D01*
X160050361Y-69521336D01*
X160050000Y-69528686D01*
X160050000Y-70225000D01*
X159498757Y-70225000D01*
X159489633Y-70222232D01*
X159475001Y-70220791D01*
X159453231Y-70224020D01*
X159450000Y-70225000D01*
X159446314Y-70225363D01*
X159253686Y-70225363D01*
X159250002Y-70225000D01*
X159250000Y-70225000D01*
X159250000Y-70224998D01*
X159249637Y-70221314D01*
X159249637Y-69328686D01*
X159250000Y-69325002D01*
X159250000Y-69325000D01*
X159250002Y-69325000D01*
X159253686Y-69324637D01*
X160046316Y-69324637D01*
X160046336Y-69324639D01*
G37*
G36*
X166371336Y-69324639D02*
G01*
X166375173Y-69324827D01*
X166375361Y-69328664D01*
X166375363Y-69328684D01*
X166375363Y-69521316D01*
X166375361Y-69521336D01*
X166375000Y-69528686D01*
X166375000Y-70225000D01*
X165823757Y-70225000D01*
X165814633Y-70222232D01*
X165800001Y-70220791D01*
X165778231Y-70224020D01*
X165775000Y-70225000D01*
X165771314Y-70225363D01*
X165578686Y-70225363D01*
X165575002Y-70225000D01*
X165575000Y-70225000D01*
X165575000Y-70224998D01*
X165574637Y-70221314D01*
X165574637Y-69328686D01*
X165575000Y-69325002D01*
X165575000Y-69325000D01*
X165575001Y-69325000D01*
X165578686Y-69324637D01*
X166371316Y-69324637D01*
X166371336Y-69324639D01*
G37*
G36*
X165374998Y-69425000D02*
G01*
X165375000Y-69425000D01*
X165375000Y-69425002D01*
X165375363Y-69428686D01*
X165375363Y-70221314D01*
X165375000Y-70224996D01*
X165375000Y-70225000D01*
X165374998Y-70225000D01*
X165371314Y-70225363D01*
X165178686Y-70225363D01*
X165175002Y-70225000D01*
X165175000Y-70225000D01*
X165174997Y-70224997D01*
X165174995Y-70224996D01*
X165172138Y-70222652D01*
X164977348Y-70027862D01*
X164975004Y-70025005D01*
X164975003Y-70025003D01*
X164975000Y-70025000D01*
X164975000Y-70024998D01*
X164974637Y-70021314D01*
X164974637Y-69628686D01*
X164975000Y-69625002D01*
X164975000Y-69625000D01*
X164975003Y-69624997D01*
X164975004Y-69624995D01*
X164977348Y-69622138D01*
X165172138Y-69427348D01*
X165174995Y-69425004D01*
X165174997Y-69425003D01*
X165175000Y-69425000D01*
X165175002Y-69425000D01*
X165178686Y-69424637D01*
X165371314Y-69424637D01*
X165374998Y-69425000D01*
G37*
G36*
X147396336Y-69324639D02*
G01*
X147400173Y-69324827D01*
X147400361Y-69328664D01*
X147400363Y-69328684D01*
X147400363Y-69521316D01*
X147400361Y-69521336D01*
X147400000Y-69528686D01*
X147400000Y-70225000D01*
X146848757Y-70225000D01*
X146839633Y-70222232D01*
X146825001Y-70220791D01*
X146803231Y-70224020D01*
X146800000Y-70225000D01*
X146796314Y-70225363D01*
X146603686Y-70225363D01*
X146600002Y-70225000D01*
X146600000Y-70225000D01*
X146600000Y-70224998D01*
X146599637Y-70221314D01*
X146599637Y-69328686D01*
X146600000Y-69325002D01*
X146600000Y-69325000D01*
X146600002Y-69325000D01*
X146603686Y-69324637D01*
X147396316Y-69324637D01*
X147396336Y-69324639D01*
G37*
G36*
X146399999Y-69425000D02*
G01*
X146400000Y-69425000D01*
X146400000Y-69425002D01*
X146400363Y-69428686D01*
X146400363Y-70221314D01*
X146400000Y-70224996D01*
X146400000Y-70225000D01*
X146399998Y-70225000D01*
X146396314Y-70225363D01*
X146203686Y-70225363D01*
X146200002Y-70225000D01*
X146200000Y-70225000D01*
X146199997Y-70224997D01*
X146199995Y-70224996D01*
X146197138Y-70222652D01*
X146002348Y-70027862D01*
X146000004Y-70025005D01*
X146000003Y-70025003D01*
X146000000Y-70025000D01*
X146000000Y-70024998D01*
X145999637Y-70021314D01*
X145999637Y-69628686D01*
X146000000Y-69625002D01*
X146000000Y-69625000D01*
X146000003Y-69624997D01*
X146000004Y-69624995D01*
X146002348Y-69622138D01*
X146197138Y-69427348D01*
X146199995Y-69425004D01*
X146199997Y-69425003D01*
X146200000Y-69425000D01*
X146200002Y-69425000D01*
X146203686Y-69424637D01*
X146396314Y-69424637D01*
X146399999Y-69425000D01*
G37*
G36*
X133749999Y-69425000D02*
G01*
X133750000Y-69425000D01*
X133750000Y-69425002D01*
X133750363Y-69428686D01*
X133750363Y-70221314D01*
X133750000Y-70224996D01*
X133750000Y-70225000D01*
X133749998Y-70225000D01*
X133746314Y-70225363D01*
X133553686Y-70225363D01*
X133550002Y-70225000D01*
X133550000Y-70225000D01*
X133549997Y-70224997D01*
X133549995Y-70224996D01*
X133547138Y-70222652D01*
X133352348Y-70027862D01*
X133350004Y-70025005D01*
X133350003Y-70025003D01*
X133350000Y-70025000D01*
X133350000Y-70024998D01*
X133349637Y-70021314D01*
X133349637Y-69628686D01*
X133350000Y-69625002D01*
X133350000Y-69625000D01*
X133350003Y-69624997D01*
X133350004Y-69624995D01*
X133352348Y-69622138D01*
X133547138Y-69427348D01*
X133549995Y-69425004D01*
X133549997Y-69425003D01*
X133550000Y-69425000D01*
X133550002Y-69425000D01*
X133553686Y-69424637D01*
X133746314Y-69424637D01*
X133749999Y-69425000D01*
G37*
G36*
X140074999Y-69425000D02*
G01*
X140075000Y-69425000D01*
X140075000Y-69425002D01*
X140075363Y-69428686D01*
X140075363Y-70221314D01*
X140075000Y-70224996D01*
X140075000Y-70225000D01*
X140074998Y-70225000D01*
X140071314Y-70225363D01*
X139878686Y-70225363D01*
X139875002Y-70225000D01*
X139875000Y-70225000D01*
X139874997Y-70224997D01*
X139874995Y-70224996D01*
X139872138Y-70222652D01*
X139677348Y-70027862D01*
X139675004Y-70025005D01*
X139675003Y-70025003D01*
X139675000Y-70025000D01*
X139675000Y-70024998D01*
X139674637Y-70021314D01*
X139674637Y-69628686D01*
X139675000Y-69625002D01*
X139675000Y-69625000D01*
X139675003Y-69624997D01*
X139675004Y-69624995D01*
X139677348Y-69622138D01*
X139872138Y-69427348D01*
X139874995Y-69425004D01*
X139874997Y-69425003D01*
X139875000Y-69425000D01*
X139875002Y-69425000D01*
X139878686Y-69424637D01*
X140071314Y-69424637D01*
X140074999Y-69425000D01*
G37*
G36*
X134746336Y-69324639D02*
G01*
X134750173Y-69324827D01*
X134750361Y-69328664D01*
X134750363Y-69328684D01*
X134750363Y-69521316D01*
X134750361Y-69521336D01*
X134750000Y-69528686D01*
X134750000Y-70225000D01*
X134198757Y-70225000D01*
X134189633Y-70222232D01*
X134175001Y-70220791D01*
X134153231Y-70224020D01*
X134150000Y-70225000D01*
X134146314Y-70225363D01*
X133953686Y-70225363D01*
X133950002Y-70225000D01*
X133950000Y-70225000D01*
X133950000Y-70224998D01*
X133949637Y-70221314D01*
X133949637Y-69328686D01*
X133950000Y-69325002D01*
X133950000Y-69325000D01*
X133950002Y-69325000D01*
X133953686Y-69324637D01*
X134746316Y-69324637D01*
X134746336Y-69324639D01*
G37*
G36*
X148900000Y-70225000D02*
G01*
X148400000Y-70225000D01*
X148400000Y-69325000D01*
X148900000Y-69325000D01*
X148900000Y-70225000D01*
G37*
G36*
X155225000Y-70225000D02*
G01*
X154725000Y-70225000D01*
X154725000Y-69325000D01*
X155225000Y-69325000D01*
X155225000Y-70225000D01*
G37*
G36*
X142575000Y-70225000D02*
G01*
X142075000Y-70225000D01*
X142075000Y-69325000D01*
X142575000Y-69325000D01*
X142575000Y-70225000D01*
G37*
G36*
X167875000Y-70225000D02*
G01*
X167375000Y-70225000D01*
X167375000Y-69325000D01*
X167875000Y-69325000D01*
X167875000Y-70225000D01*
G37*
G36*
X136250000Y-70225000D02*
G01*
X135750000Y-70225000D01*
X135750000Y-69325000D01*
X136250000Y-69325000D01*
X136250000Y-70225000D01*
G37*
G36*
X161550000Y-70225000D02*
G01*
X161050000Y-70225000D01*
X161050000Y-69325000D01*
X161550000Y-69325000D01*
X161550000Y-70225000D01*
G37*
G36*
X163125000Y-70100000D02*
G01*
X162225000Y-70100000D01*
X162225000Y-69450000D01*
X163125000Y-69450000D01*
X163125000Y-70100000D01*
G37*
G36*
X131500000Y-70100000D02*
G01*
X130600000Y-70100000D01*
X130600000Y-69450000D01*
X131500000Y-69450000D01*
X131500000Y-70100000D01*
G37*
G36*
X137825000Y-70100000D02*
G01*
X136925000Y-70100000D01*
X136925000Y-69450000D01*
X137825000Y-69450000D01*
X137825000Y-70100000D01*
G37*
G36*
X156800000Y-70100000D02*
G01*
X155900000Y-70100000D01*
X155900000Y-69450000D01*
X156800000Y-69450000D01*
X156800000Y-70100000D01*
G37*
G36*
X144150000Y-70100000D02*
G01*
X143250000Y-70100000D01*
X143250000Y-69450000D01*
X144150000Y-69450000D01*
X144150000Y-70100000D01*
G37*
G36*
X150475000Y-70100000D02*
G01*
X149575000Y-70100000D01*
X149575000Y-69450000D01*
X150475000Y-69450000D01*
X150475000Y-70100000D01*
G37*
G36*
X170925000Y-69175000D02*
G01*
X170025000Y-69175000D01*
X170025000Y-68675000D01*
X170925000Y-68675000D01*
X170925000Y-69175000D01*
G37*
G36*
X153891629Y-67377300D02*
G01*
X154051855Y-67425903D01*
X154199519Y-67504832D01*
X154328948Y-67611052D01*
X154435168Y-67740481D01*
X154514097Y-67888145D01*
X154562700Y-68048371D01*
X154579112Y-68215000D01*
X154562700Y-68381629D01*
X154514097Y-68541855D01*
X154435168Y-68689519D01*
X154328948Y-68818948D01*
X154199519Y-68925168D01*
X154051855Y-69004097D01*
X153891629Y-69052700D01*
X153791808Y-69062532D01*
X153777392Y-69065399D01*
X153763809Y-69071026D01*
X153751584Y-69079194D01*
X153741188Y-69089590D01*
X153733020Y-69101815D01*
X153727393Y-69115398D01*
X153726405Y-69120371D01*
X153725001Y-69124996D01*
X153725000Y-69124998D01*
X153725000Y-69125000D01*
X153724999Y-69125000D01*
X153721314Y-69125363D01*
X152928686Y-69125363D01*
X152925002Y-69125000D01*
X152925000Y-69125000D01*
X152924999Y-69124996D01*
X152923598Y-69120379D01*
X152922611Y-69115411D01*
X152916987Y-69101827D01*
X152908821Y-69089601D01*
X152898427Y-69079203D01*
X152886204Y-69071032D01*
X152872621Y-69065404D01*
X152858192Y-69062532D01*
X152758371Y-69052700D01*
X152758369Y-69052699D01*
X152757350Y-69052599D01*
X152742648Y-69052599D01*
X152728228Y-69055467D01*
X152714645Y-69061094D01*
X152702420Y-69069262D01*
X152692024Y-69079658D01*
X152683856Y-69091883D01*
X152678230Y-69105466D01*
X152675361Y-69119886D01*
X152675000Y-69127237D01*
X152675000Y-69150000D01*
X151775000Y-69150000D01*
X151775000Y-68500000D01*
X152022083Y-68500000D01*
X152036715Y-68498559D01*
X152050784Y-68494291D01*
X152063750Y-68487360D01*
X152075115Y-68478033D01*
X152084442Y-68466668D01*
X152091373Y-68453702D01*
X152095641Y-68439633D01*
X152097082Y-68425001D01*
X152095641Y-68410369D01*
X152093856Y-68403240D01*
X152087300Y-68381629D01*
X152070888Y-68215000D01*
X152087300Y-68048371D01*
X152135903Y-67888145D01*
X152214832Y-67740481D01*
X152321052Y-67611052D01*
X152450481Y-67504832D01*
X152598145Y-67425903D01*
X152758371Y-67377300D01*
X152883251Y-67365000D01*
X153766749Y-67365000D01*
X153891629Y-67377300D01*
G37*
G36*
X166541629Y-67377300D02*
G01*
X166701855Y-67425903D01*
X166849519Y-67504832D01*
X166978948Y-67611052D01*
X167085168Y-67740481D01*
X167164097Y-67888145D01*
X167212700Y-68048371D01*
X167229112Y-68215000D01*
X167212700Y-68381629D01*
X167164097Y-68541855D01*
X167085168Y-68689519D01*
X166978948Y-68818948D01*
X166849519Y-68925168D01*
X166701855Y-69004097D01*
X166541629Y-69052700D01*
X166441808Y-69062532D01*
X166427392Y-69065399D01*
X166413809Y-69071026D01*
X166401584Y-69079194D01*
X166391188Y-69089590D01*
X166383020Y-69101815D01*
X166377393Y-69115398D01*
X166376405Y-69120371D01*
X166375001Y-69124996D01*
X166375000Y-69124998D01*
X166375000Y-69125000D01*
X166374999Y-69125000D01*
X166371314Y-69125363D01*
X165578686Y-69125363D01*
X165575002Y-69125000D01*
X165575000Y-69125000D01*
X165574999Y-69124996D01*
X165573598Y-69120379D01*
X165572611Y-69115411D01*
X165566987Y-69101827D01*
X165558821Y-69089601D01*
X165548427Y-69079203D01*
X165536204Y-69071032D01*
X165522621Y-69065404D01*
X165508192Y-69062532D01*
X165408371Y-69052700D01*
X165408369Y-69052699D01*
X165407350Y-69052599D01*
X165392648Y-69052599D01*
X165378228Y-69055467D01*
X165364645Y-69061094D01*
X165352420Y-69069262D01*
X165342024Y-69079658D01*
X165333856Y-69091883D01*
X165328230Y-69105466D01*
X165325361Y-69119886D01*
X165325000Y-69127237D01*
X165325000Y-69150000D01*
X164425000Y-69150000D01*
X164425000Y-68500000D01*
X164672083Y-68500000D01*
X164686715Y-68498559D01*
X164700784Y-68494291D01*
X164713750Y-68487360D01*
X164725115Y-68478033D01*
X164734442Y-68466668D01*
X164741373Y-68453702D01*
X164745641Y-68439633D01*
X164747082Y-68425001D01*
X164745641Y-68410369D01*
X164743856Y-68403240D01*
X164737300Y-68381629D01*
X164720888Y-68215000D01*
X164737300Y-68048371D01*
X164785903Y-67888145D01*
X164864832Y-67740481D01*
X164971052Y-67611052D01*
X165100481Y-67504832D01*
X165248145Y-67425903D01*
X165408371Y-67377300D01*
X165533251Y-67365000D01*
X166416749Y-67365000D01*
X166541629Y-67377300D01*
G37*
G36*
X160216629Y-67377300D02*
G01*
X160376855Y-67425903D01*
X160524519Y-67504832D01*
X160653948Y-67611052D01*
X160760168Y-67740481D01*
X160839097Y-67888145D01*
X160887700Y-68048371D01*
X160904112Y-68215000D01*
X160887700Y-68381629D01*
X160839097Y-68541855D01*
X160760168Y-68689519D01*
X160653948Y-68818948D01*
X160524519Y-68925168D01*
X160376855Y-69004097D01*
X160216629Y-69052700D01*
X160116808Y-69062532D01*
X160102392Y-69065399D01*
X160088809Y-69071026D01*
X160076584Y-69079194D01*
X160066188Y-69089590D01*
X160058020Y-69101815D01*
X160052393Y-69115398D01*
X160051405Y-69120371D01*
X160050001Y-69124996D01*
X160050000Y-69124998D01*
X160050000Y-69125000D01*
X160049999Y-69125000D01*
X160046314Y-69125363D01*
X159253686Y-69125363D01*
X159250002Y-69125000D01*
X159250000Y-69125000D01*
X159249999Y-69124996D01*
X159248598Y-69120379D01*
X159247611Y-69115411D01*
X159241987Y-69101827D01*
X159233821Y-69089601D01*
X159223427Y-69079203D01*
X159211204Y-69071032D01*
X159197621Y-69065404D01*
X159183192Y-69062532D01*
X159083371Y-69052700D01*
X159083369Y-69052699D01*
X159082350Y-69052599D01*
X159067648Y-69052599D01*
X159053228Y-69055467D01*
X159039645Y-69061094D01*
X159027420Y-69069262D01*
X159017024Y-69079658D01*
X159008856Y-69091883D01*
X159003230Y-69105466D01*
X159000361Y-69119886D01*
X159000000Y-69127237D01*
X159000000Y-69150000D01*
X158100000Y-69150000D01*
X158100000Y-68500000D01*
X158347083Y-68500000D01*
X158361715Y-68498559D01*
X158375784Y-68494291D01*
X158388750Y-68487360D01*
X158400115Y-68478033D01*
X158409442Y-68466668D01*
X158416373Y-68453702D01*
X158420641Y-68439633D01*
X158422082Y-68425001D01*
X158420641Y-68410369D01*
X158418856Y-68403240D01*
X158412300Y-68381629D01*
X158395888Y-68215000D01*
X158412300Y-68048371D01*
X158460903Y-67888145D01*
X158539832Y-67740481D01*
X158646052Y-67611052D01*
X158775481Y-67504832D01*
X158923145Y-67425903D01*
X159083371Y-67377300D01*
X159208251Y-67365000D01*
X160091749Y-67365000D01*
X160216629Y-67377300D01*
G37*
G36*
X134916629Y-67377300D02*
G01*
X135076855Y-67425903D01*
X135224519Y-67504832D01*
X135353948Y-67611052D01*
X135460168Y-67740481D01*
X135539097Y-67888145D01*
X135587700Y-68048371D01*
X135604112Y-68215000D01*
X135587700Y-68381629D01*
X135539097Y-68541855D01*
X135460168Y-68689519D01*
X135353948Y-68818948D01*
X135224519Y-68925168D01*
X135076855Y-69004097D01*
X134916629Y-69052700D01*
X134816808Y-69062532D01*
X134802392Y-69065399D01*
X134788809Y-69071026D01*
X134776584Y-69079194D01*
X134766188Y-69089590D01*
X134758020Y-69101815D01*
X134752393Y-69115398D01*
X134751405Y-69120371D01*
X134750001Y-69124996D01*
X134750000Y-69124998D01*
X134750000Y-69125000D01*
X134749999Y-69125000D01*
X134746314Y-69125363D01*
X133953686Y-69125363D01*
X133950002Y-69125000D01*
X133950000Y-69125000D01*
X133949999Y-69124996D01*
X133948598Y-69120379D01*
X133947611Y-69115411D01*
X133941987Y-69101827D01*
X133933821Y-69089601D01*
X133923427Y-69079203D01*
X133911204Y-69071032D01*
X133897621Y-69065404D01*
X133883192Y-69062532D01*
X133783371Y-69052700D01*
X133783369Y-69052699D01*
X133782350Y-69052599D01*
X133767648Y-69052599D01*
X133753228Y-69055467D01*
X133739645Y-69061094D01*
X133727420Y-69069262D01*
X133717024Y-69079658D01*
X133708856Y-69091883D01*
X133703230Y-69105466D01*
X133700361Y-69119886D01*
X133700000Y-69127237D01*
X133700000Y-69150000D01*
X132800000Y-69150000D01*
X132800000Y-68500000D01*
X133047083Y-68500000D01*
X133061715Y-68498559D01*
X133075784Y-68494291D01*
X133088750Y-68487360D01*
X133100115Y-68478033D01*
X133109442Y-68466668D01*
X133116373Y-68453702D01*
X133120641Y-68439633D01*
X133122082Y-68425001D01*
X133120641Y-68410369D01*
X133118856Y-68403240D01*
X133112300Y-68381629D01*
X133095888Y-68215000D01*
X133112300Y-68048371D01*
X133160903Y-67888145D01*
X133239832Y-67740481D01*
X133346052Y-67611052D01*
X133475481Y-67504832D01*
X133623145Y-67425903D01*
X133783371Y-67377300D01*
X133908251Y-67365000D01*
X134791749Y-67365000D01*
X134916629Y-67377300D01*
G37*
G36*
X147566629Y-67377300D02*
G01*
X147726855Y-67425903D01*
X147874519Y-67504832D01*
X148003948Y-67611052D01*
X148110168Y-67740481D01*
X148189097Y-67888145D01*
X148237700Y-68048371D01*
X148254112Y-68215000D01*
X148237700Y-68381629D01*
X148189097Y-68541855D01*
X148110168Y-68689519D01*
X148003948Y-68818948D01*
X147874519Y-68925168D01*
X147726855Y-69004097D01*
X147566629Y-69052700D01*
X147466808Y-69062532D01*
X147452392Y-69065399D01*
X147438809Y-69071026D01*
X147426584Y-69079194D01*
X147416188Y-69089590D01*
X147408020Y-69101815D01*
X147402393Y-69115398D01*
X147401405Y-69120371D01*
X147400001Y-69124996D01*
X147400000Y-69124998D01*
X147400000Y-69125000D01*
X147399999Y-69125000D01*
X147396314Y-69125363D01*
X146603686Y-69125363D01*
X146600002Y-69125000D01*
X146600000Y-69125000D01*
X146599999Y-69124996D01*
X146598598Y-69120379D01*
X146597611Y-69115411D01*
X146591987Y-69101827D01*
X146583821Y-69089601D01*
X146573427Y-69079203D01*
X146561204Y-69071032D01*
X146547621Y-69065404D01*
X146533192Y-69062532D01*
X146433371Y-69052700D01*
X146433369Y-69052699D01*
X146432350Y-69052599D01*
X146417648Y-69052599D01*
X146403228Y-69055467D01*
X146389645Y-69061094D01*
X146377420Y-69069262D01*
X146367024Y-69079658D01*
X146358856Y-69091883D01*
X146353230Y-69105466D01*
X146350361Y-69119886D01*
X146350000Y-69127237D01*
X146350000Y-69150000D01*
X145450000Y-69150000D01*
X145450000Y-68500000D01*
X145697083Y-68500000D01*
X145711715Y-68498559D01*
X145725784Y-68494291D01*
X145738750Y-68487360D01*
X145750115Y-68478033D01*
X145759442Y-68466668D01*
X145766373Y-68453702D01*
X145770641Y-68439633D01*
X145772082Y-68425001D01*
X145770641Y-68410369D01*
X145768856Y-68403240D01*
X145762300Y-68381629D01*
X145745888Y-68215000D01*
X145762300Y-68048371D01*
X145810903Y-67888145D01*
X145889832Y-67740481D01*
X145996052Y-67611052D01*
X146125481Y-67504832D01*
X146273145Y-67425903D01*
X146433371Y-67377300D01*
X146558251Y-67365000D01*
X147441749Y-67365000D01*
X147566629Y-67377300D01*
G37*
G36*
X141241629Y-67377300D02*
G01*
X141401855Y-67425903D01*
X141549519Y-67504832D01*
X141678948Y-67611052D01*
X141785168Y-67740481D01*
X141864097Y-67888145D01*
X141912700Y-68048371D01*
X141929112Y-68215000D01*
X141912700Y-68381629D01*
X141864097Y-68541855D01*
X141785168Y-68689519D01*
X141678948Y-68818948D01*
X141549519Y-68925168D01*
X141401855Y-69004097D01*
X141241629Y-69052700D01*
X141141808Y-69062532D01*
X141127392Y-69065399D01*
X141113809Y-69071026D01*
X141101584Y-69079194D01*
X141091188Y-69089590D01*
X141083020Y-69101815D01*
X141077393Y-69115398D01*
X141076405Y-69120371D01*
X141075001Y-69124996D01*
X141075000Y-69124998D01*
X141075000Y-69125000D01*
X141074999Y-69125000D01*
X141071314Y-69125363D01*
X140278686Y-69125363D01*
X140275002Y-69125000D01*
X140275000Y-69125000D01*
X140274999Y-69124996D01*
X140273598Y-69120379D01*
X140272611Y-69115411D01*
X140266987Y-69101827D01*
X140258821Y-69089601D01*
X140248427Y-69079203D01*
X140236204Y-69071032D01*
X140222621Y-69065404D01*
X140208192Y-69062532D01*
X140108371Y-69052700D01*
X140108369Y-69052699D01*
X140107350Y-69052599D01*
X140092648Y-69052599D01*
X140078228Y-69055467D01*
X140064645Y-69061094D01*
X140052420Y-69069262D01*
X140042024Y-69079658D01*
X140033856Y-69091883D01*
X140028230Y-69105466D01*
X140025361Y-69119886D01*
X140025000Y-69127237D01*
X140025000Y-69150000D01*
X139125000Y-69150000D01*
X139125000Y-68500000D01*
X139372083Y-68500000D01*
X139386715Y-68498559D01*
X139400784Y-68494291D01*
X139413750Y-68487360D01*
X139425115Y-68478033D01*
X139434442Y-68466668D01*
X139441373Y-68453702D01*
X139445641Y-68439633D01*
X139447082Y-68425001D01*
X139445641Y-68410369D01*
X139443856Y-68403240D01*
X139437300Y-68381629D01*
X139420888Y-68215000D01*
X139437300Y-68048371D01*
X139485903Y-67888145D01*
X139564832Y-67740481D01*
X139671052Y-67611052D01*
X139800481Y-67504832D01*
X139948145Y-67425903D01*
X140108371Y-67377300D01*
X140233251Y-67365000D01*
X141116749Y-67365000D01*
X141241629Y-67377300D01*
G37*
G36*
X115030000Y-68991000D02*
G01*
X114130000Y-68991000D01*
X114130000Y-66391000D01*
X115030000Y-66391000D01*
X115030000Y-68991000D01*
G37*
G36*
X111930000Y-68991000D02*
G01*
X111030000Y-68991000D01*
X111030000Y-66391000D01*
X111930000Y-66391000D01*
X111930000Y-68991000D01*
G37*
G36*
X156800000Y-68200000D02*
G01*
X155900000Y-68200000D01*
X155900000Y-67550000D01*
X156800000Y-67550000D01*
X156800000Y-68200000D01*
G37*
G36*
X131500000Y-68200000D02*
G01*
X130600000Y-68200000D01*
X130600000Y-67550000D01*
X131500000Y-67550000D01*
X131500000Y-68200000D01*
G37*
G36*
X163125000Y-68200000D02*
G01*
X162225000Y-68200000D01*
X162225000Y-67550000D01*
X163125000Y-67550000D01*
X163125000Y-68200000D01*
G37*
G36*
X150475000Y-68200000D02*
G01*
X149575000Y-68200000D01*
X149575000Y-67550000D01*
X150475000Y-67550000D01*
X150475000Y-68200000D01*
G37*
G36*
X144150000Y-68200000D02*
G01*
X143250000Y-68200000D01*
X143250000Y-67550000D01*
X144150000Y-67550000D01*
X144150000Y-68200000D01*
G37*
G36*
X137825000Y-68200000D02*
G01*
X136925000Y-68200000D01*
X136925000Y-67550000D01*
X137825000Y-67550000D01*
X137825000Y-68200000D01*
G37*
G36*
X170925000Y-68125000D02*
G01*
X170025000Y-68125000D01*
X170025000Y-67625000D01*
X170925000Y-67625000D01*
X170925000Y-68125000D01*
G37*
G36*
X173116629Y-66292300D02*
G01*
X173276855Y-66340903D01*
X173424519Y-66419832D01*
X173553948Y-66526052D01*
X173660168Y-66655481D01*
X173739097Y-66803145D01*
X173787700Y-66963371D01*
X173804112Y-67130000D01*
X173787700Y-67296629D01*
X173739097Y-67456855D01*
X173660168Y-67604519D01*
X173553948Y-67733948D01*
X173424519Y-67840168D01*
X173276855Y-67919097D01*
X173116629Y-67967700D01*
X172991749Y-67980000D01*
X172108251Y-67980000D01*
X171983371Y-67967700D01*
X171823145Y-67919097D01*
X171675481Y-67840168D01*
X171546052Y-67733948D01*
X171439832Y-67604519D01*
X171360903Y-67456855D01*
X171312300Y-67296629D01*
X171295888Y-67130000D01*
X171312300Y-66963371D01*
X171360903Y-66803145D01*
X171439832Y-66655481D01*
X171546052Y-66526052D01*
X171675481Y-66419832D01*
X171823145Y-66340903D01*
X171983371Y-66292300D01*
X172108251Y-66280000D01*
X172991749Y-66280000D01*
X173116629Y-66292300D01*
G37*
G36*
X121530694Y-65476219D02*
G01*
X121532936Y-65476665D01*
X121687628Y-65540740D01*
X121826844Y-65633761D01*
X121945239Y-65752156D01*
X122038260Y-65891372D01*
X122084023Y-66001855D01*
X122102335Y-66046064D01*
X122135000Y-66210282D01*
X122135000Y-66377718D01*
X122117818Y-66464097D01*
X122102335Y-66541936D01*
X122038260Y-66696628D01*
X121945239Y-66835844D01*
X121826844Y-66954239D01*
X121687628Y-67047260D01*
X121532936Y-67111335D01*
X121368718Y-67144000D01*
X121201282Y-67144000D01*
X121037064Y-67111335D01*
X120882372Y-67047260D01*
X120743156Y-66954239D01*
X120624761Y-66835844D01*
X120531740Y-66696628D01*
X120467665Y-66541936D01*
X120452182Y-66464097D01*
X120435000Y-66377718D01*
X120435000Y-66210282D01*
X120467665Y-66046064D01*
X120485977Y-66001855D01*
X120531740Y-65891372D01*
X120624761Y-65752156D01*
X120743156Y-65633761D01*
X120882372Y-65540740D01*
X121037064Y-65476665D01*
X121039306Y-65476219D01*
X121201282Y-65444000D01*
X121368718Y-65444000D01*
X121530694Y-65476219D01*
G37*
G36*
X118990694Y-65476219D02*
G01*
X118992936Y-65476665D01*
X119147628Y-65540740D01*
X119286844Y-65633761D01*
X119405239Y-65752156D01*
X119498260Y-65891372D01*
X119544023Y-66001855D01*
X119562335Y-66046064D01*
X119595000Y-66210282D01*
X119595000Y-66377718D01*
X119577818Y-66464097D01*
X119562335Y-66541936D01*
X119498260Y-66696628D01*
X119405239Y-66835844D01*
X119286844Y-66954239D01*
X119147628Y-67047260D01*
X118992936Y-67111335D01*
X118828718Y-67144000D01*
X118661282Y-67144000D01*
X118497064Y-67111335D01*
X118342372Y-67047260D01*
X118203156Y-66954239D01*
X118084761Y-66835844D01*
X117991740Y-66696628D01*
X117927665Y-66541936D01*
X117912182Y-66464097D01*
X117895000Y-66377718D01*
X117895000Y-66210282D01*
X117927665Y-66046064D01*
X117945977Y-66001855D01*
X117991740Y-65891372D01*
X118084761Y-65752156D01*
X118203156Y-65633761D01*
X118342372Y-65540740D01*
X118497064Y-65476665D01*
X118499306Y-65476219D01*
X118661282Y-65444000D01*
X118828718Y-65444000D01*
X118990694Y-65476219D01*
G37*
G36*
X124070694Y-65476219D02*
G01*
X124072936Y-65476665D01*
X124227628Y-65540740D01*
X124366844Y-65633761D01*
X124485239Y-65752156D01*
X124578260Y-65891372D01*
X124624023Y-66001855D01*
X124642335Y-66046064D01*
X124675000Y-66210282D01*
X124675000Y-66377718D01*
X124657818Y-66464097D01*
X124642335Y-66541936D01*
X124578260Y-66696628D01*
X124485239Y-66835844D01*
X124366844Y-66954239D01*
X124227628Y-67047260D01*
X124072936Y-67111335D01*
X123908718Y-67144000D01*
X123741282Y-67144000D01*
X123577064Y-67111335D01*
X123422372Y-67047260D01*
X123283156Y-66954239D01*
X123164761Y-66835844D01*
X123071740Y-66696628D01*
X123007665Y-66541936D01*
X122992182Y-66464097D01*
X122975000Y-66377718D01*
X122975000Y-66210282D01*
X123007665Y-66046064D01*
X123025977Y-66001855D01*
X123071740Y-65891372D01*
X123164761Y-65752156D01*
X123283156Y-65633761D01*
X123422372Y-65540740D01*
X123577064Y-65476665D01*
X123579306Y-65476219D01*
X123741282Y-65444000D01*
X123908718Y-65444000D01*
X124070694Y-65476219D01*
G37*
G36*
X126610694Y-65476219D02*
G01*
X126612936Y-65476665D01*
X126767628Y-65540740D01*
X126906844Y-65633761D01*
X127025239Y-65752156D01*
X127118260Y-65891372D01*
X127164023Y-66001855D01*
X127182335Y-66046064D01*
X127215000Y-66210282D01*
X127215000Y-66377718D01*
X127197818Y-66464097D01*
X127182335Y-66541936D01*
X127118260Y-66696628D01*
X127025239Y-66835844D01*
X126906844Y-66954239D01*
X126767628Y-67047260D01*
X126612936Y-67111335D01*
X126448718Y-67144000D01*
X126281282Y-67144000D01*
X126117064Y-67111335D01*
X125962372Y-67047260D01*
X125823156Y-66954239D01*
X125704761Y-66835844D01*
X125611740Y-66696628D01*
X125547665Y-66541936D01*
X125532182Y-66464097D01*
X125515000Y-66377718D01*
X125515000Y-66210282D01*
X125547665Y-66046064D01*
X125565977Y-66001855D01*
X125611740Y-65891372D01*
X125704761Y-65752156D01*
X125823156Y-65633761D01*
X125962372Y-65540740D01*
X126117064Y-65476665D01*
X126119306Y-65476219D01*
X126281282Y-65444000D01*
X126448718Y-65444000D01*
X126610694Y-65476219D01*
G37*
G36*
X137825000Y-67125000D02*
G01*
X137325000Y-67125000D01*
X137325000Y-66225000D01*
X137825000Y-66225000D01*
X137825000Y-67125000D01*
G37*
G36*
X144150000Y-67125000D02*
G01*
X143650000Y-67125000D01*
X143650000Y-66225000D01*
X144150000Y-66225000D01*
X144150000Y-67125000D01*
G37*
G36*
X151975000Y-67125000D02*
G01*
X151475000Y-67125000D01*
X151475000Y-66225000D01*
X151975000Y-66225000D01*
X151975000Y-67125000D01*
G37*
G36*
X150475000Y-67125000D02*
G01*
X149975000Y-67125000D01*
X149975000Y-66225000D01*
X150475000Y-66225000D01*
X150475000Y-67125000D01*
G37*
G36*
X139325000Y-67125000D02*
G01*
X138825000Y-67125000D01*
X138825000Y-66225000D01*
X139325000Y-66225000D01*
X139325000Y-67125000D01*
G37*
G36*
X156800000Y-67125000D02*
G01*
X156300000Y-67125000D01*
X156300000Y-66225000D01*
X156800000Y-66225000D01*
X156800000Y-67125000D01*
G37*
G36*
X145650000Y-67125000D02*
G01*
X145150000Y-67125000D01*
X145150000Y-66225000D01*
X145650000Y-66225000D01*
X145650000Y-67125000D01*
G37*
G36*
X164625000Y-67125000D02*
G01*
X164125000Y-67125000D01*
X164125000Y-66225000D01*
X164625000Y-66225000D01*
X164625000Y-67125000D01*
G37*
G36*
X158300000Y-67125000D02*
G01*
X157800000Y-67125000D01*
X157800000Y-66225000D01*
X158300000Y-66225000D01*
X158300000Y-67125000D01*
G37*
G36*
X163125000Y-67125000D02*
G01*
X162625000Y-67125000D01*
X162625000Y-66225000D01*
X163125000Y-66225000D01*
X163125000Y-67125000D01*
G37*
G36*
X133000000Y-67125000D02*
G01*
X132500000Y-67125000D01*
X132500000Y-66225000D01*
X133000000Y-66225000D01*
X133000000Y-67125000D01*
G37*
G36*
X131500000Y-67125000D02*
G01*
X131000000Y-67125000D01*
X131000000Y-66225000D01*
X131500000Y-66225000D01*
X131500000Y-67125000D01*
G37*
G36*
X170925000Y-66625000D02*
G01*
X170025000Y-66625000D01*
X170025000Y-66125000D01*
X170925000Y-66125000D01*
X170925000Y-66625000D01*
G37*
G36*
X160216629Y-64837300D02*
G01*
X160376855Y-64885903D01*
X160524519Y-64964832D01*
X160653948Y-65071052D01*
X160760168Y-65200481D01*
X160839097Y-65348145D01*
X160887700Y-65508371D01*
X160904112Y-65675000D01*
X160887700Y-65841629D01*
X160839097Y-66001855D01*
X160760168Y-66149519D01*
X160653948Y-66278948D01*
X160524519Y-66385168D01*
X160376855Y-66464097D01*
X160216629Y-66512700D01*
X160091749Y-66525000D01*
X159208251Y-66525000D01*
X159083371Y-66512700D01*
X158923145Y-66464097D01*
X158775481Y-66385168D01*
X158646052Y-66278948D01*
X158539832Y-66149519D01*
X158460903Y-66001855D01*
X158412300Y-65841629D01*
X158395888Y-65675000D01*
X158412300Y-65508371D01*
X158460903Y-65348145D01*
X158539832Y-65200481D01*
X158646052Y-65071052D01*
X158775481Y-64964832D01*
X158923145Y-64885903D01*
X159083371Y-64837300D01*
X159208251Y-64825000D01*
X160091749Y-64825000D01*
X160216629Y-64837300D01*
G37*
G36*
X153891629Y-64837300D02*
G01*
X154051855Y-64885903D01*
X154199519Y-64964832D01*
X154328948Y-65071052D01*
X154435168Y-65200481D01*
X154514097Y-65348145D01*
X154562700Y-65508371D01*
X154579112Y-65675000D01*
X154562700Y-65841629D01*
X154514097Y-66001855D01*
X154435168Y-66149519D01*
X154328948Y-66278948D01*
X154199519Y-66385168D01*
X154051855Y-66464097D01*
X153891629Y-66512700D01*
X153766749Y-66525000D01*
X152883251Y-66525000D01*
X152758371Y-66512700D01*
X152598145Y-66464097D01*
X152450481Y-66385168D01*
X152321052Y-66278948D01*
X152214832Y-66149519D01*
X152135903Y-66001855D01*
X152087300Y-65841629D01*
X152070888Y-65675000D01*
X152087300Y-65508371D01*
X152135903Y-65348145D01*
X152214832Y-65200481D01*
X152321052Y-65071052D01*
X152450481Y-64964832D01*
X152598145Y-64885903D01*
X152758371Y-64837300D01*
X152883251Y-64825000D01*
X153766749Y-64825000D01*
X153891629Y-64837300D01*
G37*
G36*
X141241629Y-64837300D02*
G01*
X141401855Y-64885903D01*
X141549519Y-64964832D01*
X141678948Y-65071052D01*
X141785168Y-65200481D01*
X141864097Y-65348145D01*
X141912700Y-65508371D01*
X141929112Y-65675000D01*
X141912700Y-65841629D01*
X141864097Y-66001855D01*
X141785168Y-66149519D01*
X141678948Y-66278948D01*
X141549519Y-66385168D01*
X141401855Y-66464097D01*
X141241629Y-66512700D01*
X141116749Y-66525000D01*
X140233251Y-66525000D01*
X140108371Y-66512700D01*
X139948145Y-66464097D01*
X139800481Y-66385168D01*
X139671052Y-66278948D01*
X139564832Y-66149519D01*
X139485903Y-66001855D01*
X139437300Y-65841629D01*
X139420888Y-65675000D01*
X139437300Y-65508371D01*
X139485903Y-65348145D01*
X139564832Y-65200481D01*
X139671052Y-65071052D01*
X139800481Y-64964832D01*
X139948145Y-64885903D01*
X140108371Y-64837300D01*
X140233251Y-64825000D01*
X141116749Y-64825000D01*
X141241629Y-64837300D01*
G37*
G36*
X166541629Y-64837300D02*
G01*
X166701855Y-64885903D01*
X166849519Y-64964832D01*
X166978948Y-65071052D01*
X167085168Y-65200481D01*
X167164097Y-65348145D01*
X167212700Y-65508371D01*
X167229112Y-65675000D01*
X167212700Y-65841629D01*
X167164097Y-66001855D01*
X167085168Y-66149519D01*
X166978948Y-66278948D01*
X166849519Y-66385168D01*
X166701855Y-66464097D01*
X166541629Y-66512700D01*
X166416749Y-66525000D01*
X165533251Y-66525000D01*
X165408371Y-66512700D01*
X165248145Y-66464097D01*
X165100481Y-66385168D01*
X164971052Y-66278948D01*
X164864832Y-66149519D01*
X164785903Y-66001855D01*
X164737300Y-65841629D01*
X164720888Y-65675000D01*
X164737300Y-65508371D01*
X164785903Y-65348145D01*
X164864832Y-65200481D01*
X164971052Y-65071052D01*
X165100481Y-64964832D01*
X165248145Y-64885903D01*
X165408371Y-64837300D01*
X165533251Y-64825000D01*
X166416749Y-64825000D01*
X166541629Y-64837300D01*
G37*
G36*
X147566629Y-64837300D02*
G01*
X147726855Y-64885903D01*
X147874519Y-64964832D01*
X148003948Y-65071052D01*
X148110168Y-65200481D01*
X148189097Y-65348145D01*
X148237700Y-65508371D01*
X148254112Y-65675000D01*
X148237700Y-65841629D01*
X148189097Y-66001855D01*
X148110168Y-66149519D01*
X148003948Y-66278948D01*
X147874519Y-66385168D01*
X147726855Y-66464097D01*
X147566629Y-66512700D01*
X147441749Y-66525000D01*
X146558251Y-66525000D01*
X146433371Y-66512700D01*
X146273145Y-66464097D01*
X146125481Y-66385168D01*
X145996052Y-66278948D01*
X145889832Y-66149519D01*
X145810903Y-66001855D01*
X145762300Y-65841629D01*
X145745888Y-65675000D01*
X145762300Y-65508371D01*
X145810903Y-65348145D01*
X145889832Y-65200481D01*
X145996052Y-65071052D01*
X146125481Y-64964832D01*
X146273145Y-64885903D01*
X146433371Y-64837300D01*
X146558251Y-64825000D01*
X147441749Y-64825000D01*
X147566629Y-64837300D01*
G37*
G36*
X134916629Y-64837300D02*
G01*
X135076855Y-64885903D01*
X135224519Y-64964832D01*
X135353948Y-65071052D01*
X135460168Y-65200481D01*
X135539097Y-65348145D01*
X135587700Y-65508371D01*
X135604112Y-65675000D01*
X135587700Y-65841629D01*
X135539097Y-66001855D01*
X135460168Y-66149519D01*
X135353948Y-66278948D01*
X135224519Y-66385168D01*
X135076855Y-66464097D01*
X134916629Y-66512700D01*
X134791749Y-66525000D01*
X133908251Y-66525000D01*
X133783371Y-66512700D01*
X133623145Y-66464097D01*
X133475481Y-66385168D01*
X133346052Y-66278948D01*
X133239832Y-66149519D01*
X133160903Y-66001855D01*
X133112300Y-65841629D01*
X133095888Y-65675000D01*
X133112300Y-65508371D01*
X133160903Y-65348145D01*
X133239832Y-65200481D01*
X133346052Y-65071052D01*
X133475481Y-64964832D01*
X133623145Y-64885903D01*
X133783371Y-64837300D01*
X133908251Y-64825000D01*
X134791749Y-64825000D01*
X134916629Y-64837300D01*
G37*
G36*
X106777000Y-65620000D02*
G01*
X106027000Y-65620000D01*
X106027000Y-63920000D01*
X106777000Y-63920000D01*
X106777000Y-65620000D01*
G37*
G36*
X151975000Y-65125000D02*
G01*
X151475000Y-65125000D01*
X151475000Y-64225000D01*
X151975000Y-64225000D01*
X151975000Y-65125000D01*
G37*
G36*
X163125000Y-65125000D02*
G01*
X162625000Y-65125000D01*
X162625000Y-64225000D01*
X163125000Y-64225000D01*
X163125000Y-65125000D01*
G37*
G36*
X164625000Y-65125000D02*
G01*
X164125000Y-65125000D01*
X164125000Y-64225000D01*
X164625000Y-64225000D01*
X164625000Y-65125000D01*
G37*
G36*
X133000000Y-65125000D02*
G01*
X132500000Y-65125000D01*
X132500000Y-64225000D01*
X133000000Y-64225000D01*
X133000000Y-65125000D01*
G37*
G36*
X131500000Y-65125000D02*
G01*
X131000000Y-65125000D01*
X131000000Y-64225000D01*
X131500000Y-64225000D01*
X131500000Y-65125000D01*
G37*
G36*
X137825000Y-65125000D02*
G01*
X137325000Y-65125000D01*
X137325000Y-64225000D01*
X137825000Y-64225000D01*
X137825000Y-65125000D01*
G37*
G36*
X139325000Y-65125000D02*
G01*
X138825000Y-65125000D01*
X138825000Y-64225000D01*
X139325000Y-64225000D01*
X139325000Y-65125000D01*
G37*
G36*
X158300000Y-65125000D02*
G01*
X157800000Y-65125000D01*
X157800000Y-64225000D01*
X158300000Y-64225000D01*
X158300000Y-65125000D01*
G37*
G36*
X156800000Y-65125000D02*
G01*
X156300000Y-65125000D01*
X156300000Y-64225000D01*
X156800000Y-64225000D01*
X156800000Y-65125000D01*
G37*
G36*
X144150000Y-65125000D02*
G01*
X143650000Y-65125000D01*
X143650000Y-64225000D01*
X144150000Y-64225000D01*
X144150000Y-65125000D01*
G37*
G36*
X145650000Y-65125000D02*
G01*
X145150000Y-65125000D01*
X145150000Y-64225000D01*
X145650000Y-64225000D01*
X145650000Y-65125000D01*
G37*
G36*
X150475000Y-65125000D02*
G01*
X149975000Y-65125000D01*
X149975000Y-64225000D01*
X150475000Y-64225000D01*
X150475000Y-65125000D01*
G37*
G36*
X127300000Y-64650000D02*
G01*
X126400000Y-64650000D01*
X126400000Y-62050000D01*
X127300000Y-62050000D01*
X127300000Y-64650000D01*
G37*
G36*
X117350000Y-64650000D02*
G01*
X116450000Y-64650000D01*
X116450000Y-62050000D01*
X117350000Y-62050000D01*
X117350000Y-64650000D01*
G37*
G36*
X118600000Y-64650000D02*
G01*
X117700000Y-64650000D01*
X117700000Y-62050000D01*
X118600000Y-62050000D01*
X118600000Y-64650000D01*
G37*
G36*
X121700000Y-64650000D02*
G01*
X120800000Y-64650000D01*
X120800000Y-62050000D01*
X121700000Y-62050000D01*
X121700000Y-64650000D01*
G37*
G36*
X130400000Y-64650000D02*
G01*
X129500000Y-64650000D01*
X129500000Y-62050000D01*
X130400000Y-62050000D01*
X130400000Y-64650000D01*
G37*
G36*
X126050000Y-64650000D02*
G01*
X125150000Y-64650000D01*
X125150000Y-62050000D01*
X126050000Y-62050000D01*
X126050000Y-64650000D01*
G37*
G36*
X122950000Y-64650000D02*
G01*
X122050000Y-64650000D01*
X122050000Y-62050000D01*
X122950000Y-62050000D01*
X122950000Y-64650000D01*
G37*
G36*
X114250000Y-64650000D02*
G01*
X113350000Y-64650000D01*
X113350000Y-62050000D01*
X114250000Y-62050000D01*
X114250000Y-64650000D01*
G37*
G36*
X108933223Y-59191074D02*
G01*
X109188056Y-59296629D01*
X109388196Y-59379530D01*
X109797657Y-59653123D01*
X110145877Y-60001343D01*
X110419470Y-60410804D01*
X110419471Y-60410806D01*
X110607926Y-60865777D01*
X110704000Y-61348772D01*
X110704000Y-61841228D01*
X110607926Y-62324223D01*
X110462630Y-62675000D01*
X110419470Y-62779196D01*
X110145877Y-63188657D01*
X109797657Y-63536877D01*
X109388196Y-63810470D01*
X109388195Y-63810471D01*
X109388194Y-63810471D01*
X109204238Y-63886668D01*
X108933223Y-63998926D01*
X108710367Y-64043255D01*
X108696298Y-64047523D01*
X108683332Y-64054454D01*
X108671967Y-64063781D01*
X108662640Y-64075146D01*
X108655709Y-64088112D01*
X108651441Y-64102182D01*
X108650000Y-64116813D01*
X108650000Y-64250000D01*
X107750000Y-64250000D01*
X107750000Y-64115222D01*
X107748559Y-64100590D01*
X107744291Y-64086521D01*
X107737360Y-64073555D01*
X107728033Y-64062190D01*
X107716668Y-64052863D01*
X107703702Y-64045932D01*
X107689633Y-64041664D01*
X107474777Y-63998926D01*
X107203762Y-63886668D01*
X107019806Y-63810471D01*
X107019805Y-63810471D01*
X107019804Y-63810470D01*
X106610343Y-63536877D01*
X106262123Y-63188657D01*
X105988530Y-62779196D01*
X105945371Y-62675000D01*
X105800074Y-62324223D01*
X105704000Y-61841228D01*
X105704000Y-61348772D01*
X105800074Y-60865777D01*
X105988529Y-60410806D01*
X105988530Y-60410804D01*
X106262123Y-60001343D01*
X106610343Y-59653123D01*
X107019804Y-59379530D01*
X107219945Y-59296629D01*
X107474777Y-59191074D01*
X107957772Y-59095000D01*
X108450228Y-59095000D01*
X108933223Y-59191074D01*
G37*
G36*
X167200000Y-62915379D02*
G01*
X167203229Y-62937147D01*
X167212700Y-62968371D01*
X167229112Y-63135000D01*
X167212700Y-63301629D01*
X167164097Y-63461855D01*
X167085168Y-63609519D01*
X166978948Y-63738948D01*
X166849519Y-63845168D01*
X166701855Y-63924097D01*
X166541629Y-63972700D01*
X166416749Y-63985000D01*
X165533251Y-63985000D01*
X165408371Y-63972700D01*
X165248145Y-63924097D01*
X165100481Y-63845168D01*
X164971052Y-63738948D01*
X164864832Y-63609519D01*
X164785903Y-63461855D01*
X164771766Y-63415251D01*
X164766142Y-63401675D01*
X164757974Y-63389450D01*
X164747578Y-63379054D01*
X164735353Y-63370886D01*
X164721770Y-63365259D01*
X164707350Y-63362391D01*
X164692648Y-63362391D01*
X164678228Y-63365259D01*
X164664645Y-63370886D01*
X164652420Y-63379054D01*
X164642024Y-63389450D01*
X164633856Y-63401675D01*
X164628229Y-63415258D01*
X164625361Y-63429678D01*
X164625000Y-63437029D01*
X164625000Y-63800000D01*
X164125000Y-63800000D01*
X164125000Y-63349999D01*
X164123559Y-63335367D01*
X164119291Y-63321298D01*
X164112360Y-63308332D01*
X164103033Y-63296967D01*
X164091668Y-63287640D01*
X164078702Y-63280709D01*
X164064633Y-63276441D01*
X164050001Y-63275000D01*
X163700000Y-63275000D01*
X163700000Y-62275000D01*
X167200000Y-62275000D01*
X167200000Y-62915379D01*
G37*
G36*
X141900000Y-62915379D02*
G01*
X141903229Y-62937147D01*
X141912700Y-62968371D01*
X141929112Y-63135000D01*
X141912700Y-63301629D01*
X141864097Y-63461855D01*
X141785168Y-63609519D01*
X141678948Y-63738948D01*
X141549519Y-63845168D01*
X141401855Y-63924097D01*
X141241629Y-63972700D01*
X141116749Y-63985000D01*
X140233251Y-63985000D01*
X140108371Y-63972700D01*
X139948145Y-63924097D01*
X139800481Y-63845168D01*
X139671052Y-63738948D01*
X139564832Y-63609519D01*
X139485903Y-63461855D01*
X139471766Y-63415251D01*
X139466142Y-63401675D01*
X139457974Y-63389450D01*
X139447578Y-63379054D01*
X139435353Y-63370886D01*
X139421770Y-63365259D01*
X139407350Y-63362391D01*
X139392648Y-63362391D01*
X139378228Y-63365259D01*
X139364645Y-63370886D01*
X139352420Y-63379054D01*
X139342024Y-63389450D01*
X139333856Y-63401675D01*
X139328229Y-63415258D01*
X139325361Y-63429678D01*
X139325000Y-63437029D01*
X139325000Y-63800000D01*
X138825000Y-63800000D01*
X138825000Y-63349999D01*
X138823559Y-63335367D01*
X138819291Y-63321298D01*
X138812360Y-63308332D01*
X138803033Y-63296967D01*
X138791668Y-63287640D01*
X138778702Y-63280709D01*
X138764633Y-63276441D01*
X138750001Y-63275000D01*
X138400000Y-63275000D01*
X138400000Y-62275000D01*
X141900000Y-62275000D01*
X141900000Y-62915379D01*
G37*
G36*
X135575000Y-62915379D02*
G01*
X135578229Y-62937147D01*
X135587700Y-62968371D01*
X135604112Y-63135000D01*
X135587700Y-63301629D01*
X135539097Y-63461855D01*
X135460168Y-63609519D01*
X135353948Y-63738948D01*
X135224519Y-63845168D01*
X135076855Y-63924097D01*
X134916629Y-63972700D01*
X134791749Y-63985000D01*
X133908251Y-63985000D01*
X133783371Y-63972700D01*
X133623145Y-63924097D01*
X133475481Y-63845168D01*
X133346052Y-63738948D01*
X133239832Y-63609519D01*
X133160903Y-63461855D01*
X133146766Y-63415251D01*
X133141142Y-63401675D01*
X133132974Y-63389450D01*
X133122578Y-63379054D01*
X133110353Y-63370886D01*
X133096770Y-63365259D01*
X133082350Y-63362391D01*
X133067648Y-63362391D01*
X133053228Y-63365259D01*
X133039645Y-63370886D01*
X133027420Y-63379054D01*
X133017024Y-63389450D01*
X133008856Y-63401675D01*
X133003229Y-63415258D01*
X133000361Y-63429678D01*
X133000000Y-63437029D01*
X133000000Y-63800000D01*
X132500000Y-63800000D01*
X132500000Y-63349999D01*
X132498559Y-63335367D01*
X132494291Y-63321298D01*
X132487360Y-63308332D01*
X132478033Y-63296967D01*
X132466668Y-63287640D01*
X132453702Y-63280709D01*
X132439633Y-63276441D01*
X132425001Y-63275000D01*
X132075000Y-63275000D01*
X132075000Y-62275000D01*
X135575000Y-62275000D01*
X135575000Y-62915379D01*
G37*
G36*
X154550000Y-62915379D02*
G01*
X154553229Y-62937147D01*
X154562700Y-62968371D01*
X154579112Y-63135000D01*
X154562700Y-63301629D01*
X154514097Y-63461855D01*
X154435168Y-63609519D01*
X154328948Y-63738948D01*
X154199519Y-63845168D01*
X154051855Y-63924097D01*
X153891629Y-63972700D01*
X153766749Y-63985000D01*
X152883251Y-63985000D01*
X152758371Y-63972700D01*
X152598145Y-63924097D01*
X152450481Y-63845168D01*
X152321052Y-63738948D01*
X152214832Y-63609519D01*
X152135903Y-63461855D01*
X152121766Y-63415251D01*
X152116142Y-63401675D01*
X152107974Y-63389450D01*
X152097578Y-63379054D01*
X152085353Y-63370886D01*
X152071770Y-63365259D01*
X152057350Y-63362391D01*
X152042648Y-63362391D01*
X152028228Y-63365259D01*
X152014645Y-63370886D01*
X152002420Y-63379054D01*
X151992024Y-63389450D01*
X151983856Y-63401675D01*
X151978229Y-63415258D01*
X151975361Y-63429678D01*
X151975000Y-63437029D01*
X151975000Y-63800000D01*
X151475000Y-63800000D01*
X151475000Y-63349999D01*
X151473559Y-63335367D01*
X151469291Y-63321298D01*
X151462360Y-63308332D01*
X151453033Y-63296967D01*
X151441668Y-63287640D01*
X151428702Y-63280709D01*
X151414633Y-63276441D01*
X151400001Y-63275000D01*
X151050000Y-63275000D01*
X151050000Y-62275000D01*
X154550000Y-62275000D01*
X154550000Y-62915379D01*
G37*
G36*
X148225000Y-62915379D02*
G01*
X148228229Y-62937147D01*
X148237700Y-62968371D01*
X148254112Y-63135000D01*
X148237700Y-63301629D01*
X148189097Y-63461855D01*
X148110168Y-63609519D01*
X148003948Y-63738948D01*
X147874519Y-63845168D01*
X147726855Y-63924097D01*
X147566629Y-63972700D01*
X147441749Y-63985000D01*
X146558251Y-63985000D01*
X146433371Y-63972700D01*
X146273145Y-63924097D01*
X146125481Y-63845168D01*
X145996052Y-63738948D01*
X145889832Y-63609519D01*
X145810903Y-63461855D01*
X145796766Y-63415251D01*
X145791142Y-63401675D01*
X145782974Y-63389450D01*
X145772578Y-63379054D01*
X145760353Y-63370886D01*
X145746770Y-63365259D01*
X145732350Y-63362391D01*
X145717648Y-63362391D01*
X145703228Y-63365259D01*
X145689645Y-63370886D01*
X145677420Y-63379054D01*
X145667024Y-63389450D01*
X145658856Y-63401675D01*
X145653229Y-63415258D01*
X145650361Y-63429678D01*
X145650000Y-63437029D01*
X145650000Y-63800000D01*
X145150000Y-63800000D01*
X145150000Y-63349999D01*
X145148559Y-63335367D01*
X145144291Y-63321298D01*
X145137360Y-63308332D01*
X145128033Y-63296967D01*
X145116668Y-63287640D01*
X145103702Y-63280709D01*
X145089633Y-63276441D01*
X145075001Y-63275000D01*
X144725000Y-63275000D01*
X144725000Y-62275000D01*
X148225000Y-62275000D01*
X148225000Y-62915379D01*
G37*
G36*
X160875000Y-62915379D02*
G01*
X160878229Y-62937147D01*
X160887700Y-62968371D01*
X160904112Y-63135000D01*
X160887700Y-63301629D01*
X160839097Y-63461855D01*
X160760168Y-63609519D01*
X160653948Y-63738948D01*
X160524519Y-63845168D01*
X160376855Y-63924097D01*
X160216629Y-63972700D01*
X160091749Y-63985000D01*
X159208251Y-63985000D01*
X159083371Y-63972700D01*
X158923145Y-63924097D01*
X158775481Y-63845168D01*
X158646052Y-63738948D01*
X158539832Y-63609519D01*
X158460903Y-63461855D01*
X158446766Y-63415251D01*
X158441142Y-63401675D01*
X158432974Y-63389450D01*
X158422578Y-63379054D01*
X158410353Y-63370886D01*
X158396770Y-63365259D01*
X158382350Y-63362391D01*
X158367648Y-63362391D01*
X158353228Y-63365259D01*
X158339645Y-63370886D01*
X158327420Y-63379054D01*
X158317024Y-63389450D01*
X158308856Y-63401675D01*
X158303229Y-63415258D01*
X158300361Y-63429678D01*
X158300000Y-63437029D01*
X158300000Y-63800000D01*
X157800000Y-63800000D01*
X157800000Y-63349999D01*
X157798559Y-63335367D01*
X157794291Y-63321298D01*
X157787360Y-63308332D01*
X157778033Y-63296967D01*
X157766668Y-63287640D01*
X157753702Y-63280709D01*
X157739633Y-63276441D01*
X157725001Y-63275000D01*
X157375000Y-63275000D01*
X157375000Y-62275000D01*
X160875000Y-62275000D01*
X160875000Y-62915379D01*
G37*
G36*
X144150000Y-63800000D02*
G01*
X143650000Y-63800000D01*
X143650000Y-62900000D01*
X144150000Y-62900000D01*
X144150000Y-63800000D01*
G37*
G36*
X137825000Y-63800000D02*
G01*
X137325000Y-63800000D01*
X137325000Y-62900000D01*
X137825000Y-62900000D01*
X137825000Y-63800000D01*
G37*
G36*
X150475000Y-63800000D02*
G01*
X149975000Y-63800000D01*
X149975000Y-62900000D01*
X150475000Y-62900000D01*
X150475000Y-63800000D01*
G37*
G36*
X131500000Y-63800000D02*
G01*
X131000000Y-63800000D01*
X131000000Y-62900000D01*
X131500000Y-62900000D01*
X131500000Y-63800000D01*
G37*
G36*
X163125000Y-63800000D02*
G01*
X162625000Y-63800000D01*
X162625000Y-62900000D01*
X163125000Y-62900000D01*
X163125000Y-63800000D01*
G37*
G36*
X156800000Y-63800000D02*
G01*
X156300000Y-63800000D01*
X156300000Y-62900000D01*
X156800000Y-62900000D01*
X156800000Y-63800000D01*
G37*
G36*
X170925000Y-62675000D02*
G01*
X170025000Y-62675000D01*
X170025000Y-62175000D01*
X170925000Y-62175000D01*
X170925000Y-62675000D01*
G37*
G36*
X173116629Y-60832300D02*
G01*
X173276855Y-60880903D01*
X173424519Y-60959832D01*
X173553948Y-61066052D01*
X173660168Y-61195481D01*
X173739097Y-61343145D01*
X173787700Y-61503371D01*
X173804112Y-61670000D01*
X173787700Y-61836629D01*
X173739097Y-61996855D01*
X173660168Y-62144519D01*
X173553948Y-62273948D01*
X173424519Y-62380168D01*
X173276855Y-62459097D01*
X173116629Y-62507700D01*
X172991749Y-62520000D01*
X172108251Y-62520000D01*
X171983371Y-62507700D01*
X171823145Y-62459097D01*
X171675481Y-62380168D01*
X171546052Y-62273948D01*
X171439832Y-62144519D01*
X171360903Y-61996855D01*
X171312300Y-61836629D01*
X171295888Y-61670000D01*
X171312300Y-61503371D01*
X171360903Y-61343145D01*
X171439832Y-61195481D01*
X171546052Y-61066052D01*
X171675481Y-60959832D01*
X171823145Y-60880903D01*
X171983371Y-60832300D01*
X172108251Y-60820000D01*
X172991749Y-60820000D01*
X173116629Y-60832300D01*
G37*
G36*
X146975000Y-62100000D02*
G01*
X145975000Y-62100000D01*
X145975000Y-61100000D01*
X146975000Y-61100000D01*
X146975000Y-62100000D01*
G37*
G36*
X141900000Y-62100000D02*
G01*
X140900000Y-62100000D01*
X140900000Y-61100000D01*
X141900000Y-61100000D01*
X141900000Y-62100000D01*
G37*
G36*
X145725000Y-62100000D02*
G01*
X144725000Y-62100000D01*
X144725000Y-61100000D01*
X145725000Y-61100000D01*
X145725000Y-62100000D01*
G37*
G36*
X159625000Y-62100000D02*
G01*
X158625000Y-62100000D01*
X158625000Y-61100000D01*
X159625000Y-61100000D01*
X159625000Y-62100000D01*
G37*
G36*
X133075000Y-62100000D02*
G01*
X132075000Y-62100000D01*
X132075000Y-61100000D01*
X133075000Y-61100000D01*
X133075000Y-62100000D01*
G37*
G36*
X134325000Y-62100000D02*
G01*
X133325000Y-62100000D01*
X133325000Y-61100000D01*
X134325000Y-61100000D01*
X134325000Y-62100000D01*
G37*
G36*
X135575000Y-62100000D02*
G01*
X134575000Y-62100000D01*
X134575000Y-61100000D01*
X135575000Y-61100000D01*
X135575000Y-62100000D01*
G37*
G36*
X158375000Y-62100000D02*
G01*
X157375000Y-62100000D01*
X157375000Y-61100000D01*
X158375000Y-61100000D01*
X158375000Y-62100000D01*
G37*
G36*
X160875000Y-62100000D02*
G01*
X159875000Y-62100000D01*
X159875000Y-61100000D01*
X160875000Y-61100000D01*
X160875000Y-62100000D01*
G37*
G36*
X167200000Y-62100000D02*
G01*
X166200000Y-62100000D01*
X166200000Y-61100000D01*
X167200000Y-61100000D01*
X167200000Y-62100000D01*
G37*
G36*
X165950000Y-62100000D02*
G01*
X164950000Y-62100000D01*
X164950000Y-61100000D01*
X165950000Y-61100000D01*
X165950000Y-62100000D01*
G37*
G36*
X164700000Y-62100000D02*
G01*
X163700000Y-62100000D01*
X163700000Y-61100000D01*
X164700000Y-61100000D01*
X164700000Y-62100000D01*
G37*
G36*
X140650000Y-62100000D02*
G01*
X139650000Y-62100000D01*
X139650000Y-61100000D01*
X140650000Y-61100000D01*
X140650000Y-62100000D01*
G37*
G36*
X139400000Y-62100000D02*
G01*
X138400000Y-62100000D01*
X138400000Y-61100000D01*
X139400000Y-61100000D01*
X139400000Y-62100000D01*
G37*
G36*
X152050000Y-62100000D02*
G01*
X151050000Y-62100000D01*
X151050000Y-61100000D01*
X152050000Y-61100000D01*
X152050000Y-62100000D01*
G37*
G36*
X154550000Y-62100000D02*
G01*
X153550000Y-62100000D01*
X153550000Y-61100000D01*
X154550000Y-61100000D01*
X154550000Y-62100000D01*
G37*
G36*
X153300000Y-62100000D02*
G01*
X152300000Y-62100000D01*
X152300000Y-61100000D01*
X153300000Y-61100000D01*
X153300000Y-62100000D01*
G37*
G36*
X148225000Y-62100000D02*
G01*
X147225000Y-62100000D01*
X147225000Y-61100000D01*
X148225000Y-61100000D01*
X148225000Y-62100000D01*
G37*
G36*
X117350000Y-61750000D02*
G01*
X116450000Y-61750000D01*
X116450000Y-59150000D01*
X117350000Y-59150000D01*
X117350000Y-61750000D01*
G37*
G36*
X130400000Y-61750000D02*
G01*
X129500000Y-61750000D01*
X129500000Y-59150000D01*
X130400000Y-59150000D01*
X130400000Y-61750000D01*
G37*
G36*
X114250000Y-61750000D02*
G01*
X113350000Y-61750000D01*
X113350000Y-59150000D01*
X114250000Y-59150000D01*
X114250000Y-61750000D01*
G37*
G36*
X118600000Y-61750000D02*
G01*
X117700000Y-61750000D01*
X117700000Y-59150000D01*
X118600000Y-59150000D01*
X118600000Y-61750000D01*
G37*
G36*
X121700000Y-61750000D02*
G01*
X120800000Y-61750000D01*
X120800000Y-59150000D01*
X121700000Y-59150000D01*
X121700000Y-61750000D01*
G37*
G36*
X122950000Y-61750000D02*
G01*
X122050000Y-61750000D01*
X122050000Y-59150000D01*
X122950000Y-59150000D01*
X122950000Y-61750000D01*
G37*
G36*
X126050000Y-61750000D02*
G01*
X125150000Y-61750000D01*
X125150000Y-59150000D01*
X126050000Y-59150000D01*
X126050000Y-61750000D01*
G37*
G36*
X127300000Y-61750000D02*
G01*
X126400000Y-61750000D01*
X126400000Y-59150000D01*
X127300000Y-59150000D01*
X127300000Y-61750000D01*
G37*
G36*
X170925000Y-61175000D02*
G01*
X170025000Y-61175000D01*
X170025000Y-60675000D01*
X170925000Y-60675000D01*
X170925000Y-61175000D01*
G37*
G36*
X170925000Y-60125000D02*
G01*
X170025000Y-60125000D01*
X170025000Y-59625000D01*
X170925000Y-59625000D01*
X170925000Y-60125000D01*
G37*
G36*
X173116629Y-58292300D02*
G01*
X173276855Y-58340903D01*
X173424519Y-58419832D01*
X173553948Y-58526052D01*
X173660168Y-58655481D01*
X173739097Y-58803145D01*
X173787700Y-58963371D01*
X173804112Y-59130000D01*
X173787700Y-59296629D01*
X173739097Y-59456855D01*
X173660168Y-59604519D01*
X173553948Y-59733948D01*
X173424519Y-59840168D01*
X173276855Y-59919097D01*
X173116629Y-59967700D01*
X172991749Y-59980000D01*
X172108251Y-59980000D01*
X171983371Y-59967700D01*
X171823145Y-59919097D01*
X171675481Y-59840168D01*
X171546052Y-59733948D01*
X171439832Y-59604519D01*
X171360903Y-59456855D01*
X171312300Y-59296629D01*
X171295888Y-59130000D01*
X171312300Y-58963371D01*
X171360903Y-58803145D01*
X171439832Y-58655481D01*
X171546052Y-58526052D01*
X171675481Y-58419832D01*
X171823145Y-58340903D01*
X171983371Y-58292300D01*
X172108251Y-58280000D01*
X172991749Y-58280000D01*
X173116629Y-58292300D01*
G37*
G36*
X133075000Y-59600000D02*
G01*
X132075000Y-59600000D01*
X132075000Y-58600000D01*
X133075000Y-58600000D01*
X133075000Y-59600000D01*
G37*
G36*
X134325000Y-59600000D02*
G01*
X133325000Y-59600000D01*
X133325000Y-58600000D01*
X134325000Y-58600000D01*
X134325000Y-59600000D01*
G37*
G36*
X139400000Y-59600000D02*
G01*
X138400000Y-59600000D01*
X138400000Y-58600000D01*
X139400000Y-58600000D01*
X139400000Y-59600000D01*
G37*
G36*
X140650000Y-59600000D02*
G01*
X139650000Y-59600000D01*
X139650000Y-58600000D01*
X140650000Y-58600000D01*
X140650000Y-59600000D01*
G37*
G36*
X141900000Y-59600000D02*
G01*
X140900000Y-59600000D01*
X140900000Y-58600000D01*
X141900000Y-58600000D01*
X141900000Y-59600000D01*
G37*
G36*
X145725000Y-59600000D02*
G01*
X144725000Y-59600000D01*
X144725000Y-58600000D01*
X145725000Y-58600000D01*
X145725000Y-59600000D01*
G37*
G36*
X146975000Y-59600000D02*
G01*
X145975000Y-59600000D01*
X145975000Y-58600000D01*
X146975000Y-58600000D01*
X146975000Y-59600000D01*
G37*
G36*
X148225000Y-59600000D02*
G01*
X147225000Y-59600000D01*
X147225000Y-58600000D01*
X148225000Y-58600000D01*
X148225000Y-59600000D01*
G37*
G36*
X152050000Y-59600000D02*
G01*
X151050000Y-59600000D01*
X151050000Y-58600000D01*
X152050000Y-58600000D01*
X152050000Y-59600000D01*
G37*
G36*
X154550000Y-59600000D02*
G01*
X153550000Y-59600000D01*
X153550000Y-58600000D01*
X154550000Y-58600000D01*
X154550000Y-59600000D01*
G37*
G36*
X158375000Y-59600000D02*
G01*
X157375000Y-59600000D01*
X157375000Y-58600000D01*
X158375000Y-58600000D01*
X158375000Y-59600000D01*
G37*
G36*
X159625000Y-59600000D02*
G01*
X158625000Y-59600000D01*
X158625000Y-58600000D01*
X159625000Y-58600000D01*
X159625000Y-59600000D01*
G37*
G36*
X160875000Y-59600000D02*
G01*
X159875000Y-59600000D01*
X159875000Y-58600000D01*
X160875000Y-58600000D01*
X160875000Y-59600000D01*
G37*
G36*
X164700000Y-59600000D02*
G01*
X163700000Y-59600000D01*
X163700000Y-58600000D01*
X164700000Y-58600000D01*
X164700000Y-59600000D01*
G37*
G36*
X167200000Y-59600000D02*
G01*
X166200000Y-59600000D01*
X166200000Y-58600000D01*
X167200000Y-58600000D01*
X167200000Y-59600000D01*
G37*
G36*
X165950000Y-59600000D02*
G01*
X164950000Y-59600000D01*
X164950000Y-58600000D01*
X165950000Y-58600000D01*
X165950000Y-59600000D01*
G37*
G36*
X135575000Y-59600000D02*
G01*
X134575000Y-59600000D01*
X134575000Y-58600000D01*
X135575000Y-58600000D01*
X135575000Y-59600000D01*
G37*
G36*
X153300000Y-59600000D02*
G01*
X152300000Y-59600000D01*
X152300000Y-58600000D01*
X153300000Y-58600000D01*
X153300000Y-59600000D01*
G37*
G36*
X114250000Y-58850000D02*
G01*
X113350000Y-58850000D01*
X113350000Y-56250000D01*
X114250000Y-56250000D01*
X114250000Y-58850000D01*
G37*
G36*
X117350000Y-58850000D02*
G01*
X116450000Y-58850000D01*
X116450000Y-56250000D01*
X117350000Y-56250000D01*
X117350000Y-58850000D01*
G37*
G36*
X118600000Y-58850000D02*
G01*
X117700000Y-58850000D01*
X117700000Y-56250000D01*
X118600000Y-56250000D01*
X118600000Y-58850000D01*
G37*
G36*
X121700000Y-58850000D02*
G01*
X120800000Y-58850000D01*
X120800000Y-56250000D01*
X121700000Y-56250000D01*
X121700000Y-58850000D01*
G37*
G36*
X127300000Y-58850000D02*
G01*
X126400000Y-58850000D01*
X126400000Y-56250000D01*
X127300000Y-56250000D01*
X127300000Y-58850000D01*
G37*
G36*
X130400000Y-58850000D02*
G01*
X129500000Y-58850000D01*
X129500000Y-56250000D01*
X130400000Y-56250000D01*
X130400000Y-58850000D01*
G37*
G36*
X126050000Y-58850000D02*
G01*
X125150000Y-58850000D01*
X125150000Y-56250000D01*
X126050000Y-56250000D01*
X126050000Y-58850000D01*
G37*
G36*
X122950000Y-58850000D02*
G01*
X122050000Y-58850000D01*
X122050000Y-56250000D01*
X122950000Y-56250000D01*
X122950000Y-58850000D01*
G37*
G36*
X170925000Y-58625000D02*
G01*
X170025000Y-58625000D01*
X170025000Y-58125000D01*
X170925000Y-58125000D01*
X170925000Y-58625000D01*
G37*
G36*
X133866629Y-56727300D02*
G01*
X134026855Y-56775903D01*
X134174519Y-56854832D01*
X134303948Y-56961052D01*
X134410168Y-57090481D01*
X134489097Y-57238145D01*
X134503234Y-57284749D01*
X134508858Y-57298325D01*
X134517026Y-57310550D01*
X134527422Y-57320946D01*
X134539647Y-57329114D01*
X134553230Y-57334741D01*
X134567650Y-57337609D01*
X134582352Y-57337609D01*
X134596772Y-57334741D01*
X134610355Y-57329114D01*
X134622580Y-57320946D01*
X134632976Y-57310550D01*
X134641144Y-57298325D01*
X134646771Y-57284742D01*
X134649639Y-57270322D01*
X134650000Y-57262971D01*
X134650000Y-56900000D01*
X135150000Y-56900000D01*
X135150000Y-57350001D01*
X135151441Y-57364633D01*
X135155709Y-57378702D01*
X135162640Y-57391668D01*
X135171967Y-57403033D01*
X135183332Y-57412360D01*
X135196298Y-57419291D01*
X135210367Y-57423559D01*
X135224999Y-57425000D01*
X135575000Y-57425000D01*
X135575000Y-58425000D01*
X132075000Y-58425000D01*
X132075000Y-57784621D01*
X132071771Y-57762850D01*
X132062300Y-57731629D01*
X132045888Y-57565000D01*
X132062300Y-57398371D01*
X132110903Y-57238145D01*
X132189832Y-57090481D01*
X132296052Y-56961052D01*
X132425481Y-56854832D01*
X132573145Y-56775903D01*
X132733371Y-56727300D01*
X132858251Y-56715000D01*
X133741749Y-56715000D01*
X133866629Y-56727300D01*
G37*
G36*
X146516629Y-56727300D02*
G01*
X146676855Y-56775903D01*
X146824519Y-56854832D01*
X146953948Y-56961052D01*
X147060168Y-57090481D01*
X147139097Y-57238145D01*
X147153234Y-57284749D01*
X147158858Y-57298325D01*
X147167026Y-57310550D01*
X147177422Y-57320946D01*
X147189647Y-57329114D01*
X147203230Y-57334741D01*
X147217650Y-57337609D01*
X147232352Y-57337609D01*
X147246772Y-57334741D01*
X147260355Y-57329114D01*
X147272580Y-57320946D01*
X147282976Y-57310550D01*
X147291144Y-57298325D01*
X147296771Y-57284742D01*
X147299639Y-57270322D01*
X147300000Y-57262971D01*
X147300000Y-56900000D01*
X147800000Y-56900000D01*
X147800000Y-57350001D01*
X147801441Y-57364633D01*
X147805709Y-57378702D01*
X147812640Y-57391668D01*
X147821967Y-57403033D01*
X147833332Y-57412360D01*
X147846298Y-57419291D01*
X147860367Y-57423559D01*
X147874999Y-57425000D01*
X148225000Y-57425000D01*
X148225000Y-58425000D01*
X144725000Y-58425000D01*
X144725000Y-57784621D01*
X144721771Y-57762850D01*
X144712300Y-57731629D01*
X144695888Y-57565000D01*
X144712300Y-57398371D01*
X144760903Y-57238145D01*
X144839832Y-57090481D01*
X144946052Y-56961052D01*
X145075481Y-56854832D01*
X145223145Y-56775903D01*
X145383371Y-56727300D01*
X145508251Y-56715000D01*
X146391749Y-56715000D01*
X146516629Y-56727300D01*
G37*
G36*
X152841629Y-56727300D02*
G01*
X153001855Y-56775903D01*
X153149519Y-56854832D01*
X153278948Y-56961052D01*
X153385168Y-57090481D01*
X153464097Y-57238145D01*
X153478234Y-57284749D01*
X153483858Y-57298325D01*
X153492026Y-57310550D01*
X153502422Y-57320946D01*
X153514647Y-57329114D01*
X153528230Y-57334741D01*
X153542650Y-57337609D01*
X153557352Y-57337609D01*
X153571772Y-57334741D01*
X153585355Y-57329114D01*
X153597580Y-57320946D01*
X153607976Y-57310550D01*
X153616144Y-57298325D01*
X153621771Y-57284742D01*
X153624639Y-57270322D01*
X153625000Y-57262971D01*
X153625000Y-56900000D01*
X154125000Y-56900000D01*
X154125000Y-57350001D01*
X154126441Y-57364633D01*
X154130709Y-57378702D01*
X154137640Y-57391668D01*
X154146967Y-57403033D01*
X154158332Y-57412360D01*
X154171298Y-57419291D01*
X154185367Y-57423559D01*
X154199999Y-57425000D01*
X154550000Y-57425000D01*
X154550000Y-58425000D01*
X151050000Y-58425000D01*
X151050000Y-57784621D01*
X151046771Y-57762850D01*
X151037300Y-57731629D01*
X151020888Y-57565000D01*
X151037300Y-57398371D01*
X151085903Y-57238145D01*
X151164832Y-57090481D01*
X151271052Y-56961052D01*
X151400481Y-56854832D01*
X151548145Y-56775903D01*
X151708371Y-56727300D01*
X151833251Y-56715000D01*
X152716749Y-56715000D01*
X152841629Y-56727300D01*
G37*
G36*
X140191629Y-56727300D02*
G01*
X140351855Y-56775903D01*
X140499519Y-56854832D01*
X140628948Y-56961052D01*
X140735168Y-57090481D01*
X140814097Y-57238145D01*
X140828234Y-57284749D01*
X140833858Y-57298325D01*
X140842026Y-57310550D01*
X140852422Y-57320946D01*
X140864647Y-57329114D01*
X140878230Y-57334741D01*
X140892650Y-57337609D01*
X140907352Y-57337609D01*
X140921772Y-57334741D01*
X140935355Y-57329114D01*
X140947580Y-57320946D01*
X140957976Y-57310550D01*
X140966144Y-57298325D01*
X140971771Y-57284742D01*
X140974639Y-57270322D01*
X140975000Y-57262971D01*
X140975000Y-56900000D01*
X141475000Y-56900000D01*
X141475000Y-57350001D01*
X141476441Y-57364633D01*
X141480709Y-57378702D01*
X141487640Y-57391668D01*
X141496967Y-57403033D01*
X141508332Y-57412360D01*
X141521298Y-57419291D01*
X141535367Y-57423559D01*
X141549999Y-57425000D01*
X141900000Y-57425000D01*
X141900000Y-58425000D01*
X138400000Y-58425000D01*
X138400000Y-57784621D01*
X138396771Y-57762850D01*
X138387300Y-57731629D01*
X138370888Y-57565000D01*
X138387300Y-57398371D01*
X138435903Y-57238145D01*
X138514832Y-57090481D01*
X138621052Y-56961052D01*
X138750481Y-56854832D01*
X138898145Y-56775903D01*
X139058371Y-56727300D01*
X139183251Y-56715000D01*
X140066749Y-56715000D01*
X140191629Y-56727300D01*
G37*
G36*
X165491629Y-56727300D02*
G01*
X165651855Y-56775903D01*
X165799519Y-56854832D01*
X165928948Y-56961052D01*
X166035168Y-57090481D01*
X166114097Y-57238145D01*
X166128234Y-57284749D01*
X166133858Y-57298325D01*
X166142026Y-57310550D01*
X166152422Y-57320946D01*
X166164647Y-57329114D01*
X166178230Y-57334741D01*
X166192650Y-57337609D01*
X166207352Y-57337609D01*
X166221772Y-57334741D01*
X166235355Y-57329114D01*
X166247580Y-57320946D01*
X166257976Y-57310550D01*
X166266144Y-57298325D01*
X166271771Y-57284742D01*
X166274639Y-57270322D01*
X166275000Y-57262971D01*
X166275000Y-56900000D01*
X166775000Y-56900000D01*
X166775000Y-57350001D01*
X166776441Y-57364633D01*
X166780709Y-57378702D01*
X166787640Y-57391668D01*
X166796967Y-57403033D01*
X166808332Y-57412360D01*
X166821298Y-57419291D01*
X166835367Y-57423559D01*
X166849999Y-57425000D01*
X167200000Y-57425000D01*
X167200000Y-58425000D01*
X163700000Y-58425000D01*
X163700000Y-57784621D01*
X163696771Y-57762850D01*
X163687300Y-57731629D01*
X163670888Y-57565000D01*
X163687300Y-57398371D01*
X163735903Y-57238145D01*
X163814832Y-57090481D01*
X163921052Y-56961052D01*
X164050481Y-56854832D01*
X164198145Y-56775903D01*
X164358371Y-56727300D01*
X164483251Y-56715000D01*
X165366749Y-56715000D01*
X165491629Y-56727300D01*
G37*
G36*
X159166629Y-56727300D02*
G01*
X159326855Y-56775903D01*
X159474519Y-56854832D01*
X159603948Y-56961052D01*
X159710168Y-57090481D01*
X159789097Y-57238145D01*
X159803234Y-57284749D01*
X159808858Y-57298325D01*
X159817026Y-57310550D01*
X159827422Y-57320946D01*
X159839647Y-57329114D01*
X159853230Y-57334741D01*
X159867650Y-57337609D01*
X159882352Y-57337609D01*
X159896772Y-57334741D01*
X159910355Y-57329114D01*
X159922580Y-57320946D01*
X159932976Y-57310550D01*
X159941144Y-57298325D01*
X159946771Y-57284742D01*
X159949639Y-57270322D01*
X159950000Y-57262971D01*
X159950000Y-56900000D01*
X160450000Y-56900000D01*
X160450000Y-57350001D01*
X160451441Y-57364633D01*
X160455709Y-57378702D01*
X160462640Y-57391668D01*
X160471967Y-57403033D01*
X160483332Y-57412360D01*
X160496298Y-57419291D01*
X160510367Y-57423559D01*
X160524999Y-57425000D01*
X160875000Y-57425000D01*
X160875000Y-58425000D01*
X157375000Y-58425000D01*
X157375000Y-57784621D01*
X157371771Y-57762850D01*
X157362300Y-57731629D01*
X157345888Y-57565000D01*
X157362300Y-57398371D01*
X157410903Y-57238145D01*
X157489832Y-57090481D01*
X157596052Y-56961052D01*
X157725481Y-56854832D01*
X157873145Y-56775903D01*
X158033371Y-56727300D01*
X158158251Y-56715000D01*
X159041749Y-56715000D01*
X159166629Y-56727300D01*
G37*
G36*
X155625000Y-57800000D02*
G01*
X155125000Y-57800000D01*
X155125000Y-56900000D01*
X155625000Y-56900000D01*
X155625000Y-57800000D01*
G37*
G36*
X168275000Y-57800000D02*
G01*
X167775000Y-57800000D01*
X167775000Y-56900000D01*
X168275000Y-56900000D01*
X168275000Y-57800000D01*
G37*
G36*
X161950000Y-57800000D02*
G01*
X161450000Y-57800000D01*
X161450000Y-56900000D01*
X161950000Y-56900000D01*
X161950000Y-57800000D01*
G37*
G36*
X142975000Y-57800000D02*
G01*
X142475000Y-57800000D01*
X142475000Y-56900000D01*
X142975000Y-56900000D01*
X142975000Y-57800000D01*
G37*
G36*
X136650000Y-57800000D02*
G01*
X136150000Y-57800000D01*
X136150000Y-56900000D01*
X136650000Y-56900000D01*
X136650000Y-57800000D01*
G37*
G36*
X149300000Y-57800000D02*
G01*
X148800000Y-57800000D01*
X148800000Y-56900000D01*
X149300000Y-56900000D01*
X149300000Y-57800000D01*
G37*
G36*
X142975000Y-56475000D02*
G01*
X142475000Y-56475000D01*
X142475000Y-55575000D01*
X142975000Y-55575000D01*
X142975000Y-56475000D01*
G37*
G36*
X166775000Y-56475000D02*
G01*
X166275000Y-56475000D01*
X166275000Y-55575000D01*
X166775000Y-55575000D01*
X166775000Y-56475000D01*
G37*
G36*
X168275000Y-56475000D02*
G01*
X167775000Y-56475000D01*
X167775000Y-55575000D01*
X168275000Y-55575000D01*
X168275000Y-56475000D01*
G37*
G36*
X141475000Y-56475000D02*
G01*
X140975000Y-56475000D01*
X140975000Y-55575000D01*
X141475000Y-55575000D01*
X141475000Y-56475000D01*
G37*
G36*
X136650000Y-56475000D02*
G01*
X136150000Y-56475000D01*
X136150000Y-55575000D01*
X136650000Y-55575000D01*
X136650000Y-56475000D01*
G37*
G36*
X135150000Y-56475000D02*
G01*
X134650000Y-56475000D01*
X134650000Y-55575000D01*
X135150000Y-55575000D01*
X135150000Y-56475000D01*
G37*
G36*
X154125000Y-56475000D02*
G01*
X153625000Y-56475000D01*
X153625000Y-55575000D01*
X154125000Y-55575000D01*
X154125000Y-56475000D01*
G37*
G36*
X155625000Y-56475000D02*
G01*
X155125000Y-56475000D01*
X155125000Y-55575000D01*
X155625000Y-55575000D01*
X155625000Y-56475000D01*
G37*
G36*
X149300000Y-56475000D02*
G01*
X148800000Y-56475000D01*
X148800000Y-55575000D01*
X149300000Y-55575000D01*
X149300000Y-56475000D01*
G37*
G36*
X147800000Y-56475000D02*
G01*
X147300000Y-56475000D01*
X147300000Y-55575000D01*
X147800000Y-55575000D01*
X147800000Y-56475000D01*
G37*
G36*
X161950000Y-56475000D02*
G01*
X161450000Y-56475000D01*
X161450000Y-55575000D01*
X161950000Y-55575000D01*
X161950000Y-56475000D01*
G37*
G36*
X160450000Y-56475000D02*
G01*
X159950000Y-56475000D01*
X159950000Y-55575000D01*
X160450000Y-55575000D01*
X160450000Y-56475000D01*
G37*
G36*
X104036498Y-50802840D02*
G01*
X104302146Y-50855681D01*
X104802616Y-51062982D01*
X105253023Y-51363935D01*
X105636065Y-51746977D01*
X105937018Y-52197384D01*
X106144319Y-52697854D01*
X106187315Y-52914011D01*
X106249175Y-53224999D01*
X106250000Y-53229150D01*
X106250000Y-53770850D01*
X106144319Y-54302146D01*
X105937018Y-54802616D01*
X105636065Y-55253023D01*
X105253023Y-55636065D01*
X104802616Y-55937018D01*
X104302146Y-56144319D01*
X104036498Y-56197159D01*
X103770851Y-56250000D01*
X103229149Y-56250000D01*
X102963502Y-56197159D01*
X102697854Y-56144319D01*
X102197384Y-55937018D01*
X101746977Y-55636065D01*
X101363935Y-55253023D01*
X101062982Y-54802616D01*
X100855681Y-54302146D01*
X100750000Y-53770850D01*
X100750000Y-53229150D01*
X100750826Y-53224999D01*
X100812685Y-52914011D01*
X100855681Y-52697854D01*
X101062982Y-52197384D01*
X101363935Y-51746977D01*
X101746977Y-51363935D01*
X102197384Y-51062982D01*
X102697854Y-50855681D01*
X102963502Y-50802840D01*
X103229149Y-50750000D01*
X103770851Y-50750000D01*
X104036498Y-50802840D01*
G37*
G36*
X172036498Y-50802840D02*
G01*
X172302146Y-50855681D01*
X172802616Y-51062982D01*
X173253023Y-51363935D01*
X173636065Y-51746977D01*
X173937018Y-52197384D01*
X174144319Y-52697854D01*
X174187315Y-52914011D01*
X174249175Y-53224999D01*
X174250000Y-53229150D01*
X174250000Y-53770850D01*
X174144319Y-54302146D01*
X173937018Y-54802616D01*
X173636065Y-55253023D01*
X173253023Y-55636065D01*
X172802616Y-55937018D01*
X172302146Y-56144319D01*
X172036498Y-56197159D01*
X171770851Y-56250000D01*
X171229149Y-56250000D01*
X170963502Y-56197159D01*
X170697854Y-56144319D01*
X170197384Y-55937018D01*
X169746977Y-55636065D01*
X169363935Y-55253023D01*
X169062982Y-54802616D01*
X168855681Y-54302146D01*
X168750000Y-53770850D01*
X168750000Y-53224999D01*
X168748559Y-53210367D01*
X168744291Y-53196298D01*
X168737360Y-53183332D01*
X168728033Y-53171967D01*
X168716668Y-53162640D01*
X168703702Y-53155709D01*
X168689633Y-53151441D01*
X168675001Y-53150000D01*
X167775000Y-53150000D01*
X167775000Y-52500000D01*
X168675000Y-52500000D01*
X168675000Y-52844721D01*
X168676441Y-52859353D01*
X168680709Y-52873422D01*
X168687640Y-52886388D01*
X168696967Y-52897753D01*
X168708332Y-52907080D01*
X168721298Y-52914011D01*
X168735367Y-52918279D01*
X168749999Y-52919720D01*
X168764631Y-52918279D01*
X168778700Y-52914011D01*
X168791666Y-52907080D01*
X168803031Y-52897753D01*
X168812358Y-52886388D01*
X168819289Y-52873422D01*
X168823557Y-52859353D01*
X168855681Y-52697854D01*
X169062982Y-52197384D01*
X169363935Y-51746977D01*
X169746977Y-51363935D01*
X170197384Y-51062982D01*
X170697854Y-50855681D01*
X170963502Y-50802840D01*
X171229149Y-50750000D01*
X171770851Y-50750000D01*
X172036498Y-50802840D01*
G37*
G36*
X133866629Y-54187300D02*
G01*
X134026855Y-54235903D01*
X134174519Y-54314832D01*
X134303948Y-54421052D01*
X134410168Y-54550481D01*
X134489097Y-54698145D01*
X134537700Y-54858371D01*
X134554112Y-55025000D01*
X134537700Y-55191629D01*
X134489097Y-55351855D01*
X134410168Y-55499519D01*
X134303948Y-55628948D01*
X134174519Y-55735168D01*
X134026855Y-55814097D01*
X133866629Y-55862700D01*
X133741749Y-55875000D01*
X132858251Y-55875000D01*
X132733371Y-55862700D01*
X132573145Y-55814097D01*
X132425481Y-55735168D01*
X132296052Y-55628948D01*
X132189832Y-55499519D01*
X132110903Y-55351855D01*
X132062300Y-55191629D01*
X132045888Y-55025000D01*
X132062300Y-54858371D01*
X132110903Y-54698145D01*
X132189832Y-54550481D01*
X132296052Y-54421052D01*
X132425481Y-54314832D01*
X132573145Y-54235903D01*
X132733371Y-54187300D01*
X132858251Y-54175000D01*
X133741749Y-54175000D01*
X133866629Y-54187300D01*
G37*
G36*
X152841629Y-54187300D02*
G01*
X153001855Y-54235903D01*
X153149519Y-54314832D01*
X153278948Y-54421052D01*
X153385168Y-54550481D01*
X153464097Y-54698145D01*
X153512700Y-54858371D01*
X153529112Y-55025000D01*
X153512700Y-55191629D01*
X153464097Y-55351855D01*
X153385168Y-55499519D01*
X153278948Y-55628948D01*
X153149519Y-55735168D01*
X153001855Y-55814097D01*
X152841629Y-55862700D01*
X152716749Y-55875000D01*
X151833251Y-55875000D01*
X151708371Y-55862700D01*
X151548145Y-55814097D01*
X151400481Y-55735168D01*
X151271052Y-55628948D01*
X151164832Y-55499519D01*
X151085903Y-55351855D01*
X151037300Y-55191629D01*
X151020888Y-55025000D01*
X151037300Y-54858371D01*
X151085903Y-54698145D01*
X151164832Y-54550481D01*
X151271052Y-54421052D01*
X151400481Y-54314832D01*
X151548145Y-54235903D01*
X151708371Y-54187300D01*
X151833251Y-54175000D01*
X152716749Y-54175000D01*
X152841629Y-54187300D01*
G37*
G36*
X165491629Y-54187300D02*
G01*
X165651855Y-54235903D01*
X165799519Y-54314832D01*
X165928948Y-54421052D01*
X166035168Y-54550481D01*
X166114097Y-54698145D01*
X166162700Y-54858371D01*
X166179112Y-55025000D01*
X166162700Y-55191629D01*
X166114097Y-55351855D01*
X166035168Y-55499519D01*
X165928948Y-55628948D01*
X165799519Y-55735168D01*
X165651855Y-55814097D01*
X165491629Y-55862700D01*
X165366749Y-55875000D01*
X164483251Y-55875000D01*
X164358371Y-55862700D01*
X164198145Y-55814097D01*
X164050481Y-55735168D01*
X163921052Y-55628948D01*
X163814832Y-55499519D01*
X163735903Y-55351855D01*
X163687300Y-55191629D01*
X163670888Y-55025000D01*
X163687300Y-54858371D01*
X163735903Y-54698145D01*
X163814832Y-54550481D01*
X163921052Y-54421052D01*
X164050481Y-54314832D01*
X164198145Y-54235903D01*
X164358371Y-54187300D01*
X164483251Y-54175000D01*
X165366749Y-54175000D01*
X165491629Y-54187300D01*
G37*
G36*
X146516629Y-54187300D02*
G01*
X146676855Y-54235903D01*
X146824519Y-54314832D01*
X146953948Y-54421052D01*
X147060168Y-54550481D01*
X147139097Y-54698145D01*
X147187700Y-54858371D01*
X147204112Y-55025000D01*
X147187700Y-55191629D01*
X147139097Y-55351855D01*
X147060168Y-55499519D01*
X146953948Y-55628948D01*
X146824519Y-55735168D01*
X146676855Y-55814097D01*
X146516629Y-55862700D01*
X146391749Y-55875000D01*
X145508251Y-55875000D01*
X145383371Y-55862700D01*
X145223145Y-55814097D01*
X145075481Y-55735168D01*
X144946052Y-55628948D01*
X144839832Y-55499519D01*
X144760903Y-55351855D01*
X144712300Y-55191629D01*
X144695888Y-55025000D01*
X144712300Y-54858371D01*
X144760903Y-54698145D01*
X144839832Y-54550481D01*
X144946052Y-54421052D01*
X145075481Y-54314832D01*
X145223145Y-54235903D01*
X145383371Y-54187300D01*
X145508251Y-54175000D01*
X146391749Y-54175000D01*
X146516629Y-54187300D01*
G37*
G36*
X140191629Y-54187300D02*
G01*
X140351855Y-54235903D01*
X140499519Y-54314832D01*
X140628948Y-54421052D01*
X140735168Y-54550481D01*
X140814097Y-54698145D01*
X140862700Y-54858371D01*
X140879112Y-55025000D01*
X140862700Y-55191629D01*
X140814097Y-55351855D01*
X140735168Y-55499519D01*
X140628948Y-55628948D01*
X140499519Y-55735168D01*
X140351855Y-55814097D01*
X140191629Y-55862700D01*
X140066749Y-55875000D01*
X139183251Y-55875000D01*
X139058371Y-55862700D01*
X138898145Y-55814097D01*
X138750481Y-55735168D01*
X138621052Y-55628948D01*
X138514832Y-55499519D01*
X138435903Y-55351855D01*
X138387300Y-55191629D01*
X138370888Y-55025000D01*
X138387300Y-54858371D01*
X138435903Y-54698145D01*
X138514832Y-54550481D01*
X138621052Y-54421052D01*
X138750481Y-54314832D01*
X138898145Y-54235903D01*
X139058371Y-54187300D01*
X139183251Y-54175000D01*
X140066749Y-54175000D01*
X140191629Y-54187300D01*
G37*
G36*
X159166629Y-54187300D02*
G01*
X159326855Y-54235903D01*
X159474519Y-54314832D01*
X159603948Y-54421052D01*
X159710168Y-54550481D01*
X159789097Y-54698145D01*
X159837700Y-54858371D01*
X159854112Y-55025000D01*
X159837700Y-55191629D01*
X159789097Y-55351855D01*
X159710168Y-55499519D01*
X159603948Y-55628948D01*
X159474519Y-55735168D01*
X159326855Y-55814097D01*
X159166629Y-55862700D01*
X159041749Y-55875000D01*
X158158251Y-55875000D01*
X158033371Y-55862700D01*
X157873145Y-55814097D01*
X157725481Y-55735168D01*
X157596052Y-55628948D01*
X157489832Y-55499519D01*
X157410903Y-55351855D01*
X157362300Y-55191629D01*
X157345888Y-55025000D01*
X157362300Y-54858371D01*
X157410903Y-54698145D01*
X157489832Y-54550481D01*
X157596052Y-54421052D01*
X157725481Y-54314832D01*
X157873145Y-54235903D01*
X158033371Y-54187300D01*
X158158251Y-54175000D01*
X159041749Y-54175000D01*
X159166629Y-54187300D01*
G37*
G36*
X130400000Y-55650000D02*
G01*
X129500000Y-55650000D01*
X129500000Y-53050000D01*
X130400000Y-53050000D01*
X130400000Y-55650000D01*
G37*
G36*
X114250000Y-55650000D02*
G01*
X113350000Y-55650000D01*
X113350000Y-53050000D01*
X114250000Y-53050000D01*
X114250000Y-55650000D01*
G37*
G36*
X117350000Y-55650000D02*
G01*
X116450000Y-55650000D01*
X116450000Y-53050000D01*
X117350000Y-53050000D01*
X117350000Y-55650000D01*
G37*
G36*
X118600000Y-55650000D02*
G01*
X117700000Y-55650000D01*
X117700000Y-53050000D01*
X118600000Y-53050000D01*
X118600000Y-55650000D01*
G37*
G36*
X126050000Y-55650000D02*
G01*
X125150000Y-55650000D01*
X125150000Y-53050000D01*
X126050000Y-53050000D01*
X126050000Y-55650000D01*
G37*
G36*
X122950000Y-55650000D02*
G01*
X122050000Y-55650000D01*
X122050000Y-53050000D01*
X122950000Y-53050000D01*
X122950000Y-55650000D01*
G37*
G36*
X127300000Y-55650000D02*
G01*
X126400000Y-55650000D01*
X126400000Y-53050000D01*
X127300000Y-53050000D01*
X127300000Y-55650000D01*
G37*
G36*
X121700000Y-55650000D02*
G01*
X120800000Y-55650000D01*
X120800000Y-53050000D01*
X121700000Y-53050000D01*
X121700000Y-55650000D01*
G37*
G36*
X166775000Y-54475000D02*
G01*
X166275000Y-54475000D01*
X166275000Y-53575000D01*
X166775000Y-53575000D01*
X166775000Y-54475000D01*
G37*
G36*
X136650000Y-54475000D02*
G01*
X136150000Y-54475000D01*
X136150000Y-53575000D01*
X136650000Y-53575000D01*
X136650000Y-54475000D01*
G37*
G36*
X135150000Y-54475000D02*
G01*
X134650000Y-54475000D01*
X134650000Y-53575000D01*
X135150000Y-53575000D01*
X135150000Y-54475000D01*
G37*
G36*
X168275000Y-54475000D02*
G01*
X167775000Y-54475000D01*
X167775000Y-53575000D01*
X168275000Y-53575000D01*
X168275000Y-54475000D01*
G37*
G36*
X161950000Y-54475000D02*
G01*
X161450000Y-54475000D01*
X161450000Y-53575000D01*
X161950000Y-53575000D01*
X161950000Y-54475000D01*
G37*
G36*
X160450000Y-54475000D02*
G01*
X159950000Y-54475000D01*
X159950000Y-53575000D01*
X160450000Y-53575000D01*
X160450000Y-54475000D01*
G37*
G36*
X154125000Y-54475000D02*
G01*
X153625000Y-54475000D01*
X153625000Y-53575000D01*
X154125000Y-53575000D01*
X154125000Y-54475000D01*
G37*
G36*
X149300000Y-54475000D02*
G01*
X148800000Y-54475000D01*
X148800000Y-53575000D01*
X149300000Y-53575000D01*
X149300000Y-54475000D01*
G37*
G36*
X155625000Y-54475000D02*
G01*
X155125000Y-54475000D01*
X155125000Y-53575000D01*
X155625000Y-53575000D01*
X155625000Y-54475000D01*
G37*
G36*
X142975000Y-54475000D02*
G01*
X142475000Y-54475000D01*
X142475000Y-53575000D01*
X142975000Y-53575000D01*
X142975000Y-54475000D01*
G37*
G36*
X141475000Y-54475000D02*
G01*
X140975000Y-54475000D01*
X140975000Y-53575000D01*
X141475000Y-53575000D01*
X141475000Y-54475000D01*
G37*
G36*
X147800000Y-54475000D02*
G01*
X147300000Y-54475000D01*
X147300000Y-53575000D01*
X147800000Y-53575000D01*
X147800000Y-54475000D01*
G37*
G36*
X160150000Y-52200000D02*
G01*
X159902917Y-52200000D01*
X159888285Y-52201441D01*
X159874216Y-52205709D01*
X159861250Y-52212640D01*
X159849885Y-52221967D01*
X159840558Y-52233332D01*
X159833627Y-52246298D01*
X159829359Y-52260367D01*
X159827918Y-52274999D01*
X159829359Y-52289631D01*
X159831144Y-52296760D01*
X159837700Y-52318371D01*
X159854112Y-52485000D01*
X159837700Y-52651629D01*
X159789097Y-52811855D01*
X159710168Y-52959519D01*
X159603948Y-53088948D01*
X159474519Y-53195168D01*
X159326855Y-53274097D01*
X159166629Y-53322700D01*
X159041749Y-53335000D01*
X158158251Y-53335000D01*
X158033371Y-53322700D01*
X157873145Y-53274097D01*
X157725481Y-53195168D01*
X157596052Y-53088948D01*
X157489832Y-52959519D01*
X157410903Y-52811855D01*
X157362300Y-52651629D01*
X157345888Y-52485000D01*
X157362300Y-52318371D01*
X157410903Y-52158145D01*
X157489832Y-52010481D01*
X157596052Y-51881052D01*
X157725481Y-51774832D01*
X157873145Y-51695903D01*
X158033371Y-51647300D01*
X158133192Y-51637468D01*
X158147608Y-51634601D01*
X158161191Y-51628974D01*
X158173416Y-51620806D01*
X158183812Y-51610410D01*
X158191980Y-51598185D01*
X158197607Y-51584602D01*
X158198595Y-51579629D01*
X158199999Y-51575004D01*
X158200000Y-51575000D01*
X158200002Y-51575000D01*
X158203686Y-51574637D01*
X158996314Y-51574637D01*
X158999998Y-51575000D01*
X159000000Y-51575000D01*
X159000001Y-51575004D01*
X159001402Y-51579621D01*
X159002389Y-51584589D01*
X159008013Y-51598173D01*
X159016179Y-51610399D01*
X159026573Y-51620797D01*
X159038796Y-51628968D01*
X159052379Y-51634596D01*
X159066808Y-51637468D01*
X159166629Y-51647300D01*
X159166631Y-51647301D01*
X159167650Y-51647401D01*
X159182352Y-51647401D01*
X159196772Y-51644533D01*
X159210355Y-51638906D01*
X159222580Y-51630738D01*
X159232976Y-51620342D01*
X159241144Y-51608117D01*
X159246770Y-51594534D01*
X159249639Y-51580114D01*
X159250000Y-51572763D01*
X159250000Y-51550000D01*
X160150000Y-51550000D01*
X160150000Y-52200000D01*
G37*
G36*
X166475000Y-52200000D02*
G01*
X166227917Y-52200000D01*
X166213285Y-52201441D01*
X166199216Y-52205709D01*
X166186250Y-52212640D01*
X166174885Y-52221967D01*
X166165558Y-52233332D01*
X166158627Y-52246298D01*
X166154359Y-52260367D01*
X166152918Y-52274999D01*
X166154359Y-52289631D01*
X166156144Y-52296760D01*
X166162700Y-52318371D01*
X166179112Y-52485000D01*
X166162700Y-52651629D01*
X166114097Y-52811855D01*
X166035168Y-52959519D01*
X165928948Y-53088948D01*
X165799519Y-53195168D01*
X165651855Y-53274097D01*
X165491629Y-53322700D01*
X165366749Y-53335000D01*
X164483251Y-53335000D01*
X164358371Y-53322700D01*
X164198145Y-53274097D01*
X164050481Y-53195168D01*
X163921052Y-53088948D01*
X163814832Y-52959519D01*
X163735903Y-52811855D01*
X163687300Y-52651629D01*
X163670888Y-52485000D01*
X163687300Y-52318371D01*
X163735903Y-52158145D01*
X163814832Y-52010481D01*
X163921052Y-51881052D01*
X164050481Y-51774832D01*
X164198145Y-51695903D01*
X164358371Y-51647300D01*
X164458192Y-51637468D01*
X164472608Y-51634601D01*
X164486191Y-51628974D01*
X164498416Y-51620806D01*
X164508812Y-51610410D01*
X164516980Y-51598185D01*
X164522607Y-51584602D01*
X164523595Y-51579629D01*
X164524999Y-51575004D01*
X164525000Y-51575000D01*
X164525002Y-51575000D01*
X164528686Y-51574637D01*
X165321314Y-51574637D01*
X165324998Y-51575000D01*
X165325000Y-51575000D01*
X165325001Y-51575004D01*
X165326402Y-51579621D01*
X165327389Y-51584589D01*
X165333013Y-51598173D01*
X165341179Y-51610399D01*
X165351573Y-51620797D01*
X165363796Y-51628968D01*
X165377379Y-51634596D01*
X165391808Y-51637468D01*
X165491629Y-51647300D01*
X165491631Y-51647301D01*
X165492650Y-51647401D01*
X165507352Y-51647401D01*
X165521772Y-51644533D01*
X165535355Y-51638906D01*
X165547580Y-51630738D01*
X165557976Y-51620342D01*
X165566144Y-51608117D01*
X165571770Y-51594534D01*
X165574639Y-51580114D01*
X165575000Y-51572763D01*
X165575000Y-51550000D01*
X166475000Y-51550000D01*
X166475000Y-52200000D01*
G37*
G36*
X153825000Y-52200000D02*
G01*
X153577917Y-52200000D01*
X153563285Y-52201441D01*
X153549216Y-52205709D01*
X153536250Y-52212640D01*
X153524885Y-52221967D01*
X153515558Y-52233332D01*
X153508627Y-52246298D01*
X153504359Y-52260367D01*
X153502918Y-52274999D01*
X153504359Y-52289631D01*
X153506144Y-52296760D01*
X153512700Y-52318371D01*
X153529112Y-52485000D01*
X153512700Y-52651629D01*
X153464097Y-52811855D01*
X153385168Y-52959519D01*
X153278948Y-53088948D01*
X153149519Y-53195168D01*
X153001855Y-53274097D01*
X152841629Y-53322700D01*
X152716749Y-53335000D01*
X151833251Y-53335000D01*
X151708371Y-53322700D01*
X151548145Y-53274097D01*
X151400481Y-53195168D01*
X151271052Y-53088948D01*
X151164832Y-52959519D01*
X151085903Y-52811855D01*
X151037300Y-52651629D01*
X151020888Y-52485000D01*
X151037300Y-52318371D01*
X151085903Y-52158145D01*
X151164832Y-52010481D01*
X151271052Y-51881052D01*
X151400481Y-51774832D01*
X151548145Y-51695903D01*
X151708371Y-51647300D01*
X151808192Y-51637468D01*
X151822608Y-51634601D01*
X151836191Y-51628974D01*
X151848416Y-51620806D01*
X151858812Y-51610410D01*
X151866980Y-51598185D01*
X151872607Y-51584602D01*
X151873595Y-51579629D01*
X151874999Y-51575004D01*
X151875000Y-51575000D01*
X151875002Y-51575000D01*
X151878686Y-51574637D01*
X152671314Y-51574637D01*
X152674998Y-51575000D01*
X152675000Y-51575000D01*
X152675001Y-51575004D01*
X152676402Y-51579621D01*
X152677389Y-51584589D01*
X152683013Y-51598173D01*
X152691179Y-51610399D01*
X152701573Y-51620797D01*
X152713796Y-51628968D01*
X152727379Y-51634596D01*
X152741808Y-51637468D01*
X152841629Y-51647300D01*
X152841631Y-51647301D01*
X152842650Y-51647401D01*
X152857352Y-51647401D01*
X152871772Y-51644533D01*
X152885355Y-51638906D01*
X152897580Y-51630738D01*
X152907976Y-51620342D01*
X152916144Y-51608117D01*
X152921770Y-51594534D01*
X152924639Y-51580114D01*
X152925000Y-51572763D01*
X152925000Y-51550000D01*
X153825000Y-51550000D01*
X153825000Y-52200000D01*
G37*
G36*
X134850000Y-52200000D02*
G01*
X134602917Y-52200000D01*
X134588285Y-52201441D01*
X134574216Y-52205709D01*
X134561250Y-52212640D01*
X134549885Y-52221967D01*
X134540558Y-52233332D01*
X134533627Y-52246298D01*
X134529359Y-52260367D01*
X134527918Y-52274999D01*
X134529359Y-52289631D01*
X134531144Y-52296760D01*
X134537700Y-52318371D01*
X134554112Y-52485000D01*
X134537700Y-52651629D01*
X134489097Y-52811855D01*
X134410168Y-52959519D01*
X134303948Y-53088948D01*
X134174519Y-53195168D01*
X134026855Y-53274097D01*
X133866629Y-53322700D01*
X133741749Y-53335000D01*
X132858251Y-53335000D01*
X132733371Y-53322700D01*
X132573145Y-53274097D01*
X132425481Y-53195168D01*
X132296052Y-53088948D01*
X132189832Y-52959519D01*
X132110903Y-52811855D01*
X132062300Y-52651629D01*
X132045888Y-52485000D01*
X132062300Y-52318371D01*
X132110903Y-52158145D01*
X132189832Y-52010481D01*
X132296052Y-51881052D01*
X132425481Y-51774832D01*
X132573145Y-51695903D01*
X132733371Y-51647300D01*
X132833192Y-51637468D01*
X132847608Y-51634601D01*
X132861191Y-51628974D01*
X132873416Y-51620806D01*
X132883812Y-51610410D01*
X132891980Y-51598185D01*
X132897607Y-51584602D01*
X132898595Y-51579629D01*
X132899999Y-51575004D01*
X132900000Y-51575000D01*
X132900002Y-51575000D01*
X132903686Y-51574637D01*
X133696314Y-51574637D01*
X133699998Y-51575000D01*
X133700000Y-51575000D01*
X133700001Y-51575004D01*
X133701402Y-51579621D01*
X133702389Y-51584589D01*
X133708013Y-51598173D01*
X133716179Y-51610399D01*
X133726573Y-51620797D01*
X133738796Y-51628968D01*
X133752379Y-51634596D01*
X133766808Y-51637468D01*
X133866629Y-51647300D01*
X133866631Y-51647301D01*
X133867650Y-51647401D01*
X133882352Y-51647401D01*
X133896772Y-51644533D01*
X133910355Y-51638906D01*
X133922580Y-51630738D01*
X133932976Y-51620342D01*
X133941144Y-51608117D01*
X133946770Y-51594534D01*
X133949639Y-51580114D01*
X133950000Y-51572763D01*
X133950000Y-51550000D01*
X134850000Y-51550000D01*
X134850000Y-52200000D01*
G37*
G36*
X147500000Y-52200000D02*
G01*
X147252917Y-52200000D01*
X147238285Y-52201441D01*
X147224216Y-52205709D01*
X147211250Y-52212640D01*
X147199885Y-52221967D01*
X147190558Y-52233332D01*
X147183627Y-52246298D01*
X147179359Y-52260367D01*
X147177918Y-52274999D01*
X147179359Y-52289631D01*
X147181144Y-52296760D01*
X147187700Y-52318371D01*
X147204112Y-52485000D01*
X147187700Y-52651629D01*
X147139097Y-52811855D01*
X147060168Y-52959519D01*
X146953948Y-53088948D01*
X146824519Y-53195168D01*
X146676855Y-53274097D01*
X146516629Y-53322700D01*
X146391749Y-53335000D01*
X145508251Y-53335000D01*
X145383371Y-53322700D01*
X145223145Y-53274097D01*
X145075481Y-53195168D01*
X144946052Y-53088948D01*
X144839832Y-52959519D01*
X144760903Y-52811855D01*
X144712300Y-52651629D01*
X144695888Y-52485000D01*
X144712300Y-52318371D01*
X144760903Y-52158145D01*
X144839832Y-52010481D01*
X144946052Y-51881052D01*
X145075481Y-51774832D01*
X145223145Y-51695903D01*
X145383371Y-51647300D01*
X145483192Y-51637468D01*
X145497608Y-51634601D01*
X145511191Y-51628974D01*
X145523416Y-51620806D01*
X145533812Y-51610410D01*
X145541980Y-51598185D01*
X145547607Y-51584602D01*
X145548595Y-51579629D01*
X145549999Y-51575004D01*
X145550000Y-51575000D01*
X145550002Y-51575000D01*
X145553686Y-51574637D01*
X146346314Y-51574637D01*
X146349998Y-51575000D01*
X146350000Y-51575000D01*
X146350001Y-51575004D01*
X146351402Y-51579621D01*
X146352389Y-51584589D01*
X146358013Y-51598173D01*
X146366179Y-51610399D01*
X146376573Y-51620797D01*
X146388796Y-51628968D01*
X146402379Y-51634596D01*
X146416808Y-51637468D01*
X146516629Y-51647300D01*
X146516631Y-51647301D01*
X146517650Y-51647401D01*
X146532352Y-51647401D01*
X146546772Y-51644533D01*
X146560355Y-51638906D01*
X146572580Y-51630738D01*
X146582976Y-51620342D01*
X146591144Y-51608117D01*
X146596770Y-51594534D01*
X146599639Y-51580114D01*
X146600000Y-51572763D01*
X146600000Y-51550000D01*
X147500000Y-51550000D01*
X147500000Y-52200000D01*
G37*
G36*
X141175000Y-52200000D02*
G01*
X140927917Y-52200000D01*
X140913285Y-52201441D01*
X140899216Y-52205709D01*
X140886250Y-52212640D01*
X140874885Y-52221967D01*
X140865558Y-52233332D01*
X140858627Y-52246298D01*
X140854359Y-52260367D01*
X140852918Y-52274999D01*
X140854359Y-52289631D01*
X140856144Y-52296760D01*
X140862700Y-52318371D01*
X140879112Y-52485000D01*
X140862700Y-52651629D01*
X140814097Y-52811855D01*
X140735168Y-52959519D01*
X140628948Y-53088948D01*
X140499519Y-53195168D01*
X140351855Y-53274097D01*
X140191629Y-53322700D01*
X140066749Y-53335000D01*
X139183251Y-53335000D01*
X139058371Y-53322700D01*
X138898145Y-53274097D01*
X138750481Y-53195168D01*
X138621052Y-53088948D01*
X138514832Y-52959519D01*
X138435903Y-52811855D01*
X138387300Y-52651629D01*
X138370888Y-52485000D01*
X138387300Y-52318371D01*
X138435903Y-52158145D01*
X138514832Y-52010481D01*
X138621052Y-51881052D01*
X138750481Y-51774832D01*
X138898145Y-51695903D01*
X139058371Y-51647300D01*
X139158192Y-51637468D01*
X139172608Y-51634601D01*
X139186191Y-51628974D01*
X139198416Y-51620806D01*
X139208812Y-51610410D01*
X139216980Y-51598185D01*
X139222607Y-51584602D01*
X139223595Y-51579629D01*
X139224999Y-51575004D01*
X139225000Y-51575002D01*
X139225000Y-51575000D01*
X139225001Y-51575000D01*
X139228686Y-51574637D01*
X140021314Y-51574637D01*
X140024999Y-51575000D01*
X140025000Y-51575000D01*
X140025000Y-51575002D01*
X140025001Y-51575004D01*
X140026402Y-51579621D01*
X140027389Y-51584589D01*
X140033013Y-51598173D01*
X140041179Y-51610399D01*
X140051573Y-51620797D01*
X140063796Y-51628968D01*
X140077379Y-51634596D01*
X140091808Y-51637468D01*
X140191629Y-51647300D01*
X140191631Y-51647301D01*
X140192650Y-51647401D01*
X140207352Y-51647401D01*
X140221772Y-51644533D01*
X140235355Y-51638906D01*
X140247580Y-51630738D01*
X140257976Y-51620342D01*
X140266144Y-51608117D01*
X140271770Y-51594534D01*
X140274639Y-51580114D01*
X140275000Y-51572763D01*
X140275000Y-51550000D01*
X141175000Y-51550000D01*
X141175000Y-52200000D01*
G37*
G36*
X156025000Y-53150000D02*
G01*
X155125000Y-53150000D01*
X155125000Y-52500000D01*
X156025000Y-52500000D01*
X156025000Y-53150000D01*
G37*
G36*
X149700000Y-53150000D02*
G01*
X148800000Y-53150000D01*
X148800000Y-52500000D01*
X149700000Y-52500000D01*
X149700000Y-53150000D01*
G37*
G36*
X137050000Y-53150000D02*
G01*
X136150000Y-53150000D01*
X136150000Y-52500000D01*
X137050000Y-52500000D01*
X137050000Y-53150000D01*
G37*
G36*
X143375000Y-53150000D02*
G01*
X142475000Y-53150000D01*
X142475000Y-52500000D01*
X143375000Y-52500000D01*
X143375000Y-53150000D01*
G37*
G36*
X162350000Y-53150000D02*
G01*
X161450000Y-53150000D01*
X161450000Y-52500000D01*
X162350000Y-52500000D01*
X162350000Y-53150000D01*
G37*
G36*
X140024999Y-50475000D02*
G01*
X140025000Y-50475000D01*
X140025000Y-50475002D01*
X140025363Y-50478686D01*
X140025363Y-51371314D01*
X140025000Y-51374998D01*
X140025000Y-51375000D01*
X140024998Y-51375000D01*
X140021314Y-51375363D01*
X139228684Y-51375363D01*
X139228664Y-51375361D01*
X139224827Y-51375173D01*
X139224639Y-51371336D01*
X139224637Y-51371316D01*
X139224637Y-51178684D01*
X139224639Y-51178664D01*
X139225000Y-51171314D01*
X139225000Y-50475000D01*
X139776243Y-50475000D01*
X139785367Y-50477768D01*
X139799999Y-50479209D01*
X139821769Y-50475980D01*
X139825000Y-50475000D01*
X139828686Y-50474637D01*
X140021314Y-50474637D01*
X140024999Y-50475000D01*
G37*
G36*
X133699998Y-50475000D02*
G01*
X133700000Y-50475000D01*
X133700000Y-50475002D01*
X133700363Y-50478686D01*
X133700363Y-51371314D01*
X133700000Y-51374998D01*
X133700000Y-51375000D01*
X133699998Y-51375000D01*
X133696314Y-51375363D01*
X132903684Y-51375363D01*
X132903664Y-51375361D01*
X132899827Y-51375173D01*
X132899639Y-51371336D01*
X132899637Y-51371316D01*
X132899637Y-51178684D01*
X132899639Y-51178664D01*
X132900000Y-51171314D01*
X132900000Y-50475000D01*
X133451243Y-50475000D01*
X133460367Y-50477768D01*
X133474999Y-50479209D01*
X133496769Y-50475980D01*
X133500000Y-50475000D01*
X133503686Y-50474637D01*
X133696314Y-50474637D01*
X133699998Y-50475000D01*
G37*
G36*
X165324999Y-50475000D02*
G01*
X165325000Y-50475000D01*
X165325000Y-50475002D01*
X165325363Y-50478686D01*
X165325363Y-51371314D01*
X165325000Y-51374998D01*
X165325000Y-51375000D01*
X165324998Y-51375000D01*
X165321314Y-51375363D01*
X164528684Y-51375363D01*
X164528664Y-51375361D01*
X164524827Y-51375173D01*
X164524639Y-51371336D01*
X164524637Y-51371316D01*
X164524637Y-51178684D01*
X164524639Y-51178664D01*
X164525000Y-51171314D01*
X164525000Y-50475000D01*
X165076243Y-50475000D01*
X165085367Y-50477768D01*
X165099999Y-50479209D01*
X165121769Y-50475980D01*
X165125000Y-50475000D01*
X165128686Y-50474637D01*
X165321314Y-50474637D01*
X165324999Y-50475000D01*
G37*
G36*
X146349998Y-50475000D02*
G01*
X146350000Y-50475000D01*
X146350000Y-50475002D01*
X146350363Y-50478686D01*
X146350363Y-51371314D01*
X146350000Y-51374998D01*
X146350000Y-51375000D01*
X146349998Y-51375000D01*
X146346314Y-51375363D01*
X145553684Y-51375363D01*
X145553664Y-51375361D01*
X145549827Y-51375173D01*
X145549639Y-51371336D01*
X145549637Y-51371316D01*
X145549637Y-51178684D01*
X145549639Y-51178664D01*
X145550000Y-51171314D01*
X145550000Y-50475000D01*
X146101243Y-50475000D01*
X146110367Y-50477768D01*
X146124999Y-50479209D01*
X146146769Y-50475980D01*
X146150000Y-50475000D01*
X146153686Y-50474637D01*
X146346314Y-50474637D01*
X146349998Y-50475000D01*
G37*
G36*
X158999999Y-50475000D02*
G01*
X159000000Y-50475000D01*
X159000000Y-50475002D01*
X159000363Y-50478686D01*
X159000363Y-51371314D01*
X159000000Y-51374998D01*
X159000000Y-51375000D01*
X158999998Y-51375000D01*
X158996314Y-51375363D01*
X158203684Y-51375363D01*
X158203664Y-51375361D01*
X158199827Y-51375173D01*
X158199639Y-51371336D01*
X158199637Y-51371316D01*
X158199637Y-51178684D01*
X158199639Y-51178664D01*
X158200000Y-51171314D01*
X158200000Y-50475000D01*
X158751243Y-50475000D01*
X158760367Y-50477768D01*
X158774999Y-50479209D01*
X158796769Y-50475980D01*
X158800000Y-50475000D01*
X158803686Y-50474637D01*
X158996314Y-50474637D01*
X158999999Y-50475000D01*
G37*
G36*
X152674999Y-50475000D02*
G01*
X152675000Y-50475000D01*
X152675000Y-50475002D01*
X152675363Y-50478686D01*
X152675363Y-51371314D01*
X152675000Y-51374998D01*
X152675000Y-51375000D01*
X152674998Y-51375000D01*
X152671314Y-51375363D01*
X151878684Y-51375363D01*
X151878664Y-51375361D01*
X151874827Y-51375173D01*
X151874639Y-51371336D01*
X151874637Y-51371316D01*
X151874637Y-51178684D01*
X151874639Y-51178664D01*
X151875000Y-51171314D01*
X151875000Y-50475000D01*
X152426243Y-50475000D01*
X152435367Y-50477768D01*
X152449999Y-50479209D01*
X152471769Y-50475980D01*
X152475000Y-50475000D01*
X152478686Y-50474637D01*
X152671314Y-50474637D01*
X152674999Y-50475000D01*
G37*
G36*
X157200000Y-51375000D02*
G01*
X156700000Y-51375000D01*
X156700000Y-50475000D01*
X157200000Y-50475000D01*
X157200000Y-51375000D01*
G37*
G36*
X150875000Y-51375000D02*
G01*
X150375000Y-51375000D01*
X150375000Y-50475000D01*
X150875000Y-50475000D01*
X150875000Y-51375000D01*
G37*
G36*
X163525000Y-51375000D02*
G01*
X163025000Y-51375000D01*
X163025000Y-50475000D01*
X163525000Y-50475000D01*
X163525000Y-51375000D01*
G37*
G36*
X144550000Y-51375000D02*
G01*
X144050000Y-51375000D01*
X144050000Y-50475000D01*
X144550000Y-50475000D01*
X144550000Y-51375000D01*
G37*
G36*
X138225000Y-51375000D02*
G01*
X137725000Y-51375000D01*
X137725000Y-50475000D01*
X138225000Y-50475000D01*
X138225000Y-51375000D01*
G37*
G36*
X131900000Y-51375000D02*
G01*
X131400000Y-51375000D01*
X131400000Y-50475000D01*
X131900000Y-50475000D01*
X131900000Y-51375000D01*
G37*
G36*
X134099998Y-50475000D02*
G01*
X134100000Y-50475000D01*
X134100003Y-50475003D01*
X134100005Y-50475004D01*
X134102862Y-50477348D01*
X134297652Y-50672138D01*
X134299996Y-50674995D01*
X134299998Y-50674998D01*
X134300000Y-50675000D01*
X134300000Y-50675001D01*
X134300363Y-50678686D01*
X134300363Y-51071314D01*
X134300000Y-51074998D01*
X134300000Y-51075000D01*
X134299997Y-51075003D01*
X134299996Y-51075005D01*
X134297652Y-51077862D01*
X134102862Y-51272652D01*
X134100005Y-51274996D01*
X134100003Y-51274997D01*
X134100000Y-51275000D01*
X134099998Y-51275000D01*
X134096314Y-51275363D01*
X133903686Y-51275363D01*
X133900002Y-51275000D01*
X133900000Y-51275000D01*
X133900000Y-51274998D01*
X133899637Y-51271314D01*
X133899637Y-50478686D01*
X133900000Y-50475002D01*
X133900000Y-50475000D01*
X133900002Y-50475000D01*
X133903686Y-50474637D01*
X134096314Y-50474637D01*
X134099998Y-50475000D01*
G37*
G36*
X140424998Y-50475000D02*
G01*
X140425000Y-50475000D01*
X140425003Y-50475003D01*
X140425005Y-50475004D01*
X140427862Y-50477348D01*
X140622652Y-50672138D01*
X140624996Y-50674995D01*
X140624998Y-50674998D01*
X140625000Y-50675000D01*
X140625000Y-50675001D01*
X140625363Y-50678686D01*
X140625363Y-51071314D01*
X140625000Y-51074998D01*
X140625000Y-51075000D01*
X140624997Y-51075003D01*
X140624996Y-51075005D01*
X140622652Y-51077862D01*
X140427862Y-51272652D01*
X140425005Y-51274996D01*
X140425003Y-51274997D01*
X140425000Y-51275000D01*
X140424998Y-51275000D01*
X140421314Y-51275363D01*
X140228686Y-51275363D01*
X140225002Y-51275000D01*
X140225000Y-51275000D01*
X140225000Y-51274998D01*
X140224637Y-51271314D01*
X140224637Y-50478686D01*
X140225000Y-50475002D01*
X140225000Y-50475000D01*
X140225002Y-50475000D01*
X140228686Y-50474637D01*
X140421314Y-50474637D01*
X140424998Y-50475000D01*
G37*
G36*
X146749998Y-50475000D02*
G01*
X146750000Y-50475000D01*
X146750003Y-50475003D01*
X146750005Y-50475004D01*
X146752862Y-50477348D01*
X146947652Y-50672138D01*
X146949996Y-50674995D01*
X146949998Y-50674998D01*
X146950000Y-50675000D01*
X146950000Y-50675001D01*
X146950363Y-50678686D01*
X146950363Y-51071314D01*
X146950000Y-51074998D01*
X146950000Y-51075000D01*
X146949997Y-51075003D01*
X146949996Y-51075005D01*
X146947652Y-51077862D01*
X146752862Y-51272652D01*
X146750005Y-51274996D01*
X146750003Y-51274997D01*
X146750000Y-51275000D01*
X146749998Y-51275000D01*
X146746314Y-51275363D01*
X146553686Y-51275363D01*
X146550002Y-51275000D01*
X146550000Y-51275000D01*
X146550000Y-51274998D01*
X146549637Y-51271314D01*
X146549637Y-50478686D01*
X146550000Y-50475002D01*
X146550000Y-50475000D01*
X146550002Y-50475000D01*
X146553686Y-50474637D01*
X146746314Y-50474637D01*
X146749998Y-50475000D01*
G37*
G36*
X153074998Y-50475000D02*
G01*
X153075000Y-50475000D01*
X153075003Y-50475003D01*
X153075005Y-50475004D01*
X153077862Y-50477348D01*
X153272652Y-50672138D01*
X153274996Y-50674995D01*
X153274998Y-50674998D01*
X153275000Y-50675000D01*
X153275000Y-50675001D01*
X153275363Y-50678686D01*
X153275363Y-51071314D01*
X153275000Y-51074998D01*
X153275000Y-51075000D01*
X153274997Y-51075003D01*
X153274996Y-51075005D01*
X153272652Y-51077862D01*
X153077862Y-51272652D01*
X153075005Y-51274996D01*
X153075003Y-51274997D01*
X153075000Y-51275000D01*
X153074998Y-51275000D01*
X153071314Y-51275363D01*
X152878686Y-51275363D01*
X152875002Y-51275000D01*
X152875000Y-51275000D01*
X152875000Y-51274998D01*
X152874637Y-51271314D01*
X152874637Y-50478686D01*
X152875000Y-50475002D01*
X152875000Y-50475000D01*
X152875002Y-50475000D01*
X152878686Y-50474637D01*
X153071314Y-50474637D01*
X153074998Y-50475000D01*
G37*
G36*
X159399998Y-50475000D02*
G01*
X159400000Y-50475000D01*
X159400003Y-50475003D01*
X159400005Y-50475004D01*
X159402862Y-50477348D01*
X159597652Y-50672138D01*
X159599996Y-50674995D01*
X159599998Y-50674998D01*
X159600000Y-50675000D01*
X159600000Y-50675001D01*
X159600363Y-50678686D01*
X159600363Y-51071314D01*
X159600000Y-51074998D01*
X159600000Y-51075000D01*
X159599997Y-51075003D01*
X159599996Y-51075005D01*
X159597652Y-51077862D01*
X159402862Y-51272652D01*
X159400005Y-51274996D01*
X159400003Y-51274997D01*
X159400000Y-51275000D01*
X159399998Y-51275000D01*
X159396314Y-51275363D01*
X159203686Y-51275363D01*
X159200002Y-51275000D01*
X159200000Y-51275000D01*
X159200000Y-51274998D01*
X159199637Y-51271314D01*
X159199637Y-50478686D01*
X159200000Y-50475002D01*
X159200000Y-50475000D01*
X159200002Y-50475000D01*
X159203686Y-50474637D01*
X159396314Y-50474637D01*
X159399998Y-50475000D01*
G37*
G36*
X165724998Y-50475000D02*
G01*
X165725000Y-50475000D01*
X165725003Y-50475003D01*
X165725005Y-50475004D01*
X165727862Y-50477348D01*
X165922652Y-50672138D01*
X165924996Y-50674995D01*
X165924998Y-50674998D01*
X165925000Y-50675000D01*
X165925000Y-50675001D01*
X165925363Y-50678686D01*
X165925363Y-51071314D01*
X165925000Y-51074998D01*
X165925000Y-51075000D01*
X165924997Y-51075003D01*
X165924996Y-51075005D01*
X165922652Y-51077862D01*
X165727862Y-51272652D01*
X165725005Y-51274996D01*
X165725003Y-51274997D01*
X165725000Y-51275000D01*
X165724998Y-51275000D01*
X165721314Y-51275363D01*
X165528686Y-51275363D01*
X165525002Y-51275000D01*
X165525000Y-51275000D01*
X165525000Y-51274998D01*
X165524637Y-51271314D01*
X165524637Y-50478686D01*
X165525000Y-50475002D01*
X165525000Y-50475000D01*
X165525001Y-50475000D01*
X165528686Y-50474637D01*
X165721314Y-50474637D01*
X165724998Y-50475000D01*
G37*
G36*
X168675000Y-51250000D02*
G01*
X167775000Y-51250000D01*
X167775000Y-50600000D01*
X168675000Y-50600000D01*
X168675000Y-51250000D01*
G37*
G36*
X149700000Y-51250000D02*
G01*
X148800000Y-51250000D01*
X148800000Y-50600000D01*
X149700000Y-50600000D01*
X149700000Y-51250000D01*
G37*
G36*
X162350000Y-51250000D02*
G01*
X161450000Y-51250000D01*
X161450000Y-50600000D01*
X162350000Y-50600000D01*
X162350000Y-51250000D01*
G37*
G36*
X156025000Y-51250000D02*
G01*
X155125000Y-51250000D01*
X155125000Y-50600000D01*
X156025000Y-50600000D01*
X156025000Y-51250000D01*
G37*
G36*
X143375000Y-51250000D02*
G01*
X142475000Y-51250000D01*
X142475000Y-50600000D01*
X143375000Y-50600000D01*
X143375000Y-51250000D01*
G37*
G36*
X137050000Y-51250000D02*
G01*
X136150000Y-51250000D01*
X136150000Y-50600000D01*
X137050000Y-50600000D01*
X137050000Y-51250000D01*
G37*
M02*
