G04 #@! TF.GenerationSoftware,KiCad,Pcbnew,(5.1.5)-3*
G04 #@! TF.CreationDate,2020-02-15T22:09:12+01:00*
G04 #@! TF.ProjectId,c3dpb,63336470-622e-46b6-9963-61645f706362,rev?*
G04 #@! TF.SameCoordinates,Original*
G04 #@! TF.FileFunction,Legend,Top*
G04 #@! TF.FilePolarity,Positive*
%FSLAX46Y46*%
G04 Gerber Fmt 4.6, Leading zero omitted, Abs format (unit mm)*
G04 Created by KiCad (PCBNEW (5.1.5)-3) date 2020-02-15 22:09:12*
%MOMM*%
%LPD*%
G04 APERTURE LIST*
%ADD10C,0.100000*%
%ADD11C,0.150000*%
%ADD12C,0.200000*%
%ADD13C,0.120000*%
G04 APERTURE END LIST*
D10*
X126666666Y-88635714D02*
X126628571Y-88673809D01*
X126514285Y-88711904D01*
X126438095Y-88711904D01*
X126323809Y-88673809D01*
X126247619Y-88597619D01*
X126209523Y-88521428D01*
X126171428Y-88369047D01*
X126171428Y-88254761D01*
X126209523Y-88102380D01*
X126247619Y-88026190D01*
X126323809Y-87950000D01*
X126438095Y-87911904D01*
X126514285Y-87911904D01*
X126628571Y-87950000D01*
X126666666Y-87988095D01*
X126933333Y-87911904D02*
X127428571Y-87911904D01*
X127161904Y-88216666D01*
X127276190Y-88216666D01*
X127352380Y-88254761D01*
X127390476Y-88292857D01*
X127428571Y-88369047D01*
X127428571Y-88559523D01*
X127390476Y-88635714D01*
X127352380Y-88673809D01*
X127276190Y-88711904D01*
X127047619Y-88711904D01*
X126971428Y-88673809D01*
X126933333Y-88635714D01*
X127771428Y-88711904D02*
X127771428Y-87911904D01*
X127961904Y-87911904D01*
X128076190Y-87950000D01*
X128152380Y-88026190D01*
X128190476Y-88102380D01*
X128228571Y-88254761D01*
X128228571Y-88369047D01*
X128190476Y-88521428D01*
X128152380Y-88597619D01*
X128076190Y-88673809D01*
X127961904Y-88711904D01*
X127771428Y-88711904D01*
X128571428Y-88711904D02*
X128571428Y-87911904D01*
X128876190Y-87911904D01*
X128952380Y-87950000D01*
X128990476Y-87988095D01*
X129028571Y-88064285D01*
X129028571Y-88178571D01*
X128990476Y-88254761D01*
X128952380Y-88292857D01*
X128876190Y-88330952D01*
X128571428Y-88330952D01*
X129638095Y-88292857D02*
X129752380Y-88330952D01*
X129790476Y-88369047D01*
X129828571Y-88445238D01*
X129828571Y-88559523D01*
X129790476Y-88635714D01*
X129752380Y-88673809D01*
X129676190Y-88711904D01*
X129371428Y-88711904D01*
X129371428Y-87911904D01*
X129638095Y-87911904D01*
X129714285Y-87950000D01*
X129752380Y-87988095D01*
X129790476Y-88064285D01*
X129790476Y-88140476D01*
X129752380Y-88216666D01*
X129714285Y-88254761D01*
X129638095Y-88292857D01*
X129371428Y-88292857D01*
X126857142Y-89478571D02*
X127047619Y-90011904D01*
X127238095Y-89478571D01*
X127961904Y-90011904D02*
X127504761Y-90011904D01*
X127733333Y-90011904D02*
X127733333Y-89211904D01*
X127657142Y-89326190D01*
X127580952Y-89402380D01*
X127504761Y-89440476D01*
X128304761Y-89935714D02*
X128342857Y-89973809D01*
X128304761Y-90011904D01*
X128266666Y-89973809D01*
X128304761Y-89935714D01*
X128304761Y-90011904D01*
X129104761Y-90011904D02*
X128647619Y-90011904D01*
X128876190Y-90011904D02*
X128876190Y-89211904D01*
X128800000Y-89326190D01*
X128723809Y-89402380D01*
X128647619Y-89440476D01*
D11*
X100750000Y-97750000D02*
X102250000Y-97750000D01*
X101500000Y-98500000D02*
X101500000Y-97750000D01*
X101500000Y-97000000D02*
X101500000Y-98500000D01*
X102500000Y-97750000D02*
G75*
G03X102500000Y-97750000I-1000000J0D01*
G01*
X111261904Y-74820238D02*
X111833333Y-74820238D01*
X111947619Y-74858333D01*
X112023809Y-74934523D01*
X112061904Y-75048809D01*
X112061904Y-75125000D01*
X112061904Y-74058333D02*
X112061904Y-74439285D01*
X111261904Y-74439285D01*
X111985714Y-73334523D02*
X112023809Y-73372619D01*
X112061904Y-73486904D01*
X112061904Y-73563095D01*
X112023809Y-73677380D01*
X111947619Y-73753571D01*
X111871428Y-73791666D01*
X111719047Y-73829761D01*
X111604761Y-73829761D01*
X111452380Y-73791666D01*
X111376190Y-73753571D01*
X111300000Y-73677380D01*
X111261904Y-73563095D01*
X111261904Y-73486904D01*
X111300000Y-73372619D01*
X111338095Y-73334523D01*
X111261904Y-72763095D02*
X111833333Y-72763095D01*
X111947619Y-72801190D01*
X112023809Y-72877380D01*
X112061904Y-72991666D01*
X112061904Y-73067857D01*
X112061904Y-72001190D02*
X112061904Y-72382142D01*
X111261904Y-72382142D01*
X111985714Y-71277380D02*
X112023809Y-71315476D01*
X112061904Y-71429761D01*
X112061904Y-71505952D01*
X112023809Y-71620238D01*
X111947619Y-71696428D01*
X111871428Y-71734523D01*
X111719047Y-71772619D01*
X111604761Y-71772619D01*
X111452380Y-71734523D01*
X111376190Y-71696428D01*
X111300000Y-71620238D01*
X111261904Y-71505952D01*
X111261904Y-71429761D01*
X111300000Y-71315476D01*
X111338095Y-71277380D01*
X111261904Y-70705952D02*
X111833333Y-70705952D01*
X111947619Y-70744047D01*
X112023809Y-70820238D01*
X112061904Y-70934523D01*
X112061904Y-71010714D01*
X112061904Y-69944047D02*
X112061904Y-70325000D01*
X111261904Y-70325000D01*
X111985714Y-69220238D02*
X112023809Y-69258333D01*
X112061904Y-69372619D01*
X112061904Y-69448809D01*
X112023809Y-69563095D01*
X111947619Y-69639285D01*
X111871428Y-69677380D01*
X111719047Y-69715476D01*
X111604761Y-69715476D01*
X111452380Y-69677380D01*
X111376190Y-69639285D01*
X111300000Y-69563095D01*
X111261904Y-69448809D01*
X111261904Y-69372619D01*
X111300000Y-69258333D01*
X111338095Y-69220238D01*
X111261904Y-68648809D02*
X111833333Y-68648809D01*
X111947619Y-68686904D01*
X112023809Y-68763095D01*
X112061904Y-68877380D01*
X112061904Y-68953571D01*
X112061904Y-67886904D02*
X112061904Y-68267857D01*
X111261904Y-68267857D01*
X111985714Y-67163095D02*
X112023809Y-67201190D01*
X112061904Y-67315476D01*
X112061904Y-67391666D01*
X112023809Y-67505952D01*
X111947619Y-67582142D01*
X111871428Y-67620238D01*
X111719047Y-67658333D01*
X111604761Y-67658333D01*
X111452380Y-67620238D01*
X111376190Y-67582142D01*
X111300000Y-67505952D01*
X111261904Y-67391666D01*
X111261904Y-67315476D01*
X111300000Y-67201190D01*
X111338095Y-67163095D01*
D12*
X123281111Y-74074601D02*
X123281111Y-75598601D01*
X123662111Y-75979601D02*
X126075111Y-75979601D01*
X125948111Y-75154101D02*
X126456111Y-75154101D01*
X125186111Y-75471601D02*
X125440111Y-74709601D01*
X126456111Y-75598601D02*
X126456111Y-74074601D01*
X126456111Y-74074601D02*
X126075111Y-73693601D01*
X123789111Y-74836601D02*
X124424111Y-74836601D01*
X123789111Y-74201601D02*
X123789111Y-74836601D01*
X124932111Y-74709601D02*
X125186111Y-75471601D01*
X125694111Y-75471601D02*
X125948111Y-74709601D01*
X123662111Y-73693601D02*
X123281111Y-74074601D01*
X124424111Y-75471601D02*
X123281111Y-75471601D01*
X126075111Y-75979601D02*
X126456111Y-75598601D01*
X124424111Y-75154101D02*
X124932111Y-75154101D01*
X126075111Y-73693601D02*
X123662111Y-73693601D01*
X123281111Y-75598601D02*
X123662111Y-75979601D01*
X126456111Y-74201601D02*
X123789111Y-74201601D01*
X124424111Y-74836601D02*
X124424111Y-75471601D01*
X125948111Y-74709601D02*
X125948111Y-75154101D01*
X124932111Y-75154101D02*
X124932111Y-74709601D01*
X125440111Y-74709601D02*
X125694111Y-75471601D01*
D10*
X154178000Y-75438000D02*
X154178000Y-75184000D01*
X153162000Y-75184000D02*
X155194000Y-75184000D01*
X158515142Y-89414357D02*
X158629428Y-89452452D01*
X158667523Y-89490547D01*
X158705619Y-89566738D01*
X158705619Y-89681023D01*
X158667523Y-89757214D01*
X158629428Y-89795309D01*
X158553238Y-89833404D01*
X158248476Y-89833404D01*
X158248476Y-89033404D01*
X158515142Y-89033404D01*
X158591333Y-89071500D01*
X158629428Y-89109595D01*
X158667523Y-89185785D01*
X158667523Y-89261976D01*
X158629428Y-89338166D01*
X158591333Y-89376261D01*
X158515142Y-89414357D01*
X158248476Y-89414357D01*
X159048476Y-89033404D02*
X159048476Y-89681023D01*
X159086571Y-89757214D01*
X159124666Y-89795309D01*
X159200857Y-89833404D01*
X159353238Y-89833404D01*
X159429428Y-89795309D01*
X159467523Y-89757214D01*
X159505619Y-89681023D01*
X159505619Y-89033404D01*
X159810380Y-89033404D02*
X160343714Y-89033404D01*
X159810380Y-89833404D01*
X160343714Y-89833404D01*
X135921809Y-89757214D02*
X135883714Y-89795309D01*
X135769428Y-89833404D01*
X135693238Y-89833404D01*
X135578952Y-89795309D01*
X135502761Y-89719119D01*
X135464666Y-89642928D01*
X135426571Y-89490547D01*
X135426571Y-89376261D01*
X135464666Y-89223880D01*
X135502761Y-89147690D01*
X135578952Y-89071500D01*
X135693238Y-89033404D01*
X135769428Y-89033404D01*
X135883714Y-89071500D01*
X135921809Y-89109595D01*
X136645619Y-89833404D02*
X136264666Y-89833404D01*
X136264666Y-89033404D01*
X136912285Y-89833404D02*
X136912285Y-89033404D01*
X137369428Y-89833404D02*
X137026571Y-89376261D01*
X137369428Y-89033404D02*
X136912285Y-89490547D01*
X133038952Y-89833404D02*
X133038952Y-89033404D01*
X133229428Y-89033404D01*
X133343714Y-89071500D01*
X133419904Y-89147690D01*
X133458000Y-89223880D01*
X133496095Y-89376261D01*
X133496095Y-89490547D01*
X133458000Y-89642928D01*
X133419904Y-89719119D01*
X133343714Y-89795309D01*
X133229428Y-89833404D01*
X133038952Y-89833404D01*
X133838952Y-89833404D02*
X133838952Y-89033404D01*
X134372285Y-89033404D02*
X134524666Y-89033404D01*
X134600857Y-89071500D01*
X134677047Y-89147690D01*
X134715142Y-89300071D01*
X134715142Y-89566738D01*
X134677047Y-89719119D01*
X134600857Y-89795309D01*
X134524666Y-89833404D01*
X134372285Y-89833404D01*
X134296095Y-89795309D01*
X134219904Y-89719119D01*
X134181809Y-89566738D01*
X134181809Y-89300071D01*
X134219904Y-89147690D01*
X134296095Y-89071500D01*
X134372285Y-89033404D01*
X143618000Y-74910904D02*
X143618000Y-74110904D01*
X143808476Y-74110904D01*
X143922761Y-74149000D01*
X143998952Y-74225190D01*
X144037047Y-74301380D01*
X144075142Y-74453761D01*
X144075142Y-74568047D01*
X144037047Y-74720428D01*
X143998952Y-74796619D01*
X143922761Y-74872809D01*
X143808476Y-74910904D01*
X143618000Y-74910904D01*
X144418000Y-74910904D02*
X144418000Y-74110904D01*
X145929428Y-74910904D02*
X145929428Y-74110904D01*
X146119904Y-74110904D01*
X146234190Y-74149000D01*
X146310380Y-74225190D01*
X146348476Y-74301380D01*
X146386571Y-74453761D01*
X146386571Y-74568047D01*
X146348476Y-74720428D01*
X146310380Y-74796619D01*
X146234190Y-74872809D01*
X146119904Y-74910904D01*
X145929428Y-74910904D01*
X146881809Y-74110904D02*
X147034190Y-74110904D01*
X147110380Y-74149000D01*
X147186571Y-74225190D01*
X147224666Y-74377571D01*
X147224666Y-74644238D01*
X147186571Y-74796619D01*
X147110380Y-74872809D01*
X147034190Y-74910904D01*
X146881809Y-74910904D01*
X146805619Y-74872809D01*
X146729428Y-74796619D01*
X146691333Y-74644238D01*
X146691333Y-74377571D01*
X146729428Y-74225190D01*
X146805619Y-74149000D01*
X146881809Y-74110904D01*
X148069428Y-74872809D02*
X148183714Y-74910904D01*
X148374190Y-74910904D01*
X148450380Y-74872809D01*
X148488476Y-74834714D01*
X148526571Y-74758523D01*
X148526571Y-74682333D01*
X148488476Y-74606142D01*
X148450380Y-74568047D01*
X148374190Y-74529952D01*
X148221809Y-74491857D01*
X148145619Y-74453761D01*
X148107523Y-74415666D01*
X148069428Y-74339476D01*
X148069428Y-74263285D01*
X148107523Y-74187095D01*
X148145619Y-74149000D01*
X148221809Y-74110904D01*
X148412285Y-74110904D01*
X148526571Y-74149000D01*
X149326571Y-74834714D02*
X149288476Y-74872809D01*
X149174190Y-74910904D01*
X149098000Y-74910904D01*
X148983714Y-74872809D01*
X148907523Y-74796619D01*
X148869428Y-74720428D01*
X148831333Y-74568047D01*
X148831333Y-74453761D01*
X148869428Y-74301380D01*
X148907523Y-74225190D01*
X148983714Y-74149000D01*
X149098000Y-74110904D01*
X149174190Y-74110904D01*
X149288476Y-74149000D01*
X149326571Y-74187095D01*
X149669428Y-74910904D02*
X149669428Y-74110904D01*
X150126571Y-74910904D02*
X149783714Y-74453761D01*
X150126571Y-74110904D02*
X149669428Y-74568047D01*
X159258000Y-88519000D02*
X159258000Y-88773000D01*
X160274000Y-88773000D02*
X158242000Y-88773000D01*
X136398000Y-88519000D02*
X136398000Y-88773000D01*
X137414000Y-88773000D02*
X135382000Y-88773000D01*
X134874000Y-88773000D02*
X132842000Y-88773000D01*
X133858000Y-88519000D02*
X133858000Y-88773000D01*
X143002000Y-75184000D02*
X145034000Y-75184000D01*
X144018000Y-75438000D02*
X144018000Y-75184000D01*
X146558000Y-75438000D02*
X146558000Y-75184000D01*
X145542000Y-75184000D02*
X147574000Y-75184000D01*
X148082000Y-75184000D02*
X150114000Y-75184000D01*
X149098000Y-75438000D02*
X149098000Y-75184000D01*
X150622000Y-75184000D02*
X152654000Y-75184000D01*
X151638000Y-75438000D02*
X151638000Y-75184000D01*
X153225619Y-74872809D02*
X153339904Y-74910904D01*
X153530380Y-74910904D01*
X153606571Y-74872809D01*
X153644666Y-74834714D01*
X153682761Y-74758523D01*
X153682761Y-74682333D01*
X153644666Y-74606142D01*
X153606571Y-74568047D01*
X153530380Y-74529952D01*
X153378000Y-74491857D01*
X153301809Y-74453761D01*
X153263714Y-74415666D01*
X153225619Y-74339476D01*
X153225619Y-74263285D01*
X153263714Y-74187095D01*
X153301809Y-74149000D01*
X153378000Y-74110904D01*
X153568476Y-74110904D01*
X153682761Y-74149000D01*
X154482761Y-74834714D02*
X154444666Y-74872809D01*
X154330380Y-74910904D01*
X154254190Y-74910904D01*
X154139904Y-74872809D01*
X154063714Y-74796619D01*
X154025619Y-74720428D01*
X153987523Y-74568047D01*
X153987523Y-74453761D01*
X154025619Y-74301380D01*
X154063714Y-74225190D01*
X154139904Y-74149000D01*
X154254190Y-74110904D01*
X154330380Y-74110904D01*
X154444666Y-74149000D01*
X154482761Y-74187095D01*
X155206571Y-74910904D02*
X154825619Y-74910904D01*
X154825619Y-74110904D01*
X150666571Y-74872809D02*
X150780857Y-74910904D01*
X150971333Y-74910904D01*
X151047523Y-74872809D01*
X151085619Y-74834714D01*
X151123714Y-74758523D01*
X151123714Y-74682333D01*
X151085619Y-74606142D01*
X151047523Y-74568047D01*
X150971333Y-74529952D01*
X150818952Y-74491857D01*
X150742761Y-74453761D01*
X150704666Y-74415666D01*
X150666571Y-74339476D01*
X150666571Y-74263285D01*
X150704666Y-74187095D01*
X150742761Y-74149000D01*
X150818952Y-74110904D01*
X151009428Y-74110904D01*
X151123714Y-74149000D01*
X151466571Y-74910904D02*
X151466571Y-74110904D01*
X151657047Y-74110904D01*
X151771333Y-74149000D01*
X151847523Y-74225190D01*
X151885619Y-74301380D01*
X151923714Y-74453761D01*
X151923714Y-74568047D01*
X151885619Y-74720428D01*
X151847523Y-74796619D01*
X151771333Y-74872809D01*
X151657047Y-74910904D01*
X151466571Y-74910904D01*
X152228476Y-74682333D02*
X152609428Y-74682333D01*
X152152285Y-74910904D02*
X152418952Y-74110904D01*
X152685619Y-74910904D01*
X112905476Y-82236904D02*
X112905476Y-81436904D01*
X113210238Y-81436904D01*
X113286428Y-81475000D01*
X113324523Y-81513095D01*
X113362619Y-81589285D01*
X113362619Y-81703571D01*
X113324523Y-81779761D01*
X113286428Y-81817857D01*
X113210238Y-81855952D01*
X112905476Y-81855952D01*
X113667380Y-82008333D02*
X114048333Y-82008333D01*
X113591190Y-82236904D02*
X113857857Y-81436904D01*
X114124523Y-82236904D01*
X114810238Y-82236904D02*
X114353095Y-82236904D01*
X114581666Y-82236904D02*
X114581666Y-81436904D01*
X114505476Y-81551190D01*
X114429285Y-81627380D01*
X114353095Y-81665476D01*
X115076904Y-81436904D02*
X115572142Y-81436904D01*
X115305476Y-81741666D01*
X115419761Y-81741666D01*
X115495952Y-81779761D01*
X115534047Y-81817857D01*
X115572142Y-81894047D01*
X115572142Y-82084523D01*
X115534047Y-82160714D01*
X115495952Y-82198809D01*
X115419761Y-82236904D01*
X115191190Y-82236904D01*
X115115000Y-82198809D01*
X115076904Y-82160714D01*
X112905476Y-67161904D02*
X112905476Y-66361904D01*
X113210238Y-66361904D01*
X113286428Y-66400000D01*
X113324523Y-66438095D01*
X113362619Y-66514285D01*
X113362619Y-66628571D01*
X113324523Y-66704761D01*
X113286428Y-66742857D01*
X113210238Y-66780952D01*
X112905476Y-66780952D01*
X113667380Y-66933333D02*
X114048333Y-66933333D01*
X113591190Y-67161904D02*
X113857857Y-66361904D01*
X114124523Y-67161904D01*
X114810238Y-67161904D02*
X114353095Y-67161904D01*
X114581666Y-67161904D02*
X114581666Y-66361904D01*
X114505476Y-66476190D01*
X114429285Y-66552380D01*
X114353095Y-66590476D01*
X115115000Y-66438095D02*
X115153095Y-66400000D01*
X115229285Y-66361904D01*
X115419761Y-66361904D01*
X115495952Y-66400000D01*
X115534047Y-66438095D01*
X115572142Y-66514285D01*
X115572142Y-66590476D01*
X115534047Y-66704761D01*
X115076904Y-67161904D01*
X115572142Y-67161904D01*
X127658333Y-72911904D02*
X127658333Y-72111904D01*
X127963095Y-72111904D01*
X128039285Y-72150000D01*
X128077380Y-72188095D01*
X128115476Y-72264285D01*
X128115476Y-72378571D01*
X128077380Y-72454761D01*
X128039285Y-72492857D01*
X127963095Y-72530952D01*
X127658333Y-72530952D01*
X128382142Y-72111904D02*
X128572619Y-72911904D01*
X128725000Y-72340476D01*
X128877380Y-72911904D01*
X129067857Y-72111904D01*
X129829761Y-72911904D02*
X129563095Y-72530952D01*
X129372619Y-72911904D02*
X129372619Y-72111904D01*
X129677380Y-72111904D01*
X129753571Y-72150000D01*
X129791666Y-72188095D01*
X129829761Y-72264285D01*
X129829761Y-72378571D01*
X129791666Y-72454761D01*
X129753571Y-72492857D01*
X129677380Y-72530952D01*
X129372619Y-72530952D01*
X161366666Y-91811904D02*
X161366666Y-91011904D01*
X161557142Y-91011904D01*
X161671428Y-91050000D01*
X161747619Y-91126190D01*
X161785714Y-91202380D01*
X161823809Y-91354761D01*
X161823809Y-91469047D01*
X161785714Y-91621428D01*
X161747619Y-91697619D01*
X161671428Y-91773809D01*
X161557142Y-91811904D01*
X161366666Y-91811904D01*
X162623809Y-91811904D02*
X162357142Y-91430952D01*
X162166666Y-91811904D02*
X162166666Y-91011904D01*
X162471428Y-91011904D01*
X162547619Y-91050000D01*
X162585714Y-91088095D01*
X162623809Y-91164285D01*
X162623809Y-91278571D01*
X162585714Y-91354761D01*
X162547619Y-91392857D01*
X162471428Y-91430952D01*
X162166666Y-91430952D01*
X162852380Y-91011904D02*
X163119047Y-91811904D01*
X163385714Y-91011904D01*
X163995238Y-91278571D02*
X163995238Y-91811904D01*
X163804761Y-90973809D02*
X163614285Y-91545238D01*
X164109523Y-91545238D01*
X148366666Y-91811904D02*
X148366666Y-91011904D01*
X148557142Y-91011904D01*
X148671428Y-91050000D01*
X148747619Y-91126190D01*
X148785714Y-91202380D01*
X148823809Y-91354761D01*
X148823809Y-91469047D01*
X148785714Y-91621428D01*
X148747619Y-91697619D01*
X148671428Y-91773809D01*
X148557142Y-91811904D01*
X148366666Y-91811904D01*
X149623809Y-91811904D02*
X149357142Y-91430952D01*
X149166666Y-91811904D02*
X149166666Y-91011904D01*
X149471428Y-91011904D01*
X149547619Y-91050000D01*
X149585714Y-91088095D01*
X149623809Y-91164285D01*
X149623809Y-91278571D01*
X149585714Y-91354761D01*
X149547619Y-91392857D01*
X149471428Y-91430952D01*
X149166666Y-91430952D01*
X149852380Y-91011904D02*
X150119047Y-91811904D01*
X150385714Y-91011904D01*
X150576190Y-91011904D02*
X151071428Y-91011904D01*
X150804761Y-91316666D01*
X150919047Y-91316666D01*
X150995238Y-91354761D01*
X151033333Y-91392857D01*
X151071428Y-91469047D01*
X151071428Y-91659523D01*
X151033333Y-91735714D01*
X150995238Y-91773809D01*
X150919047Y-91811904D01*
X150690476Y-91811904D01*
X150614285Y-91773809D01*
X150576190Y-91735714D01*
X135366666Y-91811904D02*
X135366666Y-91011904D01*
X135557142Y-91011904D01*
X135671428Y-91050000D01*
X135747619Y-91126190D01*
X135785714Y-91202380D01*
X135823809Y-91354761D01*
X135823809Y-91469047D01*
X135785714Y-91621428D01*
X135747619Y-91697619D01*
X135671428Y-91773809D01*
X135557142Y-91811904D01*
X135366666Y-91811904D01*
X136623809Y-91811904D02*
X136357142Y-91430952D01*
X136166666Y-91811904D02*
X136166666Y-91011904D01*
X136471428Y-91011904D01*
X136547619Y-91050000D01*
X136585714Y-91088095D01*
X136623809Y-91164285D01*
X136623809Y-91278571D01*
X136585714Y-91354761D01*
X136547619Y-91392857D01*
X136471428Y-91430952D01*
X136166666Y-91430952D01*
X136852380Y-91011904D02*
X137119047Y-91811904D01*
X137385714Y-91011904D01*
X137614285Y-91088095D02*
X137652380Y-91050000D01*
X137728571Y-91011904D01*
X137919047Y-91011904D01*
X137995238Y-91050000D01*
X138033333Y-91088095D01*
X138071428Y-91164285D01*
X138071428Y-91240476D01*
X138033333Y-91354761D01*
X137576190Y-91811904D01*
X138071428Y-91811904D01*
X122366666Y-91811904D02*
X122366666Y-91011904D01*
X122557142Y-91011904D01*
X122671428Y-91050000D01*
X122747619Y-91126190D01*
X122785714Y-91202380D01*
X122823809Y-91354761D01*
X122823809Y-91469047D01*
X122785714Y-91621428D01*
X122747619Y-91697619D01*
X122671428Y-91773809D01*
X122557142Y-91811904D01*
X122366666Y-91811904D01*
X123623809Y-91811904D02*
X123357142Y-91430952D01*
X123166666Y-91811904D02*
X123166666Y-91011904D01*
X123471428Y-91011904D01*
X123547619Y-91050000D01*
X123585714Y-91088095D01*
X123623809Y-91164285D01*
X123623809Y-91278571D01*
X123585714Y-91354761D01*
X123547619Y-91392857D01*
X123471428Y-91430952D01*
X123166666Y-91430952D01*
X123852380Y-91011904D02*
X124119047Y-91811904D01*
X124385714Y-91011904D01*
X125071428Y-91811904D02*
X124614285Y-91811904D01*
X124842857Y-91811904D02*
X124842857Y-91011904D01*
X124766666Y-91126190D01*
X124690476Y-91202380D01*
X124614285Y-91240476D01*
X156725000Y-75050000D02*
X160100000Y-75050000D01*
X160100000Y-73750000D02*
X160100000Y-75050000D01*
X156725000Y-73750000D02*
X156725000Y-75050000D01*
X157060714Y-74761904D02*
X157060714Y-73961904D01*
X157365476Y-73961904D01*
X157441666Y-74000000D01*
X157479761Y-74038095D01*
X157517857Y-74114285D01*
X157517857Y-74228571D01*
X157479761Y-74304761D01*
X157441666Y-74342857D01*
X157365476Y-74380952D01*
X157060714Y-74380952D01*
X157822619Y-74533333D02*
X158203571Y-74533333D01*
X157746428Y-74761904D02*
X158013095Y-73961904D01*
X158279761Y-74761904D01*
X158698809Y-73961904D02*
X158775000Y-73961904D01*
X158851190Y-74000000D01*
X158889285Y-74038095D01*
X158927380Y-74114285D01*
X158965476Y-74266666D01*
X158965476Y-74457142D01*
X158927380Y-74609523D01*
X158889285Y-74685714D01*
X158851190Y-74723809D01*
X158775000Y-74761904D01*
X158698809Y-74761904D01*
X158622619Y-74723809D01*
X158584523Y-74685714D01*
X158546428Y-74609523D01*
X158508333Y-74457142D01*
X158508333Y-74266666D01*
X158546428Y-74114285D01*
X158584523Y-74038095D01*
X158622619Y-74000000D01*
X158698809Y-73961904D01*
X159232142Y-73961904D02*
X159727380Y-73961904D01*
X159460714Y-74266666D01*
X159575000Y-74266666D01*
X159651190Y-74304761D01*
X159689285Y-74342857D01*
X159727380Y-74419047D01*
X159727380Y-74609523D01*
X159689285Y-74685714D01*
X159651190Y-74723809D01*
X159575000Y-74761904D01*
X159346428Y-74761904D01*
X159270238Y-74723809D01*
X159232142Y-74685714D01*
X160100000Y-72525000D02*
X160100000Y-73750000D01*
X157003571Y-73536904D02*
X157003571Y-72736904D01*
X157308333Y-72736904D01*
X157384523Y-72775000D01*
X157422619Y-72813095D01*
X157460714Y-72889285D01*
X157460714Y-73003571D01*
X157422619Y-73079761D01*
X157384523Y-73117857D01*
X157308333Y-73155952D01*
X157003571Y-73155952D01*
X158070238Y-73117857D02*
X158184523Y-73155952D01*
X158222619Y-73194047D01*
X158260714Y-73270238D01*
X158260714Y-73384523D01*
X158222619Y-73460714D01*
X158184523Y-73498809D01*
X158108333Y-73536904D01*
X157803571Y-73536904D01*
X157803571Y-72736904D01*
X158070238Y-72736904D01*
X158146428Y-72775000D01*
X158184523Y-72813095D01*
X158222619Y-72889285D01*
X158222619Y-72965476D01*
X158184523Y-73041666D01*
X158146428Y-73079761D01*
X158070238Y-73117857D01*
X157803571Y-73117857D01*
X158755952Y-72736904D02*
X158832142Y-72736904D01*
X158908333Y-72775000D01*
X158946428Y-72813095D01*
X158984523Y-72889285D01*
X159022619Y-73041666D01*
X159022619Y-73232142D01*
X158984523Y-73384523D01*
X158946428Y-73460714D01*
X158908333Y-73498809D01*
X158832142Y-73536904D01*
X158755952Y-73536904D01*
X158679761Y-73498809D01*
X158641666Y-73460714D01*
X158603571Y-73384523D01*
X158565476Y-73232142D01*
X158565476Y-73041666D01*
X158603571Y-72889285D01*
X158641666Y-72813095D01*
X158679761Y-72775000D01*
X158755952Y-72736904D01*
X159708333Y-73003571D02*
X159708333Y-73536904D01*
X159517857Y-72698809D02*
X159327380Y-73270238D01*
X159822619Y-73270238D01*
X156725000Y-72525000D02*
X156725000Y-73750000D01*
X156725000Y-71200000D02*
X156725000Y-72525000D01*
X160100000Y-71200000D02*
X160100000Y-72525000D01*
X160100000Y-71200000D02*
X156725000Y-71200000D01*
X157003571Y-72311904D02*
X157003571Y-71511904D01*
X157308333Y-71511904D01*
X157384523Y-71550000D01*
X157422619Y-71588095D01*
X157460714Y-71664285D01*
X157460714Y-71778571D01*
X157422619Y-71854761D01*
X157384523Y-71892857D01*
X157308333Y-71930952D01*
X157003571Y-71930952D01*
X158070238Y-71892857D02*
X158184523Y-71930952D01*
X158222619Y-71969047D01*
X158260714Y-72045238D01*
X158260714Y-72159523D01*
X158222619Y-72235714D01*
X158184523Y-72273809D01*
X158108333Y-72311904D01*
X157803571Y-72311904D01*
X157803571Y-71511904D01*
X158070238Y-71511904D01*
X158146428Y-71550000D01*
X158184523Y-71588095D01*
X158222619Y-71664285D01*
X158222619Y-71740476D01*
X158184523Y-71816666D01*
X158146428Y-71854761D01*
X158070238Y-71892857D01*
X157803571Y-71892857D01*
X158755952Y-71511904D02*
X158832142Y-71511904D01*
X158908333Y-71550000D01*
X158946428Y-71588095D01*
X158984523Y-71664285D01*
X159022619Y-71816666D01*
X159022619Y-72007142D01*
X158984523Y-72159523D01*
X158946428Y-72235714D01*
X158908333Y-72273809D01*
X158832142Y-72311904D01*
X158755952Y-72311904D01*
X158679761Y-72273809D01*
X158641666Y-72235714D01*
X158603571Y-72159523D01*
X158565476Y-72007142D01*
X158565476Y-71816666D01*
X158603571Y-71664285D01*
X158641666Y-71588095D01*
X158679761Y-71550000D01*
X158755952Y-71511904D01*
X159746428Y-71511904D02*
X159365476Y-71511904D01*
X159327380Y-71892857D01*
X159365476Y-71854761D01*
X159441666Y-71816666D01*
X159632142Y-71816666D01*
X159708333Y-71854761D01*
X159746428Y-71892857D01*
X159784523Y-71969047D01*
X159784523Y-72159523D01*
X159746428Y-72235714D01*
X159708333Y-72273809D01*
X159632142Y-72311904D01*
X159441666Y-72311904D01*
X159365476Y-72273809D01*
X159327380Y-72235714D01*
X150500000Y-71200000D02*
X150500000Y-73850000D01*
X147378571Y-73536904D02*
X147378571Y-72736904D01*
X147683333Y-72736904D01*
X147759523Y-72775000D01*
X147797619Y-72813095D01*
X147835714Y-72889285D01*
X147835714Y-73003571D01*
X147797619Y-73079761D01*
X147759523Y-73117857D01*
X147683333Y-73155952D01*
X147378571Y-73155952D01*
X148445238Y-73117857D02*
X148559523Y-73155952D01*
X148597619Y-73194047D01*
X148635714Y-73270238D01*
X148635714Y-73384523D01*
X148597619Y-73460714D01*
X148559523Y-73498809D01*
X148483333Y-73536904D01*
X148178571Y-73536904D01*
X148178571Y-72736904D01*
X148445238Y-72736904D01*
X148521428Y-72775000D01*
X148559523Y-72813095D01*
X148597619Y-72889285D01*
X148597619Y-72965476D01*
X148559523Y-73041666D01*
X148521428Y-73079761D01*
X148445238Y-73117857D01*
X148178571Y-73117857D01*
X149130952Y-72736904D02*
X149207142Y-72736904D01*
X149283333Y-72775000D01*
X149321428Y-72813095D01*
X149359523Y-72889285D01*
X149397619Y-73041666D01*
X149397619Y-73232142D01*
X149359523Y-73384523D01*
X149321428Y-73460714D01*
X149283333Y-73498809D01*
X149207142Y-73536904D01*
X149130952Y-73536904D01*
X149054761Y-73498809D01*
X149016666Y-73460714D01*
X148978571Y-73384523D01*
X148940476Y-73232142D01*
X148940476Y-73041666D01*
X148978571Y-72889285D01*
X149016666Y-72813095D01*
X149054761Y-72775000D01*
X149130952Y-72736904D01*
X149664285Y-72736904D02*
X150197619Y-72736904D01*
X149854761Y-73536904D01*
X130725000Y-73850000D02*
X150500000Y-73850000D01*
X130725000Y-72525000D02*
X130725000Y-73850000D01*
X137610714Y-73536904D02*
X137610714Y-72736904D01*
X137915476Y-72736904D01*
X137991666Y-72775000D01*
X138029761Y-72813095D01*
X138067857Y-72889285D01*
X138067857Y-73003571D01*
X138029761Y-73079761D01*
X137991666Y-73117857D01*
X137915476Y-73155952D01*
X137610714Y-73155952D01*
X138372619Y-73308333D02*
X138753571Y-73308333D01*
X138296428Y-73536904D02*
X138563095Y-72736904D01*
X138829761Y-73536904D01*
X139248809Y-72736904D02*
X139325000Y-72736904D01*
X139401190Y-72775000D01*
X139439285Y-72813095D01*
X139477380Y-72889285D01*
X139515476Y-73041666D01*
X139515476Y-73232142D01*
X139477380Y-73384523D01*
X139439285Y-73460714D01*
X139401190Y-73498809D01*
X139325000Y-73536904D01*
X139248809Y-73536904D01*
X139172619Y-73498809D01*
X139134523Y-73460714D01*
X139096428Y-73384523D01*
X139058333Y-73232142D01*
X139058333Y-73041666D01*
X139096428Y-72889285D01*
X139134523Y-72813095D01*
X139172619Y-72775000D01*
X139248809Y-72736904D01*
X139782142Y-72736904D02*
X140315476Y-72736904D01*
X139972619Y-73536904D01*
X140885714Y-73536904D02*
X140885714Y-72736904D01*
X141190476Y-72736904D01*
X141266666Y-72775000D01*
X141304761Y-72813095D01*
X141342857Y-72889285D01*
X141342857Y-73003571D01*
X141304761Y-73079761D01*
X141266666Y-73117857D01*
X141190476Y-73155952D01*
X140885714Y-73155952D01*
X141647619Y-73308333D02*
X142028571Y-73308333D01*
X141571428Y-73536904D02*
X141838095Y-72736904D01*
X142104761Y-73536904D01*
X142523809Y-72736904D02*
X142600000Y-72736904D01*
X142676190Y-72775000D01*
X142714285Y-72813095D01*
X142752380Y-72889285D01*
X142790476Y-73041666D01*
X142790476Y-73232142D01*
X142752380Y-73384523D01*
X142714285Y-73460714D01*
X142676190Y-73498809D01*
X142600000Y-73536904D01*
X142523809Y-73536904D01*
X142447619Y-73498809D01*
X142409523Y-73460714D01*
X142371428Y-73384523D01*
X142333333Y-73232142D01*
X142333333Y-73041666D01*
X142371428Y-72889285D01*
X142409523Y-72813095D01*
X142447619Y-72775000D01*
X142523809Y-72736904D01*
X143514285Y-72736904D02*
X143133333Y-72736904D01*
X143095238Y-73117857D01*
X143133333Y-73079761D01*
X143209523Y-73041666D01*
X143400000Y-73041666D01*
X143476190Y-73079761D01*
X143514285Y-73117857D01*
X143552380Y-73194047D01*
X143552380Y-73384523D01*
X143514285Y-73460714D01*
X143476190Y-73498809D01*
X143400000Y-73536904D01*
X143209523Y-73536904D01*
X143133333Y-73498809D01*
X143095238Y-73460714D01*
X131060714Y-73536904D02*
X131060714Y-72736904D01*
X131365476Y-72736904D01*
X131441666Y-72775000D01*
X131479761Y-72813095D01*
X131517857Y-72889285D01*
X131517857Y-73003571D01*
X131479761Y-73079761D01*
X131441666Y-73117857D01*
X131365476Y-73155952D01*
X131060714Y-73155952D01*
X131822619Y-73308333D02*
X132203571Y-73308333D01*
X131746428Y-73536904D02*
X132013095Y-72736904D01*
X132279761Y-73536904D01*
X132965476Y-73536904D02*
X132508333Y-73536904D01*
X132736904Y-73536904D02*
X132736904Y-72736904D01*
X132660714Y-72851190D01*
X132584523Y-72927380D01*
X132508333Y-72965476D01*
X133727380Y-73536904D02*
X133270238Y-73536904D01*
X133498809Y-73536904D02*
X133498809Y-72736904D01*
X133422619Y-72851190D01*
X133346428Y-72927380D01*
X133270238Y-72965476D01*
X134335714Y-73536904D02*
X134335714Y-72736904D01*
X134640476Y-72736904D01*
X134716666Y-72775000D01*
X134754761Y-72813095D01*
X134792857Y-72889285D01*
X134792857Y-73003571D01*
X134754761Y-73079761D01*
X134716666Y-73117857D01*
X134640476Y-73155952D01*
X134335714Y-73155952D01*
X135097619Y-73308333D02*
X135478571Y-73308333D01*
X135021428Y-73536904D02*
X135288095Y-72736904D01*
X135554761Y-73536904D01*
X135973809Y-72736904D02*
X136050000Y-72736904D01*
X136126190Y-72775000D01*
X136164285Y-72813095D01*
X136202380Y-72889285D01*
X136240476Y-73041666D01*
X136240476Y-73232142D01*
X136202380Y-73384523D01*
X136164285Y-73460714D01*
X136126190Y-73498809D01*
X136050000Y-73536904D01*
X135973809Y-73536904D01*
X135897619Y-73498809D01*
X135859523Y-73460714D01*
X135821428Y-73384523D01*
X135783333Y-73232142D01*
X135783333Y-73041666D01*
X135821428Y-72889285D01*
X135859523Y-72813095D01*
X135897619Y-72775000D01*
X135973809Y-72736904D01*
X136621428Y-73536904D02*
X136773809Y-73536904D01*
X136850000Y-73498809D01*
X136888095Y-73460714D01*
X136964285Y-73346428D01*
X137002380Y-73194047D01*
X137002380Y-72889285D01*
X136964285Y-72813095D01*
X136926190Y-72775000D01*
X136850000Y-72736904D01*
X136697619Y-72736904D01*
X136621428Y-72775000D01*
X136583333Y-72813095D01*
X136545238Y-72889285D01*
X136545238Y-73079761D01*
X136583333Y-73155952D01*
X136621428Y-73194047D01*
X136697619Y-73232142D01*
X136850000Y-73232142D01*
X136926190Y-73194047D01*
X136964285Y-73155952D01*
X137002380Y-73079761D01*
X144103571Y-73536904D02*
X144103571Y-72736904D01*
X144408333Y-72736904D01*
X144484523Y-72775000D01*
X144522619Y-72813095D01*
X144560714Y-72889285D01*
X144560714Y-73003571D01*
X144522619Y-73079761D01*
X144484523Y-73117857D01*
X144408333Y-73155952D01*
X144103571Y-73155952D01*
X145170238Y-73117857D02*
X145284523Y-73155952D01*
X145322619Y-73194047D01*
X145360714Y-73270238D01*
X145360714Y-73384523D01*
X145322619Y-73460714D01*
X145284523Y-73498809D01*
X145208333Y-73536904D01*
X144903571Y-73536904D01*
X144903571Y-72736904D01*
X145170238Y-72736904D01*
X145246428Y-72775000D01*
X145284523Y-72813095D01*
X145322619Y-72889285D01*
X145322619Y-72965476D01*
X145284523Y-73041666D01*
X145246428Y-73079761D01*
X145170238Y-73117857D01*
X144903571Y-73117857D01*
X145855952Y-72736904D02*
X145932142Y-72736904D01*
X146008333Y-72775000D01*
X146046428Y-72813095D01*
X146084523Y-72889285D01*
X146122619Y-73041666D01*
X146122619Y-73232142D01*
X146084523Y-73384523D01*
X146046428Y-73460714D01*
X146008333Y-73498809D01*
X145932142Y-73536904D01*
X145855952Y-73536904D01*
X145779761Y-73498809D01*
X145741666Y-73460714D01*
X145703571Y-73384523D01*
X145665476Y-73232142D01*
X145665476Y-73041666D01*
X145703571Y-72889285D01*
X145741666Y-72813095D01*
X145779761Y-72775000D01*
X145855952Y-72736904D01*
X146503571Y-73536904D02*
X146655952Y-73536904D01*
X146732142Y-73498809D01*
X146770238Y-73460714D01*
X146846428Y-73346428D01*
X146884523Y-73194047D01*
X146884523Y-72889285D01*
X146846428Y-72813095D01*
X146808333Y-72775000D01*
X146732142Y-72736904D01*
X146579761Y-72736904D01*
X146503571Y-72775000D01*
X146465476Y-72813095D01*
X146427380Y-72889285D01*
X146427380Y-73079761D01*
X146465476Y-73155952D01*
X146503571Y-73194047D01*
X146579761Y-73232142D01*
X146732142Y-73232142D01*
X146808333Y-73194047D01*
X146846428Y-73155952D01*
X146884523Y-73079761D01*
X150500000Y-71200000D02*
X130725000Y-71200000D01*
X131060714Y-72311904D02*
X131060714Y-71511904D01*
X131365476Y-71511904D01*
X131441666Y-71550000D01*
X131479761Y-71588095D01*
X131517857Y-71664285D01*
X131517857Y-71778571D01*
X131479761Y-71854761D01*
X131441666Y-71892857D01*
X131365476Y-71930952D01*
X131060714Y-71930952D01*
X131822619Y-72083333D02*
X132203571Y-72083333D01*
X131746428Y-72311904D02*
X132013095Y-71511904D01*
X132279761Y-72311904D01*
X132965476Y-72311904D02*
X132508333Y-72311904D01*
X132736904Y-72311904D02*
X132736904Y-71511904D01*
X132660714Y-71626190D01*
X132584523Y-71702380D01*
X132508333Y-71740476D01*
X133460714Y-71511904D02*
X133536904Y-71511904D01*
X133613095Y-71550000D01*
X133651190Y-71588095D01*
X133689285Y-71664285D01*
X133727380Y-71816666D01*
X133727380Y-72007142D01*
X133689285Y-72159523D01*
X133651190Y-72235714D01*
X133613095Y-72273809D01*
X133536904Y-72311904D01*
X133460714Y-72311904D01*
X133384523Y-72273809D01*
X133346428Y-72235714D01*
X133308333Y-72159523D01*
X133270238Y-72007142D01*
X133270238Y-71816666D01*
X133308333Y-71664285D01*
X133346428Y-71588095D01*
X133384523Y-71550000D01*
X133460714Y-71511904D01*
X130725000Y-71200000D02*
X130725000Y-72525000D01*
X134335714Y-72311904D02*
X134335714Y-71511904D01*
X134640476Y-71511904D01*
X134716666Y-71550000D01*
X134754761Y-71588095D01*
X134792857Y-71664285D01*
X134792857Y-71778571D01*
X134754761Y-71854761D01*
X134716666Y-71892857D01*
X134640476Y-71930952D01*
X134335714Y-71930952D01*
X135097619Y-72083333D02*
X135478571Y-72083333D01*
X135021428Y-72311904D02*
X135288095Y-71511904D01*
X135554761Y-72311904D01*
X135973809Y-71511904D02*
X136050000Y-71511904D01*
X136126190Y-71550000D01*
X136164285Y-71588095D01*
X136202380Y-71664285D01*
X136240476Y-71816666D01*
X136240476Y-72007142D01*
X136202380Y-72159523D01*
X136164285Y-72235714D01*
X136126190Y-72273809D01*
X136050000Y-72311904D01*
X135973809Y-72311904D01*
X135897619Y-72273809D01*
X135859523Y-72235714D01*
X135821428Y-72159523D01*
X135783333Y-72007142D01*
X135783333Y-71816666D01*
X135821428Y-71664285D01*
X135859523Y-71588095D01*
X135897619Y-71550000D01*
X135973809Y-71511904D01*
X136697619Y-71854761D02*
X136621428Y-71816666D01*
X136583333Y-71778571D01*
X136545238Y-71702380D01*
X136545238Y-71664285D01*
X136583333Y-71588095D01*
X136621428Y-71550000D01*
X136697619Y-71511904D01*
X136850000Y-71511904D01*
X136926190Y-71550000D01*
X136964285Y-71588095D01*
X137002380Y-71664285D01*
X137002380Y-71702380D01*
X136964285Y-71778571D01*
X136926190Y-71816666D01*
X136850000Y-71854761D01*
X136697619Y-71854761D01*
X136621428Y-71892857D01*
X136583333Y-71930952D01*
X136545238Y-72007142D01*
X136545238Y-72159523D01*
X136583333Y-72235714D01*
X136621428Y-72273809D01*
X136697619Y-72311904D01*
X136850000Y-72311904D01*
X136926190Y-72273809D01*
X136964285Y-72235714D01*
X137002380Y-72159523D01*
X137002380Y-72007142D01*
X136964285Y-71930952D01*
X136926190Y-71892857D01*
X136850000Y-71854761D01*
X147378571Y-72311904D02*
X147378571Y-71511904D01*
X147683333Y-71511904D01*
X147759523Y-71550000D01*
X147797619Y-71588095D01*
X147835714Y-71664285D01*
X147835714Y-71778571D01*
X147797619Y-71854761D01*
X147759523Y-71892857D01*
X147683333Y-71930952D01*
X147378571Y-71930952D01*
X148445238Y-71892857D02*
X148559523Y-71930952D01*
X148597619Y-71969047D01*
X148635714Y-72045238D01*
X148635714Y-72159523D01*
X148597619Y-72235714D01*
X148559523Y-72273809D01*
X148483333Y-72311904D01*
X148178571Y-72311904D01*
X148178571Y-71511904D01*
X148445238Y-71511904D01*
X148521428Y-71550000D01*
X148559523Y-71588095D01*
X148597619Y-71664285D01*
X148597619Y-71740476D01*
X148559523Y-71816666D01*
X148521428Y-71854761D01*
X148445238Y-71892857D01*
X148178571Y-71892857D01*
X149130952Y-71511904D02*
X149207142Y-71511904D01*
X149283333Y-71550000D01*
X149321428Y-71588095D01*
X149359523Y-71664285D01*
X149397619Y-71816666D01*
X149397619Y-72007142D01*
X149359523Y-72159523D01*
X149321428Y-72235714D01*
X149283333Y-72273809D01*
X149207142Y-72311904D01*
X149130952Y-72311904D01*
X149054761Y-72273809D01*
X149016666Y-72235714D01*
X148978571Y-72159523D01*
X148940476Y-72007142D01*
X148940476Y-71816666D01*
X148978571Y-71664285D01*
X149016666Y-71588095D01*
X149054761Y-71550000D01*
X149130952Y-71511904D01*
X150083333Y-71511904D02*
X149930952Y-71511904D01*
X149854761Y-71550000D01*
X149816666Y-71588095D01*
X149740476Y-71702380D01*
X149702380Y-71854761D01*
X149702380Y-72159523D01*
X149740476Y-72235714D01*
X149778571Y-72273809D01*
X149854761Y-72311904D01*
X150007142Y-72311904D01*
X150083333Y-72273809D01*
X150121428Y-72235714D01*
X150159523Y-72159523D01*
X150159523Y-71969047D01*
X150121428Y-71892857D01*
X150083333Y-71854761D01*
X150007142Y-71816666D01*
X149854761Y-71816666D01*
X149778571Y-71854761D01*
X149740476Y-71892857D01*
X149702380Y-71969047D01*
X144103571Y-72311904D02*
X144103571Y-71511904D01*
X144408333Y-71511904D01*
X144484523Y-71550000D01*
X144522619Y-71588095D01*
X144560714Y-71664285D01*
X144560714Y-71778571D01*
X144522619Y-71854761D01*
X144484523Y-71892857D01*
X144408333Y-71930952D01*
X144103571Y-71930952D01*
X145170238Y-71892857D02*
X145284523Y-71930952D01*
X145322619Y-71969047D01*
X145360714Y-72045238D01*
X145360714Y-72159523D01*
X145322619Y-72235714D01*
X145284523Y-72273809D01*
X145208333Y-72311904D01*
X144903571Y-72311904D01*
X144903571Y-71511904D01*
X145170238Y-71511904D01*
X145246428Y-71550000D01*
X145284523Y-71588095D01*
X145322619Y-71664285D01*
X145322619Y-71740476D01*
X145284523Y-71816666D01*
X145246428Y-71854761D01*
X145170238Y-71892857D01*
X144903571Y-71892857D01*
X145855952Y-71511904D02*
X145932142Y-71511904D01*
X146008333Y-71550000D01*
X146046428Y-71588095D01*
X146084523Y-71664285D01*
X146122619Y-71816666D01*
X146122619Y-72007142D01*
X146084523Y-72159523D01*
X146046428Y-72235714D01*
X146008333Y-72273809D01*
X145932142Y-72311904D01*
X145855952Y-72311904D01*
X145779761Y-72273809D01*
X145741666Y-72235714D01*
X145703571Y-72159523D01*
X145665476Y-72007142D01*
X145665476Y-71816666D01*
X145703571Y-71664285D01*
X145741666Y-71588095D01*
X145779761Y-71550000D01*
X145855952Y-71511904D01*
X146579761Y-71854761D02*
X146503571Y-71816666D01*
X146465476Y-71778571D01*
X146427380Y-71702380D01*
X146427380Y-71664285D01*
X146465476Y-71588095D01*
X146503571Y-71550000D01*
X146579761Y-71511904D01*
X146732142Y-71511904D01*
X146808333Y-71550000D01*
X146846428Y-71588095D01*
X146884523Y-71664285D01*
X146884523Y-71702380D01*
X146846428Y-71778571D01*
X146808333Y-71816666D01*
X146732142Y-71854761D01*
X146579761Y-71854761D01*
X146503571Y-71892857D01*
X146465476Y-71930952D01*
X146427380Y-72007142D01*
X146427380Y-72159523D01*
X146465476Y-72235714D01*
X146503571Y-72273809D01*
X146579761Y-72311904D01*
X146732142Y-72311904D01*
X146808333Y-72273809D01*
X146846428Y-72235714D01*
X146884523Y-72159523D01*
X146884523Y-72007142D01*
X146846428Y-71930952D01*
X146808333Y-71892857D01*
X146732142Y-71854761D01*
X140885714Y-72311904D02*
X140885714Y-71511904D01*
X141190476Y-71511904D01*
X141266666Y-71550000D01*
X141304761Y-71588095D01*
X141342857Y-71664285D01*
X141342857Y-71778571D01*
X141304761Y-71854761D01*
X141266666Y-71892857D01*
X141190476Y-71930952D01*
X140885714Y-71930952D01*
X141647619Y-72083333D02*
X142028571Y-72083333D01*
X141571428Y-72311904D02*
X141838095Y-71511904D01*
X142104761Y-72311904D01*
X142523809Y-71511904D02*
X142600000Y-71511904D01*
X142676190Y-71550000D01*
X142714285Y-71588095D01*
X142752380Y-71664285D01*
X142790476Y-71816666D01*
X142790476Y-72007142D01*
X142752380Y-72159523D01*
X142714285Y-72235714D01*
X142676190Y-72273809D01*
X142600000Y-72311904D01*
X142523809Y-72311904D01*
X142447619Y-72273809D01*
X142409523Y-72235714D01*
X142371428Y-72159523D01*
X142333333Y-72007142D01*
X142333333Y-71816666D01*
X142371428Y-71664285D01*
X142409523Y-71588095D01*
X142447619Y-71550000D01*
X142523809Y-71511904D01*
X143476190Y-71778571D02*
X143476190Y-72311904D01*
X143285714Y-71473809D02*
X143095238Y-72045238D01*
X143590476Y-72045238D01*
X137610714Y-72311904D02*
X137610714Y-71511904D01*
X137915476Y-71511904D01*
X137991666Y-71550000D01*
X138029761Y-71588095D01*
X138067857Y-71664285D01*
X138067857Y-71778571D01*
X138029761Y-71854761D01*
X137991666Y-71892857D01*
X137915476Y-71930952D01*
X137610714Y-71930952D01*
X138372619Y-72083333D02*
X138753571Y-72083333D01*
X138296428Y-72311904D02*
X138563095Y-71511904D01*
X138829761Y-72311904D01*
X139248809Y-71511904D02*
X139325000Y-71511904D01*
X139401190Y-71550000D01*
X139439285Y-71588095D01*
X139477380Y-71664285D01*
X139515476Y-71816666D01*
X139515476Y-72007142D01*
X139477380Y-72159523D01*
X139439285Y-72235714D01*
X139401190Y-72273809D01*
X139325000Y-72311904D01*
X139248809Y-72311904D01*
X139172619Y-72273809D01*
X139134523Y-72235714D01*
X139096428Y-72159523D01*
X139058333Y-72007142D01*
X139058333Y-71816666D01*
X139096428Y-71664285D01*
X139134523Y-71588095D01*
X139172619Y-71550000D01*
X139248809Y-71511904D01*
X140201190Y-71511904D02*
X140048809Y-71511904D01*
X139972619Y-71550000D01*
X139934523Y-71588095D01*
X139858333Y-71702380D01*
X139820238Y-71854761D01*
X139820238Y-72159523D01*
X139858333Y-72235714D01*
X139896428Y-72273809D01*
X139972619Y-72311904D01*
X140125000Y-72311904D01*
X140201190Y-72273809D01*
X140239285Y-72235714D01*
X140277380Y-72159523D01*
X140277380Y-71969047D01*
X140239285Y-71892857D01*
X140201190Y-71854761D01*
X140125000Y-71816666D01*
X139972619Y-71816666D01*
X139896428Y-71854761D01*
X139858333Y-71892857D01*
X139820238Y-71969047D01*
X133858000Y-85217000D02*
X133858000Y-84582000D01*
X144018000Y-85217000D02*
X144018000Y-84582000D01*
X146558000Y-85217000D02*
X146558000Y-84582000D01*
X149098000Y-85217000D02*
X149098000Y-84582000D01*
X151638000Y-85217000D02*
X151638000Y-84582000D01*
X154178000Y-85217000D02*
X154178000Y-84582000D01*
X156718000Y-85217000D02*
X156718000Y-84582000D01*
X159258000Y-85217000D02*
X159258000Y-84582000D01*
X159258000Y-78740000D02*
X159258000Y-78105000D01*
X156718000Y-78740000D02*
X156718000Y-78105000D01*
X149098000Y-78740000D02*
X149098000Y-78105000D01*
X146558000Y-78740000D02*
X146558000Y-78105000D01*
X144018000Y-78740000D02*
X144018000Y-78105000D01*
X141478000Y-78740000D02*
X141478000Y-78105000D01*
X138938000Y-78740000D02*
X138938000Y-78105000D01*
X136398000Y-78740000D02*
X136398000Y-78105000D01*
X133858000Y-78740000D02*
X133858000Y-78105000D01*
X159619904Y-88228047D02*
X158819904Y-88228047D01*
X158819904Y-87923285D01*
X158858000Y-87847095D01*
X158896095Y-87809000D01*
X158972285Y-87770904D01*
X159086571Y-87770904D01*
X159162761Y-87809000D01*
X159200857Y-87847095D01*
X159238952Y-87923285D01*
X159238952Y-88228047D01*
X159391333Y-87466142D02*
X159391333Y-87085190D01*
X159619904Y-87542333D02*
X158819904Y-87275666D01*
X159619904Y-87009000D01*
X159619904Y-86323285D02*
X159619904Y-86780428D01*
X159619904Y-86551857D02*
X158819904Y-86551857D01*
X158934190Y-86628047D01*
X159010380Y-86704238D01*
X159048476Y-86780428D01*
X158819904Y-85637571D02*
X158819904Y-85789952D01*
X158858000Y-85866142D01*
X158896095Y-85904238D01*
X159010380Y-85980428D01*
X159162761Y-86018523D01*
X159467523Y-86018523D01*
X159543714Y-85980428D01*
X159581809Y-85942333D01*
X159619904Y-85866142D01*
X159619904Y-85713761D01*
X159581809Y-85637571D01*
X159543714Y-85599476D01*
X159467523Y-85561380D01*
X159277047Y-85561380D01*
X159200857Y-85599476D01*
X159162761Y-85637571D01*
X159124666Y-85713761D01*
X159124666Y-85866142D01*
X159162761Y-85942333D01*
X159200857Y-85980428D01*
X159277047Y-86018523D01*
X157079904Y-88228047D02*
X156279904Y-88228047D01*
X156279904Y-87923285D01*
X156318000Y-87847095D01*
X156356095Y-87809000D01*
X156432285Y-87770904D01*
X156546571Y-87770904D01*
X156622761Y-87809000D01*
X156660857Y-87847095D01*
X156698952Y-87923285D01*
X156698952Y-88228047D01*
X156851333Y-87466142D02*
X156851333Y-87085190D01*
X157079904Y-87542333D02*
X156279904Y-87275666D01*
X157079904Y-87009000D01*
X157079904Y-86323285D02*
X157079904Y-86780428D01*
X157079904Y-86551857D02*
X156279904Y-86551857D01*
X156394190Y-86628047D01*
X156470380Y-86704238D01*
X156508476Y-86780428D01*
X156279904Y-86056619D02*
X156279904Y-85523285D01*
X157079904Y-85866142D01*
X153778000Y-87237571D02*
X153739904Y-87313761D01*
X153739904Y-87428047D01*
X153778000Y-87542333D01*
X153854190Y-87618523D01*
X153930380Y-87656619D01*
X154082761Y-87694714D01*
X154197047Y-87694714D01*
X154349428Y-87656619D01*
X154425619Y-87618523D01*
X154501809Y-87542333D01*
X154539904Y-87428047D01*
X154539904Y-87351857D01*
X154501809Y-87237571D01*
X154463714Y-87199476D01*
X154197047Y-87199476D01*
X154197047Y-87351857D01*
X154539904Y-86856619D02*
X153739904Y-86856619D01*
X154539904Y-86399476D01*
X153739904Y-86399476D01*
X154539904Y-86018523D02*
X153739904Y-86018523D01*
X153739904Y-85828047D01*
X153778000Y-85713761D01*
X153854190Y-85637571D01*
X153930380Y-85599476D01*
X154082761Y-85561380D01*
X154197047Y-85561380D01*
X154349428Y-85599476D01*
X154425619Y-85637571D01*
X154501809Y-85713761D01*
X154539904Y-85828047D01*
X154539904Y-86018523D01*
X151999904Y-88342333D02*
X151199904Y-88342333D01*
X151199904Y-88037571D01*
X151238000Y-87961380D01*
X151276095Y-87923285D01*
X151352285Y-87885190D01*
X151466571Y-87885190D01*
X151542761Y-87923285D01*
X151580857Y-87961380D01*
X151618952Y-88037571D01*
X151618952Y-88342333D01*
X151580857Y-87275666D02*
X151618952Y-87161380D01*
X151657047Y-87123285D01*
X151733238Y-87085190D01*
X151847523Y-87085190D01*
X151923714Y-87123285D01*
X151961809Y-87161380D01*
X151999904Y-87237571D01*
X151999904Y-87542333D01*
X151199904Y-87542333D01*
X151199904Y-87275666D01*
X151238000Y-87199476D01*
X151276095Y-87161380D01*
X151352285Y-87123285D01*
X151428476Y-87123285D01*
X151504666Y-87161380D01*
X151542761Y-87199476D01*
X151580857Y-87275666D01*
X151580857Y-87542333D01*
X151276095Y-86780428D02*
X151238000Y-86742333D01*
X151199904Y-86666142D01*
X151199904Y-86475666D01*
X151238000Y-86399476D01*
X151276095Y-86361380D01*
X151352285Y-86323285D01*
X151428476Y-86323285D01*
X151542761Y-86361380D01*
X151999904Y-86818523D01*
X151999904Y-86323285D01*
X151276095Y-86018523D02*
X151238000Y-85980428D01*
X151199904Y-85904238D01*
X151199904Y-85713761D01*
X151238000Y-85637571D01*
X151276095Y-85599476D01*
X151352285Y-85561380D01*
X151428476Y-85561380D01*
X151542761Y-85599476D01*
X151999904Y-86056619D01*
X151999904Y-85561380D01*
X149459904Y-88342333D02*
X148659904Y-88342333D01*
X148659904Y-88037571D01*
X148698000Y-87961380D01*
X148736095Y-87923285D01*
X148812285Y-87885190D01*
X148926571Y-87885190D01*
X149002761Y-87923285D01*
X149040857Y-87961380D01*
X149078952Y-88037571D01*
X149078952Y-88342333D01*
X149040857Y-87275666D02*
X149078952Y-87161380D01*
X149117047Y-87123285D01*
X149193238Y-87085190D01*
X149307523Y-87085190D01*
X149383714Y-87123285D01*
X149421809Y-87161380D01*
X149459904Y-87237571D01*
X149459904Y-87542333D01*
X148659904Y-87542333D01*
X148659904Y-87275666D01*
X148698000Y-87199476D01*
X148736095Y-87161380D01*
X148812285Y-87123285D01*
X148888476Y-87123285D01*
X148964666Y-87161380D01*
X149002761Y-87199476D01*
X149040857Y-87275666D01*
X149040857Y-87542333D01*
X148736095Y-86780428D02*
X148698000Y-86742333D01*
X148659904Y-86666142D01*
X148659904Y-86475666D01*
X148698000Y-86399476D01*
X148736095Y-86361380D01*
X148812285Y-86323285D01*
X148888476Y-86323285D01*
X149002761Y-86361380D01*
X149459904Y-86818523D01*
X149459904Y-86323285D01*
X148659904Y-86056619D02*
X148659904Y-85561380D01*
X148964666Y-85828047D01*
X148964666Y-85713761D01*
X149002761Y-85637571D01*
X149040857Y-85599476D01*
X149117047Y-85561380D01*
X149307523Y-85561380D01*
X149383714Y-85599476D01*
X149421809Y-85637571D01*
X149459904Y-85713761D01*
X149459904Y-85942333D01*
X149421809Y-86018523D01*
X149383714Y-86056619D01*
X146158000Y-87237571D02*
X146119904Y-87313761D01*
X146119904Y-87428047D01*
X146158000Y-87542333D01*
X146234190Y-87618523D01*
X146310380Y-87656619D01*
X146462761Y-87694714D01*
X146577047Y-87694714D01*
X146729428Y-87656619D01*
X146805619Y-87618523D01*
X146881809Y-87542333D01*
X146919904Y-87428047D01*
X146919904Y-87351857D01*
X146881809Y-87237571D01*
X146843714Y-87199476D01*
X146577047Y-87199476D01*
X146577047Y-87351857D01*
X146919904Y-86856619D02*
X146119904Y-86856619D01*
X146919904Y-86399476D01*
X146119904Y-86399476D01*
X146919904Y-86018523D02*
X146119904Y-86018523D01*
X146119904Y-85828047D01*
X146158000Y-85713761D01*
X146234190Y-85637571D01*
X146310380Y-85599476D01*
X146462761Y-85561380D01*
X146577047Y-85561380D01*
X146729428Y-85599476D01*
X146805619Y-85637571D01*
X146881809Y-85713761D01*
X146919904Y-85828047D01*
X146919904Y-86018523D01*
X144379904Y-88228047D02*
X143579904Y-88228047D01*
X143579904Y-87923285D01*
X143618000Y-87847095D01*
X143656095Y-87809000D01*
X143732285Y-87770904D01*
X143846571Y-87770904D01*
X143922761Y-87809000D01*
X143960857Y-87847095D01*
X143998952Y-87923285D01*
X143998952Y-88228047D01*
X144151333Y-87466142D02*
X144151333Y-87085190D01*
X144379904Y-87542333D02*
X143579904Y-87275666D01*
X144379904Y-87009000D01*
X143656095Y-86780428D02*
X143618000Y-86742333D01*
X143579904Y-86666142D01*
X143579904Y-86475666D01*
X143618000Y-86399476D01*
X143656095Y-86361380D01*
X143732285Y-86323285D01*
X143808476Y-86323285D01*
X143922761Y-86361380D01*
X144379904Y-86818523D01*
X144379904Y-86323285D01*
X143579904Y-86056619D02*
X143579904Y-85523285D01*
X144379904Y-85866142D01*
X141839904Y-86932809D02*
X141458952Y-87199476D01*
X141839904Y-87389952D02*
X141039904Y-87389952D01*
X141039904Y-87085190D01*
X141078000Y-87009000D01*
X141116095Y-86970904D01*
X141192285Y-86932809D01*
X141306571Y-86932809D01*
X141382761Y-86970904D01*
X141420857Y-87009000D01*
X141458952Y-87085190D01*
X141458952Y-87389952D01*
X141801809Y-86628047D02*
X141839904Y-86513761D01*
X141839904Y-86323285D01*
X141801809Y-86247095D01*
X141763714Y-86209000D01*
X141687523Y-86170904D01*
X141611333Y-86170904D01*
X141535142Y-86209000D01*
X141497047Y-86247095D01*
X141458952Y-86323285D01*
X141420857Y-86475666D01*
X141382761Y-86551857D01*
X141344666Y-86589952D01*
X141268476Y-86628047D01*
X141192285Y-86628047D01*
X141116095Y-86589952D01*
X141078000Y-86551857D01*
X141039904Y-86475666D01*
X141039904Y-86285190D01*
X141078000Y-86170904D01*
X141039904Y-85942333D02*
X141039904Y-85485190D01*
X141839904Y-85713761D02*
X141039904Y-85713761D01*
X138538000Y-87237571D02*
X138499904Y-87313761D01*
X138499904Y-87428047D01*
X138538000Y-87542333D01*
X138614190Y-87618523D01*
X138690380Y-87656619D01*
X138842761Y-87694714D01*
X138957047Y-87694714D01*
X139109428Y-87656619D01*
X139185619Y-87618523D01*
X139261809Y-87542333D01*
X139299904Y-87428047D01*
X139299904Y-87351857D01*
X139261809Y-87237571D01*
X139223714Y-87199476D01*
X138957047Y-87199476D01*
X138957047Y-87351857D01*
X139299904Y-86856619D02*
X138499904Y-86856619D01*
X139299904Y-86399476D01*
X138499904Y-86399476D01*
X139299904Y-86018523D02*
X138499904Y-86018523D01*
X138499904Y-85828047D01*
X138538000Y-85713761D01*
X138614190Y-85637571D01*
X138690380Y-85599476D01*
X138842761Y-85561380D01*
X138957047Y-85561380D01*
X139109428Y-85599476D01*
X139185619Y-85637571D01*
X139261809Y-85713761D01*
X139299904Y-85828047D01*
X139299904Y-86018523D01*
X136759904Y-88228047D02*
X135959904Y-88228047D01*
X135959904Y-87923285D01*
X135998000Y-87847095D01*
X136036095Y-87809000D01*
X136112285Y-87770904D01*
X136226571Y-87770904D01*
X136302761Y-87809000D01*
X136340857Y-87847095D01*
X136378952Y-87923285D01*
X136378952Y-88228047D01*
X136531333Y-87466142D02*
X136531333Y-87085190D01*
X136759904Y-87542333D02*
X135959904Y-87275666D01*
X136759904Y-87009000D01*
X135959904Y-86818523D02*
X135959904Y-86323285D01*
X136264666Y-86589952D01*
X136264666Y-86475666D01*
X136302761Y-86399476D01*
X136340857Y-86361380D01*
X136417047Y-86323285D01*
X136607523Y-86323285D01*
X136683714Y-86361380D01*
X136721809Y-86399476D01*
X136759904Y-86475666D01*
X136759904Y-86704238D01*
X136721809Y-86780428D01*
X136683714Y-86818523D01*
X135959904Y-85828047D02*
X135959904Y-85751857D01*
X135998000Y-85675666D01*
X136036095Y-85637571D01*
X136112285Y-85599476D01*
X136264666Y-85561380D01*
X136455142Y-85561380D01*
X136607523Y-85599476D01*
X136683714Y-85637571D01*
X136721809Y-85675666D01*
X136759904Y-85751857D01*
X136759904Y-85828047D01*
X136721809Y-85904238D01*
X136683714Y-85942333D01*
X136607523Y-85980428D01*
X136455142Y-86018523D01*
X136264666Y-86018523D01*
X136112285Y-85980428D01*
X136036095Y-85942333D01*
X135998000Y-85904238D01*
X135959904Y-85828047D01*
X134219904Y-88228047D02*
X133419904Y-88228047D01*
X133419904Y-87923285D01*
X133458000Y-87847095D01*
X133496095Y-87809000D01*
X133572285Y-87770904D01*
X133686571Y-87770904D01*
X133762761Y-87809000D01*
X133800857Y-87847095D01*
X133838952Y-87923285D01*
X133838952Y-88228047D01*
X133991333Y-87466142D02*
X133991333Y-87085190D01*
X134219904Y-87542333D02*
X133419904Y-87275666D01*
X134219904Y-87009000D01*
X133419904Y-86818523D02*
X133419904Y-86323285D01*
X133724666Y-86589952D01*
X133724666Y-86475666D01*
X133762761Y-86399476D01*
X133800857Y-86361380D01*
X133877047Y-86323285D01*
X134067523Y-86323285D01*
X134143714Y-86361380D01*
X134181809Y-86399476D01*
X134219904Y-86475666D01*
X134219904Y-86704238D01*
X134181809Y-86780428D01*
X134143714Y-86818523D01*
X134219904Y-85561380D02*
X134219904Y-86018523D01*
X134219904Y-85789952D02*
X133419904Y-85789952D01*
X133534190Y-85866142D01*
X133610380Y-85942333D01*
X133648476Y-86018523D01*
X159619904Y-77722523D02*
X158819904Y-77722523D01*
X158819904Y-77417761D01*
X158858000Y-77341571D01*
X158896095Y-77303476D01*
X158972285Y-77265380D01*
X159086571Y-77265380D01*
X159162761Y-77303476D01*
X159200857Y-77341571D01*
X159238952Y-77417761D01*
X159238952Y-77722523D01*
X159391333Y-76960619D02*
X159391333Y-76579666D01*
X159619904Y-77036809D02*
X158819904Y-76770142D01*
X159619904Y-76503476D01*
X158896095Y-76274904D02*
X158858000Y-76236809D01*
X158819904Y-76160619D01*
X158819904Y-75970142D01*
X158858000Y-75893952D01*
X158896095Y-75855857D01*
X158972285Y-75817761D01*
X159048476Y-75817761D01*
X159162761Y-75855857D01*
X159619904Y-76313000D01*
X159619904Y-75817761D01*
X154539904Y-77722523D02*
X153739904Y-77722523D01*
X153739904Y-77417761D01*
X153778000Y-77341571D01*
X153816095Y-77303476D01*
X153892285Y-77265380D01*
X154006571Y-77265380D01*
X154082761Y-77303476D01*
X154120857Y-77341571D01*
X154158952Y-77417761D01*
X154158952Y-77722523D01*
X154311333Y-76960619D02*
X154311333Y-76579666D01*
X154539904Y-77036809D02*
X153739904Y-76770142D01*
X154539904Y-76503476D01*
X154539904Y-75817761D02*
X154539904Y-76274904D01*
X154539904Y-76046333D02*
X153739904Y-76046333D01*
X153854190Y-76122523D01*
X153930380Y-76198714D01*
X153968476Y-76274904D01*
X156279904Y-77798714D02*
X156279904Y-77303476D01*
X156584666Y-77570142D01*
X156584666Y-77455857D01*
X156622761Y-77379666D01*
X156660857Y-77341571D01*
X156737047Y-77303476D01*
X156927523Y-77303476D01*
X157003714Y-77341571D01*
X157041809Y-77379666D01*
X157079904Y-77455857D01*
X157079904Y-77684428D01*
X157041809Y-77760619D01*
X157003714Y-77798714D01*
X157003714Y-76960619D02*
X157041809Y-76922523D01*
X157079904Y-76960619D01*
X157041809Y-76998714D01*
X157003714Y-76960619D01*
X157079904Y-76960619D01*
X156279904Y-76655857D02*
X156279904Y-76160619D01*
X156584666Y-76427285D01*
X156584666Y-76313000D01*
X156622761Y-76236809D01*
X156660857Y-76198714D01*
X156737047Y-76160619D01*
X156927523Y-76160619D01*
X157003714Y-76198714D01*
X157041809Y-76236809D01*
X157079904Y-76313000D01*
X157079904Y-76541571D01*
X157041809Y-76617761D01*
X157003714Y-76655857D01*
X156279904Y-75932047D02*
X157079904Y-75665380D01*
X156279904Y-75398714D01*
X151999904Y-77722523D02*
X151199904Y-77722523D01*
X151199904Y-77417761D01*
X151238000Y-77341571D01*
X151276095Y-77303476D01*
X151352285Y-77265380D01*
X151466571Y-77265380D01*
X151542761Y-77303476D01*
X151580857Y-77341571D01*
X151618952Y-77417761D01*
X151618952Y-77722523D01*
X151771333Y-76960619D02*
X151771333Y-76579666D01*
X151999904Y-77036809D02*
X151199904Y-76770142D01*
X151999904Y-76503476D01*
X151199904Y-76084428D02*
X151199904Y-76008238D01*
X151238000Y-75932047D01*
X151276095Y-75893952D01*
X151352285Y-75855857D01*
X151504666Y-75817761D01*
X151695142Y-75817761D01*
X151847523Y-75855857D01*
X151923714Y-75893952D01*
X151961809Y-75932047D01*
X151999904Y-76008238D01*
X151999904Y-76084428D01*
X151961809Y-76160619D01*
X151923714Y-76198714D01*
X151847523Y-76236809D01*
X151695142Y-76274904D01*
X151504666Y-76274904D01*
X151352285Y-76236809D01*
X151276095Y-76198714D01*
X151238000Y-76160619D01*
X151199904Y-76084428D01*
X149459904Y-77722523D02*
X148659904Y-77722523D01*
X148659904Y-77417761D01*
X148698000Y-77341571D01*
X148736095Y-77303476D01*
X148812285Y-77265380D01*
X148926571Y-77265380D01*
X149002761Y-77303476D01*
X149040857Y-77341571D01*
X149078952Y-77417761D01*
X149078952Y-77722523D01*
X149040857Y-76655857D02*
X149078952Y-76541571D01*
X149117047Y-76503476D01*
X149193238Y-76465380D01*
X149307523Y-76465380D01*
X149383714Y-76503476D01*
X149421809Y-76541571D01*
X149459904Y-76617761D01*
X149459904Y-76922523D01*
X148659904Y-76922523D01*
X148659904Y-76655857D01*
X148698000Y-76579666D01*
X148736095Y-76541571D01*
X148812285Y-76503476D01*
X148888476Y-76503476D01*
X148964666Y-76541571D01*
X149002761Y-76579666D01*
X149040857Y-76655857D01*
X149040857Y-76922523D01*
X148659904Y-76198714D02*
X148659904Y-75703476D01*
X148964666Y-75970142D01*
X148964666Y-75855857D01*
X149002761Y-75779666D01*
X149040857Y-75741571D01*
X149117047Y-75703476D01*
X149307523Y-75703476D01*
X149383714Y-75741571D01*
X149421809Y-75779666D01*
X149459904Y-75855857D01*
X149459904Y-76084428D01*
X149421809Y-76160619D01*
X149383714Y-76198714D01*
X146919904Y-77722523D02*
X146119904Y-77722523D01*
X146119904Y-77417761D01*
X146158000Y-77341571D01*
X146196095Y-77303476D01*
X146272285Y-77265380D01*
X146386571Y-77265380D01*
X146462761Y-77303476D01*
X146500857Y-77341571D01*
X146538952Y-77417761D01*
X146538952Y-77722523D01*
X146500857Y-76655857D02*
X146538952Y-76541571D01*
X146577047Y-76503476D01*
X146653238Y-76465380D01*
X146767523Y-76465380D01*
X146843714Y-76503476D01*
X146881809Y-76541571D01*
X146919904Y-76617761D01*
X146919904Y-76922523D01*
X146119904Y-76922523D01*
X146119904Y-76655857D01*
X146158000Y-76579666D01*
X146196095Y-76541571D01*
X146272285Y-76503476D01*
X146348476Y-76503476D01*
X146424666Y-76541571D01*
X146462761Y-76579666D01*
X146500857Y-76655857D01*
X146500857Y-76922523D01*
X146196095Y-76160619D02*
X146158000Y-76122523D01*
X146119904Y-76046333D01*
X146119904Y-75855857D01*
X146158000Y-75779666D01*
X146196095Y-75741571D01*
X146272285Y-75703476D01*
X146348476Y-75703476D01*
X146462761Y-75741571D01*
X146919904Y-76198714D01*
X146919904Y-75703476D01*
X144379904Y-77722523D02*
X143579904Y-77722523D01*
X143579904Y-77417761D01*
X143618000Y-77341571D01*
X143656095Y-77303476D01*
X143732285Y-77265380D01*
X143846571Y-77265380D01*
X143922761Y-77303476D01*
X143960857Y-77341571D01*
X143998952Y-77417761D01*
X143998952Y-77722523D01*
X143960857Y-76655857D02*
X143998952Y-76541571D01*
X144037047Y-76503476D01*
X144113238Y-76465380D01*
X144227523Y-76465380D01*
X144303714Y-76503476D01*
X144341809Y-76541571D01*
X144379904Y-76617761D01*
X144379904Y-76922523D01*
X143579904Y-76922523D01*
X143579904Y-76655857D01*
X143618000Y-76579666D01*
X143656095Y-76541571D01*
X143732285Y-76503476D01*
X143808476Y-76503476D01*
X143884666Y-76541571D01*
X143922761Y-76579666D01*
X143960857Y-76655857D01*
X143960857Y-76922523D01*
X144379904Y-75703476D02*
X144379904Y-76160619D01*
X144379904Y-75932047D02*
X143579904Y-75932047D01*
X143694190Y-76008238D01*
X143770380Y-76084428D01*
X143808476Y-76160619D01*
X141839904Y-77722523D02*
X141039904Y-77722523D01*
X141039904Y-77417761D01*
X141078000Y-77341571D01*
X141116095Y-77303476D01*
X141192285Y-77265380D01*
X141306571Y-77265380D01*
X141382761Y-77303476D01*
X141420857Y-77341571D01*
X141458952Y-77417761D01*
X141458952Y-77722523D01*
X141420857Y-76655857D02*
X141458952Y-76541571D01*
X141497047Y-76503476D01*
X141573238Y-76465380D01*
X141687523Y-76465380D01*
X141763714Y-76503476D01*
X141801809Y-76541571D01*
X141839904Y-76617761D01*
X141839904Y-76922523D01*
X141039904Y-76922523D01*
X141039904Y-76655857D01*
X141078000Y-76579666D01*
X141116095Y-76541571D01*
X141192285Y-76503476D01*
X141268476Y-76503476D01*
X141344666Y-76541571D01*
X141382761Y-76579666D01*
X141420857Y-76655857D01*
X141420857Y-76922523D01*
X141039904Y-75970142D02*
X141039904Y-75893952D01*
X141078000Y-75817761D01*
X141116095Y-75779666D01*
X141192285Y-75741571D01*
X141344666Y-75703476D01*
X141535142Y-75703476D01*
X141687523Y-75741571D01*
X141763714Y-75779666D01*
X141801809Y-75817761D01*
X141839904Y-75893952D01*
X141839904Y-75970142D01*
X141801809Y-76046333D01*
X141763714Y-76084428D01*
X141687523Y-76122523D01*
X141535142Y-76160619D01*
X141344666Y-76160619D01*
X141192285Y-76122523D01*
X141116095Y-76084428D01*
X141078000Y-76046333D01*
X141039904Y-75970142D01*
X138499904Y-77798714D02*
X138499904Y-77303476D01*
X138804666Y-77570142D01*
X138804666Y-77455857D01*
X138842761Y-77379666D01*
X138880857Y-77341571D01*
X138957047Y-77303476D01*
X139147523Y-77303476D01*
X139223714Y-77341571D01*
X139261809Y-77379666D01*
X139299904Y-77455857D01*
X139299904Y-77684428D01*
X139261809Y-77760619D01*
X139223714Y-77798714D01*
X139223714Y-76960619D02*
X139261809Y-76922523D01*
X139299904Y-76960619D01*
X139261809Y-76998714D01*
X139223714Y-76960619D01*
X139299904Y-76960619D01*
X138499904Y-76655857D02*
X138499904Y-76160619D01*
X138804666Y-76427285D01*
X138804666Y-76313000D01*
X138842761Y-76236809D01*
X138880857Y-76198714D01*
X138957047Y-76160619D01*
X139147523Y-76160619D01*
X139223714Y-76198714D01*
X139261809Y-76236809D01*
X139299904Y-76313000D01*
X139299904Y-76541571D01*
X139261809Y-76617761D01*
X139223714Y-76655857D01*
X138499904Y-75932047D02*
X139299904Y-75665380D01*
X138499904Y-75398714D01*
X134219904Y-77722523D02*
X133419904Y-77722523D01*
X133419904Y-77417761D01*
X133458000Y-77341571D01*
X133496095Y-77303476D01*
X133572285Y-77265380D01*
X133686571Y-77265380D01*
X133762761Y-77303476D01*
X133800857Y-77341571D01*
X133838952Y-77417761D01*
X133838952Y-77722523D01*
X133800857Y-76655857D02*
X133838952Y-76541571D01*
X133877047Y-76503476D01*
X133953238Y-76465380D01*
X134067523Y-76465380D01*
X134143714Y-76503476D01*
X134181809Y-76541571D01*
X134219904Y-76617761D01*
X134219904Y-76922523D01*
X133419904Y-76922523D01*
X133419904Y-76655857D01*
X133458000Y-76579666D01*
X133496095Y-76541571D01*
X133572285Y-76503476D01*
X133648476Y-76503476D01*
X133724666Y-76541571D01*
X133762761Y-76579666D01*
X133800857Y-76655857D01*
X133800857Y-76922523D01*
X133419904Y-76198714D02*
X133419904Y-75703476D01*
X133724666Y-75970142D01*
X133724666Y-75855857D01*
X133762761Y-75779666D01*
X133800857Y-75741571D01*
X133877047Y-75703476D01*
X134067523Y-75703476D01*
X134143714Y-75741571D01*
X134181809Y-75779666D01*
X134219904Y-75855857D01*
X134219904Y-76084428D01*
X134181809Y-76160619D01*
X134143714Y-76198714D01*
X133419904Y-75208238D02*
X133419904Y-75132047D01*
X133458000Y-75055857D01*
X133496095Y-75017761D01*
X133572285Y-74979666D01*
X133724666Y-74941571D01*
X133915142Y-74941571D01*
X134067523Y-74979666D01*
X134143714Y-75017761D01*
X134181809Y-75055857D01*
X134219904Y-75132047D01*
X134219904Y-75208238D01*
X134181809Y-75284428D01*
X134143714Y-75322523D01*
X134067523Y-75360619D01*
X133915142Y-75398714D01*
X133724666Y-75398714D01*
X133572285Y-75360619D01*
X133496095Y-75322523D01*
X133458000Y-75284428D01*
X133419904Y-75208238D01*
X136759904Y-77722523D02*
X135959904Y-77722523D01*
X135959904Y-77417761D01*
X135998000Y-77341571D01*
X136036095Y-77303476D01*
X136112285Y-77265380D01*
X136226571Y-77265380D01*
X136302761Y-77303476D01*
X136340857Y-77341571D01*
X136378952Y-77417761D01*
X136378952Y-77722523D01*
X136340857Y-76655857D02*
X136378952Y-76541571D01*
X136417047Y-76503476D01*
X136493238Y-76465380D01*
X136607523Y-76465380D01*
X136683714Y-76503476D01*
X136721809Y-76541571D01*
X136759904Y-76617761D01*
X136759904Y-76922523D01*
X135959904Y-76922523D01*
X135959904Y-76655857D01*
X135998000Y-76579666D01*
X136036095Y-76541571D01*
X136112285Y-76503476D01*
X136188476Y-76503476D01*
X136264666Y-76541571D01*
X136302761Y-76579666D01*
X136340857Y-76655857D01*
X136340857Y-76922523D01*
X135959904Y-76198714D02*
X135959904Y-75703476D01*
X136264666Y-75970142D01*
X136264666Y-75855857D01*
X136302761Y-75779666D01*
X136340857Y-75741571D01*
X136417047Y-75703476D01*
X136607523Y-75703476D01*
X136683714Y-75741571D01*
X136721809Y-75779666D01*
X136759904Y-75855857D01*
X136759904Y-76084428D01*
X136721809Y-76160619D01*
X136683714Y-76198714D01*
X136759904Y-74941571D02*
X136759904Y-75398714D01*
X136759904Y-75170142D02*
X135959904Y-75170142D01*
X136074190Y-75246333D01*
X136150380Y-75322523D01*
X136188476Y-75398714D01*
X123215476Y-67799000D02*
X123139285Y-67760904D01*
X123025000Y-67760904D01*
X122910714Y-67799000D01*
X122834523Y-67875190D01*
X122796428Y-67951380D01*
X122758333Y-68103761D01*
X122758333Y-68218047D01*
X122796428Y-68370428D01*
X122834523Y-68446619D01*
X122910714Y-68522809D01*
X123025000Y-68560904D01*
X123101190Y-68560904D01*
X123215476Y-68522809D01*
X123253571Y-68484714D01*
X123253571Y-68218047D01*
X123101190Y-68218047D01*
X123596428Y-68560904D02*
X123596428Y-67760904D01*
X124053571Y-68560904D01*
X124053571Y-67760904D01*
X124434523Y-68560904D02*
X124434523Y-67760904D01*
X124625000Y-67760904D01*
X124739285Y-67799000D01*
X124815476Y-67875190D01*
X124853571Y-67951380D01*
X124891666Y-68103761D01*
X124891666Y-68218047D01*
X124853571Y-68370428D01*
X124815476Y-68446619D01*
X124739285Y-68522809D01*
X124625000Y-68560904D01*
X124434523Y-68560904D01*
X120675476Y-67799000D02*
X120599285Y-67760904D01*
X120485000Y-67760904D01*
X120370714Y-67799000D01*
X120294523Y-67875190D01*
X120256428Y-67951380D01*
X120218333Y-68103761D01*
X120218333Y-68218047D01*
X120256428Y-68370428D01*
X120294523Y-68446619D01*
X120370714Y-68522809D01*
X120485000Y-68560904D01*
X120561190Y-68560904D01*
X120675476Y-68522809D01*
X120713571Y-68484714D01*
X120713571Y-68218047D01*
X120561190Y-68218047D01*
X121056428Y-68560904D02*
X121056428Y-67760904D01*
X121513571Y-68560904D01*
X121513571Y-67760904D01*
X121894523Y-68560904D02*
X121894523Y-67760904D01*
X122085000Y-67760904D01*
X122199285Y-67799000D01*
X122275476Y-67875190D01*
X122313571Y-67951380D01*
X122351666Y-68103761D01*
X122351666Y-68218047D01*
X122313571Y-68370428D01*
X122275476Y-68446619D01*
X122199285Y-68522809D01*
X122085000Y-68560904D01*
X121894523Y-68560904D01*
X125869761Y-68560904D02*
X125412619Y-68560904D01*
X125641190Y-68560904D02*
X125641190Y-67760904D01*
X125565000Y-67875190D01*
X125488809Y-67951380D01*
X125412619Y-67989476D01*
X126174523Y-67837095D02*
X126212619Y-67799000D01*
X126288809Y-67760904D01*
X126479285Y-67760904D01*
X126555476Y-67799000D01*
X126593571Y-67837095D01*
X126631666Y-67913285D01*
X126631666Y-67989476D01*
X126593571Y-68103761D01*
X126136428Y-68560904D01*
X126631666Y-68560904D01*
X126860238Y-67760904D02*
X127126904Y-68560904D01*
X127393571Y-67760904D01*
X118592619Y-67760904D02*
X118211666Y-67760904D01*
X118173571Y-68141857D01*
X118211666Y-68103761D01*
X118287857Y-68065666D01*
X118478333Y-68065666D01*
X118554523Y-68103761D01*
X118592619Y-68141857D01*
X118630714Y-68218047D01*
X118630714Y-68408523D01*
X118592619Y-68484714D01*
X118554523Y-68522809D01*
X118478333Y-68560904D01*
X118287857Y-68560904D01*
X118211666Y-68522809D01*
X118173571Y-68484714D01*
X118859285Y-67760904D02*
X119125952Y-68560904D01*
X119392619Y-67760904D01*
X162657000Y-82361000D02*
X162437000Y-82361000D01*
X164307000Y-80961000D02*
X165477000Y-80961000D01*
X163357000Y-82361000D02*
X164557000Y-82361000D01*
X165477000Y-82361000D02*
X165477000Y-80961000D01*
X162437000Y-80961000D02*
X163607000Y-80961000D01*
X162437000Y-82361000D02*
X162437000Y-80961000D01*
X165257000Y-82361000D02*
X165457000Y-82361000D01*
D13*
X115965000Y-54145000D02*
X115965000Y-55905000D01*
X119035000Y-55905000D02*
X119035000Y-53475000D01*
X124665000Y-54145000D02*
X124665000Y-55905000D01*
X127735000Y-55905000D02*
X127735000Y-53475000D01*
D10*
X153728000Y-78086000D02*
X154628000Y-78086000D01*
X154628000Y-78886000D02*
X153728000Y-78886000D01*
X151188000Y-78086000D02*
X152088000Y-78086000D01*
X152088000Y-78886000D02*
X151188000Y-78886000D01*
X135128000Y-81661000D02*
X137668000Y-81661000D01*
X135128000Y-84201000D02*
X135128000Y-81661000D01*
X137668000Y-84201000D02*
X135128000Y-84201000D01*
X137668000Y-81661000D02*
X137668000Y-84201000D01*
X137668000Y-79121000D02*
X137668000Y-81661000D01*
X137668000Y-81661000D02*
X135128000Y-81661000D01*
X135128000Y-81661000D02*
X135128000Y-79121000D01*
X135128000Y-79121000D02*
X137668000Y-79121000D01*
X135128000Y-79121000D02*
X135128000Y-81661000D01*
X135128000Y-81661000D02*
X132588000Y-81661000D01*
X132588000Y-81661000D02*
X132588000Y-79121000D01*
X132588000Y-79121000D02*
X135128000Y-79121000D01*
X147828000Y-81661000D02*
X150368000Y-81661000D01*
X147828000Y-84201000D02*
X147828000Y-81661000D01*
X150368000Y-84201000D02*
X147828000Y-84201000D01*
X150368000Y-81661000D02*
X150368000Y-84201000D01*
X150368000Y-81661000D02*
X152908000Y-81661000D01*
X150368000Y-84201000D02*
X150368000Y-81661000D01*
X152908000Y-84201000D02*
X150368000Y-84201000D01*
X152908000Y-81661000D02*
X152908000Y-84201000D01*
X147828000Y-79121000D02*
X150368000Y-79121000D01*
X147828000Y-81661000D02*
X147828000Y-79121000D01*
X150368000Y-81661000D02*
X147828000Y-81661000D01*
X150368000Y-79121000D02*
X150368000Y-81661000D01*
X145288000Y-79121000D02*
X147828000Y-79121000D01*
X145288000Y-81661000D02*
X145288000Y-79121000D01*
X147828000Y-81661000D02*
X145288000Y-81661000D01*
X147828000Y-79121000D02*
X147828000Y-81661000D01*
X142748000Y-79121000D02*
X145288000Y-79121000D01*
X142748000Y-81661000D02*
X142748000Y-79121000D01*
X145288000Y-81661000D02*
X142748000Y-81661000D01*
X145288000Y-79121000D02*
X145288000Y-81661000D01*
X140208000Y-79121000D02*
X142748000Y-79121000D01*
X140208000Y-81661000D02*
X140208000Y-79121000D01*
X142748000Y-81661000D02*
X140208000Y-81661000D01*
X142748000Y-79121000D02*
X142748000Y-81661000D01*
X142748000Y-81661000D02*
X145288000Y-81661000D01*
X142748000Y-84201000D02*
X142748000Y-81661000D01*
X145288000Y-84201000D02*
X142748000Y-84201000D01*
X145288000Y-81661000D02*
X145288000Y-84201000D01*
X155448000Y-81661000D02*
X157988000Y-81661000D01*
X155448000Y-84201000D02*
X155448000Y-81661000D01*
X157988000Y-84201000D02*
X155448000Y-84201000D01*
X157988000Y-81661000D02*
X157988000Y-84201000D01*
X157988000Y-81661000D02*
X160528000Y-81661000D01*
X157988000Y-84201000D02*
X157988000Y-81661000D01*
X160528000Y-84201000D02*
X157988000Y-84201000D01*
X160528000Y-81661000D02*
X160528000Y-84201000D01*
D13*
X131035000Y-85735000D02*
X131035000Y-86235000D01*
X131035000Y-86235000D02*
X130535000Y-86235000D01*
X121815000Y-77515000D02*
X121815000Y-77015000D01*
X121815000Y-77015000D02*
X122315000Y-77015000D01*
X121815000Y-85735000D02*
X121815000Y-86235000D01*
X121815000Y-86235000D02*
X122315000Y-86235000D01*
X131035000Y-77515000D02*
X131035000Y-77015000D01*
X144250000Y-69935000D02*
X144250000Y-65635000D01*
X147200000Y-69935000D02*
X144250000Y-69935000D01*
X147200000Y-70685000D02*
X147200000Y-69935000D01*
X144250000Y-61335000D02*
X144250000Y-65635000D01*
X147200000Y-61335000D02*
X144250000Y-61335000D01*
X147200000Y-60585000D02*
X147200000Y-61335000D01*
X149450000Y-70685000D02*
X149450000Y-68885000D01*
X148700000Y-70685000D02*
X149450000Y-70685000D01*
X148700000Y-68885000D02*
X148700000Y-70685000D01*
X149450000Y-68885000D02*
X148700000Y-68885000D01*
X149450000Y-62385000D02*
X149450000Y-60585000D01*
X148700000Y-62385000D02*
X149450000Y-62385000D01*
X148700000Y-60585000D02*
X148700000Y-62385000D01*
X149450000Y-60585000D02*
X148700000Y-60585000D01*
X149450000Y-67385000D02*
X149450000Y-63885000D01*
X148700000Y-67385000D02*
X149450000Y-67385000D01*
X148700000Y-63885000D02*
X148700000Y-67385000D01*
X149450000Y-63885000D02*
X148700000Y-63885000D01*
X149460000Y-70695000D02*
X149460000Y-60575000D01*
X143490000Y-70695000D02*
X149460000Y-70695000D01*
X143490000Y-60575000D02*
X143490000Y-70695000D01*
X149460000Y-60575000D02*
X143490000Y-60575000D01*
D10*
X132275000Y-92475000D02*
X132275000Y-94575000D01*
X129775000Y-94575000D02*
X129775000Y-92475000D01*
D13*
X147140000Y-97635000D02*
X146415000Y-97635000D01*
X146415000Y-97635000D02*
X146415000Y-96910000D01*
X150910000Y-92415000D02*
X151635000Y-92415000D01*
X151635000Y-92415000D02*
X151635000Y-93140000D01*
X147140000Y-92415000D02*
X146415000Y-92415000D01*
X146415000Y-92415000D02*
X146415000Y-93140000D01*
X150910000Y-97635000D02*
X151635000Y-97635000D01*
X125300000Y-72210000D02*
X127100000Y-72210000D01*
X127100000Y-68990000D02*
X124650000Y-68990000D01*
D10*
G36*
X118475000Y-76800000D02*
G01*
X118475000Y-75600000D01*
X117875000Y-75600000D01*
X117875000Y-76800000D01*
X118475000Y-76800000D01*
G37*
X118475000Y-76800000D02*
X118475000Y-75600000D01*
X117875000Y-75600000D01*
X117875000Y-76800000D01*
X118475000Y-76800000D01*
X114475000Y-76800000D02*
X114475000Y-71800000D01*
X118475000Y-76800000D02*
X118475000Y-71800000D01*
X118475000Y-71800000D02*
X114475000Y-71800000D01*
X118475000Y-76800000D02*
X114475000Y-76800000D01*
D13*
X106906250Y-51608750D02*
X106906250Y-52396250D01*
X106512500Y-52002500D02*
X107300000Y-52002500D01*
X107540000Y-56195563D02*
X108604437Y-57260000D01*
X107540000Y-51504437D02*
X108604437Y-50440000D01*
X107540000Y-51504437D02*
X107540000Y-52790000D01*
X107540000Y-56195563D02*
X107540000Y-54910000D01*
X108604437Y-57260000D02*
X114360000Y-57260000D01*
X108604437Y-50440000D02*
X114360000Y-50440000D01*
X114360000Y-50440000D02*
X114360000Y-52790000D01*
X114360000Y-57260000D02*
X114360000Y-54910000D01*
X131600000Y-69935000D02*
X131600000Y-65635000D01*
X134550000Y-69935000D02*
X131600000Y-69935000D01*
X134550000Y-70685000D02*
X134550000Y-69935000D01*
X131600000Y-61335000D02*
X131600000Y-65635000D01*
X134550000Y-61335000D02*
X131600000Y-61335000D01*
X134550000Y-60585000D02*
X134550000Y-61335000D01*
X136800000Y-70685000D02*
X136800000Y-68885000D01*
X136050000Y-70685000D02*
X136800000Y-70685000D01*
X136050000Y-68885000D02*
X136050000Y-70685000D01*
X136800000Y-68885000D02*
X136050000Y-68885000D01*
X136800000Y-62385000D02*
X136800000Y-60585000D01*
X136050000Y-62385000D02*
X136800000Y-62385000D01*
X136050000Y-60585000D02*
X136050000Y-62385000D01*
X136800000Y-60585000D02*
X136050000Y-60585000D01*
X136800000Y-67385000D02*
X136800000Y-63885000D01*
X136050000Y-67385000D02*
X136800000Y-67385000D01*
X136050000Y-63885000D02*
X136050000Y-67385000D01*
X136800000Y-63885000D02*
X136050000Y-63885000D01*
X136810000Y-70695000D02*
X136810000Y-60575000D01*
X130840000Y-70695000D02*
X136810000Y-70695000D01*
X130840000Y-60575000D02*
X130840000Y-70695000D01*
X136810000Y-60575000D02*
X130840000Y-60575000D01*
X167675000Y-50765000D02*
X167675000Y-55065000D01*
X164725000Y-50765000D02*
X167675000Y-50765000D01*
X164725000Y-50015000D02*
X164725000Y-50765000D01*
X167675000Y-59365000D02*
X167675000Y-55065000D01*
X164725000Y-59365000D02*
X167675000Y-59365000D01*
X164725000Y-60115000D02*
X164725000Y-59365000D01*
X162475000Y-50015000D02*
X162475000Y-51815000D01*
X163225000Y-50015000D02*
X162475000Y-50015000D01*
X163225000Y-51815000D02*
X163225000Y-50015000D01*
X162475000Y-51815000D02*
X163225000Y-51815000D01*
X162475000Y-58315000D02*
X162475000Y-60115000D01*
X163225000Y-58315000D02*
X162475000Y-58315000D01*
X163225000Y-60115000D02*
X163225000Y-58315000D01*
X162475000Y-60115000D02*
X163225000Y-60115000D01*
X162475000Y-53315000D02*
X162475000Y-56815000D01*
X163225000Y-53315000D02*
X162475000Y-53315000D01*
X163225000Y-56815000D02*
X163225000Y-53315000D01*
X162475000Y-56815000D02*
X163225000Y-56815000D01*
X162465000Y-50005000D02*
X162465000Y-60125000D01*
X168435000Y-50005000D02*
X162465000Y-50005000D01*
X168435000Y-60125000D02*
X168435000Y-50005000D01*
X162465000Y-60125000D02*
X168435000Y-60125000D01*
D10*
X119325000Y-79775000D02*
X119325000Y-78875000D01*
X120125000Y-78875000D02*
X120125000Y-79775000D01*
X121500000Y-71400000D02*
X121500000Y-72300000D01*
X120700000Y-72300000D02*
X120700000Y-71400000D01*
X113700000Y-70750000D02*
X114600000Y-70750000D01*
X114600000Y-71550000D02*
X113700000Y-71550000D01*
X113700000Y-77050000D02*
X114600000Y-77050000D01*
X114600000Y-77850000D02*
X113700000Y-77850000D01*
X116375000Y-70375000D02*
X116375000Y-70075000D01*
X113375000Y-70375000D02*
X113375000Y-70075000D01*
X113375000Y-67375000D02*
X113375000Y-67675000D01*
X116375000Y-67375000D02*
X116375000Y-67675000D01*
X116375000Y-70375000D02*
X115140000Y-70375000D01*
X113375000Y-67375000D02*
X114610000Y-67375000D01*
X113375000Y-70375000D02*
X114610000Y-70375000D01*
X116375000Y-67375000D02*
X115140000Y-67375000D01*
X116375000Y-81225000D02*
X116375000Y-80925000D01*
X113375000Y-81225000D02*
X113375000Y-80925000D01*
X113375000Y-78225000D02*
X113375000Y-78525000D01*
X116375000Y-78225000D02*
X116375000Y-78525000D01*
X116375000Y-81225000D02*
X115140000Y-81225000D01*
X113375000Y-78225000D02*
X114610000Y-78225000D01*
X113375000Y-81225000D02*
X114610000Y-81225000D01*
X116375000Y-78225000D02*
X115140000Y-78225000D01*
D13*
X156900000Y-69935000D02*
X156900000Y-65635000D01*
X159850000Y-69935000D02*
X156900000Y-69935000D01*
X159850000Y-70685000D02*
X159850000Y-69935000D01*
X156900000Y-61335000D02*
X156900000Y-65635000D01*
X159850000Y-61335000D02*
X156900000Y-61335000D01*
X159850000Y-60585000D02*
X159850000Y-61335000D01*
X162100000Y-70685000D02*
X162100000Y-68885000D01*
X161350000Y-70685000D02*
X162100000Y-70685000D01*
X161350000Y-68885000D02*
X161350000Y-70685000D01*
X162100000Y-68885000D02*
X161350000Y-68885000D01*
X162100000Y-62385000D02*
X162100000Y-60585000D01*
X161350000Y-62385000D02*
X162100000Y-62385000D01*
X161350000Y-60585000D02*
X161350000Y-62385000D01*
X162100000Y-60585000D02*
X161350000Y-60585000D01*
X162100000Y-67385000D02*
X162100000Y-63885000D01*
X161350000Y-67385000D02*
X162100000Y-67385000D01*
X161350000Y-63885000D02*
X161350000Y-67385000D01*
X162100000Y-63885000D02*
X161350000Y-63885000D01*
X162110000Y-70695000D02*
X162110000Y-60575000D01*
X156140000Y-70695000D02*
X162110000Y-70695000D01*
X156140000Y-60575000D02*
X156140000Y-70695000D01*
X162110000Y-60575000D02*
X156140000Y-60575000D01*
X163225000Y-69935000D02*
X163225000Y-65635000D01*
X166175000Y-69935000D02*
X163225000Y-69935000D01*
X166175000Y-70685000D02*
X166175000Y-69935000D01*
X163225000Y-61335000D02*
X163225000Y-65635000D01*
X166175000Y-61335000D02*
X163225000Y-61335000D01*
X166175000Y-60585000D02*
X166175000Y-61335000D01*
X168425000Y-70685000D02*
X168425000Y-68885000D01*
X167675000Y-70685000D02*
X168425000Y-70685000D01*
X167675000Y-68885000D02*
X167675000Y-70685000D01*
X168425000Y-68885000D02*
X167675000Y-68885000D01*
X168425000Y-62385000D02*
X168425000Y-60585000D01*
X167675000Y-62385000D02*
X168425000Y-62385000D01*
X167675000Y-60585000D02*
X167675000Y-62385000D01*
X168425000Y-60585000D02*
X167675000Y-60585000D01*
X168425000Y-67385000D02*
X168425000Y-63885000D01*
X167675000Y-67385000D02*
X168425000Y-67385000D01*
X167675000Y-63885000D02*
X167675000Y-67385000D01*
X168425000Y-63885000D02*
X167675000Y-63885000D01*
X168435000Y-70695000D02*
X168435000Y-60575000D01*
X162465000Y-70695000D02*
X168435000Y-70695000D01*
X162465000Y-60575000D02*
X162465000Y-70695000D01*
X168435000Y-60575000D02*
X162465000Y-60575000D01*
X150575000Y-69935000D02*
X150575000Y-65635000D01*
X153525000Y-69935000D02*
X150575000Y-69935000D01*
X153525000Y-70685000D02*
X153525000Y-69935000D01*
X150575000Y-61335000D02*
X150575000Y-65635000D01*
X153525000Y-61335000D02*
X150575000Y-61335000D01*
X153525000Y-60585000D02*
X153525000Y-61335000D01*
X155775000Y-70685000D02*
X155775000Y-68885000D01*
X155025000Y-70685000D02*
X155775000Y-70685000D01*
X155025000Y-68885000D02*
X155025000Y-70685000D01*
X155775000Y-68885000D02*
X155025000Y-68885000D01*
X155775000Y-62385000D02*
X155775000Y-60585000D01*
X155025000Y-62385000D02*
X155775000Y-62385000D01*
X155025000Y-60585000D02*
X155025000Y-62385000D01*
X155775000Y-60585000D02*
X155025000Y-60585000D01*
X155775000Y-67385000D02*
X155775000Y-63885000D01*
X155025000Y-67385000D02*
X155775000Y-67385000D01*
X155025000Y-63885000D02*
X155025000Y-67385000D01*
X155775000Y-63885000D02*
X155025000Y-63885000D01*
X155785000Y-70695000D02*
X155785000Y-60575000D01*
X149815000Y-70695000D02*
X155785000Y-70695000D01*
X149815000Y-60575000D02*
X149815000Y-70695000D01*
X155785000Y-60575000D02*
X149815000Y-60575000D01*
X137925000Y-69935000D02*
X137925000Y-65635000D01*
X140875000Y-69935000D02*
X137925000Y-69935000D01*
X140875000Y-70685000D02*
X140875000Y-69935000D01*
X137925000Y-61335000D02*
X137925000Y-65635000D01*
X140875000Y-61335000D02*
X137925000Y-61335000D01*
X140875000Y-60585000D02*
X140875000Y-61335000D01*
X143125000Y-70685000D02*
X143125000Y-68885000D01*
X142375000Y-70685000D02*
X143125000Y-70685000D01*
X142375000Y-68885000D02*
X142375000Y-70685000D01*
X143125000Y-68885000D02*
X142375000Y-68885000D01*
X143125000Y-62385000D02*
X143125000Y-60585000D01*
X142375000Y-62385000D02*
X143125000Y-62385000D01*
X142375000Y-60585000D02*
X142375000Y-62385000D01*
X143125000Y-60585000D02*
X142375000Y-60585000D01*
X143125000Y-67385000D02*
X143125000Y-63885000D01*
X142375000Y-67385000D02*
X143125000Y-67385000D01*
X142375000Y-63885000D02*
X142375000Y-67385000D01*
X143125000Y-63885000D02*
X142375000Y-63885000D01*
X143135000Y-70695000D02*
X143135000Y-60575000D01*
X137165000Y-70695000D02*
X143135000Y-70695000D01*
X137165000Y-60575000D02*
X137165000Y-70695000D01*
X143135000Y-60575000D02*
X137165000Y-60575000D01*
X161350000Y-50765000D02*
X161350000Y-55065000D01*
X158400000Y-50765000D02*
X161350000Y-50765000D01*
X158400000Y-50015000D02*
X158400000Y-50765000D01*
X161350000Y-59365000D02*
X161350000Y-55065000D01*
X158400000Y-59365000D02*
X161350000Y-59365000D01*
X158400000Y-60115000D02*
X158400000Y-59365000D01*
X156150000Y-50015000D02*
X156150000Y-51815000D01*
X156900000Y-50015000D02*
X156150000Y-50015000D01*
X156900000Y-51815000D02*
X156900000Y-50015000D01*
X156150000Y-51815000D02*
X156900000Y-51815000D01*
X156150000Y-58315000D02*
X156150000Y-60115000D01*
X156900000Y-58315000D02*
X156150000Y-58315000D01*
X156900000Y-60115000D02*
X156900000Y-58315000D01*
X156150000Y-60115000D02*
X156900000Y-60115000D01*
X156150000Y-53315000D02*
X156150000Y-56815000D01*
X156900000Y-53315000D02*
X156150000Y-53315000D01*
X156900000Y-56815000D02*
X156900000Y-53315000D01*
X156150000Y-56815000D02*
X156900000Y-56815000D01*
X156140000Y-50005000D02*
X156140000Y-60125000D01*
X162110000Y-50005000D02*
X156140000Y-50005000D01*
X162110000Y-60125000D02*
X162110000Y-50005000D01*
X156140000Y-60125000D02*
X162110000Y-60125000D01*
X155025000Y-50765000D02*
X155025000Y-55065000D01*
X152075000Y-50765000D02*
X155025000Y-50765000D01*
X152075000Y-50015000D02*
X152075000Y-50765000D01*
X155025000Y-59365000D02*
X155025000Y-55065000D01*
X152075000Y-59365000D02*
X155025000Y-59365000D01*
X152075000Y-60115000D02*
X152075000Y-59365000D01*
X149825000Y-50015000D02*
X149825000Y-51815000D01*
X150575000Y-50015000D02*
X149825000Y-50015000D01*
X150575000Y-51815000D02*
X150575000Y-50015000D01*
X149825000Y-51815000D02*
X150575000Y-51815000D01*
X149825000Y-58315000D02*
X149825000Y-60115000D01*
X150575000Y-58315000D02*
X149825000Y-58315000D01*
X150575000Y-60115000D02*
X150575000Y-58315000D01*
X149825000Y-60115000D02*
X150575000Y-60115000D01*
X149825000Y-53315000D02*
X149825000Y-56815000D01*
X150575000Y-53315000D02*
X149825000Y-53315000D01*
X150575000Y-56815000D02*
X150575000Y-53315000D01*
X149825000Y-56815000D02*
X150575000Y-56815000D01*
X149815000Y-50005000D02*
X149815000Y-60125000D01*
X155785000Y-50005000D02*
X149815000Y-50005000D01*
X155785000Y-60125000D02*
X155785000Y-50005000D01*
X149815000Y-60125000D02*
X155785000Y-60125000D01*
X148700000Y-50765000D02*
X148700000Y-55065000D01*
X145750000Y-50765000D02*
X148700000Y-50765000D01*
X145750000Y-50015000D02*
X145750000Y-50765000D01*
X148700000Y-59365000D02*
X148700000Y-55065000D01*
X145750000Y-59365000D02*
X148700000Y-59365000D01*
X145750000Y-60115000D02*
X145750000Y-59365000D01*
X143500000Y-50015000D02*
X143500000Y-51815000D01*
X144250000Y-50015000D02*
X143500000Y-50015000D01*
X144250000Y-51815000D02*
X144250000Y-50015000D01*
X143500000Y-51815000D02*
X144250000Y-51815000D01*
X143500000Y-58315000D02*
X143500000Y-60115000D01*
X144250000Y-58315000D02*
X143500000Y-58315000D01*
X144250000Y-60115000D02*
X144250000Y-58315000D01*
X143500000Y-60115000D02*
X144250000Y-60115000D01*
X143500000Y-53315000D02*
X143500000Y-56815000D01*
X144250000Y-53315000D02*
X143500000Y-53315000D01*
X144250000Y-56815000D02*
X144250000Y-53315000D01*
X143500000Y-56815000D02*
X144250000Y-56815000D01*
X143490000Y-50005000D02*
X143490000Y-60125000D01*
X149460000Y-50005000D02*
X143490000Y-50005000D01*
X149460000Y-60125000D02*
X149460000Y-50005000D01*
X143490000Y-60125000D02*
X149460000Y-60125000D01*
X142375000Y-50765000D02*
X142375000Y-55065000D01*
X139425000Y-50765000D02*
X142375000Y-50765000D01*
X139425000Y-50015000D02*
X139425000Y-50765000D01*
X142375000Y-59365000D02*
X142375000Y-55065000D01*
X139425000Y-59365000D02*
X142375000Y-59365000D01*
X139425000Y-60115000D02*
X139425000Y-59365000D01*
X137175000Y-50015000D02*
X137175000Y-51815000D01*
X137925000Y-50015000D02*
X137175000Y-50015000D01*
X137925000Y-51815000D02*
X137925000Y-50015000D01*
X137175000Y-51815000D02*
X137925000Y-51815000D01*
X137175000Y-58315000D02*
X137175000Y-60115000D01*
X137925000Y-58315000D02*
X137175000Y-58315000D01*
X137925000Y-60115000D02*
X137925000Y-58315000D01*
X137175000Y-60115000D02*
X137925000Y-60115000D01*
X137175000Y-53315000D02*
X137175000Y-56815000D01*
X137925000Y-53315000D02*
X137175000Y-53315000D01*
X137925000Y-56815000D02*
X137925000Y-53315000D01*
X137175000Y-56815000D02*
X137925000Y-56815000D01*
X137165000Y-50005000D02*
X137165000Y-60125000D01*
X143135000Y-50005000D02*
X137165000Y-50005000D01*
X143135000Y-60125000D02*
X143135000Y-50005000D01*
X137165000Y-60125000D02*
X143135000Y-60125000D01*
X136050000Y-50765000D02*
X136050000Y-55065000D01*
X133100000Y-50765000D02*
X136050000Y-50765000D01*
X133100000Y-50015000D02*
X133100000Y-50765000D01*
X136050000Y-59365000D02*
X136050000Y-55065000D01*
X133100000Y-59365000D02*
X136050000Y-59365000D01*
X133100000Y-60115000D02*
X133100000Y-59365000D01*
X130850000Y-50015000D02*
X130850000Y-51815000D01*
X131600000Y-50015000D02*
X130850000Y-50015000D01*
X131600000Y-51815000D02*
X131600000Y-50015000D01*
X130850000Y-51815000D02*
X131600000Y-51815000D01*
X130850000Y-58315000D02*
X130850000Y-60115000D01*
X131600000Y-58315000D02*
X130850000Y-58315000D01*
X131600000Y-60115000D02*
X131600000Y-58315000D01*
X130850000Y-60115000D02*
X131600000Y-60115000D01*
X130850000Y-53315000D02*
X130850000Y-56815000D01*
X131600000Y-53315000D02*
X130850000Y-53315000D01*
X131600000Y-56815000D02*
X131600000Y-53315000D01*
X130850000Y-56815000D02*
X131600000Y-56815000D01*
X130840000Y-50005000D02*
X130840000Y-60125000D01*
X136810000Y-50005000D02*
X130840000Y-50005000D01*
X136810000Y-60125000D02*
X136810000Y-50005000D01*
X130840000Y-60125000D02*
X136810000Y-60125000D01*
D10*
X112704000Y-58420000D02*
X112704000Y-71120000D01*
X100004000Y-71120000D02*
X100004000Y-58420000D01*
X100004000Y-58420000D02*
X112704000Y-58420000D01*
X102489000Y-58420000D02*
X102489000Y-71120000D01*
X102489000Y-71120000D02*
X102489000Y-83820000D01*
X112704000Y-71120000D02*
X112704000Y-83820000D01*
X112704000Y-83820000D02*
X100004000Y-83820000D01*
X100004000Y-83820000D02*
X100004000Y-71120000D01*
X118900000Y-77050000D02*
X118900000Y-77850000D01*
X118800000Y-77050000D02*
X118800000Y-77850000D01*
X118700000Y-77050000D02*
X118700000Y-77850000D01*
X119600000Y-77850000D02*
X118700000Y-77850000D01*
X118700000Y-77050000D02*
X119600000Y-77050000D01*
X118900000Y-70750000D02*
X118900000Y-71550000D01*
X118800000Y-70750000D02*
X118800000Y-71550000D01*
X118700000Y-70750000D02*
X118700000Y-71550000D01*
X119600000Y-71550000D02*
X118700000Y-71550000D01*
X118700000Y-70750000D02*
X119600000Y-70750000D01*
D13*
X114183750Y-90268750D02*
X114971250Y-90268750D01*
X114577500Y-90662500D02*
X114577500Y-89875000D01*
X118770563Y-89635000D02*
X119835000Y-88570563D01*
X114079437Y-89635000D02*
X113015000Y-88570563D01*
X114079437Y-89635000D02*
X115365000Y-89635000D01*
X118770563Y-89635000D02*
X117485000Y-89635000D01*
X119835000Y-88570563D02*
X119835000Y-82815000D01*
X113015000Y-88570563D02*
X113015000Y-82815000D01*
X113015000Y-82815000D02*
X115365000Y-82815000D01*
X119835000Y-82815000D02*
X117485000Y-82815000D01*
D10*
X117100000Y-71550000D02*
X116200000Y-71550000D01*
X116200000Y-70750000D02*
X117100000Y-70750000D01*
X117100000Y-77850000D02*
X116200000Y-77850000D01*
X116200000Y-77050000D02*
X117100000Y-77050000D01*
X114750000Y-56600000D02*
X114750000Y-55700000D01*
X115550000Y-55700000D02*
X115550000Y-56600000D01*
X123700000Y-57150000D02*
X122800000Y-57150000D01*
X122800000Y-56350000D02*
X123700000Y-56350000D01*
D13*
X155395000Y-104985000D02*
X155395000Y-99015000D01*
X155395000Y-99015000D02*
X142775000Y-99015000D01*
X142775000Y-99015000D02*
X142775000Y-104985000D01*
X142775000Y-104985000D02*
X155395000Y-104985000D01*
X152085000Y-104975000D02*
X152085000Y-104225000D01*
X152085000Y-104225000D02*
X146085000Y-104225000D01*
X146085000Y-104225000D02*
X146085000Y-104975000D01*
X146085000Y-104975000D02*
X152085000Y-104975000D01*
X155385000Y-104975000D02*
X155385000Y-104225000D01*
X155385000Y-104225000D02*
X153585000Y-104225000D01*
X153585000Y-104225000D02*
X153585000Y-104975000D01*
X153585000Y-104975000D02*
X155385000Y-104975000D01*
X144585000Y-104975000D02*
X144585000Y-104225000D01*
X144585000Y-104225000D02*
X142785000Y-104225000D01*
X142785000Y-104225000D02*
X142785000Y-104975000D01*
X142785000Y-104975000D02*
X144585000Y-104975000D01*
X155385000Y-102725000D02*
X154635000Y-102725000D01*
X154635000Y-102725000D02*
X154635000Y-99775000D01*
X154635000Y-99775000D02*
X149085000Y-99775000D01*
X142785000Y-102725000D02*
X143535000Y-102725000D01*
X143535000Y-102725000D02*
X143535000Y-99775000D01*
X143535000Y-99775000D02*
X149085000Y-99775000D01*
X142395000Y-104985000D02*
X142395000Y-99015000D01*
X142395000Y-99015000D02*
X129775000Y-99015000D01*
X129775000Y-99015000D02*
X129775000Y-104985000D01*
X129775000Y-104985000D02*
X142395000Y-104985000D01*
X139085000Y-104975000D02*
X139085000Y-104225000D01*
X139085000Y-104225000D02*
X133085000Y-104225000D01*
X133085000Y-104225000D02*
X133085000Y-104975000D01*
X133085000Y-104975000D02*
X139085000Y-104975000D01*
X142385000Y-104975000D02*
X142385000Y-104225000D01*
X142385000Y-104225000D02*
X140585000Y-104225000D01*
X140585000Y-104225000D02*
X140585000Y-104975000D01*
X140585000Y-104975000D02*
X142385000Y-104975000D01*
X131585000Y-104975000D02*
X131585000Y-104225000D01*
X131585000Y-104225000D02*
X129785000Y-104225000D01*
X129785000Y-104225000D02*
X129785000Y-104975000D01*
X129785000Y-104975000D02*
X131585000Y-104975000D01*
X142385000Y-102725000D02*
X141635000Y-102725000D01*
X141635000Y-102725000D02*
X141635000Y-99775000D01*
X141635000Y-99775000D02*
X136085000Y-99775000D01*
X129785000Y-102725000D02*
X130535000Y-102725000D01*
X130535000Y-102725000D02*
X130535000Y-99775000D01*
X130535000Y-99775000D02*
X136085000Y-99775000D01*
X129395000Y-104985000D02*
X129395000Y-99015000D01*
X129395000Y-99015000D02*
X116775000Y-99015000D01*
X116775000Y-99015000D02*
X116775000Y-104985000D01*
X116775000Y-104985000D02*
X129395000Y-104985000D01*
X126085000Y-104975000D02*
X126085000Y-104225000D01*
X126085000Y-104225000D02*
X120085000Y-104225000D01*
X120085000Y-104225000D02*
X120085000Y-104975000D01*
X120085000Y-104975000D02*
X126085000Y-104975000D01*
X129385000Y-104975000D02*
X129385000Y-104225000D01*
X129385000Y-104225000D02*
X127585000Y-104225000D01*
X127585000Y-104225000D02*
X127585000Y-104975000D01*
X127585000Y-104975000D02*
X129385000Y-104975000D01*
X118585000Y-104975000D02*
X118585000Y-104225000D01*
X118585000Y-104225000D02*
X116785000Y-104225000D01*
X116785000Y-104225000D02*
X116785000Y-104975000D01*
X116785000Y-104975000D02*
X118585000Y-104975000D01*
X129385000Y-102725000D02*
X128635000Y-102725000D01*
X128635000Y-102725000D02*
X128635000Y-99775000D01*
X128635000Y-99775000D02*
X123085000Y-99775000D01*
X116785000Y-102725000D02*
X117535000Y-102725000D01*
X117535000Y-102725000D02*
X117535000Y-99775000D01*
X117535000Y-99775000D02*
X123085000Y-99775000D01*
X134140000Y-97635000D02*
X133415000Y-97635000D01*
X133415000Y-97635000D02*
X133415000Y-96910000D01*
X137910000Y-92415000D02*
X138635000Y-92415000D01*
X138635000Y-92415000D02*
X138635000Y-93140000D01*
X134140000Y-92415000D02*
X133415000Y-92415000D01*
X133415000Y-92415000D02*
X133415000Y-93140000D01*
X137910000Y-97635000D02*
X138635000Y-97635000D01*
X121140000Y-97635000D02*
X120415000Y-97635000D01*
X120415000Y-97635000D02*
X120415000Y-96910000D01*
X124910000Y-92415000D02*
X125635000Y-92415000D01*
X125635000Y-92415000D02*
X125635000Y-93140000D01*
X121140000Y-92415000D02*
X120415000Y-92415000D01*
X120415000Y-92415000D02*
X120415000Y-93140000D01*
X124910000Y-97635000D02*
X125635000Y-97635000D01*
D10*
X145275000Y-92475000D02*
X145275000Y-94575000D01*
X142775000Y-94575000D02*
X142775000Y-92475000D01*
X119275000Y-92475000D02*
X119275000Y-94575000D01*
X116775000Y-94575000D02*
X116775000Y-92475000D01*
X153275000Y-97525000D02*
X154175000Y-97525000D01*
X154175000Y-98325000D02*
X153275000Y-98325000D01*
X140275000Y-97525000D02*
X141175000Y-97525000D01*
X141175000Y-98325000D02*
X140275000Y-98325000D01*
X127275000Y-97525000D02*
X128175000Y-97525000D01*
X128175000Y-98325000D02*
X127275000Y-98325000D01*
X154175000Y-96925000D02*
X153275000Y-96925000D01*
X153275000Y-96125000D02*
X154175000Y-96125000D01*
X143875000Y-96125000D02*
X144775000Y-96125000D01*
X144775000Y-96925000D02*
X143875000Y-96925000D01*
X153275000Y-94725000D02*
X154175000Y-94725000D01*
X154175000Y-95525000D02*
X153275000Y-95525000D01*
X154175000Y-94125000D02*
X153275000Y-94125000D01*
X153275000Y-93325000D02*
X154175000Y-93325000D01*
X153275000Y-91925000D02*
X154175000Y-91925000D01*
X154175000Y-92725000D02*
X153275000Y-92725000D01*
X144775000Y-98325000D02*
X143875000Y-98325000D01*
X143875000Y-97525000D02*
X144775000Y-97525000D01*
X141175000Y-96925000D02*
X140275000Y-96925000D01*
X140275000Y-96125000D02*
X141175000Y-96125000D01*
X130875000Y-96125000D02*
X131775000Y-96125000D01*
X131775000Y-96925000D02*
X130875000Y-96925000D01*
X140275000Y-94725000D02*
X141175000Y-94725000D01*
X141175000Y-95525000D02*
X140275000Y-95525000D01*
X141175000Y-94125000D02*
X140275000Y-94125000D01*
X140275000Y-93325000D02*
X141175000Y-93325000D01*
X140275000Y-91925000D02*
X141175000Y-91925000D01*
X141175000Y-92725000D02*
X140275000Y-92725000D01*
X131775000Y-98325000D02*
X130875000Y-98325000D01*
X130875000Y-97525000D02*
X131775000Y-97525000D01*
X128175000Y-96925000D02*
X127275000Y-96925000D01*
X127275000Y-96125000D02*
X128175000Y-96125000D01*
X117875000Y-96125000D02*
X118775000Y-96125000D01*
X118775000Y-96925000D02*
X117875000Y-96925000D01*
X127275000Y-94725000D02*
X128175000Y-94725000D01*
X128175000Y-95525000D02*
X127275000Y-95525000D01*
X128175000Y-94125000D02*
X127275000Y-94125000D01*
X127275000Y-93325000D02*
X128175000Y-93325000D01*
X127275000Y-91925000D02*
X128175000Y-91925000D01*
X128175000Y-92725000D02*
X127275000Y-92725000D01*
X118775000Y-98325000D02*
X117875000Y-98325000D01*
X117875000Y-97525000D02*
X118775000Y-97525000D01*
X158275000Y-92475000D02*
X158275000Y-94575000D01*
X155775000Y-94575000D02*
X155775000Y-92475000D01*
X166275000Y-94725000D02*
X167175000Y-94725000D01*
X167175000Y-95525000D02*
X166275000Y-95525000D01*
X166275000Y-97525000D02*
X167175000Y-97525000D01*
X167175000Y-98325000D02*
X166275000Y-98325000D01*
G36*
X160695000Y-89122000D02*
G01*
X161895000Y-89122000D01*
X161895000Y-88522000D01*
X160695000Y-88522000D01*
X160695000Y-89122000D01*
G37*
X160695000Y-89122000D02*
X161895000Y-89122000D01*
X161895000Y-88522000D01*
X160695000Y-88522000D01*
X160695000Y-89122000D01*
X160695000Y-85122000D02*
X165695000Y-85122000D01*
X160695000Y-89122000D02*
X165695000Y-89122000D01*
X165695000Y-89122000D02*
X165695000Y-85122000D01*
X160695000Y-89122000D02*
X160695000Y-85122000D01*
X129650000Y-54350000D02*
X128750000Y-54350000D01*
X128750000Y-53550000D02*
X129650000Y-53550000D01*
X129650000Y-55750000D02*
X128750000Y-55750000D01*
X128750000Y-54950000D02*
X129650000Y-54950000D01*
X123700000Y-56000000D02*
X122800000Y-56000000D01*
X122800000Y-55200000D02*
X123700000Y-55200000D01*
X129800000Y-71700000D02*
X128900000Y-71700000D01*
X128900000Y-70900000D02*
X129800000Y-70900000D01*
X114350000Y-95500000D02*
X115250000Y-95500000D01*
X115250000Y-96300000D02*
X114350000Y-96300000D01*
X114350000Y-96900000D02*
X115250000Y-96900000D01*
X115250000Y-97700000D02*
X114350000Y-97700000D01*
X141050000Y-84436000D02*
X141950000Y-84436000D01*
X141950000Y-85236000D02*
X141050000Y-85236000D01*
X116000000Y-94625000D02*
X116000000Y-93390000D01*
X113000000Y-91625000D02*
X113000000Y-92860000D01*
X116000000Y-91625000D02*
X116000000Y-92860000D01*
X113000000Y-94625000D02*
X113000000Y-93390000D01*
X116000000Y-94625000D02*
X115700000Y-94625000D01*
X116000000Y-91625000D02*
X115700000Y-91625000D01*
X113000000Y-91625000D02*
X113300000Y-91625000D01*
X113000000Y-94625000D02*
X113300000Y-94625000D01*
X122725000Y-64650000D02*
X122725000Y-63750000D01*
X129725000Y-64650000D02*
X122725000Y-64650000D01*
X129725000Y-63750000D02*
X129725000Y-64650000D01*
X129725000Y-58550000D02*
X129725000Y-57650000D01*
X129725000Y-57650000D02*
X122725000Y-57650000D01*
X122725000Y-57650000D02*
X122725000Y-58550000D01*
X137668000Y-79121000D02*
X140208000Y-79121000D01*
X137668000Y-81661000D02*
X137668000Y-79121000D01*
X140208000Y-81661000D02*
X137668000Y-81661000D01*
X140208000Y-79121000D02*
X140208000Y-81661000D01*
X155448000Y-79121000D02*
X157988000Y-79121000D01*
X155448000Y-81661000D02*
X155448000Y-79121000D01*
X157988000Y-81661000D02*
X155448000Y-81661000D01*
X157988000Y-79121000D02*
X157988000Y-81661000D01*
D13*
X169800000Y-97680000D02*
X169800000Y-94630000D01*
X172750000Y-97680000D02*
X169800000Y-97680000D01*
X172750000Y-98430000D02*
X172750000Y-97680000D01*
X169800000Y-91580000D02*
X169800000Y-94630000D01*
X172750000Y-91580000D02*
X169800000Y-91580000D01*
X172750000Y-90830000D02*
X172750000Y-91580000D01*
X175000000Y-98430000D02*
X175000000Y-96630000D01*
X174250000Y-98430000D02*
X175000000Y-98430000D01*
X174250000Y-96630000D02*
X174250000Y-98430000D01*
X175000000Y-96630000D02*
X174250000Y-96630000D01*
X175000000Y-92630000D02*
X175000000Y-90830000D01*
X174250000Y-92630000D02*
X175000000Y-92630000D01*
X174250000Y-90830000D02*
X174250000Y-92630000D01*
X175000000Y-90830000D02*
X174250000Y-90830000D01*
X175000000Y-95130000D02*
X175000000Y-94130000D01*
X174250000Y-95130000D02*
X175000000Y-95130000D01*
X174250000Y-94130000D02*
X174250000Y-95130000D01*
X175000000Y-94130000D02*
X174250000Y-94130000D01*
X175010000Y-98440000D02*
X175010000Y-90820000D01*
X169040000Y-98440000D02*
X175010000Y-98440000D01*
X169040000Y-90820000D02*
X169040000Y-98440000D01*
X175010000Y-90820000D02*
X169040000Y-90820000D01*
D11*
X167650000Y-81030000D02*
X174950000Y-81030000D01*
X167650000Y-89970000D02*
X167650000Y-81030000D01*
X174950000Y-89970000D02*
X167650000Y-89970000D01*
X174950000Y-89970000D02*
X174950000Y-81030000D01*
D10*
X122555000Y-65024000D02*
X125095000Y-65024000D01*
X122555000Y-67564000D02*
X122555000Y-65024000D01*
X125095000Y-67564000D02*
X122555000Y-67564000D01*
X125095000Y-65024000D02*
X125095000Y-67564000D01*
X145288000Y-81661000D02*
X147828000Y-81661000D01*
X145288000Y-84201000D02*
X145288000Y-81661000D01*
X147828000Y-84201000D02*
X145288000Y-84201000D01*
X147828000Y-81661000D02*
X147828000Y-84201000D01*
X137668000Y-81661000D02*
X140208000Y-81661000D01*
X137668000Y-84201000D02*
X137668000Y-81661000D01*
X140208000Y-84201000D02*
X137668000Y-84201000D01*
X140208000Y-81661000D02*
X140208000Y-84201000D01*
X152908000Y-81661000D02*
X155448000Y-81661000D01*
X152908000Y-84201000D02*
X152908000Y-81661000D01*
X155448000Y-84201000D02*
X152908000Y-84201000D01*
X155448000Y-81661000D02*
X155448000Y-84201000D01*
X120015000Y-65024000D02*
X122555000Y-65024000D01*
X120015000Y-67564000D02*
X120015000Y-65024000D01*
X122555000Y-67564000D02*
X120015000Y-67564000D01*
X122555000Y-65024000D02*
X122555000Y-67564000D01*
X117475000Y-65024000D02*
X120015000Y-65024000D01*
X117475000Y-67564000D02*
X117475000Y-65024000D01*
X120015000Y-67564000D02*
X117475000Y-67564000D01*
X120015000Y-65024000D02*
X120015000Y-67564000D01*
X125095000Y-65024000D02*
X127635000Y-65024000D01*
X125095000Y-67564000D02*
X125095000Y-65024000D01*
X127635000Y-67564000D02*
X125095000Y-67564000D01*
X127635000Y-65024000D02*
X127635000Y-67564000D01*
X140208000Y-81661000D02*
X142748000Y-81661000D01*
X140208000Y-84201000D02*
X140208000Y-81661000D01*
X142748000Y-84201000D02*
X140208000Y-84201000D01*
X142748000Y-81661000D02*
X142748000Y-84201000D01*
X129600000Y-70300000D02*
X129600000Y-69500000D01*
X129700000Y-70300000D02*
X129700000Y-69500000D01*
X129800000Y-70300000D02*
X129800000Y-69500000D01*
X128900000Y-69500000D02*
X129800000Y-69500000D01*
X129800000Y-70300000D02*
X128900000Y-70300000D01*
D13*
X114993750Y-103341250D02*
X114993750Y-102553750D01*
X115387500Y-102947500D02*
X114600000Y-102947500D01*
X114360000Y-98754437D02*
X113295563Y-97690000D01*
X114360000Y-103445563D02*
X113295563Y-104510000D01*
X114360000Y-103445563D02*
X114360000Y-102160000D01*
X114360000Y-98754437D02*
X114360000Y-100040000D01*
X113295563Y-97690000D02*
X107540000Y-97690000D01*
X113295563Y-104510000D02*
X107540000Y-104510000D01*
X107540000Y-104510000D02*
X107540000Y-102160000D01*
X107540000Y-97690000D02*
X107540000Y-100040000D01*
D10*
X128750000Y-56350000D02*
X129650000Y-56350000D01*
X129650000Y-57150000D02*
X128750000Y-57150000D01*
X122600000Y-70900000D02*
X123500000Y-70900000D01*
X123500000Y-71700000D02*
X122600000Y-71700000D01*
X122600000Y-69500000D02*
X123500000Y-69500000D01*
X123500000Y-70300000D02*
X122600000Y-70300000D01*
X138488000Y-84436000D02*
X139388000Y-84436000D01*
X139388000Y-85236000D02*
X138488000Y-85236000D01*
D13*
X160140000Y-97635000D02*
X159415000Y-97635000D01*
X159415000Y-97635000D02*
X159415000Y-96910000D01*
X163910000Y-92415000D02*
X164635000Y-92415000D01*
X164635000Y-92415000D02*
X164635000Y-93140000D01*
X160140000Y-92415000D02*
X159415000Y-92415000D01*
X159415000Y-92415000D02*
X159415000Y-93140000D01*
X163910000Y-97635000D02*
X164635000Y-97635000D01*
D10*
X161017000Y-82111000D02*
X161017000Y-81211000D01*
X161817000Y-81211000D02*
X161817000Y-82111000D01*
X120950000Y-54350000D02*
X120050000Y-54350000D01*
X120050000Y-53550000D02*
X120950000Y-53550000D01*
X120950000Y-55750000D02*
X120050000Y-55750000D01*
X120050000Y-54950000D02*
X120950000Y-54950000D01*
X120050000Y-52150000D02*
X120950000Y-52150000D01*
X120950000Y-52950000D02*
X120050000Y-52950000D01*
X135948000Y-84436000D02*
X136848000Y-84436000D01*
X136848000Y-85236000D02*
X135948000Y-85236000D01*
D13*
X166750000Y-71925000D02*
X162750000Y-71925000D01*
X168500000Y-77675000D02*
X168500000Y-73675000D01*
X162750000Y-79425000D02*
X166750000Y-79425000D01*
X161000000Y-73675000D02*
X161000000Y-77675000D01*
D10*
X114025000Y-64650000D02*
X114025000Y-63750000D01*
X121025000Y-64650000D02*
X114025000Y-64650000D01*
X121025000Y-63750000D02*
X121025000Y-64650000D01*
X121025000Y-58550000D02*
X121025000Y-57650000D01*
X121025000Y-57650000D02*
X114025000Y-57650000D01*
X114025000Y-57650000D02*
X114025000Y-58550000D01*
D13*
X168395000Y-104985000D02*
X168395000Y-99015000D01*
X168395000Y-99015000D02*
X155775000Y-99015000D01*
X155775000Y-99015000D02*
X155775000Y-104985000D01*
X155775000Y-104985000D02*
X168395000Y-104985000D01*
X165085000Y-104975000D02*
X165085000Y-104225000D01*
X165085000Y-104225000D02*
X159085000Y-104225000D01*
X159085000Y-104225000D02*
X159085000Y-104975000D01*
X159085000Y-104975000D02*
X165085000Y-104975000D01*
X168385000Y-104975000D02*
X168385000Y-104225000D01*
X168385000Y-104225000D02*
X166585000Y-104225000D01*
X166585000Y-104225000D02*
X166585000Y-104975000D01*
X166585000Y-104975000D02*
X168385000Y-104975000D01*
X157585000Y-104975000D02*
X157585000Y-104225000D01*
X157585000Y-104225000D02*
X155785000Y-104225000D01*
X155785000Y-104225000D02*
X155785000Y-104975000D01*
X155785000Y-104975000D02*
X157585000Y-104975000D01*
X168385000Y-102725000D02*
X167635000Y-102725000D01*
X167635000Y-102725000D02*
X167635000Y-99775000D01*
X167635000Y-99775000D02*
X162085000Y-99775000D01*
X155785000Y-102725000D02*
X156535000Y-102725000D01*
X156535000Y-102725000D02*
X156535000Y-99775000D01*
X156535000Y-99775000D02*
X162085000Y-99775000D01*
D10*
X157988000Y-79121000D02*
X160528000Y-79121000D01*
X157988000Y-81661000D02*
X157988000Y-79121000D01*
X160528000Y-81661000D02*
X157988000Y-81661000D01*
X160528000Y-79121000D02*
X160528000Y-81661000D01*
X152908000Y-79121000D02*
X155448000Y-79121000D01*
X152908000Y-81661000D02*
X152908000Y-79121000D01*
X155448000Y-81661000D02*
X152908000Y-81661000D01*
X155448000Y-79121000D02*
X155448000Y-81661000D01*
X150368000Y-79121000D02*
X152908000Y-79121000D01*
X150368000Y-81661000D02*
X150368000Y-79121000D01*
X152908000Y-81661000D02*
X150368000Y-81661000D01*
X152908000Y-79121000D02*
X152908000Y-81661000D01*
X132588000Y-81661000D02*
X135128000Y-81661000D01*
X132588000Y-84201000D02*
X132588000Y-81661000D01*
X135128000Y-84201000D02*
X132588000Y-84201000D01*
X135128000Y-81661000D02*
X135128000Y-84201000D01*
X159825000Y-77720000D02*
X160625000Y-77720000D01*
X159825000Y-77820000D02*
X160625000Y-77820000D01*
X159825000Y-77920000D02*
X160625000Y-77920000D01*
X160625000Y-77020000D02*
X160625000Y-77920000D01*
X159825000Y-77920000D02*
X159825000Y-77020000D01*
X167175000Y-96925000D02*
X166275000Y-96925000D01*
X166275000Y-96125000D02*
X167175000Y-96125000D01*
X156875000Y-96125000D02*
X157775000Y-96125000D01*
X157775000Y-96925000D02*
X156875000Y-96925000D01*
X167175000Y-94125000D02*
X166275000Y-94125000D01*
X166275000Y-93325000D02*
X167175000Y-93325000D01*
X166275000Y-91925000D02*
X167175000Y-91925000D01*
X167175000Y-92725000D02*
X166275000Y-92725000D01*
X157775000Y-98325000D02*
X156875000Y-98325000D01*
X156875000Y-97525000D02*
X157775000Y-97525000D01*
X120050000Y-56350000D02*
X120950000Y-56350000D01*
X120950000Y-57150000D02*
X120050000Y-57150000D01*
D13*
X169800000Y-63430000D02*
X169800000Y-60380000D01*
X172750000Y-63430000D02*
X169800000Y-63430000D01*
X172750000Y-64180000D02*
X172750000Y-63430000D01*
X169800000Y-57330000D02*
X169800000Y-60380000D01*
X172750000Y-57330000D02*
X169800000Y-57330000D01*
X172750000Y-56580000D02*
X172750000Y-57330000D01*
X175000000Y-64180000D02*
X175000000Y-62380000D01*
X174250000Y-64180000D02*
X175000000Y-64180000D01*
X174250000Y-62380000D02*
X174250000Y-64180000D01*
X175000000Y-62380000D02*
X174250000Y-62380000D01*
X175000000Y-58380000D02*
X175000000Y-56580000D01*
X174250000Y-58380000D02*
X175000000Y-58380000D01*
X174250000Y-56580000D02*
X174250000Y-58380000D01*
X175000000Y-56580000D02*
X174250000Y-56580000D01*
X175000000Y-60880000D02*
X175000000Y-59880000D01*
X174250000Y-60880000D02*
X175000000Y-60880000D01*
X174250000Y-59880000D02*
X174250000Y-60880000D01*
X175000000Y-59880000D02*
X174250000Y-59880000D01*
X175010000Y-64190000D02*
X175010000Y-56570000D01*
X169040000Y-64190000D02*
X175010000Y-64190000D01*
X169040000Y-56570000D02*
X169040000Y-64190000D01*
X175010000Y-56570000D02*
X169040000Y-56570000D01*
X169800000Y-79430000D02*
X169800000Y-76380000D01*
X172750000Y-79430000D02*
X169800000Y-79430000D01*
X172750000Y-80180000D02*
X172750000Y-79430000D01*
X169800000Y-73330000D02*
X169800000Y-76380000D01*
X172750000Y-73330000D02*
X169800000Y-73330000D01*
X172750000Y-72580000D02*
X172750000Y-73330000D01*
X175000000Y-80180000D02*
X175000000Y-78380000D01*
X174250000Y-80180000D02*
X175000000Y-80180000D01*
X174250000Y-78380000D02*
X174250000Y-80180000D01*
X175000000Y-78380000D02*
X174250000Y-78380000D01*
X175000000Y-74380000D02*
X175000000Y-72580000D01*
X174250000Y-74380000D02*
X175000000Y-74380000D01*
X174250000Y-72580000D02*
X174250000Y-74380000D01*
X175000000Y-72580000D02*
X174250000Y-72580000D01*
X175000000Y-76880000D02*
X175000000Y-75880000D01*
X174250000Y-76880000D02*
X175000000Y-76880000D01*
X174250000Y-75880000D02*
X174250000Y-76880000D01*
X175000000Y-75880000D02*
X174250000Y-75880000D01*
X175010000Y-80190000D02*
X175010000Y-72570000D01*
X169040000Y-80190000D02*
X175010000Y-80190000D01*
X169040000Y-72570000D02*
X169040000Y-80190000D01*
X175010000Y-72570000D02*
X169040000Y-72570000D01*
X169800000Y-71430000D02*
X169800000Y-68380000D01*
X172750000Y-71430000D02*
X169800000Y-71430000D01*
X172750000Y-72180000D02*
X172750000Y-71430000D01*
X169800000Y-65330000D02*
X169800000Y-68380000D01*
X172750000Y-65330000D02*
X169800000Y-65330000D01*
X172750000Y-64580000D02*
X172750000Y-65330000D01*
X175000000Y-72180000D02*
X175000000Y-70380000D01*
X174250000Y-72180000D02*
X175000000Y-72180000D01*
X174250000Y-70380000D02*
X174250000Y-72180000D01*
X175000000Y-70380000D02*
X174250000Y-70380000D01*
X175000000Y-66380000D02*
X175000000Y-64580000D01*
X174250000Y-66380000D02*
X175000000Y-66380000D01*
X174250000Y-64580000D02*
X174250000Y-66380000D01*
X175000000Y-64580000D02*
X174250000Y-64580000D01*
X175000000Y-68880000D02*
X175000000Y-67880000D01*
X174250000Y-68880000D02*
X175000000Y-68880000D01*
X174250000Y-67880000D02*
X174250000Y-68880000D01*
X175000000Y-67880000D02*
X174250000Y-67880000D01*
X175010000Y-72190000D02*
X175010000Y-64570000D01*
X169040000Y-72190000D02*
X175010000Y-72190000D01*
X169040000Y-64570000D02*
X169040000Y-72190000D01*
X175010000Y-64570000D02*
X169040000Y-64570000D01*
D10*
X102489000Y-83820000D02*
X102489000Y-96520000D01*
X100004000Y-83820000D02*
X112704000Y-83820000D01*
X112704000Y-96520000D02*
X100004000Y-96520000D01*
X100004000Y-96520000D02*
X100004000Y-83820000D01*
X112704000Y-83820000D02*
X112704000Y-96520000D01*
X163880809Y-82099095D02*
X163804619Y-82061000D01*
X163728428Y-81984809D01*
X163614142Y-81870523D01*
X163537952Y-81832428D01*
X163461761Y-81832428D01*
X163499857Y-82022904D02*
X163423666Y-81984809D01*
X163347476Y-81908619D01*
X163309380Y-81756238D01*
X163309380Y-81489571D01*
X163347476Y-81337190D01*
X163423666Y-81261000D01*
X163499857Y-81222904D01*
X163652238Y-81222904D01*
X163728428Y-81261000D01*
X163804619Y-81337190D01*
X163842714Y-81489571D01*
X163842714Y-81756238D01*
X163804619Y-81908619D01*
X163728428Y-81984809D01*
X163652238Y-82022904D01*
X163499857Y-82022904D01*
X164147476Y-81299095D02*
X164185571Y-81261000D01*
X164261761Y-81222904D01*
X164452238Y-81222904D01*
X164528428Y-81261000D01*
X164566523Y-81299095D01*
X164604619Y-81375285D01*
X164604619Y-81451476D01*
X164566523Y-81565761D01*
X164109380Y-82022904D01*
X164604619Y-82022904D01*
D11*
X116763095Y-54477380D02*
X116763095Y-55286904D01*
X116810714Y-55382142D01*
X116858333Y-55429761D01*
X116953571Y-55477380D01*
X117144047Y-55477380D01*
X117239285Y-55429761D01*
X117286904Y-55382142D01*
X117334523Y-55286904D01*
X117334523Y-54477380D01*
X118239285Y-54810714D02*
X118239285Y-55477380D01*
X118001190Y-54429761D02*
X117763095Y-55144047D01*
X118382142Y-55144047D01*
X125463095Y-54477380D02*
X125463095Y-55286904D01*
X125510714Y-55382142D01*
X125558333Y-55429761D01*
X125653571Y-55477380D01*
X125844047Y-55477380D01*
X125939285Y-55429761D01*
X125986904Y-55382142D01*
X126034523Y-55286904D01*
X126034523Y-54477380D01*
X126415476Y-54477380D02*
X127034523Y-54477380D01*
X126701190Y-54858333D01*
X126844047Y-54858333D01*
X126939285Y-54905952D01*
X126986904Y-54953571D01*
X127034523Y-55048809D01*
X127034523Y-55286904D01*
X126986904Y-55382142D01*
X126939285Y-55429761D01*
X126844047Y-55477380D01*
X126558333Y-55477380D01*
X126463095Y-55429761D01*
X126415476Y-55382142D01*
X125663095Y-81077380D02*
X125663095Y-81886904D01*
X125710714Y-81982142D01*
X125758333Y-82029761D01*
X125853571Y-82077380D01*
X126044047Y-82077380D01*
X126139285Y-82029761D01*
X126186904Y-81982142D01*
X126234523Y-81886904D01*
X126234523Y-81077380D01*
X127234523Y-82077380D02*
X126663095Y-82077380D01*
X126948809Y-82077380D02*
X126948809Y-81077380D01*
X126853571Y-81220238D01*
X126758333Y-81315476D01*
X126663095Y-81363095D01*
D10*
X146561904Y-66322619D02*
X147133333Y-66322619D01*
X147247619Y-66360714D01*
X147323809Y-66436904D01*
X147361904Y-66551190D01*
X147361904Y-66627380D01*
X147361904Y-65522619D02*
X147361904Y-65979761D01*
X147361904Y-65751190D02*
X146561904Y-65751190D01*
X146676190Y-65827380D01*
X146752380Y-65903571D01*
X146790476Y-65979761D01*
X146904761Y-65065476D02*
X146866666Y-65141666D01*
X146828571Y-65179761D01*
X146752380Y-65217857D01*
X146714285Y-65217857D01*
X146638095Y-65179761D01*
X146600000Y-65141666D01*
X146561904Y-65065476D01*
X146561904Y-64913095D01*
X146600000Y-64836904D01*
X146638095Y-64798809D01*
X146714285Y-64760714D01*
X146752380Y-64760714D01*
X146828571Y-64798809D01*
X146866666Y-64836904D01*
X146904761Y-64913095D01*
X146904761Y-65065476D01*
X146942857Y-65141666D01*
X146980952Y-65179761D01*
X147057142Y-65217857D01*
X147209523Y-65217857D01*
X147285714Y-65179761D01*
X147323809Y-65141666D01*
X147361904Y-65065476D01*
X147361904Y-64913095D01*
X147323809Y-64836904D01*
X147285714Y-64798809D01*
X147209523Y-64760714D01*
X147057142Y-64760714D01*
X146980952Y-64798809D01*
X146942857Y-64836904D01*
X146904761Y-64913095D01*
D11*
X148048809Y-95477380D02*
X148048809Y-94477380D01*
X149096428Y-95382142D02*
X149048809Y-95429761D01*
X148905952Y-95477380D01*
X148810714Y-95477380D01*
X148667857Y-95429761D01*
X148572619Y-95334523D01*
X148525000Y-95239285D01*
X148477380Y-95048809D01*
X148477380Y-94905952D01*
X148525000Y-94715476D01*
X148572619Y-94620238D01*
X148667857Y-94525000D01*
X148810714Y-94477380D01*
X148905952Y-94477380D01*
X149048809Y-94525000D01*
X149096428Y-94572619D01*
X149429761Y-94477380D02*
X150048809Y-94477380D01*
X149715476Y-94858333D01*
X149858333Y-94858333D01*
X149953571Y-94905952D01*
X150001190Y-94953571D01*
X150048809Y-95048809D01*
X150048809Y-95286904D01*
X150001190Y-95382142D01*
X149953571Y-95429761D01*
X149858333Y-95477380D01*
X149572619Y-95477380D01*
X149477380Y-95429761D01*
X149429761Y-95382142D01*
X125652380Y-71373904D02*
X126461904Y-71373904D01*
X126557142Y-71326285D01*
X126604761Y-71278666D01*
X126652380Y-71183428D01*
X126652380Y-70992952D01*
X126604761Y-70897714D01*
X126557142Y-70850095D01*
X126461904Y-70802476D01*
X125652380Y-70802476D01*
X125747619Y-70373904D02*
X125700000Y-70326285D01*
X125652380Y-70231047D01*
X125652380Y-69992952D01*
X125700000Y-69897714D01*
X125747619Y-69850095D01*
X125842857Y-69802476D01*
X125938095Y-69802476D01*
X126080952Y-69850095D01*
X126652380Y-70421523D01*
X126652380Y-69802476D01*
D10*
X116036904Y-74909523D02*
X116684523Y-74909523D01*
X116760714Y-74871428D01*
X116798809Y-74833333D01*
X116836904Y-74757142D01*
X116836904Y-74604761D01*
X116798809Y-74528571D01*
X116760714Y-74490476D01*
X116684523Y-74452380D01*
X116036904Y-74452380D01*
X116036904Y-73728571D02*
X116036904Y-73880952D01*
X116075000Y-73957142D01*
X116113095Y-73995238D01*
X116227380Y-74071428D01*
X116379761Y-74109523D01*
X116684523Y-74109523D01*
X116760714Y-74071428D01*
X116798809Y-74033333D01*
X116836904Y-73957142D01*
X116836904Y-73804761D01*
X116798809Y-73728571D01*
X116760714Y-73690476D01*
X116684523Y-73652380D01*
X116494047Y-73652380D01*
X116417857Y-73690476D01*
X116379761Y-73728571D01*
X116341666Y-73804761D01*
X116341666Y-73957142D01*
X116379761Y-74033333D01*
X116417857Y-74071428D01*
X116494047Y-74109523D01*
D11*
X111307142Y-54492857D02*
X111354761Y-54540476D01*
X111402380Y-54683333D01*
X111402380Y-54778571D01*
X111354761Y-54921428D01*
X111259523Y-55016666D01*
X111164285Y-55064285D01*
X110973809Y-55111904D01*
X110830952Y-55111904D01*
X110640476Y-55064285D01*
X110545238Y-55016666D01*
X110450000Y-54921428D01*
X110402380Y-54778571D01*
X110402380Y-54683333D01*
X110450000Y-54540476D01*
X110497619Y-54492857D01*
X110402380Y-53588095D02*
X110402380Y-54064285D01*
X110878571Y-54111904D01*
X110830952Y-54064285D01*
X110783333Y-53969047D01*
X110783333Y-53730952D01*
X110830952Y-53635714D01*
X110878571Y-53588095D01*
X110973809Y-53540476D01*
X111211904Y-53540476D01*
X111307142Y-53588095D01*
X111354761Y-53635714D01*
X111402380Y-53730952D01*
X111402380Y-53969047D01*
X111354761Y-54064285D01*
X111307142Y-54111904D01*
X110402380Y-53207142D02*
X110402380Y-52588095D01*
X110783333Y-52921428D01*
X110783333Y-52778571D01*
X110830952Y-52683333D01*
X110878571Y-52635714D01*
X110973809Y-52588095D01*
X111211904Y-52588095D01*
X111307142Y-52635714D01*
X111354761Y-52683333D01*
X111402380Y-52778571D01*
X111402380Y-53064285D01*
X111354761Y-53159523D01*
X111307142Y-53207142D01*
D10*
X133911904Y-66322619D02*
X134483333Y-66322619D01*
X134597619Y-66360714D01*
X134673809Y-66436904D01*
X134711904Y-66551190D01*
X134711904Y-66627380D01*
X133988095Y-65979761D02*
X133950000Y-65941666D01*
X133911904Y-65865476D01*
X133911904Y-65675000D01*
X133950000Y-65598809D01*
X133988095Y-65560714D01*
X134064285Y-65522619D01*
X134140476Y-65522619D01*
X134254761Y-65560714D01*
X134711904Y-66017857D01*
X134711904Y-65522619D01*
X133911904Y-65255952D02*
X133911904Y-64760714D01*
X134216666Y-65027380D01*
X134216666Y-64913095D01*
X134254761Y-64836904D01*
X134292857Y-64798809D01*
X134369047Y-64760714D01*
X134559523Y-64760714D01*
X134635714Y-64798809D01*
X134673809Y-64836904D01*
X134711904Y-64913095D01*
X134711904Y-65141666D01*
X134673809Y-65217857D01*
X134635714Y-65255952D01*
X164486904Y-55672619D02*
X165058333Y-55672619D01*
X165172619Y-55710714D01*
X165248809Y-55786904D01*
X165286904Y-55901190D01*
X165286904Y-55977380D01*
X164563095Y-55329761D02*
X164525000Y-55291666D01*
X164486904Y-55215476D01*
X164486904Y-55025000D01*
X164525000Y-54948809D01*
X164563095Y-54910714D01*
X164639285Y-54872619D01*
X164715476Y-54872619D01*
X164829761Y-54910714D01*
X165286904Y-55367857D01*
X165286904Y-54872619D01*
X164563095Y-54567857D02*
X164525000Y-54529761D01*
X164486904Y-54453571D01*
X164486904Y-54263095D01*
X164525000Y-54186904D01*
X164563095Y-54148809D01*
X164639285Y-54110714D01*
X164715476Y-54110714D01*
X164829761Y-54148809D01*
X165286904Y-54605952D01*
X165286904Y-54110714D01*
X159211904Y-66322619D02*
X159783333Y-66322619D01*
X159897619Y-66360714D01*
X159973809Y-66436904D01*
X160011904Y-66551190D01*
X160011904Y-66627380D01*
X159288095Y-65979761D02*
X159250000Y-65941666D01*
X159211904Y-65865476D01*
X159211904Y-65675000D01*
X159250000Y-65598809D01*
X159288095Y-65560714D01*
X159364285Y-65522619D01*
X159440476Y-65522619D01*
X159554761Y-65560714D01*
X160011904Y-66017857D01*
X160011904Y-65522619D01*
X160011904Y-64760714D02*
X160011904Y-65217857D01*
X160011904Y-64989285D02*
X159211904Y-64989285D01*
X159326190Y-65065476D01*
X159402380Y-65141666D01*
X159440476Y-65217857D01*
X165536904Y-66322619D02*
X166108333Y-66322619D01*
X166222619Y-66360714D01*
X166298809Y-66436904D01*
X166336904Y-66551190D01*
X166336904Y-66627380D01*
X165613095Y-65979761D02*
X165575000Y-65941666D01*
X165536904Y-65865476D01*
X165536904Y-65675000D01*
X165575000Y-65598809D01*
X165613095Y-65560714D01*
X165689285Y-65522619D01*
X165765476Y-65522619D01*
X165879761Y-65560714D01*
X166336904Y-66017857D01*
X166336904Y-65522619D01*
X165536904Y-65027380D02*
X165536904Y-64951190D01*
X165575000Y-64875000D01*
X165613095Y-64836904D01*
X165689285Y-64798809D01*
X165841666Y-64760714D01*
X166032142Y-64760714D01*
X166184523Y-64798809D01*
X166260714Y-64836904D01*
X166298809Y-64875000D01*
X166336904Y-64951190D01*
X166336904Y-65027380D01*
X166298809Y-65103571D01*
X166260714Y-65141666D01*
X166184523Y-65179761D01*
X166032142Y-65217857D01*
X165841666Y-65217857D01*
X165689285Y-65179761D01*
X165613095Y-65141666D01*
X165575000Y-65103571D01*
X165536904Y-65027380D01*
X152886904Y-66322619D02*
X153458333Y-66322619D01*
X153572619Y-66360714D01*
X153648809Y-66436904D01*
X153686904Y-66551190D01*
X153686904Y-66627380D01*
X153686904Y-65522619D02*
X153686904Y-65979761D01*
X153686904Y-65751190D02*
X152886904Y-65751190D01*
X153001190Y-65827380D01*
X153077380Y-65903571D01*
X153115476Y-65979761D01*
X153686904Y-65141666D02*
X153686904Y-64989285D01*
X153648809Y-64913095D01*
X153610714Y-64875000D01*
X153496428Y-64798809D01*
X153344047Y-64760714D01*
X153039285Y-64760714D01*
X152963095Y-64798809D01*
X152925000Y-64836904D01*
X152886904Y-64913095D01*
X152886904Y-65065476D01*
X152925000Y-65141666D01*
X152963095Y-65179761D01*
X153039285Y-65217857D01*
X153229761Y-65217857D01*
X153305952Y-65179761D01*
X153344047Y-65141666D01*
X153382142Y-65065476D01*
X153382142Y-64913095D01*
X153344047Y-64836904D01*
X153305952Y-64798809D01*
X153229761Y-64760714D01*
X140236904Y-66322619D02*
X140808333Y-66322619D01*
X140922619Y-66360714D01*
X140998809Y-66436904D01*
X141036904Y-66551190D01*
X141036904Y-66627380D01*
X141036904Y-65522619D02*
X141036904Y-65979761D01*
X141036904Y-65751190D02*
X140236904Y-65751190D01*
X140351190Y-65827380D01*
X140427380Y-65903571D01*
X140465476Y-65979761D01*
X140236904Y-65255952D02*
X140236904Y-64722619D01*
X141036904Y-65065476D01*
X158161904Y-55672619D02*
X158733333Y-55672619D01*
X158847619Y-55710714D01*
X158923809Y-55786904D01*
X158961904Y-55901190D01*
X158961904Y-55977380D01*
X158961904Y-54872619D02*
X158961904Y-55329761D01*
X158961904Y-55101190D02*
X158161904Y-55101190D01*
X158276190Y-55177380D01*
X158352380Y-55253571D01*
X158390476Y-55329761D01*
X158161904Y-54186904D02*
X158161904Y-54339285D01*
X158200000Y-54415476D01*
X158238095Y-54453571D01*
X158352380Y-54529761D01*
X158504761Y-54567857D01*
X158809523Y-54567857D01*
X158885714Y-54529761D01*
X158923809Y-54491666D01*
X158961904Y-54415476D01*
X158961904Y-54263095D01*
X158923809Y-54186904D01*
X158885714Y-54148809D01*
X158809523Y-54110714D01*
X158619047Y-54110714D01*
X158542857Y-54148809D01*
X158504761Y-54186904D01*
X158466666Y-54263095D01*
X158466666Y-54415476D01*
X158504761Y-54491666D01*
X158542857Y-54529761D01*
X158619047Y-54567857D01*
X151836904Y-55672619D02*
X152408333Y-55672619D01*
X152522619Y-55710714D01*
X152598809Y-55786904D01*
X152636904Y-55901190D01*
X152636904Y-55977380D01*
X152636904Y-54872619D02*
X152636904Y-55329761D01*
X152636904Y-55101190D02*
X151836904Y-55101190D01*
X151951190Y-55177380D01*
X152027380Y-55253571D01*
X152065476Y-55329761D01*
X151836904Y-54148809D02*
X151836904Y-54529761D01*
X152217857Y-54567857D01*
X152179761Y-54529761D01*
X152141666Y-54453571D01*
X152141666Y-54263095D01*
X152179761Y-54186904D01*
X152217857Y-54148809D01*
X152294047Y-54110714D01*
X152484523Y-54110714D01*
X152560714Y-54148809D01*
X152598809Y-54186904D01*
X152636904Y-54263095D01*
X152636904Y-54453571D01*
X152598809Y-54529761D01*
X152560714Y-54567857D01*
X145511904Y-55672619D02*
X146083333Y-55672619D01*
X146197619Y-55710714D01*
X146273809Y-55786904D01*
X146311904Y-55901190D01*
X146311904Y-55977380D01*
X146311904Y-54872619D02*
X146311904Y-55329761D01*
X146311904Y-55101190D02*
X145511904Y-55101190D01*
X145626190Y-55177380D01*
X145702380Y-55253571D01*
X145740476Y-55329761D01*
X145778571Y-54186904D02*
X146311904Y-54186904D01*
X145473809Y-54377380D02*
X146045238Y-54567857D01*
X146045238Y-54072619D01*
X139186904Y-55672619D02*
X139758333Y-55672619D01*
X139872619Y-55710714D01*
X139948809Y-55786904D01*
X139986904Y-55901190D01*
X139986904Y-55977380D01*
X139986904Y-54872619D02*
X139986904Y-55329761D01*
X139986904Y-55101190D02*
X139186904Y-55101190D01*
X139301190Y-55177380D01*
X139377380Y-55253571D01*
X139415476Y-55329761D01*
X139186904Y-54605952D02*
X139186904Y-54110714D01*
X139491666Y-54377380D01*
X139491666Y-54263095D01*
X139529761Y-54186904D01*
X139567857Y-54148809D01*
X139644047Y-54110714D01*
X139834523Y-54110714D01*
X139910714Y-54148809D01*
X139948809Y-54186904D01*
X139986904Y-54263095D01*
X139986904Y-54491666D01*
X139948809Y-54567857D01*
X139910714Y-54605952D01*
X132861904Y-55672619D02*
X133433333Y-55672619D01*
X133547619Y-55710714D01*
X133623809Y-55786904D01*
X133661904Y-55901190D01*
X133661904Y-55977380D01*
X133661904Y-54872619D02*
X133661904Y-55329761D01*
X133661904Y-55101190D02*
X132861904Y-55101190D01*
X132976190Y-55177380D01*
X133052380Y-55253571D01*
X133090476Y-55329761D01*
X132938095Y-54567857D02*
X132900000Y-54529761D01*
X132861904Y-54453571D01*
X132861904Y-54263095D01*
X132900000Y-54186904D01*
X132938095Y-54148809D01*
X133014285Y-54110714D01*
X133090476Y-54110714D01*
X133204761Y-54148809D01*
X133661904Y-54605952D01*
X133661904Y-54110714D01*
X100780904Y-71767619D02*
X101352333Y-71767619D01*
X101466619Y-71805714D01*
X101542809Y-71881904D01*
X101580904Y-71996190D01*
X101580904Y-72072380D01*
X101580904Y-70967619D02*
X101580904Y-71424761D01*
X101580904Y-71196190D02*
X100780904Y-71196190D01*
X100895190Y-71272380D01*
X100971380Y-71348571D01*
X101009476Y-71424761D01*
X101580904Y-70205714D02*
X101580904Y-70662857D01*
X101580904Y-70434285D02*
X100780904Y-70434285D01*
X100895190Y-70510476D01*
X100971380Y-70586666D01*
X101009476Y-70662857D01*
D11*
X115757142Y-86582142D02*
X115709523Y-86629761D01*
X115566666Y-86677380D01*
X115471428Y-86677380D01*
X115328571Y-86629761D01*
X115233333Y-86534523D01*
X115185714Y-86439285D01*
X115138095Y-86248809D01*
X115138095Y-86105952D01*
X115185714Y-85915476D01*
X115233333Y-85820238D01*
X115328571Y-85725000D01*
X115471428Y-85677380D01*
X115566666Y-85677380D01*
X115709523Y-85725000D01*
X115757142Y-85772619D01*
X116709523Y-86677380D02*
X116138095Y-86677380D01*
X116423809Y-86677380D02*
X116423809Y-85677380D01*
X116328571Y-85820238D01*
X116233333Y-85915476D01*
X116138095Y-85963095D01*
X117042857Y-85677380D02*
X117709523Y-85677380D01*
X117280952Y-86677380D01*
D10*
X148758333Y-99986904D02*
X148758333Y-100558333D01*
X148720238Y-100672619D01*
X148644047Y-100748809D01*
X148529761Y-100786904D01*
X148453571Y-100786904D01*
X149177380Y-100786904D02*
X149329761Y-100786904D01*
X149405952Y-100748809D01*
X149444047Y-100710714D01*
X149520238Y-100596428D01*
X149558333Y-100444047D01*
X149558333Y-100139285D01*
X149520238Y-100063095D01*
X149482142Y-100025000D01*
X149405952Y-99986904D01*
X149253571Y-99986904D01*
X149177380Y-100025000D01*
X149139285Y-100063095D01*
X149101190Y-100139285D01*
X149101190Y-100329761D01*
X149139285Y-100405952D01*
X149177380Y-100444047D01*
X149253571Y-100482142D01*
X149405952Y-100482142D01*
X149482142Y-100444047D01*
X149520238Y-100405952D01*
X149558333Y-100329761D01*
X135758333Y-99986904D02*
X135758333Y-100558333D01*
X135720238Y-100672619D01*
X135644047Y-100748809D01*
X135529761Y-100786904D01*
X135453571Y-100786904D01*
X136253571Y-100329761D02*
X136177380Y-100291666D01*
X136139285Y-100253571D01*
X136101190Y-100177380D01*
X136101190Y-100139285D01*
X136139285Y-100063095D01*
X136177380Y-100025000D01*
X136253571Y-99986904D01*
X136405952Y-99986904D01*
X136482142Y-100025000D01*
X136520238Y-100063095D01*
X136558333Y-100139285D01*
X136558333Y-100177380D01*
X136520238Y-100253571D01*
X136482142Y-100291666D01*
X136405952Y-100329761D01*
X136253571Y-100329761D01*
X136177380Y-100367857D01*
X136139285Y-100405952D01*
X136101190Y-100482142D01*
X136101190Y-100634523D01*
X136139285Y-100710714D01*
X136177380Y-100748809D01*
X136253571Y-100786904D01*
X136405952Y-100786904D01*
X136482142Y-100748809D01*
X136520238Y-100710714D01*
X136558333Y-100634523D01*
X136558333Y-100482142D01*
X136520238Y-100405952D01*
X136482142Y-100367857D01*
X136405952Y-100329761D01*
X122758333Y-100011904D02*
X122758333Y-100583333D01*
X122720238Y-100697619D01*
X122644047Y-100773809D01*
X122529761Y-100811904D01*
X122453571Y-100811904D01*
X123063095Y-100011904D02*
X123596428Y-100011904D01*
X123253571Y-100811904D01*
D11*
X135048809Y-95477380D02*
X135048809Y-94477380D01*
X136096428Y-95382142D02*
X136048809Y-95429761D01*
X135905952Y-95477380D01*
X135810714Y-95477380D01*
X135667857Y-95429761D01*
X135572619Y-95334523D01*
X135525000Y-95239285D01*
X135477380Y-95048809D01*
X135477380Y-94905952D01*
X135525000Y-94715476D01*
X135572619Y-94620238D01*
X135667857Y-94525000D01*
X135810714Y-94477380D01*
X135905952Y-94477380D01*
X136048809Y-94525000D01*
X136096428Y-94572619D01*
X136477380Y-94572619D02*
X136525000Y-94525000D01*
X136620238Y-94477380D01*
X136858333Y-94477380D01*
X136953571Y-94525000D01*
X137001190Y-94572619D01*
X137048809Y-94667857D01*
X137048809Y-94763095D01*
X137001190Y-94905952D01*
X136429761Y-95477380D01*
X137048809Y-95477380D01*
X122048809Y-95477380D02*
X122048809Y-94477380D01*
X123096428Y-95382142D02*
X123048809Y-95429761D01*
X122905952Y-95477380D01*
X122810714Y-95477380D01*
X122667857Y-95429761D01*
X122572619Y-95334523D01*
X122525000Y-95239285D01*
X122477380Y-95048809D01*
X122477380Y-94905952D01*
X122525000Y-94715476D01*
X122572619Y-94620238D01*
X122667857Y-94525000D01*
X122810714Y-94477380D01*
X122905952Y-94477380D01*
X123048809Y-94525000D01*
X123096428Y-94572619D01*
X124048809Y-95477380D02*
X123477380Y-95477380D01*
X123763095Y-95477380D02*
X123763095Y-94477380D01*
X123667857Y-94620238D01*
X123572619Y-94715476D01*
X123477380Y-94763095D01*
D10*
X162585476Y-86683904D02*
X162585476Y-87331523D01*
X162623571Y-87407714D01*
X162661666Y-87445809D01*
X162737857Y-87483904D01*
X162890238Y-87483904D01*
X162966428Y-87445809D01*
X163004523Y-87407714D01*
X163042619Y-87331523D01*
X163042619Y-86683904D01*
X163804523Y-86683904D02*
X163423571Y-86683904D01*
X163385476Y-87064857D01*
X163423571Y-87026761D01*
X163499761Y-86988666D01*
X163690238Y-86988666D01*
X163766428Y-87026761D01*
X163804523Y-87064857D01*
X163842619Y-87141047D01*
X163842619Y-87331523D01*
X163804523Y-87407714D01*
X163766428Y-87445809D01*
X163690238Y-87483904D01*
X163499761Y-87483904D01*
X163423571Y-87445809D01*
X163385476Y-87407714D01*
X126586904Y-61283333D02*
X126586904Y-61664285D01*
X125786904Y-61664285D01*
X125863095Y-61054761D02*
X125825000Y-61016666D01*
X125786904Y-60940476D01*
X125786904Y-60750000D01*
X125825000Y-60673809D01*
X125863095Y-60635714D01*
X125939285Y-60597619D01*
X126015476Y-60597619D01*
X126129761Y-60635714D01*
X126586904Y-61092857D01*
X126586904Y-60597619D01*
X170061904Y-95297619D02*
X170633333Y-95297619D01*
X170747619Y-95335714D01*
X170823809Y-95411904D01*
X170861904Y-95526190D01*
X170861904Y-95602380D01*
X170061904Y-94573809D02*
X170061904Y-94726190D01*
X170100000Y-94802380D01*
X170138095Y-94840476D01*
X170252380Y-94916666D01*
X170404761Y-94954761D01*
X170709523Y-94954761D01*
X170785714Y-94916666D01*
X170823809Y-94878571D01*
X170861904Y-94802380D01*
X170861904Y-94650000D01*
X170823809Y-94573809D01*
X170785714Y-94535714D01*
X170709523Y-94497619D01*
X170519047Y-94497619D01*
X170442857Y-94535714D01*
X170404761Y-94573809D01*
X170366666Y-94650000D01*
X170366666Y-94802380D01*
X170404761Y-94878571D01*
X170442857Y-94916666D01*
X170519047Y-94954761D01*
X170138095Y-94192857D02*
X170100000Y-94154761D01*
X170061904Y-94078571D01*
X170061904Y-93888095D01*
X170100000Y-93811904D01*
X170138095Y-93773809D01*
X170214285Y-93735714D01*
X170290476Y-93735714D01*
X170404761Y-93773809D01*
X170861904Y-94230952D01*
X170861904Y-93735714D01*
D11*
X170102380Y-86109523D02*
X170816666Y-86109523D01*
X170959523Y-86157142D01*
X171054761Y-86252380D01*
X171102380Y-86395238D01*
X171102380Y-86490476D01*
X170102380Y-85204761D02*
X170102380Y-85395238D01*
X170150000Y-85490476D01*
X170197619Y-85538095D01*
X170340476Y-85633333D01*
X170530952Y-85680952D01*
X170911904Y-85680952D01*
X171007142Y-85633333D01*
X171054761Y-85585714D01*
X171102380Y-85490476D01*
X171102380Y-85300000D01*
X171054761Y-85204761D01*
X171007142Y-85157142D01*
X170911904Y-85109523D01*
X170673809Y-85109523D01*
X170578571Y-85157142D01*
X170530952Y-85204761D01*
X170483333Y-85300000D01*
X170483333Y-85490476D01*
X170530952Y-85585714D01*
X170578571Y-85633333D01*
X170673809Y-85680952D01*
X170102380Y-84490476D02*
X170102380Y-84395238D01*
X170150000Y-84300000D01*
X170197619Y-84252380D01*
X170292857Y-84204761D01*
X170483333Y-84157142D01*
X170721428Y-84157142D01*
X170911904Y-84204761D01*
X171007142Y-84252380D01*
X171054761Y-84300000D01*
X171102380Y-84395238D01*
X171102380Y-84490476D01*
X171054761Y-84585714D01*
X171007142Y-84633333D01*
X170911904Y-84680952D01*
X170721428Y-84728571D01*
X170483333Y-84728571D01*
X170292857Y-84680952D01*
X170197619Y-84633333D01*
X170150000Y-84585714D01*
X170102380Y-84490476D01*
X111307142Y-102219047D02*
X111354761Y-102266666D01*
X111402380Y-102409523D01*
X111402380Y-102504761D01*
X111354761Y-102647619D01*
X111259523Y-102742857D01*
X111164285Y-102790476D01*
X110973809Y-102838095D01*
X110830952Y-102838095D01*
X110640476Y-102790476D01*
X110545238Y-102742857D01*
X110450000Y-102647619D01*
X110402380Y-102504761D01*
X110402380Y-102409523D01*
X110450000Y-102266666D01*
X110497619Y-102219047D01*
X111402380Y-101266666D02*
X111402380Y-101838095D01*
X111402380Y-101552380D02*
X110402380Y-101552380D01*
X110545238Y-101647619D01*
X110640476Y-101742857D01*
X110688095Y-101838095D01*
X111402380Y-100790476D02*
X111402380Y-100600000D01*
X111354761Y-100504761D01*
X111307142Y-100457142D01*
X111164285Y-100361904D01*
X110973809Y-100314285D01*
X110592857Y-100314285D01*
X110497619Y-100361904D01*
X110450000Y-100409523D01*
X110402380Y-100504761D01*
X110402380Y-100695238D01*
X110450000Y-100790476D01*
X110497619Y-100838095D01*
X110592857Y-100885714D01*
X110830952Y-100885714D01*
X110926190Y-100838095D01*
X110973809Y-100790476D01*
X111021428Y-100695238D01*
X111021428Y-100504761D01*
X110973809Y-100409523D01*
X110926190Y-100361904D01*
X110830952Y-100314285D01*
X110402380Y-99980952D02*
X110402380Y-99361904D01*
X110783333Y-99695238D01*
X110783333Y-99552380D01*
X110830952Y-99457142D01*
X110878571Y-99409523D01*
X110973809Y-99361904D01*
X111211904Y-99361904D01*
X111307142Y-99409523D01*
X111354761Y-99457142D01*
X111402380Y-99552380D01*
X111402380Y-99838095D01*
X111354761Y-99933333D01*
X111307142Y-99980952D01*
X161048809Y-95477380D02*
X161048809Y-94477380D01*
X162096428Y-95382142D02*
X162048809Y-95429761D01*
X161905952Y-95477380D01*
X161810714Y-95477380D01*
X161667857Y-95429761D01*
X161572619Y-95334523D01*
X161525000Y-95239285D01*
X161477380Y-95048809D01*
X161477380Y-94905952D01*
X161525000Y-94715476D01*
X161572619Y-94620238D01*
X161667857Y-94525000D01*
X161810714Y-94477380D01*
X161905952Y-94477380D01*
X162048809Y-94525000D01*
X162096428Y-94572619D01*
X162953571Y-94810714D02*
X162953571Y-95477380D01*
X162715476Y-94429761D02*
X162477380Y-95144047D01*
X163096428Y-95144047D01*
D10*
X167861904Y-76189285D02*
X167861904Y-76570238D01*
X167061904Y-76570238D01*
X167823809Y-75960714D02*
X167861904Y-75846428D01*
X167861904Y-75655952D01*
X167823809Y-75579761D01*
X167785714Y-75541666D01*
X167709523Y-75503571D01*
X167633333Y-75503571D01*
X167557142Y-75541666D01*
X167519047Y-75579761D01*
X167480952Y-75655952D01*
X167442857Y-75808333D01*
X167404761Y-75884523D01*
X167366666Y-75922619D01*
X167290476Y-75960714D01*
X167214285Y-75960714D01*
X167138095Y-75922619D01*
X167100000Y-75884523D01*
X167061904Y-75808333D01*
X167061904Y-75617857D01*
X167100000Y-75503571D01*
X167861904Y-74741666D02*
X167861904Y-75198809D01*
X167861904Y-74970238D02*
X167061904Y-74970238D01*
X167176190Y-75046428D01*
X167252380Y-75122619D01*
X167290476Y-75198809D01*
X117886904Y-61283333D02*
X117886904Y-61664285D01*
X117086904Y-61664285D01*
X117086904Y-61092857D02*
X117086904Y-60597619D01*
X117391666Y-60864285D01*
X117391666Y-60750000D01*
X117429761Y-60673809D01*
X117467857Y-60635714D01*
X117544047Y-60597619D01*
X117734523Y-60597619D01*
X117810714Y-60635714D01*
X117848809Y-60673809D01*
X117886904Y-60750000D01*
X117886904Y-60978571D01*
X117848809Y-61054761D01*
X117810714Y-61092857D01*
X161377380Y-99986904D02*
X161377380Y-100558333D01*
X161339285Y-100672619D01*
X161263095Y-100748809D01*
X161148809Y-100786904D01*
X161072619Y-100786904D01*
X162177380Y-100786904D02*
X161720238Y-100786904D01*
X161948809Y-100786904D02*
X161948809Y-99986904D01*
X161872619Y-100101190D01*
X161796428Y-100177380D01*
X161720238Y-100215476D01*
X162672619Y-99986904D02*
X162748809Y-99986904D01*
X162825000Y-100025000D01*
X162863095Y-100063095D01*
X162901190Y-100139285D01*
X162939285Y-100291666D01*
X162939285Y-100482142D01*
X162901190Y-100634523D01*
X162863095Y-100710714D01*
X162825000Y-100748809D01*
X162748809Y-100786904D01*
X162672619Y-100786904D01*
X162596428Y-100748809D01*
X162558333Y-100710714D01*
X162520238Y-100634523D01*
X162482142Y-100482142D01*
X162482142Y-100291666D01*
X162520238Y-100139285D01*
X162558333Y-100063095D01*
X162596428Y-100025000D01*
X162672619Y-99986904D01*
X100780904Y-90817619D02*
X101352333Y-90817619D01*
X101466619Y-90855714D01*
X101542809Y-90931904D01*
X101580904Y-91046190D01*
X101580904Y-91122380D01*
X100780904Y-90512857D02*
X100780904Y-90017619D01*
X101085666Y-90284285D01*
X101085666Y-90170000D01*
X101123761Y-90093809D01*
X101161857Y-90055714D01*
X101238047Y-90017619D01*
X101428523Y-90017619D01*
X101504714Y-90055714D01*
X101542809Y-90093809D01*
X101580904Y-90170000D01*
X101580904Y-90398571D01*
X101542809Y-90474761D01*
X101504714Y-90512857D01*
X101580904Y-89636666D02*
X101580904Y-89484285D01*
X101542809Y-89408095D01*
X101504714Y-89370000D01*
X101390428Y-89293809D01*
X101238047Y-89255714D01*
X100933285Y-89255714D01*
X100857095Y-89293809D01*
X100819000Y-89331904D01*
X100780904Y-89408095D01*
X100780904Y-89560476D01*
X100819000Y-89636666D01*
X100857095Y-89674761D01*
X100933285Y-89712857D01*
X101123761Y-89712857D01*
X101199952Y-89674761D01*
X101238047Y-89636666D01*
X101276142Y-89560476D01*
X101276142Y-89408095D01*
X101238047Y-89331904D01*
X101199952Y-89293809D01*
X101123761Y-89255714D01*
M02*
