G04 EAGLE Gerber X2 export*
%TF.Part,Single*%
%TF.FileFunction,Legend,Top,1*%
%TF.FilePolarity,Positive*%
%TF.GenerationSoftware,Autodesk,EAGLE,9.0.1*%
%TF.CreationDate,2019-03-04T21:36:33Z*%
G75*
%MOIN*%
%FSLAX36Y36*%
%LPD*%
%AMOC8*
5,1,8,0,0,1.08239X$1,22.5*%
G01*
%ADD10C,0.006000*%
%ADD11C,0.003000*%
%ADD12R,0.005906X0.011811*%
%ADD13R,0.011811X0.011811*%
%ADD14C,0.008000*%
%ADD15C,0.005000*%


D10*
X303000Y153000D02*
X303000Y217000D01*
X303000Y188555D02*
X338555Y188555D01*
X338555Y217000D02*
X338555Y153000D01*
X678000Y153000D02*
X678000Y217000D01*
X699333Y181444D01*
X720667Y217000D01*
X720667Y153000D01*
X1374333Y153000D02*
X1374677Y153004D01*
X1375020Y153017D01*
X1375363Y153037D01*
X1375706Y153066D01*
X1376047Y153104D01*
X1376388Y153149D01*
X1376727Y153203D01*
X1377065Y153265D01*
X1377402Y153335D01*
X1377737Y153413D01*
X1378069Y153500D01*
X1378400Y153594D01*
X1378728Y153696D01*
X1379053Y153806D01*
X1379376Y153924D01*
X1379696Y154050D01*
X1380013Y154183D01*
X1380326Y154324D01*
X1380636Y154473D01*
X1380942Y154629D01*
X1381245Y154792D01*
X1381543Y154963D01*
X1381837Y155141D01*
X1382127Y155326D01*
X1382412Y155518D01*
X1382692Y155716D01*
X1382968Y155922D01*
X1383239Y156133D01*
X1383504Y156352D01*
X1383764Y156577D01*
X1384018Y156808D01*
X1384267Y157045D01*
X1384510Y157288D01*
X1384747Y157537D01*
X1384978Y157791D01*
X1385203Y158051D01*
X1385422Y158316D01*
X1385633Y158587D01*
X1385839Y158863D01*
X1386037Y159143D01*
X1386229Y159428D01*
X1386414Y159718D01*
X1386592Y160012D01*
X1386763Y160310D01*
X1386926Y160613D01*
X1387082Y160919D01*
X1387231Y161229D01*
X1387372Y161542D01*
X1387505Y161859D01*
X1387631Y162179D01*
X1387749Y162502D01*
X1387859Y162827D01*
X1387961Y163155D01*
X1388055Y163486D01*
X1388142Y163818D01*
X1388220Y164153D01*
X1388290Y164490D01*
X1388352Y164828D01*
X1388406Y165167D01*
X1388451Y165508D01*
X1388489Y165849D01*
X1388518Y166192D01*
X1388538Y166535D01*
X1388551Y166878D01*
X1388555Y167222D01*
X1374333Y153000D02*
X1373614Y153009D01*
X1372896Y153034D01*
X1372178Y153077D01*
X1371462Y153137D01*
X1370747Y153215D01*
X1370035Y153309D01*
X1369324Y153420D01*
X1368617Y153549D01*
X1367913Y153694D01*
X1367213Y153856D01*
X1366516Y154035D01*
X1365825Y154230D01*
X1365138Y154442D01*
X1364456Y154670D01*
X1363780Y154914D01*
X1363110Y155175D01*
X1362446Y155451D01*
X1361790Y155744D01*
X1361140Y156051D01*
X1360498Y156375D01*
X1359864Y156713D01*
X1359238Y157067D01*
X1358621Y157436D01*
X1358013Y157819D01*
X1357414Y158217D01*
X1356825Y158628D01*
X1356246Y159054D01*
X1355677Y159494D01*
X1355119Y159947D01*
X1354572Y160413D01*
X1354036Y160893D01*
X1353512Y161384D01*
X1353000Y161889D01*
X1354778Y202778D02*
X1354782Y203122D01*
X1354795Y203465D01*
X1354815Y203808D01*
X1354844Y204151D01*
X1354882Y204492D01*
X1354927Y204833D01*
X1354981Y205172D01*
X1355043Y205510D01*
X1355113Y205847D01*
X1355191Y206182D01*
X1355278Y206514D01*
X1355372Y206845D01*
X1355474Y207173D01*
X1355584Y207498D01*
X1355702Y207821D01*
X1355828Y208141D01*
X1355961Y208458D01*
X1356102Y208771D01*
X1356251Y209081D01*
X1356407Y209387D01*
X1356570Y209690D01*
X1356741Y209988D01*
X1356919Y210282D01*
X1357104Y210572D01*
X1357296Y210857D01*
X1357494Y211138D01*
X1357700Y211413D01*
X1357912Y211684D01*
X1358130Y211949D01*
X1358355Y212209D01*
X1358586Y212463D01*
X1358823Y212712D01*
X1359066Y212955D01*
X1359315Y213192D01*
X1359569Y213423D01*
X1359829Y213648D01*
X1360094Y213867D01*
X1360365Y214079D01*
X1360641Y214284D01*
X1360921Y214483D01*
X1361206Y214674D01*
X1361496Y214859D01*
X1361790Y215037D01*
X1362088Y215208D01*
X1362391Y215371D01*
X1362697Y215527D01*
X1363007Y215676D01*
X1363320Y215817D01*
X1363637Y215950D01*
X1363957Y216076D01*
X1364280Y216194D01*
X1364605Y216304D01*
X1364933Y216406D01*
X1365264Y216500D01*
X1365597Y216587D01*
X1365931Y216665D01*
X1366268Y216735D01*
X1366606Y216797D01*
X1366945Y216851D01*
X1367286Y216896D01*
X1367627Y216934D01*
X1367970Y216963D01*
X1368313Y216983D01*
X1368656Y216996D01*
X1369000Y217000D01*
X1369636Y216992D01*
X1370271Y216970D01*
X1370905Y216932D01*
X1371539Y216879D01*
X1372171Y216811D01*
X1372801Y216728D01*
X1373429Y216630D01*
X1374054Y216517D01*
X1374676Y216389D01*
X1375296Y216246D01*
X1375912Y216089D01*
X1376523Y215917D01*
X1377131Y215730D01*
X1377734Y215529D01*
X1378332Y215314D01*
X1378924Y215084D01*
X1379511Y214841D01*
X1380093Y214583D01*
X1380667Y214312D01*
X1381235Y214027D01*
X1381797Y213729D01*
X1382351Y213417D01*
X1382897Y213093D01*
X1383435Y212755D01*
X1383966Y212405D01*
X1384487Y212042D01*
X1385000Y211667D01*
X1361889Y190334D02*
X1361591Y190515D01*
X1361297Y190702D01*
X1361008Y190897D01*
X1360723Y191099D01*
X1360444Y191308D01*
X1360169Y191523D01*
X1359900Y191745D01*
X1359636Y191973D01*
X1359378Y192208D01*
X1359126Y192448D01*
X1358880Y192695D01*
X1358639Y192948D01*
X1358405Y193206D01*
X1358177Y193470D01*
X1357955Y193740D01*
X1357740Y194014D01*
X1357532Y194294D01*
X1357331Y194579D01*
X1357136Y194868D01*
X1356949Y195162D01*
X1356769Y195461D01*
X1356596Y195764D01*
X1356430Y196071D01*
X1356272Y196381D01*
X1356121Y196696D01*
X1355978Y197014D01*
X1355843Y197335D01*
X1355715Y197660D01*
X1355595Y197988D01*
X1355484Y198318D01*
X1355380Y198651D01*
X1355285Y198986D01*
X1355197Y199324D01*
X1355118Y199664D01*
X1355047Y200005D01*
X1354984Y200348D01*
X1354929Y200693D01*
X1354883Y201038D01*
X1354845Y201385D01*
X1354816Y201733D01*
X1354795Y202081D01*
X1354782Y202429D01*
X1354778Y202778D01*
X1381444Y179666D02*
X1381742Y179485D01*
X1382036Y179298D01*
X1382326Y179103D01*
X1382610Y178901D01*
X1382889Y178692D01*
X1383164Y178477D01*
X1383433Y178255D01*
X1383697Y178027D01*
X1383955Y177792D01*
X1384207Y177552D01*
X1384453Y177305D01*
X1384694Y177052D01*
X1384928Y176794D01*
X1385156Y176530D01*
X1385378Y176260D01*
X1385593Y175986D01*
X1385801Y175706D01*
X1386002Y175421D01*
X1386197Y175132D01*
X1386384Y174838D01*
X1386564Y174539D01*
X1386738Y174236D01*
X1386903Y173929D01*
X1387061Y173619D01*
X1387212Y173304D01*
X1387355Y172986D01*
X1387490Y172665D01*
X1387618Y172340D01*
X1387738Y172012D01*
X1387849Y171682D01*
X1387953Y171349D01*
X1388048Y171014D01*
X1388136Y170676D01*
X1388215Y170336D01*
X1388286Y169995D01*
X1388349Y169652D01*
X1388404Y169307D01*
X1388450Y168962D01*
X1388488Y168615D01*
X1388517Y168267D01*
X1388538Y167919D01*
X1388551Y167571D01*
X1388555Y167222D01*
X1381444Y179667D02*
X1361889Y190333D01*
X1427744Y167222D02*
X1427744Y217000D01*
X1427744Y167222D02*
X1427740Y166878D01*
X1427727Y166535D01*
X1427707Y166192D01*
X1427678Y165849D01*
X1427640Y165508D01*
X1427595Y165167D01*
X1427541Y164828D01*
X1427479Y164490D01*
X1427409Y164153D01*
X1427331Y163818D01*
X1427244Y163486D01*
X1427150Y163155D01*
X1427048Y162827D01*
X1426938Y162502D01*
X1426820Y162179D01*
X1426694Y161859D01*
X1426561Y161542D01*
X1426420Y161229D01*
X1426271Y160919D01*
X1426115Y160613D01*
X1425952Y160310D01*
X1425781Y160012D01*
X1425603Y159718D01*
X1425418Y159428D01*
X1425226Y159143D01*
X1425028Y158863D01*
X1424822Y158587D01*
X1424611Y158316D01*
X1424392Y158051D01*
X1424167Y157791D01*
X1423936Y157537D01*
X1423699Y157288D01*
X1423456Y157045D01*
X1423207Y156808D01*
X1422953Y156577D01*
X1422693Y156352D01*
X1422428Y156133D01*
X1422157Y155922D01*
X1421881Y155716D01*
X1421601Y155518D01*
X1421316Y155326D01*
X1421026Y155141D01*
X1420732Y154963D01*
X1420434Y154792D01*
X1420131Y154629D01*
X1419825Y154473D01*
X1419515Y154324D01*
X1419202Y154183D01*
X1418885Y154050D01*
X1418565Y153924D01*
X1418242Y153806D01*
X1417917Y153696D01*
X1417589Y153594D01*
X1417258Y153500D01*
X1416926Y153413D01*
X1416591Y153335D01*
X1416254Y153265D01*
X1415916Y153203D01*
X1415577Y153149D01*
X1415236Y153104D01*
X1414895Y153066D01*
X1414552Y153037D01*
X1414209Y153017D01*
X1413866Y153004D01*
X1413522Y153000D01*
X1406411Y153000D01*
X1458166Y153000D02*
X1458166Y217000D01*
X1479499Y181444D01*
X1500832Y217000D01*
X1500832Y153000D01*
X1529415Y167222D02*
X1543638Y217000D01*
X1529415Y167222D02*
X1564971Y167222D01*
X1554304Y181444D02*
X1554304Y153000D01*
X1590956Y153000D02*
X1608733Y153000D01*
X1609166Y153005D01*
X1609599Y153021D01*
X1610031Y153047D01*
X1610462Y153084D01*
X1610892Y153132D01*
X1611321Y153189D01*
X1611749Y153258D01*
X1612175Y153336D01*
X1612598Y153425D01*
X1613020Y153525D01*
X1613439Y153634D01*
X1613855Y153754D01*
X1614268Y153884D01*
X1614678Y154023D01*
X1615084Y154173D01*
X1615486Y154333D01*
X1615885Y154502D01*
X1616279Y154681D01*
X1616669Y154869D01*
X1617054Y155067D01*
X1617434Y155275D01*
X1617809Y155491D01*
X1618178Y155717D01*
X1618542Y155951D01*
X1618900Y156194D01*
X1619253Y156446D01*
X1619598Y156707D01*
X1619938Y156976D01*
X1620271Y157252D01*
X1620597Y157537D01*
X1620915Y157830D01*
X1621227Y158131D01*
X1621531Y158439D01*
X1621828Y158754D01*
X1622117Y159077D01*
X1622398Y159406D01*
X1622671Y159742D01*
X1622935Y160085D01*
X1623192Y160434D01*
X1623439Y160789D01*
X1623678Y161150D01*
X1623908Y161517D01*
X1624129Y161889D01*
X1624341Y162267D01*
X1624544Y162649D01*
X1624737Y163037D01*
X1624921Y163429D01*
X1625095Y163825D01*
X1625259Y164225D01*
X1625414Y164630D01*
X1625559Y165038D01*
X1625694Y165449D01*
X1625818Y165864D01*
X1625933Y166281D01*
X1626037Y166702D01*
X1626131Y167124D01*
X1626215Y167549D01*
X1626289Y167976D01*
X1626352Y168404D01*
X1626404Y168834D01*
X1626446Y169264D01*
X1626478Y169696D01*
X1626499Y170129D01*
X1626510Y170562D01*
X1626510Y170994D01*
X1626499Y171427D01*
X1626478Y171860D01*
X1626446Y172292D01*
X1626404Y172722D01*
X1626352Y173152D01*
X1626289Y173580D01*
X1626215Y174007D01*
X1626131Y174432D01*
X1626037Y174854D01*
X1625933Y175275D01*
X1625818Y175692D01*
X1625694Y176107D01*
X1625559Y176518D01*
X1625414Y176926D01*
X1625259Y177331D01*
X1625095Y177731D01*
X1624921Y178127D01*
X1624737Y178519D01*
X1624544Y178907D01*
X1624341Y179289D01*
X1624129Y179667D01*
X1623908Y180039D01*
X1623678Y180406D01*
X1623439Y180767D01*
X1623192Y181122D01*
X1622935Y181471D01*
X1622671Y181814D01*
X1622398Y182150D01*
X1622117Y182479D01*
X1621828Y182802D01*
X1621531Y183117D01*
X1621227Y183425D01*
X1620915Y183726D01*
X1620597Y184019D01*
X1620271Y184304D01*
X1619938Y184580D01*
X1619598Y184849D01*
X1619253Y185110D01*
X1618900Y185362D01*
X1618542Y185605D01*
X1618178Y185839D01*
X1617809Y186065D01*
X1617434Y186281D01*
X1617054Y186489D01*
X1616669Y186687D01*
X1616279Y186875D01*
X1615885Y187054D01*
X1615486Y187223D01*
X1615084Y187383D01*
X1614678Y187533D01*
X1614268Y187672D01*
X1613855Y187802D01*
X1613439Y187922D01*
X1613020Y188031D01*
X1612598Y188131D01*
X1612175Y188220D01*
X1611749Y188298D01*
X1611321Y188367D01*
X1610892Y188424D01*
X1610462Y188472D01*
X1610031Y188509D01*
X1609599Y188535D01*
X1609166Y188551D01*
X1608733Y188556D01*
X1612289Y217000D02*
X1590956Y217000D01*
X1612289Y217000D02*
X1612635Y216996D01*
X1612981Y216983D01*
X1613327Y216962D01*
X1613672Y216933D01*
X1614016Y216895D01*
X1614360Y216848D01*
X1614702Y216794D01*
X1615042Y216731D01*
X1615381Y216660D01*
X1615718Y216580D01*
X1616053Y216493D01*
X1616386Y216397D01*
X1616717Y216293D01*
X1617045Y216181D01*
X1617370Y216062D01*
X1617691Y215934D01*
X1618010Y215798D01*
X1618326Y215655D01*
X1618637Y215504D01*
X1618945Y215346D01*
X1619250Y215180D01*
X1619549Y215007D01*
X1619845Y214827D01*
X1620136Y214639D01*
X1620423Y214445D01*
X1620704Y214243D01*
X1620981Y214035D01*
X1621253Y213820D01*
X1621519Y213598D01*
X1621780Y213370D01*
X1622035Y213136D01*
X1622284Y212896D01*
X1622527Y212649D01*
X1622765Y212397D01*
X1622996Y212139D01*
X1623221Y211875D01*
X1623439Y211607D01*
X1623651Y211332D01*
X1623856Y211053D01*
X1624054Y210769D01*
X1624245Y210480D01*
X1624429Y210187D01*
X1624606Y209889D01*
X1624775Y209587D01*
X1624937Y209281D01*
X1625092Y208971D01*
X1625239Y208657D01*
X1625378Y208340D01*
X1625510Y208020D01*
X1625633Y207696D01*
X1625749Y207370D01*
X1625857Y207041D01*
X1625957Y206709D01*
X1626049Y206375D01*
X1626132Y206039D01*
X1626207Y205701D01*
X1626274Y205361D01*
X1626333Y205020D01*
X1626384Y204677D01*
X1626426Y204333D01*
X1626459Y203989D01*
X1626485Y203643D01*
X1626502Y203297D01*
X1626510Y202951D01*
X1626510Y202605D01*
X1626502Y202259D01*
X1626485Y201913D01*
X1626459Y201567D01*
X1626426Y201223D01*
X1626384Y200879D01*
X1626333Y200536D01*
X1626274Y200195D01*
X1626207Y199855D01*
X1626132Y199517D01*
X1626049Y199181D01*
X1625957Y198847D01*
X1625857Y198515D01*
X1625749Y198186D01*
X1625633Y197860D01*
X1625510Y197536D01*
X1625378Y197216D01*
X1625239Y196899D01*
X1625092Y196585D01*
X1624937Y196275D01*
X1624775Y195969D01*
X1624606Y195667D01*
X1624429Y195369D01*
X1624245Y195076D01*
X1624054Y194787D01*
X1623856Y194503D01*
X1623651Y194224D01*
X1623439Y193949D01*
X1623221Y193681D01*
X1622996Y193417D01*
X1622765Y193159D01*
X1622527Y192907D01*
X1622284Y192660D01*
X1622035Y192420D01*
X1621780Y192186D01*
X1621519Y191958D01*
X1621253Y191736D01*
X1620981Y191521D01*
X1620704Y191313D01*
X1620423Y191111D01*
X1620136Y190917D01*
X1619845Y190729D01*
X1619549Y190549D01*
X1619250Y190376D01*
X1618945Y190210D01*
X1618637Y190052D01*
X1618326Y189901D01*
X1618010Y189758D01*
X1617691Y189622D01*
X1617370Y189494D01*
X1617045Y189375D01*
X1616717Y189263D01*
X1616386Y189159D01*
X1616053Y189063D01*
X1615718Y188976D01*
X1615381Y188896D01*
X1615042Y188825D01*
X1614702Y188762D01*
X1614360Y188708D01*
X1614016Y188661D01*
X1613672Y188623D01*
X1613327Y188594D01*
X1612981Y188573D01*
X1612635Y188560D01*
X1612289Y188556D01*
X1612289Y188555D02*
X1598067Y188555D01*
X1652496Y185000D02*
X1652511Y186259D01*
X1652556Y187517D01*
X1652631Y188774D01*
X1652736Y190029D01*
X1652871Y191281D01*
X1653036Y192529D01*
X1653231Y193773D01*
X1653455Y195012D01*
X1653709Y196245D01*
X1653992Y197472D01*
X1654304Y198692D01*
X1654646Y199904D01*
X1655016Y201107D01*
X1655415Y202301D01*
X1655842Y203486D01*
X1656297Y204659D01*
X1656780Y205822D01*
X1657291Y206973D01*
X1657829Y208111D01*
X1657937Y208412D01*
X1658051Y208711D01*
X1658173Y209007D01*
X1658302Y209300D01*
X1658439Y209589D01*
X1658582Y209875D01*
X1658732Y210158D01*
X1658889Y210437D01*
X1659053Y210712D01*
X1659223Y210982D01*
X1659400Y211249D01*
X1659583Y211511D01*
X1659773Y211769D01*
X1659969Y212022D01*
X1660171Y212270D01*
X1660379Y212514D01*
X1660592Y212752D01*
X1660812Y212985D01*
X1661037Y213212D01*
X1661268Y213434D01*
X1661504Y213650D01*
X1661745Y213860D01*
X1661991Y214065D01*
X1662242Y214263D01*
X1662498Y214456D01*
X1662758Y214642D01*
X1663023Y214821D01*
X1663292Y214994D01*
X1663565Y215161D01*
X1663842Y215321D01*
X1664123Y215474D01*
X1664408Y215620D01*
X1664696Y215759D01*
X1664988Y215891D01*
X1665282Y216016D01*
X1665580Y216134D01*
X1665880Y216245D01*
X1666183Y216348D01*
X1666488Y216444D01*
X1666796Y216532D01*
X1667105Y216613D01*
X1667417Y216686D01*
X1667730Y216752D01*
X1668045Y216810D01*
X1668361Y216860D01*
X1668678Y216903D01*
X1668996Y216938D01*
X1669315Y216965D01*
X1669634Y216984D01*
X1669954Y216996D01*
X1670274Y217000D01*
X1670594Y216996D01*
X1670914Y216984D01*
X1671233Y216965D01*
X1671552Y216938D01*
X1671870Y216903D01*
X1672187Y216860D01*
X1672503Y216810D01*
X1672818Y216752D01*
X1673131Y216686D01*
X1673443Y216613D01*
X1673752Y216532D01*
X1674060Y216444D01*
X1674365Y216348D01*
X1674668Y216245D01*
X1674968Y216134D01*
X1675266Y216016D01*
X1675560Y215891D01*
X1675852Y215759D01*
X1676140Y215620D01*
X1676425Y215474D01*
X1676706Y215321D01*
X1676983Y215161D01*
X1677256Y214994D01*
X1677525Y214821D01*
X1677790Y214642D01*
X1678050Y214456D01*
X1678306Y214263D01*
X1678557Y214065D01*
X1678803Y213861D01*
X1679044Y213650D01*
X1679280Y213434D01*
X1679511Y213212D01*
X1679736Y212985D01*
X1679956Y212752D01*
X1680169Y212514D01*
X1680377Y212270D01*
X1680579Y212022D01*
X1680775Y211769D01*
X1680965Y211511D01*
X1681148Y211249D01*
X1681325Y210983D01*
X1681495Y210712D01*
X1681659Y210437D01*
X1681816Y210158D01*
X1681966Y209875D01*
X1682109Y209589D01*
X1682246Y209300D01*
X1682375Y209007D01*
X1682497Y208711D01*
X1682611Y208412D01*
X1682719Y208111D01*
X1683257Y206973D01*
X1683768Y205822D01*
X1684251Y204659D01*
X1684706Y203486D01*
X1685134Y202301D01*
X1685532Y201107D01*
X1685902Y199903D01*
X1686244Y198692D01*
X1686556Y197472D01*
X1686839Y196245D01*
X1687093Y195012D01*
X1687317Y193773D01*
X1687512Y192529D01*
X1687677Y191281D01*
X1687812Y190029D01*
X1687917Y188774D01*
X1687992Y187517D01*
X1688037Y186259D01*
X1688052Y185000D01*
X1652495Y185000D02*
X1652510Y183741D01*
X1652555Y182483D01*
X1652630Y181226D01*
X1652735Y179971D01*
X1652870Y178719D01*
X1653035Y177471D01*
X1653230Y176227D01*
X1653454Y174988D01*
X1653708Y173755D01*
X1653991Y172528D01*
X1654303Y171308D01*
X1654645Y170096D01*
X1655015Y168893D01*
X1655414Y167699D01*
X1655841Y166514D01*
X1656296Y165340D01*
X1656779Y164178D01*
X1657290Y163027D01*
X1657828Y161889D01*
X1657829Y161889D02*
X1657937Y161588D01*
X1658051Y161289D01*
X1658173Y160993D01*
X1658303Y160700D01*
X1658439Y160411D01*
X1658582Y160125D01*
X1658732Y159842D01*
X1658889Y159563D01*
X1659053Y159288D01*
X1659223Y159017D01*
X1659400Y158751D01*
X1659583Y158489D01*
X1659773Y158231D01*
X1659969Y157978D01*
X1660171Y157730D01*
X1660379Y157486D01*
X1660592Y157248D01*
X1660812Y157015D01*
X1661037Y156788D01*
X1661268Y156566D01*
X1661504Y156350D01*
X1661745Y156139D01*
X1661991Y155935D01*
X1662242Y155737D01*
X1662498Y155544D01*
X1662758Y155358D01*
X1663023Y155179D01*
X1663292Y155006D01*
X1663565Y154839D01*
X1663842Y154679D01*
X1664123Y154526D01*
X1664408Y154380D01*
X1664696Y154241D01*
X1664988Y154109D01*
X1665282Y153984D01*
X1665580Y153866D01*
X1665880Y153755D01*
X1666183Y153652D01*
X1666488Y153556D01*
X1666796Y153468D01*
X1667105Y153387D01*
X1667417Y153314D01*
X1667730Y153248D01*
X1668045Y153190D01*
X1668361Y153140D01*
X1668678Y153097D01*
X1668996Y153062D01*
X1669315Y153035D01*
X1669634Y153016D01*
X1669954Y153004D01*
X1670274Y153000D01*
X1682719Y161889D02*
X1683257Y163027D01*
X1683768Y164178D01*
X1684251Y165340D01*
X1684706Y166514D01*
X1685134Y167699D01*
X1685532Y168893D01*
X1685902Y170096D01*
X1686244Y171308D01*
X1686556Y172528D01*
X1686839Y173755D01*
X1687093Y174988D01*
X1687317Y176227D01*
X1687512Y177471D01*
X1687677Y178719D01*
X1687812Y179971D01*
X1687917Y181226D01*
X1687992Y182483D01*
X1688037Y183741D01*
X1688052Y185000D01*
X1682719Y161889D02*
X1682611Y161588D01*
X1682497Y161289D01*
X1682375Y160993D01*
X1682245Y160700D01*
X1682109Y160411D01*
X1681966Y160125D01*
X1681816Y159842D01*
X1681659Y159563D01*
X1681495Y159288D01*
X1681325Y159017D01*
X1681148Y158751D01*
X1680965Y158488D01*
X1680775Y158231D01*
X1680579Y157978D01*
X1680377Y157729D01*
X1680169Y157486D01*
X1679955Y157248D01*
X1679736Y157015D01*
X1679511Y156788D01*
X1679280Y156566D01*
X1679044Y156350D01*
X1678803Y156139D01*
X1678557Y155935D01*
X1678306Y155737D01*
X1678050Y155544D01*
X1677790Y155358D01*
X1677525Y155179D01*
X1677256Y155006D01*
X1676983Y154839D01*
X1676706Y154679D01*
X1676424Y154526D01*
X1676140Y154380D01*
X1675852Y154241D01*
X1675560Y154109D01*
X1675266Y153984D01*
X1674968Y153866D01*
X1674668Y153755D01*
X1674365Y153652D01*
X1674060Y153556D01*
X1673752Y153468D01*
X1673443Y153387D01*
X1673131Y153314D01*
X1672818Y153248D01*
X1672503Y153190D01*
X1672187Y153140D01*
X1671870Y153097D01*
X1671552Y153062D01*
X1671233Y153035D01*
X1670914Y153016D01*
X1670594Y153004D01*
X1670274Y153000D01*
X1656051Y167222D02*
X1684496Y202778D01*
X1714036Y188555D02*
X1735369Y188555D01*
X1735713Y188551D01*
X1736056Y188538D01*
X1736399Y188518D01*
X1736742Y188489D01*
X1737083Y188451D01*
X1737424Y188406D01*
X1737763Y188352D01*
X1738101Y188290D01*
X1738438Y188220D01*
X1738773Y188142D01*
X1739105Y188055D01*
X1739436Y187961D01*
X1739764Y187859D01*
X1740089Y187749D01*
X1740412Y187631D01*
X1740732Y187505D01*
X1741049Y187372D01*
X1741362Y187231D01*
X1741672Y187082D01*
X1741978Y186926D01*
X1742281Y186763D01*
X1742579Y186592D01*
X1742873Y186414D01*
X1743163Y186229D01*
X1743448Y186037D01*
X1743728Y185839D01*
X1744004Y185633D01*
X1744275Y185422D01*
X1744540Y185203D01*
X1744800Y184978D01*
X1745054Y184747D01*
X1745303Y184510D01*
X1745546Y184267D01*
X1745783Y184018D01*
X1746014Y183764D01*
X1746239Y183504D01*
X1746458Y183239D01*
X1746669Y182968D01*
X1746875Y182692D01*
X1747073Y182412D01*
X1747265Y182127D01*
X1747450Y181837D01*
X1747628Y181543D01*
X1747799Y181245D01*
X1747962Y180942D01*
X1748118Y180636D01*
X1748267Y180326D01*
X1748408Y180013D01*
X1748541Y179696D01*
X1748667Y179376D01*
X1748785Y179053D01*
X1748895Y178728D01*
X1748997Y178400D01*
X1749091Y178069D01*
X1749178Y177737D01*
X1749256Y177402D01*
X1749326Y177065D01*
X1749388Y176727D01*
X1749442Y176388D01*
X1749487Y176047D01*
X1749525Y175706D01*
X1749554Y175363D01*
X1749574Y175020D01*
X1749587Y174677D01*
X1749591Y174333D01*
X1749592Y174333D02*
X1749592Y170778D01*
X1749587Y170345D01*
X1749571Y169912D01*
X1749545Y169480D01*
X1749508Y169049D01*
X1749460Y168619D01*
X1749403Y168190D01*
X1749334Y167762D01*
X1749256Y167336D01*
X1749167Y166913D01*
X1749067Y166491D01*
X1748958Y166072D01*
X1748838Y165656D01*
X1748708Y165243D01*
X1748569Y164833D01*
X1748419Y164427D01*
X1748259Y164025D01*
X1748090Y163626D01*
X1747911Y163232D01*
X1747723Y162842D01*
X1747525Y162457D01*
X1747317Y162077D01*
X1747101Y161702D01*
X1746875Y161333D01*
X1746641Y160969D01*
X1746398Y160611D01*
X1746146Y160258D01*
X1745885Y159913D01*
X1745616Y159573D01*
X1745340Y159240D01*
X1745055Y158914D01*
X1744762Y158596D01*
X1744461Y158284D01*
X1744153Y157980D01*
X1743838Y157683D01*
X1743515Y157394D01*
X1743186Y157113D01*
X1742850Y156840D01*
X1742507Y156576D01*
X1742158Y156319D01*
X1741803Y156072D01*
X1741442Y155833D01*
X1741075Y155603D01*
X1740703Y155382D01*
X1740325Y155170D01*
X1739943Y154967D01*
X1739555Y154774D01*
X1739163Y154590D01*
X1738767Y154416D01*
X1738367Y154252D01*
X1737962Y154097D01*
X1737554Y153952D01*
X1737143Y153817D01*
X1736728Y153693D01*
X1736311Y153578D01*
X1735890Y153474D01*
X1735468Y153380D01*
X1735043Y153296D01*
X1734616Y153222D01*
X1734188Y153159D01*
X1733758Y153107D01*
X1733328Y153065D01*
X1732896Y153033D01*
X1732463Y153012D01*
X1732030Y153001D01*
X1731598Y153001D01*
X1731165Y153012D01*
X1730732Y153033D01*
X1730300Y153065D01*
X1729870Y153107D01*
X1729440Y153159D01*
X1729012Y153222D01*
X1728585Y153296D01*
X1728160Y153380D01*
X1727738Y153474D01*
X1727317Y153578D01*
X1726900Y153693D01*
X1726485Y153817D01*
X1726074Y153952D01*
X1725666Y154097D01*
X1725261Y154252D01*
X1724861Y154416D01*
X1724465Y154590D01*
X1724073Y154774D01*
X1723685Y154967D01*
X1723303Y155170D01*
X1722925Y155382D01*
X1722553Y155603D01*
X1722186Y155833D01*
X1721825Y156072D01*
X1721470Y156319D01*
X1721121Y156576D01*
X1720778Y156840D01*
X1720442Y157113D01*
X1720113Y157394D01*
X1719790Y157683D01*
X1719475Y157980D01*
X1719167Y158284D01*
X1718866Y158596D01*
X1718573Y158914D01*
X1718288Y159240D01*
X1718012Y159573D01*
X1717743Y159913D01*
X1717482Y160258D01*
X1717230Y160611D01*
X1716987Y160969D01*
X1716753Y161333D01*
X1716527Y161702D01*
X1716311Y162077D01*
X1716103Y162457D01*
X1715905Y162842D01*
X1715717Y163232D01*
X1715538Y163626D01*
X1715369Y164025D01*
X1715209Y164427D01*
X1715059Y164833D01*
X1714920Y165243D01*
X1714790Y165656D01*
X1714670Y166072D01*
X1714561Y166491D01*
X1714461Y166913D01*
X1714372Y167336D01*
X1714294Y167762D01*
X1714225Y168190D01*
X1714168Y168619D01*
X1714120Y169049D01*
X1714083Y169480D01*
X1714057Y169912D01*
X1714041Y170345D01*
X1714036Y170778D01*
X1714036Y188555D01*
X1714045Y189253D01*
X1714070Y189951D01*
X1714113Y190648D01*
X1714173Y191343D01*
X1714250Y192037D01*
X1714344Y192729D01*
X1714455Y193418D01*
X1714583Y194104D01*
X1714727Y194787D01*
X1714888Y195467D01*
X1715066Y196142D01*
X1715261Y196812D01*
X1715472Y197478D01*
X1715699Y198138D01*
X1715942Y198792D01*
X1716201Y199440D01*
X1716476Y200082D01*
X1716767Y200717D01*
X1717073Y201344D01*
X1717395Y201964D01*
X1717731Y202575D01*
X1718083Y203179D01*
X1718449Y203773D01*
X1718830Y204358D01*
X1719225Y204934D01*
X1719634Y205500D01*
X1720056Y206055D01*
X1720493Y206600D01*
X1720942Y207134D01*
X1721405Y207657D01*
X1721880Y208169D01*
X1722367Y208669D01*
X1722867Y209156D01*
X1723378Y209631D01*
X1723901Y210094D01*
X1724436Y210543D01*
X1724981Y210979D01*
X1725536Y211402D01*
X1726102Y211811D01*
X1726678Y212206D01*
X1727263Y212587D01*
X1727857Y212953D01*
X1728460Y213305D01*
X1729072Y213641D01*
X1729692Y213963D01*
X1730319Y214269D01*
X1730954Y214560D01*
X1731595Y214835D01*
X1732244Y215094D01*
X1732898Y215337D01*
X1733558Y215564D01*
X1734224Y215775D01*
X1734894Y215970D01*
X1735569Y216148D01*
X1736249Y216309D01*
X1736932Y216453D01*
X1737618Y216581D01*
X1738307Y216692D01*
X1738999Y216786D01*
X1739693Y216863D01*
X1740388Y216923D01*
X1741085Y216966D01*
X1741783Y216991D01*
X1742481Y217000D01*
X3520111Y72889D02*
X3537889Y65778D01*
X3520111Y72888D02*
X3519904Y72974D01*
X3519699Y73065D01*
X3519496Y73161D01*
X3519295Y73262D01*
X3519097Y73367D01*
X3518902Y73478D01*
X3518709Y73593D01*
X3518519Y73713D01*
X3518333Y73837D01*
X3518149Y73966D01*
X3517968Y74099D01*
X3517791Y74237D01*
X3517617Y74379D01*
X3517447Y74525D01*
X3517280Y74676D01*
X3517117Y74830D01*
X3516958Y74988D01*
X3516803Y75150D01*
X3516651Y75316D01*
X3516504Y75485D01*
X3516361Y75658D01*
X3516222Y75834D01*
X3516088Y76014D01*
X3515958Y76197D01*
X3515832Y76383D01*
X3515711Y76572D01*
X3515595Y76764D01*
X3515483Y76959D01*
X3515376Y77156D01*
X3515274Y77356D01*
X3515177Y77558D01*
X3515085Y77763D01*
X3514997Y77970D01*
X3514915Y78178D01*
X3514838Y78389D01*
X3514766Y78602D01*
X3514700Y78816D01*
X3514638Y79032D01*
X3514582Y79249D01*
X3514531Y79468D01*
X3514486Y79688D01*
X3514445Y79908D01*
X3514411Y80130D01*
X3514381Y80353D01*
X3514357Y80576D01*
X3514339Y80799D01*
X3514326Y81024D01*
X3514318Y81248D01*
X3514316Y81472D01*
X3514319Y81697D01*
X3514328Y81921D01*
X3514342Y82145D01*
X3514362Y82368D01*
X3514387Y82591D01*
X3514418Y82814D01*
X3514454Y83035D01*
X3514495Y83256D01*
X3514542Y83475D01*
X3514594Y83694D01*
X3514651Y83911D01*
X3514714Y84126D01*
X3514781Y84340D01*
X3514854Y84553D01*
X3514933Y84763D01*
X3515016Y84971D01*
X3515104Y85178D01*
X3515197Y85382D01*
X3515296Y85584D01*
X3515399Y85783D01*
X3515507Y85980D01*
X3515619Y86174D01*
X3515737Y86365D01*
X3515859Y86553D01*
X3515985Y86739D01*
X3516116Y86921D01*
X3516252Y87100D01*
X3516392Y87276D01*
X3516536Y87448D01*
X3516684Y87616D01*
X3516836Y87781D01*
X3516992Y87943D01*
X3517152Y88100D01*
X3517316Y88253D01*
X3517483Y88403D01*
X3517654Y88548D01*
X3517829Y88689D01*
X3518007Y88826D01*
X3518188Y88958D01*
X3518373Y89086D01*
X3518560Y89209D01*
X3518750Y89328D01*
X3518944Y89442D01*
X3519140Y89552D01*
X3519338Y89656D01*
X3519539Y89756D01*
X3519743Y89851D01*
X3519948Y89941D01*
X3520156Y90026D01*
X3520366Y90105D01*
X3520578Y90180D01*
X3520791Y90249D01*
X3521006Y90313D01*
X3521223Y90372D01*
X3521441Y90426D01*
X3521660Y90474D01*
X3521880Y90517D01*
X3522101Y90555D01*
X3522324Y90587D01*
X3522546Y90614D01*
X3522770Y90635D01*
X3522994Y90651D01*
X3523218Y90662D01*
X3523442Y90667D01*
X3523667Y90666D01*
X3524637Y90640D01*
X3525607Y90591D01*
X3526575Y90519D01*
X3527541Y90424D01*
X3528505Y90305D01*
X3529465Y90164D01*
X3530422Y89999D01*
X3531374Y89811D01*
X3532322Y89600D01*
X3533264Y89367D01*
X3534201Y89111D01*
X3535131Y88833D01*
X3536054Y88532D01*
X3536970Y88209D01*
X3537877Y87865D01*
X3538776Y87498D01*
X3539666Y87110D01*
X3537889Y65778D02*
X3538096Y65692D01*
X3538301Y65601D01*
X3538504Y65505D01*
X3538705Y65404D01*
X3538903Y65299D01*
X3539098Y65188D01*
X3539291Y65073D01*
X3539481Y64953D01*
X3539667Y64829D01*
X3539851Y64700D01*
X3540032Y64567D01*
X3540209Y64429D01*
X3540383Y64287D01*
X3540553Y64141D01*
X3540720Y63990D01*
X3540883Y63836D01*
X3541042Y63678D01*
X3541197Y63516D01*
X3541349Y63350D01*
X3541496Y63181D01*
X3541639Y63008D01*
X3541778Y62832D01*
X3541912Y62652D01*
X3542042Y62469D01*
X3542168Y62283D01*
X3542289Y62094D01*
X3542405Y61902D01*
X3542517Y61707D01*
X3542624Y61510D01*
X3542726Y61310D01*
X3542823Y61108D01*
X3542915Y60903D01*
X3543003Y60696D01*
X3543085Y60488D01*
X3543162Y60277D01*
X3543234Y60064D01*
X3543300Y59850D01*
X3543362Y59634D01*
X3543418Y59417D01*
X3543469Y59198D01*
X3543514Y58978D01*
X3543555Y58758D01*
X3543589Y58536D01*
X3543619Y58313D01*
X3543643Y58090D01*
X3543661Y57867D01*
X3543674Y57642D01*
X3543682Y57418D01*
X3543684Y57194D01*
X3543681Y56969D01*
X3543672Y56745D01*
X3543658Y56521D01*
X3543638Y56298D01*
X3543613Y56075D01*
X3543582Y55852D01*
X3543546Y55631D01*
X3543505Y55410D01*
X3543458Y55191D01*
X3543406Y54972D01*
X3543349Y54755D01*
X3543286Y54540D01*
X3543219Y54326D01*
X3543146Y54113D01*
X3543067Y53903D01*
X3542984Y53695D01*
X3542896Y53488D01*
X3542803Y53284D01*
X3542704Y53082D01*
X3542601Y52883D01*
X3542493Y52686D01*
X3542381Y52492D01*
X3542263Y52301D01*
X3542141Y52113D01*
X3542015Y51927D01*
X3541884Y51745D01*
X3541748Y51566D01*
X3541608Y51390D01*
X3541464Y51218D01*
X3541316Y51050D01*
X3541164Y50885D01*
X3541008Y50723D01*
X3540848Y50566D01*
X3540684Y50413D01*
X3540517Y50263D01*
X3540346Y50118D01*
X3540171Y49977D01*
X3539993Y49840D01*
X3539812Y49708D01*
X3539627Y49580D01*
X3539440Y49457D01*
X3539250Y49338D01*
X3539056Y49224D01*
X3538860Y49114D01*
X3538662Y49010D01*
X3538461Y48910D01*
X3538257Y48815D01*
X3538052Y48725D01*
X3537844Y48640D01*
X3537634Y48561D01*
X3537422Y48486D01*
X3537209Y48417D01*
X3536994Y48353D01*
X3536777Y48294D01*
X3536559Y48240D01*
X3536340Y48192D01*
X3536120Y48149D01*
X3535899Y48111D01*
X3535676Y48079D01*
X3535454Y48052D01*
X3535230Y48031D01*
X3535006Y48015D01*
X3534782Y48004D01*
X3534558Y47999D01*
X3534333Y48000D01*
X3532907Y48037D01*
X3531483Y48108D01*
X3530060Y48213D01*
X3528641Y48351D01*
X3527225Y48523D01*
X3525814Y48728D01*
X3524408Y48967D01*
X3523007Y49238D01*
X3521614Y49543D01*
X3520229Y49881D01*
X3518851Y50251D01*
X3517483Y50654D01*
X3516125Y51089D01*
X3514777Y51556D01*
X3567018Y37333D02*
X3567018Y90667D01*
X3567018Y37333D02*
X3567015Y37071D01*
X3567005Y36810D01*
X3566989Y36548D01*
X3566967Y36287D01*
X3566938Y36027D01*
X3566903Y35768D01*
X3566861Y35509D01*
X3566813Y35252D01*
X3566759Y34996D01*
X3566698Y34741D01*
X3566632Y34488D01*
X3566559Y34237D01*
X3566480Y33987D01*
X3566394Y33739D01*
X3566303Y33494D01*
X3566206Y33251D01*
X3566103Y33010D01*
X3565994Y32772D01*
X3565879Y32537D01*
X3565758Y32305D01*
X3565632Y32075D01*
X3565500Y31849D01*
X3565363Y31626D01*
X3565220Y31407D01*
X3565072Y31191D01*
X3564919Y30979D01*
X3564760Y30770D01*
X3564597Y30566D01*
X3564428Y30366D01*
X3564255Y30170D01*
X3564077Y29978D01*
X3563894Y29790D01*
X3563706Y29608D01*
X3563515Y29429D01*
X3563318Y29256D01*
X3563118Y29087D01*
X3562914Y28924D01*
X3562705Y28765D01*
X3562493Y28612D01*
X3562277Y28464D01*
X3562058Y28321D01*
X3561835Y28184D01*
X3561609Y28052D01*
X3561379Y27926D01*
X3561147Y27805D01*
X3560912Y27690D01*
X3560674Y27581D01*
X3560433Y27478D01*
X3560190Y27381D01*
X3559945Y27290D01*
X3559697Y27204D01*
X3559448Y27125D01*
X3559196Y27052D01*
X3558943Y26986D01*
X3558688Y26925D01*
X3558432Y26871D01*
X3558175Y26823D01*
X3557916Y26781D01*
X3557657Y26746D01*
X3557397Y26717D01*
X3557136Y26695D01*
X3556875Y26679D01*
X3556613Y26669D01*
X3556351Y26666D01*
X3556351Y26667D02*
X3552796Y26667D01*
X3565240Y108444D02*
X3565240Y112000D01*
X3568796Y112000D01*
X3568796Y108444D01*
X3565240Y108444D01*
X3595875Y90667D02*
X3595875Y48000D01*
X3595875Y90667D02*
X3627875Y90667D01*
X3628133Y90664D01*
X3628390Y90655D01*
X3628648Y90639D01*
X3628905Y90617D01*
X3629161Y90589D01*
X3629416Y90555D01*
X3629671Y90515D01*
X3629924Y90468D01*
X3630177Y90416D01*
X3630428Y90357D01*
X3630677Y90292D01*
X3630925Y90222D01*
X3631171Y90145D01*
X3631415Y90062D01*
X3631658Y89974D01*
X3631897Y89880D01*
X3632135Y89779D01*
X3632370Y89674D01*
X3632603Y89562D01*
X3632832Y89445D01*
X3633059Y89323D01*
X3633283Y89195D01*
X3633503Y89061D01*
X3633721Y88923D01*
X3633935Y88779D01*
X3634145Y88630D01*
X3634352Y88476D01*
X3634555Y88317D01*
X3634754Y88153D01*
X3634949Y87984D01*
X3635139Y87811D01*
X3635326Y87633D01*
X3635508Y87451D01*
X3635686Y87264D01*
X3635859Y87074D01*
X3636028Y86879D01*
X3636192Y86680D01*
X3636351Y86477D01*
X3636505Y86270D01*
X3636654Y86060D01*
X3636798Y85846D01*
X3636936Y85628D01*
X3637070Y85408D01*
X3637198Y85184D01*
X3637320Y84957D01*
X3637437Y84728D01*
X3637549Y84495D01*
X3637654Y84260D01*
X3637755Y84022D01*
X3637849Y83783D01*
X3637937Y83540D01*
X3638020Y83296D01*
X3638097Y83050D01*
X3638167Y82802D01*
X3638232Y82553D01*
X3638291Y82302D01*
X3638343Y82049D01*
X3638390Y81796D01*
X3638430Y81541D01*
X3638464Y81286D01*
X3638492Y81030D01*
X3638514Y80773D01*
X3638530Y80515D01*
X3638539Y80258D01*
X3638542Y80000D01*
X3638541Y80000D02*
X3638541Y48000D01*
X3617208Y48000D02*
X3617208Y90667D01*
X3667124Y62222D02*
X3681347Y112000D01*
X3667124Y62222D02*
X3702680Y62222D01*
X3692013Y76444D02*
X3692013Y48000D01*
X3728665Y48000D02*
X3746442Y48000D01*
X3746875Y48005D01*
X3747308Y48021D01*
X3747740Y48047D01*
X3748171Y48084D01*
X3748601Y48132D01*
X3749030Y48189D01*
X3749458Y48258D01*
X3749884Y48336D01*
X3750307Y48425D01*
X3750729Y48525D01*
X3751148Y48634D01*
X3751564Y48754D01*
X3751977Y48884D01*
X3752387Y49023D01*
X3752793Y49173D01*
X3753195Y49333D01*
X3753594Y49502D01*
X3753988Y49681D01*
X3754378Y49869D01*
X3754763Y50067D01*
X3755143Y50275D01*
X3755518Y50491D01*
X3755887Y50717D01*
X3756251Y50951D01*
X3756609Y51194D01*
X3756962Y51446D01*
X3757307Y51707D01*
X3757647Y51976D01*
X3757980Y52252D01*
X3758306Y52537D01*
X3758624Y52830D01*
X3758936Y53131D01*
X3759240Y53439D01*
X3759537Y53754D01*
X3759826Y54077D01*
X3760107Y54406D01*
X3760380Y54742D01*
X3760644Y55085D01*
X3760901Y55434D01*
X3761148Y55789D01*
X3761387Y56150D01*
X3761617Y56517D01*
X3761838Y56889D01*
X3762050Y57267D01*
X3762253Y57649D01*
X3762446Y58037D01*
X3762630Y58429D01*
X3762804Y58825D01*
X3762968Y59225D01*
X3763123Y59630D01*
X3763268Y60038D01*
X3763403Y60449D01*
X3763527Y60864D01*
X3763642Y61281D01*
X3763746Y61702D01*
X3763840Y62124D01*
X3763924Y62549D01*
X3763998Y62976D01*
X3764061Y63404D01*
X3764113Y63834D01*
X3764155Y64264D01*
X3764187Y64696D01*
X3764208Y65129D01*
X3764219Y65562D01*
X3764219Y65994D01*
X3764208Y66427D01*
X3764187Y66860D01*
X3764155Y67292D01*
X3764113Y67722D01*
X3764061Y68152D01*
X3763998Y68580D01*
X3763924Y69007D01*
X3763840Y69432D01*
X3763746Y69854D01*
X3763642Y70275D01*
X3763527Y70692D01*
X3763403Y71107D01*
X3763268Y71518D01*
X3763123Y71926D01*
X3762968Y72331D01*
X3762804Y72731D01*
X3762630Y73127D01*
X3762446Y73519D01*
X3762253Y73907D01*
X3762050Y74289D01*
X3761838Y74667D01*
X3761617Y75039D01*
X3761387Y75406D01*
X3761148Y75767D01*
X3760901Y76122D01*
X3760644Y76471D01*
X3760380Y76814D01*
X3760107Y77150D01*
X3759826Y77479D01*
X3759537Y77802D01*
X3759240Y78117D01*
X3758936Y78425D01*
X3758624Y78726D01*
X3758306Y79019D01*
X3757980Y79304D01*
X3757647Y79580D01*
X3757307Y79849D01*
X3756962Y80110D01*
X3756609Y80362D01*
X3756251Y80605D01*
X3755887Y80839D01*
X3755518Y81065D01*
X3755143Y81281D01*
X3754763Y81489D01*
X3754378Y81687D01*
X3753988Y81875D01*
X3753594Y82054D01*
X3753195Y82223D01*
X3752793Y82383D01*
X3752387Y82533D01*
X3751977Y82672D01*
X3751564Y82802D01*
X3751148Y82922D01*
X3750729Y83031D01*
X3750307Y83131D01*
X3749884Y83220D01*
X3749458Y83298D01*
X3749030Y83367D01*
X3748601Y83424D01*
X3748171Y83472D01*
X3747740Y83509D01*
X3747308Y83535D01*
X3746875Y83551D01*
X3746442Y83556D01*
X3749998Y112000D02*
X3728665Y112000D01*
X3749998Y112000D02*
X3750344Y111996D01*
X3750690Y111983D01*
X3751036Y111962D01*
X3751381Y111933D01*
X3751725Y111895D01*
X3752069Y111848D01*
X3752411Y111794D01*
X3752751Y111731D01*
X3753090Y111660D01*
X3753427Y111580D01*
X3753762Y111493D01*
X3754095Y111397D01*
X3754426Y111293D01*
X3754754Y111181D01*
X3755079Y111062D01*
X3755400Y110934D01*
X3755719Y110798D01*
X3756035Y110655D01*
X3756346Y110504D01*
X3756654Y110346D01*
X3756959Y110180D01*
X3757258Y110007D01*
X3757554Y109827D01*
X3757845Y109639D01*
X3758132Y109445D01*
X3758413Y109243D01*
X3758690Y109035D01*
X3758962Y108820D01*
X3759228Y108598D01*
X3759489Y108370D01*
X3759744Y108136D01*
X3759993Y107896D01*
X3760236Y107649D01*
X3760474Y107397D01*
X3760705Y107139D01*
X3760930Y106875D01*
X3761148Y106607D01*
X3761360Y106332D01*
X3761565Y106053D01*
X3761763Y105769D01*
X3761954Y105480D01*
X3762138Y105187D01*
X3762315Y104889D01*
X3762484Y104587D01*
X3762646Y104281D01*
X3762801Y103971D01*
X3762948Y103657D01*
X3763087Y103340D01*
X3763219Y103020D01*
X3763342Y102696D01*
X3763458Y102370D01*
X3763566Y102041D01*
X3763666Y101709D01*
X3763758Y101375D01*
X3763841Y101039D01*
X3763916Y100701D01*
X3763983Y100361D01*
X3764042Y100020D01*
X3764093Y99677D01*
X3764135Y99333D01*
X3764168Y98989D01*
X3764194Y98643D01*
X3764211Y98297D01*
X3764219Y97951D01*
X3764219Y97605D01*
X3764211Y97259D01*
X3764194Y96913D01*
X3764168Y96567D01*
X3764135Y96223D01*
X3764093Y95879D01*
X3764042Y95536D01*
X3763983Y95195D01*
X3763916Y94855D01*
X3763841Y94517D01*
X3763758Y94181D01*
X3763666Y93847D01*
X3763566Y93515D01*
X3763458Y93186D01*
X3763342Y92860D01*
X3763219Y92536D01*
X3763087Y92216D01*
X3762948Y91899D01*
X3762801Y91585D01*
X3762646Y91275D01*
X3762484Y90969D01*
X3762315Y90667D01*
X3762138Y90369D01*
X3761954Y90076D01*
X3761763Y89787D01*
X3761565Y89503D01*
X3761360Y89224D01*
X3761148Y88949D01*
X3760930Y88681D01*
X3760705Y88417D01*
X3760474Y88159D01*
X3760236Y87907D01*
X3759993Y87660D01*
X3759744Y87420D01*
X3759489Y87186D01*
X3759228Y86958D01*
X3758962Y86736D01*
X3758690Y86521D01*
X3758413Y86313D01*
X3758132Y86111D01*
X3757845Y85917D01*
X3757554Y85729D01*
X3757258Y85549D01*
X3756959Y85376D01*
X3756654Y85210D01*
X3756346Y85052D01*
X3756035Y84901D01*
X3755719Y84758D01*
X3755400Y84622D01*
X3755079Y84494D01*
X3754754Y84375D01*
X3754426Y84263D01*
X3754095Y84159D01*
X3753762Y84063D01*
X3753427Y83976D01*
X3753090Y83896D01*
X3752751Y83825D01*
X3752411Y83762D01*
X3752069Y83708D01*
X3751725Y83661D01*
X3751381Y83623D01*
X3751036Y83594D01*
X3750690Y83573D01*
X3750344Y83560D01*
X3749998Y83556D01*
X3749998Y83555D02*
X3735776Y83555D01*
X3790205Y80000D02*
X3790220Y81259D01*
X3790265Y82517D01*
X3790340Y83774D01*
X3790445Y85029D01*
X3790580Y86281D01*
X3790745Y87529D01*
X3790940Y88773D01*
X3791164Y90012D01*
X3791418Y91245D01*
X3791701Y92472D01*
X3792013Y93692D01*
X3792355Y94904D01*
X3792725Y96107D01*
X3793124Y97301D01*
X3793551Y98486D01*
X3794006Y99659D01*
X3794489Y100822D01*
X3795000Y101973D01*
X3795538Y103111D01*
X3795646Y103412D01*
X3795760Y103711D01*
X3795882Y104007D01*
X3796011Y104300D01*
X3796148Y104589D01*
X3796291Y104875D01*
X3796441Y105158D01*
X3796598Y105437D01*
X3796762Y105712D01*
X3796932Y105982D01*
X3797109Y106249D01*
X3797292Y106511D01*
X3797482Y106769D01*
X3797678Y107022D01*
X3797880Y107270D01*
X3798088Y107514D01*
X3798301Y107752D01*
X3798521Y107985D01*
X3798746Y108212D01*
X3798977Y108434D01*
X3799213Y108650D01*
X3799454Y108860D01*
X3799700Y109065D01*
X3799951Y109263D01*
X3800207Y109456D01*
X3800467Y109642D01*
X3800732Y109821D01*
X3801001Y109994D01*
X3801274Y110161D01*
X3801551Y110321D01*
X3801832Y110474D01*
X3802117Y110620D01*
X3802405Y110759D01*
X3802697Y110891D01*
X3802991Y111016D01*
X3803289Y111134D01*
X3803589Y111245D01*
X3803892Y111348D01*
X3804197Y111444D01*
X3804505Y111532D01*
X3804814Y111613D01*
X3805126Y111686D01*
X3805439Y111752D01*
X3805754Y111810D01*
X3806070Y111860D01*
X3806387Y111903D01*
X3806705Y111938D01*
X3807024Y111965D01*
X3807343Y111984D01*
X3807663Y111996D01*
X3807983Y112000D01*
X3808303Y111996D01*
X3808623Y111984D01*
X3808942Y111965D01*
X3809261Y111938D01*
X3809579Y111903D01*
X3809896Y111860D01*
X3810212Y111810D01*
X3810527Y111752D01*
X3810840Y111686D01*
X3811152Y111613D01*
X3811461Y111532D01*
X3811769Y111444D01*
X3812074Y111348D01*
X3812377Y111245D01*
X3812677Y111134D01*
X3812975Y111016D01*
X3813269Y110891D01*
X3813561Y110759D01*
X3813849Y110620D01*
X3814134Y110474D01*
X3814415Y110321D01*
X3814692Y110161D01*
X3814965Y109994D01*
X3815234Y109821D01*
X3815499Y109642D01*
X3815759Y109456D01*
X3816015Y109263D01*
X3816266Y109065D01*
X3816512Y108861D01*
X3816753Y108650D01*
X3816989Y108434D01*
X3817220Y108212D01*
X3817445Y107985D01*
X3817665Y107752D01*
X3817878Y107514D01*
X3818086Y107270D01*
X3818288Y107022D01*
X3818484Y106769D01*
X3818674Y106511D01*
X3818857Y106249D01*
X3819034Y105983D01*
X3819204Y105712D01*
X3819368Y105437D01*
X3819525Y105158D01*
X3819675Y104875D01*
X3819818Y104589D01*
X3819955Y104300D01*
X3820084Y104007D01*
X3820206Y103711D01*
X3820320Y103412D01*
X3820428Y103111D01*
X3820427Y103111D02*
X3820965Y101973D01*
X3821476Y100822D01*
X3821959Y99659D01*
X3822414Y98486D01*
X3822842Y97301D01*
X3823240Y96107D01*
X3823610Y94903D01*
X3823952Y93692D01*
X3824264Y92472D01*
X3824547Y91245D01*
X3824801Y90012D01*
X3825025Y88773D01*
X3825220Y87529D01*
X3825385Y86281D01*
X3825520Y85029D01*
X3825625Y83774D01*
X3825700Y82517D01*
X3825745Y81259D01*
X3825760Y80000D01*
X3790204Y80000D02*
X3790219Y78741D01*
X3790264Y77483D01*
X3790339Y76226D01*
X3790444Y74971D01*
X3790579Y73719D01*
X3790744Y72471D01*
X3790939Y71227D01*
X3791163Y69988D01*
X3791417Y68755D01*
X3791700Y67528D01*
X3792012Y66308D01*
X3792354Y65096D01*
X3792724Y63893D01*
X3793123Y62699D01*
X3793550Y61514D01*
X3794005Y60340D01*
X3794488Y59178D01*
X3794999Y58027D01*
X3795537Y56889D01*
X3795538Y56889D02*
X3795646Y56588D01*
X3795760Y56289D01*
X3795882Y55993D01*
X3796012Y55700D01*
X3796148Y55411D01*
X3796291Y55125D01*
X3796441Y54842D01*
X3796598Y54563D01*
X3796762Y54288D01*
X3796932Y54017D01*
X3797109Y53751D01*
X3797292Y53489D01*
X3797482Y53231D01*
X3797678Y52978D01*
X3797880Y52730D01*
X3798088Y52486D01*
X3798301Y52248D01*
X3798521Y52015D01*
X3798746Y51788D01*
X3798977Y51566D01*
X3799213Y51350D01*
X3799454Y51139D01*
X3799700Y50935D01*
X3799951Y50737D01*
X3800207Y50544D01*
X3800467Y50358D01*
X3800732Y50179D01*
X3801001Y50006D01*
X3801274Y49839D01*
X3801551Y49679D01*
X3801832Y49526D01*
X3802117Y49380D01*
X3802405Y49241D01*
X3802697Y49109D01*
X3802991Y48984D01*
X3803289Y48866D01*
X3803589Y48755D01*
X3803892Y48652D01*
X3804197Y48556D01*
X3804505Y48468D01*
X3804814Y48387D01*
X3805126Y48314D01*
X3805439Y48248D01*
X3805754Y48190D01*
X3806070Y48140D01*
X3806387Y48097D01*
X3806705Y48062D01*
X3807024Y48035D01*
X3807343Y48016D01*
X3807663Y48004D01*
X3807983Y48000D01*
X3820428Y56889D02*
X3820966Y58027D01*
X3821477Y59178D01*
X3821960Y60340D01*
X3822415Y61514D01*
X3822843Y62699D01*
X3823241Y63893D01*
X3823611Y65096D01*
X3823953Y66308D01*
X3824265Y67528D01*
X3824548Y68755D01*
X3824802Y69988D01*
X3825026Y71227D01*
X3825221Y72471D01*
X3825386Y73719D01*
X3825521Y74971D01*
X3825626Y76226D01*
X3825701Y77483D01*
X3825746Y78741D01*
X3825761Y80000D01*
X3820428Y56889D02*
X3820320Y56588D01*
X3820206Y56289D01*
X3820084Y55993D01*
X3819954Y55700D01*
X3819818Y55411D01*
X3819675Y55125D01*
X3819525Y54842D01*
X3819368Y54563D01*
X3819204Y54288D01*
X3819034Y54017D01*
X3818857Y53751D01*
X3818674Y53488D01*
X3818484Y53231D01*
X3818288Y52978D01*
X3818086Y52729D01*
X3817878Y52486D01*
X3817664Y52248D01*
X3817445Y52015D01*
X3817220Y51788D01*
X3816989Y51566D01*
X3816753Y51350D01*
X3816512Y51139D01*
X3816266Y50935D01*
X3816015Y50737D01*
X3815759Y50544D01*
X3815499Y50358D01*
X3815234Y50179D01*
X3814965Y50006D01*
X3814692Y49839D01*
X3814415Y49679D01*
X3814133Y49526D01*
X3813849Y49380D01*
X3813561Y49241D01*
X3813269Y49109D01*
X3812975Y48984D01*
X3812677Y48866D01*
X3812377Y48755D01*
X3812074Y48652D01*
X3811769Y48556D01*
X3811461Y48468D01*
X3811152Y48387D01*
X3810840Y48314D01*
X3810527Y48248D01*
X3810212Y48190D01*
X3809896Y48140D01*
X3809579Y48097D01*
X3809261Y48062D01*
X3808942Y48035D01*
X3808623Y48016D01*
X3808303Y48004D01*
X3807983Y48000D01*
X3793760Y62222D02*
X3822205Y97778D01*
X3851745Y83555D02*
X3873078Y83555D01*
X3873422Y83551D01*
X3873765Y83538D01*
X3874108Y83518D01*
X3874451Y83489D01*
X3874792Y83451D01*
X3875133Y83406D01*
X3875472Y83352D01*
X3875810Y83290D01*
X3876147Y83220D01*
X3876482Y83142D01*
X3876814Y83055D01*
X3877145Y82961D01*
X3877473Y82859D01*
X3877798Y82749D01*
X3878121Y82631D01*
X3878441Y82505D01*
X3878758Y82372D01*
X3879071Y82231D01*
X3879381Y82082D01*
X3879687Y81926D01*
X3879990Y81763D01*
X3880288Y81592D01*
X3880582Y81414D01*
X3880872Y81229D01*
X3881157Y81037D01*
X3881437Y80839D01*
X3881713Y80633D01*
X3881984Y80422D01*
X3882249Y80203D01*
X3882509Y79978D01*
X3882763Y79747D01*
X3883012Y79510D01*
X3883255Y79267D01*
X3883492Y79018D01*
X3883723Y78764D01*
X3883948Y78504D01*
X3884167Y78239D01*
X3884378Y77968D01*
X3884584Y77692D01*
X3884782Y77412D01*
X3884974Y77127D01*
X3885159Y76837D01*
X3885337Y76543D01*
X3885508Y76245D01*
X3885671Y75942D01*
X3885827Y75636D01*
X3885976Y75326D01*
X3886117Y75013D01*
X3886250Y74696D01*
X3886376Y74376D01*
X3886494Y74053D01*
X3886604Y73728D01*
X3886706Y73400D01*
X3886800Y73069D01*
X3886887Y72737D01*
X3886965Y72402D01*
X3887035Y72065D01*
X3887097Y71727D01*
X3887151Y71388D01*
X3887196Y71047D01*
X3887234Y70706D01*
X3887263Y70363D01*
X3887283Y70020D01*
X3887296Y69677D01*
X3887300Y69333D01*
X3887301Y69333D02*
X3887301Y65778D01*
X3887296Y65345D01*
X3887280Y64912D01*
X3887254Y64480D01*
X3887217Y64049D01*
X3887169Y63619D01*
X3887112Y63190D01*
X3887043Y62762D01*
X3886965Y62336D01*
X3886876Y61913D01*
X3886776Y61491D01*
X3886667Y61072D01*
X3886547Y60656D01*
X3886417Y60243D01*
X3886278Y59833D01*
X3886128Y59427D01*
X3885968Y59025D01*
X3885799Y58626D01*
X3885620Y58232D01*
X3885432Y57842D01*
X3885234Y57457D01*
X3885026Y57077D01*
X3884810Y56702D01*
X3884584Y56333D01*
X3884350Y55969D01*
X3884107Y55611D01*
X3883855Y55258D01*
X3883594Y54913D01*
X3883325Y54573D01*
X3883049Y54240D01*
X3882764Y53914D01*
X3882471Y53596D01*
X3882170Y53284D01*
X3881862Y52980D01*
X3881547Y52683D01*
X3881224Y52394D01*
X3880895Y52113D01*
X3880559Y51840D01*
X3880216Y51576D01*
X3879867Y51319D01*
X3879512Y51072D01*
X3879151Y50833D01*
X3878784Y50603D01*
X3878412Y50382D01*
X3878034Y50170D01*
X3877652Y49967D01*
X3877264Y49774D01*
X3876872Y49590D01*
X3876476Y49416D01*
X3876076Y49252D01*
X3875671Y49097D01*
X3875263Y48952D01*
X3874852Y48817D01*
X3874437Y48693D01*
X3874020Y48578D01*
X3873599Y48474D01*
X3873177Y48380D01*
X3872752Y48296D01*
X3872325Y48222D01*
X3871897Y48159D01*
X3871467Y48107D01*
X3871037Y48065D01*
X3870605Y48033D01*
X3870172Y48012D01*
X3869739Y48001D01*
X3869307Y48001D01*
X3868874Y48012D01*
X3868441Y48033D01*
X3868009Y48065D01*
X3867579Y48107D01*
X3867149Y48159D01*
X3866721Y48222D01*
X3866294Y48296D01*
X3865869Y48380D01*
X3865447Y48474D01*
X3865026Y48578D01*
X3864609Y48693D01*
X3864194Y48817D01*
X3863783Y48952D01*
X3863375Y49097D01*
X3862970Y49252D01*
X3862570Y49416D01*
X3862174Y49590D01*
X3861782Y49774D01*
X3861394Y49967D01*
X3861012Y50170D01*
X3860634Y50382D01*
X3860262Y50603D01*
X3859895Y50833D01*
X3859534Y51072D01*
X3859179Y51319D01*
X3858830Y51576D01*
X3858487Y51840D01*
X3858151Y52113D01*
X3857822Y52394D01*
X3857499Y52683D01*
X3857184Y52980D01*
X3856876Y53284D01*
X3856575Y53596D01*
X3856282Y53914D01*
X3855997Y54240D01*
X3855721Y54573D01*
X3855452Y54913D01*
X3855191Y55258D01*
X3854939Y55611D01*
X3854696Y55969D01*
X3854462Y56333D01*
X3854236Y56702D01*
X3854020Y57077D01*
X3853812Y57457D01*
X3853614Y57842D01*
X3853426Y58232D01*
X3853247Y58626D01*
X3853078Y59025D01*
X3852918Y59427D01*
X3852768Y59833D01*
X3852629Y60243D01*
X3852499Y60656D01*
X3852379Y61072D01*
X3852270Y61491D01*
X3852170Y61913D01*
X3852081Y62336D01*
X3852003Y62762D01*
X3851934Y63190D01*
X3851877Y63619D01*
X3851829Y64049D01*
X3851792Y64480D01*
X3851766Y64912D01*
X3851750Y65345D01*
X3851745Y65778D01*
X3851745Y83555D01*
X3851754Y84253D01*
X3851779Y84951D01*
X3851822Y85648D01*
X3851882Y86343D01*
X3851959Y87037D01*
X3852053Y87729D01*
X3852164Y88418D01*
X3852292Y89104D01*
X3852436Y89787D01*
X3852597Y90467D01*
X3852775Y91142D01*
X3852970Y91812D01*
X3853181Y92478D01*
X3853408Y93138D01*
X3853651Y93792D01*
X3853910Y94440D01*
X3854185Y95082D01*
X3854476Y95717D01*
X3854782Y96344D01*
X3855104Y96964D01*
X3855440Y97575D01*
X3855792Y98179D01*
X3856158Y98773D01*
X3856539Y99358D01*
X3856934Y99934D01*
X3857343Y100500D01*
X3857765Y101055D01*
X3858202Y101600D01*
X3858651Y102134D01*
X3859114Y102657D01*
X3859589Y103169D01*
X3860076Y103669D01*
X3860576Y104156D01*
X3861087Y104631D01*
X3861610Y105094D01*
X3862145Y105543D01*
X3862690Y105979D01*
X3863245Y106402D01*
X3863811Y106811D01*
X3864387Y107206D01*
X3864972Y107587D01*
X3865566Y107953D01*
X3866169Y108305D01*
X3866781Y108641D01*
X3867401Y108963D01*
X3868028Y109269D01*
X3868663Y109560D01*
X3869304Y109835D01*
X3869953Y110094D01*
X3870607Y110337D01*
X3871267Y110564D01*
X3871933Y110775D01*
X3872603Y110970D01*
X3873278Y111148D01*
X3873958Y111309D01*
X3874641Y111453D01*
X3875327Y111581D01*
X3876016Y111692D01*
X3876708Y111786D01*
X3877402Y111863D01*
X3878097Y111923D01*
X3878794Y111966D01*
X3879492Y111991D01*
X3880190Y112000D01*
X100000Y125000D02*
X50000Y125000D01*
X100000Y125000D02*
X125000Y100000D01*
X125000Y50000D01*
X100000Y25000D01*
X25000Y50000D02*
X25000Y100000D01*
X50000Y125000D01*
X25000Y50000D02*
X50000Y25000D01*
X100000Y25000D01*
X1900000Y125000D02*
X1950000Y125000D01*
X1975000Y100000D01*
X1975000Y50000D01*
X1950000Y25000D01*
X1875000Y50000D02*
X1875000Y100000D01*
X1900000Y125000D01*
X1875000Y50000D02*
X1900000Y25000D01*
X1950000Y25000D01*
X100000Y2400000D02*
X50000Y2400000D01*
X100000Y2400000D02*
X125000Y2375000D01*
X125000Y2325000D01*
X100000Y2300000D01*
X25000Y2325000D02*
X25000Y2375000D01*
X50000Y2400000D01*
X25000Y2325000D02*
X50000Y2300000D01*
X100000Y2300000D01*
X1900000Y2400000D02*
X1950000Y2400000D01*
X1975000Y2375000D01*
X1975000Y2325000D01*
X1950000Y2300000D01*
X1875000Y2325000D02*
X1875000Y2375000D01*
X1900000Y2400000D01*
X1875000Y2325000D02*
X1900000Y2300000D01*
X1950000Y2300000D01*
X2100000Y125000D02*
X2150000Y125000D01*
X2175000Y100000D01*
X2175000Y50000D01*
X2150000Y25000D01*
X2075000Y50000D02*
X2075000Y100000D01*
X2100000Y125000D01*
X2075000Y50000D02*
X2100000Y25000D01*
X2150000Y25000D01*
X3950000Y125000D02*
X4000000Y125000D01*
X4025000Y100000D01*
X4025000Y50000D01*
X4000000Y25000D01*
X3925000Y50000D02*
X3925000Y100000D01*
X3950000Y125000D01*
X3925000Y50000D02*
X3950000Y25000D01*
X4000000Y25000D01*
X2150000Y2400000D02*
X2100000Y2400000D01*
X2150000Y2400000D02*
X2175000Y2375000D01*
X2175000Y2325000D01*
X2150000Y2300000D01*
X2075000Y2325000D02*
X2075000Y2375000D01*
X2100000Y2400000D01*
X2075000Y2325000D02*
X2100000Y2300000D01*
X2150000Y2300000D01*
X3950000Y2400000D02*
X4000000Y2400000D01*
X4025000Y2375000D01*
X4025000Y2325000D01*
X4000000Y2300000D01*
X3925000Y2325000D02*
X3925000Y2375000D01*
X3950000Y2400000D01*
X3925000Y2325000D02*
X3950000Y2300000D01*
X4000000Y2300000D01*
D11*
X2273500Y2300889D02*
X2248833Y2300889D01*
X2261167Y2288555D02*
X2261167Y2313222D01*
D12*
X2248622Y2219094D03*
X2201378Y2219094D03*
D13*
X2225000Y2219094D03*
D11*
X2398833Y2300889D02*
X2423500Y2300889D01*
X2411167Y2313222D02*
X2411167Y2288555D01*
D12*
X2398622Y2219094D03*
X2351378Y2219094D03*
D13*
X2375000Y2219094D03*
D11*
X2548833Y2300889D02*
X2573500Y2300889D01*
X2561167Y2313222D02*
X2561167Y2288555D01*
D12*
X2548622Y2219094D03*
X2501378Y2219094D03*
D13*
X2525000Y2219094D03*
D11*
X2698833Y2300889D02*
X2723500Y2300889D01*
X2711167Y2313222D02*
X2711167Y2288555D01*
D12*
X2698622Y2219094D03*
X2651378Y2219094D03*
D13*
X2675000Y2219094D03*
D11*
X2848833Y2300889D02*
X2873500Y2300889D01*
X2861167Y2313222D02*
X2861167Y2288555D01*
D12*
X2848622Y2219094D03*
X2801378Y2219094D03*
D13*
X2825000Y2219094D03*
D11*
X2998833Y2300889D02*
X3023500Y2300889D01*
X3011167Y2313222D02*
X3011167Y2288555D01*
D12*
X2998622Y2219094D03*
X2951378Y2219094D03*
D13*
X2975000Y2219094D03*
D11*
X3148833Y2300889D02*
X3173500Y2300889D01*
X3161167Y2313222D02*
X3161167Y2288555D01*
D12*
X3148622Y2219094D03*
X3101378Y2219094D03*
D13*
X3125000Y2219094D03*
D11*
X3298833Y2300889D02*
X3323500Y2300889D01*
X3311167Y2313222D02*
X3311167Y2288555D01*
D12*
X3298622Y2219094D03*
X3251378Y2219094D03*
D13*
X3275000Y2219094D03*
D11*
X3448833Y2300889D02*
X3473500Y2300889D01*
X3461167Y2313222D02*
X3461167Y2288555D01*
D12*
X3448622Y2219094D03*
X3401378Y2219094D03*
D13*
X3425000Y2219094D03*
D11*
X3598833Y2300889D02*
X3623500Y2300889D01*
X3611167Y2313222D02*
X3611167Y2288555D01*
D12*
X3598622Y2219094D03*
X3551378Y2219094D03*
D13*
X3575000Y2219094D03*
D11*
X3748833Y2300889D02*
X3773500Y2300889D01*
X3761167Y2313222D02*
X3761167Y2288555D01*
D12*
X3748622Y2219094D03*
X3701378Y2219094D03*
D13*
X3725000Y2219094D03*
D11*
X3898833Y2300889D02*
X3923500Y2300889D01*
X3911167Y2313222D02*
X3911167Y2288555D01*
D12*
X3898622Y2219094D03*
X3851378Y2219094D03*
D13*
X3875000Y2219094D03*
D11*
X2273500Y2100889D02*
X2248833Y2100889D01*
X2261167Y2088555D02*
X2261167Y2113222D01*
D12*
X2248622Y2019094D03*
X2201378Y2019094D03*
D13*
X2225000Y2019094D03*
D11*
X2398833Y2100889D02*
X2423500Y2100889D01*
X2411167Y2113222D02*
X2411167Y2088555D01*
D12*
X2398622Y2019094D03*
X2351378Y2019094D03*
D13*
X2375000Y2019094D03*
D11*
X2548833Y2100889D02*
X2573500Y2100889D01*
X2561167Y2113222D02*
X2561167Y2088555D01*
D12*
X2548622Y2019094D03*
X2501378Y2019094D03*
D13*
X2525000Y2019094D03*
D11*
X2698833Y2100889D02*
X2723500Y2100889D01*
X2711167Y2113222D02*
X2711167Y2088555D01*
D12*
X2698622Y2019094D03*
X2651378Y2019094D03*
D13*
X2675000Y2019094D03*
D11*
X2848833Y2100889D02*
X2873500Y2100889D01*
X2861167Y2113222D02*
X2861167Y2088555D01*
D12*
X2848622Y2019094D03*
X2801378Y2019094D03*
D13*
X2825000Y2019094D03*
D11*
X2998833Y2100889D02*
X3023500Y2100889D01*
X3011167Y2113222D02*
X3011167Y2088555D01*
D12*
X2998622Y2019094D03*
X2951378Y2019094D03*
D13*
X2975000Y2019094D03*
D11*
X3148833Y2100889D02*
X3173500Y2100889D01*
X3161167Y2113222D02*
X3161167Y2088555D01*
D12*
X3148622Y2019094D03*
X3101378Y2019094D03*
D13*
X3125000Y2019094D03*
D11*
X3298833Y2100889D02*
X3323500Y2100889D01*
X3311167Y2113222D02*
X3311167Y2088555D01*
D12*
X3298622Y2019094D03*
X3251378Y2019094D03*
D13*
X3275000Y2019094D03*
D11*
X3448833Y2100889D02*
X3473500Y2100889D01*
X3461167Y2113222D02*
X3461167Y2088555D01*
D12*
X3448622Y2019094D03*
X3401378Y2019094D03*
D13*
X3425000Y2019094D03*
D11*
X3598833Y2100889D02*
X3623500Y2100889D01*
X3611167Y2113222D02*
X3611167Y2088555D01*
D12*
X3598622Y2019094D03*
X3551378Y2019094D03*
D13*
X3575000Y2019094D03*
D11*
X3748833Y2100889D02*
X3773500Y2100889D01*
X3761167Y2113222D02*
X3761167Y2088555D01*
D12*
X3748622Y2019094D03*
X3701378Y2019094D03*
D13*
X3725000Y2019094D03*
D11*
X3898833Y2100889D02*
X3923500Y2100889D01*
X3911167Y2113222D02*
X3911167Y2088555D01*
D12*
X3898622Y2019094D03*
X3851378Y2019094D03*
D13*
X3875000Y2019094D03*
D11*
X2273500Y1900889D02*
X2248833Y1900889D01*
X2261167Y1888555D02*
X2261167Y1913222D01*
D12*
X2248622Y1819094D03*
X2201378Y1819094D03*
D13*
X2225000Y1819094D03*
D11*
X2398833Y1900889D02*
X2423500Y1900889D01*
X2411167Y1913222D02*
X2411167Y1888555D01*
D12*
X2398622Y1819094D03*
X2351378Y1819094D03*
D13*
X2375000Y1819094D03*
D11*
X2548833Y1900889D02*
X2573500Y1900889D01*
X2561167Y1913222D02*
X2561167Y1888555D01*
D12*
X2548622Y1819094D03*
X2501378Y1819094D03*
D13*
X2525000Y1819094D03*
D11*
X2698833Y1900889D02*
X2723500Y1900889D01*
X2711167Y1913222D02*
X2711167Y1888555D01*
D12*
X2698622Y1819094D03*
X2651378Y1819094D03*
D13*
X2675000Y1819094D03*
D11*
X2848833Y1900889D02*
X2873500Y1900889D01*
X2861167Y1913222D02*
X2861167Y1888555D01*
D12*
X2848622Y1819094D03*
X2801378Y1819094D03*
D13*
X2825000Y1819094D03*
D11*
X2998833Y1900889D02*
X3023500Y1900889D01*
X3011167Y1913222D02*
X3011167Y1888555D01*
D12*
X2998622Y1819094D03*
X2951378Y1819094D03*
D13*
X2975000Y1819094D03*
D11*
X3148833Y1900889D02*
X3173500Y1900889D01*
X3161167Y1913222D02*
X3161167Y1888555D01*
D12*
X3148622Y1819094D03*
X3101378Y1819094D03*
D13*
X3125000Y1819094D03*
D11*
X3298833Y1900889D02*
X3323500Y1900889D01*
X3311167Y1913222D02*
X3311167Y1888555D01*
D12*
X3298622Y1819094D03*
X3251378Y1819094D03*
D13*
X3275000Y1819094D03*
D11*
X3448833Y1900889D02*
X3473500Y1900889D01*
X3461167Y1913222D02*
X3461167Y1888555D01*
D12*
X3448622Y1819094D03*
X3401378Y1819094D03*
D13*
X3425000Y1819094D03*
D11*
X3598833Y1900889D02*
X3623500Y1900889D01*
X3611167Y1913222D02*
X3611167Y1888555D01*
D12*
X3598622Y1819094D03*
X3551378Y1819094D03*
D13*
X3575000Y1819094D03*
D11*
X3748833Y1900889D02*
X3773500Y1900889D01*
X3761167Y1913222D02*
X3761167Y1888555D01*
D12*
X3748622Y1819094D03*
X3701378Y1819094D03*
D13*
X3725000Y1819094D03*
D11*
X3898833Y1900889D02*
X3923500Y1900889D01*
X3911167Y1913222D02*
X3911167Y1888555D01*
D12*
X3898622Y1819094D03*
X3851378Y1819094D03*
D13*
X3875000Y1819094D03*
D11*
X2273500Y1700889D02*
X2248833Y1700889D01*
X2261167Y1688555D02*
X2261167Y1713222D01*
D12*
X2248622Y1619094D03*
X2201378Y1619094D03*
D13*
X2225000Y1619094D03*
D11*
X2398833Y1700889D02*
X2423500Y1700889D01*
X2411167Y1713222D02*
X2411167Y1688555D01*
D12*
X2398622Y1619094D03*
X2351378Y1619094D03*
D13*
X2375000Y1619094D03*
D11*
X2548833Y1700889D02*
X2573500Y1700889D01*
X2561167Y1713222D02*
X2561167Y1688555D01*
D12*
X2548622Y1619094D03*
X2501378Y1619094D03*
D13*
X2525000Y1619094D03*
D11*
X2698833Y1700889D02*
X2723500Y1700889D01*
X2711167Y1713222D02*
X2711167Y1688555D01*
D12*
X2698622Y1619094D03*
X2651378Y1619094D03*
D13*
X2675000Y1619094D03*
D11*
X2848833Y1700889D02*
X2873500Y1700889D01*
X2861167Y1713222D02*
X2861167Y1688555D01*
D12*
X2848622Y1619094D03*
X2801378Y1619094D03*
D13*
X2825000Y1619094D03*
D11*
X2998833Y1700889D02*
X3023500Y1700889D01*
X3011167Y1713222D02*
X3011167Y1688555D01*
D12*
X2998622Y1619094D03*
X2951378Y1619094D03*
D13*
X2975000Y1619094D03*
D11*
X3148833Y1700889D02*
X3173500Y1700889D01*
X3161167Y1713222D02*
X3161167Y1688555D01*
D12*
X3148622Y1619094D03*
X3101378Y1619094D03*
D13*
X3125000Y1619094D03*
D11*
X3298833Y1700889D02*
X3323500Y1700889D01*
X3311167Y1713222D02*
X3311167Y1688555D01*
D12*
X3298622Y1619094D03*
X3251378Y1619094D03*
D13*
X3275000Y1619094D03*
D11*
X3448833Y1700889D02*
X3473500Y1700889D01*
X3461167Y1713222D02*
X3461167Y1688555D01*
D12*
X3448622Y1619094D03*
X3401378Y1619094D03*
D13*
X3425000Y1619094D03*
D11*
X3598833Y1700889D02*
X3623500Y1700889D01*
X3611167Y1713222D02*
X3611167Y1688555D01*
D12*
X3598622Y1619094D03*
X3551378Y1619094D03*
D13*
X3575000Y1619094D03*
D11*
X3748833Y1700889D02*
X3773500Y1700889D01*
X3761167Y1713222D02*
X3761167Y1688555D01*
D12*
X3748622Y1619094D03*
X3701378Y1619094D03*
D13*
X3725000Y1619094D03*
D11*
X3898833Y1700889D02*
X3923500Y1700889D01*
X3911167Y1713222D02*
X3911167Y1688555D01*
D12*
X3898622Y1619094D03*
X3851378Y1619094D03*
D13*
X3875000Y1619094D03*
D11*
X2273500Y1500889D02*
X2248833Y1500889D01*
X2261167Y1488555D02*
X2261167Y1513222D01*
D12*
X2248622Y1419094D03*
X2201378Y1419094D03*
D13*
X2225000Y1419094D03*
D11*
X2398833Y1500889D02*
X2423500Y1500889D01*
X2411167Y1513222D02*
X2411167Y1488555D01*
D12*
X2398622Y1419094D03*
X2351378Y1419094D03*
D13*
X2375000Y1419094D03*
D11*
X2548833Y1500889D02*
X2573500Y1500889D01*
X2561167Y1513222D02*
X2561167Y1488555D01*
D12*
X2548622Y1419094D03*
X2501378Y1419094D03*
D13*
X2525000Y1419094D03*
D11*
X2698833Y1500889D02*
X2723500Y1500889D01*
X2711167Y1513222D02*
X2711167Y1488555D01*
D12*
X2698622Y1419094D03*
X2651378Y1419094D03*
D13*
X2675000Y1419094D03*
D11*
X2848833Y1500889D02*
X2873500Y1500889D01*
X2861167Y1513222D02*
X2861167Y1488555D01*
D12*
X2848622Y1419094D03*
X2801378Y1419094D03*
D13*
X2825000Y1419094D03*
D11*
X2998833Y1500889D02*
X3023500Y1500889D01*
X3011167Y1513222D02*
X3011167Y1488555D01*
D12*
X2998622Y1419094D03*
X2951378Y1419094D03*
D13*
X2975000Y1419094D03*
D11*
X3148833Y1500889D02*
X3173500Y1500889D01*
X3161167Y1513222D02*
X3161167Y1488555D01*
D12*
X3148622Y1419094D03*
X3101378Y1419094D03*
D13*
X3125000Y1419094D03*
D11*
X3298833Y1500889D02*
X3323500Y1500889D01*
X3311167Y1513222D02*
X3311167Y1488555D01*
D12*
X3298622Y1419094D03*
X3251378Y1419094D03*
D13*
X3275000Y1419094D03*
D11*
X3448833Y1500889D02*
X3473500Y1500889D01*
X3461167Y1513222D02*
X3461167Y1488555D01*
D12*
X3448622Y1419094D03*
X3401378Y1419094D03*
D13*
X3425000Y1419094D03*
D11*
X3598833Y1500889D02*
X3623500Y1500889D01*
X3611167Y1513222D02*
X3611167Y1488555D01*
D12*
X3598622Y1419094D03*
X3551378Y1419094D03*
D13*
X3575000Y1419094D03*
D11*
X3748833Y1500889D02*
X3773500Y1500889D01*
X3761167Y1513222D02*
X3761167Y1488555D01*
D12*
X3748622Y1419094D03*
X3701378Y1419094D03*
D13*
X3725000Y1419094D03*
D11*
X3898833Y1500889D02*
X3923500Y1500889D01*
X3911167Y1513222D02*
X3911167Y1488555D01*
D12*
X3898622Y1419094D03*
X3851378Y1419094D03*
D13*
X3875000Y1419094D03*
D11*
X2273500Y1300889D02*
X2248833Y1300889D01*
X2261167Y1288555D02*
X2261167Y1313222D01*
D12*
X2248622Y1219094D03*
X2201378Y1219094D03*
D13*
X2225000Y1219094D03*
D11*
X2398833Y1300889D02*
X2423500Y1300889D01*
X2411167Y1313222D02*
X2411167Y1288555D01*
D12*
X2398622Y1219094D03*
X2351378Y1219094D03*
D13*
X2375000Y1219094D03*
D11*
X2548833Y1300889D02*
X2573500Y1300889D01*
X2561167Y1313222D02*
X2561167Y1288555D01*
D12*
X2548622Y1219094D03*
X2501378Y1219094D03*
D13*
X2525000Y1219094D03*
D11*
X2698833Y1300889D02*
X2723500Y1300889D01*
X2711167Y1313222D02*
X2711167Y1288555D01*
D12*
X2698622Y1219094D03*
X2651378Y1219094D03*
D13*
X2675000Y1219094D03*
D11*
X2848833Y1300889D02*
X2873500Y1300889D01*
X2861167Y1313222D02*
X2861167Y1288555D01*
D12*
X2848622Y1219094D03*
X2801378Y1219094D03*
D13*
X2825000Y1219094D03*
D11*
X2998833Y1300889D02*
X3023500Y1300889D01*
X3011167Y1313222D02*
X3011167Y1288555D01*
D12*
X2998622Y1219094D03*
X2951378Y1219094D03*
D13*
X2975000Y1219094D03*
D11*
X3148833Y1300889D02*
X3173500Y1300889D01*
X3161167Y1313222D02*
X3161167Y1288555D01*
D12*
X3148622Y1219094D03*
X3101378Y1219094D03*
D13*
X3125000Y1219094D03*
D11*
X3298833Y1300889D02*
X3323500Y1300889D01*
X3311167Y1313222D02*
X3311167Y1288555D01*
D12*
X3298622Y1219094D03*
X3251378Y1219094D03*
D13*
X3275000Y1219094D03*
D11*
X3448833Y1300889D02*
X3473500Y1300889D01*
X3461167Y1313222D02*
X3461167Y1288555D01*
D12*
X3448622Y1219094D03*
X3401378Y1219094D03*
D13*
X3425000Y1219094D03*
D11*
X3598833Y1300889D02*
X3623500Y1300889D01*
X3611167Y1313222D02*
X3611167Y1288555D01*
D12*
X3598622Y1219094D03*
X3551378Y1219094D03*
D13*
X3575000Y1219094D03*
D11*
X3748833Y1300889D02*
X3773500Y1300889D01*
X3761167Y1313222D02*
X3761167Y1288555D01*
D12*
X3748622Y1219094D03*
X3701378Y1219094D03*
D13*
X3725000Y1219094D03*
D11*
X3898833Y1300889D02*
X3923500Y1300889D01*
X3911167Y1313222D02*
X3911167Y1288555D01*
D12*
X3898622Y1219094D03*
X3851378Y1219094D03*
D13*
X3875000Y1219094D03*
D11*
X2273500Y1100889D02*
X2248833Y1100889D01*
X2261167Y1088555D02*
X2261167Y1113222D01*
D12*
X2248622Y1019094D03*
X2201378Y1019094D03*
D13*
X2225000Y1019094D03*
D11*
X2398833Y1100889D02*
X2423500Y1100889D01*
X2411167Y1113222D02*
X2411167Y1088555D01*
D12*
X2398622Y1019094D03*
X2351378Y1019094D03*
D13*
X2375000Y1019094D03*
D11*
X2548833Y1100889D02*
X2573500Y1100889D01*
X2561167Y1113222D02*
X2561167Y1088555D01*
D12*
X2548622Y1019094D03*
X2501378Y1019094D03*
D13*
X2525000Y1019094D03*
D11*
X2698833Y1100889D02*
X2723500Y1100889D01*
X2711167Y1113222D02*
X2711167Y1088555D01*
D12*
X2698622Y1019094D03*
X2651378Y1019094D03*
D13*
X2675000Y1019094D03*
D11*
X2848833Y1100889D02*
X2873500Y1100889D01*
X2861167Y1113222D02*
X2861167Y1088555D01*
D12*
X2848622Y1019094D03*
X2801378Y1019094D03*
D13*
X2825000Y1019094D03*
D11*
X2998833Y1100889D02*
X3023500Y1100889D01*
X3011167Y1113222D02*
X3011167Y1088555D01*
D12*
X2998622Y1019094D03*
X2951378Y1019094D03*
D13*
X2975000Y1019094D03*
D11*
X3148833Y1100889D02*
X3173500Y1100889D01*
X3161167Y1113222D02*
X3161167Y1088555D01*
D12*
X3148622Y1019094D03*
X3101378Y1019094D03*
D13*
X3125000Y1019094D03*
D11*
X3298833Y1100889D02*
X3323500Y1100889D01*
X3311167Y1113222D02*
X3311167Y1088555D01*
D12*
X3298622Y1019094D03*
X3251378Y1019094D03*
D13*
X3275000Y1019094D03*
D11*
X3448833Y1100889D02*
X3473500Y1100889D01*
X3461167Y1113222D02*
X3461167Y1088555D01*
D12*
X3448622Y1019094D03*
X3401378Y1019094D03*
D13*
X3425000Y1019094D03*
D11*
X3598833Y1100889D02*
X3623500Y1100889D01*
X3611167Y1113222D02*
X3611167Y1088555D01*
D12*
X3598622Y1019094D03*
X3551378Y1019094D03*
D13*
X3575000Y1019094D03*
D11*
X3748833Y1100889D02*
X3773500Y1100889D01*
X3761167Y1113222D02*
X3761167Y1088555D01*
D12*
X3748622Y1019094D03*
X3701378Y1019094D03*
D13*
X3725000Y1019094D03*
D11*
X3898833Y1100889D02*
X3923500Y1100889D01*
X3911167Y1113222D02*
X3911167Y1088555D01*
D12*
X3898622Y1019094D03*
X3851378Y1019094D03*
D13*
X3875000Y1019094D03*
D11*
X2273500Y900889D02*
X2248833Y900889D01*
X2261167Y888555D02*
X2261167Y913222D01*
D12*
X2248622Y819094D03*
X2201378Y819094D03*
D13*
X2225000Y819094D03*
D11*
X2398833Y900889D02*
X2423500Y900889D01*
X2411167Y913222D02*
X2411167Y888555D01*
D12*
X2398622Y819094D03*
X2351378Y819094D03*
D13*
X2375000Y819094D03*
D11*
X2548833Y900889D02*
X2573500Y900889D01*
X2561167Y913222D02*
X2561167Y888555D01*
D12*
X2548622Y819094D03*
X2501378Y819094D03*
D13*
X2525000Y819094D03*
D11*
X2698833Y900889D02*
X2723500Y900889D01*
X2711167Y913222D02*
X2711167Y888555D01*
D12*
X2698622Y819094D03*
X2651378Y819094D03*
D13*
X2675000Y819094D03*
D11*
X2848833Y900889D02*
X2873500Y900889D01*
X2861167Y913222D02*
X2861167Y888555D01*
D12*
X2848622Y819094D03*
X2801378Y819094D03*
D13*
X2825000Y819094D03*
D11*
X2998833Y900889D02*
X3023500Y900889D01*
X3011167Y913222D02*
X3011167Y888555D01*
D12*
X2998622Y819094D03*
X2951378Y819094D03*
D13*
X2975000Y819094D03*
D11*
X3148833Y900889D02*
X3173500Y900889D01*
X3161167Y913222D02*
X3161167Y888555D01*
D12*
X3148622Y819094D03*
X3101378Y819094D03*
D13*
X3125000Y819094D03*
D11*
X3298833Y900889D02*
X3323500Y900889D01*
X3311167Y913222D02*
X3311167Y888555D01*
D12*
X3298622Y819094D03*
X3251378Y819094D03*
D13*
X3275000Y819094D03*
D11*
X3448833Y900889D02*
X3473500Y900889D01*
X3461167Y913222D02*
X3461167Y888555D01*
D12*
X3448622Y819094D03*
X3401378Y819094D03*
D13*
X3425000Y819094D03*
D11*
X3598833Y900889D02*
X3623500Y900889D01*
X3611167Y913222D02*
X3611167Y888555D01*
D12*
X3598622Y819094D03*
X3551378Y819094D03*
D13*
X3575000Y819094D03*
D11*
X3748833Y900889D02*
X3773500Y900889D01*
X3761167Y913222D02*
X3761167Y888555D01*
D12*
X3748622Y819094D03*
X3701378Y819094D03*
D13*
X3725000Y819094D03*
D11*
X3898833Y900889D02*
X3923500Y900889D01*
X3911167Y913222D02*
X3911167Y888555D01*
D12*
X3898622Y819094D03*
X3851378Y819094D03*
D13*
X3875000Y819094D03*
D11*
X2273500Y700889D02*
X2248833Y700889D01*
X2261167Y688555D02*
X2261167Y713222D01*
D12*
X2248622Y619094D03*
X2201378Y619094D03*
D13*
X2225000Y619094D03*
D11*
X2398833Y700889D02*
X2423500Y700889D01*
X2411167Y713222D02*
X2411167Y688555D01*
D12*
X2398622Y619094D03*
X2351378Y619094D03*
D13*
X2375000Y619094D03*
D11*
X2548833Y700889D02*
X2573500Y700889D01*
X2561167Y713222D02*
X2561167Y688555D01*
D12*
X2548622Y619094D03*
X2501378Y619094D03*
D13*
X2525000Y619094D03*
D11*
X2698833Y700889D02*
X2723500Y700889D01*
X2711167Y713222D02*
X2711167Y688555D01*
D12*
X2698622Y619094D03*
X2651378Y619094D03*
D13*
X2675000Y619094D03*
D11*
X2848833Y700889D02*
X2873500Y700889D01*
X2861167Y713222D02*
X2861167Y688555D01*
D12*
X2848622Y619094D03*
X2801378Y619094D03*
D13*
X2825000Y619094D03*
D11*
X2998833Y700889D02*
X3023500Y700889D01*
X3011167Y713222D02*
X3011167Y688555D01*
D12*
X2998622Y619094D03*
X2951378Y619094D03*
D13*
X2975000Y619094D03*
D11*
X3148833Y700889D02*
X3173500Y700889D01*
X3161167Y713222D02*
X3161167Y688555D01*
D12*
X3148622Y619094D03*
X3101378Y619094D03*
D13*
X3125000Y619094D03*
D11*
X3298833Y700889D02*
X3323500Y700889D01*
X3311167Y713222D02*
X3311167Y688555D01*
D12*
X3298622Y619094D03*
X3251378Y619094D03*
D13*
X3275000Y619094D03*
D11*
X3448833Y700889D02*
X3473500Y700889D01*
X3461167Y713222D02*
X3461167Y688555D01*
D12*
X3448622Y619094D03*
X3401378Y619094D03*
D13*
X3425000Y619094D03*
D11*
X3598833Y700889D02*
X3623500Y700889D01*
X3611167Y713222D02*
X3611167Y688555D01*
D12*
X3598622Y619094D03*
X3551378Y619094D03*
D13*
X3575000Y619094D03*
D11*
X3748833Y700889D02*
X3773500Y700889D01*
X3761167Y713222D02*
X3761167Y688555D01*
D12*
X3748622Y619094D03*
X3701378Y619094D03*
D13*
X3725000Y619094D03*
D11*
X3898833Y700889D02*
X3923500Y700889D01*
X3911167Y713222D02*
X3911167Y688555D01*
D12*
X3898622Y619094D03*
X3851378Y619094D03*
D13*
X3875000Y619094D03*
D11*
X2273500Y500889D02*
X2248833Y500889D01*
X2261167Y488555D02*
X2261167Y513222D01*
D12*
X2248622Y419094D03*
X2201378Y419094D03*
D13*
X2225000Y419094D03*
D11*
X2398833Y500889D02*
X2423500Y500889D01*
X2411167Y513222D02*
X2411167Y488555D01*
D12*
X2398622Y419094D03*
X2351378Y419094D03*
D13*
X2375000Y419094D03*
D11*
X2548833Y500889D02*
X2573500Y500889D01*
X2561167Y513222D02*
X2561167Y488555D01*
D12*
X2548622Y419094D03*
X2501378Y419094D03*
D13*
X2525000Y419094D03*
D11*
X2698833Y500889D02*
X2723500Y500889D01*
X2711167Y513222D02*
X2711167Y488555D01*
D12*
X2698622Y419094D03*
X2651378Y419094D03*
D13*
X2675000Y419094D03*
D11*
X2848833Y500889D02*
X2873500Y500889D01*
X2861167Y513222D02*
X2861167Y488555D01*
D12*
X2848622Y419094D03*
X2801378Y419094D03*
D13*
X2825000Y419094D03*
D11*
X2998833Y500889D02*
X3023500Y500889D01*
X3011167Y513222D02*
X3011167Y488555D01*
D12*
X2998622Y419094D03*
X2951378Y419094D03*
D13*
X2975000Y419094D03*
D11*
X3148833Y500889D02*
X3173500Y500889D01*
X3161167Y513222D02*
X3161167Y488555D01*
D12*
X3148622Y419094D03*
X3101378Y419094D03*
D13*
X3125000Y419094D03*
D11*
X3298833Y500889D02*
X3323500Y500889D01*
X3311167Y513222D02*
X3311167Y488555D01*
D12*
X3298622Y419094D03*
X3251378Y419094D03*
D13*
X3275000Y419094D03*
D11*
X3448833Y500889D02*
X3473500Y500889D01*
X3461167Y513222D02*
X3461167Y488555D01*
D12*
X3448622Y419094D03*
X3401378Y419094D03*
D13*
X3425000Y419094D03*
D11*
X3598833Y500889D02*
X3623500Y500889D01*
X3611167Y513222D02*
X3611167Y488555D01*
D12*
X3598622Y419094D03*
X3551378Y419094D03*
D13*
X3575000Y419094D03*
D11*
X3748833Y500889D02*
X3773500Y500889D01*
X3761167Y513222D02*
X3761167Y488555D01*
D12*
X3748622Y419094D03*
X3701378Y419094D03*
D13*
X3725000Y419094D03*
D11*
X3898833Y500889D02*
X3923500Y500889D01*
X3911167Y513222D02*
X3911167Y488555D01*
D12*
X3898622Y419094D03*
X3851378Y419094D03*
D13*
X3875000Y419094D03*
D14*
X2610000Y295000D02*
X2440000Y295000D01*
X2440000Y55000D02*
X2610000Y55000D01*
X2645000Y135000D02*
X2645000Y214291D01*
X2405000Y215472D02*
X2405000Y135000D01*
X2455000Y175000D02*
X2455021Y176718D01*
X2455084Y178435D01*
X2455190Y180150D01*
X2455337Y181861D01*
X2455526Y183569D01*
X2455758Y185271D01*
X2456031Y186967D01*
X2456345Y188656D01*
X2456701Y190337D01*
X2457098Y192009D01*
X2457536Y193670D01*
X2458014Y195320D01*
X2458533Y196958D01*
X2459092Y198582D01*
X2459691Y200193D01*
X2460328Y201788D01*
X2461005Y203367D01*
X2461721Y204929D01*
X2462474Y206473D01*
X2463266Y207998D01*
X2464094Y209503D01*
X2464959Y210987D01*
X2465860Y212450D01*
X2466797Y213890D01*
X2467769Y215307D01*
X2468775Y216699D01*
X2469816Y218066D01*
X2470889Y219408D01*
X2471995Y220722D01*
X2473133Y222009D01*
X2474303Y223268D01*
X2475503Y224497D01*
X2476732Y225697D01*
X2477991Y226867D01*
X2479278Y228005D01*
X2480592Y229111D01*
X2481934Y230184D01*
X2483301Y231225D01*
X2484693Y232231D01*
X2486110Y233203D01*
X2487550Y234140D01*
X2489013Y235041D01*
X2490497Y235906D01*
X2492002Y236734D01*
X2493527Y237526D01*
X2495071Y238279D01*
X2496633Y238995D01*
X2498212Y239672D01*
X2499807Y240309D01*
X2501418Y240908D01*
X2503042Y241467D01*
X2504680Y241986D01*
X2506330Y242464D01*
X2507991Y242902D01*
X2509663Y243299D01*
X2511344Y243655D01*
X2513033Y243969D01*
X2514729Y244242D01*
X2516431Y244474D01*
X2518139Y244663D01*
X2519850Y244810D01*
X2521565Y244916D01*
X2523282Y244979D01*
X2525000Y245000D01*
X2526718Y244979D01*
X2528435Y244916D01*
X2530150Y244810D01*
X2531861Y244663D01*
X2533569Y244474D01*
X2535271Y244242D01*
X2536967Y243969D01*
X2538656Y243655D01*
X2540337Y243299D01*
X2542009Y242902D01*
X2543670Y242464D01*
X2545320Y241986D01*
X2546958Y241467D01*
X2548582Y240908D01*
X2550193Y240309D01*
X2551788Y239672D01*
X2553367Y238995D01*
X2554929Y238279D01*
X2556473Y237526D01*
X2557998Y236734D01*
X2559503Y235906D01*
X2560987Y235041D01*
X2562450Y234140D01*
X2563890Y233203D01*
X2565307Y232231D01*
X2566699Y231225D01*
X2568066Y230184D01*
X2569408Y229111D01*
X2570722Y228005D01*
X2572009Y226867D01*
X2573268Y225697D01*
X2574497Y224497D01*
X2575697Y223268D01*
X2576867Y222009D01*
X2578005Y220722D01*
X2579111Y219408D01*
X2580184Y218066D01*
X2581225Y216699D01*
X2582231Y215307D01*
X2583203Y213890D01*
X2584140Y212450D01*
X2585041Y210987D01*
X2585906Y209503D01*
X2586734Y207998D01*
X2587526Y206473D01*
X2588279Y204929D01*
X2588995Y203367D01*
X2589672Y201788D01*
X2590309Y200193D01*
X2590908Y198582D01*
X2591467Y196958D01*
X2591986Y195320D01*
X2592464Y193670D01*
X2592902Y192009D01*
X2593299Y190337D01*
X2593655Y188656D01*
X2593969Y186967D01*
X2594242Y185271D01*
X2594474Y183569D01*
X2594663Y181861D01*
X2594810Y180150D01*
X2594916Y178435D01*
X2594979Y176718D01*
X2595000Y175000D01*
X2594979Y173282D01*
X2594916Y171565D01*
X2594810Y169850D01*
X2594663Y168139D01*
X2594474Y166431D01*
X2594242Y164729D01*
X2593969Y163033D01*
X2593655Y161344D01*
X2593299Y159663D01*
X2592902Y157991D01*
X2592464Y156330D01*
X2591986Y154680D01*
X2591467Y153042D01*
X2590908Y151418D01*
X2590309Y149807D01*
X2589672Y148212D01*
X2588995Y146633D01*
X2588279Y145071D01*
X2587526Y143527D01*
X2586734Y142002D01*
X2585906Y140497D01*
X2585041Y139013D01*
X2584140Y137550D01*
X2583203Y136110D01*
X2582231Y134693D01*
X2581225Y133301D01*
X2580184Y131934D01*
X2579111Y130592D01*
X2578005Y129278D01*
X2576867Y127991D01*
X2575697Y126732D01*
X2574497Y125503D01*
X2573268Y124303D01*
X2572009Y123133D01*
X2570722Y121995D01*
X2569408Y120889D01*
X2568066Y119816D01*
X2566699Y118775D01*
X2565307Y117769D01*
X2563890Y116797D01*
X2562450Y115860D01*
X2560987Y114959D01*
X2559503Y114094D01*
X2557998Y113266D01*
X2556473Y112474D01*
X2554929Y111721D01*
X2553367Y111005D01*
X2551788Y110328D01*
X2550193Y109691D01*
X2548582Y109092D01*
X2546958Y108533D01*
X2545320Y108014D01*
X2543670Y107536D01*
X2542009Y107098D01*
X2540337Y106701D01*
X2538656Y106345D01*
X2536967Y106031D01*
X2535271Y105758D01*
X2533569Y105526D01*
X2531861Y105337D01*
X2530150Y105190D01*
X2528435Y105084D01*
X2526718Y105021D01*
X2525000Y105000D01*
X2523282Y105021D01*
X2521565Y105084D01*
X2519850Y105190D01*
X2518139Y105337D01*
X2516431Y105526D01*
X2514729Y105758D01*
X2513033Y106031D01*
X2511344Y106345D01*
X2509663Y106701D01*
X2507991Y107098D01*
X2506330Y107536D01*
X2504680Y108014D01*
X2503042Y108533D01*
X2501418Y109092D01*
X2499807Y109691D01*
X2498212Y110328D01*
X2496633Y111005D01*
X2495071Y111721D01*
X2493527Y112474D01*
X2492002Y113266D01*
X2490497Y114094D01*
X2489013Y114959D01*
X2487550Y115860D01*
X2486110Y116797D01*
X2484693Y117769D01*
X2483301Y118775D01*
X2481934Y119816D01*
X2480592Y120889D01*
X2479278Y121995D01*
X2477991Y123133D01*
X2476732Y124303D01*
X2475503Y125503D01*
X2474303Y126732D01*
X2473133Y127991D01*
X2471995Y129278D01*
X2470889Y130592D01*
X2469816Y131934D01*
X2468775Y133301D01*
X2467769Y134693D01*
X2466797Y136110D01*
X2465860Y137550D01*
X2464959Y139013D01*
X2464094Y140497D01*
X2463266Y142002D01*
X2462474Y143527D01*
X2461721Y145071D01*
X2461005Y146633D01*
X2460328Y148212D01*
X2459691Y149807D01*
X2459092Y151418D01*
X2458533Y153042D01*
X2458014Y154680D01*
X2457536Y156330D01*
X2457098Y157991D01*
X2456701Y159663D01*
X2456345Y161344D01*
X2456031Y163033D01*
X2455758Y164729D01*
X2455526Y166431D01*
X2455337Y168139D01*
X2455190Y169850D01*
X2455084Y171565D01*
X2455021Y173282D01*
X2455000Y175000D01*
D15*
X2508077Y307500D02*
X2508077Y326500D01*
X2508077Y318055D02*
X2518632Y318055D01*
X2518632Y326500D02*
X2518632Y307500D01*
X2531368Y307500D02*
X2531368Y326500D01*
X2536645Y326500D01*
X2536789Y326498D01*
X2536933Y326492D01*
X2537077Y326482D01*
X2537221Y326469D01*
X2537364Y326451D01*
X2537506Y326429D01*
X2537648Y326404D01*
X2537789Y326374D01*
X2537930Y326341D01*
X2538069Y326304D01*
X2538207Y326263D01*
X2538344Y326219D01*
X2538480Y326171D01*
X2538615Y326119D01*
X2538748Y326063D01*
X2538879Y326004D01*
X2539009Y325941D01*
X2539137Y325875D01*
X2539263Y325805D01*
X2539387Y325732D01*
X2539510Y325655D01*
X2539630Y325575D01*
X2539747Y325492D01*
X2539863Y325406D01*
X2539976Y325316D01*
X2540086Y325224D01*
X2540194Y325128D01*
X2540300Y325030D01*
X2540403Y324929D01*
X2540502Y324825D01*
X2540599Y324718D01*
X2540693Y324608D01*
X2540784Y324497D01*
X2540872Y324382D01*
X2540957Y324266D01*
X2541038Y324147D01*
X2541117Y324026D01*
X2541192Y323903D01*
X2541263Y323777D01*
X2541331Y323650D01*
X2541396Y323521D01*
X2541457Y323391D01*
X2541514Y323258D01*
X2541568Y323125D01*
X2541618Y322989D01*
X2541665Y322853D01*
X2541707Y322715D01*
X2541746Y322576D01*
X2541781Y322437D01*
X2541813Y322296D01*
X2541840Y322154D01*
X2541864Y322012D01*
X2541883Y321869D01*
X2541899Y321726D01*
X2541911Y321582D01*
X2541919Y321438D01*
X2541923Y321294D01*
X2541923Y321150D01*
X2541919Y321006D01*
X2541911Y320862D01*
X2541899Y320718D01*
X2541883Y320575D01*
X2541864Y320432D01*
X2541840Y320290D01*
X2541813Y320148D01*
X2541781Y320007D01*
X2541746Y319868D01*
X2541707Y319729D01*
X2541665Y319591D01*
X2541618Y319455D01*
X2541568Y319319D01*
X2541514Y319186D01*
X2541457Y319053D01*
X2541396Y318923D01*
X2541331Y318794D01*
X2541263Y318667D01*
X2541192Y318541D01*
X2541117Y318418D01*
X2541038Y318297D01*
X2540957Y318178D01*
X2540872Y318062D01*
X2540784Y317947D01*
X2540693Y317836D01*
X2540599Y317726D01*
X2540502Y317619D01*
X2540403Y317515D01*
X2540300Y317414D01*
X2540194Y317316D01*
X2540086Y317220D01*
X2539976Y317128D01*
X2539863Y317038D01*
X2539747Y316952D01*
X2539630Y316869D01*
X2539510Y316789D01*
X2539387Y316712D01*
X2539263Y316639D01*
X2539137Y316569D01*
X2539009Y316503D01*
X2538879Y316440D01*
X2538748Y316381D01*
X2538615Y316325D01*
X2538480Y316273D01*
X2538344Y316225D01*
X2538207Y316181D01*
X2538069Y316140D01*
X2537930Y316103D01*
X2537789Y316070D01*
X2537648Y316040D01*
X2537506Y316015D01*
X2537364Y315993D01*
X2537221Y315975D01*
X2537077Y315962D01*
X2536933Y315952D01*
X2536789Y315946D01*
X2536645Y315944D01*
X2531368Y315944D01*
X2537701Y315944D02*
X2541923Y307500D01*
D14*
X2815000Y295000D02*
X2985000Y295000D01*
X2985000Y55000D02*
X2815000Y55000D01*
X3020000Y135000D02*
X3020000Y214291D01*
X2780000Y215472D02*
X2780000Y135000D01*
X2830000Y175000D02*
X2830021Y176718D01*
X2830084Y178435D01*
X2830190Y180150D01*
X2830337Y181861D01*
X2830526Y183569D01*
X2830758Y185271D01*
X2831031Y186967D01*
X2831345Y188656D01*
X2831701Y190337D01*
X2832098Y192009D01*
X2832536Y193670D01*
X2833014Y195320D01*
X2833533Y196958D01*
X2834092Y198582D01*
X2834691Y200193D01*
X2835328Y201788D01*
X2836005Y203367D01*
X2836721Y204929D01*
X2837474Y206473D01*
X2838266Y207998D01*
X2839094Y209503D01*
X2839959Y210987D01*
X2840860Y212450D01*
X2841797Y213890D01*
X2842769Y215307D01*
X2843775Y216699D01*
X2844816Y218066D01*
X2845889Y219408D01*
X2846995Y220722D01*
X2848133Y222009D01*
X2849303Y223268D01*
X2850503Y224497D01*
X2851732Y225697D01*
X2852991Y226867D01*
X2854278Y228005D01*
X2855592Y229111D01*
X2856934Y230184D01*
X2858301Y231225D01*
X2859693Y232231D01*
X2861110Y233203D01*
X2862550Y234140D01*
X2864013Y235041D01*
X2865497Y235906D01*
X2867002Y236734D01*
X2868527Y237526D01*
X2870071Y238279D01*
X2871633Y238995D01*
X2873212Y239672D01*
X2874807Y240309D01*
X2876418Y240908D01*
X2878042Y241467D01*
X2879680Y241986D01*
X2881330Y242464D01*
X2882991Y242902D01*
X2884663Y243299D01*
X2886344Y243655D01*
X2888033Y243969D01*
X2889729Y244242D01*
X2891431Y244474D01*
X2893139Y244663D01*
X2894850Y244810D01*
X2896565Y244916D01*
X2898282Y244979D01*
X2900000Y245000D01*
X2901718Y244979D01*
X2903435Y244916D01*
X2905150Y244810D01*
X2906861Y244663D01*
X2908569Y244474D01*
X2910271Y244242D01*
X2911967Y243969D01*
X2913656Y243655D01*
X2915337Y243299D01*
X2917009Y242902D01*
X2918670Y242464D01*
X2920320Y241986D01*
X2921958Y241467D01*
X2923582Y240908D01*
X2925193Y240309D01*
X2926788Y239672D01*
X2928367Y238995D01*
X2929929Y238279D01*
X2931473Y237526D01*
X2932998Y236734D01*
X2934503Y235906D01*
X2935987Y235041D01*
X2937450Y234140D01*
X2938890Y233203D01*
X2940307Y232231D01*
X2941699Y231225D01*
X2943066Y230184D01*
X2944408Y229111D01*
X2945722Y228005D01*
X2947009Y226867D01*
X2948268Y225697D01*
X2949497Y224497D01*
X2950697Y223268D01*
X2951867Y222009D01*
X2953005Y220722D01*
X2954111Y219408D01*
X2955184Y218066D01*
X2956225Y216699D01*
X2957231Y215307D01*
X2958203Y213890D01*
X2959140Y212450D01*
X2960041Y210987D01*
X2960906Y209503D01*
X2961734Y207998D01*
X2962526Y206473D01*
X2963279Y204929D01*
X2963995Y203367D01*
X2964672Y201788D01*
X2965309Y200193D01*
X2965908Y198582D01*
X2966467Y196958D01*
X2966986Y195320D01*
X2967464Y193670D01*
X2967902Y192009D01*
X2968299Y190337D01*
X2968655Y188656D01*
X2968969Y186967D01*
X2969242Y185271D01*
X2969474Y183569D01*
X2969663Y181861D01*
X2969810Y180150D01*
X2969916Y178435D01*
X2969979Y176718D01*
X2970000Y175000D01*
X2969979Y173282D01*
X2969916Y171565D01*
X2969810Y169850D01*
X2969663Y168139D01*
X2969474Y166431D01*
X2969242Y164729D01*
X2968969Y163033D01*
X2968655Y161344D01*
X2968299Y159663D01*
X2967902Y157991D01*
X2967464Y156330D01*
X2966986Y154680D01*
X2966467Y153042D01*
X2965908Y151418D01*
X2965309Y149807D01*
X2964672Y148212D01*
X2963995Y146633D01*
X2963279Y145071D01*
X2962526Y143527D01*
X2961734Y142002D01*
X2960906Y140497D01*
X2960041Y139013D01*
X2959140Y137550D01*
X2958203Y136110D01*
X2957231Y134693D01*
X2956225Y133301D01*
X2955184Y131934D01*
X2954111Y130592D01*
X2953005Y129278D01*
X2951867Y127991D01*
X2950697Y126732D01*
X2949497Y125503D01*
X2948268Y124303D01*
X2947009Y123133D01*
X2945722Y121995D01*
X2944408Y120889D01*
X2943066Y119816D01*
X2941699Y118775D01*
X2940307Y117769D01*
X2938890Y116797D01*
X2937450Y115860D01*
X2935987Y114959D01*
X2934503Y114094D01*
X2932998Y113266D01*
X2931473Y112474D01*
X2929929Y111721D01*
X2928367Y111005D01*
X2926788Y110328D01*
X2925193Y109691D01*
X2923582Y109092D01*
X2921958Y108533D01*
X2920320Y108014D01*
X2918670Y107536D01*
X2917009Y107098D01*
X2915337Y106701D01*
X2913656Y106345D01*
X2911967Y106031D01*
X2910271Y105758D01*
X2908569Y105526D01*
X2906861Y105337D01*
X2905150Y105190D01*
X2903435Y105084D01*
X2901718Y105021D01*
X2900000Y105000D01*
X2898282Y105021D01*
X2896565Y105084D01*
X2894850Y105190D01*
X2893139Y105337D01*
X2891431Y105526D01*
X2889729Y105758D01*
X2888033Y106031D01*
X2886344Y106345D01*
X2884663Y106701D01*
X2882991Y107098D01*
X2881330Y107536D01*
X2879680Y108014D01*
X2878042Y108533D01*
X2876418Y109092D01*
X2874807Y109691D01*
X2873212Y110328D01*
X2871633Y111005D01*
X2870071Y111721D01*
X2868527Y112474D01*
X2867002Y113266D01*
X2865497Y114094D01*
X2864013Y114959D01*
X2862550Y115860D01*
X2861110Y116797D01*
X2859693Y117769D01*
X2858301Y118775D01*
X2856934Y119816D01*
X2855592Y120889D01*
X2854278Y121995D01*
X2852991Y123133D01*
X2851732Y124303D01*
X2850503Y125503D01*
X2849303Y126732D01*
X2848133Y127991D01*
X2846995Y129278D01*
X2845889Y130592D01*
X2844816Y131934D01*
X2843775Y133301D01*
X2842769Y134693D01*
X2841797Y136110D01*
X2840860Y137550D01*
X2839959Y139013D01*
X2839094Y140497D01*
X2838266Y142002D01*
X2837474Y143527D01*
X2836721Y145071D01*
X2836005Y146633D01*
X2835328Y148212D01*
X2834691Y149807D01*
X2834092Y151418D01*
X2833533Y153042D01*
X2833014Y154680D01*
X2832536Y156330D01*
X2832098Y157991D01*
X2831701Y159663D01*
X2831345Y161344D01*
X2831031Y163033D01*
X2830758Y164729D01*
X2830526Y166431D01*
X2830337Y168139D01*
X2830190Y169850D01*
X2830084Y171565D01*
X2830021Y173282D01*
X2830000Y175000D01*
D15*
X2881954Y307500D02*
X2881954Y326500D01*
X2888288Y315944D01*
X2894621Y326500D01*
X2894621Y307500D01*
X2907490Y307500D02*
X2907490Y326500D01*
X2918046Y307500D01*
X2918046Y326500D01*
M02*
