G04 EAGLE Gerber X2 export*
%TF.Part,Single*%
%TF.FileFunction,Paste,Top*%
%TF.FilePolarity,Positive*%
%TF.GenerationSoftware,Autodesk,EAGLE,9.0.1*%
%TF.CreationDate,2019-03-04T21:36:33Z*%
G75*
%MOIN*%
%FSLAX36Y36*%
%LPD*%
%AMOC8*
5,1,8,0,0,1.08239X$1,22.5*%
G01*
%ADD10R,0.047244X0.047244*%


D10*
X2225000Y2183661D03*
X2225000Y2266339D03*
X2375000Y2183661D03*
X2375000Y2266339D03*
X2525000Y2183661D03*
X2525000Y2266339D03*
X2675000Y2183661D03*
X2675000Y2266339D03*
X2825000Y2183661D03*
X2825000Y2266339D03*
X2975000Y2183661D03*
X2975000Y2266339D03*
X3125000Y2183661D03*
X3125000Y2266339D03*
X3275000Y2183661D03*
X3275000Y2266339D03*
X3425000Y2183661D03*
X3425000Y2266339D03*
X3575000Y2183661D03*
X3575000Y2266339D03*
X3725000Y2183661D03*
X3725000Y2266339D03*
X3875000Y2183661D03*
X3875000Y2266339D03*
X2225000Y1983661D03*
X2225000Y2066339D03*
X2375000Y1983661D03*
X2375000Y2066339D03*
X2525000Y1983661D03*
X2525000Y2066339D03*
X2675000Y1983661D03*
X2675000Y2066339D03*
X2825000Y1983661D03*
X2825000Y2066339D03*
X2975000Y1983661D03*
X2975000Y2066339D03*
X3125000Y1983661D03*
X3125000Y2066339D03*
X3275000Y1983661D03*
X3275000Y2066339D03*
X3425000Y1983661D03*
X3425000Y2066339D03*
X3575000Y1983661D03*
X3575000Y2066339D03*
X3725000Y1983661D03*
X3725000Y2066339D03*
X3875000Y1983661D03*
X3875000Y2066339D03*
X2225000Y1783661D03*
X2225000Y1866339D03*
X2375000Y1783661D03*
X2375000Y1866339D03*
X2525000Y1783661D03*
X2525000Y1866339D03*
X2675000Y1783661D03*
X2675000Y1866339D03*
X2825000Y1783661D03*
X2825000Y1866339D03*
X2975000Y1783661D03*
X2975000Y1866339D03*
X3125000Y1783661D03*
X3125000Y1866339D03*
X3275000Y1783661D03*
X3275000Y1866339D03*
X3425000Y1783661D03*
X3425000Y1866339D03*
X3575000Y1783661D03*
X3575000Y1866339D03*
X3725000Y1783661D03*
X3725000Y1866339D03*
X3875000Y1783661D03*
X3875000Y1866339D03*
X2225000Y1583661D03*
X2225000Y1666339D03*
X2375000Y1583661D03*
X2375000Y1666339D03*
X2525000Y1583661D03*
X2525000Y1666339D03*
X2675000Y1583661D03*
X2675000Y1666339D03*
X2825000Y1583661D03*
X2825000Y1666339D03*
X2975000Y1583661D03*
X2975000Y1666339D03*
X3125000Y1583661D03*
X3125000Y1666339D03*
X3275000Y1583661D03*
X3275000Y1666339D03*
X3425000Y1583661D03*
X3425000Y1666339D03*
X3575000Y1583661D03*
X3575000Y1666339D03*
X3725000Y1583661D03*
X3725000Y1666339D03*
X3875000Y1583661D03*
X3875000Y1666339D03*
X2225000Y1383661D03*
X2225000Y1466339D03*
X2375000Y1383661D03*
X2375000Y1466339D03*
X2525000Y1383661D03*
X2525000Y1466339D03*
X2675000Y1383661D03*
X2675000Y1466339D03*
X2825000Y1383661D03*
X2825000Y1466339D03*
X2975000Y1383661D03*
X2975000Y1466339D03*
X3125000Y1383661D03*
X3125000Y1466339D03*
X3275000Y1383661D03*
X3275000Y1466339D03*
X3425000Y1383661D03*
X3425000Y1466339D03*
X3575000Y1383661D03*
X3575000Y1466339D03*
X3725000Y1383661D03*
X3725000Y1466339D03*
X3875000Y1383661D03*
X3875000Y1466339D03*
X2225000Y1183661D03*
X2225000Y1266339D03*
X2375000Y1183661D03*
X2375000Y1266339D03*
X2525000Y1183661D03*
X2525000Y1266339D03*
X2675000Y1183661D03*
X2675000Y1266339D03*
X2825000Y1183661D03*
X2825000Y1266339D03*
X2975000Y1183661D03*
X2975000Y1266339D03*
X3125000Y1183661D03*
X3125000Y1266339D03*
X3275000Y1183661D03*
X3275000Y1266339D03*
X3425000Y1183661D03*
X3425000Y1266339D03*
X3575000Y1183661D03*
X3575000Y1266339D03*
X3725000Y1183661D03*
X3725000Y1266339D03*
X3875000Y1183661D03*
X3875000Y1266339D03*
X2225000Y983661D03*
X2225000Y1066339D03*
X2375000Y983661D03*
X2375000Y1066339D03*
X2525000Y983661D03*
X2525000Y1066339D03*
X2675000Y983661D03*
X2675000Y1066339D03*
X2825000Y983661D03*
X2825000Y1066339D03*
X2975000Y983661D03*
X2975000Y1066339D03*
X3125000Y983661D03*
X3125000Y1066339D03*
X3275000Y983661D03*
X3275000Y1066339D03*
X3425000Y983661D03*
X3425000Y1066339D03*
X3575000Y983661D03*
X3575000Y1066339D03*
X3725000Y983661D03*
X3725000Y1066339D03*
X3875000Y983661D03*
X3875000Y1066339D03*
X2225000Y783661D03*
X2225000Y866339D03*
X2375000Y783661D03*
X2375000Y866339D03*
X2525000Y783661D03*
X2525000Y866339D03*
X2675000Y783661D03*
X2675000Y866339D03*
X2825000Y783661D03*
X2825000Y866339D03*
X2975000Y783661D03*
X2975000Y866339D03*
X3125000Y783661D03*
X3125000Y866339D03*
X3275000Y783661D03*
X3275000Y866339D03*
X3425000Y783661D03*
X3425000Y866339D03*
X3575000Y783661D03*
X3575000Y866339D03*
X3725000Y783661D03*
X3725000Y866339D03*
X3875000Y783661D03*
X3875000Y866339D03*
X2225000Y583661D03*
X2225000Y666339D03*
X2375000Y583661D03*
X2375000Y666339D03*
X2525000Y583661D03*
X2525000Y666339D03*
X2675000Y583661D03*
X2675000Y666339D03*
X2825000Y583661D03*
X2825000Y666339D03*
X2975000Y583661D03*
X2975000Y666339D03*
X3125000Y583661D03*
X3125000Y666339D03*
X3275000Y583661D03*
X3275000Y666339D03*
X3425000Y583661D03*
X3425000Y666339D03*
X3575000Y583661D03*
X3575000Y666339D03*
X3725000Y583661D03*
X3725000Y666339D03*
X3875000Y583661D03*
X3875000Y666339D03*
X2225000Y383661D03*
X2225000Y466339D03*
X2375000Y383661D03*
X2375000Y466339D03*
X2525000Y383661D03*
X2525000Y466339D03*
X2675000Y383661D03*
X2675000Y466339D03*
X2825000Y383661D03*
X2825000Y466339D03*
X2975000Y383661D03*
X2975000Y466339D03*
X3125000Y383661D03*
X3125000Y466339D03*
X3275000Y383661D03*
X3275000Y466339D03*
X3425000Y383661D03*
X3425000Y466339D03*
X3575000Y383661D03*
X3575000Y466339D03*
X3725000Y383661D03*
X3725000Y466339D03*
X3875000Y383661D03*
X3875000Y466339D03*
M02*
