G04 EAGLE Gerber X2 export*
%TF.Part,Single*%
%TF.FileFunction,Paste,Bot*%
%TF.FilePolarity,Positive*%
%TF.GenerationSoftware,Autodesk,EAGLE,9.0.1*%
%TF.CreationDate,2019-03-04T21:36:33Z*%
G75*
%MOIN*%
%FSLAX36Y36*%
%LPD*%
%AMOC8*
5,1,8,0,0,1.08239X$1,22.5*%
G01*
%ADD10R,0.051181X0.059055*%
%ADD11R,0.019000X0.058000*%
%ADD12R,0.062992X0.051181*%
%ADD13R,0.022000X0.058000*%
%ADD14R,0.039370X0.070866*%


D10*
X2773465Y1150000D03*
X2706535Y1150000D03*
D11*
G36*
X3014998Y1081401D02*
X3028433Y1067966D01*
X2987422Y1026955D01*
X2973987Y1040390D01*
X3014998Y1081401D01*
G37*
G36*
X2993077Y1103321D02*
X3006512Y1089886D01*
X2965501Y1048875D01*
X2952066Y1062310D01*
X2993077Y1103321D01*
G37*
G36*
X2970450Y1125949D02*
X2983885Y1112514D01*
X2942874Y1071503D01*
X2929439Y1084938D01*
X2970450Y1125949D01*
G37*
G36*
X2948530Y1147869D02*
X2961965Y1134434D01*
X2920954Y1093423D01*
X2907519Y1106858D01*
X2948530Y1147869D01*
G37*
G36*
X2925902Y1170496D02*
X2939337Y1157061D01*
X2898326Y1116050D01*
X2884891Y1129485D01*
X2925902Y1170496D01*
G37*
G36*
X2903982Y1192417D02*
X2917417Y1178982D01*
X2876406Y1137971D01*
X2862971Y1151406D01*
X2903982Y1192417D01*
G37*
G36*
X2882062Y1214337D02*
X2895497Y1200902D01*
X2854486Y1159891D01*
X2841051Y1173326D01*
X2882062Y1214337D01*
G37*
G36*
X2859434Y1236965D02*
X2872869Y1223530D01*
X2831858Y1182519D01*
X2818423Y1195954D01*
X2859434Y1236965D01*
G37*
G36*
X2837514Y1258885D02*
X2850949Y1245450D01*
X2809938Y1204439D01*
X2796503Y1217874D01*
X2837514Y1258885D01*
G37*
G36*
X2814886Y1281512D02*
X2828321Y1268077D01*
X2787310Y1227066D01*
X2773875Y1240501D01*
X2814886Y1281512D01*
G37*
G36*
X2792966Y1303433D02*
X2806401Y1289998D01*
X2765390Y1248987D01*
X2751955Y1262422D01*
X2792966Y1303433D01*
G37*
G36*
X2751955Y1387578D02*
X2765390Y1401013D01*
X2806401Y1360002D01*
X2792966Y1346567D01*
X2751955Y1387578D01*
G37*
G36*
X2773875Y1409499D02*
X2787310Y1422934D01*
X2828321Y1381923D01*
X2814886Y1368488D01*
X2773875Y1409499D01*
G37*
G36*
X2796503Y1432126D02*
X2809938Y1445561D01*
X2850949Y1404550D01*
X2837514Y1391115D01*
X2796503Y1432126D01*
G37*
G36*
X2818423Y1454046D02*
X2831858Y1467481D01*
X2872869Y1426470D01*
X2859434Y1413035D01*
X2818423Y1454046D01*
G37*
G36*
X2841051Y1476674D02*
X2854486Y1490109D01*
X2895497Y1449098D01*
X2882062Y1435663D01*
X2841051Y1476674D01*
G37*
G36*
X2862971Y1498594D02*
X2876406Y1512029D01*
X2917417Y1471018D01*
X2903982Y1457583D01*
X2862971Y1498594D01*
G37*
G36*
X2884891Y1520514D02*
X2898326Y1533949D01*
X2939337Y1492938D01*
X2925902Y1479503D01*
X2884891Y1520514D01*
G37*
G36*
X2907519Y1543142D02*
X2920954Y1556577D01*
X2961965Y1515566D01*
X2948530Y1502131D01*
X2907519Y1543142D01*
G37*
G36*
X2929439Y1565062D02*
X2942874Y1578497D01*
X2983885Y1537486D01*
X2970450Y1524051D01*
X2929439Y1565062D01*
G37*
G36*
X2952066Y1587690D02*
X2965501Y1601125D01*
X3006512Y1560114D01*
X2993077Y1546679D01*
X2952066Y1587690D01*
G37*
G36*
X2973987Y1609610D02*
X2987422Y1623045D01*
X3028433Y1582034D01*
X3014998Y1568599D01*
X2973987Y1609610D01*
G37*
G36*
X3112578Y1623045D02*
X3126013Y1609610D01*
X3085002Y1568599D01*
X3071567Y1582034D01*
X3112578Y1623045D01*
G37*
G36*
X3134499Y1601125D02*
X3147934Y1587690D01*
X3106923Y1546679D01*
X3093488Y1560114D01*
X3134499Y1601125D01*
G37*
G36*
X3157126Y1578497D02*
X3170561Y1565062D01*
X3129550Y1524051D01*
X3116115Y1537486D01*
X3157126Y1578497D01*
G37*
G36*
X3179046Y1556577D02*
X3192481Y1543142D01*
X3151470Y1502131D01*
X3138035Y1515566D01*
X3179046Y1556577D01*
G37*
G36*
X3201674Y1533949D02*
X3215109Y1520514D01*
X3174098Y1479503D01*
X3160663Y1492938D01*
X3201674Y1533949D01*
G37*
G36*
X3223594Y1512029D02*
X3237029Y1498594D01*
X3196018Y1457583D01*
X3182583Y1471018D01*
X3223594Y1512029D01*
G37*
G36*
X3245515Y1490109D02*
X3258950Y1476674D01*
X3217939Y1435663D01*
X3204504Y1449098D01*
X3245515Y1490109D01*
G37*
G36*
X3268142Y1467481D02*
X3281577Y1454046D01*
X3240566Y1413035D01*
X3227131Y1426470D01*
X3268142Y1467481D01*
G37*
G36*
X3290062Y1445561D02*
X3303497Y1432126D01*
X3262486Y1391115D01*
X3249051Y1404550D01*
X3290062Y1445561D01*
G37*
G36*
X3312690Y1422934D02*
X3326125Y1409499D01*
X3285114Y1368488D01*
X3271679Y1381923D01*
X3312690Y1422934D01*
G37*
G36*
X3334610Y1401013D02*
X3348045Y1387578D01*
X3307034Y1346567D01*
X3293599Y1360002D01*
X3334610Y1401013D01*
G37*
G36*
X3293599Y1289998D02*
X3307034Y1303433D01*
X3348045Y1262422D01*
X3334610Y1248987D01*
X3293599Y1289998D01*
G37*
G36*
X3271679Y1268077D02*
X3285114Y1281512D01*
X3326125Y1240501D01*
X3312690Y1227066D01*
X3271679Y1268077D01*
G37*
G36*
X3249051Y1245450D02*
X3262486Y1258885D01*
X3303497Y1217874D01*
X3290062Y1204439D01*
X3249051Y1245450D01*
G37*
G36*
X3227131Y1223530D02*
X3240566Y1236965D01*
X3281577Y1195954D01*
X3268142Y1182519D01*
X3227131Y1223530D01*
G37*
G36*
X3204504Y1200902D02*
X3217939Y1214337D01*
X3258950Y1173326D01*
X3245515Y1159891D01*
X3204504Y1200902D01*
G37*
G36*
X3182583Y1178982D02*
X3196018Y1192417D01*
X3237029Y1151406D01*
X3223594Y1137971D01*
X3182583Y1178982D01*
G37*
G36*
X3160663Y1157061D02*
X3174098Y1170496D01*
X3215109Y1129485D01*
X3201674Y1116050D01*
X3160663Y1157061D01*
G37*
G36*
X3138035Y1134434D02*
X3151470Y1147869D01*
X3192481Y1106858D01*
X3179046Y1093423D01*
X3138035Y1134434D01*
G37*
G36*
X3116115Y1112514D02*
X3129550Y1125949D01*
X3170561Y1084938D01*
X3157126Y1071503D01*
X3116115Y1112514D01*
G37*
G36*
X3093488Y1089886D02*
X3106923Y1103321D01*
X3147934Y1062310D01*
X3134499Y1048875D01*
X3093488Y1089886D01*
G37*
G36*
X3071567Y1067966D02*
X3085002Y1081401D01*
X3126013Y1040390D01*
X3112578Y1026955D01*
X3071567Y1067966D01*
G37*
D12*
X3875000Y2112598D03*
X3875000Y2187402D03*
X3700000Y1912598D03*
X3700000Y1987402D03*
X3550000Y1712598D03*
X3550000Y1787402D03*
X3400000Y1512598D03*
X3400000Y1587402D03*
X3550000Y1312598D03*
X3550000Y1387402D03*
X3700000Y1112598D03*
X3700000Y1187402D03*
X3850000Y912598D03*
X3850000Y987402D03*
X3700000Y712598D03*
X3700000Y787402D03*
X3550000Y512598D03*
X3550000Y587402D03*
X3400000Y337598D03*
X3400000Y412402D03*
D13*
X3275000Y281000D03*
X3225000Y281000D03*
X3175000Y281000D03*
X3125000Y281000D03*
X3125000Y569000D03*
X3175000Y569000D03*
X3225000Y569000D03*
X3275000Y569000D03*
D14*
X3150787Y175000D03*
X3249213Y175000D03*
D10*
X3361535Y250000D03*
X3428465Y250000D03*
M02*
