G04 EAGLE Gerber X2 export*
%TF.Part,Single*%
%TF.FileFunction,Legend,Bot,1*%
%TF.FilePolarity,Positive*%
%TF.GenerationSoftware,Autodesk,EAGLE,9.0.1*%
%TF.CreationDate,2019-03-04T21:36:33Z*%
G75*
%MOIN*%
%FSLAX36Y36*%
%LPD*%
%AMOC8*
5,1,8,0,0,1.08239X$1,22.5*%
G01*
%ADD10C,0.006000*%
%ADD11C,0.004000*%
%ADD12C,0.005000*%
%ADD13C,0.003000*%
%ADD14C,0.008000*%


D10*
X3080000Y360000D02*
X3005000Y360000D01*
X2995000Y370000D01*
X3877000Y2350000D02*
X3876985Y2351259D01*
X3876940Y2352517D01*
X3876865Y2353774D01*
X3876760Y2355029D01*
X3876625Y2356281D01*
X3876460Y2357529D01*
X3876265Y2358773D01*
X3876041Y2360012D01*
X3875787Y2361245D01*
X3875504Y2362472D01*
X3875192Y2363692D01*
X3874850Y2364903D01*
X3874480Y2366107D01*
X3874082Y2367301D01*
X3873654Y2368486D01*
X3873199Y2369659D01*
X3872716Y2370822D01*
X3872205Y2371973D01*
X3871667Y2373111D01*
X3871559Y2373412D01*
X3871445Y2373711D01*
X3871323Y2374007D01*
X3871194Y2374300D01*
X3871057Y2374589D01*
X3870914Y2374875D01*
X3870764Y2375158D01*
X3870607Y2375437D01*
X3870443Y2375712D01*
X3870273Y2375982D01*
X3870096Y2376249D01*
X3869913Y2376511D01*
X3869723Y2376769D01*
X3869527Y2377022D01*
X3869325Y2377270D01*
X3869117Y2377514D01*
X3868904Y2377752D01*
X3868684Y2377985D01*
X3868459Y2378212D01*
X3868228Y2378434D01*
X3867992Y2378650D01*
X3867751Y2378860D01*
X3867505Y2379065D01*
X3867254Y2379263D01*
X3866998Y2379456D01*
X3866738Y2379642D01*
X3866473Y2379821D01*
X3866204Y2379994D01*
X3865931Y2380161D01*
X3865654Y2380321D01*
X3865373Y2380474D01*
X3865088Y2380620D01*
X3864800Y2380759D01*
X3864508Y2380891D01*
X3864214Y2381016D01*
X3863916Y2381134D01*
X3863616Y2381245D01*
X3863313Y2381348D01*
X3863008Y2381444D01*
X3862700Y2381532D01*
X3862391Y2381613D01*
X3862079Y2381686D01*
X3861766Y2381752D01*
X3861451Y2381810D01*
X3861135Y2381860D01*
X3860818Y2381903D01*
X3860500Y2381938D01*
X3860181Y2381965D01*
X3859862Y2381984D01*
X3859542Y2381996D01*
X3859222Y2382000D01*
X3858902Y2381996D01*
X3858582Y2381984D01*
X3858263Y2381965D01*
X3857944Y2381938D01*
X3857626Y2381903D01*
X3857309Y2381860D01*
X3856993Y2381810D01*
X3856678Y2381752D01*
X3856365Y2381686D01*
X3856053Y2381613D01*
X3855744Y2381532D01*
X3855436Y2381444D01*
X3855131Y2381348D01*
X3854828Y2381245D01*
X3854528Y2381134D01*
X3854230Y2381016D01*
X3853936Y2380891D01*
X3853644Y2380759D01*
X3853356Y2380620D01*
X3853072Y2380474D01*
X3852790Y2380321D01*
X3852513Y2380161D01*
X3852240Y2379994D01*
X3851971Y2379821D01*
X3851706Y2379642D01*
X3851446Y2379456D01*
X3851190Y2379263D01*
X3850939Y2379065D01*
X3850693Y2378861D01*
X3850452Y2378650D01*
X3850216Y2378434D01*
X3849985Y2378212D01*
X3849760Y2377985D01*
X3849541Y2377752D01*
X3849327Y2377514D01*
X3849119Y2377271D01*
X3848917Y2377022D01*
X3848721Y2376769D01*
X3848531Y2376512D01*
X3848348Y2376249D01*
X3848171Y2375983D01*
X3848001Y2375712D01*
X3847837Y2375437D01*
X3847680Y2375158D01*
X3847530Y2374875D01*
X3847387Y2374589D01*
X3847251Y2374300D01*
X3847121Y2374007D01*
X3846999Y2373711D01*
X3846885Y2373412D01*
X3846777Y2373111D01*
X3846239Y2371973D01*
X3845728Y2370822D01*
X3845245Y2369659D01*
X3844790Y2368486D01*
X3844363Y2367301D01*
X3843964Y2366107D01*
X3843594Y2364904D01*
X3843252Y2363692D01*
X3842940Y2362472D01*
X3842657Y2361245D01*
X3842403Y2360012D01*
X3842179Y2358773D01*
X3841984Y2357529D01*
X3841819Y2356281D01*
X3841684Y2355029D01*
X3841579Y2353774D01*
X3841504Y2352517D01*
X3841459Y2351259D01*
X3841444Y2350000D01*
X3877000Y2350000D02*
X3876985Y2348741D01*
X3876940Y2347483D01*
X3876865Y2346226D01*
X3876760Y2344971D01*
X3876625Y2343719D01*
X3876460Y2342471D01*
X3876265Y2341227D01*
X3876041Y2339988D01*
X3875787Y2338755D01*
X3875504Y2337528D01*
X3875192Y2336308D01*
X3874850Y2335096D01*
X3874480Y2333893D01*
X3874082Y2332699D01*
X3873654Y2331514D01*
X3873199Y2330340D01*
X3872716Y2329178D01*
X3872205Y2328027D01*
X3871667Y2326889D01*
X3871559Y2326588D01*
X3871445Y2326289D01*
X3871323Y2325993D01*
X3871193Y2325700D01*
X3871057Y2325411D01*
X3870914Y2325125D01*
X3870764Y2324842D01*
X3870607Y2324563D01*
X3870443Y2324288D01*
X3870273Y2324017D01*
X3870096Y2323751D01*
X3869913Y2323489D01*
X3869723Y2323231D01*
X3869527Y2322978D01*
X3869325Y2322730D01*
X3869117Y2322486D01*
X3868904Y2322248D01*
X3868684Y2322015D01*
X3868459Y2321788D01*
X3868228Y2321566D01*
X3867992Y2321350D01*
X3867751Y2321139D01*
X3867505Y2320935D01*
X3867254Y2320737D01*
X3866998Y2320544D01*
X3866738Y2320358D01*
X3866473Y2320179D01*
X3866204Y2320006D01*
X3865931Y2319839D01*
X3865654Y2319679D01*
X3865373Y2319526D01*
X3865088Y2319380D01*
X3864800Y2319241D01*
X3864508Y2319109D01*
X3864214Y2318984D01*
X3863916Y2318866D01*
X3863616Y2318755D01*
X3863313Y2318652D01*
X3863008Y2318556D01*
X3862700Y2318468D01*
X3862391Y2318387D01*
X3862079Y2318314D01*
X3861766Y2318248D01*
X3861451Y2318190D01*
X3861135Y2318140D01*
X3860818Y2318097D01*
X3860500Y2318062D01*
X3860181Y2318035D01*
X3859862Y2318016D01*
X3859542Y2318004D01*
X3859222Y2318000D01*
X3846777Y2326889D02*
X3846239Y2328027D01*
X3845728Y2329178D01*
X3845245Y2330340D01*
X3844790Y2331514D01*
X3844363Y2332699D01*
X3843964Y2333893D01*
X3843594Y2335096D01*
X3843252Y2336308D01*
X3842940Y2337528D01*
X3842657Y2338755D01*
X3842403Y2339988D01*
X3842179Y2341227D01*
X3841984Y2342471D01*
X3841819Y2343719D01*
X3841684Y2344971D01*
X3841579Y2346226D01*
X3841504Y2347483D01*
X3841459Y2348741D01*
X3841444Y2350000D01*
X3846777Y2326889D02*
X3846885Y2326588D01*
X3846999Y2326289D01*
X3847121Y2325993D01*
X3847251Y2325700D01*
X3847387Y2325411D01*
X3847530Y2325125D01*
X3847680Y2324842D01*
X3847837Y2324563D01*
X3848001Y2324288D01*
X3848171Y2324017D01*
X3848348Y2323751D01*
X3848531Y2323488D01*
X3848721Y2323231D01*
X3848917Y2322978D01*
X3849119Y2322729D01*
X3849327Y2322486D01*
X3849541Y2322248D01*
X3849760Y2322015D01*
X3849985Y2321788D01*
X3850216Y2321566D01*
X3850452Y2321350D01*
X3850693Y2321139D01*
X3850939Y2320935D01*
X3851190Y2320736D01*
X3851446Y2320544D01*
X3851706Y2320358D01*
X3851971Y2320179D01*
X3852240Y2320006D01*
X3852513Y2319839D01*
X3852791Y2319679D01*
X3853072Y2319526D01*
X3853356Y2319380D01*
X3853644Y2319241D01*
X3853936Y2319109D01*
X3854230Y2318984D01*
X3854528Y2318866D01*
X3854828Y2318755D01*
X3855131Y2318652D01*
X3855436Y2318556D01*
X3855744Y2318468D01*
X3856054Y2318387D01*
X3856365Y2318314D01*
X3856678Y2318248D01*
X3856993Y2318190D01*
X3857309Y2318140D01*
X3857626Y2318097D01*
X3857944Y2318062D01*
X3858263Y2318035D01*
X3858582Y2318016D01*
X3858902Y2318004D01*
X3859222Y2318000D01*
X3873445Y2332222D02*
X3845000Y2367778D01*
X3795904Y2382000D02*
X3795517Y2381995D01*
X3795131Y2381981D01*
X3794745Y2381958D01*
X3794360Y2381925D01*
X3793975Y2381883D01*
X3793592Y2381832D01*
X3793210Y2381772D01*
X3792830Y2381702D01*
X3792451Y2381623D01*
X3792075Y2381535D01*
X3791701Y2381438D01*
X3791329Y2381332D01*
X3790960Y2381217D01*
X3790593Y2381093D01*
X3790230Y2380960D01*
X3789870Y2380819D01*
X3789514Y2380669D01*
X3789162Y2380510D01*
X3788813Y2380343D01*
X3788468Y2380167D01*
X3788128Y2379983D01*
X3787793Y2379792D01*
X3787462Y2379591D01*
X3787136Y2379384D01*
X3786815Y2379168D01*
X3786499Y2378944D01*
X3786189Y2378713D01*
X3785885Y2378475D01*
X3785587Y2378229D01*
X3785294Y2377976D01*
X3785008Y2377716D01*
X3784728Y2377450D01*
X3784454Y2377176D01*
X3784188Y2376896D01*
X3783928Y2376610D01*
X3783675Y2376317D01*
X3783429Y2376019D01*
X3783191Y2375715D01*
X3782960Y2375405D01*
X3782736Y2375089D01*
X3782520Y2374768D01*
X3782313Y2374442D01*
X3782112Y2374111D01*
X3781921Y2373776D01*
X3781737Y2373436D01*
X3781561Y2373091D01*
X3781394Y2372742D01*
X3781235Y2372390D01*
X3781085Y2372034D01*
X3780944Y2371674D01*
X3780811Y2371311D01*
X3780687Y2370944D01*
X3780572Y2370575D01*
X3780466Y2370203D01*
X3780369Y2369829D01*
X3780281Y2369453D01*
X3780202Y2369074D01*
X3780132Y2368694D01*
X3780072Y2368312D01*
X3780021Y2367929D01*
X3779979Y2367544D01*
X3779946Y2367159D01*
X3779923Y2366773D01*
X3779909Y2366387D01*
X3779904Y2366000D01*
X3795904Y2382000D02*
X3796401Y2381994D01*
X3796898Y2381976D01*
X3797394Y2381946D01*
X3797889Y2381904D01*
X3798384Y2381850D01*
X3798876Y2381784D01*
X3799367Y2381706D01*
X3799856Y2381616D01*
X3800343Y2381515D01*
X3800827Y2381402D01*
X3801308Y2381277D01*
X3801786Y2381140D01*
X3802261Y2380992D01*
X3802731Y2380833D01*
X3803198Y2380662D01*
X3803661Y2380480D01*
X3804119Y2380287D01*
X3804572Y2380083D01*
X3805020Y2379868D01*
X3805463Y2379642D01*
X3805900Y2379406D01*
X3806332Y2379159D01*
X3806757Y2378901D01*
X3807176Y2378634D01*
X3807588Y2378356D01*
X3807994Y2378068D01*
X3808392Y2377771D01*
X3808784Y2377464D01*
X3809167Y2377148D01*
X3809543Y2376823D01*
X3809911Y2376489D01*
X3810271Y2376146D01*
X3810622Y2375794D01*
X3810965Y2375434D01*
X3811299Y2375065D01*
X3811623Y2374689D01*
X3811939Y2374305D01*
X3812245Y2373914D01*
X3812542Y2373515D01*
X3812829Y2373109D01*
X3813106Y2372696D01*
X3813373Y2372277D01*
X3813630Y2371851D01*
X3813877Y2371420D01*
X3814113Y2370982D01*
X3814338Y2370539D01*
X3814552Y2370091D01*
X3814756Y2369637D01*
X3814949Y2369179D01*
X3815130Y2368716D01*
X3815300Y2368249D01*
X3815459Y2367778D01*
X3785237Y2353555D02*
X3784936Y2353850D01*
X3784641Y2354152D01*
X3784354Y2354461D01*
X3784075Y2354777D01*
X3783803Y2355099D01*
X3783540Y2355429D01*
X3783285Y2355764D01*
X3783038Y2356106D01*
X3782799Y2356454D01*
X3782569Y2356807D01*
X3782348Y2357166D01*
X3782136Y2357531D01*
X3781932Y2357900D01*
X3781738Y2358274D01*
X3781553Y2358653D01*
X3781378Y2359037D01*
X3781212Y2359425D01*
X3781055Y2359816D01*
X3780908Y2360211D01*
X3780771Y2360610D01*
X3780644Y2361012D01*
X3780526Y2361417D01*
X3780419Y2361825D01*
X3780321Y2362235D01*
X3780234Y2362648D01*
X3780157Y2363062D01*
X3780090Y2363479D01*
X3780033Y2363897D01*
X3779987Y2364316D01*
X3779951Y2364736D01*
X3779925Y2365157D01*
X3779909Y2365578D01*
X3779904Y2366000D01*
X3785238Y2353555D02*
X3815460Y2318000D01*
X3779904Y2318000D01*
X3753920Y2367778D02*
X3736142Y2382000D01*
X3736142Y2318000D01*
X3753920Y2318000D02*
X3718364Y2318000D01*
X3678157Y2346444D02*
X3656824Y2346444D01*
X3678157Y2346445D02*
X3678501Y2346449D01*
X3678844Y2346462D01*
X3679187Y2346482D01*
X3679530Y2346511D01*
X3679871Y2346549D01*
X3680212Y2346594D01*
X3680551Y2346648D01*
X3680889Y2346710D01*
X3681226Y2346780D01*
X3681561Y2346858D01*
X3681893Y2346945D01*
X3682224Y2347039D01*
X3682552Y2347141D01*
X3682877Y2347251D01*
X3683200Y2347369D01*
X3683520Y2347495D01*
X3683837Y2347628D01*
X3684150Y2347769D01*
X3684460Y2347918D01*
X3684766Y2348074D01*
X3685069Y2348237D01*
X3685367Y2348408D01*
X3685661Y2348586D01*
X3685951Y2348771D01*
X3686236Y2348963D01*
X3686516Y2349161D01*
X3686792Y2349367D01*
X3687063Y2349578D01*
X3687328Y2349797D01*
X3687588Y2350022D01*
X3687842Y2350253D01*
X3688091Y2350490D01*
X3688334Y2350733D01*
X3688571Y2350982D01*
X3688802Y2351236D01*
X3689027Y2351496D01*
X3689246Y2351761D01*
X3689457Y2352032D01*
X3689663Y2352308D01*
X3689861Y2352588D01*
X3690053Y2352873D01*
X3690238Y2353163D01*
X3690416Y2353457D01*
X3690587Y2353755D01*
X3690750Y2354058D01*
X3690906Y2354364D01*
X3691055Y2354674D01*
X3691196Y2354987D01*
X3691329Y2355304D01*
X3691455Y2355624D01*
X3691573Y2355947D01*
X3691683Y2356272D01*
X3691785Y2356600D01*
X3691879Y2356931D01*
X3691966Y2357263D01*
X3692044Y2357598D01*
X3692114Y2357935D01*
X3692176Y2358273D01*
X3692230Y2358612D01*
X3692275Y2358953D01*
X3692313Y2359294D01*
X3692342Y2359637D01*
X3692362Y2359980D01*
X3692375Y2360323D01*
X3692379Y2360667D01*
X3692379Y2364222D01*
X3692380Y2364222D02*
X3692375Y2364655D01*
X3692359Y2365088D01*
X3692333Y2365520D01*
X3692296Y2365951D01*
X3692248Y2366381D01*
X3692191Y2366810D01*
X3692122Y2367238D01*
X3692044Y2367664D01*
X3691955Y2368087D01*
X3691855Y2368509D01*
X3691746Y2368928D01*
X3691626Y2369344D01*
X3691496Y2369757D01*
X3691357Y2370167D01*
X3691207Y2370573D01*
X3691047Y2370975D01*
X3690878Y2371374D01*
X3690699Y2371768D01*
X3690511Y2372158D01*
X3690313Y2372543D01*
X3690105Y2372923D01*
X3689889Y2373298D01*
X3689663Y2373667D01*
X3689429Y2374031D01*
X3689186Y2374389D01*
X3688934Y2374742D01*
X3688673Y2375087D01*
X3688404Y2375427D01*
X3688128Y2375760D01*
X3687843Y2376086D01*
X3687550Y2376404D01*
X3687249Y2376716D01*
X3686941Y2377020D01*
X3686626Y2377317D01*
X3686303Y2377606D01*
X3685974Y2377887D01*
X3685638Y2378160D01*
X3685295Y2378424D01*
X3684946Y2378681D01*
X3684591Y2378928D01*
X3684230Y2379167D01*
X3683863Y2379397D01*
X3683491Y2379618D01*
X3683113Y2379830D01*
X3682731Y2380033D01*
X3682343Y2380226D01*
X3681951Y2380410D01*
X3681555Y2380584D01*
X3681155Y2380748D01*
X3680750Y2380903D01*
X3680342Y2381048D01*
X3679931Y2381183D01*
X3679516Y2381307D01*
X3679099Y2381422D01*
X3678678Y2381526D01*
X3678256Y2381620D01*
X3677831Y2381704D01*
X3677404Y2381778D01*
X3676976Y2381841D01*
X3676546Y2381893D01*
X3676116Y2381935D01*
X3675684Y2381967D01*
X3675251Y2381988D01*
X3674818Y2381999D01*
X3674386Y2381999D01*
X3673953Y2381988D01*
X3673520Y2381967D01*
X3673088Y2381935D01*
X3672658Y2381893D01*
X3672228Y2381841D01*
X3671800Y2381778D01*
X3671373Y2381704D01*
X3670948Y2381620D01*
X3670526Y2381526D01*
X3670105Y2381422D01*
X3669688Y2381307D01*
X3669273Y2381183D01*
X3668862Y2381048D01*
X3668454Y2380903D01*
X3668049Y2380748D01*
X3667649Y2380584D01*
X3667253Y2380410D01*
X3666861Y2380226D01*
X3666473Y2380033D01*
X3666091Y2379830D01*
X3665713Y2379618D01*
X3665341Y2379397D01*
X3664974Y2379167D01*
X3664613Y2378928D01*
X3664258Y2378681D01*
X3663909Y2378424D01*
X3663566Y2378160D01*
X3663230Y2377887D01*
X3662901Y2377606D01*
X3662578Y2377317D01*
X3662263Y2377020D01*
X3661955Y2376716D01*
X3661654Y2376404D01*
X3661361Y2376086D01*
X3661076Y2375760D01*
X3660800Y2375427D01*
X3660531Y2375087D01*
X3660270Y2374742D01*
X3660018Y2374389D01*
X3659775Y2374031D01*
X3659541Y2373667D01*
X3659315Y2373298D01*
X3659099Y2372923D01*
X3658891Y2372543D01*
X3658693Y2372158D01*
X3658505Y2371768D01*
X3658326Y2371374D01*
X3658157Y2370975D01*
X3657997Y2370573D01*
X3657847Y2370167D01*
X3657708Y2369757D01*
X3657578Y2369344D01*
X3657458Y2368928D01*
X3657349Y2368509D01*
X3657249Y2368087D01*
X3657160Y2367664D01*
X3657082Y2367238D01*
X3657013Y2366810D01*
X3656956Y2366381D01*
X3656908Y2365951D01*
X3656871Y2365520D01*
X3656845Y2365088D01*
X3656829Y2364655D01*
X3656824Y2364222D01*
X3656824Y2346444D01*
X3656832Y2345757D01*
X3656857Y2345070D01*
X3656899Y2344384D01*
X3656957Y2343699D01*
X3657031Y2343015D01*
X3657122Y2342334D01*
X3657230Y2341655D01*
X3657354Y2340979D01*
X3657494Y2340306D01*
X3657651Y2339637D01*
X3657823Y2338972D01*
X3658012Y2338311D01*
X3658216Y2337654D01*
X3658436Y2337003D01*
X3658672Y2336358D01*
X3658924Y2335718D01*
X3659191Y2335084D01*
X3659473Y2334458D01*
X3659770Y2333838D01*
X3660082Y2333225D01*
X3660409Y2332621D01*
X3660750Y2332024D01*
X3661106Y2331436D01*
X3661475Y2330856D01*
X3661859Y2330286D01*
X3662256Y2329725D01*
X3662667Y2329174D01*
X3663091Y2328633D01*
X3663528Y2328102D01*
X3663977Y2327582D01*
X3664439Y2327073D01*
X3664914Y2326576D01*
X3665400Y2326090D01*
X3665897Y2325615D01*
X3666406Y2325153D01*
X3666926Y2324704D01*
X3667457Y2324267D01*
X3667998Y2323843D01*
X3668549Y2323432D01*
X3669110Y2323035D01*
X3669680Y2322651D01*
X3670260Y2322282D01*
X3670848Y2321926D01*
X3671445Y2321585D01*
X3672049Y2321258D01*
X3672662Y2320946D01*
X3673282Y2320649D01*
X3673908Y2320367D01*
X3674542Y2320100D01*
X3675182Y2319848D01*
X3675827Y2319612D01*
X3676478Y2319392D01*
X3677135Y2319188D01*
X3677796Y2318999D01*
X3678461Y2318827D01*
X3679130Y2318670D01*
X3679803Y2318530D01*
X3680479Y2318406D01*
X3681158Y2318298D01*
X3681839Y2318207D01*
X3682523Y2318133D01*
X3683208Y2318075D01*
X3683894Y2318033D01*
X3684581Y2318008D01*
X3685268Y2318000D01*
X3630839Y2367778D02*
X3613061Y2382000D01*
X3613061Y2318000D01*
X3595284Y2318000D02*
X3630839Y2318000D01*
X3555077Y2346444D02*
X3533743Y2346444D01*
X3555077Y2346445D02*
X3555421Y2346449D01*
X3555764Y2346462D01*
X3556107Y2346482D01*
X3556450Y2346511D01*
X3556791Y2346549D01*
X3557132Y2346594D01*
X3557471Y2346648D01*
X3557809Y2346710D01*
X3558146Y2346780D01*
X3558481Y2346858D01*
X3558813Y2346945D01*
X3559144Y2347039D01*
X3559472Y2347141D01*
X3559797Y2347251D01*
X3560120Y2347369D01*
X3560440Y2347495D01*
X3560757Y2347628D01*
X3561070Y2347769D01*
X3561380Y2347918D01*
X3561686Y2348074D01*
X3561989Y2348237D01*
X3562287Y2348408D01*
X3562581Y2348586D01*
X3562871Y2348771D01*
X3563156Y2348963D01*
X3563436Y2349161D01*
X3563712Y2349367D01*
X3563983Y2349578D01*
X3564248Y2349797D01*
X3564508Y2350022D01*
X3564762Y2350253D01*
X3565011Y2350490D01*
X3565254Y2350733D01*
X3565491Y2350982D01*
X3565722Y2351236D01*
X3565947Y2351496D01*
X3566166Y2351761D01*
X3566377Y2352032D01*
X3566583Y2352308D01*
X3566781Y2352588D01*
X3566973Y2352873D01*
X3567158Y2353163D01*
X3567336Y2353457D01*
X3567507Y2353755D01*
X3567670Y2354058D01*
X3567826Y2354364D01*
X3567975Y2354674D01*
X3568116Y2354987D01*
X3568249Y2355304D01*
X3568375Y2355624D01*
X3568493Y2355947D01*
X3568603Y2356272D01*
X3568705Y2356600D01*
X3568799Y2356931D01*
X3568886Y2357263D01*
X3568964Y2357598D01*
X3569034Y2357935D01*
X3569096Y2358273D01*
X3569150Y2358612D01*
X3569195Y2358953D01*
X3569233Y2359294D01*
X3569262Y2359637D01*
X3569282Y2359980D01*
X3569295Y2360323D01*
X3569299Y2360667D01*
X3569299Y2364222D01*
X3569294Y2364655D01*
X3569278Y2365088D01*
X3569252Y2365520D01*
X3569215Y2365951D01*
X3569167Y2366381D01*
X3569110Y2366810D01*
X3569041Y2367238D01*
X3568963Y2367664D01*
X3568874Y2368087D01*
X3568774Y2368509D01*
X3568665Y2368928D01*
X3568545Y2369344D01*
X3568415Y2369757D01*
X3568276Y2370167D01*
X3568126Y2370573D01*
X3567966Y2370975D01*
X3567797Y2371374D01*
X3567618Y2371768D01*
X3567430Y2372158D01*
X3567232Y2372543D01*
X3567024Y2372923D01*
X3566808Y2373298D01*
X3566582Y2373667D01*
X3566348Y2374031D01*
X3566105Y2374389D01*
X3565853Y2374742D01*
X3565592Y2375087D01*
X3565323Y2375427D01*
X3565047Y2375760D01*
X3564762Y2376086D01*
X3564469Y2376404D01*
X3564168Y2376716D01*
X3563860Y2377020D01*
X3563545Y2377317D01*
X3563222Y2377606D01*
X3562893Y2377887D01*
X3562557Y2378160D01*
X3562214Y2378424D01*
X3561865Y2378681D01*
X3561510Y2378928D01*
X3561149Y2379167D01*
X3560782Y2379397D01*
X3560410Y2379618D01*
X3560032Y2379830D01*
X3559650Y2380033D01*
X3559262Y2380226D01*
X3558870Y2380410D01*
X3558474Y2380584D01*
X3558074Y2380748D01*
X3557669Y2380903D01*
X3557261Y2381048D01*
X3556850Y2381183D01*
X3556435Y2381307D01*
X3556018Y2381422D01*
X3555597Y2381526D01*
X3555175Y2381620D01*
X3554750Y2381704D01*
X3554323Y2381778D01*
X3553895Y2381841D01*
X3553465Y2381893D01*
X3553035Y2381935D01*
X3552603Y2381967D01*
X3552170Y2381988D01*
X3551737Y2381999D01*
X3551305Y2381999D01*
X3550872Y2381988D01*
X3550439Y2381967D01*
X3550007Y2381935D01*
X3549577Y2381893D01*
X3549147Y2381841D01*
X3548719Y2381778D01*
X3548292Y2381704D01*
X3547867Y2381620D01*
X3547445Y2381526D01*
X3547024Y2381422D01*
X3546607Y2381307D01*
X3546192Y2381183D01*
X3545781Y2381048D01*
X3545373Y2380903D01*
X3544968Y2380748D01*
X3544568Y2380584D01*
X3544172Y2380410D01*
X3543780Y2380226D01*
X3543392Y2380033D01*
X3543010Y2379830D01*
X3542632Y2379618D01*
X3542260Y2379397D01*
X3541893Y2379167D01*
X3541532Y2378928D01*
X3541177Y2378681D01*
X3540828Y2378424D01*
X3540485Y2378160D01*
X3540149Y2377887D01*
X3539820Y2377606D01*
X3539497Y2377317D01*
X3539182Y2377020D01*
X3538874Y2376716D01*
X3538573Y2376404D01*
X3538280Y2376086D01*
X3537995Y2375760D01*
X3537719Y2375427D01*
X3537450Y2375087D01*
X3537189Y2374742D01*
X3536937Y2374389D01*
X3536694Y2374031D01*
X3536460Y2373667D01*
X3536234Y2373298D01*
X3536018Y2372923D01*
X3535810Y2372543D01*
X3535612Y2372158D01*
X3535424Y2371768D01*
X3535245Y2371374D01*
X3535076Y2370975D01*
X3534916Y2370573D01*
X3534766Y2370167D01*
X3534627Y2369757D01*
X3534497Y2369344D01*
X3534377Y2368928D01*
X3534268Y2368509D01*
X3534168Y2368087D01*
X3534079Y2367664D01*
X3534001Y2367238D01*
X3533932Y2366810D01*
X3533875Y2366381D01*
X3533827Y2365951D01*
X3533790Y2365520D01*
X3533764Y2365088D01*
X3533748Y2364655D01*
X3533743Y2364222D01*
X3533743Y2346444D01*
X3533744Y2346444D02*
X3533752Y2345757D01*
X3533777Y2345070D01*
X3533819Y2344384D01*
X3533877Y2343699D01*
X3533951Y2343015D01*
X3534042Y2342334D01*
X3534150Y2341655D01*
X3534274Y2340979D01*
X3534414Y2340306D01*
X3534571Y2339637D01*
X3534743Y2338972D01*
X3534932Y2338311D01*
X3535136Y2337654D01*
X3535356Y2337003D01*
X3535592Y2336358D01*
X3535844Y2335718D01*
X3536111Y2335084D01*
X3536393Y2334458D01*
X3536690Y2333838D01*
X3537002Y2333225D01*
X3537329Y2332621D01*
X3537670Y2332024D01*
X3538026Y2331436D01*
X3538395Y2330856D01*
X3538779Y2330286D01*
X3539176Y2329725D01*
X3539587Y2329174D01*
X3540011Y2328633D01*
X3540448Y2328102D01*
X3540897Y2327582D01*
X3541359Y2327073D01*
X3541834Y2326576D01*
X3542320Y2326090D01*
X3542817Y2325615D01*
X3543326Y2325153D01*
X3543846Y2324704D01*
X3544377Y2324267D01*
X3544918Y2323843D01*
X3545469Y2323432D01*
X3546030Y2323035D01*
X3546600Y2322651D01*
X3547180Y2322282D01*
X3547768Y2321926D01*
X3548365Y2321585D01*
X3548969Y2321258D01*
X3549582Y2320946D01*
X3550202Y2320649D01*
X3550828Y2320367D01*
X3551462Y2320100D01*
X3552102Y2319848D01*
X3552747Y2319612D01*
X3553398Y2319392D01*
X3554055Y2319188D01*
X3554716Y2318999D01*
X3555381Y2318827D01*
X3556050Y2318670D01*
X3556723Y2318530D01*
X3557399Y2318406D01*
X3558078Y2318298D01*
X3558759Y2318207D01*
X3559443Y2318133D01*
X3560128Y2318075D01*
X3560814Y2318033D01*
X3561501Y2318008D01*
X3562188Y2318000D01*
X2764889Y2267889D02*
X2747111Y2260778D01*
X2764889Y2267888D02*
X2765096Y2267974D01*
X2765301Y2268065D01*
X2765504Y2268161D01*
X2765705Y2268262D01*
X2765903Y2268367D01*
X2766098Y2268478D01*
X2766291Y2268593D01*
X2766481Y2268713D01*
X2766667Y2268837D01*
X2766851Y2268966D01*
X2767032Y2269099D01*
X2767209Y2269237D01*
X2767383Y2269379D01*
X2767553Y2269525D01*
X2767720Y2269676D01*
X2767883Y2269830D01*
X2768042Y2269988D01*
X2768197Y2270150D01*
X2768349Y2270316D01*
X2768496Y2270485D01*
X2768639Y2270658D01*
X2768778Y2270834D01*
X2768912Y2271014D01*
X2769042Y2271197D01*
X2769168Y2271383D01*
X2769289Y2271572D01*
X2769405Y2271764D01*
X2769517Y2271959D01*
X2769624Y2272156D01*
X2769726Y2272356D01*
X2769823Y2272558D01*
X2769915Y2272763D01*
X2770003Y2272970D01*
X2770085Y2273178D01*
X2770162Y2273389D01*
X2770234Y2273602D01*
X2770300Y2273816D01*
X2770362Y2274032D01*
X2770418Y2274249D01*
X2770469Y2274468D01*
X2770514Y2274688D01*
X2770555Y2274908D01*
X2770589Y2275130D01*
X2770619Y2275353D01*
X2770643Y2275576D01*
X2770661Y2275799D01*
X2770674Y2276024D01*
X2770682Y2276248D01*
X2770684Y2276472D01*
X2770681Y2276697D01*
X2770672Y2276921D01*
X2770658Y2277145D01*
X2770638Y2277368D01*
X2770613Y2277591D01*
X2770582Y2277814D01*
X2770546Y2278035D01*
X2770505Y2278256D01*
X2770458Y2278475D01*
X2770406Y2278694D01*
X2770349Y2278911D01*
X2770286Y2279126D01*
X2770219Y2279340D01*
X2770146Y2279553D01*
X2770067Y2279763D01*
X2769984Y2279971D01*
X2769896Y2280178D01*
X2769803Y2280382D01*
X2769704Y2280584D01*
X2769601Y2280783D01*
X2769493Y2280980D01*
X2769381Y2281174D01*
X2769263Y2281365D01*
X2769141Y2281553D01*
X2769015Y2281739D01*
X2768884Y2281921D01*
X2768748Y2282100D01*
X2768608Y2282276D01*
X2768464Y2282448D01*
X2768316Y2282616D01*
X2768164Y2282781D01*
X2768008Y2282943D01*
X2767848Y2283100D01*
X2767684Y2283253D01*
X2767517Y2283403D01*
X2767346Y2283548D01*
X2767171Y2283689D01*
X2766993Y2283826D01*
X2766812Y2283958D01*
X2766627Y2284086D01*
X2766440Y2284209D01*
X2766250Y2284328D01*
X2766056Y2284442D01*
X2765860Y2284552D01*
X2765662Y2284656D01*
X2765461Y2284756D01*
X2765257Y2284851D01*
X2765052Y2284941D01*
X2764844Y2285026D01*
X2764634Y2285105D01*
X2764422Y2285180D01*
X2764209Y2285249D01*
X2763994Y2285313D01*
X2763777Y2285372D01*
X2763559Y2285426D01*
X2763340Y2285474D01*
X2763120Y2285517D01*
X2762899Y2285555D01*
X2762676Y2285587D01*
X2762454Y2285614D01*
X2762230Y2285635D01*
X2762006Y2285651D01*
X2761782Y2285662D01*
X2761558Y2285667D01*
X2761333Y2285666D01*
X2760363Y2285640D01*
X2759393Y2285591D01*
X2758425Y2285519D01*
X2757459Y2285424D01*
X2756495Y2285305D01*
X2755535Y2285164D01*
X2754578Y2284999D01*
X2753626Y2284811D01*
X2752678Y2284600D01*
X2751736Y2284367D01*
X2750799Y2284111D01*
X2749869Y2283833D01*
X2748946Y2283532D01*
X2748030Y2283209D01*
X2747123Y2282865D01*
X2746224Y2282498D01*
X2745334Y2282110D01*
X2747111Y2260778D02*
X2746904Y2260692D01*
X2746699Y2260601D01*
X2746496Y2260505D01*
X2746295Y2260404D01*
X2746097Y2260299D01*
X2745902Y2260188D01*
X2745709Y2260073D01*
X2745519Y2259953D01*
X2745333Y2259829D01*
X2745149Y2259700D01*
X2744968Y2259567D01*
X2744791Y2259429D01*
X2744617Y2259287D01*
X2744447Y2259141D01*
X2744280Y2258990D01*
X2744117Y2258836D01*
X2743958Y2258678D01*
X2743803Y2258516D01*
X2743651Y2258350D01*
X2743504Y2258181D01*
X2743361Y2258008D01*
X2743222Y2257832D01*
X2743088Y2257652D01*
X2742958Y2257469D01*
X2742832Y2257283D01*
X2742711Y2257094D01*
X2742595Y2256902D01*
X2742483Y2256707D01*
X2742376Y2256510D01*
X2742274Y2256310D01*
X2742177Y2256108D01*
X2742085Y2255903D01*
X2741997Y2255696D01*
X2741915Y2255488D01*
X2741838Y2255277D01*
X2741766Y2255064D01*
X2741700Y2254850D01*
X2741638Y2254634D01*
X2741582Y2254417D01*
X2741531Y2254198D01*
X2741486Y2253978D01*
X2741445Y2253758D01*
X2741411Y2253536D01*
X2741381Y2253313D01*
X2741357Y2253090D01*
X2741339Y2252867D01*
X2741326Y2252642D01*
X2741318Y2252418D01*
X2741316Y2252194D01*
X2741319Y2251969D01*
X2741328Y2251745D01*
X2741342Y2251521D01*
X2741362Y2251298D01*
X2741387Y2251075D01*
X2741418Y2250852D01*
X2741454Y2250631D01*
X2741495Y2250410D01*
X2741542Y2250191D01*
X2741594Y2249972D01*
X2741651Y2249755D01*
X2741714Y2249540D01*
X2741781Y2249326D01*
X2741854Y2249113D01*
X2741933Y2248903D01*
X2742016Y2248695D01*
X2742104Y2248488D01*
X2742197Y2248284D01*
X2742296Y2248082D01*
X2742399Y2247883D01*
X2742507Y2247686D01*
X2742619Y2247492D01*
X2742737Y2247301D01*
X2742859Y2247113D01*
X2742985Y2246927D01*
X2743116Y2246745D01*
X2743252Y2246566D01*
X2743392Y2246390D01*
X2743536Y2246218D01*
X2743684Y2246050D01*
X2743836Y2245885D01*
X2743992Y2245723D01*
X2744152Y2245566D01*
X2744316Y2245413D01*
X2744483Y2245263D01*
X2744654Y2245118D01*
X2744829Y2244977D01*
X2745007Y2244840D01*
X2745188Y2244708D01*
X2745373Y2244580D01*
X2745560Y2244457D01*
X2745750Y2244338D01*
X2745944Y2244224D01*
X2746140Y2244114D01*
X2746338Y2244010D01*
X2746539Y2243910D01*
X2746743Y2243815D01*
X2746948Y2243725D01*
X2747156Y2243640D01*
X2747366Y2243561D01*
X2747578Y2243486D01*
X2747791Y2243417D01*
X2748006Y2243353D01*
X2748223Y2243294D01*
X2748441Y2243240D01*
X2748660Y2243192D01*
X2748880Y2243149D01*
X2749101Y2243111D01*
X2749324Y2243079D01*
X2749546Y2243052D01*
X2749770Y2243031D01*
X2749994Y2243015D01*
X2750218Y2243004D01*
X2750442Y2242999D01*
X2750667Y2243000D01*
X2752093Y2243037D01*
X2753517Y2243108D01*
X2754940Y2243213D01*
X2756359Y2243351D01*
X2757775Y2243523D01*
X2759186Y2243728D01*
X2760592Y2243967D01*
X2761993Y2244238D01*
X2763386Y2244543D01*
X2764771Y2244881D01*
X2766149Y2245251D01*
X2767517Y2245654D01*
X2768875Y2246089D01*
X2770223Y2246556D01*
X2717982Y2232333D02*
X2717982Y2285667D01*
X2717982Y2232333D02*
X2717985Y2232075D01*
X2717994Y2231818D01*
X2718010Y2231560D01*
X2718032Y2231303D01*
X2718060Y2231047D01*
X2718094Y2230792D01*
X2718134Y2230537D01*
X2718181Y2230284D01*
X2718233Y2230031D01*
X2718292Y2229780D01*
X2718357Y2229531D01*
X2718427Y2229283D01*
X2718504Y2229037D01*
X2718587Y2228793D01*
X2718675Y2228550D01*
X2718769Y2228311D01*
X2718870Y2228073D01*
X2718975Y2227838D01*
X2719087Y2227605D01*
X2719204Y2227376D01*
X2719326Y2227149D01*
X2719454Y2226925D01*
X2719588Y2226705D01*
X2719726Y2226487D01*
X2719870Y2226273D01*
X2720019Y2226063D01*
X2720173Y2225856D01*
X2720332Y2225653D01*
X2720496Y2225454D01*
X2720665Y2225259D01*
X2720838Y2225069D01*
X2721016Y2224882D01*
X2721198Y2224700D01*
X2721385Y2224522D01*
X2721575Y2224349D01*
X2721770Y2224180D01*
X2721969Y2224016D01*
X2722172Y2223857D01*
X2722379Y2223703D01*
X2722589Y2223554D01*
X2722803Y2223410D01*
X2723021Y2223272D01*
X2723241Y2223138D01*
X2723465Y2223010D01*
X2723692Y2222888D01*
X2723921Y2222771D01*
X2724154Y2222659D01*
X2724389Y2222554D01*
X2724627Y2222453D01*
X2724866Y2222359D01*
X2725109Y2222271D01*
X2725353Y2222188D01*
X2725599Y2222111D01*
X2725847Y2222041D01*
X2726096Y2221976D01*
X2726347Y2221917D01*
X2726600Y2221865D01*
X2726853Y2221818D01*
X2727108Y2221778D01*
X2727363Y2221744D01*
X2727619Y2221716D01*
X2727876Y2221694D01*
X2728134Y2221678D01*
X2728391Y2221669D01*
X2728649Y2221666D01*
X2728649Y2221667D02*
X2732204Y2221667D01*
X2719760Y2303444D02*
X2719760Y2307000D01*
X2716204Y2307000D01*
X2716204Y2303444D01*
X2719760Y2303444D01*
X2689125Y2285667D02*
X2689125Y2243000D01*
X2689125Y2285667D02*
X2657125Y2285667D01*
X2656867Y2285664D01*
X2656610Y2285655D01*
X2656352Y2285639D01*
X2656095Y2285617D01*
X2655839Y2285589D01*
X2655584Y2285555D01*
X2655329Y2285515D01*
X2655076Y2285468D01*
X2654823Y2285416D01*
X2654572Y2285357D01*
X2654323Y2285292D01*
X2654075Y2285222D01*
X2653829Y2285145D01*
X2653585Y2285062D01*
X2653342Y2284974D01*
X2653103Y2284880D01*
X2652865Y2284779D01*
X2652630Y2284674D01*
X2652397Y2284562D01*
X2652168Y2284445D01*
X2651941Y2284323D01*
X2651717Y2284195D01*
X2651497Y2284061D01*
X2651279Y2283923D01*
X2651065Y2283779D01*
X2650855Y2283630D01*
X2650648Y2283476D01*
X2650445Y2283317D01*
X2650246Y2283153D01*
X2650051Y2282984D01*
X2649861Y2282811D01*
X2649674Y2282633D01*
X2649492Y2282451D01*
X2649314Y2282264D01*
X2649141Y2282074D01*
X2648972Y2281879D01*
X2648808Y2281680D01*
X2648649Y2281477D01*
X2648495Y2281270D01*
X2648346Y2281060D01*
X2648202Y2280846D01*
X2648064Y2280628D01*
X2647930Y2280408D01*
X2647802Y2280184D01*
X2647680Y2279957D01*
X2647563Y2279728D01*
X2647451Y2279495D01*
X2647346Y2279260D01*
X2647245Y2279022D01*
X2647151Y2278783D01*
X2647063Y2278540D01*
X2646980Y2278296D01*
X2646903Y2278050D01*
X2646833Y2277802D01*
X2646768Y2277553D01*
X2646709Y2277302D01*
X2646657Y2277049D01*
X2646610Y2276796D01*
X2646570Y2276541D01*
X2646536Y2276286D01*
X2646508Y2276030D01*
X2646486Y2275773D01*
X2646470Y2275515D01*
X2646461Y2275258D01*
X2646458Y2275000D01*
X2646459Y2275000D02*
X2646459Y2243000D01*
X2667792Y2243000D02*
X2667792Y2285667D01*
X2617876Y2257222D02*
X2603653Y2307000D01*
X2617876Y2257222D02*
X2582320Y2257222D01*
X2592987Y2271444D02*
X2592987Y2243000D01*
X2556335Y2243000D02*
X2538558Y2243000D01*
X2538125Y2243005D01*
X2537692Y2243021D01*
X2537260Y2243047D01*
X2536829Y2243084D01*
X2536399Y2243132D01*
X2535970Y2243189D01*
X2535542Y2243258D01*
X2535116Y2243336D01*
X2534693Y2243425D01*
X2534271Y2243525D01*
X2533852Y2243634D01*
X2533436Y2243754D01*
X2533023Y2243884D01*
X2532613Y2244023D01*
X2532207Y2244173D01*
X2531805Y2244333D01*
X2531406Y2244502D01*
X2531012Y2244681D01*
X2530622Y2244869D01*
X2530237Y2245067D01*
X2529857Y2245275D01*
X2529482Y2245491D01*
X2529113Y2245717D01*
X2528749Y2245951D01*
X2528391Y2246194D01*
X2528038Y2246446D01*
X2527693Y2246707D01*
X2527353Y2246976D01*
X2527020Y2247252D01*
X2526694Y2247537D01*
X2526376Y2247830D01*
X2526064Y2248131D01*
X2525760Y2248439D01*
X2525463Y2248754D01*
X2525174Y2249077D01*
X2524893Y2249406D01*
X2524620Y2249742D01*
X2524356Y2250085D01*
X2524099Y2250434D01*
X2523852Y2250789D01*
X2523613Y2251150D01*
X2523383Y2251517D01*
X2523162Y2251889D01*
X2522950Y2252267D01*
X2522747Y2252649D01*
X2522554Y2253037D01*
X2522370Y2253429D01*
X2522196Y2253825D01*
X2522032Y2254225D01*
X2521877Y2254630D01*
X2521732Y2255038D01*
X2521597Y2255449D01*
X2521473Y2255864D01*
X2521358Y2256281D01*
X2521254Y2256702D01*
X2521160Y2257124D01*
X2521076Y2257549D01*
X2521002Y2257976D01*
X2520939Y2258404D01*
X2520887Y2258834D01*
X2520845Y2259264D01*
X2520813Y2259696D01*
X2520792Y2260129D01*
X2520781Y2260562D01*
X2520781Y2260994D01*
X2520792Y2261427D01*
X2520813Y2261860D01*
X2520845Y2262292D01*
X2520887Y2262722D01*
X2520939Y2263152D01*
X2521002Y2263580D01*
X2521076Y2264007D01*
X2521160Y2264432D01*
X2521254Y2264854D01*
X2521358Y2265275D01*
X2521473Y2265692D01*
X2521597Y2266107D01*
X2521732Y2266518D01*
X2521877Y2266926D01*
X2522032Y2267331D01*
X2522196Y2267731D01*
X2522370Y2268127D01*
X2522554Y2268519D01*
X2522747Y2268907D01*
X2522950Y2269289D01*
X2523162Y2269667D01*
X2523383Y2270039D01*
X2523613Y2270406D01*
X2523852Y2270767D01*
X2524099Y2271122D01*
X2524356Y2271471D01*
X2524620Y2271814D01*
X2524893Y2272150D01*
X2525174Y2272479D01*
X2525463Y2272802D01*
X2525760Y2273117D01*
X2526064Y2273425D01*
X2526376Y2273726D01*
X2526694Y2274019D01*
X2527020Y2274304D01*
X2527353Y2274580D01*
X2527693Y2274849D01*
X2528038Y2275110D01*
X2528391Y2275362D01*
X2528749Y2275605D01*
X2529113Y2275839D01*
X2529482Y2276065D01*
X2529857Y2276281D01*
X2530237Y2276489D01*
X2530622Y2276687D01*
X2531012Y2276875D01*
X2531406Y2277054D01*
X2531805Y2277223D01*
X2532207Y2277383D01*
X2532613Y2277533D01*
X2533023Y2277672D01*
X2533436Y2277802D01*
X2533852Y2277922D01*
X2534271Y2278031D01*
X2534693Y2278131D01*
X2535116Y2278220D01*
X2535542Y2278298D01*
X2535970Y2278367D01*
X2536399Y2278424D01*
X2536829Y2278472D01*
X2537260Y2278509D01*
X2537692Y2278535D01*
X2538125Y2278551D01*
X2538558Y2278556D01*
X2535002Y2307000D02*
X2556335Y2307000D01*
X2535002Y2307000D02*
X2534656Y2306996D01*
X2534310Y2306983D01*
X2533964Y2306962D01*
X2533619Y2306933D01*
X2533275Y2306895D01*
X2532931Y2306848D01*
X2532589Y2306794D01*
X2532249Y2306731D01*
X2531910Y2306660D01*
X2531573Y2306580D01*
X2531238Y2306493D01*
X2530905Y2306397D01*
X2530574Y2306293D01*
X2530246Y2306181D01*
X2529921Y2306062D01*
X2529600Y2305934D01*
X2529281Y2305798D01*
X2528965Y2305655D01*
X2528654Y2305504D01*
X2528346Y2305346D01*
X2528041Y2305180D01*
X2527742Y2305007D01*
X2527446Y2304827D01*
X2527155Y2304639D01*
X2526868Y2304445D01*
X2526587Y2304243D01*
X2526310Y2304035D01*
X2526038Y2303820D01*
X2525772Y2303598D01*
X2525511Y2303370D01*
X2525256Y2303136D01*
X2525007Y2302896D01*
X2524764Y2302649D01*
X2524526Y2302397D01*
X2524295Y2302139D01*
X2524070Y2301875D01*
X2523852Y2301607D01*
X2523640Y2301332D01*
X2523435Y2301053D01*
X2523237Y2300769D01*
X2523046Y2300480D01*
X2522862Y2300187D01*
X2522685Y2299889D01*
X2522516Y2299587D01*
X2522354Y2299281D01*
X2522199Y2298971D01*
X2522052Y2298657D01*
X2521913Y2298340D01*
X2521781Y2298020D01*
X2521658Y2297696D01*
X2521542Y2297370D01*
X2521434Y2297041D01*
X2521334Y2296709D01*
X2521242Y2296375D01*
X2521159Y2296039D01*
X2521084Y2295701D01*
X2521017Y2295361D01*
X2520958Y2295020D01*
X2520907Y2294677D01*
X2520865Y2294333D01*
X2520832Y2293989D01*
X2520806Y2293643D01*
X2520789Y2293297D01*
X2520781Y2292951D01*
X2520781Y2292605D01*
X2520789Y2292259D01*
X2520806Y2291913D01*
X2520832Y2291567D01*
X2520865Y2291223D01*
X2520907Y2290879D01*
X2520958Y2290536D01*
X2521017Y2290195D01*
X2521084Y2289855D01*
X2521159Y2289517D01*
X2521242Y2289181D01*
X2521334Y2288847D01*
X2521434Y2288515D01*
X2521542Y2288186D01*
X2521658Y2287860D01*
X2521781Y2287536D01*
X2521913Y2287216D01*
X2522052Y2286899D01*
X2522199Y2286585D01*
X2522354Y2286275D01*
X2522516Y2285969D01*
X2522685Y2285667D01*
X2522862Y2285369D01*
X2523046Y2285076D01*
X2523237Y2284787D01*
X2523435Y2284503D01*
X2523640Y2284224D01*
X2523852Y2283949D01*
X2524070Y2283681D01*
X2524295Y2283417D01*
X2524526Y2283159D01*
X2524764Y2282907D01*
X2525007Y2282660D01*
X2525256Y2282420D01*
X2525511Y2282186D01*
X2525772Y2281958D01*
X2526038Y2281736D01*
X2526310Y2281521D01*
X2526587Y2281313D01*
X2526868Y2281111D01*
X2527155Y2280917D01*
X2527446Y2280729D01*
X2527742Y2280549D01*
X2528041Y2280376D01*
X2528346Y2280210D01*
X2528654Y2280052D01*
X2528965Y2279901D01*
X2529281Y2279758D01*
X2529600Y2279622D01*
X2529921Y2279494D01*
X2530246Y2279375D01*
X2530574Y2279263D01*
X2530905Y2279159D01*
X2531238Y2279063D01*
X2531573Y2278976D01*
X2531910Y2278896D01*
X2532249Y2278825D01*
X2532589Y2278762D01*
X2532931Y2278708D01*
X2533275Y2278661D01*
X2533619Y2278623D01*
X2533964Y2278594D01*
X2534310Y2278573D01*
X2534656Y2278560D01*
X2535002Y2278556D01*
X2535002Y2278555D02*
X2549224Y2278555D01*
X2494795Y2275000D02*
X2494780Y2276259D01*
X2494735Y2277517D01*
X2494660Y2278774D01*
X2494555Y2280029D01*
X2494420Y2281281D01*
X2494255Y2282529D01*
X2494060Y2283773D01*
X2493836Y2285012D01*
X2493582Y2286245D01*
X2493299Y2287472D01*
X2492987Y2288692D01*
X2492645Y2289903D01*
X2492275Y2291107D01*
X2491877Y2292301D01*
X2491449Y2293486D01*
X2490994Y2294659D01*
X2490511Y2295822D01*
X2490000Y2296973D01*
X2489462Y2298111D01*
X2489354Y2298412D01*
X2489240Y2298711D01*
X2489118Y2299007D01*
X2488989Y2299300D01*
X2488852Y2299589D01*
X2488709Y2299875D01*
X2488559Y2300158D01*
X2488402Y2300437D01*
X2488238Y2300712D01*
X2488068Y2300982D01*
X2487891Y2301249D01*
X2487708Y2301511D01*
X2487518Y2301769D01*
X2487322Y2302022D01*
X2487120Y2302270D01*
X2486912Y2302514D01*
X2486699Y2302752D01*
X2486479Y2302985D01*
X2486254Y2303212D01*
X2486023Y2303434D01*
X2485787Y2303650D01*
X2485546Y2303860D01*
X2485300Y2304065D01*
X2485049Y2304263D01*
X2484793Y2304456D01*
X2484533Y2304642D01*
X2484268Y2304821D01*
X2483999Y2304994D01*
X2483726Y2305161D01*
X2483449Y2305321D01*
X2483168Y2305474D01*
X2482883Y2305620D01*
X2482595Y2305759D01*
X2482303Y2305891D01*
X2482009Y2306016D01*
X2481711Y2306134D01*
X2481411Y2306245D01*
X2481108Y2306348D01*
X2480803Y2306444D01*
X2480495Y2306532D01*
X2480186Y2306613D01*
X2479874Y2306686D01*
X2479561Y2306752D01*
X2479246Y2306810D01*
X2478930Y2306860D01*
X2478613Y2306903D01*
X2478295Y2306938D01*
X2477976Y2306965D01*
X2477657Y2306984D01*
X2477337Y2306996D01*
X2477017Y2307000D01*
X2476697Y2306996D01*
X2476377Y2306984D01*
X2476058Y2306965D01*
X2475739Y2306938D01*
X2475421Y2306903D01*
X2475104Y2306860D01*
X2474788Y2306810D01*
X2474473Y2306752D01*
X2474160Y2306686D01*
X2473848Y2306613D01*
X2473539Y2306532D01*
X2473231Y2306444D01*
X2472926Y2306348D01*
X2472623Y2306245D01*
X2472323Y2306134D01*
X2472025Y2306016D01*
X2471731Y2305891D01*
X2471439Y2305759D01*
X2471151Y2305620D01*
X2470867Y2305474D01*
X2470585Y2305321D01*
X2470308Y2305161D01*
X2470035Y2304994D01*
X2469766Y2304821D01*
X2469501Y2304642D01*
X2469241Y2304456D01*
X2468985Y2304263D01*
X2468734Y2304065D01*
X2468488Y2303861D01*
X2468247Y2303650D01*
X2468011Y2303434D01*
X2467780Y2303212D01*
X2467555Y2302985D01*
X2467336Y2302752D01*
X2467122Y2302514D01*
X2466914Y2302271D01*
X2466712Y2302022D01*
X2466516Y2301769D01*
X2466326Y2301512D01*
X2466143Y2301249D01*
X2465966Y2300983D01*
X2465796Y2300712D01*
X2465632Y2300437D01*
X2465475Y2300158D01*
X2465325Y2299875D01*
X2465182Y2299589D01*
X2465046Y2299300D01*
X2464916Y2299007D01*
X2464794Y2298711D01*
X2464680Y2298412D01*
X2464572Y2298111D01*
X2464034Y2296973D01*
X2463523Y2295822D01*
X2463040Y2294659D01*
X2462585Y2293486D01*
X2462158Y2292301D01*
X2461759Y2291107D01*
X2461389Y2289904D01*
X2461047Y2288692D01*
X2460735Y2287472D01*
X2460452Y2286245D01*
X2460198Y2285012D01*
X2459974Y2283773D01*
X2459779Y2282529D01*
X2459614Y2281281D01*
X2459479Y2280029D01*
X2459374Y2278774D01*
X2459299Y2277517D01*
X2459254Y2276259D01*
X2459239Y2275000D01*
X2494796Y2275000D02*
X2494781Y2273741D01*
X2494736Y2272483D01*
X2494661Y2271226D01*
X2494556Y2269971D01*
X2494421Y2268719D01*
X2494256Y2267471D01*
X2494061Y2266227D01*
X2493837Y2264988D01*
X2493583Y2263755D01*
X2493300Y2262528D01*
X2492988Y2261308D01*
X2492646Y2260096D01*
X2492276Y2258893D01*
X2491878Y2257699D01*
X2491450Y2256514D01*
X2490995Y2255340D01*
X2490512Y2254178D01*
X2490001Y2253027D01*
X2489463Y2251889D01*
X2489462Y2251889D02*
X2489354Y2251588D01*
X2489240Y2251289D01*
X2489118Y2250993D01*
X2488988Y2250700D01*
X2488852Y2250411D01*
X2488709Y2250125D01*
X2488559Y2249842D01*
X2488402Y2249563D01*
X2488238Y2249288D01*
X2488068Y2249017D01*
X2487891Y2248751D01*
X2487708Y2248489D01*
X2487518Y2248231D01*
X2487322Y2247978D01*
X2487120Y2247730D01*
X2486912Y2247486D01*
X2486699Y2247248D01*
X2486479Y2247015D01*
X2486254Y2246788D01*
X2486023Y2246566D01*
X2485787Y2246350D01*
X2485546Y2246139D01*
X2485300Y2245935D01*
X2485049Y2245737D01*
X2484793Y2245544D01*
X2484533Y2245358D01*
X2484268Y2245179D01*
X2483999Y2245006D01*
X2483726Y2244839D01*
X2483449Y2244679D01*
X2483168Y2244526D01*
X2482883Y2244380D01*
X2482595Y2244241D01*
X2482303Y2244109D01*
X2482009Y2243984D01*
X2481711Y2243866D01*
X2481411Y2243755D01*
X2481108Y2243652D01*
X2480803Y2243556D01*
X2480495Y2243468D01*
X2480186Y2243387D01*
X2479874Y2243314D01*
X2479561Y2243248D01*
X2479246Y2243190D01*
X2478930Y2243140D01*
X2478613Y2243097D01*
X2478295Y2243062D01*
X2477976Y2243035D01*
X2477657Y2243016D01*
X2477337Y2243004D01*
X2477017Y2243000D01*
X2464572Y2251889D02*
X2464034Y2253027D01*
X2463523Y2254178D01*
X2463040Y2255340D01*
X2462585Y2256514D01*
X2462158Y2257699D01*
X2461759Y2258893D01*
X2461389Y2260096D01*
X2461047Y2261308D01*
X2460735Y2262528D01*
X2460452Y2263755D01*
X2460198Y2264988D01*
X2459974Y2266227D01*
X2459779Y2267471D01*
X2459614Y2268719D01*
X2459479Y2269971D01*
X2459374Y2271226D01*
X2459299Y2272483D01*
X2459254Y2273741D01*
X2459239Y2275000D01*
X2464572Y2251889D02*
X2464680Y2251588D01*
X2464794Y2251289D01*
X2464916Y2250993D01*
X2465046Y2250700D01*
X2465182Y2250411D01*
X2465325Y2250125D01*
X2465475Y2249842D01*
X2465632Y2249563D01*
X2465796Y2249288D01*
X2465966Y2249017D01*
X2466143Y2248751D01*
X2466326Y2248488D01*
X2466516Y2248231D01*
X2466712Y2247978D01*
X2466914Y2247729D01*
X2467122Y2247486D01*
X2467336Y2247248D01*
X2467555Y2247015D01*
X2467780Y2246788D01*
X2468011Y2246566D01*
X2468247Y2246350D01*
X2468488Y2246139D01*
X2468734Y2245935D01*
X2468985Y2245736D01*
X2469241Y2245544D01*
X2469501Y2245358D01*
X2469766Y2245179D01*
X2470035Y2245006D01*
X2470308Y2244839D01*
X2470586Y2244679D01*
X2470867Y2244526D01*
X2471151Y2244380D01*
X2471439Y2244241D01*
X2471731Y2244109D01*
X2472025Y2243984D01*
X2472323Y2243866D01*
X2472623Y2243755D01*
X2472926Y2243652D01*
X2473231Y2243556D01*
X2473539Y2243468D01*
X2473849Y2243387D01*
X2474160Y2243314D01*
X2474473Y2243248D01*
X2474788Y2243190D01*
X2475104Y2243140D01*
X2475421Y2243097D01*
X2475739Y2243062D01*
X2476058Y2243035D01*
X2476377Y2243016D01*
X2476697Y2243004D01*
X2477017Y2243000D01*
X2491240Y2257222D02*
X2462795Y2292778D01*
X2433255Y2278555D02*
X2411922Y2278555D01*
X2411578Y2278551D01*
X2411235Y2278538D01*
X2410892Y2278518D01*
X2410549Y2278489D01*
X2410208Y2278451D01*
X2409867Y2278406D01*
X2409528Y2278352D01*
X2409190Y2278290D01*
X2408853Y2278220D01*
X2408518Y2278142D01*
X2408186Y2278055D01*
X2407855Y2277961D01*
X2407527Y2277859D01*
X2407202Y2277749D01*
X2406879Y2277631D01*
X2406559Y2277505D01*
X2406242Y2277372D01*
X2405929Y2277231D01*
X2405619Y2277082D01*
X2405313Y2276926D01*
X2405010Y2276763D01*
X2404712Y2276592D01*
X2404418Y2276414D01*
X2404128Y2276229D01*
X2403843Y2276037D01*
X2403563Y2275839D01*
X2403287Y2275633D01*
X2403016Y2275422D01*
X2402751Y2275203D01*
X2402491Y2274978D01*
X2402237Y2274747D01*
X2401988Y2274510D01*
X2401745Y2274267D01*
X2401508Y2274018D01*
X2401277Y2273764D01*
X2401052Y2273504D01*
X2400833Y2273239D01*
X2400622Y2272968D01*
X2400416Y2272692D01*
X2400218Y2272412D01*
X2400026Y2272127D01*
X2399841Y2271837D01*
X2399663Y2271543D01*
X2399492Y2271245D01*
X2399329Y2270942D01*
X2399173Y2270636D01*
X2399024Y2270326D01*
X2398883Y2270013D01*
X2398750Y2269696D01*
X2398624Y2269376D01*
X2398506Y2269053D01*
X2398396Y2268728D01*
X2398294Y2268400D01*
X2398200Y2268069D01*
X2398113Y2267737D01*
X2398035Y2267402D01*
X2397965Y2267065D01*
X2397903Y2266727D01*
X2397849Y2266388D01*
X2397804Y2266047D01*
X2397766Y2265706D01*
X2397737Y2265363D01*
X2397717Y2265020D01*
X2397704Y2264677D01*
X2397700Y2264333D01*
X2397699Y2264333D02*
X2397699Y2260778D01*
X2397704Y2260345D01*
X2397720Y2259912D01*
X2397746Y2259480D01*
X2397783Y2259049D01*
X2397831Y2258619D01*
X2397888Y2258190D01*
X2397957Y2257762D01*
X2398035Y2257336D01*
X2398124Y2256913D01*
X2398224Y2256491D01*
X2398333Y2256072D01*
X2398453Y2255656D01*
X2398583Y2255243D01*
X2398722Y2254833D01*
X2398872Y2254427D01*
X2399032Y2254025D01*
X2399201Y2253626D01*
X2399380Y2253232D01*
X2399568Y2252842D01*
X2399766Y2252457D01*
X2399974Y2252077D01*
X2400190Y2251702D01*
X2400416Y2251333D01*
X2400650Y2250969D01*
X2400893Y2250611D01*
X2401145Y2250258D01*
X2401406Y2249913D01*
X2401675Y2249573D01*
X2401951Y2249240D01*
X2402236Y2248914D01*
X2402529Y2248596D01*
X2402830Y2248284D01*
X2403138Y2247980D01*
X2403453Y2247683D01*
X2403776Y2247394D01*
X2404105Y2247113D01*
X2404441Y2246840D01*
X2404784Y2246576D01*
X2405133Y2246319D01*
X2405488Y2246072D01*
X2405849Y2245833D01*
X2406216Y2245603D01*
X2406588Y2245382D01*
X2406966Y2245170D01*
X2407348Y2244967D01*
X2407736Y2244774D01*
X2408128Y2244590D01*
X2408524Y2244416D01*
X2408924Y2244252D01*
X2409329Y2244097D01*
X2409737Y2243952D01*
X2410148Y2243817D01*
X2410563Y2243693D01*
X2410980Y2243578D01*
X2411401Y2243474D01*
X2411823Y2243380D01*
X2412248Y2243296D01*
X2412675Y2243222D01*
X2413103Y2243159D01*
X2413533Y2243107D01*
X2413963Y2243065D01*
X2414395Y2243033D01*
X2414828Y2243012D01*
X2415261Y2243001D01*
X2415693Y2243001D01*
X2416126Y2243012D01*
X2416559Y2243033D01*
X2416991Y2243065D01*
X2417421Y2243107D01*
X2417851Y2243159D01*
X2418279Y2243222D01*
X2418706Y2243296D01*
X2419131Y2243380D01*
X2419553Y2243474D01*
X2419974Y2243578D01*
X2420391Y2243693D01*
X2420806Y2243817D01*
X2421217Y2243952D01*
X2421625Y2244097D01*
X2422030Y2244252D01*
X2422430Y2244416D01*
X2422826Y2244590D01*
X2423218Y2244774D01*
X2423606Y2244967D01*
X2423988Y2245170D01*
X2424366Y2245382D01*
X2424738Y2245603D01*
X2425105Y2245833D01*
X2425466Y2246072D01*
X2425821Y2246319D01*
X2426170Y2246576D01*
X2426513Y2246840D01*
X2426849Y2247113D01*
X2427178Y2247394D01*
X2427501Y2247683D01*
X2427816Y2247980D01*
X2428124Y2248284D01*
X2428425Y2248596D01*
X2428718Y2248914D01*
X2429003Y2249240D01*
X2429279Y2249573D01*
X2429548Y2249913D01*
X2429809Y2250258D01*
X2430061Y2250611D01*
X2430304Y2250969D01*
X2430538Y2251333D01*
X2430764Y2251702D01*
X2430980Y2252077D01*
X2431188Y2252457D01*
X2431386Y2252842D01*
X2431574Y2253232D01*
X2431753Y2253626D01*
X2431922Y2254025D01*
X2432082Y2254427D01*
X2432232Y2254833D01*
X2432371Y2255243D01*
X2432501Y2255656D01*
X2432621Y2256072D01*
X2432730Y2256491D01*
X2432830Y2256913D01*
X2432919Y2257336D01*
X2432997Y2257762D01*
X2433066Y2258190D01*
X2433123Y2258619D01*
X2433171Y2259049D01*
X2433208Y2259480D01*
X2433234Y2259912D01*
X2433250Y2260345D01*
X2433255Y2260778D01*
X2433255Y2278555D01*
X2433247Y2279242D01*
X2433222Y2279929D01*
X2433180Y2280615D01*
X2433122Y2281300D01*
X2433048Y2281984D01*
X2432957Y2282665D01*
X2432849Y2283344D01*
X2432725Y2284020D01*
X2432585Y2284693D01*
X2432428Y2285362D01*
X2432256Y2286027D01*
X2432067Y2286688D01*
X2431863Y2287345D01*
X2431643Y2287996D01*
X2431407Y2288641D01*
X2431155Y2289281D01*
X2430888Y2289915D01*
X2430606Y2290541D01*
X2430309Y2291161D01*
X2429997Y2291774D01*
X2429670Y2292378D01*
X2429329Y2292975D01*
X2428973Y2293563D01*
X2428604Y2294143D01*
X2428220Y2294713D01*
X2427823Y2295274D01*
X2427412Y2295825D01*
X2426988Y2296366D01*
X2426551Y2296897D01*
X2426102Y2297417D01*
X2425640Y2297926D01*
X2425165Y2298423D01*
X2424679Y2298909D01*
X2424182Y2299384D01*
X2423673Y2299846D01*
X2423153Y2300295D01*
X2422622Y2300732D01*
X2422081Y2301156D01*
X2421530Y2301567D01*
X2420969Y2301964D01*
X2420399Y2302348D01*
X2419819Y2302717D01*
X2419231Y2303073D01*
X2418634Y2303414D01*
X2418030Y2303741D01*
X2417417Y2304053D01*
X2416797Y2304350D01*
X2416171Y2304632D01*
X2415537Y2304899D01*
X2414897Y2305151D01*
X2414252Y2305387D01*
X2413601Y2305607D01*
X2412944Y2305811D01*
X2412283Y2306000D01*
X2411618Y2306172D01*
X2410949Y2306329D01*
X2410276Y2306469D01*
X2409600Y2306593D01*
X2408921Y2306701D01*
X2408240Y2306792D01*
X2407556Y2306866D01*
X2406871Y2306924D01*
X2406185Y2306966D01*
X2405498Y2306991D01*
X2404811Y2306999D01*
D11*
X2752556Y1192000D02*
X2762778Y1192000D01*
X2763025Y1192003D01*
X2763272Y1192012D01*
X2763518Y1192027D01*
X2763765Y1192048D01*
X2764010Y1192075D01*
X2764255Y1192107D01*
X2764499Y1192146D01*
X2764742Y1192190D01*
X2764984Y1192241D01*
X2765224Y1192297D01*
X2765463Y1192359D01*
X2765701Y1192427D01*
X2765937Y1192500D01*
X2766171Y1192579D01*
X2766403Y1192664D01*
X2766633Y1192755D01*
X2766860Y1192851D01*
X2767086Y1192952D01*
X2767308Y1193059D01*
X2767528Y1193171D01*
X2767746Y1193288D01*
X2767960Y1193411D01*
X2768172Y1193539D01*
X2768380Y1193672D01*
X2768585Y1193809D01*
X2768786Y1193952D01*
X2768984Y1194100D01*
X2769179Y1194252D01*
X2769370Y1194409D01*
X2769556Y1194571D01*
X2769739Y1194737D01*
X2769918Y1194907D01*
X2770093Y1195082D01*
X2770263Y1195261D01*
X2770429Y1195444D01*
X2770591Y1195630D01*
X2770748Y1195821D01*
X2770900Y1196016D01*
X2771048Y1196214D01*
X2771191Y1196415D01*
X2771328Y1196620D01*
X2771461Y1196828D01*
X2771589Y1197040D01*
X2771712Y1197254D01*
X2771829Y1197472D01*
X2771941Y1197692D01*
X2772048Y1197914D01*
X2772149Y1198140D01*
X2772245Y1198367D01*
X2772336Y1198597D01*
X2772421Y1198829D01*
X2772500Y1199063D01*
X2772573Y1199299D01*
X2772641Y1199537D01*
X2772703Y1199776D01*
X2772759Y1200016D01*
X2772810Y1200258D01*
X2772854Y1200501D01*
X2772893Y1200745D01*
X2772925Y1200990D01*
X2772952Y1201235D01*
X2772973Y1201482D01*
X2772988Y1201728D01*
X2772997Y1201975D01*
X2773000Y1202222D01*
X2773000Y1227778D01*
X2772997Y1228025D01*
X2772988Y1228272D01*
X2772973Y1228518D01*
X2772952Y1228765D01*
X2772925Y1229010D01*
X2772893Y1229255D01*
X2772854Y1229499D01*
X2772810Y1229742D01*
X2772759Y1229984D01*
X2772703Y1230224D01*
X2772641Y1230463D01*
X2772573Y1230701D01*
X2772500Y1230937D01*
X2772421Y1231171D01*
X2772336Y1231403D01*
X2772245Y1231633D01*
X2772149Y1231860D01*
X2772048Y1232086D01*
X2771941Y1232308D01*
X2771829Y1232528D01*
X2771712Y1232746D01*
X2771589Y1232960D01*
X2771461Y1233172D01*
X2771328Y1233380D01*
X2771191Y1233585D01*
X2771048Y1233786D01*
X2770900Y1233984D01*
X2770748Y1234179D01*
X2770591Y1234370D01*
X2770429Y1234556D01*
X2770263Y1234739D01*
X2770093Y1234918D01*
X2769918Y1235093D01*
X2769739Y1235263D01*
X2769556Y1235429D01*
X2769370Y1235591D01*
X2769179Y1235748D01*
X2768984Y1235900D01*
X2768786Y1236048D01*
X2768585Y1236191D01*
X2768380Y1236328D01*
X2768172Y1236461D01*
X2767960Y1236589D01*
X2767746Y1236712D01*
X2767528Y1236829D01*
X2767308Y1236941D01*
X2767086Y1237048D01*
X2766860Y1237149D01*
X2766633Y1237245D01*
X2766403Y1237336D01*
X2766171Y1237421D01*
X2765937Y1237500D01*
X2765701Y1237573D01*
X2765463Y1237641D01*
X2765224Y1237703D01*
X2764984Y1237759D01*
X2764742Y1237810D01*
X2764499Y1237854D01*
X2764255Y1237893D01*
X2764010Y1237925D01*
X2763765Y1237952D01*
X2763518Y1237973D01*
X2763272Y1237988D01*
X2763025Y1237997D01*
X2762778Y1238000D01*
X2752556Y1238000D01*
X2735369Y1227778D02*
X2722592Y1238000D01*
X2722592Y1192000D01*
X2735369Y1192000D02*
X2709814Y1192000D01*
D10*
X3500000Y250000D02*
X3500000Y150000D01*
X3500000Y250000D02*
X3590000Y250000D01*
X3600000Y240000D01*
X3610000Y250000D01*
X3690000Y250000D01*
X3700000Y240000D01*
X3710000Y250000D01*
X3790000Y250000D01*
X3800000Y240000D01*
X3810000Y250000D01*
X3890000Y250000D01*
X3900000Y240000D01*
X3910000Y250000D01*
X4000000Y250000D01*
X4000000Y150000D01*
X3910000Y150000D01*
X3900000Y160000D01*
X3890000Y150000D01*
X3810000Y150000D01*
X3800000Y160000D01*
X3790000Y150000D01*
X3710000Y150000D01*
X3700000Y160000D01*
X3690000Y150000D01*
X3610000Y150000D01*
X3600000Y160000D01*
X3590000Y150000D01*
X3500000Y150000D01*
D12*
X3482500Y212500D02*
X3470000Y222500D01*
X3470000Y177500D01*
X3482500Y177500D02*
X3457500Y177500D01*
X4022500Y177500D02*
X4037500Y177500D01*
X4022500Y177500D02*
X4022258Y177503D01*
X4022017Y177512D01*
X4021776Y177526D01*
X4021535Y177547D01*
X4021295Y177573D01*
X4021055Y177605D01*
X4020816Y177643D01*
X4020579Y177686D01*
X4020342Y177736D01*
X4020107Y177791D01*
X4019873Y177851D01*
X4019641Y177918D01*
X4019410Y177989D01*
X4019181Y178067D01*
X4018954Y178150D01*
X4018729Y178238D01*
X4018506Y178332D01*
X4018286Y178431D01*
X4018068Y178536D01*
X4017853Y178645D01*
X4017640Y178760D01*
X4017430Y178880D01*
X4017224Y179005D01*
X4017020Y179135D01*
X4016819Y179270D01*
X4016622Y179410D01*
X4016428Y179554D01*
X4016238Y179703D01*
X4016052Y179857D01*
X4015869Y180015D01*
X4015690Y180177D01*
X4015515Y180344D01*
X4015344Y180515D01*
X4015177Y180690D01*
X4015015Y180869D01*
X4014857Y181052D01*
X4014703Y181238D01*
X4014554Y181428D01*
X4014410Y181622D01*
X4014270Y181819D01*
X4014135Y182020D01*
X4014005Y182224D01*
X4013880Y182430D01*
X4013760Y182640D01*
X4013645Y182853D01*
X4013536Y183068D01*
X4013431Y183286D01*
X4013332Y183506D01*
X4013238Y183729D01*
X4013150Y183954D01*
X4013067Y184181D01*
X4012989Y184410D01*
X4012918Y184641D01*
X4012851Y184873D01*
X4012791Y185107D01*
X4012736Y185342D01*
X4012686Y185579D01*
X4012643Y185816D01*
X4012605Y186055D01*
X4012573Y186295D01*
X4012547Y186535D01*
X4012526Y186776D01*
X4012512Y187017D01*
X4012503Y187258D01*
X4012500Y187500D01*
X4012500Y192500D01*
X4012503Y192742D01*
X4012512Y192983D01*
X4012526Y193224D01*
X4012547Y193465D01*
X4012573Y193705D01*
X4012605Y193945D01*
X4012643Y194184D01*
X4012686Y194421D01*
X4012736Y194658D01*
X4012791Y194893D01*
X4012851Y195127D01*
X4012918Y195359D01*
X4012989Y195590D01*
X4013067Y195819D01*
X4013150Y196046D01*
X4013238Y196271D01*
X4013332Y196494D01*
X4013431Y196714D01*
X4013536Y196932D01*
X4013645Y197147D01*
X4013760Y197360D01*
X4013880Y197570D01*
X4014005Y197776D01*
X4014135Y197980D01*
X4014270Y198181D01*
X4014410Y198378D01*
X4014554Y198572D01*
X4014703Y198762D01*
X4014857Y198948D01*
X4015015Y199131D01*
X4015177Y199310D01*
X4015344Y199485D01*
X4015515Y199656D01*
X4015690Y199823D01*
X4015869Y199985D01*
X4016052Y200143D01*
X4016238Y200297D01*
X4016428Y200446D01*
X4016622Y200590D01*
X4016819Y200730D01*
X4017020Y200865D01*
X4017224Y200995D01*
X4017430Y201120D01*
X4017640Y201240D01*
X4017853Y201355D01*
X4018068Y201464D01*
X4018286Y201569D01*
X4018506Y201668D01*
X4018729Y201762D01*
X4018954Y201850D01*
X4019181Y201933D01*
X4019410Y202011D01*
X4019641Y202082D01*
X4019873Y202149D01*
X4020107Y202209D01*
X4020342Y202264D01*
X4020579Y202314D01*
X4020816Y202357D01*
X4021055Y202395D01*
X4021295Y202427D01*
X4021535Y202453D01*
X4021776Y202474D01*
X4022017Y202488D01*
X4022258Y202497D01*
X4022500Y202500D01*
X4037500Y202500D01*
X4037500Y222500D01*
X4012500Y222500D01*
X3632750Y132500D02*
X3632750Y87500D01*
X3637750Y87500D02*
X3627750Y87500D01*
X3627750Y132500D02*
X3637750Y132500D01*
X3599397Y87500D02*
X3589397Y87500D01*
X3599397Y87500D02*
X3599639Y87503D01*
X3599880Y87512D01*
X3600121Y87526D01*
X3600362Y87547D01*
X3600602Y87573D01*
X3600842Y87605D01*
X3601081Y87643D01*
X3601318Y87686D01*
X3601555Y87736D01*
X3601790Y87791D01*
X3602024Y87851D01*
X3602256Y87918D01*
X3602487Y87989D01*
X3602716Y88067D01*
X3602943Y88150D01*
X3603168Y88238D01*
X3603391Y88332D01*
X3603611Y88431D01*
X3603829Y88536D01*
X3604044Y88645D01*
X3604257Y88760D01*
X3604467Y88880D01*
X3604673Y89005D01*
X3604877Y89135D01*
X3605078Y89270D01*
X3605275Y89410D01*
X3605469Y89554D01*
X3605659Y89703D01*
X3605845Y89857D01*
X3606028Y90015D01*
X3606207Y90177D01*
X3606382Y90344D01*
X3606553Y90515D01*
X3606720Y90690D01*
X3606882Y90869D01*
X3607040Y91052D01*
X3607194Y91238D01*
X3607343Y91428D01*
X3607487Y91622D01*
X3607627Y91819D01*
X3607762Y92020D01*
X3607892Y92224D01*
X3608017Y92430D01*
X3608137Y92640D01*
X3608252Y92853D01*
X3608361Y93068D01*
X3608466Y93286D01*
X3608565Y93506D01*
X3608659Y93729D01*
X3608747Y93954D01*
X3608830Y94181D01*
X3608908Y94410D01*
X3608979Y94641D01*
X3609046Y94873D01*
X3609106Y95107D01*
X3609161Y95342D01*
X3609211Y95579D01*
X3609254Y95816D01*
X3609292Y96055D01*
X3609324Y96295D01*
X3609350Y96535D01*
X3609371Y96776D01*
X3609385Y97017D01*
X3609394Y97258D01*
X3609397Y97500D01*
X3609397Y122500D01*
X3609394Y122742D01*
X3609385Y122983D01*
X3609371Y123224D01*
X3609350Y123465D01*
X3609324Y123705D01*
X3609292Y123945D01*
X3609254Y124184D01*
X3609211Y124421D01*
X3609161Y124658D01*
X3609106Y124893D01*
X3609046Y125127D01*
X3608979Y125359D01*
X3608908Y125590D01*
X3608830Y125819D01*
X3608747Y126046D01*
X3608659Y126271D01*
X3608565Y126494D01*
X3608466Y126714D01*
X3608361Y126932D01*
X3608252Y127147D01*
X3608137Y127360D01*
X3608017Y127570D01*
X3607892Y127776D01*
X3607762Y127980D01*
X3607627Y128181D01*
X3607487Y128378D01*
X3607343Y128572D01*
X3607194Y128762D01*
X3607040Y128948D01*
X3606882Y129131D01*
X3606720Y129310D01*
X3606553Y129485D01*
X3606382Y129656D01*
X3606207Y129823D01*
X3606028Y129985D01*
X3605845Y130143D01*
X3605659Y130297D01*
X3605469Y130446D01*
X3605275Y130590D01*
X3605078Y130730D01*
X3604877Y130865D01*
X3604673Y130995D01*
X3604467Y131120D01*
X3604257Y131240D01*
X3604044Y131355D01*
X3603829Y131464D01*
X3603611Y131569D01*
X3603391Y131668D01*
X3603168Y131762D01*
X3602943Y131850D01*
X3602716Y131933D01*
X3602487Y132011D01*
X3602256Y132082D01*
X3602024Y132149D01*
X3601790Y132209D01*
X3601555Y132264D01*
X3601318Y132314D01*
X3601081Y132357D01*
X3600842Y132395D01*
X3600602Y132427D01*
X3600362Y132453D01*
X3600121Y132474D01*
X3599880Y132488D01*
X3599639Y132497D01*
X3599397Y132500D01*
X3589397Y132500D01*
X3548250Y97500D02*
X3548253Y97258D01*
X3548262Y97017D01*
X3548276Y96776D01*
X3548297Y96535D01*
X3548323Y96295D01*
X3548355Y96055D01*
X3548393Y95816D01*
X3548436Y95579D01*
X3548486Y95342D01*
X3548541Y95107D01*
X3548601Y94873D01*
X3548668Y94641D01*
X3548739Y94410D01*
X3548817Y94181D01*
X3548900Y93954D01*
X3548988Y93729D01*
X3549082Y93506D01*
X3549181Y93286D01*
X3549286Y93068D01*
X3549395Y92853D01*
X3549510Y92640D01*
X3549630Y92430D01*
X3549755Y92224D01*
X3549885Y92020D01*
X3550020Y91819D01*
X3550160Y91622D01*
X3550304Y91428D01*
X3550453Y91238D01*
X3550607Y91052D01*
X3550765Y90869D01*
X3550927Y90690D01*
X3551094Y90515D01*
X3551265Y90344D01*
X3551440Y90177D01*
X3551619Y90015D01*
X3551802Y89857D01*
X3551988Y89703D01*
X3552178Y89554D01*
X3552372Y89410D01*
X3552569Y89270D01*
X3552770Y89135D01*
X3552974Y89005D01*
X3553180Y88880D01*
X3553390Y88760D01*
X3553603Y88645D01*
X3553818Y88536D01*
X3554036Y88431D01*
X3554256Y88332D01*
X3554479Y88238D01*
X3554704Y88150D01*
X3554931Y88067D01*
X3555160Y87989D01*
X3555391Y87918D01*
X3555623Y87851D01*
X3555857Y87791D01*
X3556092Y87736D01*
X3556329Y87686D01*
X3556566Y87643D01*
X3556805Y87605D01*
X3557045Y87573D01*
X3557285Y87547D01*
X3557526Y87526D01*
X3557767Y87512D01*
X3558008Y87503D01*
X3558250Y87500D01*
X3558755Y87506D01*
X3559261Y87524D01*
X3559765Y87554D01*
X3560269Y87597D01*
X3560771Y87651D01*
X3561272Y87717D01*
X3561772Y87796D01*
X3562269Y87886D01*
X3562764Y87988D01*
X3563256Y88102D01*
X3563746Y88227D01*
X3564232Y88365D01*
X3564715Y88514D01*
X3565195Y88674D01*
X3565670Y88846D01*
X3566141Y89029D01*
X3566608Y89224D01*
X3567069Y89429D01*
X3567526Y89646D01*
X3567978Y89873D01*
X3568423Y90111D01*
X3568863Y90360D01*
X3569297Y90619D01*
X3569725Y90888D01*
X3570146Y91168D01*
X3570560Y91458D01*
X3570968Y91757D01*
X3571367Y92066D01*
X3571760Y92385D01*
X3572145Y92713D01*
X3572521Y93050D01*
X3572890Y93395D01*
X3573250Y93750D01*
X3572000Y122500D02*
X3571997Y122742D01*
X3571988Y122983D01*
X3571974Y123224D01*
X3571953Y123465D01*
X3571927Y123705D01*
X3571895Y123945D01*
X3571857Y124184D01*
X3571814Y124421D01*
X3571764Y124658D01*
X3571709Y124893D01*
X3571649Y125127D01*
X3571582Y125359D01*
X3571511Y125590D01*
X3571433Y125819D01*
X3571350Y126046D01*
X3571262Y126271D01*
X3571168Y126494D01*
X3571069Y126714D01*
X3570964Y126932D01*
X3570855Y127147D01*
X3570740Y127360D01*
X3570620Y127570D01*
X3570495Y127776D01*
X3570365Y127980D01*
X3570230Y128181D01*
X3570090Y128378D01*
X3569946Y128572D01*
X3569797Y128762D01*
X3569643Y128948D01*
X3569485Y129131D01*
X3569323Y129310D01*
X3569156Y129485D01*
X3568985Y129656D01*
X3568810Y129823D01*
X3568631Y129985D01*
X3568448Y130143D01*
X3568262Y130297D01*
X3568072Y130446D01*
X3567878Y130590D01*
X3567681Y130730D01*
X3567480Y130865D01*
X3567276Y130995D01*
X3567070Y131120D01*
X3566860Y131240D01*
X3566647Y131355D01*
X3566432Y131464D01*
X3566214Y131569D01*
X3565994Y131668D01*
X3565771Y131762D01*
X3565546Y131850D01*
X3565319Y131933D01*
X3565090Y132011D01*
X3564859Y132082D01*
X3564627Y132149D01*
X3564393Y132209D01*
X3564158Y132264D01*
X3563921Y132314D01*
X3563684Y132357D01*
X3563445Y132395D01*
X3563205Y132427D01*
X3562965Y132453D01*
X3562724Y132474D01*
X3562483Y132488D01*
X3562242Y132497D01*
X3562000Y132500D01*
X3561553Y132495D01*
X3561107Y132479D01*
X3560661Y132452D01*
X3560215Y132415D01*
X3559771Y132367D01*
X3559328Y132309D01*
X3558886Y132240D01*
X3558447Y132160D01*
X3558009Y132070D01*
X3557573Y131970D01*
X3557140Y131859D01*
X3556710Y131738D01*
X3556283Y131607D01*
X3555859Y131466D01*
X3555439Y131315D01*
X3555022Y131153D01*
X3554609Y130982D01*
X3554201Y130801D01*
X3553797Y130610D01*
X3553397Y130410D01*
X3553003Y130200D01*
X3552613Y129981D01*
X3552229Y129753D01*
X3551850Y129515D01*
X3551478Y129269D01*
X3551111Y129014D01*
X3550750Y128750D01*
X3567000Y113750D02*
X3567210Y113877D01*
X3567416Y114009D01*
X3567620Y114146D01*
X3567820Y114288D01*
X3568016Y114435D01*
X3568209Y114586D01*
X3568399Y114742D01*
X3568584Y114903D01*
X3568765Y115068D01*
X3568943Y115237D01*
X3569116Y115411D01*
X3569285Y115588D01*
X3569450Y115770D01*
X3569610Y115955D01*
X3569766Y116145D01*
X3569917Y116338D01*
X3570063Y116535D01*
X3570205Y116735D01*
X3570342Y116938D01*
X3570474Y117145D01*
X3570600Y117355D01*
X3570722Y117568D01*
X3570839Y117784D01*
X3570950Y118002D01*
X3571056Y118224D01*
X3571156Y118447D01*
X3571251Y118673D01*
X3571341Y118901D01*
X3571425Y119132D01*
X3571504Y119364D01*
X3571577Y119598D01*
X3571644Y119834D01*
X3571705Y120071D01*
X3571761Y120310D01*
X3571811Y120550D01*
X3571855Y120792D01*
X3571894Y121034D01*
X3571926Y121277D01*
X3571953Y121521D01*
X3571973Y121765D01*
X3571988Y122010D01*
X3571997Y122255D01*
X3572000Y122500D01*
X3553250Y106250D02*
X3553040Y106123D01*
X3552834Y105991D01*
X3552630Y105854D01*
X3552430Y105712D01*
X3552234Y105565D01*
X3552041Y105414D01*
X3551851Y105258D01*
X3551666Y105097D01*
X3551485Y104932D01*
X3551307Y104763D01*
X3551134Y104589D01*
X3550965Y104412D01*
X3550800Y104230D01*
X3550640Y104045D01*
X3550484Y103855D01*
X3550333Y103662D01*
X3550187Y103465D01*
X3550045Y103265D01*
X3549908Y103062D01*
X3549776Y102855D01*
X3549650Y102645D01*
X3549528Y102432D01*
X3549411Y102216D01*
X3549300Y101998D01*
X3549194Y101776D01*
X3549094Y101553D01*
X3548999Y101327D01*
X3548909Y101099D01*
X3548825Y100868D01*
X3548746Y100636D01*
X3548673Y100402D01*
X3548606Y100166D01*
X3548545Y99929D01*
X3548489Y99690D01*
X3548439Y99450D01*
X3548395Y99208D01*
X3548356Y98966D01*
X3548324Y98723D01*
X3548297Y98479D01*
X3548277Y98235D01*
X3548262Y97990D01*
X3548253Y97745D01*
X3548250Y97500D01*
X3553250Y106250D02*
X3567000Y113750D01*
X3527500Y132500D02*
X3527500Y87500D01*
X3527500Y132500D02*
X3515000Y132500D01*
X3514696Y132496D01*
X3514391Y132485D01*
X3514088Y132467D01*
X3513784Y132441D01*
X3513482Y132407D01*
X3513180Y132367D01*
X3512879Y132319D01*
X3512580Y132264D01*
X3512282Y132201D01*
X3511986Y132131D01*
X3511691Y132054D01*
X3511399Y131970D01*
X3511108Y131879D01*
X3510820Y131780D01*
X3510535Y131675D01*
X3510252Y131563D01*
X3509971Y131444D01*
X3509694Y131318D01*
X3509420Y131186D01*
X3509150Y131046D01*
X3508882Y130901D01*
X3508619Y130748D01*
X3508359Y130590D01*
X3508103Y130425D01*
X3507851Y130254D01*
X3507604Y130077D01*
X3507360Y129894D01*
X3507122Y129705D01*
X3506888Y129510D01*
X3506659Y129310D01*
X3506434Y129104D01*
X3506215Y128892D01*
X3506001Y128676D01*
X3505793Y128454D01*
X3505589Y128228D01*
X3505392Y127996D01*
X3505200Y127760D01*
X3505014Y127519D01*
X3504834Y127273D01*
X3504660Y127024D01*
X3504492Y126770D01*
X3504330Y126512D01*
X3504175Y126250D01*
X3504026Y125985D01*
X3503883Y125716D01*
X3503747Y125443D01*
X3503618Y125168D01*
X3503496Y124889D01*
X3503380Y124607D01*
X3503271Y124323D01*
X3503170Y124036D01*
X3503075Y123747D01*
X3502987Y123455D01*
X3502906Y123162D01*
X3502833Y122866D01*
X3502767Y122569D01*
X3502708Y122270D01*
X3502656Y121970D01*
X3502612Y121669D01*
X3502575Y121367D01*
X3502545Y121064D01*
X3502523Y120761D01*
X3502508Y120457D01*
X3502501Y120152D01*
X3502501Y119848D01*
X3502508Y119543D01*
X3502523Y119239D01*
X3502545Y118936D01*
X3502575Y118633D01*
X3502612Y118331D01*
X3502656Y118030D01*
X3502708Y117730D01*
X3502767Y117431D01*
X3502833Y117134D01*
X3502906Y116838D01*
X3502987Y116545D01*
X3503075Y116253D01*
X3503170Y115964D01*
X3503271Y115677D01*
X3503380Y115393D01*
X3503496Y115111D01*
X3503618Y114832D01*
X3503747Y114557D01*
X3503883Y114284D01*
X3504026Y114015D01*
X3504175Y113750D01*
X3504330Y113488D01*
X3504492Y113230D01*
X3504660Y112976D01*
X3504834Y112727D01*
X3505014Y112481D01*
X3505200Y112240D01*
X3505392Y112004D01*
X3505589Y111772D01*
X3505793Y111546D01*
X3506001Y111324D01*
X3506215Y111108D01*
X3506434Y110896D01*
X3506659Y110690D01*
X3506888Y110490D01*
X3507122Y110295D01*
X3507360Y110106D01*
X3507604Y109923D01*
X3507851Y109746D01*
X3508103Y109575D01*
X3508359Y109410D01*
X3508619Y109252D01*
X3508882Y109099D01*
X3509150Y108954D01*
X3509420Y108814D01*
X3509694Y108682D01*
X3509971Y108556D01*
X3510252Y108437D01*
X3510535Y108325D01*
X3510820Y108220D01*
X3511108Y108121D01*
X3511399Y108030D01*
X3511691Y107946D01*
X3511986Y107869D01*
X3512282Y107799D01*
X3512580Y107736D01*
X3512879Y107681D01*
X3513180Y107633D01*
X3513482Y107593D01*
X3513784Y107559D01*
X3514088Y107533D01*
X3514391Y107515D01*
X3514696Y107504D01*
X3515000Y107500D01*
X3527500Y107500D01*
D10*
X3050000Y1043571D02*
X3063435Y1057007D01*
X3331429Y1325000D02*
X3317993Y1338435D01*
X3050000Y1606428D02*
X3036565Y1592993D01*
X3034444Y1078927D02*
X3065556Y1078927D01*
X2782007Y1338435D02*
X2768572Y1325000D01*
X3050000Y1606428D02*
X3063435Y1592993D01*
X3331429Y1325000D02*
X3317993Y1311565D01*
X3050000Y1043571D02*
X3036565Y1057007D01*
X2782007Y1311565D02*
X2768572Y1325000D01*
X2761500Y1224591D02*
X2772107Y1213984D01*
X2761500Y1224591D02*
X2768572Y1231662D01*
X2779178Y1221055D01*
X2924135Y1573902D02*
X2917064Y1580973D01*
X2927671Y1591579D01*
X2934742Y1584508D01*
X3283345Y1480563D02*
X3293952Y1469957D01*
X3283345Y1480563D02*
X3276274Y1473492D01*
X3286881Y1462886D01*
X3209806Y1110039D02*
X3216877Y1102968D01*
X3227484Y1113575D01*
X3220413Y1120646D01*
D13*
X2987284Y981641D02*
X2976206Y992719D01*
X2974360Y1007489D01*
X2976206Y992719D02*
X2961435Y994565D01*
X2976206Y992719D02*
X2990053Y999181D01*
X2976206Y992719D02*
X2969744Y978871D01*
X3916500Y2126500D02*
X3945500Y2126500D01*
X3945500Y2134555D01*
X3945498Y2134751D01*
X3945490Y2134947D01*
X3945479Y2135143D01*
X3945462Y2135339D01*
X3945440Y2135534D01*
X3945414Y2135728D01*
X3945383Y2135922D01*
X3945348Y2136115D01*
X3945307Y2136307D01*
X3945262Y2136498D01*
X3945213Y2136687D01*
X3945158Y2136876D01*
X3945100Y2137063D01*
X3945036Y2137249D01*
X3944968Y2137433D01*
X3944896Y2137615D01*
X3944819Y2137796D01*
X3944738Y2137974D01*
X3944653Y2138151D01*
X3944563Y2138326D01*
X3944469Y2138498D01*
X3944371Y2138668D01*
X3944269Y2138835D01*
X3944163Y2139000D01*
X3944052Y2139162D01*
X3943938Y2139322D01*
X3943820Y2139479D01*
X3943699Y2139632D01*
X3943573Y2139783D01*
X3943444Y2139931D01*
X3943311Y2140075D01*
X3943175Y2140217D01*
X3943035Y2140355D01*
X3942893Y2140489D01*
X3942746Y2140620D01*
X3942597Y2140747D01*
X3942445Y2140871D01*
X3942290Y2140991D01*
X3942131Y2141107D01*
X3941971Y2141219D01*
X3941807Y2141327D01*
X3941641Y2141432D01*
X3941472Y2141532D01*
X3941301Y2141628D01*
X3941128Y2141720D01*
X3940952Y2141807D01*
X3940774Y2141890D01*
X3940595Y2141969D01*
X3940413Y2142044D01*
X3940230Y2142114D01*
X3940045Y2142180D01*
X3939859Y2142241D01*
X3939671Y2142297D01*
X3939482Y2142349D01*
X3939291Y2142396D01*
X3939100Y2142439D01*
X3938907Y2142477D01*
X3938714Y2142510D01*
X3938520Y2142539D01*
X3938325Y2142563D01*
X3938130Y2142582D01*
X3937934Y2142596D01*
X3937738Y2142606D01*
X3937542Y2142610D01*
X3937346Y2142610D01*
X3937150Y2142606D01*
X3936954Y2142596D01*
X3936758Y2142582D01*
X3936563Y2142563D01*
X3936368Y2142539D01*
X3936174Y2142510D01*
X3935981Y2142477D01*
X3935788Y2142439D01*
X3935597Y2142396D01*
X3935406Y2142349D01*
X3935217Y2142297D01*
X3935029Y2142241D01*
X3934843Y2142180D01*
X3934658Y2142114D01*
X3934475Y2142044D01*
X3934293Y2141969D01*
X3934114Y2141890D01*
X3933936Y2141807D01*
X3933760Y2141720D01*
X3933587Y2141628D01*
X3933416Y2141532D01*
X3933247Y2141432D01*
X3933081Y2141327D01*
X3932917Y2141219D01*
X3932757Y2141107D01*
X3932598Y2140991D01*
X3932443Y2140871D01*
X3932291Y2140747D01*
X3932142Y2140620D01*
X3931995Y2140489D01*
X3931853Y2140355D01*
X3931713Y2140217D01*
X3931577Y2140075D01*
X3931444Y2139931D01*
X3931315Y2139783D01*
X3931189Y2139632D01*
X3931068Y2139479D01*
X3930950Y2139322D01*
X3930836Y2139162D01*
X3930725Y2139000D01*
X3930619Y2138835D01*
X3930517Y2138668D01*
X3930419Y2138498D01*
X3930325Y2138326D01*
X3930235Y2138151D01*
X3930150Y2137974D01*
X3930069Y2137796D01*
X3929992Y2137615D01*
X3929920Y2137433D01*
X3929852Y2137249D01*
X3929788Y2137063D01*
X3929730Y2136876D01*
X3929675Y2136687D01*
X3929626Y2136498D01*
X3929581Y2136307D01*
X3929540Y2136115D01*
X3929505Y2135922D01*
X3929474Y2135728D01*
X3929448Y2135534D01*
X3929426Y2135339D01*
X3929409Y2135143D01*
X3929398Y2134947D01*
X3929390Y2134751D01*
X3929388Y2134555D01*
X3929389Y2134555D02*
X3929389Y2126500D01*
X3929389Y2136167D02*
X3916500Y2142611D01*
X3939055Y2155099D02*
X3945500Y2163154D01*
X3916500Y2163154D01*
X3916500Y2155099D02*
X3916500Y2171210D01*
X3775500Y1926500D02*
X3746500Y1926500D01*
X3775500Y1926500D02*
X3775500Y1934555D01*
X3775498Y1934751D01*
X3775490Y1934947D01*
X3775479Y1935143D01*
X3775462Y1935339D01*
X3775440Y1935534D01*
X3775414Y1935728D01*
X3775383Y1935922D01*
X3775348Y1936115D01*
X3775307Y1936307D01*
X3775262Y1936498D01*
X3775213Y1936687D01*
X3775158Y1936876D01*
X3775100Y1937063D01*
X3775036Y1937249D01*
X3774968Y1937433D01*
X3774896Y1937615D01*
X3774819Y1937796D01*
X3774738Y1937974D01*
X3774653Y1938151D01*
X3774563Y1938326D01*
X3774469Y1938498D01*
X3774371Y1938668D01*
X3774269Y1938835D01*
X3774163Y1939000D01*
X3774052Y1939162D01*
X3773938Y1939322D01*
X3773820Y1939479D01*
X3773699Y1939632D01*
X3773573Y1939783D01*
X3773444Y1939931D01*
X3773311Y1940075D01*
X3773175Y1940217D01*
X3773035Y1940355D01*
X3772893Y1940489D01*
X3772746Y1940620D01*
X3772597Y1940747D01*
X3772445Y1940871D01*
X3772290Y1940991D01*
X3772131Y1941107D01*
X3771971Y1941219D01*
X3771807Y1941327D01*
X3771641Y1941432D01*
X3771472Y1941532D01*
X3771301Y1941628D01*
X3771128Y1941720D01*
X3770952Y1941807D01*
X3770774Y1941890D01*
X3770595Y1941969D01*
X3770413Y1942044D01*
X3770230Y1942114D01*
X3770045Y1942180D01*
X3769859Y1942241D01*
X3769671Y1942297D01*
X3769482Y1942349D01*
X3769291Y1942396D01*
X3769100Y1942439D01*
X3768907Y1942477D01*
X3768714Y1942510D01*
X3768520Y1942539D01*
X3768325Y1942563D01*
X3768130Y1942582D01*
X3767934Y1942596D01*
X3767738Y1942606D01*
X3767542Y1942610D01*
X3767346Y1942610D01*
X3767150Y1942606D01*
X3766954Y1942596D01*
X3766758Y1942582D01*
X3766563Y1942563D01*
X3766368Y1942539D01*
X3766174Y1942510D01*
X3765981Y1942477D01*
X3765788Y1942439D01*
X3765597Y1942396D01*
X3765406Y1942349D01*
X3765217Y1942297D01*
X3765029Y1942241D01*
X3764843Y1942180D01*
X3764658Y1942114D01*
X3764475Y1942044D01*
X3764293Y1941969D01*
X3764114Y1941890D01*
X3763936Y1941807D01*
X3763760Y1941720D01*
X3763587Y1941628D01*
X3763416Y1941532D01*
X3763247Y1941432D01*
X3763081Y1941327D01*
X3762917Y1941219D01*
X3762757Y1941107D01*
X3762598Y1940991D01*
X3762443Y1940871D01*
X3762291Y1940747D01*
X3762142Y1940620D01*
X3761995Y1940489D01*
X3761853Y1940355D01*
X3761713Y1940217D01*
X3761577Y1940075D01*
X3761444Y1939931D01*
X3761315Y1939783D01*
X3761189Y1939632D01*
X3761068Y1939479D01*
X3760950Y1939322D01*
X3760836Y1939162D01*
X3760725Y1939000D01*
X3760619Y1938835D01*
X3760517Y1938668D01*
X3760419Y1938498D01*
X3760325Y1938326D01*
X3760235Y1938151D01*
X3760150Y1937974D01*
X3760069Y1937796D01*
X3759992Y1937615D01*
X3759920Y1937433D01*
X3759852Y1937249D01*
X3759788Y1937063D01*
X3759730Y1936876D01*
X3759675Y1936687D01*
X3759626Y1936498D01*
X3759581Y1936307D01*
X3759540Y1936115D01*
X3759505Y1935922D01*
X3759474Y1935728D01*
X3759448Y1935534D01*
X3759426Y1935339D01*
X3759409Y1935143D01*
X3759398Y1934947D01*
X3759390Y1934751D01*
X3759388Y1934555D01*
X3759389Y1934555D02*
X3759389Y1926500D01*
X3759389Y1936167D02*
X3746500Y1942611D01*
X3768250Y1971210D02*
X3768425Y1971208D01*
X3768600Y1971202D01*
X3768775Y1971191D01*
X3768950Y1971176D01*
X3769124Y1971157D01*
X3769298Y1971134D01*
X3769471Y1971107D01*
X3769643Y1971075D01*
X3769814Y1971039D01*
X3769985Y1970999D01*
X3770155Y1970955D01*
X3770323Y1970907D01*
X3770490Y1970855D01*
X3770656Y1970799D01*
X3770821Y1970739D01*
X3770984Y1970675D01*
X3771145Y1970607D01*
X3771305Y1970535D01*
X3771463Y1970459D01*
X3771619Y1970380D01*
X3771773Y1970296D01*
X3771925Y1970209D01*
X3772075Y1970119D01*
X3772223Y1970024D01*
X3772368Y1969927D01*
X3772511Y1969825D01*
X3772652Y1969721D01*
X3772790Y1969613D01*
X3772925Y1969501D01*
X3773058Y1969387D01*
X3773187Y1969269D01*
X3773314Y1969148D01*
X3773438Y1969024D01*
X3773559Y1968897D01*
X3773677Y1968768D01*
X3773791Y1968635D01*
X3773903Y1968500D01*
X3774011Y1968362D01*
X3774115Y1968221D01*
X3774217Y1968078D01*
X3774314Y1967933D01*
X3774409Y1967785D01*
X3774499Y1967635D01*
X3774586Y1967483D01*
X3774670Y1967329D01*
X3774749Y1967173D01*
X3774825Y1967015D01*
X3774897Y1966855D01*
X3774965Y1966694D01*
X3775029Y1966531D01*
X3775089Y1966366D01*
X3775145Y1966200D01*
X3775197Y1966033D01*
X3775245Y1965865D01*
X3775289Y1965695D01*
X3775329Y1965524D01*
X3775365Y1965353D01*
X3775397Y1965181D01*
X3775424Y1965008D01*
X3775447Y1964834D01*
X3775466Y1964660D01*
X3775481Y1964485D01*
X3775492Y1964310D01*
X3775498Y1964135D01*
X3775500Y1963960D01*
X3775497Y1963735D01*
X3775489Y1963510D01*
X3775475Y1963285D01*
X3775456Y1963060D01*
X3775432Y1962836D01*
X3775402Y1962613D01*
X3775367Y1962391D01*
X3775326Y1962169D01*
X3775280Y1961949D01*
X3775229Y1961729D01*
X3775172Y1961511D01*
X3775111Y1961295D01*
X3775043Y1961080D01*
X3774971Y1960866D01*
X3774894Y1960655D01*
X3774811Y1960445D01*
X3774724Y1960238D01*
X3774631Y1960032D01*
X3774534Y1959829D01*
X3774432Y1959629D01*
X3774324Y1959430D01*
X3774212Y1959235D01*
X3774096Y1959042D01*
X3773975Y1958852D01*
X3773849Y1958666D01*
X3773719Y1958482D01*
X3773584Y1958301D01*
X3773445Y1958124D01*
X3773302Y1957950D01*
X3773154Y1957780D01*
X3773003Y1957613D01*
X3772847Y1957450D01*
X3772688Y1957291D01*
X3772525Y1957136D01*
X3772358Y1956984D01*
X3772187Y1956837D01*
X3772013Y1956694D01*
X3771836Y1956555D01*
X3771655Y1956421D01*
X3771471Y1956291D01*
X3771284Y1956165D01*
X3771094Y1956044D01*
X3770902Y1955928D01*
X3770706Y1955816D01*
X3770508Y1955709D01*
X3770307Y1955607D01*
X3770104Y1955510D01*
X3769898Y1955418D01*
X3769691Y1955330D01*
X3769481Y1955248D01*
X3769269Y1955171D01*
X3769056Y1955099D01*
X3762611Y1968792D02*
X3762745Y1968929D01*
X3762881Y1969063D01*
X3763021Y1969193D01*
X3763165Y1969319D01*
X3763311Y1969442D01*
X3763460Y1969561D01*
X3763612Y1969677D01*
X3763767Y1969789D01*
X3763925Y1969897D01*
X3764085Y1970001D01*
X3764247Y1970102D01*
X3764413Y1970198D01*
X3764580Y1970290D01*
X3764750Y1970378D01*
X3764921Y1970462D01*
X3765095Y1970541D01*
X3765271Y1970616D01*
X3765448Y1970687D01*
X3765627Y1970754D01*
X3765808Y1970816D01*
X3765990Y1970874D01*
X3766174Y1970927D01*
X3766358Y1970976D01*
X3766544Y1971020D01*
X3766731Y1971059D01*
X3766919Y1971094D01*
X3767108Y1971125D01*
X3767297Y1971150D01*
X3767487Y1971172D01*
X3767677Y1971188D01*
X3767868Y1971200D01*
X3768059Y1971207D01*
X3768250Y1971209D01*
X3762611Y1968793D02*
X3746500Y1955099D01*
X3746500Y1971210D01*
X3620500Y1726500D02*
X3591500Y1726500D01*
X3620500Y1726500D02*
X3620500Y1734555D01*
X3620498Y1734751D01*
X3620490Y1734947D01*
X3620479Y1735143D01*
X3620462Y1735339D01*
X3620440Y1735534D01*
X3620414Y1735728D01*
X3620383Y1735922D01*
X3620348Y1736115D01*
X3620307Y1736307D01*
X3620262Y1736498D01*
X3620213Y1736687D01*
X3620158Y1736876D01*
X3620100Y1737063D01*
X3620036Y1737249D01*
X3619968Y1737433D01*
X3619896Y1737615D01*
X3619819Y1737796D01*
X3619738Y1737974D01*
X3619653Y1738151D01*
X3619563Y1738326D01*
X3619469Y1738498D01*
X3619371Y1738668D01*
X3619269Y1738835D01*
X3619163Y1739000D01*
X3619052Y1739162D01*
X3618938Y1739322D01*
X3618820Y1739479D01*
X3618699Y1739632D01*
X3618573Y1739783D01*
X3618444Y1739931D01*
X3618311Y1740075D01*
X3618175Y1740217D01*
X3618035Y1740355D01*
X3617893Y1740489D01*
X3617746Y1740620D01*
X3617597Y1740747D01*
X3617445Y1740871D01*
X3617290Y1740991D01*
X3617131Y1741107D01*
X3616971Y1741219D01*
X3616807Y1741327D01*
X3616641Y1741432D01*
X3616472Y1741532D01*
X3616301Y1741628D01*
X3616128Y1741720D01*
X3615952Y1741807D01*
X3615774Y1741890D01*
X3615595Y1741969D01*
X3615413Y1742044D01*
X3615230Y1742114D01*
X3615045Y1742180D01*
X3614859Y1742241D01*
X3614671Y1742297D01*
X3614482Y1742349D01*
X3614291Y1742396D01*
X3614100Y1742439D01*
X3613907Y1742477D01*
X3613714Y1742510D01*
X3613520Y1742539D01*
X3613325Y1742563D01*
X3613130Y1742582D01*
X3612934Y1742596D01*
X3612738Y1742606D01*
X3612542Y1742610D01*
X3612346Y1742610D01*
X3612150Y1742606D01*
X3611954Y1742596D01*
X3611758Y1742582D01*
X3611563Y1742563D01*
X3611368Y1742539D01*
X3611174Y1742510D01*
X3610981Y1742477D01*
X3610788Y1742439D01*
X3610597Y1742396D01*
X3610406Y1742349D01*
X3610217Y1742297D01*
X3610029Y1742241D01*
X3609843Y1742180D01*
X3609658Y1742114D01*
X3609475Y1742044D01*
X3609293Y1741969D01*
X3609114Y1741890D01*
X3608936Y1741807D01*
X3608760Y1741720D01*
X3608587Y1741628D01*
X3608416Y1741532D01*
X3608247Y1741432D01*
X3608081Y1741327D01*
X3607917Y1741219D01*
X3607757Y1741107D01*
X3607598Y1740991D01*
X3607443Y1740871D01*
X3607291Y1740747D01*
X3607142Y1740620D01*
X3606995Y1740489D01*
X3606853Y1740355D01*
X3606713Y1740217D01*
X3606577Y1740075D01*
X3606444Y1739931D01*
X3606315Y1739783D01*
X3606189Y1739632D01*
X3606068Y1739479D01*
X3605950Y1739322D01*
X3605836Y1739162D01*
X3605725Y1739000D01*
X3605619Y1738835D01*
X3605517Y1738668D01*
X3605419Y1738498D01*
X3605325Y1738326D01*
X3605235Y1738151D01*
X3605150Y1737974D01*
X3605069Y1737796D01*
X3604992Y1737615D01*
X3604920Y1737433D01*
X3604852Y1737249D01*
X3604788Y1737063D01*
X3604730Y1736876D01*
X3604675Y1736687D01*
X3604626Y1736498D01*
X3604581Y1736307D01*
X3604540Y1736115D01*
X3604505Y1735922D01*
X3604474Y1735728D01*
X3604448Y1735534D01*
X3604426Y1735339D01*
X3604409Y1735143D01*
X3604398Y1734947D01*
X3604390Y1734751D01*
X3604388Y1734555D01*
X3604389Y1734555D02*
X3604389Y1726500D01*
X3604389Y1736167D02*
X3591500Y1742611D01*
X3591500Y1755099D02*
X3591500Y1763154D01*
X3591502Y1763350D01*
X3591510Y1763546D01*
X3591521Y1763742D01*
X3591538Y1763937D01*
X3591560Y1764132D01*
X3591586Y1764327D01*
X3591617Y1764521D01*
X3591652Y1764713D01*
X3591693Y1764905D01*
X3591738Y1765096D01*
X3591787Y1765286D01*
X3591842Y1765475D01*
X3591900Y1765662D01*
X3591964Y1765847D01*
X3592032Y1766031D01*
X3592104Y1766214D01*
X3592181Y1766394D01*
X3592262Y1766573D01*
X3592347Y1766750D01*
X3592437Y1766924D01*
X3592531Y1767096D01*
X3592629Y1767266D01*
X3592731Y1767434D01*
X3592837Y1767598D01*
X3592947Y1767761D01*
X3593062Y1767920D01*
X3593179Y1768077D01*
X3593301Y1768231D01*
X3593427Y1768382D01*
X3593556Y1768529D01*
X3593689Y1768674D01*
X3593825Y1768815D01*
X3593964Y1768953D01*
X3594107Y1769087D01*
X3594253Y1769218D01*
X3594402Y1769345D01*
X3594555Y1769469D01*
X3594710Y1769589D01*
X3594868Y1769705D01*
X3595029Y1769817D01*
X3595193Y1769925D01*
X3595359Y1770030D01*
X3595528Y1770130D01*
X3595699Y1770226D01*
X3595872Y1770318D01*
X3596047Y1770405D01*
X3596225Y1770488D01*
X3596405Y1770567D01*
X3596586Y1770642D01*
X3596769Y1770712D01*
X3596954Y1770778D01*
X3597141Y1770839D01*
X3597328Y1770895D01*
X3597518Y1770947D01*
X3597708Y1770994D01*
X3597899Y1771037D01*
X3598092Y1771075D01*
X3598285Y1771108D01*
X3598479Y1771137D01*
X3598674Y1771161D01*
X3598869Y1771180D01*
X3599065Y1771194D01*
X3599261Y1771204D01*
X3599457Y1771208D01*
X3599653Y1771208D01*
X3599849Y1771204D01*
X3600045Y1771194D01*
X3600241Y1771180D01*
X3600436Y1771161D01*
X3600631Y1771137D01*
X3600825Y1771108D01*
X3601018Y1771075D01*
X3601211Y1771037D01*
X3601402Y1770994D01*
X3601592Y1770947D01*
X3601782Y1770895D01*
X3601969Y1770839D01*
X3602156Y1770778D01*
X3602341Y1770712D01*
X3602524Y1770642D01*
X3602705Y1770567D01*
X3602885Y1770488D01*
X3603063Y1770405D01*
X3603238Y1770318D01*
X3603411Y1770226D01*
X3603583Y1770130D01*
X3603751Y1770030D01*
X3603917Y1769925D01*
X3604081Y1769817D01*
X3604242Y1769705D01*
X3604400Y1769589D01*
X3604555Y1769469D01*
X3604708Y1769345D01*
X3604857Y1769218D01*
X3605003Y1769087D01*
X3605146Y1768953D01*
X3605285Y1768815D01*
X3605421Y1768674D01*
X3605554Y1768529D01*
X3605683Y1768382D01*
X3605809Y1768231D01*
X3605931Y1768077D01*
X3606048Y1767920D01*
X3606163Y1767761D01*
X3606273Y1767598D01*
X3606379Y1767434D01*
X3606481Y1767266D01*
X3606579Y1767096D01*
X3606673Y1766924D01*
X3606763Y1766750D01*
X3606848Y1766573D01*
X3606929Y1766394D01*
X3607006Y1766214D01*
X3607078Y1766031D01*
X3607146Y1765847D01*
X3607210Y1765662D01*
X3607268Y1765475D01*
X3607323Y1765286D01*
X3607372Y1765096D01*
X3607417Y1764905D01*
X3607458Y1764713D01*
X3607493Y1764521D01*
X3607524Y1764327D01*
X3607550Y1764132D01*
X3607572Y1763937D01*
X3607589Y1763742D01*
X3607600Y1763546D01*
X3607608Y1763350D01*
X3607610Y1763154D01*
X3620500Y1764765D02*
X3620500Y1755099D01*
X3620500Y1764765D02*
X3620498Y1764924D01*
X3620492Y1765084D01*
X3620482Y1765243D01*
X3620468Y1765402D01*
X3620451Y1765560D01*
X3620429Y1765718D01*
X3620404Y1765875D01*
X3620374Y1766032D01*
X3620341Y1766188D01*
X3620304Y1766343D01*
X3620263Y1766497D01*
X3620218Y1766650D01*
X3620170Y1766802D01*
X3620117Y1766953D01*
X3620061Y1767102D01*
X3620002Y1767250D01*
X3619938Y1767396D01*
X3619872Y1767541D01*
X3619801Y1767684D01*
X3619727Y1767825D01*
X3619650Y1767964D01*
X3619569Y1768102D01*
X3619485Y1768237D01*
X3619397Y1768370D01*
X3619306Y1768501D01*
X3619212Y1768630D01*
X3619115Y1768757D01*
X3619015Y1768881D01*
X3618912Y1769002D01*
X3618805Y1769121D01*
X3618696Y1769237D01*
X3618584Y1769350D01*
X3618469Y1769461D01*
X3618352Y1769569D01*
X3618232Y1769674D01*
X3618109Y1769775D01*
X3617984Y1769874D01*
X3617856Y1769970D01*
X3617726Y1770062D01*
X3617594Y1770151D01*
X3617460Y1770237D01*
X3617323Y1770320D01*
X3617185Y1770399D01*
X3617045Y1770475D01*
X3616903Y1770547D01*
X3616759Y1770615D01*
X3616613Y1770681D01*
X3616466Y1770742D01*
X3616317Y1770800D01*
X3616168Y1770854D01*
X3616016Y1770904D01*
X3615864Y1770951D01*
X3615710Y1770994D01*
X3615556Y1771033D01*
X3615400Y1771068D01*
X3615244Y1771099D01*
X3615087Y1771127D01*
X3614929Y1771150D01*
X3614771Y1771170D01*
X3614612Y1771186D01*
X3614453Y1771198D01*
X3614294Y1771206D01*
X3614135Y1771210D01*
X3613975Y1771210D01*
X3613816Y1771206D01*
X3613657Y1771198D01*
X3613498Y1771186D01*
X3613339Y1771170D01*
X3613181Y1771150D01*
X3613023Y1771127D01*
X3612866Y1771099D01*
X3612710Y1771068D01*
X3612554Y1771033D01*
X3612400Y1770994D01*
X3612246Y1770951D01*
X3612094Y1770904D01*
X3611942Y1770854D01*
X3611793Y1770800D01*
X3611644Y1770742D01*
X3611497Y1770681D01*
X3611351Y1770615D01*
X3611207Y1770547D01*
X3611065Y1770475D01*
X3610925Y1770399D01*
X3610787Y1770320D01*
X3610650Y1770237D01*
X3610516Y1770151D01*
X3610384Y1770062D01*
X3610254Y1769970D01*
X3610126Y1769874D01*
X3610001Y1769775D01*
X3609878Y1769674D01*
X3609758Y1769569D01*
X3609641Y1769461D01*
X3609526Y1769350D01*
X3609414Y1769237D01*
X3609305Y1769121D01*
X3609198Y1769002D01*
X3609095Y1768881D01*
X3608995Y1768757D01*
X3608898Y1768630D01*
X3608804Y1768501D01*
X3608713Y1768370D01*
X3608625Y1768237D01*
X3608541Y1768102D01*
X3608460Y1767964D01*
X3608383Y1767825D01*
X3608309Y1767684D01*
X3608238Y1767541D01*
X3608172Y1767396D01*
X3608108Y1767250D01*
X3608049Y1767102D01*
X3607993Y1766953D01*
X3607940Y1766802D01*
X3607892Y1766650D01*
X3607847Y1766497D01*
X3607806Y1766343D01*
X3607769Y1766188D01*
X3607736Y1766032D01*
X3607706Y1765875D01*
X3607681Y1765718D01*
X3607659Y1765560D01*
X3607642Y1765402D01*
X3607628Y1765243D01*
X3607618Y1765084D01*
X3607612Y1764924D01*
X3607610Y1764765D01*
X3607611Y1764765D02*
X3607611Y1758321D01*
X3470500Y1526500D02*
X3441500Y1526500D01*
X3470500Y1526500D02*
X3470500Y1534555D01*
X3470498Y1534751D01*
X3470490Y1534947D01*
X3470479Y1535143D01*
X3470462Y1535339D01*
X3470440Y1535534D01*
X3470414Y1535728D01*
X3470383Y1535922D01*
X3470348Y1536115D01*
X3470307Y1536307D01*
X3470262Y1536498D01*
X3470213Y1536687D01*
X3470158Y1536876D01*
X3470100Y1537063D01*
X3470036Y1537249D01*
X3469968Y1537433D01*
X3469896Y1537615D01*
X3469819Y1537796D01*
X3469738Y1537974D01*
X3469653Y1538151D01*
X3469563Y1538326D01*
X3469469Y1538498D01*
X3469371Y1538668D01*
X3469269Y1538835D01*
X3469163Y1539000D01*
X3469052Y1539162D01*
X3468938Y1539322D01*
X3468820Y1539479D01*
X3468699Y1539632D01*
X3468573Y1539783D01*
X3468444Y1539931D01*
X3468311Y1540075D01*
X3468175Y1540217D01*
X3468035Y1540355D01*
X3467893Y1540489D01*
X3467746Y1540620D01*
X3467597Y1540747D01*
X3467445Y1540871D01*
X3467290Y1540991D01*
X3467131Y1541107D01*
X3466971Y1541219D01*
X3466807Y1541327D01*
X3466641Y1541432D01*
X3466472Y1541532D01*
X3466301Y1541628D01*
X3466128Y1541720D01*
X3465952Y1541807D01*
X3465774Y1541890D01*
X3465595Y1541969D01*
X3465413Y1542044D01*
X3465230Y1542114D01*
X3465045Y1542180D01*
X3464859Y1542241D01*
X3464671Y1542297D01*
X3464482Y1542349D01*
X3464291Y1542396D01*
X3464100Y1542439D01*
X3463907Y1542477D01*
X3463714Y1542510D01*
X3463520Y1542539D01*
X3463325Y1542563D01*
X3463130Y1542582D01*
X3462934Y1542596D01*
X3462738Y1542606D01*
X3462542Y1542610D01*
X3462346Y1542610D01*
X3462150Y1542606D01*
X3461954Y1542596D01*
X3461758Y1542582D01*
X3461563Y1542563D01*
X3461368Y1542539D01*
X3461174Y1542510D01*
X3460981Y1542477D01*
X3460788Y1542439D01*
X3460597Y1542396D01*
X3460406Y1542349D01*
X3460217Y1542297D01*
X3460029Y1542241D01*
X3459843Y1542180D01*
X3459658Y1542114D01*
X3459475Y1542044D01*
X3459293Y1541969D01*
X3459114Y1541890D01*
X3458936Y1541807D01*
X3458760Y1541720D01*
X3458587Y1541628D01*
X3458416Y1541532D01*
X3458247Y1541432D01*
X3458081Y1541327D01*
X3457917Y1541219D01*
X3457757Y1541107D01*
X3457598Y1540991D01*
X3457443Y1540871D01*
X3457291Y1540747D01*
X3457142Y1540620D01*
X3456995Y1540489D01*
X3456853Y1540355D01*
X3456713Y1540217D01*
X3456577Y1540075D01*
X3456444Y1539931D01*
X3456315Y1539783D01*
X3456189Y1539632D01*
X3456068Y1539479D01*
X3455950Y1539322D01*
X3455836Y1539162D01*
X3455725Y1539000D01*
X3455619Y1538835D01*
X3455517Y1538668D01*
X3455419Y1538498D01*
X3455325Y1538326D01*
X3455235Y1538151D01*
X3455150Y1537974D01*
X3455069Y1537796D01*
X3454992Y1537615D01*
X3454920Y1537433D01*
X3454852Y1537249D01*
X3454788Y1537063D01*
X3454730Y1536876D01*
X3454675Y1536687D01*
X3454626Y1536498D01*
X3454581Y1536307D01*
X3454540Y1536115D01*
X3454505Y1535922D01*
X3454474Y1535728D01*
X3454448Y1535534D01*
X3454426Y1535339D01*
X3454409Y1535143D01*
X3454398Y1534947D01*
X3454390Y1534751D01*
X3454388Y1534555D01*
X3454389Y1534555D02*
X3454389Y1526500D01*
X3454389Y1536167D02*
X3441500Y1542611D01*
X3447944Y1555099D02*
X3470500Y1561543D01*
X3447944Y1555099D02*
X3447944Y1571210D01*
X3441500Y1566376D02*
X3454389Y1566376D01*
X3591500Y1326500D02*
X3620500Y1326500D01*
X3620500Y1334555D01*
X3620498Y1334751D01*
X3620490Y1334947D01*
X3620479Y1335143D01*
X3620462Y1335339D01*
X3620440Y1335534D01*
X3620414Y1335728D01*
X3620383Y1335922D01*
X3620348Y1336115D01*
X3620307Y1336307D01*
X3620262Y1336498D01*
X3620213Y1336687D01*
X3620158Y1336876D01*
X3620100Y1337063D01*
X3620036Y1337249D01*
X3619968Y1337433D01*
X3619896Y1337615D01*
X3619819Y1337796D01*
X3619738Y1337974D01*
X3619653Y1338151D01*
X3619563Y1338326D01*
X3619469Y1338498D01*
X3619371Y1338668D01*
X3619269Y1338835D01*
X3619163Y1339000D01*
X3619052Y1339162D01*
X3618938Y1339322D01*
X3618820Y1339479D01*
X3618699Y1339632D01*
X3618573Y1339783D01*
X3618444Y1339931D01*
X3618311Y1340075D01*
X3618175Y1340217D01*
X3618035Y1340355D01*
X3617893Y1340489D01*
X3617746Y1340620D01*
X3617597Y1340747D01*
X3617445Y1340871D01*
X3617290Y1340991D01*
X3617131Y1341107D01*
X3616971Y1341219D01*
X3616807Y1341327D01*
X3616641Y1341432D01*
X3616472Y1341532D01*
X3616301Y1341628D01*
X3616128Y1341720D01*
X3615952Y1341807D01*
X3615774Y1341890D01*
X3615595Y1341969D01*
X3615413Y1342044D01*
X3615230Y1342114D01*
X3615045Y1342180D01*
X3614859Y1342241D01*
X3614671Y1342297D01*
X3614482Y1342349D01*
X3614291Y1342396D01*
X3614100Y1342439D01*
X3613907Y1342477D01*
X3613714Y1342510D01*
X3613520Y1342539D01*
X3613325Y1342563D01*
X3613130Y1342582D01*
X3612934Y1342596D01*
X3612738Y1342606D01*
X3612542Y1342610D01*
X3612346Y1342610D01*
X3612150Y1342606D01*
X3611954Y1342596D01*
X3611758Y1342582D01*
X3611563Y1342563D01*
X3611368Y1342539D01*
X3611174Y1342510D01*
X3610981Y1342477D01*
X3610788Y1342439D01*
X3610597Y1342396D01*
X3610406Y1342349D01*
X3610217Y1342297D01*
X3610029Y1342241D01*
X3609843Y1342180D01*
X3609658Y1342114D01*
X3609475Y1342044D01*
X3609293Y1341969D01*
X3609114Y1341890D01*
X3608936Y1341807D01*
X3608760Y1341720D01*
X3608587Y1341628D01*
X3608416Y1341532D01*
X3608247Y1341432D01*
X3608081Y1341327D01*
X3607917Y1341219D01*
X3607757Y1341107D01*
X3607598Y1340991D01*
X3607443Y1340871D01*
X3607291Y1340747D01*
X3607142Y1340620D01*
X3606995Y1340489D01*
X3606853Y1340355D01*
X3606713Y1340217D01*
X3606577Y1340075D01*
X3606444Y1339931D01*
X3606315Y1339783D01*
X3606189Y1339632D01*
X3606068Y1339479D01*
X3605950Y1339322D01*
X3605836Y1339162D01*
X3605725Y1339000D01*
X3605619Y1338835D01*
X3605517Y1338668D01*
X3605419Y1338498D01*
X3605325Y1338326D01*
X3605235Y1338151D01*
X3605150Y1337974D01*
X3605069Y1337796D01*
X3604992Y1337615D01*
X3604920Y1337433D01*
X3604852Y1337249D01*
X3604788Y1337063D01*
X3604730Y1336876D01*
X3604675Y1336687D01*
X3604626Y1336498D01*
X3604581Y1336307D01*
X3604540Y1336115D01*
X3604505Y1335922D01*
X3604474Y1335728D01*
X3604448Y1335534D01*
X3604426Y1335339D01*
X3604409Y1335143D01*
X3604398Y1334947D01*
X3604390Y1334751D01*
X3604388Y1334555D01*
X3604389Y1334555D02*
X3604389Y1326500D01*
X3604389Y1336167D02*
X3591500Y1342611D01*
X3591500Y1355099D02*
X3591500Y1364765D01*
X3591502Y1364923D01*
X3591508Y1365081D01*
X3591517Y1365239D01*
X3591531Y1365397D01*
X3591548Y1365554D01*
X3591570Y1365711D01*
X3591595Y1365867D01*
X3591624Y1366022D01*
X3591657Y1366177D01*
X3591693Y1366331D01*
X3591733Y1366484D01*
X3591778Y1366636D01*
X3591825Y1366787D01*
X3591877Y1366936D01*
X3591932Y1367084D01*
X3591991Y1367231D01*
X3592053Y1367377D01*
X3592119Y1367521D01*
X3592188Y1367663D01*
X3592261Y1367803D01*
X3592337Y1367942D01*
X3592417Y1368078D01*
X3592500Y1368213D01*
X3592586Y1368346D01*
X3592676Y1368476D01*
X3592768Y1368604D01*
X3592864Y1368730D01*
X3592963Y1368854D01*
X3593065Y1368975D01*
X3593170Y1369093D01*
X3593277Y1369209D01*
X3593388Y1369322D01*
X3593501Y1369433D01*
X3593617Y1369540D01*
X3593735Y1369645D01*
X3593856Y1369747D01*
X3593980Y1369846D01*
X3594106Y1369942D01*
X3594234Y1370034D01*
X3594364Y1370124D01*
X3594497Y1370210D01*
X3594632Y1370293D01*
X3594768Y1370373D01*
X3594907Y1370449D01*
X3595047Y1370522D01*
X3595189Y1370591D01*
X3595333Y1370657D01*
X3595479Y1370719D01*
X3595625Y1370778D01*
X3595774Y1370833D01*
X3595923Y1370885D01*
X3596074Y1370932D01*
X3596226Y1370977D01*
X3596379Y1371017D01*
X3596533Y1371053D01*
X3596688Y1371086D01*
X3596843Y1371115D01*
X3596999Y1371140D01*
X3597156Y1371162D01*
X3597313Y1371179D01*
X3597471Y1371193D01*
X3597629Y1371202D01*
X3597787Y1371208D01*
X3597945Y1371210D01*
X3597944Y1371210D02*
X3601167Y1371210D01*
X3601325Y1371208D01*
X3601483Y1371202D01*
X3601641Y1371193D01*
X3601799Y1371179D01*
X3601956Y1371162D01*
X3602113Y1371140D01*
X3602269Y1371115D01*
X3602424Y1371086D01*
X3602579Y1371053D01*
X3602733Y1371017D01*
X3602886Y1370977D01*
X3603038Y1370932D01*
X3603189Y1370885D01*
X3603338Y1370833D01*
X3603487Y1370778D01*
X3603633Y1370719D01*
X3603779Y1370657D01*
X3603923Y1370591D01*
X3604065Y1370522D01*
X3604205Y1370449D01*
X3604344Y1370373D01*
X3604480Y1370293D01*
X3604615Y1370210D01*
X3604748Y1370124D01*
X3604878Y1370034D01*
X3605006Y1369942D01*
X3605132Y1369846D01*
X3605256Y1369747D01*
X3605377Y1369645D01*
X3605495Y1369540D01*
X3605611Y1369433D01*
X3605724Y1369322D01*
X3605835Y1369209D01*
X3605942Y1369093D01*
X3606047Y1368975D01*
X3606149Y1368854D01*
X3606248Y1368730D01*
X3606344Y1368604D01*
X3606436Y1368476D01*
X3606526Y1368346D01*
X3606612Y1368213D01*
X3606695Y1368078D01*
X3606775Y1367942D01*
X3606851Y1367803D01*
X3606924Y1367663D01*
X3606993Y1367521D01*
X3607059Y1367377D01*
X3607121Y1367231D01*
X3607180Y1367085D01*
X3607235Y1366936D01*
X3607287Y1366787D01*
X3607334Y1366636D01*
X3607379Y1366484D01*
X3607419Y1366331D01*
X3607455Y1366177D01*
X3607488Y1366022D01*
X3607517Y1365867D01*
X3607542Y1365711D01*
X3607564Y1365554D01*
X3607581Y1365397D01*
X3607595Y1365239D01*
X3607604Y1365081D01*
X3607610Y1364923D01*
X3607612Y1364765D01*
X3607611Y1364765D02*
X3607611Y1355099D01*
X3620500Y1355099D01*
X3620500Y1371210D01*
X3741500Y1126500D02*
X3770500Y1126500D01*
X3770500Y1134555D01*
X3770498Y1134751D01*
X3770490Y1134947D01*
X3770479Y1135143D01*
X3770462Y1135339D01*
X3770440Y1135534D01*
X3770414Y1135728D01*
X3770383Y1135922D01*
X3770348Y1136115D01*
X3770307Y1136307D01*
X3770262Y1136498D01*
X3770213Y1136687D01*
X3770158Y1136876D01*
X3770100Y1137063D01*
X3770036Y1137249D01*
X3769968Y1137433D01*
X3769896Y1137615D01*
X3769819Y1137796D01*
X3769738Y1137974D01*
X3769653Y1138151D01*
X3769563Y1138326D01*
X3769469Y1138498D01*
X3769371Y1138668D01*
X3769269Y1138835D01*
X3769163Y1139000D01*
X3769052Y1139162D01*
X3768938Y1139322D01*
X3768820Y1139479D01*
X3768699Y1139632D01*
X3768573Y1139783D01*
X3768444Y1139931D01*
X3768311Y1140075D01*
X3768175Y1140217D01*
X3768035Y1140355D01*
X3767893Y1140489D01*
X3767746Y1140620D01*
X3767597Y1140747D01*
X3767445Y1140871D01*
X3767290Y1140991D01*
X3767131Y1141107D01*
X3766971Y1141219D01*
X3766807Y1141327D01*
X3766641Y1141432D01*
X3766472Y1141532D01*
X3766301Y1141628D01*
X3766128Y1141720D01*
X3765952Y1141807D01*
X3765774Y1141890D01*
X3765595Y1141969D01*
X3765413Y1142044D01*
X3765230Y1142114D01*
X3765045Y1142180D01*
X3764859Y1142241D01*
X3764671Y1142297D01*
X3764482Y1142349D01*
X3764291Y1142396D01*
X3764100Y1142439D01*
X3763907Y1142477D01*
X3763714Y1142510D01*
X3763520Y1142539D01*
X3763325Y1142563D01*
X3763130Y1142582D01*
X3762934Y1142596D01*
X3762738Y1142606D01*
X3762542Y1142610D01*
X3762346Y1142610D01*
X3762150Y1142606D01*
X3761954Y1142596D01*
X3761758Y1142582D01*
X3761563Y1142563D01*
X3761368Y1142539D01*
X3761174Y1142510D01*
X3760981Y1142477D01*
X3760788Y1142439D01*
X3760597Y1142396D01*
X3760406Y1142349D01*
X3760217Y1142297D01*
X3760029Y1142241D01*
X3759843Y1142180D01*
X3759658Y1142114D01*
X3759475Y1142044D01*
X3759293Y1141969D01*
X3759114Y1141890D01*
X3758936Y1141807D01*
X3758760Y1141720D01*
X3758587Y1141628D01*
X3758416Y1141532D01*
X3758247Y1141432D01*
X3758081Y1141327D01*
X3757917Y1141219D01*
X3757757Y1141107D01*
X3757598Y1140991D01*
X3757443Y1140871D01*
X3757291Y1140747D01*
X3757142Y1140620D01*
X3756995Y1140489D01*
X3756853Y1140355D01*
X3756713Y1140217D01*
X3756577Y1140075D01*
X3756444Y1139931D01*
X3756315Y1139783D01*
X3756189Y1139632D01*
X3756068Y1139479D01*
X3755950Y1139322D01*
X3755836Y1139162D01*
X3755725Y1139000D01*
X3755619Y1138835D01*
X3755517Y1138668D01*
X3755419Y1138498D01*
X3755325Y1138326D01*
X3755235Y1138151D01*
X3755150Y1137974D01*
X3755069Y1137796D01*
X3754992Y1137615D01*
X3754920Y1137433D01*
X3754852Y1137249D01*
X3754788Y1137063D01*
X3754730Y1136876D01*
X3754675Y1136687D01*
X3754626Y1136498D01*
X3754581Y1136307D01*
X3754540Y1136115D01*
X3754505Y1135922D01*
X3754474Y1135728D01*
X3754448Y1135534D01*
X3754426Y1135339D01*
X3754409Y1135143D01*
X3754398Y1134947D01*
X3754390Y1134751D01*
X3754388Y1134555D01*
X3754389Y1134555D02*
X3754389Y1126500D01*
X3754389Y1136167D02*
X3741500Y1142611D01*
X3757611Y1155099D02*
X3757611Y1164765D01*
X3757612Y1164765D02*
X3757610Y1164923D01*
X3757604Y1165081D01*
X3757595Y1165239D01*
X3757581Y1165397D01*
X3757564Y1165554D01*
X3757542Y1165711D01*
X3757517Y1165867D01*
X3757488Y1166022D01*
X3757455Y1166177D01*
X3757419Y1166331D01*
X3757379Y1166484D01*
X3757334Y1166636D01*
X3757287Y1166787D01*
X3757235Y1166936D01*
X3757180Y1167085D01*
X3757121Y1167231D01*
X3757059Y1167377D01*
X3756993Y1167521D01*
X3756924Y1167663D01*
X3756851Y1167803D01*
X3756775Y1167942D01*
X3756695Y1168078D01*
X3756612Y1168213D01*
X3756526Y1168346D01*
X3756436Y1168476D01*
X3756344Y1168604D01*
X3756248Y1168730D01*
X3756149Y1168854D01*
X3756047Y1168975D01*
X3755942Y1169093D01*
X3755835Y1169209D01*
X3755724Y1169322D01*
X3755611Y1169433D01*
X3755495Y1169540D01*
X3755377Y1169645D01*
X3755256Y1169747D01*
X3755132Y1169846D01*
X3755006Y1169942D01*
X3754878Y1170034D01*
X3754748Y1170124D01*
X3754615Y1170210D01*
X3754480Y1170293D01*
X3754344Y1170373D01*
X3754205Y1170449D01*
X3754065Y1170522D01*
X3753923Y1170591D01*
X3753779Y1170657D01*
X3753633Y1170719D01*
X3753487Y1170778D01*
X3753338Y1170833D01*
X3753189Y1170885D01*
X3753038Y1170932D01*
X3752886Y1170977D01*
X3752733Y1171017D01*
X3752579Y1171053D01*
X3752424Y1171086D01*
X3752269Y1171115D01*
X3752113Y1171140D01*
X3751956Y1171162D01*
X3751799Y1171179D01*
X3751641Y1171193D01*
X3751483Y1171202D01*
X3751325Y1171208D01*
X3751167Y1171210D01*
X3749555Y1171210D01*
X3749359Y1171208D01*
X3749163Y1171200D01*
X3748967Y1171189D01*
X3748771Y1171172D01*
X3748576Y1171150D01*
X3748382Y1171124D01*
X3748188Y1171093D01*
X3747995Y1171058D01*
X3747803Y1171017D01*
X3747612Y1170972D01*
X3747423Y1170923D01*
X3747234Y1170868D01*
X3747047Y1170810D01*
X3746861Y1170746D01*
X3746677Y1170678D01*
X3746495Y1170606D01*
X3746314Y1170529D01*
X3746136Y1170448D01*
X3745959Y1170363D01*
X3745784Y1170273D01*
X3745612Y1170179D01*
X3745442Y1170081D01*
X3745275Y1169979D01*
X3745110Y1169873D01*
X3744948Y1169762D01*
X3744788Y1169648D01*
X3744631Y1169530D01*
X3744478Y1169409D01*
X3744327Y1169283D01*
X3744179Y1169154D01*
X3744035Y1169021D01*
X3743893Y1168885D01*
X3743755Y1168745D01*
X3743621Y1168603D01*
X3743490Y1168456D01*
X3743363Y1168307D01*
X3743239Y1168155D01*
X3743119Y1168000D01*
X3743003Y1167841D01*
X3742891Y1167681D01*
X3742783Y1167517D01*
X3742678Y1167351D01*
X3742578Y1167182D01*
X3742482Y1167011D01*
X3742390Y1166838D01*
X3742303Y1166662D01*
X3742220Y1166484D01*
X3742141Y1166305D01*
X3742066Y1166123D01*
X3741996Y1165940D01*
X3741930Y1165755D01*
X3741869Y1165569D01*
X3741813Y1165381D01*
X3741761Y1165192D01*
X3741714Y1165001D01*
X3741671Y1164810D01*
X3741633Y1164617D01*
X3741600Y1164424D01*
X3741571Y1164230D01*
X3741547Y1164035D01*
X3741528Y1163840D01*
X3741514Y1163644D01*
X3741504Y1163448D01*
X3741500Y1163252D01*
X3741500Y1163056D01*
X3741504Y1162860D01*
X3741514Y1162664D01*
X3741528Y1162468D01*
X3741547Y1162273D01*
X3741571Y1162078D01*
X3741600Y1161884D01*
X3741633Y1161691D01*
X3741671Y1161498D01*
X3741714Y1161307D01*
X3741761Y1161116D01*
X3741813Y1160927D01*
X3741869Y1160739D01*
X3741930Y1160553D01*
X3741996Y1160368D01*
X3742066Y1160185D01*
X3742141Y1160003D01*
X3742220Y1159824D01*
X3742303Y1159646D01*
X3742390Y1159470D01*
X3742482Y1159297D01*
X3742578Y1159126D01*
X3742678Y1158957D01*
X3742783Y1158791D01*
X3742891Y1158627D01*
X3743003Y1158467D01*
X3743119Y1158308D01*
X3743239Y1158153D01*
X3743363Y1158001D01*
X3743490Y1157852D01*
X3743621Y1157705D01*
X3743755Y1157563D01*
X3743893Y1157423D01*
X3744035Y1157287D01*
X3744179Y1157154D01*
X3744327Y1157025D01*
X3744478Y1156899D01*
X3744631Y1156778D01*
X3744788Y1156660D01*
X3744948Y1156546D01*
X3745110Y1156435D01*
X3745275Y1156329D01*
X3745442Y1156227D01*
X3745612Y1156129D01*
X3745784Y1156035D01*
X3745959Y1155945D01*
X3746136Y1155860D01*
X3746314Y1155779D01*
X3746495Y1155702D01*
X3746677Y1155630D01*
X3746861Y1155562D01*
X3747047Y1155498D01*
X3747234Y1155440D01*
X3747423Y1155385D01*
X3747612Y1155336D01*
X3747803Y1155291D01*
X3747995Y1155250D01*
X3748188Y1155215D01*
X3748382Y1155184D01*
X3748576Y1155158D01*
X3748771Y1155136D01*
X3748967Y1155119D01*
X3749163Y1155108D01*
X3749359Y1155100D01*
X3749555Y1155098D01*
X3749555Y1155099D02*
X3757611Y1155099D01*
X3757611Y1155098D02*
X3757927Y1155102D01*
X3758243Y1155114D01*
X3758559Y1155133D01*
X3758874Y1155160D01*
X3759189Y1155195D01*
X3759502Y1155238D01*
X3759815Y1155288D01*
X3760126Y1155346D01*
X3760435Y1155411D01*
X3760743Y1155484D01*
X3761049Y1155565D01*
X3761352Y1155653D01*
X3761654Y1155749D01*
X3761953Y1155851D01*
X3762250Y1155962D01*
X3762543Y1156079D01*
X3762834Y1156204D01*
X3763122Y1156335D01*
X3763406Y1156474D01*
X3763687Y1156620D01*
X3763964Y1156772D01*
X3764237Y1156932D01*
X3764507Y1157098D01*
X3764772Y1157270D01*
X3765033Y1157449D01*
X3765289Y1157634D01*
X3765541Y1157826D01*
X3765788Y1158024D01*
X3766030Y1158227D01*
X3766267Y1158437D01*
X3766498Y1158652D01*
X3766725Y1158873D01*
X3766946Y1159099D01*
X3767161Y1159331D01*
X3767371Y1159568D01*
X3767574Y1159810D01*
X3767772Y1160057D01*
X3767963Y1160309D01*
X3768149Y1160565D01*
X3768328Y1160826D01*
X3768500Y1161091D01*
X3768666Y1161361D01*
X3768826Y1161634D01*
X3768978Y1161911D01*
X3769124Y1162192D01*
X3769262Y1162476D01*
X3769394Y1162764D01*
X3769519Y1163055D01*
X3769636Y1163348D01*
X3769747Y1163645D01*
X3769849Y1163944D01*
X3769945Y1164245D01*
X3770033Y1164549D01*
X3770114Y1164855D01*
X3770187Y1165163D01*
X3770252Y1165472D01*
X3770310Y1165783D01*
X3770360Y1166096D01*
X3770403Y1166409D01*
X3770438Y1166724D01*
X3770465Y1167039D01*
X3770484Y1167354D01*
X3770496Y1167671D01*
X3770500Y1167987D01*
X3891500Y926500D02*
X3920500Y926500D01*
X3920500Y934555D01*
X3920498Y934751D01*
X3920490Y934947D01*
X3920479Y935143D01*
X3920462Y935339D01*
X3920440Y935534D01*
X3920414Y935728D01*
X3920383Y935922D01*
X3920348Y936115D01*
X3920307Y936307D01*
X3920262Y936498D01*
X3920213Y936687D01*
X3920158Y936876D01*
X3920100Y937063D01*
X3920036Y937249D01*
X3919968Y937433D01*
X3919896Y937615D01*
X3919819Y937796D01*
X3919738Y937974D01*
X3919653Y938151D01*
X3919563Y938326D01*
X3919469Y938498D01*
X3919371Y938668D01*
X3919269Y938835D01*
X3919163Y939000D01*
X3919052Y939162D01*
X3918938Y939322D01*
X3918820Y939479D01*
X3918699Y939632D01*
X3918573Y939783D01*
X3918444Y939931D01*
X3918311Y940075D01*
X3918175Y940217D01*
X3918035Y940355D01*
X3917893Y940489D01*
X3917746Y940620D01*
X3917597Y940747D01*
X3917445Y940871D01*
X3917290Y940991D01*
X3917131Y941107D01*
X3916971Y941219D01*
X3916807Y941327D01*
X3916641Y941432D01*
X3916472Y941532D01*
X3916301Y941628D01*
X3916128Y941720D01*
X3915952Y941807D01*
X3915774Y941890D01*
X3915595Y941969D01*
X3915413Y942044D01*
X3915230Y942114D01*
X3915045Y942180D01*
X3914859Y942241D01*
X3914671Y942297D01*
X3914482Y942349D01*
X3914291Y942396D01*
X3914100Y942439D01*
X3913907Y942477D01*
X3913714Y942510D01*
X3913520Y942539D01*
X3913325Y942563D01*
X3913130Y942582D01*
X3912934Y942596D01*
X3912738Y942606D01*
X3912542Y942610D01*
X3912346Y942610D01*
X3912150Y942606D01*
X3911954Y942596D01*
X3911758Y942582D01*
X3911563Y942563D01*
X3911368Y942539D01*
X3911174Y942510D01*
X3910981Y942477D01*
X3910788Y942439D01*
X3910597Y942396D01*
X3910406Y942349D01*
X3910217Y942297D01*
X3910029Y942241D01*
X3909843Y942180D01*
X3909658Y942114D01*
X3909475Y942044D01*
X3909293Y941969D01*
X3909114Y941890D01*
X3908936Y941807D01*
X3908760Y941720D01*
X3908587Y941628D01*
X3908416Y941532D01*
X3908247Y941432D01*
X3908081Y941327D01*
X3907917Y941219D01*
X3907757Y941107D01*
X3907598Y940991D01*
X3907443Y940871D01*
X3907291Y940747D01*
X3907142Y940620D01*
X3906995Y940489D01*
X3906853Y940355D01*
X3906713Y940217D01*
X3906577Y940075D01*
X3906444Y939931D01*
X3906315Y939783D01*
X3906189Y939632D01*
X3906068Y939479D01*
X3905950Y939322D01*
X3905836Y939162D01*
X3905725Y939000D01*
X3905619Y938835D01*
X3905517Y938668D01*
X3905419Y938498D01*
X3905325Y938326D01*
X3905235Y938151D01*
X3905150Y937974D01*
X3905069Y937796D01*
X3904992Y937615D01*
X3904920Y937433D01*
X3904852Y937249D01*
X3904788Y937063D01*
X3904730Y936876D01*
X3904675Y936687D01*
X3904626Y936498D01*
X3904581Y936307D01*
X3904540Y936115D01*
X3904505Y935922D01*
X3904474Y935728D01*
X3904448Y935534D01*
X3904426Y935339D01*
X3904409Y935143D01*
X3904398Y934947D01*
X3904390Y934751D01*
X3904388Y934555D01*
X3904389Y934555D02*
X3904389Y926500D01*
X3904389Y936167D02*
X3891500Y942611D01*
X3917278Y955099D02*
X3920500Y955099D01*
X3920500Y971210D01*
X3891500Y963154D01*
X3775500Y731500D02*
X3746500Y731500D01*
X3775500Y731500D02*
X3775500Y739555D01*
X3775498Y739751D01*
X3775490Y739947D01*
X3775479Y740143D01*
X3775462Y740339D01*
X3775440Y740534D01*
X3775414Y740728D01*
X3775383Y740922D01*
X3775348Y741115D01*
X3775307Y741307D01*
X3775262Y741498D01*
X3775213Y741687D01*
X3775158Y741876D01*
X3775100Y742063D01*
X3775036Y742249D01*
X3774968Y742433D01*
X3774896Y742615D01*
X3774819Y742796D01*
X3774738Y742974D01*
X3774653Y743151D01*
X3774563Y743326D01*
X3774469Y743498D01*
X3774371Y743668D01*
X3774269Y743835D01*
X3774163Y744000D01*
X3774052Y744162D01*
X3773938Y744322D01*
X3773820Y744479D01*
X3773699Y744632D01*
X3773573Y744783D01*
X3773444Y744931D01*
X3773311Y745075D01*
X3773175Y745217D01*
X3773035Y745355D01*
X3772893Y745489D01*
X3772746Y745620D01*
X3772597Y745747D01*
X3772445Y745871D01*
X3772290Y745991D01*
X3772131Y746107D01*
X3771971Y746219D01*
X3771807Y746327D01*
X3771641Y746432D01*
X3771472Y746532D01*
X3771301Y746628D01*
X3771128Y746720D01*
X3770952Y746807D01*
X3770774Y746890D01*
X3770595Y746969D01*
X3770413Y747044D01*
X3770230Y747114D01*
X3770045Y747180D01*
X3769859Y747241D01*
X3769671Y747297D01*
X3769482Y747349D01*
X3769291Y747396D01*
X3769100Y747439D01*
X3768907Y747477D01*
X3768714Y747510D01*
X3768520Y747539D01*
X3768325Y747563D01*
X3768130Y747582D01*
X3767934Y747596D01*
X3767738Y747606D01*
X3767542Y747610D01*
X3767346Y747610D01*
X3767150Y747606D01*
X3766954Y747596D01*
X3766758Y747582D01*
X3766563Y747563D01*
X3766368Y747539D01*
X3766174Y747510D01*
X3765981Y747477D01*
X3765788Y747439D01*
X3765597Y747396D01*
X3765406Y747349D01*
X3765217Y747297D01*
X3765029Y747241D01*
X3764843Y747180D01*
X3764658Y747114D01*
X3764475Y747044D01*
X3764293Y746969D01*
X3764114Y746890D01*
X3763936Y746807D01*
X3763760Y746720D01*
X3763587Y746628D01*
X3763416Y746532D01*
X3763247Y746432D01*
X3763081Y746327D01*
X3762917Y746219D01*
X3762757Y746107D01*
X3762598Y745991D01*
X3762443Y745871D01*
X3762291Y745747D01*
X3762142Y745620D01*
X3761995Y745489D01*
X3761853Y745355D01*
X3761713Y745217D01*
X3761577Y745075D01*
X3761444Y744931D01*
X3761315Y744783D01*
X3761189Y744632D01*
X3761068Y744479D01*
X3760950Y744322D01*
X3760836Y744162D01*
X3760725Y744000D01*
X3760619Y743835D01*
X3760517Y743668D01*
X3760419Y743498D01*
X3760325Y743326D01*
X3760235Y743151D01*
X3760150Y742974D01*
X3760069Y742796D01*
X3759992Y742615D01*
X3759920Y742433D01*
X3759852Y742249D01*
X3759788Y742063D01*
X3759730Y741876D01*
X3759675Y741687D01*
X3759626Y741498D01*
X3759581Y741307D01*
X3759540Y741115D01*
X3759505Y740922D01*
X3759474Y740728D01*
X3759448Y740534D01*
X3759426Y740339D01*
X3759409Y740143D01*
X3759398Y739947D01*
X3759390Y739751D01*
X3759388Y739555D01*
X3759389Y739555D02*
X3759389Y731500D01*
X3759389Y741167D02*
X3746500Y747611D01*
X3754555Y760099D02*
X3754751Y760101D01*
X3754947Y760109D01*
X3755143Y760120D01*
X3755338Y760137D01*
X3755533Y760159D01*
X3755728Y760185D01*
X3755922Y760216D01*
X3756114Y760251D01*
X3756306Y760292D01*
X3756497Y760337D01*
X3756687Y760386D01*
X3756876Y760441D01*
X3757063Y760499D01*
X3757248Y760563D01*
X3757432Y760631D01*
X3757615Y760703D01*
X3757795Y760780D01*
X3757974Y760861D01*
X3758151Y760946D01*
X3758325Y761036D01*
X3758497Y761130D01*
X3758667Y761228D01*
X3758835Y761330D01*
X3758999Y761436D01*
X3759162Y761546D01*
X3759321Y761661D01*
X3759478Y761778D01*
X3759632Y761900D01*
X3759783Y762026D01*
X3759930Y762155D01*
X3760075Y762288D01*
X3760216Y762424D01*
X3760354Y762563D01*
X3760488Y762706D01*
X3760619Y762852D01*
X3760746Y763001D01*
X3760870Y763154D01*
X3760990Y763309D01*
X3761106Y763467D01*
X3761218Y763628D01*
X3761326Y763792D01*
X3761431Y763958D01*
X3761531Y764127D01*
X3761627Y764298D01*
X3761719Y764471D01*
X3761806Y764646D01*
X3761889Y764824D01*
X3761968Y765004D01*
X3762043Y765185D01*
X3762113Y765368D01*
X3762179Y765553D01*
X3762240Y765740D01*
X3762296Y765927D01*
X3762348Y766117D01*
X3762395Y766307D01*
X3762438Y766498D01*
X3762476Y766691D01*
X3762509Y766884D01*
X3762538Y767078D01*
X3762562Y767273D01*
X3762581Y767468D01*
X3762595Y767664D01*
X3762605Y767860D01*
X3762609Y768056D01*
X3762609Y768252D01*
X3762605Y768448D01*
X3762595Y768644D01*
X3762581Y768840D01*
X3762562Y769035D01*
X3762538Y769230D01*
X3762509Y769424D01*
X3762476Y769617D01*
X3762438Y769810D01*
X3762395Y770001D01*
X3762348Y770191D01*
X3762296Y770381D01*
X3762240Y770568D01*
X3762179Y770755D01*
X3762113Y770940D01*
X3762043Y771123D01*
X3761968Y771304D01*
X3761889Y771484D01*
X3761806Y771662D01*
X3761719Y771837D01*
X3761627Y772010D01*
X3761531Y772182D01*
X3761431Y772350D01*
X3761326Y772516D01*
X3761218Y772680D01*
X3761106Y772841D01*
X3760990Y772999D01*
X3760870Y773154D01*
X3760746Y773307D01*
X3760619Y773456D01*
X3760488Y773602D01*
X3760354Y773745D01*
X3760216Y773884D01*
X3760075Y774020D01*
X3759930Y774153D01*
X3759783Y774282D01*
X3759632Y774408D01*
X3759478Y774530D01*
X3759321Y774647D01*
X3759162Y774762D01*
X3758999Y774872D01*
X3758835Y774978D01*
X3758667Y775080D01*
X3758497Y775178D01*
X3758325Y775272D01*
X3758151Y775362D01*
X3757974Y775447D01*
X3757795Y775528D01*
X3757615Y775605D01*
X3757432Y775677D01*
X3757248Y775745D01*
X3757063Y775809D01*
X3756876Y775867D01*
X3756687Y775922D01*
X3756497Y775971D01*
X3756306Y776016D01*
X3756114Y776057D01*
X3755922Y776092D01*
X3755728Y776123D01*
X3755533Y776149D01*
X3755338Y776171D01*
X3755143Y776188D01*
X3754947Y776199D01*
X3754751Y776207D01*
X3754555Y776209D01*
X3754555Y776210D02*
X3754359Y776208D01*
X3754163Y776200D01*
X3753967Y776189D01*
X3753771Y776172D01*
X3753576Y776150D01*
X3753382Y776124D01*
X3753188Y776093D01*
X3752995Y776058D01*
X3752803Y776017D01*
X3752612Y775972D01*
X3752423Y775923D01*
X3752234Y775868D01*
X3752047Y775810D01*
X3751861Y775746D01*
X3751677Y775678D01*
X3751495Y775606D01*
X3751314Y775529D01*
X3751136Y775448D01*
X3750959Y775363D01*
X3750784Y775273D01*
X3750612Y775179D01*
X3750442Y775081D01*
X3750275Y774979D01*
X3750110Y774873D01*
X3749948Y774762D01*
X3749788Y774648D01*
X3749631Y774530D01*
X3749478Y774409D01*
X3749327Y774283D01*
X3749179Y774154D01*
X3749035Y774021D01*
X3748893Y773885D01*
X3748755Y773745D01*
X3748621Y773603D01*
X3748490Y773456D01*
X3748363Y773307D01*
X3748239Y773155D01*
X3748119Y773000D01*
X3748003Y772841D01*
X3747891Y772681D01*
X3747783Y772517D01*
X3747678Y772351D01*
X3747578Y772182D01*
X3747482Y772011D01*
X3747390Y771838D01*
X3747303Y771662D01*
X3747220Y771484D01*
X3747141Y771305D01*
X3747066Y771123D01*
X3746996Y770940D01*
X3746930Y770755D01*
X3746869Y770569D01*
X3746813Y770381D01*
X3746761Y770192D01*
X3746714Y770001D01*
X3746671Y769810D01*
X3746633Y769617D01*
X3746600Y769424D01*
X3746571Y769230D01*
X3746547Y769035D01*
X3746528Y768840D01*
X3746514Y768644D01*
X3746504Y768448D01*
X3746500Y768252D01*
X3746500Y768056D01*
X3746504Y767860D01*
X3746514Y767664D01*
X3746528Y767468D01*
X3746547Y767273D01*
X3746571Y767078D01*
X3746600Y766884D01*
X3746633Y766691D01*
X3746671Y766498D01*
X3746714Y766307D01*
X3746761Y766116D01*
X3746813Y765927D01*
X3746869Y765739D01*
X3746930Y765553D01*
X3746996Y765368D01*
X3747066Y765185D01*
X3747141Y765003D01*
X3747220Y764824D01*
X3747303Y764646D01*
X3747390Y764470D01*
X3747482Y764297D01*
X3747578Y764126D01*
X3747678Y763957D01*
X3747783Y763791D01*
X3747891Y763627D01*
X3748003Y763467D01*
X3748119Y763308D01*
X3748239Y763153D01*
X3748363Y763001D01*
X3748490Y762852D01*
X3748621Y762705D01*
X3748755Y762563D01*
X3748893Y762423D01*
X3749035Y762287D01*
X3749179Y762154D01*
X3749327Y762025D01*
X3749478Y761899D01*
X3749631Y761778D01*
X3749788Y761660D01*
X3749948Y761546D01*
X3750110Y761435D01*
X3750275Y761329D01*
X3750442Y761227D01*
X3750612Y761129D01*
X3750784Y761035D01*
X3750959Y760945D01*
X3751136Y760860D01*
X3751314Y760779D01*
X3751495Y760702D01*
X3751677Y760630D01*
X3751861Y760562D01*
X3752047Y760498D01*
X3752234Y760440D01*
X3752423Y760385D01*
X3752612Y760336D01*
X3752803Y760291D01*
X3752995Y760250D01*
X3753188Y760215D01*
X3753382Y760184D01*
X3753576Y760158D01*
X3753771Y760136D01*
X3753967Y760119D01*
X3754163Y760108D01*
X3754359Y760100D01*
X3754555Y760098D01*
X3769055Y761710D02*
X3769214Y761712D01*
X3769374Y761718D01*
X3769533Y761728D01*
X3769692Y761742D01*
X3769850Y761759D01*
X3770008Y761781D01*
X3770165Y761806D01*
X3770322Y761836D01*
X3770478Y761869D01*
X3770633Y761906D01*
X3770787Y761947D01*
X3770940Y761992D01*
X3771092Y762040D01*
X3771242Y762093D01*
X3771392Y762149D01*
X3771539Y762208D01*
X3771686Y762271D01*
X3771830Y762338D01*
X3771973Y762409D01*
X3772115Y762483D01*
X3772254Y762560D01*
X3772391Y762641D01*
X3772527Y762725D01*
X3772660Y762813D01*
X3772791Y762903D01*
X3772920Y762997D01*
X3773046Y763095D01*
X3773170Y763195D01*
X3773291Y763298D01*
X3773410Y763404D01*
X3773526Y763514D01*
X3773640Y763626D01*
X3773750Y763740D01*
X3773858Y763858D01*
X3773963Y763978D01*
X3774065Y764101D01*
X3774163Y764226D01*
X3774259Y764353D01*
X3774351Y764483D01*
X3774441Y764615D01*
X3774526Y764750D01*
X3774609Y764886D01*
X3774688Y765024D01*
X3774764Y765165D01*
X3774836Y765307D01*
X3774905Y765451D01*
X3774970Y765596D01*
X3775031Y765743D01*
X3775089Y765892D01*
X3775143Y766042D01*
X3775193Y766193D01*
X3775240Y766345D01*
X3775283Y766499D01*
X3775322Y766654D01*
X3775357Y766809D01*
X3775388Y766965D01*
X3775416Y767122D01*
X3775439Y767280D01*
X3775459Y767438D01*
X3775475Y767597D01*
X3775487Y767756D01*
X3775495Y767915D01*
X3775499Y768074D01*
X3775499Y768234D01*
X3775495Y768393D01*
X3775487Y768552D01*
X3775475Y768711D01*
X3775459Y768870D01*
X3775439Y769028D01*
X3775416Y769186D01*
X3775388Y769343D01*
X3775357Y769499D01*
X3775322Y769654D01*
X3775283Y769809D01*
X3775240Y769963D01*
X3775193Y770115D01*
X3775143Y770266D01*
X3775089Y770416D01*
X3775031Y770565D01*
X3774970Y770712D01*
X3774905Y770857D01*
X3774836Y771001D01*
X3774764Y771143D01*
X3774688Y771284D01*
X3774609Y771422D01*
X3774526Y771558D01*
X3774441Y771693D01*
X3774351Y771825D01*
X3774259Y771955D01*
X3774163Y772082D01*
X3774065Y772207D01*
X3773963Y772330D01*
X3773858Y772450D01*
X3773750Y772568D01*
X3773640Y772682D01*
X3773526Y772794D01*
X3773410Y772904D01*
X3773291Y773010D01*
X3773170Y773113D01*
X3773046Y773213D01*
X3772920Y773311D01*
X3772791Y773405D01*
X3772660Y773495D01*
X3772527Y773583D01*
X3772391Y773667D01*
X3772254Y773748D01*
X3772115Y773825D01*
X3771973Y773899D01*
X3771830Y773970D01*
X3771686Y774037D01*
X3771539Y774100D01*
X3771392Y774159D01*
X3771242Y774215D01*
X3771092Y774268D01*
X3770940Y774316D01*
X3770787Y774361D01*
X3770633Y774402D01*
X3770478Y774439D01*
X3770322Y774472D01*
X3770165Y774502D01*
X3770008Y774527D01*
X3769850Y774549D01*
X3769692Y774566D01*
X3769533Y774580D01*
X3769374Y774590D01*
X3769214Y774596D01*
X3769055Y774598D01*
X3769055Y774599D02*
X3768896Y774597D01*
X3768736Y774591D01*
X3768577Y774581D01*
X3768418Y774567D01*
X3768260Y774550D01*
X3768102Y774528D01*
X3767945Y774503D01*
X3767788Y774473D01*
X3767632Y774440D01*
X3767477Y774403D01*
X3767323Y774362D01*
X3767170Y774317D01*
X3767018Y774269D01*
X3766867Y774216D01*
X3766718Y774160D01*
X3766570Y774101D01*
X3766424Y774037D01*
X3766279Y773971D01*
X3766136Y773900D01*
X3765995Y773826D01*
X3765856Y773749D01*
X3765718Y773668D01*
X3765583Y773584D01*
X3765450Y773496D01*
X3765319Y773405D01*
X3765190Y773311D01*
X3765063Y773214D01*
X3764939Y773114D01*
X3764818Y773011D01*
X3764699Y772904D01*
X3764583Y772795D01*
X3764470Y772683D01*
X3764359Y772568D01*
X3764251Y772451D01*
X3764146Y772331D01*
X3764045Y772208D01*
X3763946Y772083D01*
X3763850Y771955D01*
X3763758Y771825D01*
X3763669Y771693D01*
X3763583Y771559D01*
X3763500Y771422D01*
X3763421Y771284D01*
X3763345Y771144D01*
X3763273Y771002D01*
X3763205Y770858D01*
X3763139Y770712D01*
X3763078Y770565D01*
X3763020Y770416D01*
X3762966Y770267D01*
X3762916Y770115D01*
X3762869Y769963D01*
X3762826Y769809D01*
X3762787Y769655D01*
X3762752Y769499D01*
X3762721Y769343D01*
X3762693Y769186D01*
X3762670Y769028D01*
X3762650Y768870D01*
X3762634Y768711D01*
X3762622Y768552D01*
X3762614Y768393D01*
X3762610Y768234D01*
X3762610Y768074D01*
X3762614Y767915D01*
X3762622Y767756D01*
X3762634Y767597D01*
X3762650Y767438D01*
X3762670Y767280D01*
X3762693Y767122D01*
X3762721Y766965D01*
X3762752Y766809D01*
X3762787Y766653D01*
X3762826Y766499D01*
X3762869Y766345D01*
X3762916Y766193D01*
X3762966Y766041D01*
X3763020Y765892D01*
X3763078Y765743D01*
X3763139Y765596D01*
X3763205Y765450D01*
X3763273Y765306D01*
X3763345Y765164D01*
X3763421Y765024D01*
X3763500Y764886D01*
X3763583Y764749D01*
X3763669Y764615D01*
X3763758Y764483D01*
X3763850Y764353D01*
X3763946Y764225D01*
X3764045Y764100D01*
X3764146Y763977D01*
X3764251Y763857D01*
X3764359Y763740D01*
X3764470Y763625D01*
X3764583Y763513D01*
X3764699Y763404D01*
X3764818Y763297D01*
X3764939Y763194D01*
X3765063Y763094D01*
X3765190Y762997D01*
X3765319Y762903D01*
X3765450Y762812D01*
X3765583Y762724D01*
X3765718Y762640D01*
X3765856Y762559D01*
X3765995Y762482D01*
X3766136Y762408D01*
X3766279Y762337D01*
X3766424Y762271D01*
X3766570Y762207D01*
X3766718Y762148D01*
X3766867Y762092D01*
X3767018Y762039D01*
X3767170Y761991D01*
X3767323Y761946D01*
X3767477Y761905D01*
X3767632Y761868D01*
X3767788Y761835D01*
X3767945Y761805D01*
X3768102Y761780D01*
X3768260Y761758D01*
X3768418Y761741D01*
X3768577Y761727D01*
X3768736Y761717D01*
X3768896Y761711D01*
X3769055Y761709D01*
X3620500Y526500D02*
X3591500Y526500D01*
X3620500Y526500D02*
X3620500Y534555D01*
X3620498Y534751D01*
X3620490Y534947D01*
X3620479Y535143D01*
X3620462Y535339D01*
X3620440Y535534D01*
X3620414Y535728D01*
X3620383Y535922D01*
X3620348Y536115D01*
X3620307Y536307D01*
X3620262Y536498D01*
X3620213Y536687D01*
X3620158Y536876D01*
X3620100Y537063D01*
X3620036Y537249D01*
X3619968Y537433D01*
X3619896Y537615D01*
X3619819Y537796D01*
X3619738Y537974D01*
X3619653Y538151D01*
X3619563Y538326D01*
X3619469Y538498D01*
X3619371Y538668D01*
X3619269Y538835D01*
X3619163Y539000D01*
X3619052Y539162D01*
X3618938Y539322D01*
X3618820Y539479D01*
X3618699Y539632D01*
X3618573Y539783D01*
X3618444Y539931D01*
X3618311Y540075D01*
X3618175Y540217D01*
X3618035Y540355D01*
X3617893Y540489D01*
X3617746Y540620D01*
X3617597Y540747D01*
X3617445Y540871D01*
X3617290Y540991D01*
X3617131Y541107D01*
X3616971Y541219D01*
X3616807Y541327D01*
X3616641Y541432D01*
X3616472Y541532D01*
X3616301Y541628D01*
X3616128Y541720D01*
X3615952Y541807D01*
X3615774Y541890D01*
X3615595Y541969D01*
X3615413Y542044D01*
X3615230Y542114D01*
X3615045Y542180D01*
X3614859Y542241D01*
X3614671Y542297D01*
X3614482Y542349D01*
X3614291Y542396D01*
X3614100Y542439D01*
X3613907Y542477D01*
X3613714Y542510D01*
X3613520Y542539D01*
X3613325Y542563D01*
X3613130Y542582D01*
X3612934Y542596D01*
X3612738Y542606D01*
X3612542Y542610D01*
X3612346Y542610D01*
X3612150Y542606D01*
X3611954Y542596D01*
X3611758Y542582D01*
X3611563Y542563D01*
X3611368Y542539D01*
X3611174Y542510D01*
X3610981Y542477D01*
X3610788Y542439D01*
X3610597Y542396D01*
X3610406Y542349D01*
X3610217Y542297D01*
X3610029Y542241D01*
X3609843Y542180D01*
X3609658Y542114D01*
X3609475Y542044D01*
X3609293Y541969D01*
X3609114Y541890D01*
X3608936Y541807D01*
X3608760Y541720D01*
X3608587Y541628D01*
X3608416Y541532D01*
X3608247Y541432D01*
X3608081Y541327D01*
X3607917Y541219D01*
X3607757Y541107D01*
X3607598Y540991D01*
X3607443Y540871D01*
X3607291Y540747D01*
X3607142Y540620D01*
X3606995Y540489D01*
X3606853Y540355D01*
X3606713Y540217D01*
X3606577Y540075D01*
X3606444Y539931D01*
X3606315Y539783D01*
X3606189Y539632D01*
X3606068Y539479D01*
X3605950Y539322D01*
X3605836Y539162D01*
X3605725Y539000D01*
X3605619Y538835D01*
X3605517Y538668D01*
X3605419Y538498D01*
X3605325Y538326D01*
X3605235Y538151D01*
X3605150Y537974D01*
X3605069Y537796D01*
X3604992Y537615D01*
X3604920Y537433D01*
X3604852Y537249D01*
X3604788Y537063D01*
X3604730Y536876D01*
X3604675Y536687D01*
X3604626Y536498D01*
X3604581Y536307D01*
X3604540Y536115D01*
X3604505Y535922D01*
X3604474Y535728D01*
X3604448Y535534D01*
X3604426Y535339D01*
X3604409Y535143D01*
X3604398Y534947D01*
X3604390Y534751D01*
X3604388Y534555D01*
X3604389Y534555D02*
X3604389Y526500D01*
X3604389Y536167D02*
X3591500Y542611D01*
X3604389Y561543D02*
X3604389Y571210D01*
X3604389Y561543D02*
X3604391Y561385D01*
X3604397Y561227D01*
X3604406Y561069D01*
X3604420Y560911D01*
X3604437Y560754D01*
X3604459Y560597D01*
X3604484Y560441D01*
X3604513Y560286D01*
X3604546Y560131D01*
X3604582Y559977D01*
X3604622Y559824D01*
X3604666Y559672D01*
X3604714Y559522D01*
X3604766Y559372D01*
X3604821Y559224D01*
X3604880Y559077D01*
X3604942Y558932D01*
X3605008Y558788D01*
X3605077Y558646D01*
X3605150Y558505D01*
X3605226Y558367D01*
X3605306Y558230D01*
X3605389Y558095D01*
X3605475Y557963D01*
X3605565Y557832D01*
X3605657Y557704D01*
X3605753Y557578D01*
X3605852Y557455D01*
X3605954Y557334D01*
X3606058Y557215D01*
X3606166Y557100D01*
X3606276Y556986D01*
X3606390Y556876D01*
X3606506Y556768D01*
X3606624Y556664D01*
X3606745Y556562D01*
X3606869Y556463D01*
X3606994Y556367D01*
X3607123Y556274D01*
X3607253Y556185D01*
X3607386Y556099D01*
X3607520Y556016D01*
X3607657Y555936D01*
X3607795Y555860D01*
X3607936Y555787D01*
X3608078Y555718D01*
X3608222Y555652D01*
X3608367Y555589D01*
X3608514Y555531D01*
X3608662Y555476D01*
X3608812Y555424D01*
X3608963Y555376D01*
X3609114Y555332D01*
X3609267Y555292D01*
X3609421Y555256D01*
X3609576Y555223D01*
X3609731Y555194D01*
X3609888Y555169D01*
X3610044Y555147D01*
X3610201Y555130D01*
X3610359Y555116D01*
X3610517Y555107D01*
X3610675Y555101D01*
X3610833Y555099D01*
X3612444Y555099D01*
X3612640Y555101D01*
X3612836Y555109D01*
X3613032Y555120D01*
X3613227Y555137D01*
X3613422Y555159D01*
X3613617Y555185D01*
X3613811Y555216D01*
X3614003Y555251D01*
X3614195Y555292D01*
X3614386Y555337D01*
X3614576Y555386D01*
X3614765Y555441D01*
X3614952Y555499D01*
X3615137Y555563D01*
X3615321Y555631D01*
X3615504Y555703D01*
X3615684Y555780D01*
X3615863Y555861D01*
X3616040Y555946D01*
X3616214Y556036D01*
X3616386Y556130D01*
X3616556Y556228D01*
X3616724Y556330D01*
X3616888Y556436D01*
X3617051Y556546D01*
X3617210Y556661D01*
X3617367Y556778D01*
X3617521Y556900D01*
X3617672Y557026D01*
X3617819Y557155D01*
X3617964Y557288D01*
X3618105Y557424D01*
X3618243Y557563D01*
X3618377Y557706D01*
X3618508Y557852D01*
X3618635Y558001D01*
X3618759Y558154D01*
X3618879Y558309D01*
X3618995Y558467D01*
X3619107Y558628D01*
X3619215Y558792D01*
X3619320Y558958D01*
X3619420Y559127D01*
X3619516Y559298D01*
X3619608Y559471D01*
X3619695Y559646D01*
X3619778Y559824D01*
X3619857Y560004D01*
X3619932Y560185D01*
X3620002Y560368D01*
X3620068Y560553D01*
X3620129Y560740D01*
X3620185Y560927D01*
X3620237Y561117D01*
X3620284Y561307D01*
X3620327Y561498D01*
X3620365Y561691D01*
X3620398Y561884D01*
X3620427Y562078D01*
X3620451Y562273D01*
X3620470Y562468D01*
X3620484Y562664D01*
X3620494Y562860D01*
X3620498Y563056D01*
X3620498Y563252D01*
X3620494Y563448D01*
X3620484Y563644D01*
X3620470Y563840D01*
X3620451Y564035D01*
X3620427Y564230D01*
X3620398Y564424D01*
X3620365Y564617D01*
X3620327Y564810D01*
X3620284Y565001D01*
X3620237Y565191D01*
X3620185Y565381D01*
X3620129Y565568D01*
X3620068Y565755D01*
X3620002Y565940D01*
X3619932Y566123D01*
X3619857Y566304D01*
X3619778Y566484D01*
X3619695Y566662D01*
X3619608Y566837D01*
X3619516Y567010D01*
X3619420Y567182D01*
X3619320Y567350D01*
X3619215Y567516D01*
X3619107Y567680D01*
X3618995Y567841D01*
X3618879Y567999D01*
X3618759Y568154D01*
X3618635Y568307D01*
X3618508Y568456D01*
X3618377Y568602D01*
X3618243Y568745D01*
X3618105Y568884D01*
X3617964Y569020D01*
X3617819Y569153D01*
X3617672Y569282D01*
X3617521Y569408D01*
X3617367Y569530D01*
X3617210Y569647D01*
X3617051Y569762D01*
X3616888Y569872D01*
X3616724Y569978D01*
X3616556Y570080D01*
X3616386Y570178D01*
X3616214Y570272D01*
X3616040Y570362D01*
X3615863Y570447D01*
X3615684Y570528D01*
X3615504Y570605D01*
X3615321Y570677D01*
X3615137Y570745D01*
X3614952Y570809D01*
X3614765Y570867D01*
X3614576Y570922D01*
X3614386Y570971D01*
X3614195Y571016D01*
X3614003Y571057D01*
X3613811Y571092D01*
X3613617Y571123D01*
X3613422Y571149D01*
X3613227Y571171D01*
X3613032Y571188D01*
X3612836Y571199D01*
X3612640Y571207D01*
X3612444Y571209D01*
X3612444Y571210D02*
X3604389Y571210D01*
X3604078Y571206D01*
X3603766Y571195D01*
X3603455Y571176D01*
X3603145Y571150D01*
X3602835Y571116D01*
X3602527Y571075D01*
X3602219Y571026D01*
X3601913Y570970D01*
X3601608Y570906D01*
X3601304Y570835D01*
X3601003Y570757D01*
X3600703Y570672D01*
X3600406Y570579D01*
X3600111Y570479D01*
X3599818Y570372D01*
X3599529Y570258D01*
X3599242Y570138D01*
X3598958Y570010D01*
X3598677Y569875D01*
X3598399Y569734D01*
X3598125Y569586D01*
X3597855Y569431D01*
X3597588Y569270D01*
X3597326Y569102D01*
X3597067Y568928D01*
X3596813Y568748D01*
X3596563Y568562D01*
X3596318Y568370D01*
X3596078Y568172D01*
X3595842Y567969D01*
X3595611Y567759D01*
X3595386Y567544D01*
X3595166Y567324D01*
X3594951Y567099D01*
X3594741Y566868D01*
X3594538Y566632D01*
X3594340Y566392D01*
X3594148Y566147D01*
X3593962Y565897D01*
X3593782Y565643D01*
X3593608Y565384D01*
X3593440Y565122D01*
X3593279Y564855D01*
X3593124Y564585D01*
X3592976Y564311D01*
X3592835Y564033D01*
X3592700Y563752D01*
X3592572Y563468D01*
X3592452Y563181D01*
X3592338Y562892D01*
X3592231Y562599D01*
X3592131Y562304D01*
X3592038Y562007D01*
X3591953Y561707D01*
X3591875Y561406D01*
X3591804Y561102D01*
X3591740Y560797D01*
X3591684Y560491D01*
X3591635Y560183D01*
X3591594Y559875D01*
X3591560Y559565D01*
X3591534Y559255D01*
X3591515Y558944D01*
X3591504Y558632D01*
X3591500Y558321D01*
X3470500Y336500D02*
X3441500Y336500D01*
X3470500Y336500D02*
X3470500Y344555D01*
X3470498Y344751D01*
X3470490Y344947D01*
X3470479Y345143D01*
X3470462Y345339D01*
X3470440Y345534D01*
X3470414Y345728D01*
X3470383Y345922D01*
X3470348Y346115D01*
X3470307Y346307D01*
X3470262Y346498D01*
X3470213Y346687D01*
X3470158Y346876D01*
X3470100Y347063D01*
X3470036Y347249D01*
X3469968Y347433D01*
X3469896Y347615D01*
X3469819Y347796D01*
X3469738Y347974D01*
X3469653Y348151D01*
X3469563Y348326D01*
X3469469Y348498D01*
X3469371Y348668D01*
X3469269Y348835D01*
X3469163Y349000D01*
X3469052Y349162D01*
X3468938Y349322D01*
X3468820Y349479D01*
X3468699Y349632D01*
X3468573Y349783D01*
X3468444Y349931D01*
X3468311Y350075D01*
X3468175Y350217D01*
X3468035Y350355D01*
X3467893Y350489D01*
X3467746Y350620D01*
X3467597Y350747D01*
X3467445Y350871D01*
X3467290Y350991D01*
X3467131Y351107D01*
X3466971Y351219D01*
X3466807Y351327D01*
X3466641Y351432D01*
X3466472Y351532D01*
X3466301Y351628D01*
X3466128Y351720D01*
X3465952Y351807D01*
X3465774Y351890D01*
X3465595Y351969D01*
X3465413Y352044D01*
X3465230Y352114D01*
X3465045Y352180D01*
X3464859Y352241D01*
X3464671Y352297D01*
X3464482Y352349D01*
X3464291Y352396D01*
X3464100Y352439D01*
X3463907Y352477D01*
X3463714Y352510D01*
X3463520Y352539D01*
X3463325Y352563D01*
X3463130Y352582D01*
X3462934Y352596D01*
X3462738Y352606D01*
X3462542Y352610D01*
X3462346Y352610D01*
X3462150Y352606D01*
X3461954Y352596D01*
X3461758Y352582D01*
X3461563Y352563D01*
X3461368Y352539D01*
X3461174Y352510D01*
X3460981Y352477D01*
X3460788Y352439D01*
X3460597Y352396D01*
X3460406Y352349D01*
X3460217Y352297D01*
X3460029Y352241D01*
X3459843Y352180D01*
X3459658Y352114D01*
X3459475Y352044D01*
X3459293Y351969D01*
X3459114Y351890D01*
X3458936Y351807D01*
X3458760Y351720D01*
X3458587Y351628D01*
X3458416Y351532D01*
X3458247Y351432D01*
X3458081Y351327D01*
X3457917Y351219D01*
X3457757Y351107D01*
X3457598Y350991D01*
X3457443Y350871D01*
X3457291Y350747D01*
X3457142Y350620D01*
X3456995Y350489D01*
X3456853Y350355D01*
X3456713Y350217D01*
X3456577Y350075D01*
X3456444Y349931D01*
X3456315Y349783D01*
X3456189Y349632D01*
X3456068Y349479D01*
X3455950Y349322D01*
X3455836Y349162D01*
X3455725Y349000D01*
X3455619Y348835D01*
X3455517Y348668D01*
X3455419Y348498D01*
X3455325Y348326D01*
X3455235Y348151D01*
X3455150Y347974D01*
X3455069Y347796D01*
X3454992Y347615D01*
X3454920Y347433D01*
X3454852Y347249D01*
X3454788Y347063D01*
X3454730Y346876D01*
X3454675Y346687D01*
X3454626Y346498D01*
X3454581Y346307D01*
X3454540Y346115D01*
X3454505Y345922D01*
X3454474Y345728D01*
X3454448Y345534D01*
X3454426Y345339D01*
X3454409Y345143D01*
X3454398Y344947D01*
X3454390Y344751D01*
X3454388Y344555D01*
X3454389Y344555D02*
X3454389Y336500D01*
X3454389Y346167D02*
X3441500Y352611D01*
X3464055Y365099D02*
X3470500Y373154D01*
X3441500Y373154D01*
X3441500Y365099D02*
X3441500Y381210D01*
X3456000Y393898D02*
X3456570Y393905D01*
X3457141Y393925D01*
X3457710Y393959D01*
X3458279Y394007D01*
X3458846Y394068D01*
X3459412Y394143D01*
X3459975Y394231D01*
X3460537Y394333D01*
X3461095Y394448D01*
X3461651Y394576D01*
X3462204Y394717D01*
X3462753Y394872D01*
X3463298Y395040D01*
X3463840Y395220D01*
X3464376Y395414D01*
X3464908Y395620D01*
X3465435Y395839D01*
X3465957Y396071D01*
X3466472Y396315D01*
X3466617Y396367D01*
X3466761Y396423D01*
X3466903Y396482D01*
X3467044Y396545D01*
X3467183Y396611D01*
X3467320Y396681D01*
X3467455Y396755D01*
X3467589Y396832D01*
X3467720Y396913D01*
X3467849Y396997D01*
X3467976Y397084D01*
X3468101Y397174D01*
X3468223Y397268D01*
X3468343Y397365D01*
X3468460Y397464D01*
X3468575Y397567D01*
X3468687Y397673D01*
X3468796Y397782D01*
X3468903Y397893D01*
X3469006Y398007D01*
X3469107Y398124D01*
X3469204Y398243D01*
X3469299Y398365D01*
X3469390Y398489D01*
X3469478Y398616D01*
X3469562Y398745D01*
X3469643Y398875D01*
X3469721Y399008D01*
X3469796Y399143D01*
X3469867Y399280D01*
X3469934Y399419D01*
X3469998Y399559D01*
X3470058Y399701D01*
X3470114Y399844D01*
X3470167Y399989D01*
X3470216Y400135D01*
X3470261Y400282D01*
X3470302Y400431D01*
X3470339Y400580D01*
X3470373Y400730D01*
X3470403Y400882D01*
X3470428Y401033D01*
X3470450Y401186D01*
X3470468Y401339D01*
X3470482Y401492D01*
X3470492Y401646D01*
X3470498Y401800D01*
X3470500Y401954D01*
X3470498Y402108D01*
X3470492Y402262D01*
X3470482Y402416D01*
X3470468Y402569D01*
X3470450Y402722D01*
X3470428Y402875D01*
X3470403Y403027D01*
X3470373Y403178D01*
X3470339Y403328D01*
X3470302Y403477D01*
X3470261Y403626D01*
X3470216Y403773D01*
X3470167Y403919D01*
X3470114Y404064D01*
X3470058Y404207D01*
X3469998Y404349D01*
X3469934Y404490D01*
X3469867Y404628D01*
X3469796Y404765D01*
X3469721Y404900D01*
X3469643Y405033D01*
X3469562Y405164D01*
X3469478Y405292D01*
X3469390Y405419D01*
X3469298Y405543D01*
X3469204Y405665D01*
X3469107Y405784D01*
X3469006Y405901D01*
X3468903Y406015D01*
X3468796Y406126D01*
X3468687Y406235D01*
X3468575Y406341D01*
X3468460Y406444D01*
X3468343Y406543D01*
X3468223Y406640D01*
X3468101Y406734D01*
X3467976Y406824D01*
X3467849Y406911D01*
X3467720Y406995D01*
X3467589Y407076D01*
X3467455Y407153D01*
X3467320Y407227D01*
X3467183Y407297D01*
X3467044Y407363D01*
X3466903Y407426D01*
X3466761Y407485D01*
X3466617Y407541D01*
X3466472Y407593D01*
X3465957Y407837D01*
X3465435Y408069D01*
X3464908Y408288D01*
X3464376Y408494D01*
X3463840Y408688D01*
X3463299Y408868D01*
X3462753Y409036D01*
X3462204Y409191D01*
X3461651Y409332D01*
X3461095Y409460D01*
X3460537Y409575D01*
X3459975Y409677D01*
X3459412Y409765D01*
X3458846Y409840D01*
X3458279Y409901D01*
X3457710Y409949D01*
X3457141Y409983D01*
X3456570Y410003D01*
X3456000Y410010D01*
X3456000Y393898D02*
X3455430Y393905D01*
X3454859Y393925D01*
X3454290Y393959D01*
X3453721Y394007D01*
X3453154Y394068D01*
X3452588Y394143D01*
X3452025Y394231D01*
X3451463Y394333D01*
X3450904Y394448D01*
X3450349Y394576D01*
X3449796Y394717D01*
X3449247Y394872D01*
X3448701Y395040D01*
X3448160Y395220D01*
X3447624Y395414D01*
X3447092Y395620D01*
X3446565Y395839D01*
X3446043Y396071D01*
X3445527Y396315D01*
X3445528Y396315D02*
X3445382Y396367D01*
X3445239Y396423D01*
X3445097Y396482D01*
X3444956Y396545D01*
X3444817Y396611D01*
X3444680Y396682D01*
X3444545Y396755D01*
X3444411Y396832D01*
X3444280Y396913D01*
X3444151Y396997D01*
X3444024Y397084D01*
X3443899Y397174D01*
X3443777Y397268D01*
X3443657Y397365D01*
X3443539Y397465D01*
X3443425Y397567D01*
X3443313Y397673D01*
X3443204Y397782D01*
X3443097Y397893D01*
X3442994Y398007D01*
X3442893Y398124D01*
X3442796Y398243D01*
X3442701Y398365D01*
X3442610Y398489D01*
X3442522Y398616D01*
X3442438Y398745D01*
X3442357Y398875D01*
X3442279Y399008D01*
X3442204Y399143D01*
X3442133Y399280D01*
X3442066Y399419D01*
X3442002Y399559D01*
X3441942Y399701D01*
X3441886Y399844D01*
X3441833Y399989D01*
X3441784Y400135D01*
X3441739Y400282D01*
X3441698Y400431D01*
X3441661Y400580D01*
X3441627Y400730D01*
X3441597Y400882D01*
X3441572Y401033D01*
X3441550Y401186D01*
X3441532Y401339D01*
X3441518Y401492D01*
X3441508Y401646D01*
X3441502Y401800D01*
X3441500Y401954D01*
X3445528Y407592D02*
X3446044Y407836D01*
X3446565Y408068D01*
X3447092Y408287D01*
X3447624Y408493D01*
X3448160Y408687D01*
X3448702Y408867D01*
X3449247Y409035D01*
X3449796Y409190D01*
X3450349Y409331D01*
X3450905Y409459D01*
X3451463Y409574D01*
X3452025Y409676D01*
X3452589Y409764D01*
X3453154Y409839D01*
X3453721Y409900D01*
X3454290Y409948D01*
X3454859Y409982D01*
X3455430Y410002D01*
X3456000Y410009D01*
X3445528Y407593D02*
X3445383Y407541D01*
X3445239Y407485D01*
X3445097Y407426D01*
X3444956Y407363D01*
X3444817Y407297D01*
X3444680Y407227D01*
X3444545Y407153D01*
X3444411Y407076D01*
X3444280Y406995D01*
X3444151Y406911D01*
X3444024Y406824D01*
X3443899Y406734D01*
X3443777Y406640D01*
X3443657Y406543D01*
X3443540Y406444D01*
X3443425Y406341D01*
X3443313Y406235D01*
X3443204Y406126D01*
X3443097Y406015D01*
X3442994Y405901D01*
X3442893Y405784D01*
X3442796Y405665D01*
X3442701Y405543D01*
X3442610Y405419D01*
X3442522Y405292D01*
X3442438Y405164D01*
X3442357Y405033D01*
X3442279Y404900D01*
X3442204Y404765D01*
X3442133Y404628D01*
X3442066Y404489D01*
X3442002Y404349D01*
X3441942Y404207D01*
X3441886Y404064D01*
X3441833Y403919D01*
X3441784Y403773D01*
X3441739Y403626D01*
X3441698Y403477D01*
X3441661Y403328D01*
X3441627Y403178D01*
X3441597Y403027D01*
X3441572Y402875D01*
X3441550Y402722D01*
X3441532Y402569D01*
X3441518Y402416D01*
X3441508Y402262D01*
X3441502Y402108D01*
X3441500Y401954D01*
X3447944Y395510D02*
X3464055Y408399D01*
D10*
X3307000Y531000D02*
X3296000Y531000D01*
X3254000Y531000D02*
X3246000Y531000D01*
X3204000Y531000D02*
X3196000Y531000D01*
X3154000Y531000D02*
X3146000Y531000D01*
X3104000Y319000D02*
X3093000Y319000D01*
X3093000Y531000D01*
X3104000Y531000D01*
X3307000Y531000D02*
X3307000Y437000D01*
X3307000Y413000D01*
X3307000Y319000D01*
X3296000Y319000D01*
X3254000Y319000D02*
X3246000Y319000D01*
X3204000Y319000D02*
X3196000Y319000D01*
X3154000Y319000D02*
X3146000Y319000D01*
X3307000Y413000D02*
X3306708Y413004D01*
X3306416Y413014D01*
X3306124Y413032D01*
X3305833Y413057D01*
X3305542Y413089D01*
X3305253Y413128D01*
X3304964Y413174D01*
X3304677Y413227D01*
X3304391Y413287D01*
X3304106Y413354D01*
X3303824Y413428D01*
X3303543Y413509D01*
X3303264Y413596D01*
X3302987Y413691D01*
X3302713Y413792D01*
X3302442Y413900D01*
X3302173Y414014D01*
X3301907Y414135D01*
X3301643Y414262D01*
X3301384Y414395D01*
X3301127Y414535D01*
X3300874Y414682D01*
X3300624Y414834D01*
X3300379Y414992D01*
X3300137Y415156D01*
X3299899Y415326D01*
X3299666Y415502D01*
X3299437Y415683D01*
X3299212Y415870D01*
X3298992Y416063D01*
X3298777Y416260D01*
X3298567Y416463D01*
X3298361Y416671D01*
X3298161Y416884D01*
X3297966Y417102D01*
X3297776Y417324D01*
X3297592Y417551D01*
X3297413Y417782D01*
X3297241Y418018D01*
X3297073Y418257D01*
X3296912Y418501D01*
X3296757Y418749D01*
X3296608Y419000D01*
X3296465Y419255D01*
X3296328Y419513D01*
X3296197Y419775D01*
X3296073Y420039D01*
X3295956Y420307D01*
X3295845Y420577D01*
X3295740Y420850D01*
X3295643Y421125D01*
X3295552Y421403D01*
X3295468Y421683D01*
X3295390Y421965D01*
X3295320Y422248D01*
X3295256Y422534D01*
X3295200Y422820D01*
X3295150Y423108D01*
X3295107Y423397D01*
X3295072Y423688D01*
X3295044Y423978D01*
X3295022Y424270D01*
X3295008Y424562D01*
X3295001Y424854D01*
X3295001Y425146D01*
X3295008Y425438D01*
X3295022Y425730D01*
X3295044Y426022D01*
X3295072Y426312D01*
X3295107Y426603D01*
X3295150Y426892D01*
X3295200Y427180D01*
X3295256Y427466D01*
X3295320Y427752D01*
X3295390Y428035D01*
X3295468Y428317D01*
X3295552Y428597D01*
X3295643Y428875D01*
X3295740Y429150D01*
X3295845Y429423D01*
X3295956Y429693D01*
X3296073Y429961D01*
X3296197Y430225D01*
X3296328Y430487D01*
X3296465Y430745D01*
X3296608Y431000D01*
X3296757Y431251D01*
X3296912Y431499D01*
X3297073Y431743D01*
X3297241Y431982D01*
X3297413Y432218D01*
X3297592Y432449D01*
X3297776Y432676D01*
X3297966Y432898D01*
X3298161Y433116D01*
X3298361Y433329D01*
X3298567Y433537D01*
X3298777Y433740D01*
X3298992Y433937D01*
X3299212Y434130D01*
X3299437Y434317D01*
X3299666Y434498D01*
X3299899Y434674D01*
X3300137Y434844D01*
X3300379Y435008D01*
X3300624Y435166D01*
X3300874Y435318D01*
X3301127Y435465D01*
X3301384Y435605D01*
X3301643Y435738D01*
X3301907Y435865D01*
X3302173Y435986D01*
X3302442Y436100D01*
X3302713Y436208D01*
X3302987Y436309D01*
X3303264Y436404D01*
X3303543Y436491D01*
X3303824Y436572D01*
X3304106Y436646D01*
X3304391Y436713D01*
X3304677Y436773D01*
X3304964Y436826D01*
X3305253Y436872D01*
X3305542Y436911D01*
X3305833Y436943D01*
X3306124Y436968D01*
X3306416Y436986D01*
X3306708Y436996D01*
X3307000Y437000D01*
D13*
X3311778Y263861D02*
X3327444Y263861D01*
X3311778Y263861D02*
X3300028Y273000D01*
X3311778Y263861D02*
X3300028Y254722D01*
X3311778Y263861D02*
X3317000Y278222D01*
X3311778Y263861D02*
X3317000Y249500D01*
D14*
X3219685Y141535D02*
X3180315Y141535D01*
X3180315Y208465D02*
X3219685Y208465D01*
D12*
X3215302Y126159D02*
X3215302Y117715D01*
X3215302Y126159D02*
X3215300Y126303D01*
X3215294Y126447D01*
X3215284Y126591D01*
X3215271Y126735D01*
X3215253Y126878D01*
X3215231Y127020D01*
X3215206Y127162D01*
X3215176Y127303D01*
X3215143Y127444D01*
X3215106Y127583D01*
X3215065Y127721D01*
X3215021Y127858D01*
X3214973Y127994D01*
X3214921Y128129D01*
X3214865Y128262D01*
X3214806Y128393D01*
X3214743Y128523D01*
X3214677Y128651D01*
X3214607Y128777D01*
X3214534Y128901D01*
X3214457Y129024D01*
X3214377Y129144D01*
X3214294Y129261D01*
X3214208Y129377D01*
X3214118Y129490D01*
X3214026Y129600D01*
X3213930Y129708D01*
X3213832Y129814D01*
X3213731Y129917D01*
X3213627Y130016D01*
X3213520Y130113D01*
X3213410Y130207D01*
X3213299Y130298D01*
X3213184Y130386D01*
X3213068Y130471D01*
X3212949Y130552D01*
X3212828Y130631D01*
X3212705Y130706D01*
X3212579Y130777D01*
X3212452Y130845D01*
X3212323Y130910D01*
X3212193Y130971D01*
X3212060Y131028D01*
X3211927Y131082D01*
X3211791Y131132D01*
X3211655Y131179D01*
X3211517Y131221D01*
X3211378Y131260D01*
X3211239Y131295D01*
X3211098Y131327D01*
X3210956Y131354D01*
X3210814Y131378D01*
X3210671Y131397D01*
X3210528Y131413D01*
X3210384Y131425D01*
X3210240Y131433D01*
X3210096Y131437D01*
X3209952Y131437D01*
X3209808Y131433D01*
X3209664Y131425D01*
X3209520Y131413D01*
X3209377Y131397D01*
X3209234Y131378D01*
X3209092Y131354D01*
X3208950Y131327D01*
X3208809Y131295D01*
X3208670Y131260D01*
X3208531Y131221D01*
X3208393Y131179D01*
X3208257Y131132D01*
X3208121Y131082D01*
X3207988Y131028D01*
X3207855Y130971D01*
X3207725Y130910D01*
X3207596Y130845D01*
X3207469Y130777D01*
X3207343Y130706D01*
X3207220Y130631D01*
X3207099Y130552D01*
X3206980Y130471D01*
X3206864Y130386D01*
X3206749Y130298D01*
X3206638Y130207D01*
X3206528Y130113D01*
X3206421Y130016D01*
X3206317Y129917D01*
X3206216Y129814D01*
X3206118Y129708D01*
X3206022Y129600D01*
X3205930Y129490D01*
X3205840Y129377D01*
X3205754Y129261D01*
X3205671Y129144D01*
X3205591Y129024D01*
X3205514Y128901D01*
X3205441Y128777D01*
X3205371Y128651D01*
X3205305Y128523D01*
X3205242Y128393D01*
X3205183Y128262D01*
X3205127Y128129D01*
X3205075Y127994D01*
X3205027Y127858D01*
X3204983Y127721D01*
X3204942Y127583D01*
X3204905Y127444D01*
X3204872Y127303D01*
X3204842Y127162D01*
X3204817Y127020D01*
X3204795Y126878D01*
X3204777Y126735D01*
X3204764Y126591D01*
X3204754Y126447D01*
X3204748Y126303D01*
X3204746Y126159D01*
X3204746Y117715D01*
X3204748Y117571D01*
X3204754Y117427D01*
X3204764Y117283D01*
X3204777Y117139D01*
X3204795Y116996D01*
X3204817Y116854D01*
X3204842Y116712D01*
X3204872Y116571D01*
X3204905Y116430D01*
X3204942Y116291D01*
X3204983Y116153D01*
X3205027Y116016D01*
X3205075Y115880D01*
X3205127Y115745D01*
X3205183Y115612D01*
X3205242Y115481D01*
X3205305Y115351D01*
X3205371Y115223D01*
X3205441Y115097D01*
X3205514Y114973D01*
X3205591Y114850D01*
X3205671Y114730D01*
X3205754Y114613D01*
X3205840Y114497D01*
X3205930Y114384D01*
X3206022Y114274D01*
X3206118Y114166D01*
X3206216Y114060D01*
X3206317Y113957D01*
X3206421Y113858D01*
X3206528Y113761D01*
X3206638Y113667D01*
X3206749Y113576D01*
X3206864Y113488D01*
X3206980Y113403D01*
X3207099Y113322D01*
X3207220Y113243D01*
X3207343Y113168D01*
X3207469Y113097D01*
X3207596Y113029D01*
X3207725Y112964D01*
X3207855Y112903D01*
X3207988Y112846D01*
X3208121Y112792D01*
X3208257Y112742D01*
X3208393Y112695D01*
X3208531Y112653D01*
X3208670Y112614D01*
X3208809Y112579D01*
X3208950Y112547D01*
X3209092Y112520D01*
X3209234Y112496D01*
X3209377Y112477D01*
X3209520Y112461D01*
X3209664Y112449D01*
X3209808Y112441D01*
X3209952Y112437D01*
X3210096Y112437D01*
X3210240Y112441D01*
X3210384Y112449D01*
X3210528Y112461D01*
X3210671Y112477D01*
X3210814Y112496D01*
X3210956Y112520D01*
X3211098Y112547D01*
X3211239Y112579D01*
X3211378Y112614D01*
X3211517Y112653D01*
X3211655Y112695D01*
X3211791Y112742D01*
X3211927Y112792D01*
X3212060Y112846D01*
X3212193Y112903D01*
X3212323Y112964D01*
X3212452Y113029D01*
X3212579Y113097D01*
X3212705Y113168D01*
X3212828Y113243D01*
X3212949Y113322D01*
X3213068Y113403D01*
X3213184Y113488D01*
X3213299Y113576D01*
X3213410Y113667D01*
X3213520Y113761D01*
X3213627Y113858D01*
X3213731Y113957D01*
X3213832Y114060D01*
X3213930Y114166D01*
X3214026Y114274D01*
X3214118Y114384D01*
X3214208Y114497D01*
X3214294Y114613D01*
X3214377Y114730D01*
X3214457Y114850D01*
X3214534Y114973D01*
X3214607Y115097D01*
X3214677Y115223D01*
X3214743Y115351D01*
X3214806Y115481D01*
X3214865Y115612D01*
X3214921Y115745D01*
X3214973Y115880D01*
X3215021Y116016D01*
X3215065Y116153D01*
X3215106Y116291D01*
X3215143Y116430D01*
X3215176Y116571D01*
X3215206Y116712D01*
X3215231Y116854D01*
X3215253Y116996D01*
X3215271Y117139D01*
X3215284Y117283D01*
X3215294Y117427D01*
X3215300Y117571D01*
X3215302Y117715D01*
X3206857Y116659D02*
X3202635Y112437D01*
X3195254Y127215D02*
X3189976Y131437D01*
X3189976Y112437D01*
X3195254Y112437D02*
X3184698Y112437D01*
D10*
X2300000Y265000D02*
X2300000Y285000D01*
X2200000Y285000D02*
X2200000Y265000D01*
X2200000Y285000D02*
X2205000Y285000D01*
X2205000Y265000D02*
X2200000Y265000D01*
X2295000Y265000D02*
X2300000Y265000D01*
X2300000Y285000D02*
X2295000Y285000D01*
D12*
X2297500Y327500D02*
X2297500Y372500D01*
X2285000Y372500D01*
X2284696Y372496D01*
X2284391Y372485D01*
X2284088Y372467D01*
X2283784Y372441D01*
X2283482Y372407D01*
X2283180Y372367D01*
X2282879Y372319D01*
X2282580Y372264D01*
X2282282Y372201D01*
X2281986Y372131D01*
X2281691Y372054D01*
X2281399Y371970D01*
X2281108Y371879D01*
X2280820Y371780D01*
X2280535Y371675D01*
X2280252Y371563D01*
X2279971Y371444D01*
X2279694Y371318D01*
X2279420Y371186D01*
X2279150Y371046D01*
X2278882Y370901D01*
X2278619Y370748D01*
X2278359Y370590D01*
X2278103Y370425D01*
X2277851Y370254D01*
X2277604Y370077D01*
X2277360Y369894D01*
X2277122Y369705D01*
X2276888Y369510D01*
X2276659Y369310D01*
X2276434Y369104D01*
X2276215Y368892D01*
X2276001Y368676D01*
X2275793Y368454D01*
X2275589Y368228D01*
X2275392Y367996D01*
X2275200Y367760D01*
X2275014Y367519D01*
X2274834Y367273D01*
X2274660Y367024D01*
X2274492Y366770D01*
X2274330Y366512D01*
X2274175Y366250D01*
X2274026Y365985D01*
X2273883Y365716D01*
X2273747Y365443D01*
X2273618Y365168D01*
X2273496Y364889D01*
X2273380Y364607D01*
X2273271Y364323D01*
X2273170Y364036D01*
X2273075Y363747D01*
X2272987Y363455D01*
X2272906Y363162D01*
X2272833Y362866D01*
X2272767Y362569D01*
X2272708Y362270D01*
X2272656Y361970D01*
X2272612Y361669D01*
X2272575Y361367D01*
X2272545Y361064D01*
X2272523Y360761D01*
X2272508Y360457D01*
X2272501Y360152D01*
X2272501Y359848D01*
X2272508Y359543D01*
X2272523Y359239D01*
X2272545Y358936D01*
X2272575Y358633D01*
X2272612Y358331D01*
X2272656Y358030D01*
X2272708Y357730D01*
X2272767Y357431D01*
X2272833Y357134D01*
X2272906Y356838D01*
X2272987Y356545D01*
X2273075Y356253D01*
X2273170Y355964D01*
X2273271Y355677D01*
X2273380Y355393D01*
X2273496Y355111D01*
X2273618Y354832D01*
X2273747Y354557D01*
X2273883Y354284D01*
X2274026Y354015D01*
X2274175Y353750D01*
X2274330Y353488D01*
X2274492Y353230D01*
X2274660Y352976D01*
X2274834Y352727D01*
X2275014Y352481D01*
X2275200Y352240D01*
X2275392Y352004D01*
X2275589Y351772D01*
X2275793Y351546D01*
X2276001Y351324D01*
X2276215Y351108D01*
X2276434Y350896D01*
X2276659Y350690D01*
X2276888Y350490D01*
X2277122Y350295D01*
X2277360Y350106D01*
X2277604Y349923D01*
X2277851Y349746D01*
X2278103Y349575D01*
X2278359Y349410D01*
X2278619Y349252D01*
X2278882Y349099D01*
X2279150Y348954D01*
X2279420Y348814D01*
X2279694Y348682D01*
X2279971Y348556D01*
X2280252Y348437D01*
X2280535Y348325D01*
X2280820Y348220D01*
X2281108Y348121D01*
X2281399Y348030D01*
X2281691Y347946D01*
X2281986Y347869D01*
X2282282Y347799D01*
X2282580Y347736D01*
X2282879Y347681D01*
X2283180Y347633D01*
X2283482Y347593D01*
X2283784Y347559D01*
X2284088Y347533D01*
X2284391Y347515D01*
X2284696Y347504D01*
X2285000Y347500D01*
X2297500Y347500D01*
D10*
X2175000Y285000D02*
X2175000Y265000D01*
X2075000Y265000D02*
X2075000Y285000D01*
X2080000Y285000D01*
X2080000Y265000D02*
X2075000Y265000D01*
X2170000Y265000D02*
X2175000Y265000D01*
X2175000Y285000D02*
X2170000Y285000D01*
D12*
X2172500Y327500D02*
X2172500Y372500D01*
X2147500Y327500D01*
X2147500Y372500D01*
D13*
X3408813Y174500D02*
X3415258Y174500D01*
X3415416Y174502D01*
X3415574Y174508D01*
X3415732Y174517D01*
X3415890Y174531D01*
X3416047Y174548D01*
X3416204Y174570D01*
X3416360Y174595D01*
X3416515Y174624D01*
X3416670Y174657D01*
X3416824Y174693D01*
X3416977Y174733D01*
X3417129Y174777D01*
X3417279Y174825D01*
X3417429Y174877D01*
X3417577Y174932D01*
X3417724Y174991D01*
X3417869Y175053D01*
X3418013Y175119D01*
X3418155Y175188D01*
X3418296Y175261D01*
X3418434Y175337D01*
X3418571Y175417D01*
X3418706Y175500D01*
X3418838Y175586D01*
X3418969Y175675D01*
X3419097Y175768D01*
X3419223Y175864D01*
X3419346Y175963D01*
X3419467Y176065D01*
X3419586Y176169D01*
X3419701Y176277D01*
X3419815Y176387D01*
X3419925Y176501D01*
X3420033Y176616D01*
X3420137Y176735D01*
X3420239Y176856D01*
X3420338Y176979D01*
X3420434Y177105D01*
X3420527Y177233D01*
X3420616Y177364D01*
X3420702Y177496D01*
X3420785Y177631D01*
X3420865Y177768D01*
X3420941Y177906D01*
X3421014Y178047D01*
X3421083Y178189D01*
X3421149Y178333D01*
X3421211Y178478D01*
X3421270Y178625D01*
X3421325Y178773D01*
X3421377Y178923D01*
X3421425Y179073D01*
X3421469Y179225D01*
X3421509Y179378D01*
X3421545Y179532D01*
X3421578Y179687D01*
X3421607Y179842D01*
X3421632Y179998D01*
X3421654Y180155D01*
X3421671Y180312D01*
X3421685Y180470D01*
X3421694Y180628D01*
X3421700Y180786D01*
X3421702Y180944D01*
X3421702Y197055D01*
X3421700Y197213D01*
X3421694Y197371D01*
X3421685Y197529D01*
X3421671Y197687D01*
X3421654Y197844D01*
X3421632Y198001D01*
X3421607Y198157D01*
X3421578Y198312D01*
X3421545Y198467D01*
X3421509Y198621D01*
X3421469Y198774D01*
X3421425Y198926D01*
X3421377Y199076D01*
X3421325Y199226D01*
X3421270Y199374D01*
X3421211Y199521D01*
X3421149Y199666D01*
X3421083Y199810D01*
X3421014Y199952D01*
X3420941Y200093D01*
X3420865Y200231D01*
X3420785Y200368D01*
X3420702Y200503D01*
X3420616Y200635D01*
X3420527Y200766D01*
X3420434Y200894D01*
X3420338Y201020D01*
X3420239Y201143D01*
X3420137Y201264D01*
X3420033Y201383D01*
X3419925Y201498D01*
X3419815Y201612D01*
X3419701Y201722D01*
X3419586Y201830D01*
X3419467Y201934D01*
X3419346Y202036D01*
X3419223Y202135D01*
X3419097Y202231D01*
X3418969Y202324D01*
X3418838Y202413D01*
X3418706Y202499D01*
X3418571Y202582D01*
X3418434Y202662D01*
X3418296Y202738D01*
X3418155Y202811D01*
X3418013Y202880D01*
X3417869Y202946D01*
X3417724Y203008D01*
X3417577Y203067D01*
X3417429Y203122D01*
X3417279Y203174D01*
X3417129Y203222D01*
X3416977Y203266D01*
X3416824Y203306D01*
X3416670Y203342D01*
X3416515Y203375D01*
X3416360Y203404D01*
X3416204Y203429D01*
X3416047Y203451D01*
X3415890Y203468D01*
X3415732Y203482D01*
X3415574Y203491D01*
X3415416Y203497D01*
X3415258Y203499D01*
X3415258Y203500D02*
X3408813Y203500D01*
X3397611Y174500D02*
X3389556Y174500D01*
X3389360Y174502D01*
X3389164Y174510D01*
X3388968Y174521D01*
X3388773Y174538D01*
X3388578Y174560D01*
X3388383Y174586D01*
X3388189Y174617D01*
X3387997Y174652D01*
X3387805Y174693D01*
X3387614Y174738D01*
X3387424Y174787D01*
X3387235Y174842D01*
X3387048Y174900D01*
X3386863Y174964D01*
X3386679Y175032D01*
X3386496Y175104D01*
X3386316Y175181D01*
X3386137Y175262D01*
X3385960Y175347D01*
X3385786Y175437D01*
X3385614Y175531D01*
X3385444Y175629D01*
X3385276Y175731D01*
X3385112Y175837D01*
X3384949Y175947D01*
X3384790Y176062D01*
X3384633Y176179D01*
X3384479Y176301D01*
X3384328Y176427D01*
X3384181Y176556D01*
X3384036Y176689D01*
X3383895Y176825D01*
X3383757Y176964D01*
X3383623Y177107D01*
X3383492Y177253D01*
X3383365Y177402D01*
X3383241Y177555D01*
X3383121Y177710D01*
X3383005Y177868D01*
X3382893Y178029D01*
X3382785Y178193D01*
X3382680Y178359D01*
X3382580Y178527D01*
X3382484Y178699D01*
X3382392Y178872D01*
X3382305Y179047D01*
X3382222Y179225D01*
X3382143Y179405D01*
X3382068Y179586D01*
X3381998Y179769D01*
X3381932Y179954D01*
X3381871Y180141D01*
X3381815Y180328D01*
X3381763Y180518D01*
X3381716Y180708D01*
X3381673Y180899D01*
X3381635Y181092D01*
X3381602Y181285D01*
X3381573Y181479D01*
X3381549Y181674D01*
X3381530Y181869D01*
X3381516Y182065D01*
X3381506Y182261D01*
X3381502Y182457D01*
X3381502Y182653D01*
X3381506Y182849D01*
X3381516Y183045D01*
X3381530Y183241D01*
X3381549Y183436D01*
X3381573Y183631D01*
X3381602Y183825D01*
X3381635Y184018D01*
X3381673Y184211D01*
X3381716Y184402D01*
X3381763Y184592D01*
X3381815Y184782D01*
X3381871Y184969D01*
X3381932Y185156D01*
X3381998Y185341D01*
X3382068Y185524D01*
X3382143Y185705D01*
X3382222Y185885D01*
X3382305Y186063D01*
X3382392Y186238D01*
X3382484Y186411D01*
X3382580Y186583D01*
X3382680Y186751D01*
X3382785Y186917D01*
X3382893Y187081D01*
X3383005Y187242D01*
X3383121Y187400D01*
X3383241Y187555D01*
X3383365Y187708D01*
X3383492Y187857D01*
X3383623Y188003D01*
X3383757Y188146D01*
X3383895Y188285D01*
X3384036Y188421D01*
X3384181Y188554D01*
X3384328Y188683D01*
X3384479Y188809D01*
X3384633Y188931D01*
X3384790Y189048D01*
X3384949Y189163D01*
X3385112Y189273D01*
X3385276Y189379D01*
X3385444Y189481D01*
X3385614Y189579D01*
X3385786Y189673D01*
X3385960Y189763D01*
X3386137Y189848D01*
X3386316Y189929D01*
X3386496Y190006D01*
X3386679Y190078D01*
X3386863Y190146D01*
X3387048Y190210D01*
X3387235Y190268D01*
X3387424Y190323D01*
X3387614Y190372D01*
X3387805Y190417D01*
X3387997Y190458D01*
X3388189Y190493D01*
X3388383Y190524D01*
X3388578Y190550D01*
X3388773Y190572D01*
X3388968Y190589D01*
X3389164Y190600D01*
X3389360Y190608D01*
X3389556Y190610D01*
X3387945Y203500D02*
X3397611Y203500D01*
X3387945Y203500D02*
X3387786Y203498D01*
X3387626Y203492D01*
X3387467Y203482D01*
X3387308Y203468D01*
X3387150Y203451D01*
X3386992Y203429D01*
X3386835Y203404D01*
X3386678Y203374D01*
X3386522Y203341D01*
X3386367Y203304D01*
X3386213Y203263D01*
X3386060Y203218D01*
X3385908Y203170D01*
X3385757Y203117D01*
X3385608Y203061D01*
X3385460Y203002D01*
X3385314Y202938D01*
X3385169Y202872D01*
X3385026Y202801D01*
X3384885Y202727D01*
X3384746Y202650D01*
X3384608Y202569D01*
X3384473Y202485D01*
X3384340Y202397D01*
X3384209Y202306D01*
X3384080Y202212D01*
X3383953Y202115D01*
X3383829Y202015D01*
X3383708Y201912D01*
X3383589Y201805D01*
X3383473Y201696D01*
X3383360Y201584D01*
X3383249Y201469D01*
X3383141Y201352D01*
X3383036Y201232D01*
X3382935Y201109D01*
X3382836Y200984D01*
X3382740Y200856D01*
X3382648Y200726D01*
X3382559Y200594D01*
X3382473Y200460D01*
X3382390Y200323D01*
X3382311Y200185D01*
X3382235Y200045D01*
X3382163Y199903D01*
X3382095Y199759D01*
X3382029Y199613D01*
X3381968Y199466D01*
X3381910Y199317D01*
X3381856Y199168D01*
X3381806Y199016D01*
X3381759Y198864D01*
X3381716Y198710D01*
X3381677Y198556D01*
X3381642Y198400D01*
X3381611Y198244D01*
X3381583Y198087D01*
X3381560Y197929D01*
X3381540Y197771D01*
X3381524Y197612D01*
X3381512Y197453D01*
X3381504Y197294D01*
X3381500Y197135D01*
X3381500Y196975D01*
X3381504Y196816D01*
X3381512Y196657D01*
X3381524Y196498D01*
X3381540Y196339D01*
X3381560Y196181D01*
X3381583Y196023D01*
X3381611Y195866D01*
X3381642Y195710D01*
X3381677Y195554D01*
X3381716Y195400D01*
X3381759Y195246D01*
X3381806Y195094D01*
X3381856Y194942D01*
X3381910Y194793D01*
X3381968Y194644D01*
X3382029Y194497D01*
X3382095Y194351D01*
X3382163Y194207D01*
X3382235Y194065D01*
X3382311Y193925D01*
X3382390Y193787D01*
X3382473Y193650D01*
X3382559Y193516D01*
X3382648Y193384D01*
X3382740Y193254D01*
X3382836Y193126D01*
X3382935Y193001D01*
X3383036Y192878D01*
X3383141Y192758D01*
X3383249Y192641D01*
X3383360Y192526D01*
X3383473Y192414D01*
X3383589Y192305D01*
X3383708Y192198D01*
X3383829Y192095D01*
X3383953Y191995D01*
X3384080Y191898D01*
X3384209Y191804D01*
X3384340Y191713D01*
X3384473Y191625D01*
X3384608Y191541D01*
X3384746Y191460D01*
X3384885Y191383D01*
X3385026Y191309D01*
X3385169Y191238D01*
X3385314Y191172D01*
X3385460Y191108D01*
X3385608Y191049D01*
X3385757Y190993D01*
X3385908Y190940D01*
X3386060Y190892D01*
X3386213Y190847D01*
X3386367Y190806D01*
X3386522Y190769D01*
X3386678Y190736D01*
X3386835Y190706D01*
X3386992Y190681D01*
X3387150Y190659D01*
X3387308Y190642D01*
X3387467Y190628D01*
X3387626Y190618D01*
X3387786Y190612D01*
X3387945Y190610D01*
X3387945Y190611D02*
X3394389Y190611D01*
M02*
