G04 EAGLE Gerber X2 export*
%TF.Part,Single*%
%TF.FileFunction,Profile,NP*%
%TF.FilePolarity,Positive*%
%TF.GenerationSoftware,Autodesk,EAGLE,9.0.1*%
%TF.CreationDate,2019-03-04T21:36:33Z*%
G75*
%MOIN*%
%FSLAX36Y36*%
%LPD*%
%AMOC8*
5,1,8,0,0,1.08239X$1,22.5*%
G01*
%ADD10C,0.010000*%


D10*
X0Y0D02*
X1999213Y0D01*
X2000000Y500000D01*
X2050000Y500000D01*
X2050000Y0D01*
X4050000Y0D01*
X4050000Y2425000D01*
X2050000Y2425000D01*
X2050000Y1950000D01*
X2000000Y1950000D01*
X2000000Y2425000D01*
X0Y2425000D01*
X0Y0D01*
X2000000Y750000D02*
X2050000Y750000D01*
X2050000Y1700000D01*
X2000000Y1700000D01*
X2000000Y750000D01*
X928740Y172621D02*
X928453Y167871D01*
X927879Y163147D01*
X927022Y158466D01*
X925883Y153846D01*
X924467Y149303D01*
X922780Y144854D01*
X920827Y140514D01*
X918615Y136301D01*
X916153Y132229D01*
X913450Y128312D01*
X910516Y124567D01*
X907360Y121005D01*
X903995Y117640D01*
X900433Y114484D01*
X896688Y111550D01*
X892771Y108847D01*
X888699Y106385D01*
X884486Y104173D01*
X880146Y102220D01*
X875697Y100533D01*
X871154Y99117D01*
X866534Y97978D01*
X861853Y97121D01*
X857129Y96547D01*
X852379Y96260D01*
X847621Y96260D01*
X842871Y96547D01*
X838147Y97121D01*
X833466Y97978D01*
X828846Y99117D01*
X824303Y100533D01*
X819854Y102220D01*
X815514Y104173D01*
X811301Y106385D01*
X807229Y108847D01*
X803312Y111550D01*
X799567Y114484D01*
X796005Y117640D01*
X792640Y121005D01*
X789484Y124567D01*
X786550Y128312D01*
X783847Y132229D01*
X781385Y136301D01*
X779173Y140514D01*
X777220Y144854D01*
X775533Y149303D01*
X774117Y153846D01*
X772978Y158466D01*
X772121Y163147D01*
X771547Y167871D01*
X771260Y172621D01*
X771260Y177379D01*
X771547Y182129D01*
X772121Y186853D01*
X772978Y191534D01*
X774117Y196154D01*
X775533Y200697D01*
X777220Y205146D01*
X779173Y209486D01*
X781385Y213699D01*
X783847Y217771D01*
X786550Y221688D01*
X789484Y225433D01*
X792640Y228995D01*
X796005Y232360D01*
X799567Y235516D01*
X803312Y238450D01*
X807229Y241153D01*
X811301Y243615D01*
X815514Y245827D01*
X819854Y247780D01*
X824303Y249467D01*
X828846Y250883D01*
X833466Y252022D01*
X838147Y252879D01*
X842871Y253453D01*
X847621Y253740D01*
X852379Y253740D01*
X857129Y253453D01*
X861853Y252879D01*
X866534Y252022D01*
X871154Y250883D01*
X875697Y249467D01*
X880146Y247780D01*
X884486Y245827D01*
X888699Y243615D01*
X892771Y241153D01*
X896688Y238450D01*
X900433Y235516D01*
X903995Y232360D01*
X907360Y228995D01*
X910516Y225433D01*
X913450Y221688D01*
X916153Y217771D01*
X918615Y213699D01*
X920827Y209486D01*
X922780Y205146D01*
X924467Y200697D01*
X925883Y196154D01*
X927022Y191534D01*
X927879Y186853D01*
X928453Y182129D01*
X928740Y177379D01*
X928740Y172621D01*
X553740Y172621D02*
X553453Y167871D01*
X552879Y163147D01*
X552022Y158466D01*
X550883Y153846D01*
X549467Y149303D01*
X547780Y144854D01*
X545827Y140514D01*
X543615Y136301D01*
X541153Y132229D01*
X538450Y128312D01*
X535516Y124567D01*
X532360Y121005D01*
X528995Y117640D01*
X525433Y114484D01*
X521688Y111550D01*
X517771Y108847D01*
X513699Y106385D01*
X509486Y104173D01*
X505146Y102220D01*
X500697Y100533D01*
X496154Y99117D01*
X491534Y97978D01*
X486853Y97121D01*
X482129Y96547D01*
X477379Y96260D01*
X472621Y96260D01*
X467871Y96547D01*
X463147Y97121D01*
X458466Y97978D01*
X453846Y99117D01*
X449303Y100533D01*
X444854Y102220D01*
X440514Y104173D01*
X436301Y106385D01*
X432229Y108847D01*
X428312Y111550D01*
X424567Y114484D01*
X421005Y117640D01*
X417640Y121005D01*
X414484Y124567D01*
X411550Y128312D01*
X408847Y132229D01*
X406385Y136301D01*
X404173Y140514D01*
X402220Y144854D01*
X400533Y149303D01*
X399117Y153846D01*
X397978Y158466D01*
X397121Y163147D01*
X396547Y167871D01*
X396260Y172621D01*
X396260Y177379D01*
X396547Y182129D01*
X397121Y186853D01*
X397978Y191534D01*
X399117Y196154D01*
X400533Y200697D01*
X402220Y205146D01*
X404173Y209486D01*
X406385Y213699D01*
X408847Y217771D01*
X411550Y221688D01*
X414484Y225433D01*
X417640Y228995D01*
X421005Y232360D01*
X424567Y235516D01*
X428312Y238450D01*
X432229Y241153D01*
X436301Y243615D01*
X440514Y245827D01*
X444854Y247780D01*
X449303Y249467D01*
X453846Y250883D01*
X458466Y252022D01*
X463147Y252879D01*
X467871Y253453D01*
X472621Y253740D01*
X477379Y253740D01*
X482129Y253453D01*
X486853Y252879D01*
X491534Y252022D01*
X496154Y250883D01*
X500697Y249467D01*
X505146Y247780D01*
X509486Y245827D01*
X513699Y243615D01*
X517771Y241153D01*
X521688Y238450D01*
X525433Y235516D01*
X528995Y232360D01*
X532360Y228995D01*
X535516Y225433D01*
X538450Y221688D01*
X541153Y217771D01*
X543615Y213699D01*
X545827Y209486D01*
X547780Y205146D01*
X549467Y200697D01*
X550883Y196154D01*
X552022Y191534D01*
X552879Y186853D01*
X553453Y182129D01*
X553740Y177379D01*
X553740Y172621D01*
X2045000Y1913877D02*
X2044749Y1911645D01*
X2044249Y1909455D01*
X2043507Y1907334D01*
X2042532Y1905310D01*
X2041337Y1903408D01*
X2039936Y1901652D01*
X2038348Y1900064D01*
X2036592Y1898663D01*
X2034690Y1897468D01*
X2032666Y1896493D01*
X2030545Y1895751D01*
X2028355Y1895251D01*
X2026123Y1895000D01*
X2023877Y1895000D01*
X2021645Y1895251D01*
X2019455Y1895751D01*
X2017334Y1896493D01*
X2015310Y1897468D01*
X2013408Y1898663D01*
X2011652Y1900064D01*
X2010064Y1901652D01*
X2008663Y1903408D01*
X2007468Y1905310D01*
X2006493Y1907334D01*
X2005751Y1909455D01*
X2005251Y1911645D01*
X2005000Y1913877D01*
X2005000Y1916123D01*
X2005251Y1918355D01*
X2005751Y1920545D01*
X2006493Y1922666D01*
X2007468Y1924690D01*
X2008663Y1926592D01*
X2010064Y1928348D01*
X2011652Y1929936D01*
X2013408Y1931337D01*
X2015310Y1932532D01*
X2017334Y1933507D01*
X2019455Y1934249D01*
X2021645Y1934749D01*
X2023877Y1935000D01*
X2026123Y1935000D01*
X2028355Y1934749D01*
X2030545Y1934249D01*
X2032666Y1933507D01*
X2034690Y1932532D01*
X2036592Y1931337D01*
X2038348Y1929936D01*
X2039936Y1928348D01*
X2041337Y1926592D01*
X2042532Y1924690D01*
X2043507Y1922666D01*
X2044249Y1920545D01*
X2044749Y1918355D01*
X2045000Y1916123D01*
X2045000Y1913877D01*
X2045000Y1733877D02*
X2044749Y1731645D01*
X2044249Y1729455D01*
X2043507Y1727334D01*
X2042532Y1725310D01*
X2041337Y1723408D01*
X2039936Y1721652D01*
X2038348Y1720064D01*
X2036592Y1718663D01*
X2034690Y1717468D01*
X2032666Y1716493D01*
X2030545Y1715751D01*
X2028355Y1715251D01*
X2026123Y1715000D01*
X2023877Y1715000D01*
X2021645Y1715251D01*
X2019455Y1715751D01*
X2017334Y1716493D01*
X2015310Y1717468D01*
X2013408Y1718663D01*
X2011652Y1720064D01*
X2010064Y1721652D01*
X2008663Y1723408D01*
X2007468Y1725310D01*
X2006493Y1727334D01*
X2005751Y1729455D01*
X2005251Y1731645D01*
X2005000Y1733877D01*
X2005000Y1736123D01*
X2005251Y1738355D01*
X2005751Y1740545D01*
X2006493Y1742666D01*
X2007468Y1744690D01*
X2008663Y1746592D01*
X2010064Y1748348D01*
X2011652Y1749936D01*
X2013408Y1751337D01*
X2015310Y1752532D01*
X2017334Y1753507D01*
X2019455Y1754249D01*
X2021645Y1754749D01*
X2023877Y1755000D01*
X2026123Y1755000D01*
X2028355Y1754749D01*
X2030545Y1754249D01*
X2032666Y1753507D01*
X2034690Y1752532D01*
X2036592Y1751337D01*
X2038348Y1749936D01*
X2039936Y1748348D01*
X2041337Y1746592D01*
X2042532Y1744690D01*
X2043507Y1742666D01*
X2044249Y1740545D01*
X2044749Y1738355D01*
X2045000Y1736123D01*
X2045000Y1733877D01*
X2045000Y1793877D02*
X2044749Y1791645D01*
X2044249Y1789455D01*
X2043507Y1787334D01*
X2042532Y1785310D01*
X2041337Y1783408D01*
X2039936Y1781652D01*
X2038348Y1780064D01*
X2036592Y1778663D01*
X2034690Y1777468D01*
X2032666Y1776493D01*
X2030545Y1775751D01*
X2028355Y1775251D01*
X2026123Y1775000D01*
X2023877Y1775000D01*
X2021645Y1775251D01*
X2019455Y1775751D01*
X2017334Y1776493D01*
X2015310Y1777468D01*
X2013408Y1778663D01*
X2011652Y1780064D01*
X2010064Y1781652D01*
X2008663Y1783408D01*
X2007468Y1785310D01*
X2006493Y1787334D01*
X2005751Y1789455D01*
X2005251Y1791645D01*
X2005000Y1793877D01*
X2005000Y1796123D01*
X2005251Y1798355D01*
X2005751Y1800545D01*
X2006493Y1802666D01*
X2007468Y1804690D01*
X2008663Y1806592D01*
X2010064Y1808348D01*
X2011652Y1809936D01*
X2013408Y1811337D01*
X2015310Y1812532D01*
X2017334Y1813507D01*
X2019455Y1814249D01*
X2021645Y1814749D01*
X2023877Y1815000D01*
X2026123Y1815000D01*
X2028355Y1814749D01*
X2030545Y1814249D01*
X2032666Y1813507D01*
X2034690Y1812532D01*
X2036592Y1811337D01*
X2038348Y1809936D01*
X2039936Y1808348D01*
X2041337Y1806592D01*
X2042532Y1804690D01*
X2043507Y1802666D01*
X2044249Y1800545D01*
X2044749Y1798355D01*
X2045000Y1796123D01*
X2045000Y1793877D01*
X2045000Y713877D02*
X2044749Y711645D01*
X2044249Y709455D01*
X2043507Y707334D01*
X2042532Y705310D01*
X2041337Y703408D01*
X2039936Y701652D01*
X2038348Y700064D01*
X2036592Y698663D01*
X2034690Y697468D01*
X2032666Y696493D01*
X2030545Y695751D01*
X2028355Y695251D01*
X2026123Y695000D01*
X2023877Y695000D01*
X2021645Y695251D01*
X2019455Y695751D01*
X2017334Y696493D01*
X2015310Y697468D01*
X2013408Y698663D01*
X2011652Y700064D01*
X2010064Y701652D01*
X2008663Y703408D01*
X2007468Y705310D01*
X2006493Y707334D01*
X2005751Y709455D01*
X2005251Y711645D01*
X2005000Y713877D01*
X2005000Y716123D01*
X2005251Y718355D01*
X2005751Y720545D01*
X2006493Y722666D01*
X2007468Y724690D01*
X2008663Y726592D01*
X2010064Y728348D01*
X2011652Y729936D01*
X2013408Y731337D01*
X2015310Y732532D01*
X2017334Y733507D01*
X2019455Y734249D01*
X2021645Y734749D01*
X2023877Y735000D01*
X2026123Y735000D01*
X2028355Y734749D01*
X2030545Y734249D01*
X2032666Y733507D01*
X2034690Y732532D01*
X2036592Y731337D01*
X2038348Y729936D01*
X2039936Y728348D01*
X2041337Y726592D01*
X2042532Y724690D01*
X2043507Y722666D01*
X2044249Y720545D01*
X2044749Y718355D01*
X2045000Y716123D01*
X2045000Y713877D01*
X2045000Y533877D02*
X2044749Y531645D01*
X2044249Y529455D01*
X2043507Y527334D01*
X2042532Y525310D01*
X2041337Y523408D01*
X2039936Y521652D01*
X2038348Y520064D01*
X2036592Y518663D01*
X2034690Y517468D01*
X2032666Y516493D01*
X2030545Y515751D01*
X2028355Y515251D01*
X2026123Y515000D01*
X2023877Y515000D01*
X2021645Y515251D01*
X2019455Y515751D01*
X2017334Y516493D01*
X2015310Y517468D01*
X2013408Y518663D01*
X2011652Y520064D01*
X2010064Y521652D01*
X2008663Y523408D01*
X2007468Y525310D01*
X2006493Y527334D01*
X2005751Y529455D01*
X2005251Y531645D01*
X2005000Y533877D01*
X2005000Y536123D01*
X2005251Y538355D01*
X2005751Y540545D01*
X2006493Y542666D01*
X2007468Y544690D01*
X2008663Y546592D01*
X2010064Y548348D01*
X2011652Y549936D01*
X2013408Y551337D01*
X2015310Y552532D01*
X2017334Y553507D01*
X2019455Y554249D01*
X2021645Y554749D01*
X2023877Y555000D01*
X2026123Y555000D01*
X2028355Y554749D01*
X2030545Y554249D01*
X2032666Y553507D01*
X2034690Y552532D01*
X2036592Y551337D01*
X2038348Y549936D01*
X2039936Y548348D01*
X2041337Y546592D01*
X2042532Y544690D01*
X2043507Y542666D01*
X2044249Y540545D01*
X2044749Y538355D01*
X2045000Y536123D01*
X2045000Y533877D01*
X2045000Y593877D02*
X2044749Y591645D01*
X2044249Y589455D01*
X2043507Y587334D01*
X2042532Y585310D01*
X2041337Y583408D01*
X2039936Y581652D01*
X2038348Y580064D01*
X2036592Y578663D01*
X2034690Y577468D01*
X2032666Y576493D01*
X2030545Y575751D01*
X2028355Y575251D01*
X2026123Y575000D01*
X2023877Y575000D01*
X2021645Y575251D01*
X2019455Y575751D01*
X2017334Y576493D01*
X2015310Y577468D01*
X2013408Y578663D01*
X2011652Y580064D01*
X2010064Y581652D01*
X2008663Y583408D01*
X2007468Y585310D01*
X2006493Y587334D01*
X2005751Y589455D01*
X2005251Y591645D01*
X2005000Y593877D01*
X2005000Y596123D01*
X2005251Y598355D01*
X2005751Y600545D01*
X2006493Y602666D01*
X2007468Y604690D01*
X2008663Y606592D01*
X2010064Y608348D01*
X2011652Y609936D01*
X2013408Y611337D01*
X2015310Y612532D01*
X2017334Y613507D01*
X2019455Y614249D01*
X2021645Y614749D01*
X2023877Y615000D01*
X2026123Y615000D01*
X2028355Y614749D01*
X2030545Y614249D01*
X2032666Y613507D01*
X2034690Y612532D01*
X2036592Y611337D01*
X2038348Y609936D01*
X2039936Y608348D01*
X2041337Y606592D01*
X2042532Y604690D01*
X2043507Y602666D01*
X2044249Y600545D01*
X2044749Y598355D01*
X2045000Y596123D01*
X2045000Y593877D01*
X2045000Y1853877D02*
X2044749Y1851645D01*
X2044249Y1849455D01*
X2043507Y1847334D01*
X2042532Y1845310D01*
X2041337Y1843408D01*
X2039936Y1841652D01*
X2038348Y1840064D01*
X2036592Y1838663D01*
X2034690Y1837468D01*
X2032666Y1836493D01*
X2030545Y1835751D01*
X2028355Y1835251D01*
X2026123Y1835000D01*
X2023877Y1835000D01*
X2021645Y1835251D01*
X2019455Y1835751D01*
X2017334Y1836493D01*
X2015310Y1837468D01*
X2013408Y1838663D01*
X2011652Y1840064D01*
X2010064Y1841652D01*
X2008663Y1843408D01*
X2007468Y1845310D01*
X2006493Y1847334D01*
X2005751Y1849455D01*
X2005251Y1851645D01*
X2005000Y1853877D01*
X2005000Y1856123D01*
X2005251Y1858355D01*
X2005751Y1860545D01*
X2006493Y1862666D01*
X2007468Y1864690D01*
X2008663Y1866592D01*
X2010064Y1868348D01*
X2011652Y1869936D01*
X2013408Y1871337D01*
X2015310Y1872532D01*
X2017334Y1873507D01*
X2019455Y1874249D01*
X2021645Y1874749D01*
X2023877Y1875000D01*
X2026123Y1875000D01*
X2028355Y1874749D01*
X2030545Y1874249D01*
X2032666Y1873507D01*
X2034690Y1872532D01*
X2036592Y1871337D01*
X2038348Y1869936D01*
X2039936Y1868348D01*
X2041337Y1866592D01*
X2042532Y1864690D01*
X2043507Y1862666D01*
X2044249Y1860545D01*
X2044749Y1858355D01*
X2045000Y1856123D01*
X2045000Y1853877D01*
X2045000Y653877D02*
X2044749Y651645D01*
X2044249Y649455D01*
X2043507Y647334D01*
X2042532Y645310D01*
X2041337Y643408D01*
X2039936Y641652D01*
X2038348Y640064D01*
X2036592Y638663D01*
X2034690Y637468D01*
X2032666Y636493D01*
X2030545Y635751D01*
X2028355Y635251D01*
X2026123Y635000D01*
X2023877Y635000D01*
X2021645Y635251D01*
X2019455Y635751D01*
X2017334Y636493D01*
X2015310Y637468D01*
X2013408Y638663D01*
X2011652Y640064D01*
X2010064Y641652D01*
X2008663Y643408D01*
X2007468Y645310D01*
X2006493Y647334D01*
X2005751Y649455D01*
X2005251Y651645D01*
X2005000Y653877D01*
X2005000Y656123D01*
X2005251Y658355D01*
X2005751Y660545D01*
X2006493Y662666D01*
X2007468Y664690D01*
X2008663Y666592D01*
X2010064Y668348D01*
X2011652Y669936D01*
X2013408Y671337D01*
X2015310Y672532D01*
X2017334Y673507D01*
X2019455Y674249D01*
X2021645Y674749D01*
X2023877Y675000D01*
X2026123Y675000D01*
X2028355Y674749D01*
X2030545Y674249D01*
X2032666Y673507D01*
X2034690Y672532D01*
X2036592Y671337D01*
X2038348Y669936D01*
X2039936Y668348D01*
X2041337Y666592D01*
X2042532Y664690D01*
X2043507Y662666D01*
X2044249Y660545D01*
X2044749Y658355D01*
X2045000Y656123D01*
X2045000Y653877D01*
X928740Y172621D02*
X928453Y167871D01*
X927879Y163147D01*
X927022Y158466D01*
X925883Y153846D01*
X924467Y149303D01*
X922780Y144854D01*
X920827Y140514D01*
X918615Y136301D01*
X916153Y132229D01*
X913450Y128312D01*
X910516Y124567D01*
X907360Y121005D01*
X903995Y117640D01*
X900433Y114484D01*
X896688Y111550D01*
X892771Y108847D01*
X888699Y106385D01*
X884486Y104173D01*
X880146Y102220D01*
X875697Y100533D01*
X871154Y99117D01*
X866534Y97978D01*
X861853Y97121D01*
X857129Y96547D01*
X852379Y96260D01*
X847621Y96260D01*
X842871Y96547D01*
X838147Y97121D01*
X833466Y97978D01*
X828846Y99117D01*
X824303Y100533D01*
X819854Y102220D01*
X815514Y104173D01*
X811301Y106385D01*
X807229Y108847D01*
X803312Y111550D01*
X799567Y114484D01*
X796005Y117640D01*
X792640Y121005D01*
X789484Y124567D01*
X786550Y128312D01*
X783847Y132229D01*
X781385Y136301D01*
X779173Y140514D01*
X777220Y144854D01*
X775533Y149303D01*
X774117Y153846D01*
X772978Y158466D01*
X772121Y163147D01*
X771547Y167871D01*
X771260Y172621D01*
X771260Y177379D01*
X771547Y182129D01*
X772121Y186853D01*
X772978Y191534D01*
X774117Y196154D01*
X775533Y200697D01*
X777220Y205146D01*
X779173Y209486D01*
X781385Y213699D01*
X783847Y217771D01*
X786550Y221688D01*
X789484Y225433D01*
X792640Y228995D01*
X796005Y232360D01*
X799567Y235516D01*
X803312Y238450D01*
X807229Y241153D01*
X811301Y243615D01*
X815514Y245827D01*
X819854Y247780D01*
X824303Y249467D01*
X828846Y250883D01*
X833466Y252022D01*
X838147Y252879D01*
X842871Y253453D01*
X847621Y253740D01*
X852379Y253740D01*
X857129Y253453D01*
X861853Y252879D01*
X866534Y252022D01*
X871154Y250883D01*
X875697Y249467D01*
X880146Y247780D01*
X884486Y245827D01*
X888699Y243615D01*
X892771Y241153D01*
X896688Y238450D01*
X900433Y235516D01*
X903995Y232360D01*
X907360Y228995D01*
X910516Y225433D01*
X913450Y221688D01*
X916153Y217771D01*
X918615Y213699D01*
X920827Y209486D01*
X922780Y205146D01*
X924467Y200697D01*
X925883Y196154D01*
X927022Y191534D01*
X927879Y186853D01*
X928453Y182129D01*
X928740Y177379D01*
X928740Y172621D01*
X553740Y172621D02*
X553453Y167871D01*
X552879Y163147D01*
X552022Y158466D01*
X550883Y153846D01*
X549467Y149303D01*
X547780Y144854D01*
X545827Y140514D01*
X543615Y136301D01*
X541153Y132229D01*
X538450Y128312D01*
X535516Y124567D01*
X532360Y121005D01*
X528995Y117640D01*
X525433Y114484D01*
X521688Y111550D01*
X517771Y108847D01*
X513699Y106385D01*
X509486Y104173D01*
X505146Y102220D01*
X500697Y100533D01*
X496154Y99117D01*
X491534Y97978D01*
X486853Y97121D01*
X482129Y96547D01*
X477379Y96260D01*
X472621Y96260D01*
X467871Y96547D01*
X463147Y97121D01*
X458466Y97978D01*
X453846Y99117D01*
X449303Y100533D01*
X444854Y102220D01*
X440514Y104173D01*
X436301Y106385D01*
X432229Y108847D01*
X428312Y111550D01*
X424567Y114484D01*
X421005Y117640D01*
X417640Y121005D01*
X414484Y124567D01*
X411550Y128312D01*
X408847Y132229D01*
X406385Y136301D01*
X404173Y140514D01*
X402220Y144854D01*
X400533Y149303D01*
X399117Y153846D01*
X397978Y158466D01*
X397121Y163147D01*
X396547Y167871D01*
X396260Y172621D01*
X396260Y177379D01*
X396547Y182129D01*
X397121Y186853D01*
X397978Y191534D01*
X399117Y196154D01*
X400533Y200697D01*
X402220Y205146D01*
X404173Y209486D01*
X406385Y213699D01*
X408847Y217771D01*
X411550Y221688D01*
X414484Y225433D01*
X417640Y228995D01*
X421005Y232360D01*
X424567Y235516D01*
X428312Y238450D01*
X432229Y241153D01*
X436301Y243615D01*
X440514Y245827D01*
X444854Y247780D01*
X449303Y249467D01*
X453846Y250883D01*
X458466Y252022D01*
X463147Y252879D01*
X467871Y253453D01*
X472621Y253740D01*
X477379Y253740D01*
X482129Y253453D01*
X486853Y252879D01*
X491534Y252022D01*
X496154Y250883D01*
X500697Y249467D01*
X505146Y247780D01*
X509486Y245827D01*
X513699Y243615D01*
X517771Y241153D01*
X521688Y238450D01*
X525433Y235516D01*
X528995Y232360D01*
X532360Y228995D01*
X535516Y225433D01*
X538450Y221688D01*
X541153Y217771D01*
X543615Y213699D01*
X545827Y209486D01*
X547780Y205146D01*
X549467Y200697D01*
X550883Y196154D01*
X552022Y191534D01*
X552879Y186853D01*
X553453Y182129D01*
X553740Y177379D01*
X553740Y172621D01*
X2045000Y1913877D02*
X2044749Y1911645D01*
X2044249Y1909455D01*
X2043507Y1907334D01*
X2042532Y1905310D01*
X2041337Y1903408D01*
X2039936Y1901652D01*
X2038348Y1900064D01*
X2036592Y1898663D01*
X2034690Y1897468D01*
X2032666Y1896493D01*
X2030545Y1895751D01*
X2028355Y1895251D01*
X2026123Y1895000D01*
X2023877Y1895000D01*
X2021645Y1895251D01*
X2019455Y1895751D01*
X2017334Y1896493D01*
X2015310Y1897468D01*
X2013408Y1898663D01*
X2011652Y1900064D01*
X2010064Y1901652D01*
X2008663Y1903408D01*
X2007468Y1905310D01*
X2006493Y1907334D01*
X2005751Y1909455D01*
X2005251Y1911645D01*
X2005000Y1913877D01*
X2005000Y1916123D01*
X2005251Y1918355D01*
X2005751Y1920545D01*
X2006493Y1922666D01*
X2007468Y1924690D01*
X2008663Y1926592D01*
X2010064Y1928348D01*
X2011652Y1929936D01*
X2013408Y1931337D01*
X2015310Y1932532D01*
X2017334Y1933507D01*
X2019455Y1934249D01*
X2021645Y1934749D01*
X2023877Y1935000D01*
X2026123Y1935000D01*
X2028355Y1934749D01*
X2030545Y1934249D01*
X2032666Y1933507D01*
X2034690Y1932532D01*
X2036592Y1931337D01*
X2038348Y1929936D01*
X2039936Y1928348D01*
X2041337Y1926592D01*
X2042532Y1924690D01*
X2043507Y1922666D01*
X2044249Y1920545D01*
X2044749Y1918355D01*
X2045000Y1916123D01*
X2045000Y1913877D01*
X2045000Y1733877D02*
X2044749Y1731645D01*
X2044249Y1729455D01*
X2043507Y1727334D01*
X2042532Y1725310D01*
X2041337Y1723408D01*
X2039936Y1721652D01*
X2038348Y1720064D01*
X2036592Y1718663D01*
X2034690Y1717468D01*
X2032666Y1716493D01*
X2030545Y1715751D01*
X2028355Y1715251D01*
X2026123Y1715000D01*
X2023877Y1715000D01*
X2021645Y1715251D01*
X2019455Y1715751D01*
X2017334Y1716493D01*
X2015310Y1717468D01*
X2013408Y1718663D01*
X2011652Y1720064D01*
X2010064Y1721652D01*
X2008663Y1723408D01*
X2007468Y1725310D01*
X2006493Y1727334D01*
X2005751Y1729455D01*
X2005251Y1731645D01*
X2005000Y1733877D01*
X2005000Y1736123D01*
X2005251Y1738355D01*
X2005751Y1740545D01*
X2006493Y1742666D01*
X2007468Y1744690D01*
X2008663Y1746592D01*
X2010064Y1748348D01*
X2011652Y1749936D01*
X2013408Y1751337D01*
X2015310Y1752532D01*
X2017334Y1753507D01*
X2019455Y1754249D01*
X2021645Y1754749D01*
X2023877Y1755000D01*
X2026123Y1755000D01*
X2028355Y1754749D01*
X2030545Y1754249D01*
X2032666Y1753507D01*
X2034690Y1752532D01*
X2036592Y1751337D01*
X2038348Y1749936D01*
X2039936Y1748348D01*
X2041337Y1746592D01*
X2042532Y1744690D01*
X2043507Y1742666D01*
X2044249Y1740545D01*
X2044749Y1738355D01*
X2045000Y1736123D01*
X2045000Y1733877D01*
X2045000Y1793877D02*
X2044749Y1791645D01*
X2044249Y1789455D01*
X2043507Y1787334D01*
X2042532Y1785310D01*
X2041337Y1783408D01*
X2039936Y1781652D01*
X2038348Y1780064D01*
X2036592Y1778663D01*
X2034690Y1777468D01*
X2032666Y1776493D01*
X2030545Y1775751D01*
X2028355Y1775251D01*
X2026123Y1775000D01*
X2023877Y1775000D01*
X2021645Y1775251D01*
X2019455Y1775751D01*
X2017334Y1776493D01*
X2015310Y1777468D01*
X2013408Y1778663D01*
X2011652Y1780064D01*
X2010064Y1781652D01*
X2008663Y1783408D01*
X2007468Y1785310D01*
X2006493Y1787334D01*
X2005751Y1789455D01*
X2005251Y1791645D01*
X2005000Y1793877D01*
X2005000Y1796123D01*
X2005251Y1798355D01*
X2005751Y1800545D01*
X2006493Y1802666D01*
X2007468Y1804690D01*
X2008663Y1806592D01*
X2010064Y1808348D01*
X2011652Y1809936D01*
X2013408Y1811337D01*
X2015310Y1812532D01*
X2017334Y1813507D01*
X2019455Y1814249D01*
X2021645Y1814749D01*
X2023877Y1815000D01*
X2026123Y1815000D01*
X2028355Y1814749D01*
X2030545Y1814249D01*
X2032666Y1813507D01*
X2034690Y1812532D01*
X2036592Y1811337D01*
X2038348Y1809936D01*
X2039936Y1808348D01*
X2041337Y1806592D01*
X2042532Y1804690D01*
X2043507Y1802666D01*
X2044249Y1800545D01*
X2044749Y1798355D01*
X2045000Y1796123D01*
X2045000Y1793877D01*
X2045000Y713877D02*
X2044749Y711645D01*
X2044249Y709455D01*
X2043507Y707334D01*
X2042532Y705310D01*
X2041337Y703408D01*
X2039936Y701652D01*
X2038348Y700064D01*
X2036592Y698663D01*
X2034690Y697468D01*
X2032666Y696493D01*
X2030545Y695751D01*
X2028355Y695251D01*
X2026123Y695000D01*
X2023877Y695000D01*
X2021645Y695251D01*
X2019455Y695751D01*
X2017334Y696493D01*
X2015310Y697468D01*
X2013408Y698663D01*
X2011652Y700064D01*
X2010064Y701652D01*
X2008663Y703408D01*
X2007468Y705310D01*
X2006493Y707334D01*
X2005751Y709455D01*
X2005251Y711645D01*
X2005000Y713877D01*
X2005000Y716123D01*
X2005251Y718355D01*
X2005751Y720545D01*
X2006493Y722666D01*
X2007468Y724690D01*
X2008663Y726592D01*
X2010064Y728348D01*
X2011652Y729936D01*
X2013408Y731337D01*
X2015310Y732532D01*
X2017334Y733507D01*
X2019455Y734249D01*
X2021645Y734749D01*
X2023877Y735000D01*
X2026123Y735000D01*
X2028355Y734749D01*
X2030545Y734249D01*
X2032666Y733507D01*
X2034690Y732532D01*
X2036592Y731337D01*
X2038348Y729936D01*
X2039936Y728348D01*
X2041337Y726592D01*
X2042532Y724690D01*
X2043507Y722666D01*
X2044249Y720545D01*
X2044749Y718355D01*
X2045000Y716123D01*
X2045000Y713877D01*
X2045000Y533877D02*
X2044749Y531645D01*
X2044249Y529455D01*
X2043507Y527334D01*
X2042532Y525310D01*
X2041337Y523408D01*
X2039936Y521652D01*
X2038348Y520064D01*
X2036592Y518663D01*
X2034690Y517468D01*
X2032666Y516493D01*
X2030545Y515751D01*
X2028355Y515251D01*
X2026123Y515000D01*
X2023877Y515000D01*
X2021645Y515251D01*
X2019455Y515751D01*
X2017334Y516493D01*
X2015310Y517468D01*
X2013408Y518663D01*
X2011652Y520064D01*
X2010064Y521652D01*
X2008663Y523408D01*
X2007468Y525310D01*
X2006493Y527334D01*
X2005751Y529455D01*
X2005251Y531645D01*
X2005000Y533877D01*
X2005000Y536123D01*
X2005251Y538355D01*
X2005751Y540545D01*
X2006493Y542666D01*
X2007468Y544690D01*
X2008663Y546592D01*
X2010064Y548348D01*
X2011652Y549936D01*
X2013408Y551337D01*
X2015310Y552532D01*
X2017334Y553507D01*
X2019455Y554249D01*
X2021645Y554749D01*
X2023877Y555000D01*
X2026123Y555000D01*
X2028355Y554749D01*
X2030545Y554249D01*
X2032666Y553507D01*
X2034690Y552532D01*
X2036592Y551337D01*
X2038348Y549936D01*
X2039936Y548348D01*
X2041337Y546592D01*
X2042532Y544690D01*
X2043507Y542666D01*
X2044249Y540545D01*
X2044749Y538355D01*
X2045000Y536123D01*
X2045000Y533877D01*
X2045000Y593877D02*
X2044749Y591645D01*
X2044249Y589455D01*
X2043507Y587334D01*
X2042532Y585310D01*
X2041337Y583408D01*
X2039936Y581652D01*
X2038348Y580064D01*
X2036592Y578663D01*
X2034690Y577468D01*
X2032666Y576493D01*
X2030545Y575751D01*
X2028355Y575251D01*
X2026123Y575000D01*
X2023877Y575000D01*
X2021645Y575251D01*
X2019455Y575751D01*
X2017334Y576493D01*
X2015310Y577468D01*
X2013408Y578663D01*
X2011652Y580064D01*
X2010064Y581652D01*
X2008663Y583408D01*
X2007468Y585310D01*
X2006493Y587334D01*
X2005751Y589455D01*
X2005251Y591645D01*
X2005000Y593877D01*
X2005000Y596123D01*
X2005251Y598355D01*
X2005751Y600545D01*
X2006493Y602666D01*
X2007468Y604690D01*
X2008663Y606592D01*
X2010064Y608348D01*
X2011652Y609936D01*
X2013408Y611337D01*
X2015310Y612532D01*
X2017334Y613507D01*
X2019455Y614249D01*
X2021645Y614749D01*
X2023877Y615000D01*
X2026123Y615000D01*
X2028355Y614749D01*
X2030545Y614249D01*
X2032666Y613507D01*
X2034690Y612532D01*
X2036592Y611337D01*
X2038348Y609936D01*
X2039936Y608348D01*
X2041337Y606592D01*
X2042532Y604690D01*
X2043507Y602666D01*
X2044249Y600545D01*
X2044749Y598355D01*
X2045000Y596123D01*
X2045000Y593877D01*
X2045000Y1853877D02*
X2044749Y1851645D01*
X2044249Y1849455D01*
X2043507Y1847334D01*
X2042532Y1845310D01*
X2041337Y1843408D01*
X2039936Y1841652D01*
X2038348Y1840064D01*
X2036592Y1838663D01*
X2034690Y1837468D01*
X2032666Y1836493D01*
X2030545Y1835751D01*
X2028355Y1835251D01*
X2026123Y1835000D01*
X2023877Y1835000D01*
X2021645Y1835251D01*
X2019455Y1835751D01*
X2017334Y1836493D01*
X2015310Y1837468D01*
X2013408Y1838663D01*
X2011652Y1840064D01*
X2010064Y1841652D01*
X2008663Y1843408D01*
X2007468Y1845310D01*
X2006493Y1847334D01*
X2005751Y1849455D01*
X2005251Y1851645D01*
X2005000Y1853877D01*
X2005000Y1856123D01*
X2005251Y1858355D01*
X2005751Y1860545D01*
X2006493Y1862666D01*
X2007468Y1864690D01*
X2008663Y1866592D01*
X2010064Y1868348D01*
X2011652Y1869936D01*
X2013408Y1871337D01*
X2015310Y1872532D01*
X2017334Y1873507D01*
X2019455Y1874249D01*
X2021645Y1874749D01*
X2023877Y1875000D01*
X2026123Y1875000D01*
X2028355Y1874749D01*
X2030545Y1874249D01*
X2032666Y1873507D01*
X2034690Y1872532D01*
X2036592Y1871337D01*
X2038348Y1869936D01*
X2039936Y1868348D01*
X2041337Y1866592D01*
X2042532Y1864690D01*
X2043507Y1862666D01*
X2044249Y1860545D01*
X2044749Y1858355D01*
X2045000Y1856123D01*
X2045000Y1853877D01*
X2045000Y653877D02*
X2044749Y651645D01*
X2044249Y649455D01*
X2043507Y647334D01*
X2042532Y645310D01*
X2041337Y643408D01*
X2039936Y641652D01*
X2038348Y640064D01*
X2036592Y638663D01*
X2034690Y637468D01*
X2032666Y636493D01*
X2030545Y635751D01*
X2028355Y635251D01*
X2026123Y635000D01*
X2023877Y635000D01*
X2021645Y635251D01*
X2019455Y635751D01*
X2017334Y636493D01*
X2015310Y637468D01*
X2013408Y638663D01*
X2011652Y640064D01*
X2010064Y641652D01*
X2008663Y643408D01*
X2007468Y645310D01*
X2006493Y647334D01*
X2005751Y649455D01*
X2005251Y651645D01*
X2005000Y653877D01*
X2005000Y656123D01*
X2005251Y658355D01*
X2005751Y660545D01*
X2006493Y662666D01*
X2007468Y664690D01*
X2008663Y666592D01*
X2010064Y668348D01*
X2011652Y669936D01*
X2013408Y671337D01*
X2015310Y672532D01*
X2017334Y673507D01*
X2019455Y674249D01*
X2021645Y674749D01*
X2023877Y675000D01*
X2026123Y675000D01*
X2028355Y674749D01*
X2030545Y674249D01*
X2032666Y673507D01*
X2034690Y672532D01*
X2036592Y671337D01*
X2038348Y669936D01*
X2039936Y668348D01*
X2041337Y666592D01*
X2042532Y664690D01*
X2043507Y662666D01*
X2044249Y660545D01*
X2044749Y658355D01*
X2045000Y656123D01*
X2045000Y653877D01*
M02*
