M48
;GenerationSoftware,Autodesk,EAGLE,9.0.1*%
;CreationDate,2019-03-04T21:36:30Z*%
FMAT,2
ICI,OFF
INCH,TZ,00.0000
T4C0.0138
T3C0.0320
T2C0.0400
T1C0.0440
%
G90
M72
T1
X22500Y2750
X21250Y2750
T2
X30280Y860
X750Y750
X19250Y750
X750Y23500
X19250Y23500
X21250Y750
X39750Y750
X21250Y23500
X39750Y23500
X23970Y2640
X26530Y2640
X23970Y860
X26530Y860
X27720Y2640
X30280Y2640
X27720Y860
T3
X35500Y2000
X36500Y2000
X37500Y2000
X38500Y2000
X39500Y2000
T4
X34250Y4663
X35750Y6663
X37250Y8663
X38750Y10663
X37250Y12663
X35750Y14663
X34250Y16663
X35750Y18663
X37250Y20663
X38750Y22663
X21750Y12250
X23250Y21000
X23250Y20250
X23250Y19000
X23250Y18250
X23250Y17000
X23250Y16250
X23250Y15000
X23250Y14250
X23250Y13000
X23250Y12250
X23250Y11000
X23250Y10250
X23250Y9000
X23250Y8250
X23250Y7000
X23250Y6250
X23250Y5000
X23250Y4250
X24750Y21000
X24750Y20250
X24750Y19000
X24750Y18250
X24750Y17000
X24750Y16250
X24750Y15000
X24750Y14250
X24750Y13000
X24750Y12250
X24750Y11000
X24750Y10250
X24750Y9000
X24750Y8250
X24750Y7000
X24750Y6250
X24750Y5000
X24750Y4250
X26250Y21000
X26250Y20250
X26250Y19000
X26250Y18250
X26250Y17000
X26250Y16250
X26250Y15000
X26250Y14250
X26250Y13000
X26250Y12250
X26250Y11000
X26250Y10250
X26250Y9000
X26250Y8250
X26250Y7000
X26250Y6250
X26250Y5000
X26250Y4250
X27750Y21000
X27750Y20250
X27750Y19000
X27750Y18250
X27750Y17000
X27750Y16250
X27750Y15000
X27500Y14250
X27500Y13000
X27500Y12250
X27750Y11000
X27750Y10250
X27750Y9000
X27750Y8250
X27750Y7000
X27750Y6250
X27750Y5000
X27750Y4250
X29250Y21000
X29250Y20250
X29250Y19000
X29250Y18250
X29250Y17000
X29250Y16250
X30250Y15000
X30250Y14250
X30250Y13000
X30250Y12250
X30250Y11250
X30250Y10250
X29250Y9000
X29250Y8250
X29250Y7000
X29250Y6250
X29250Y5000
X29250Y4250
X31750Y21000
X31750Y20250
X31750Y19000
X31750Y18250
X31750Y17000
X31750Y16250
X30750Y15000
X30750Y14250
X30750Y13000
X30750Y12250
X30750Y11250
X30750Y10250
X31750Y9000
X31750Y8250
X31750Y7000
X31750Y6250
X31750Y5000
X31750Y4250
X33250Y21000
X33250Y20250
X33250Y19000
X33250Y18250
X33250Y17000
X33250Y16250
X33250Y15000
X33500Y14250
X33500Y13000
X33500Y12250
X33250Y11000
X33250Y10250
X33250Y9000
X33250Y8250
X33250Y7000
X33250Y6250
X33250Y5000
X33250Y4250
X34750Y21000
X34750Y20250
X34750Y19000
X34750Y18250
X34750Y17000
X34750Y16250
X34750Y15000
X34750Y14250
X34750Y13000
X34750Y12250
X34750Y11000
X34750Y10250
X34750Y9000
X34750Y8250
X34750Y7000
X34750Y6250
X34750Y5000
X34750Y4250
X36250Y21000
X36250Y20250
X36250Y19000
X36250Y18250
X36250Y17000
X36250Y16250
X36250Y15000
X36250Y14250
X36250Y13000
X30850Y3000
X36250Y11000
X36250Y10250
X36250Y9000
X36250Y8250
X36250Y7000
X36250Y6250
X36250Y5000
X36250Y4250
X37750Y21000
X37750Y20250
X37750Y19000
X37750Y18250
X37750Y17000
X37750Y16250
X37750Y15000
X37750Y14250
X37750Y13000
X37750Y12250
X37750Y11000
X37750Y10250
X37750Y9000
X37750Y8250
X37750Y7000
X37750Y6250
X37750Y5000
X37750Y4250
X39250Y8300
X32800Y13350
X32250Y13800
X32446Y13104
X36250Y12250
X32325Y8000
X30825Y8444
X30450Y5111
X30800Y6444
X30112Y5100
X30462Y6444
X32500Y11150
X31800Y12400
X27350Y9800
X31650Y14250
X29300Y14250
X28300Y3000
X28750Y5000
X28750Y5650
X25675Y13803
X25650Y13100
X25596Y12270
X25650Y11450
X25675Y5802
X25562Y5111
X24250Y12400
X24250Y11800
X21900Y1850
X28050Y2100
X25950Y13600
X25912Y12882
X25900Y12444
X25900Y11712
X25900Y5549
X25900Y5111
X32000Y13500
M30